<svg width="180" height="145" viewBox="0 0 180 145" fill="none" xmlns="http://www.w3.org/2000/svg">
<g clip-path="url(#clip0_102_15180)">
<path d="M90.0297 4.81738C77.9625 4.8222 63.8864 5.63471 48.3524 8.06421C33.6806 10.3588 20.658 13.633 9.50764 17.1158C6.71685 17.9878 4.81885 20.5714 4.81885 23.4939V76.1738C4.81885 79.8638 7.81036 82.8569 11.502 82.8569H15.2643C18.9543 82.8569 21.9474 85.8485 21.9474 89.5401V108.718C21.9474 112.408 24.9389 115.401 28.6305 115.401H36.7813C38.7195 115.401 40.5661 116.239 41.8314 117.707C45.1505 121.556 49.8441 126.084 56.2045 130.066C69.9546 138.674 83.52 139.741 90.0329 139.808" fill="white"/>
<path d="M90.0297 4.81738C77.9625 4.8222 63.8864 5.63471 48.3524 8.06421C33.6806 10.3588 20.658 13.633 9.50764 17.1158C6.71685 17.9878 4.81885 20.5714 4.81885 23.4939V76.1738C4.81885 79.8638 7.81036 82.8569 11.502 82.8569H15.2643C18.9543 82.8569 21.9474 85.8485 21.9474 89.5401V108.718C21.9474 112.408 24.9389 115.401 28.6305 115.401H36.7813C38.7195 115.401 40.5661 116.239 41.8314 117.707C45.1505 121.556 49.8441 126.084 56.2045 130.066C69.9546 138.674 83.52 139.741 90.0329 139.808" stroke="white" stroke-width="9.63451" stroke-miterlimit="10"/>
<path d="M90.0297 4.81738C77.9625 4.8222 63.8864 5.63471 48.3524 8.06421C33.6806 10.3588 20.658 13.633 9.50764 17.1158C6.71685 17.9878 4.81885 20.5714 4.81885 23.4939V76.1738C4.81885 79.8638 7.81036 82.8569 11.502 82.8569H15.2643C18.9543 82.8569 21.9474 85.8485 21.9474 89.5401V108.718C21.9474 112.408 24.9389 115.401 28.6305 115.401H36.7813C38.7195 115.401 40.5661 116.239 41.8314 117.707C45.1505 121.556 49.8441 126.084 56.2045 130.066C69.9546 138.674 83.52 139.741 90.0329 139.808" stroke="black" stroke-width="3.2115" stroke-miterlimit="10"/>
</g>
<g clip-path="url(#clip1_102_15180)">
<path d="M89.9703 4.81738C102.038 4.8222 116.114 5.63471 131.648 8.06421C146.319 10.3588 159.342 13.633 170.492 17.1158C173.283 17.9878 175.181 20.5714 175.181 23.4939V76.1738C175.181 79.8638 172.19 82.8569 168.498 82.8569H164.736C161.046 82.8569 158.053 85.8485 158.053 89.5401V108.718C158.053 112.408 155.061 115.401 151.369 115.401H143.219C141.281 115.401 139.434 116.239 138.169 117.707C134.849 121.556 130.156 126.084 123.795 130.066C110.045 138.674 96.48 139.741 89.9671 139.808" fill="white"/>
<path d="M89.9703 4.81738C102.038 4.8222 116.114 5.63471 131.648 8.06421C146.319 10.3588 159.342 13.633 170.492 17.1158C173.283 17.9878 175.181 20.5714 175.181 23.4939V76.1738C175.181 79.8638 172.19 82.8569 168.498 82.8569H164.736C161.046 82.8569 158.053 85.8485 158.053 89.5401V108.718C158.053 112.408 155.061 115.401 151.369 115.401H143.219C141.281 115.401 139.434 116.239 138.169 117.707C134.849 121.556 130.156 126.084 123.795 130.066C110.045 138.674 96.48 139.741 89.9671 139.808" stroke="white" stroke-width="9.63451" stroke-miterlimit="10"/>
<path d="M89.9703 4.81738C102.038 4.8222 116.114 5.63471 131.648 8.06421C146.319 10.3588 159.342 13.633 170.492 17.1158C173.283 17.9878 175.181 20.5714 175.181 23.4939V76.1738C175.181 79.8638 172.19 82.8569 168.498 82.8569H164.736C161.046 82.8569 158.053 85.8485 158.053 89.5401V108.718C158.053 112.408 155.061 115.401 151.369 115.401H143.219C141.281 115.401 139.434 116.239 138.169 117.707C134.849 121.556 130.156 126.084 123.795 130.066C110.045 138.674 96.48 139.741 89.9671 139.808" stroke="black" stroke-width="3.2115" stroke-miterlimit="10"/>
</g>
<path d="M52.3459 102.071C52.3058 102.071 52.2656 102.071 52.2255 102.071C51.3664 102.055 51.1785 101.911 51.0083 101.076C50.7771 99.9422 50.5796 98.8037 50.3355 97.6733C50.2183 97.1305 50.0368 96.599 49.8586 96.0707C49.8249 95.9728 49.6723 95.8684 49.5647 95.8588C49.4845 95.8507 49.3383 95.9712 49.3078 96.0627C49.1376 96.5797 48.9674 97.0984 48.8454 97.6283C48.5371 98.9627 48.2641 100.305 47.9478 101.638C47.9092 101.797 47.6973 102.034 47.5656 102.033C46.7691 102.03 45.9711 101.978 45.1762 101.919C44.8053 101.89 44.6271 101.612 44.5548 101.28C44.4135 100.629 44.2963 99.9759 44.1534 99.3256C43.9253 98.2883 43.7005 97.2493 43.4356 96.2201C43.3794 96.0001 43.3441 95.6099 42.9796 95.6693C42.6713 95.7207 42.668 96.0418 42.6247 96.3116C42.4513 97.389 42.2634 98.4633 42.0739 99.5375C41.9792 100.074 41.8652 100.607 41.7736 101.145C41.6693 101.762 41.5874 101.884 40.9724 101.911C40.2963 101.941 39.6187 101.911 38.9411 101.893C38.6537 101.885 38.5075 101.726 38.5589 101.423C38.6553 100.851 38.7468 100.278 38.8415 99.7061C38.8849 99.4444 38.9266 99.1811 38.9748 98.9209C39.1466 97.9944 39.3297 97.0695 39.4951 96.143C39.7648 94.6255 40.0041 93.1033 40.2931 91.5907C40.5485 90.2579 40.8375 88.9315 41.1538 87.6132C41.1956 87.4414 41.4798 87.207 41.6532 87.2054C42.652 87.1925 43.6556 87.2118 44.6511 87.2905C44.8438 87.3049 45.1265 87.6036 45.1714 87.8139C45.4299 88.9974 45.6274 90.1921 45.8474 91.3835C45.8988 91.6581 45.9357 91.9359 46.0176 92.2025C46.0498 92.3052 46.1814 92.4385 46.273 92.4433C46.3741 92.4498 46.5363 92.347 46.5813 92.2506C46.7081 91.9744 46.8205 91.6854 46.8847 91.3883C47.1417 90.1953 47.3729 88.9958 47.6234 87.8011C47.6892 87.4864 47.8466 87.2792 48.2207 87.2086C49.1119 87.0384 49.9999 87.0271 50.8943 87.1395C51.4033 87.2038 51.5334 87.3788 51.6297 87.8766C51.8722 89.1307 52.1516 90.3767 52.4005 91.6292C52.4985 92.1254 52.5274 92.6344 52.6317 93.129C53.0573 95.1571 53.5117 97.1771 53.9276 99.2068C54.0721 99.9101 54.1395 100.628 54.2262 101.342C54.2648 101.665 54.1363 101.872 53.7734 101.912C53.2981 101.967 52.8244 102.054 52.3507 102.126C52.3475 102.108 52.3459 102.092 52.3427 102.075L52.3459 102.071Z" fill="black"/>
<path d="M131.405 94.4376C131.405 96.4513 131.408 98.4633 131.402 100.477C131.402 100.796 131.37 101.114 131.342 101.434C131.318 101.713 131.159 101.863 130.875 101.887C130.225 101.941 129.576 101.999 128.927 102.059C128.428 102.104 128.055 101.885 127.856 101.45C127.481 100.631 127.151 99.7912 126.795 98.9627C126.49 98.2561 126.175 97.5528 125.864 96.8495C125.681 96.4368 125.518 96.0129 125.302 95.6179C125.212 95.4557 125.003 95.3593 124.847 95.2325C124.73 95.3818 124.557 95.5167 124.508 95.6853C124.431 95.9631 124.396 96.2666 124.412 96.5556C124.463 97.5801 124.579 98.6014 124.602 99.6242C124.614 100.242 124.521 100.865 124.427 101.48C124.406 101.62 124.202 101.797 124.048 101.84C123.238 102.07 122.418 102.095 121.596 101.874C121.278 101.787 121.239 101.554 121.241 101.285C121.252 100.14 121.263 98.9948 121.274 97.8515C121.274 97.7985 121.281 97.7455 121.279 97.6909C121.231 95.6147 121.157 93.5384 121.141 91.4606C121.131 90.237 121.204 89.0118 121.262 87.7866C121.276 87.4831 121.462 87.2551 121.799 87.2503C122.48 87.2407 123.161 87.2358 123.84 87.2551C124.245 87.2664 124.488 87.5538 124.658 87.8814C125.164 88.8577 125.663 89.8372 126.148 90.8247C126.517 91.5746 126.858 92.3389 127.217 93.0936C127.274 93.2108 127.346 93.3297 127.439 93.4212C127.672 93.6524 127.925 93.5834 127.998 93.2606C128.046 93.0422 128.054 92.811 128.057 92.5846C128.078 90.9853 128.091 89.3859 128.107 87.785C128.112 87.276 128.194 87.1748 128.711 87.1475C129.377 87.1122 130.043 87.0945 130.711 87.0865C131.18 87.0801 131.365 87.2792 131.373 87.838C131.386 88.8239 131.368 89.8115 131.367 90.7974C131.365 92.0097 131.367 93.2237 131.367 94.436C131.378 94.436 131.391 94.436 131.402 94.436L131.405 94.4376Z" fill="black"/>
<path d="M56.3635 92.5332C56.3635 90.9997 56.3619 89.4662 56.3635 87.9327C56.3635 87.3739 56.5032 87.1989 57.0459 87.1556C57.7107 87.1026 58.3803 87.0688 59.0467 87.0688C59.5445 87.0688 59.742 87.345 59.7243 87.8043C59.6842 88.9347 59.6649 90.0652 59.6472 91.1956C59.6328 92.1141 59.6071 93.0342 59.6264 93.9543C59.6521 95.1008 59.7115 96.2457 59.7725 97.3906C59.803 97.9542 60.2141 98.4392 60.7681 98.6174C61.5565 98.8727 62.2389 98.6945 62.7223 98.1036C63.1398 97.593 63.2859 97.0101 63.249 96.3533C63.1976 95.4653 63.1735 94.5741 63.1687 93.6845C63.159 91.8588 63.1783 90.0347 63.1655 88.2089C63.1606 87.5169 63.2602 87.3579 63.9507 87.1989C64.6106 87.0464 65.2658 87.0255 65.9338 87.1796C66.3047 87.2647 66.4412 87.4398 66.4348 87.8091C66.4107 89.0086 66.393 90.2097 66.401 91.4092C66.4107 92.7821 66.4877 94.155 66.4621 95.5264C66.4428 96.6151 66.3368 97.7053 66.2276 98.7908C66.1297 99.772 65.5725 100.482 64.7648 101.012C64.3762 101.267 63.9988 101.551 63.5862 101.758C63.2746 101.916 62.9101 102.065 62.5729 102.055C61.5356 102.026 60.4967 101.945 59.4658 101.827C59.1543 101.792 58.7994 101.643 58.573 101.431C58.003 100.896 57.4136 100.352 56.9833 99.7109C56.4117 98.8567 56.3924 97.8145 56.3667 96.8174C56.3298 95.3915 56.3571 93.964 56.3571 92.5364C56.3571 92.5364 56.3587 92.5364 56.3603 92.5364L56.3635 92.5332Z" fill="black"/>
<path d="M117.433 101.962C117.193 101.962 116.952 101.964 116.712 101.962C115.979 101.956 115.847 101.834 115.664 101.137C115.535 100.649 115.364 100.172 115.195 99.6965C115.007 99.1666 114.603 98.9161 114.053 98.9353C113.051 98.9707 112.051 99.0188 111.051 99.0847C110.493 99.1216 110.341 99.5873 110.18 100.011C110.005 100.47 109.835 100.933 109.703 101.405C109.615 101.721 109.443 101.903 109.125 101.916C108.459 101.941 107.791 101.965 107.125 101.954C106.686 101.946 106.569 101.805 106.664 101.368C106.816 100.655 106.994 99.9437 107.203 99.2452C107.714 97.5431 108.266 95.8539 108.769 94.1486C109.177 92.7612 109.516 91.3514 109.925 89.964C110.153 89.1884 110.463 88.4369 110.736 87.6758C110.837 87.3932 111.035 87.2503 111.34 87.2471C112.208 87.2358 113.075 87.2101 113.944 87.2069C114.553 87.2053 114.664 87.3113 114.837 87.899C115.338 89.5915 115.828 91.2887 116.353 92.9732C116.798 94.4039 117.308 95.8154 117.747 97.2477C118.026 98.1614 118.227 99.0991 118.46 100.027C118.574 100.478 118.675 100.933 118.797 101.381C118.903 101.776 118.802 101.941 118.397 101.956C118.077 101.967 117.756 101.957 117.435 101.957C117.435 101.957 117.435 101.961 117.435 101.962H117.433ZM113.032 96.8703C113.032 96.8703 113.034 96.8559 113.035 96.8479C113.156 96.8479 113.276 96.8543 113.395 96.8479C113.999 96.8109 114.238 96.448 114.044 95.8764C114.005 95.764 113.994 95.6419 113.957 95.5295C113.702 94.7507 113.461 93.9671 113.17 93.2012C113.1 93.0149 112.864 92.8897 112.705 92.7371C112.549 92.9057 112.321 93.0487 112.25 93.2478C111.951 94.0972 111.685 94.9579 111.436 95.8234C111.277 96.3742 111.511 96.6857 112.083 96.7579C112.399 96.7981 112.717 96.835 113.034 96.8735L113.032 96.8703Z" fill="black"/>
<path d="M139.476 102.097C138.279 102.014 137.191 101.884 136.317 101.235C135.656 100.743 135.124 100.071 134.572 99.446C134.395 99.2469 134.43 98.9787 134.724 98.8085C135.381 98.4295 136.023 98.0265 136.677 97.6427C136.987 97.4613 137.242 97.5576 137.507 97.7856C137.896 98.1212 138.302 98.4472 138.74 98.7105C139.113 98.9337 139.519 98.8262 139.879 98.6013C140.214 98.391 140.315 97.8611 140.004 97.548C139.615 97.1562 139.183 96.782 138.71 96.5026C137.281 95.6596 135.901 94.7652 134.8 93.5015C133.971 92.5509 133.809 90.4762 134.511 89.4807C134.809 89.0568 135.058 88.5991 135.358 88.1784C135.75 87.6292 136.304 87.3322 136.972 87.2471C137.554 87.1732 138.133 87.0656 138.716 87.0335C139.545 86.9885 140.25 87.4044 140.985 87.7127C141.974 88.1286 142.711 88.7918 143.22 89.7264C143.427 90.1053 143.397 90.3092 143.028 90.5148C142.401 90.8632 141.765 91.194 141.13 91.5264C140.792 91.703 140.542 91.5633 140.341 91.2807C140.006 90.807 139.558 90.4907 138.999 90.3333C138.557 90.2081 138.136 90.2691 137.796 90.5742C137.515 90.8263 137.419 91.2133 137.582 91.5296C137.759 91.87 138.024 92.2169 138.34 92.4192C139.077 92.8897 139.872 93.2719 140.64 93.6958C141.566 94.2064 142.313 94.9386 142.97 95.7415C143.257 96.0932 143.342 96.6102 143.519 97.0534C143.922 98.065 143.588 98.953 143.037 99.7944C142.631 100.413 142.337 101.138 141.632 101.497C140.921 101.858 140.195 102.209 139.474 102.095L139.476 102.097Z" fill="black"/>
<path d="M74.7783 102.107C73.3765 102.026 72.2653 101.88 71.3693 101.214C70.719 100.729 70.2019 100.061 69.6624 99.4412C69.4841 99.2372 69.5259 98.9755 69.8197 98.8069C70.4765 98.4279 71.1188 98.0249 71.7739 97.6427C72.0646 97.4725 72.3151 97.548 72.5736 97.7664C72.975 98.1068 73.3877 98.4456 73.8357 98.7154C74.2067 98.9386 74.6145 98.831 74.9726 98.6014C75.3194 98.3798 75.3981 97.8434 75.0641 97.5143C74.6803 97.1353 74.2564 96.774 73.794 96.5026C72.3632 95.6628 70.9871 94.762 69.884 93.4999C69.0602 92.5557 68.8852 90.4779 69.6046 89.4807C70.0365 88.8801 70.3946 88.18 70.9486 87.7224C71.7466 87.0624 72.808 87.0656 73.8116 87.0287C74.6611 86.9982 75.3692 87.4285 76.1175 87.7352C77.0858 88.1335 77.7875 88.8015 78.2949 89.7007C78.5181 90.0957 78.494 90.306 78.1086 90.5212C77.4824 90.8697 76.8481 91.2021 76.2122 91.5328C75.875 91.7079 75.6245 91.565 75.4254 91.2807C75.1187 90.8408 74.706 90.5389 74.1986 90.3671C73.7233 90.2065 73.2609 90.2386 72.8835 90.5822C72.5913 90.8472 72.4853 91.2695 72.686 91.5714C72.9558 91.976 73.3267 92.3566 73.7362 92.6199C74.4828 93.0984 75.3275 93.4292 76.0661 93.9206C76.9396 94.5035 77.8003 95.1586 78.2708 96.1285C78.5438 96.6921 78.7188 97.3376 78.7734 97.9607C78.8087 98.3733 78.6096 98.8406 78.4121 99.2308C78.099 99.8426 77.7602 100.461 77.3202 100.983C76.596 101.843 75.5619 102.057 74.7799 102.108L74.7783 102.107Z" fill="black"/>
<path d="M93.7326 87.0592C95.6145 86.8553 98.089 88.4675 98.6622 90.0154C98.7072 90.1374 98.6253 90.4088 98.5225 90.4666C97.8401 90.8488 97.1416 91.2101 96.4318 91.5393C96.1412 91.6741 95.8521 91.6131 95.5936 91.3562C95.2741 91.0399 94.9401 90.7059 94.5483 90.5003C93.8273 90.1214 93.1545 90.4393 92.5106 90.7958C91.8313 91.1715 91.5311 91.809 91.2725 92.4931C90.8261 93.6749 90.7314 94.86 91.0349 96.0964C91.3657 97.4452 92.122 98.3926 93.4612 98.8085C94.0376 98.9867 94.5884 98.839 95.0846 98.4793C95.6627 98.0602 95.7269 98.0795 96.2712 98.5773C96.6839 98.9546 97.1159 99.3111 97.5269 99.6901C97.8304 99.9695 97.8208 100.177 97.5671 100.478C96.9569 101.198 96.1364 101.546 95.2789 101.872C94.0874 102.327 92.9329 102.049 91.78 101.782C91.4893 101.715 91.2163 101.489 90.9803 101.283C90.5275 100.89 90.126 100.437 89.67 100.048C88.9153 99.4058 88.3758 98.6479 88.175 97.6604C87.9984 96.7885 87.7463 95.931 87.6098 95.0526C87.4878 94.2723 87.6419 93.4951 87.8218 92.7211C88.037 91.7978 88.3115 90.9002 88.7804 90.0764C89.275 89.2093 90.1132 88.6826 90.8567 88.0596C91.7286 87.3274 92.7049 86.9693 93.7326 87.056V87.0592Z" fill="black"/>
<path d="M81.6172 94.603C81.6172 92.363 81.6172 90.123 81.6172 87.8813C81.6172 87.276 81.8179 87.0431 82.4313 87.0672C83.1089 87.0961 83.7866 87.1877 84.461 87.2663C84.7307 87.2985 84.8319 87.496 84.8415 87.7529C84.8544 88.1527 84.8833 88.5526 84.8833 88.9524C84.8833 90.7348 84.8704 92.5188 84.8801 94.3011C84.8833 94.9386 84.9411 95.5745 84.9716 96.2104C84.9796 96.3822 84.9861 96.5556 84.978 96.7274C84.9475 97.389 84.8961 98.0506 84.8801 98.7121C84.8544 99.6852 84.8512 100.658 84.8399 101.63C84.8367 101.953 84.6713 102.073 84.3582 102.068C83.6774 102.06 82.9965 102.068 82.3173 102.071C81.7505 102.075 81.6236 101.962 81.622 101.402C81.6172 100.108 81.6188 98.8149 81.6172 97.5207C81.6172 96.5476 81.6172 95.5729 81.6172 94.5998V94.603Z" fill="black"/>
<path d="M101.113 94.5998C101.113 92.3598 101.113 90.1198 101.113 87.8797C101.113 87.2728 101.312 87.0431 101.924 87.0688C102.601 87.0961 103.282 87.17 103.95 87.2856C104.101 87.3113 104.286 87.5794 104.319 87.7625C104.387 88.1254 104.372 88.506 104.372 88.8785C104.374 90.6882 104.363 92.4963 104.372 94.3059C104.376 94.9434 104.435 95.5793 104.464 96.2152C104.472 96.387 104.477 96.5604 104.469 96.7322C104.438 97.3938 104.387 98.0538 104.371 98.717C104.345 99.69 104.342 100.662 104.332 101.635C104.329 101.959 104.16 102.075 103.849 102.071C103.168 102.063 102.487 102.071 101.808 102.075C101.246 102.078 101.117 101.964 101.116 101.4C101.111 99.1328 101.114 96.8671 101.114 94.5998H101.111H101.113Z" fill="black"/>
<path d="M66.9663 118.331C67.3677 117.36 67.7755 116.392 68.1674 115.417C68.2894 115.117 68.4435 115.001 68.792 115.147C70.014 115.653 71.2568 116.094 72.5029 116.51C72.8208 116.616 73.1259 116.73 73.1099 117.166C73.081 118.031 72.8642 118.198 71.9842 117.925C71.3066 117.713 70.637 117.477 69.961 117.255C69.5194 117.109 69.3251 117.201 69.2015 117.561C69.0296 118.063 69.1035 118.251 69.582 118.431C70.1537 118.644 70.7382 118.821 71.3098 119.027C71.7996 119.202 71.8445 119.309 71.7064 119.762C71.4752 120.52 71.4335 120.56 70.5904 120.334C70.0477 120.186 69.5162 119.992 68.9927 119.781C68.6041 119.626 68.3729 119.712 68.2444 120.049C68.2396 120.062 68.2332 120.074 68.2284 120.086C67.7691 121.067 67.843 121.233 68.9911 121.65C69.6527 121.888 70.3126 122.127 70.9806 122.334C71.3789 122.456 71.4864 122.668 71.3628 122.993C71.3339 123.068 71.3211 123.147 71.2954 123.222C71.093 123.836 70.9726 123.894 70.258 123.658C68.898 123.208 67.5491 122.712 66.2132 122.169C65.6094 121.922 65.5275 121.803 65.7346 121.275C66.1216 120.284 66.5423 119.308 66.9502 118.325C66.955 118.326 66.9614 118.33 66.9663 118.331Z" fill="black"/>
<path d="M113.665 117.31C113.849 117.78 114.036 118.251 114.219 118.721C114.318 118.978 114.498 119.078 114.818 119.038C115.367 118.972 115.886 119.353 115.873 119.863C115.868 120.033 115.677 120.271 115.5 120.382C115.113 120.626 114.959 120.875 115.171 121.239C115.205 121.297 115.218 121.365 115.245 121.424C115.592 122.222 115.441 122.487 114.265 122.813C114.084 122.863 113.777 122.641 113.625 122.472C113.467 122.301 113.429 122.039 113.332 121.821C113.161 121.43 112.92 121.339 112.456 121.496C111.666 121.764 110.871 122.012 110.081 122.27C109.671 122.403 109.405 122.283 109.334 121.955C109.247 121.564 109.129 121.122 109.244 120.751C109.674 119.357 110.139 117.978 110.538 116.594C110.583 116.436 110.704 116.228 110.839 116.175C111.43 115.945 112.033 115.733 112.643 115.553C112.751 115.521 112.998 115.696 113.063 115.831C113.289 116.311 113.464 116.815 113.658 117.31C113.66 117.31 113.663 117.308 113.665 117.307V117.31ZM112.354 118.922C112.354 118.922 112.362 118.919 112.366 118.917C112.285 118.694 112.218 118.465 112.117 118.249C112.08 118.169 111.963 118.07 111.886 118.076C111.804 118.082 111.683 118.193 111.656 118.278C111.483 118.819 111.296 119.362 111.16 119.913C111.078 120.236 111.299 120.371 111.661 120.271C112.562 120.019 112.629 119.91 112.411 119.112C112.393 119.047 112.372 118.985 112.353 118.922H112.354Z" fill="black"/>
<path d="M101.064 122.203C101.167 122.847 101.292 123.486 101.365 124.133C101.421 124.632 101.286 125.114 100.944 125.544C100.305 126.349 99.3205 126.558 98.3346 126.48C97.1303 126.386 96.4607 125.652 96.3708 124.595C96.2712 123.457 96.1717 122.317 96.1026 121.177C96.0368 119.968 96.8059 118.994 98.1114 118.85C98.6654 118.789 99.1905 118.791 99.7059 119.027C100.294 119.296 100.648 119.746 100.772 120.35C100.897 120.962 100.976 121.583 101.074 122.2C101.071 122.2 101.066 122.2 101.063 122.201L101.064 122.203ZM99.4731 122.559C99.4731 122.559 99.4843 122.559 99.4907 122.558C99.4233 122.058 99.3671 121.556 99.2868 121.056C99.2097 120.575 98.8244 120.305 98.3426 120.361C97.8754 120.416 97.6698 120.672 97.7212 121.23C97.8111 122.209 97.9171 123.187 98.0343 124.165C98.0905 124.645 98.508 124.969 98.9416 124.908C99.4281 124.839 99.722 124.444 99.6577 123.942C99.5999 123.481 99.5357 123.018 99.4747 122.558L99.4731 122.559Z" fill="black"/>
<path d="M91.7944 126.961C91.1489 126.967 90.5002 126.986 89.8579 126.946C89.2059 126.904 89.0133 126.699 89.0807 126.14C89.161 125.459 89.1465 124.77 89.5592 124.138C90.0731 123.348 90.8856 122.938 91.682 122.49C91.902 122.367 92.1509 122.288 92.3629 122.156C92.7322 121.927 92.8622 121.504 92.6712 121.268C92.4769 121.027 91.9646 121.031 91.6322 121.263C91.4283 121.408 91.1842 121.686 91.0124 121.652C90.627 121.575 90.2609 121.365 89.9317 121.148C89.8402 121.087 89.8161 120.772 89.8948 120.672C90.9225 119.406 92.1927 118.871 93.7374 119.817C94.3347 120.183 94.6848 121.371 94.4857 122.034C94.1774 123.057 93.2894 123.51 92.3789 123.984C91.9839 124.191 91.6306 124.489 91.3095 124.791C91.1875 124.905 91.1618 125.173 91.2164 125.337C91.2453 125.425 91.5375 125.488 91.7141 125.488C92.4961 125.495 93.2781 125.474 94.0585 125.421C94.4134 125.397 94.5338 125.504 94.5467 125.814C94.5868 126.763 94.5515 126.831 93.4548 126.924C92.904 126.969 92.3484 126.959 91.7944 126.965C91.7944 126.964 91.7944 126.962 91.7944 126.959V126.961Z" fill="black"/>
<path d="M105.816 125.337C105.182 125.48 104.549 125.633 103.908 125.731C103.19 125.84 102.959 125.668 102.911 125.039C102.855 124.342 102.715 123.661 103.023 122.945C103.38 122.118 104.067 121.583 104.713 121C104.942 120.793 105.204 120.619 105.421 120.403C105.678 120.146 105.675 119.823 105.427 119.609C105.201 119.414 104.878 119.423 104.618 119.65C104.494 119.757 104.351 119.871 104.289 120.011C104.127 120.372 103.838 120.382 103.512 120.321C103.43 120.305 103.353 120.269 103.271 120.249C102.383 120.014 102.325 119.842 102.86 119.108C103.184 118.659 103.528 118.257 104.067 117.988C104.769 117.638 105.41 117.769 106.102 117.907C106.754 118.037 107.449 119.354 107.389 119.952C107.283 121.015 106.519 121.649 105.723 122.307C105.368 122.601 105.05 122.972 104.822 123.356C104.555 123.802 104.817 124.057 105.368 123.937C106.135 123.77 106.903 123.585 107.659 123.369C107.995 123.272 108.147 123.332 108.229 123.642C108.473 124.578 108.465 124.634 107.396 124.96C106.877 125.116 106.344 125.22 105.816 125.34V125.339V125.337Z" fill="black"/>
<path d="M75.1523 125.067C74.1327 124.794 73.3924 124.221 72.9637 123.364C72.779 122.996 72.8545 122.847 73.2672 122.757C73.4101 122.725 73.5546 122.7 73.6959 122.665C74.4346 122.484 74.5229 122.525 74.9548 123.089C75.1042 123.283 75.4847 123.396 75.7722 123.434C76.0821 123.474 76.2186 123.155 75.9905 122.88C75.6469 122.466 75.2391 122.097 74.8858 121.69C74.5422 121.295 74.1921 120.9 73.9159 120.469C73.4486 119.738 73.6397 118.797 74.2692 118.243C75.3193 117.32 76.5269 117.328 77.6268 118.233C78.0363 118.57 78.3911 118.917 78.5694 119.428C78.6689 119.714 78.624 119.86 78.3141 119.918C78.1631 119.945 78.0009 119.955 77.8677 120.017C77.3635 120.252 77.023 120.126 76.7324 119.648C76.5124 119.285 75.9279 119.158 75.6967 119.338C75.4301 119.547 75.5185 120.035 75.8814 120.367C76.347 120.794 76.8657 121.183 77.2832 121.649C78.1037 122.561 78.5309 123.625 77.2382 124.658C76.6248 125.141 75.9552 125.266 75.1539 125.071L75.1523 125.067Z" fill="black"/>
<path d="M81.0134 123.279C81.137 122.505 81.2703 121.731 81.3811 120.953C81.4646 120.363 81.3329 120.212 80.7276 120.096C80.7147 120.093 80.7003 120.091 80.6858 120.088C79.7256 119.905 79.6308 119.727 79.9504 118.847C80.0515 118.567 80.2715 118.553 80.5172 118.593C81.4791 118.754 82.4425 118.892 83.4076 119.009C83.801 119.057 84.1944 119.113 84.5894 119.155C84.9073 119.189 85.0438 119.369 85.047 119.666C85.047 119.706 85.047 119.746 85.047 119.786C85.0181 120.679 84.986 120.713 84.0563 120.611C83.308 120.526 83.2374 120.563 83.1394 121.271C82.9403 122.734 82.7556 124.199 82.5629 125.662C82.4843 126.268 82.343 126.455 81.5642 126.301C80.5429 126.093 80.5365 126.126 80.6842 125.246C80.7934 124.59 80.8946 123.932 81.0006 123.275C81.0054 123.275 81.0102 123.277 81.015 123.277L81.0134 123.279Z" fill="black"/>
<path d="M67.5829 56.1212C67.5829 53.0783 67.5749 50.0338 67.5877 46.9909C67.5925 46.0226 67.9073 45.7432 68.8675 45.6983C70.0959 45.6421 71.3227 45.5473 72.5511 45.512C72.9285 45.5007 73.3187 45.6003 73.688 45.6983C74.1199 45.8139 74.3496 46.2619 74.2837 46.7018C74.2163 47.1499 74.1328 47.6011 74.1344 48.0507C74.1392 52.99 74.1456 57.9293 74.1826 62.867C74.1906 64.0135 74.3014 65.16 74.3913 66.3033C74.4748 67.3631 75.4078 68.2815 76.5061 68.6717C78.7702 69.4746 80.3904 67.8817 81.0407 66.39C81.4566 65.4394 81.5208 64.4807 81.2944 63.4627C81.0006 62.1412 80.9267 60.7907 81.0664 59.4435C81.2511 57.6595 81.2832 55.8883 81.1323 54.0931C81.0054 52.5725 81.0231 51.031 81.2479 49.4991C81.333 48.921 81.1563 48.3092 81.1579 47.7119C81.1579 47.3233 81.2141 46.9186 81.341 46.5525C81.5449 45.9648 82.1214 45.8604 82.6401 45.7641C84.0579 45.4991 85.4822 45.4847 86.9065 45.7432C87.5023 45.8524 87.7881 46.1655 87.7769 46.7998C87.7656 47.479 87.6677 48.1567 87.6596 48.8359C87.6372 50.5974 87.6404 52.3589 87.6404 54.1204C87.6404 55.0132 87.5633 55.9173 87.6789 56.7956C88.0193 59.3648 87.8218 61.9404 87.8154 64.5096C87.8106 65.9564 87.6211 67.4144 87.3899 68.8468C87.0559 70.9134 85.9768 72.5191 84.1286 73.5805C83.2406 74.0912 82.3912 74.6708 81.4936 75.1622C81.1435 75.3533 80.7131 75.4609 80.3117 75.485C78.547 75.5893 76.7775 75.5893 75.0336 75.273C74.0718 75.098 73.0537 75.0434 72.2123 74.4589C71.8655 74.218 71.5555 73.9177 71.2537 73.6207C70.5969 72.9768 69.9257 72.3425 69.3171 71.6536C68.7198 70.9776 68.3617 70.1571 68.1401 69.2819C67.4095 66.398 67.5444 63.4579 67.5669 60.5242C67.5781 59.0565 67.5685 57.5872 67.5685 56.1196C67.5717 56.1196 67.5765 56.1196 67.5797 56.1196L67.5829 56.1212Z" fill="black"/>
<path d="M100.098 53.9454C100.103 54.4544 100.337 54.9329 100.697 55.3665C101.342 56.1437 102.195 56.6174 103.078 57.075C104.565 57.8458 106.028 58.6647 107.481 59.4981C107.868 59.7197 108.202 60.0489 108.53 60.3604C109.323 61.1135 110.129 61.8569 110.869 62.6598C111.574 63.4241 111.815 64.4326 112.086 65.4056C112.215 65.8665 112.236 66.3579 112.375 66.8123C112.639 67.6681 112.473 68.4742 112.07 69.2097C111.362 70.5023 110.595 71.766 109.816 73.0185C109.244 73.9386 108.367 74.4974 107.356 74.8394C106.524 75.122 105.684 75.3774 104.846 75.6375C104.721 75.676 104.58 75.7098 104.454 75.6905C103.271 75.509 102.076 75.3693 100.909 75.1092C100.006 74.9069 99.1103 74.6098 98.2625 74.2405C97.7294 74.0077 97.2493 73.6046 96.8173 73.2016C96.069 72.5015 95.3657 71.7516 94.6688 71.0001C94.428 70.7399 94.2433 70.4204 94.0618 70.1121C93.829 69.7139 93.8997 69.3478 94.285 69.1149C95.7093 68.2526 97.1369 67.3952 98.5804 66.5666C98.9738 66.3402 99.4106 66.3723 99.7687 66.7127C100.242 67.1639 100.711 67.6184 101.183 68.0712C102.123 68.9704 103.252 69.1535 104.456 68.8259C105.464 68.5513 105.798 67.3197 105.105 66.4815C104.324 65.5389 103.359 64.8244 102.266 64.2495C100.552 63.3487 98.9241 62.2985 97.4484 61.0428C96.4657 60.2062 95.4717 59.3584 94.6271 58.3901C93.4083 56.9947 93.1096 55.2653 93.1626 53.4492C93.1996 52.1839 93.556 51.0438 94.2626 49.9984C94.7909 49.2148 95.2694 48.3975 95.8153 47.6252C96.5154 46.636 97.5383 46.1414 98.7009 45.9198C99.8265 45.7063 100.955 45.512 102.087 45.3321C102.274 45.3032 102.476 45.4092 102.672 45.414C104.273 45.4558 105.654 46.1639 107.038 46.8544C107.741 47.2044 108.456 47.5416 109.116 47.9607C110.065 48.5629 110.606 49.5424 111.226 50.44C111.407 50.7018 111.565 50.9812 111.719 51.2606C111.956 51.6941 111.942 51.9093 111.52 52.1694C110.956 52.5163 110.343 52.7812 109.758 53.0943C108.844 53.5841 107.929 54.0738 107.027 54.5829C106.657 54.7916 106.365 54.7338 106.108 54.4239C105.802 54.0546 105.522 53.6628 105.198 53.3111C104.493 52.5452 103.587 52.1453 102.577 51.9751C101.932 51.8659 101.318 52.0121 100.78 52.375C100.258 52.7266 100.101 53.2742 100.098 53.9422V53.9454Z" fill="black"/>
<path d="M128.741 63.3503C128.741 66.7946 128.752 70.2406 128.728 73.6849C128.725 74.1522 128.597 74.6403 128.42 75.0755C128.34 75.2746 128.004 75.4801 127.778 75.4882C127.224 75.5074 126.667 75.3998 126.109 75.3693C125.684 75.3468 125.255 75.3468 124.831 75.3693C124.194 75.4014 123.558 75.4817 122.92 75.5042C122.522 75.5171 122.196 75.3115 122.129 74.9069C122.037 74.3577 121.976 73.7973 121.975 73.2417C121.971 70.1844 121.994 67.127 122.003 64.0696C122.007 62.9344 121.984 61.7991 122.011 60.6655C122.026 60.0665 122.175 59.4708 122.167 58.8734C122.143 57.1665 122.077 55.4612 122.013 53.7543C121.997 53.3448 122.007 52.9065 121.865 52.5323C121.568 51.7439 120.822 51.5801 120.094 51.5303C119.189 51.4677 118.277 51.4934 117.366 51.4822C117.138 51.4789 116.912 51.4806 116.684 51.4741C115.664 51.4468 115.352 51.1385 115.348 50.1108C115.344 49.0832 115.351 48.0539 115.38 47.0262C115.407 46.0049 115.6 45.801 116.607 45.7801C117.917 45.7512 119.229 45.7801 120.539 45.748C121.273 45.7304 122.003 45.6324 122.737 45.5939C123.176 45.5714 123.622 45.5441 124.052 45.6051C125.148 45.7609 126.235 45.7576 127.328 45.6099C127.72 45.5569 128.129 45.5617 128.523 45.6035C129.684 45.7271 130.842 45.8058 131.998 45.565C132.178 45.528 132.372 45.5216 132.556 45.5393C133.208 45.6019 133.86 45.6677 134.509 45.756C135.214 45.8524 135.415 46.0756 135.423 46.7725C135.436 48.0539 135.442 49.3369 135.436 50.6183C135.431 51.3714 135.108 51.6845 134.352 51.6925C132.947 51.7054 131.542 51.7054 130.137 51.715C129.274 51.7214 128.838 52.1132 128.834 52.9819C128.818 56.4391 128.828 59.8963 128.828 63.3535C128.801 63.3535 128.772 63.3535 128.744 63.3535L128.741 63.3503Z" fill="black"/>
<path d="M54.883 56.1035C54.883 53.0992 54.8766 50.0948 54.8927 47.092C54.8943 46.7693 54.981 46.416 55.1383 46.1382C55.2507 45.9407 55.5398 45.7368 55.7598 45.7239C57.0941 45.6469 58.4317 45.5939 59.7693 45.5939C60.858 45.5939 61.2948 46.0531 61.306 47.145C61.3237 48.921 61.2932 50.6953 61.3221 52.4713C61.3398 53.5905 61.465 54.7081 61.473 55.8257C61.4843 57.3319 61.4794 58.8397 61.3863 60.3411C61.2996 61.7349 61.3237 63.1158 61.5276 64.492C61.685 65.5566 61.6031 66.6003 61.2611 67.6103C60.8869 68.7151 60.4903 69.8166 60.0343 70.8893C59.5863 71.9411 58.8219 72.7568 57.8922 73.4232C56.9175 74.1233 55.9508 74.8378 54.7722 75.1654C54.4141 75.265 54.0416 75.3501 53.6723 75.3645C52.5499 75.4063 51.4274 75.4384 50.305 75.4191C49.2998 75.4031 48.4488 74.8908 47.5849 74.446C46.3982 73.8358 45.2164 73.2224 44.2289 72.3023C44.1502 72.2301 44.0699 72.1594 43.9944 72.084C43.7728 71.8608 43.6733 71.6649 43.8916 71.3341C44.542 70.3481 45.2903 69.4586 46.175 68.6766C46.5331 68.3586 46.8671 68.0118 47.1963 67.6633C47.6796 67.1527 47.9397 67.1495 48.5628 67.4867C49.3673 67.9235 50.1974 68.3121 51.0324 68.691C52.0505 69.1535 53.16 68.5738 53.7927 67.787C54.5249 66.8749 54.8493 65.8312 54.8493 64.6734C54.8493 61.8168 54.8493 58.9602 54.8493 56.1019C54.8621 56.1019 54.875 56.1019 54.8878 56.1019L54.883 56.1035Z" fill="black"/>
<path fill-rule="evenodd" clip-rule="evenodd" d="M164.331 57.3865H144.685V55.9413H164.331V57.3865Z" fill="black"/>
<path fill-rule="evenodd" clip-rule="evenodd" d="M164.331 51.1386H144.685V49.6934H164.331V51.1386Z" fill="black"/>
<path fill-rule="evenodd" clip-rule="evenodd" d="M164.331 69.8809H144.685V68.4357H164.331V69.8809Z" fill="black"/>
<path fill-rule="evenodd" clip-rule="evenodd" d="M164.331 63.6345H144.685V62.1893H164.331V63.6345Z" fill="black"/>
<path fill-rule="evenodd" clip-rule="evenodd" d="M37.5634 57.3865H17.9186V55.9413H37.5634V57.3865Z" fill="black"/>
<path fill-rule="evenodd" clip-rule="evenodd" d="M37.5634 51.1386H17.9186V49.6934H37.5634V51.1386Z" fill="black"/>
<path fill-rule="evenodd" clip-rule="evenodd" d="M37.5634 69.8809H17.9186V68.4357H37.5634V69.8809Z" fill="black"/>
<path fill-rule="evenodd" clip-rule="evenodd" d="M37.5634 63.6345H17.9186V62.1893H37.5634V63.6345Z" fill="black"/>
<path d="M22.8547 26.919C23.2225 26.8757 23.2433 26.8901 23.3252 27.2562C23.383 27.5212 23.4408 27.7845 23.5002 28.0495C23.5147 28.1153 23.5324 28.1812 23.5436 28.247C23.5693 28.3931 23.5195 28.4943 23.3782 28.5328C23.1486 28.597 22.9158 28.6484 22.6845 28.7014C22.4661 28.7496 22.2446 28.7881 22.0278 28.8443C21.8576 28.8877 21.7628 29.0113 21.7773 29.1767C21.7933 29.3501 21.819 29.5284 21.8624 29.697C22.0808 30.5352 22.2156 31.3927 22.4533 32.2276C22.5834 32.7945 22.7134 33.3629 22.8387 33.9297C22.9174 34.2862 22.988 34.6459 23.0603 35.004C23.0715 35.057 23.0844 35.1116 23.086 35.1646C23.094 35.5018 23.0635 35.5339 22.7375 35.5965C22.6845 35.6061 22.6283 35.6142 22.5737 35.6142C22.3489 35.611 22.1418 35.6736 21.9379 35.7603C21.8126 35.8133 21.6761 35.8438 21.5428 35.8711C21.4096 35.8984 21.2972 35.8326 21.2506 35.7057C21.2137 35.6045 21.1864 35.4986 21.1623 35.3942C21.0756 35.0104 20.9969 34.6266 20.9086 34.2445C20.7351 33.5074 20.5537 32.7704 20.3787 32.0333C20.3353 31.8503 20.3144 31.6624 20.2984 31.4729C20.2759 31.2192 20.2261 30.9591 20.1362 30.7215C20.0447 30.479 19.9853 30.2317 19.9178 29.9844C19.9034 29.9314 19.8873 29.88 19.8761 29.827C19.807 29.5043 19.6047 29.3903 19.2595 29.4336C19.0652 29.4593 18.8741 29.5107 18.683 29.5541C18.5048 29.5926 18.3281 29.6408 18.1483 29.6713C17.9042 29.7146 17.8223 29.6617 17.7629 29.4192C17.6826 29.09 17.6087 28.7592 17.5397 28.4284C17.5044 28.2582 17.559 28.1699 17.7388 28.1298C18.1097 28.0463 18.4662 27.9098 18.8468 27.8552C19.0668 27.8231 19.2803 27.7364 19.4907 27.6577C19.6384 27.6031 19.7845 27.5629 19.9403 27.5517C20.2791 27.526 20.6099 27.4521 20.9262 27.3253C21.0595 27.2723 21.1928 27.2418 21.3357 27.2338C21.6055 27.2193 21.8688 27.1679 22.1161 27.0603C22.2751 26.9913 22.434 26.9511 22.6058 26.9495C22.6893 26.9495 22.7728 26.9303 22.8563 26.919H22.8547Z" fill="black"/>
<path d="M31.7891 32.5199C31.8774 32.8025 31.9256 33.098 31.985 33.3886C32.0043 33.4849 31.9369 33.5733 31.8341 33.6006C31.7554 33.6214 31.6735 33.6375 31.5932 33.6519C31.2143 33.7162 30.8353 33.774 30.4772 33.9233C30.4274 33.9442 30.3712 33.949 30.3166 33.9554C30.2267 33.9667 30.1577 33.9281 30.1095 33.8543C29.9971 33.6776 29.9425 33.4801 29.9393 33.2762C29.9329 32.8394 29.8462 32.4155 29.7418 31.9948C29.6422 31.5886 29.5202 31.1871 29.4126 30.7825C29.3725 30.6347 29.2777 30.5561 29.122 30.5368C28.6756 30.4806 28.2372 30.5384 27.8085 30.6652C27.6013 30.7263 27.5018 30.8868 27.4905 31.0988C27.4664 31.5645 27.5403 32.0141 27.7201 32.446C27.7715 32.5713 27.8133 32.6997 27.8406 32.8314C27.9144 33.175 27.9787 33.5219 28.0429 33.8671C28.0606 33.9586 28.0702 34.055 28.0718 34.1481C28.0718 34.3842 28.0284 34.4356 27.8069 34.4853C27.6334 34.5239 27.4584 34.5592 27.2834 34.5961C27.2834 34.5913 27.2818 34.5865 27.2802 34.5817C27.065 34.6282 26.853 34.6812 26.6363 34.7166C26.4098 34.7535 26.3135 34.6909 26.222 34.4773C26.2123 34.4532 26.2027 34.4275 26.1947 34.4002C26.0839 34.01 25.9683 33.6214 25.8639 33.2312C25.8109 33.0353 25.7932 32.8346 25.7756 32.6307C25.7258 32.0767 25.5973 31.5356 25.4127 31.0105C25.3308 30.7793 25.2778 30.5464 25.265 30.3007C25.2425 29.88 25.1477 29.4706 25.0305 29.0675C24.9502 28.7945 24.894 28.5167 24.8491 28.2357C24.7977 27.9146 24.7222 27.5983 24.6644 27.2787C24.6387 27.1326 24.6307 26.9849 24.6098 26.8371C24.5857 26.6717 24.6853 26.5834 24.825 26.5272C24.902 26.4951 24.9872 26.4774 25.0674 26.4534C25.3228 26.3779 25.5797 26.3008 25.8366 26.2286C25.9169 26.2061 26.0004 26.1804 26.0823 26.1724C26.2798 26.1531 26.3537 26.2061 26.4388 26.3795C26.5303 26.5642 26.5817 26.7649 26.5865 26.9656C26.5929 27.2402 26.6523 27.5019 26.7053 27.7669C26.7631 28.0591 26.8257 28.3514 26.8884 28.6404C26.9076 28.7319 26.9269 28.8283 26.9622 28.9134C27.0184 29.0483 27.1292 29.1334 27.2834 29.1285C27.6045 29.1205 27.9225 29.0996 28.2244 28.9712C28.3913 28.9005 28.5664 28.8507 28.7318 28.7801C29.0112 28.6597 29.0497 28.5874 29.0031 28.3112C28.9823 28.1908 28.9518 28.0736 28.9261 27.9547C28.865 27.6785 28.8201 27.4008 28.8024 27.1149C28.7848 26.8195 28.6997 26.5304 28.6434 26.2382C28.6258 26.1451 28.5969 26.0551 28.584 25.9604C28.5648 25.8175 28.629 25.7243 28.7735 25.6842C28.9084 25.6473 29.0481 25.62 29.183 25.5814C29.305 25.5477 29.4238 25.5028 29.5459 25.4706C29.7081 25.4273 29.8719 25.3823 30.0372 25.355C30.2685 25.3181 30.3728 25.3871 30.4467 25.6039C30.4676 25.6681 30.4869 25.7356 30.4836 25.8014C30.4724 26.0616 30.5366 26.3137 30.5848 26.5642C30.6587 26.9495 30.7085 27.3429 30.8257 27.7155C30.967 28.1699 31.0489 28.634 31.142 29.098C31.1741 29.2554 31.1789 29.4192 31.1982 29.5798C31.2143 29.713 31.2287 29.8495 31.256 29.9812C31.3491 30.4292 31.4021 30.8901 31.5723 31.322C31.6012 31.3943 31.6061 31.481 31.6061 31.5613C31.6125 31.8888 31.6912 32.2003 31.7859 32.5135L31.7891 32.5199Z" fill="black"/>
<path d="M39.243 30.6234C39.2895 30.6395 39.3329 30.6748 39.3714 30.7086C39.3891 30.7246 39.3955 30.7567 39.4003 30.7824C39.4629 31.1566 39.5272 31.5307 39.5834 31.9048C39.6123 32.1007 39.5336 32.2083 39.3425 32.2726C39.304 32.2854 39.2638 32.2934 39.2221 32.3015C38.7371 32.3882 38.2522 32.4749 37.7673 32.5616C37.5649 32.5969 37.361 32.629 37.1603 32.6644C36.8921 32.7125 36.6256 32.7832 36.3478 32.7655C36.2803 32.7607 36.2113 32.7752 36.1439 32.7896C35.8645 32.8538 35.5883 32.9486 35.3056 32.9823C35.0198 33.0144 34.734 33.0369 34.4578 33.122C34.3486 33.1557 34.2442 33.1654 34.1351 33.1509C34.0162 33.1348 33.9392 33.0626 33.8862 32.9614C33.8797 32.9502 33.8765 32.9357 33.8733 32.9229C33.7673 32.4909 33.5827 32.0783 33.5441 31.6287C33.5281 31.4408 33.5297 31.2497 33.5008 31.0634C33.4237 30.5673 33.3402 30.0743 33.2471 29.5829C33.1491 29.0627 33.0335 28.5488 32.9356 28.0302C32.8472 27.5645 32.7782 27.0956 32.6883 26.6299C32.6 26.1787 32.494 25.7307 32.3992 25.2795C32.3414 25.0113 32.4265 24.8716 32.6947 24.8604C33.2615 24.8379 33.8075 24.6886 34.3615 24.6019C34.5558 24.5714 34.7517 24.5457 34.9444 24.5071C35.235 24.4509 35.5305 24.4108 35.8099 24.3225C36.3092 24.1635 36.8263 24.1057 37.3385 24.0158C37.5296 23.9821 37.7303 23.9917 37.9262 23.9965C38.0451 23.9997 38.1382 24.0607 38.1864 24.1731C38.3309 24.5104 38.416 24.8668 38.4545 25.2313C38.4577 25.2715 38.4577 25.3148 38.4481 25.3534C38.4288 25.4353 38.3887 25.5091 38.2988 25.5348C38.2056 25.5621 38.1093 25.5814 38.0146 25.6071C37.8395 25.6504 37.6629 25.7034 37.4863 25.7404C37.3096 25.7773 37.1298 25.8126 36.9499 25.8239C36.6272 25.8463 36.3141 25.9009 36.0042 25.9973C35.7392 26.0808 35.4598 26.1257 35.1884 26.1884C35.0664 26.2157 34.9411 26.2365 34.8223 26.2751C34.673 26.3249 34.5959 26.4405 34.6136 26.5914C34.6441 26.8612 34.6906 27.1261 34.8223 27.3702C34.8849 27.4874 34.9813 27.5565 35.1178 27.5597C35.2286 27.5629 35.341 27.5725 35.4502 27.5549C35.6557 27.5195 35.8644 27.4826 36.0604 27.4152C36.4457 27.2851 36.8456 27.2225 37.2422 27.1566C37.4461 27.1229 37.6565 27.1261 37.8652 27.1245C38.0097 27.1245 38.0868 27.1968 38.1254 27.3397C38.1286 27.3525 38.1318 27.3654 38.135 27.3782C38.1912 27.7122 38.249 28.0446 38.302 28.3802C38.3261 28.5376 38.2554 28.6484 38.1029 28.6917C38.0097 28.7174 37.9134 28.7319 37.8187 28.7527C37.6709 28.7865 37.5184 28.8122 37.3739 28.8603C36.8841 29.0257 36.3831 29.1092 35.8677 29.1349C35.7167 29.1429 35.5658 29.1767 35.4213 29.2232C35.2414 29.2794 35.1419 29.4207 35.1692 29.599C35.2366 30.0534 35.2816 30.5143 35.4678 30.9414C35.5224 31.0682 35.6027 31.1437 35.744 31.1421C35.9351 31.1389 36.131 31.1421 36.3189 31.1132C36.7685 31.0409 37.6597 30.8627 37.6581 30.8563C38.1462 30.7776 38.6344 30.7005 39.1241 30.6251C39.1643 30.6186 39.2108 30.6074 39.2462 30.6202L39.243 30.6234Z" fill="black"/>
<path d="M53.2612 29.6953C53.2804 29.774 53.2852 29.8559 53.2868 29.9378C53.2884 30.0341 53.2274 30.124 53.1295 30.1513C52.8533 30.2284 52.5755 30.3007 52.3571 30.3585C52.1741 30.3697 52.0504 30.381 51.9284 30.3858C51.7309 30.3954 51.5735 30.3232 51.5061 30.1321C51.3069 29.5588 51.0179 29.0161 50.9023 28.4139C50.8814 28.3079 50.8509 28.202 50.8092 28.104C50.6823 27.8053 50.5474 27.5099 50.4142 27.2144C50.3981 27.1775 50.382 27.1357 50.3531 27.1101C50.3146 27.0763 50.2664 27.0346 50.2182 27.0298C50.1396 27.0233 50.0914 27.0892 50.0769 27.1566C50.0095 27.4746 49.9116 27.7877 49.918 28.1153C49.9228 28.3995 49.8923 28.6805 49.8634 28.9631C49.8248 29.3388 49.7959 29.7162 49.7622 30.0935C49.7494 30.2284 49.7397 30.3633 49.714 30.4966C49.6916 30.6122 49.6161 30.6957 49.4957 30.7101C49.0493 30.7647 48.6061 30.8595 48.15 30.8338C48.0168 30.8258 47.9092 30.7792 47.8417 30.6652C47.7791 30.5608 47.7133 30.4564 47.6747 30.3424C47.5479 29.9715 47.4162 29.6022 47.3167 29.2248C47.177 28.6981 46.904 28.2277 46.7033 27.7251C46.6695 27.64 46.6053 27.5629 46.5443 27.4938C46.4801 27.4232 46.342 27.4601 46.3034 27.5532C46.2826 27.603 46.2601 27.656 46.2601 27.7074C46.2601 27.9097 46.2665 28.112 46.2681 28.3144C46.2681 28.4894 46.2777 28.666 46.2585 28.8394C46.2087 29.3244 46.2215 29.8109 46.2055 30.2959C46.1991 30.511 46.1701 30.7262 46.1445 30.9398C46.1316 31.0425 46.0658 31.1148 45.9614 31.1357C45.5198 31.2208 45.0863 31.346 44.6302 31.3412C44.5901 31.3412 44.5419 31.3476 44.5098 31.33C44.4648 31.3075 44.4054 31.2673 44.399 31.2272C44.3749 31.0811 44.3589 30.9317 44.3605 30.784C44.3637 30.5142 44.3846 30.2445 44.3942 29.9747C44.399 29.8671 44.4054 29.7579 44.3878 29.652C44.3284 29.2858 44.3492 28.9229 44.4167 28.5617C44.4681 28.2919 44.4921 28.0253 44.4472 27.7556C44.4102 27.5388 44.4504 27.3236 44.4713 27.1084C44.4905 26.9061 44.5243 26.7054 44.5435 26.5031C44.5532 26.3955 44.5628 26.2863 44.5515 26.1803C44.5066 25.7211 44.5146 25.2667 44.566 24.8058C44.6302 24.2566 44.6479 23.701 44.6832 23.1471C44.6961 22.9512 44.7475 22.8789 44.9498 22.8404C45.2115 22.789 45.4765 22.7456 45.7398 22.7103C45.9469 22.6814 46.1589 22.6685 46.3677 22.6461C46.4383 22.6396 46.5074 22.6284 46.578 22.6252C46.8141 22.6156 46.9811 22.7135 47.0726 22.9255C47.0886 22.9624 47.1031 23.0009 47.1143 23.0411C47.238 23.4843 47.4435 23.8985 47.5591 24.3433C47.641 24.6565 47.747 24.9632 47.8449 25.2715C47.8562 25.31 47.8771 25.3469 47.8995 25.3791C47.9429 25.4385 48.0087 25.4738 48.0794 25.4529C48.126 25.4401 48.1886 25.3983 48.2014 25.3566C48.2464 25.2008 48.2865 25.0418 48.3058 24.8829C48.3267 24.7095 48.3347 24.5312 48.3251 24.3562C48.3122 24.0961 48.3492 23.844 48.3957 23.5902C48.4471 23.3108 48.5178 23.0331 48.476 22.744C48.468 22.6926 48.4889 22.6364 48.4921 22.5834C48.5001 22.4421 48.582 22.3586 48.7169 22.3217C48.9609 22.2575 49.2066 22.1981 49.4523 22.1419C49.5069 22.129 49.5631 22.121 49.6193 22.1178C49.8987 22.1001 50.1781 22.0857 50.4591 22.0712C50.6261 22.0632 50.6871 22.1081 50.7385 22.2559C50.9376 22.8307 51.1335 23.4056 51.3359 23.9804C51.4258 24.2358 51.5285 24.4846 51.6185 24.74C51.6538 24.8411 51.6779 24.9487 51.6907 25.0563C51.7277 25.371 51.8433 25.6585 51.9942 25.933C52.1002 26.1241 52.1708 26.3264 52.2158 26.54C52.2511 26.7118 52.2929 26.8836 52.3555 27.0474C52.5337 27.5147 52.6606 27.998 52.8693 28.4557C52.9994 28.7383 53.0861 29.037 53.1552 29.3421C53.1825 29.4609 53.2306 29.5733 53.2595 29.6905L53.2612 29.6953Z" fill="black"/>
<path d="M59.7886 24.353C59.8175 24.4269 59.8143 24.5136 59.8223 24.5939C59.8817 25.1736 59.9395 25.7516 59.9973 26.3297C60.0134 26.4887 60.0102 27.5838 59.9925 27.7026C59.9251 28.1458 59.7468 28.5344 59.4016 28.8315C59.1447 29.0531 58.8781 29.2666 58.6051 29.469C58.4992 29.5476 58.3659 29.6119 58.2374 29.6376C57.5646 29.7708 56.8854 29.8046 56.2013 29.7227C56.0038 29.6986 55.832 29.6392 55.6763 29.5171C55.4836 29.3662 55.2893 29.2185 55.0934 29.0723C54.7513 28.817 54.5522 28.4654 54.427 28.0736C54.3371 27.7926 54.2744 27.5035 54.223 27.2097C54.109 26.5545 54.0946 25.8897 53.9726 25.2378C53.9453 25.0917 53.9356 24.9423 53.918 24.7946C53.9228 24.7946 53.767 23.4217 53.6851 22.7376C53.6546 22.4823 53.6161 22.2286 53.5952 21.9717C53.5807 21.7774 53.6514 21.6987 53.8489 21.6602C54.1925 21.5944 54.5362 21.5269 54.883 21.4723C55.0195 21.4514 55.1624 21.445 55.3005 21.4547C55.4466 21.4659 55.5606 21.5976 55.5414 21.7389C55.4996 22.0391 55.5606 22.333 55.5928 22.6269C55.6249 22.9223 55.6329 23.2242 55.6955 23.5132C55.7854 23.9371 55.8127 24.3659 55.84 24.7962C55.8625 25.1334 55.9043 25.4706 55.9541 25.8046C56.0231 26.2591 56.1146 26.7087 56.1821 27.1631C56.2302 27.4939 56.439 27.7187 56.7762 27.8199C57.2387 27.9612 57.6128 27.8423 57.9018 27.4602C58.2005 27.0668 58.2455 26.6252 58.0833 26.1868C57.9034 25.7019 57.9147 25.2025 57.9018 24.7063C57.8938 24.3932 57.9018 24.0849 57.791 23.7878C57.7686 23.7252 57.7621 23.6561 57.7541 23.5887C57.7204 23.2932 57.6883 22.9962 57.6594 22.7007C57.6513 22.6204 57.6433 22.5385 57.6561 22.4582C57.6883 22.2672 57.6738 22.0825 57.5999 21.9011C57.5759 21.84 57.5614 21.771 57.555 21.7052C57.5293 21.4514 57.6465 21.286 57.9002 21.2218C58.1298 21.164 58.3611 21.0966 58.5971 21.0709C58.8171 21.0468 59.0435 21.0677 59.2667 21.0773C59.3695 21.0837 59.469 21.1833 59.4819 21.2957C59.4996 21.4563 59.5156 21.62 59.5092 21.7806C59.4915 22.1756 59.5413 22.5642 59.6071 22.9512C59.6232 23.0443 59.636 23.1343 59.6392 23.229C59.6521 23.6064 59.6489 23.9869 59.787 24.3498L59.7886 24.353Z" fill="black"/>
<path d="M67.0771 26.4486C67.1252 26.6348 67.1028 26.8227 67.0321 27.0058C66.8699 27.4249 66.6692 27.8247 66.4348 28.2069C66.2967 28.4317 66.1088 28.6035 65.8599 28.7079C65.6849 28.7817 65.5179 28.8765 65.3413 28.9487C65.2289 28.9937 65.1068 29.0419 64.988 29.0435C64.442 29.0435 63.8961 29.021 63.3678 28.87C63.09 28.7914 62.8395 28.6661 62.634 28.4493C62.4943 28.3032 62.3144 28.1972 62.1619 28.0607C62.0511 27.9612 61.9515 27.8504 61.8632 27.7316C61.7942 27.64 61.8311 27.51 61.9242 27.4441C62.3032 27.1744 62.6853 26.9094 63.0627 26.638C63.1944 26.5433 63.3148 26.5433 63.4384 26.638C63.5685 26.736 63.7002 26.8356 63.8206 26.9463C64.0759 27.184 64.373 27.2241 64.7006 27.1567C64.715 27.1535 64.7279 27.1519 64.7407 27.1487C65.0763 27.0604 65.2016 26.7039 64.9671 26.4502C64.821 26.2928 64.6363 26.166 64.4549 26.0471C64.3312 25.9652 64.1819 25.9203 64.0438 25.8609C63.2827 25.5349 62.5713 25.1302 61.9258 24.6116C61.4361 24.2182 61.2081 23.6979 61.1711 23.0942C61.1503 22.7682 61.2 22.447 61.3622 22.15C61.4987 21.8979 61.6223 21.6393 61.7669 21.3921C61.8937 21.1753 62.08 21.0051 62.3128 20.8991C62.4509 20.8365 62.6018 20.7963 62.7496 20.7594C63.0466 20.6839 63.3469 20.6165 63.5717 20.5635C63.9459 20.5362 64.2397 20.5731 64.5175 20.6646C64.8611 20.777 65.1951 20.9151 65.534 21.042C65.7347 21.1159 65.8985 21.2475 66.0382 21.3969C66.2164 21.5847 66.3738 21.7935 66.5295 21.999C66.5954 22.0873 66.5777 22.1853 66.4878 22.2511C66.3786 22.333 66.2662 22.4213 66.1409 22.4743C65.8695 22.5899 65.6239 22.7393 65.3991 22.9239C65.3461 22.9673 65.2867 23.0058 65.2289 23.0412C65.11 23.115 65.0313 23.1054 64.9366 23.0026C64.8627 22.9223 64.7969 22.834 64.7166 22.7585C64.4774 22.5321 64.1899 22.4133 63.8527 22.4101C63.7098 22.4101 63.5765 22.439 63.4497 22.5016C63.3164 22.5675 63.2329 22.6783 63.2104 22.818C63.1767 23.0267 63.2152 23.2242 63.3726 23.3816C63.5284 23.5389 63.7082 23.6626 63.9186 23.7413C64.1386 23.8232 64.3569 23.9067 64.5737 23.995C64.7776 24.0785 64.98 24.1652 65.1807 24.2551C65.4328 24.3675 65.664 24.512 65.8728 24.6935C66.059 24.8541 66.2646 24.9921 66.4524 25.1495C66.5343 25.2186 66.6098 25.3021 66.6644 25.392C66.8619 25.7196 66.9759 26.0825 67.0723 26.4486H67.0771Z" fill="black"/>
<path d="M70.5182 25.2377C70.5487 25.3533 70.5663 25.485 70.5407 25.599C70.4523 26.0085 70.5326 26.4083 70.5953 26.8066C70.6113 26.9141 70.6177 27.0169 70.6177 27.1245C70.6209 27.4762 70.6466 27.8262 70.6611 28.1779C70.6659 28.2726 70.6739 28.3673 70.6595 28.4589C70.6531 28.5006 70.6001 28.5616 70.5599 28.5681C70.4266 28.5889 70.2885 28.6066 70.1553 28.5921C69.8807 28.56 69.6125 28.5745 69.346 28.6532C69.2689 28.6756 69.1838 28.6789 69.1035 28.6837C68.9397 28.6933 68.8466 28.6259 68.8225 28.4589C68.7952 28.2582 68.7856 28.0558 68.7695 27.8535C68.7374 27.4216 68.7069 26.9896 68.6748 26.5577C68.6443 26.1402 68.6137 25.7211 68.5832 25.3036C68.5897 25.3036 68.4596 23.4682 68.3713 22.5529C68.336 22.19 68.3103 21.8287 68.3071 21.4658C68.3071 21.2234 68.2669 20.9809 68.2476 20.7384C68.2412 20.671 68.238 20.6035 68.2396 20.5361C68.2428 20.3803 68.3119 20.2727 68.4692 20.2358C68.6041 20.2037 68.7486 20.1748 68.8851 20.1892C69.1934 20.2198 69.4985 20.2294 69.8068 20.2053C69.8486 20.2021 69.8903 20.2085 69.9305 20.2182C70.0332 20.2438 70.1071 20.3017 70.1248 20.406C70.1408 20.4992 70.1488 20.5939 70.1585 20.6886C70.2002 21.1302 70.2837 21.567 70.2564 22.0166C70.242 22.2703 70.2982 22.5256 70.3383 22.7793C70.3929 23.1246 70.4074 23.4794 70.4058 23.8295C70.4026 24.3032 70.3961 24.7737 70.5166 25.2377H70.5182Z" fill="black"/>
<path d="M78.3655 21.3808C78.4025 21.4514 78.3687 21.5157 78.3141 21.5622C78.2612 21.6056 78.2017 21.6409 78.1407 21.6746C77.8003 21.8593 77.4583 22.0408 77.1179 22.2238C77.0697 22.2495 77.0215 22.28 76.9685 22.2945C76.8577 22.3266 76.7485 22.3234 76.6554 22.2415C76.5221 22.1243 76.3824 22.0102 76.254 21.8882C75.9039 21.5574 75.5041 21.5815 75.0914 21.7405C74.8409 21.8368 74.6418 22.0086 74.4475 22.1853C74.3431 22.2816 74.2821 22.402 74.2371 22.5321C74.1745 22.7104 74.1167 22.8918 74.0541 23.0716C73.9321 23.4217 73.8742 23.7798 73.924 24.1427C73.9192 24.679 74.0974 25.1559 74.3431 25.6168C74.4684 25.8512 74.637 26.0391 74.8827 26.1563C75.0432 26.2334 75.2006 26.3153 75.366 26.3827C75.7385 26.5353 76.087 26.4967 76.4081 26.2462C76.4723 26.1948 76.5334 26.1386 76.5976 26.0905C76.7293 25.9909 76.8353 25.9861 76.975 26.0776C77.0536 26.129 77.1291 26.19 77.1933 26.2591C77.3443 26.418 77.5113 26.5545 77.7008 26.6685C77.8051 26.7296 77.9015 26.8098 77.9898 26.8933C78.0717 26.9688 78.0781 27.1053 78.0042 27.1904C77.773 27.457 77.5514 27.7315 77.2062 27.8728C76.93 27.9869 76.6715 28.1378 76.3808 28.2261C76.1143 28.3064 75.8445 28.3289 75.5715 28.3064C75.2873 28.2823 75.0047 28.2341 74.7221 28.1892C74.5599 28.1635 74.4057 28.1121 74.2757 28.0029C73.8839 27.6673 73.4889 27.3333 73.0906 27.0025C72.8209 26.7777 72.6378 26.4967 72.5286 26.1708C72.3825 25.734 72.2396 25.2988 72.1095 24.8572C71.9522 24.3289 71.9441 23.7942 72.0822 23.2563C72.1304 23.0733 72.1818 22.887 72.193 22.7007C72.2043 22.4904 72.2621 22.3025 72.36 22.121C72.3986 22.0488 72.4435 21.9765 72.4644 21.8994C72.5639 21.5109 72.8289 21.2331 73.1099 20.9665C73.4391 20.6518 73.7956 20.3676 74.1649 20.0994C74.3624 19.9549 74.5744 19.8746 74.82 19.8521C75.0978 19.8264 75.3772 19.7943 75.6534 19.7493C75.814 19.7237 75.9617 19.7638 76.1078 19.8007C76.3519 19.8617 76.5896 19.9372 76.8272 20.0175C76.9316 20.0528 77.0328 20.1042 77.1243 20.1636C77.333 20.2985 77.5418 20.4366 77.7377 20.5875C78.0139 20.8027 78.2082 21.0837 78.3639 21.3872L78.3655 21.3808Z" fill="black"/>
<path d="M81.8035 24.6934C81.8292 24.8107 81.842 24.9423 81.8131 25.0547C81.7087 25.461 81.7762 25.8624 81.8227 26.2639C81.8356 26.3715 81.8372 26.4742 81.834 26.5834C81.8243 26.9351 81.8356 27.2867 81.8388 27.6384C81.8388 27.7315 81.8452 27.8279 81.8275 27.9194C81.8195 27.9611 81.7633 28.0206 81.7232 28.0254C81.5883 28.0414 81.4502 28.0543 81.3169 28.035C81.0423 27.9949 80.7758 27.9981 80.5076 28.0655C80.4289 28.0848 80.3454 28.0848 80.2635 28.0864C80.0998 28.0912 80.0098 28.019 79.9922 27.8504C79.9729 27.6496 79.9697 27.4457 79.9617 27.2434C79.9456 26.8114 79.9312 26.3779 79.9151 25.9459C79.9006 25.5268 79.8846 25.1077 79.8701 24.6886C79.8782 24.6886 79.8139 22.85 79.7593 21.9316C79.7369 21.5687 79.7256 21.2057 79.7353 20.8428C79.7417 20.6004 79.7128 20.3563 79.7015 20.1138C79.6983 20.0464 79.6967 19.979 79.7015 19.9115C79.7096 19.7558 79.7834 19.6514 79.9408 19.6193C80.0773 19.592 80.2218 19.5695 80.3567 19.5888C80.6634 19.6305 80.9685 19.6498 81.2768 19.6385C81.3185 19.6385 81.3603 19.645 81.4004 19.6562C81.5016 19.6851 81.5738 19.7461 81.5883 19.8505C81.6011 19.9436 81.606 20.0384 81.6108 20.1331C81.6365 20.5763 81.7039 21.0163 81.6605 21.4643C81.6365 21.718 81.6846 21.9749 81.7151 22.2302C81.7569 22.5771 81.7585 22.9319 81.744 23.282C81.7248 23.7557 81.6991 24.2262 81.8035 24.6934Z" fill="black"/>
<path d="M90.1501 27.5597C90.1598 27.5983 90.1614 27.64 90.1646 27.6802C90.171 27.7476 90.118 27.8263 90.0538 27.8279C89.6058 27.8327 89.1546 27.8343 88.7066 27.8375C88.546 27.8375 88.4593 27.7348 88.4143 27.5983C88.3469 27.3927 88.2923 27.184 88.2232 26.9784C88.167 26.8114 88.106 26.6461 88.0338 26.4871C87.9294 26.2575 87.7479 26.1258 87.4862 26.1338C87.1715 26.1435 86.8568 26.1595 86.542 26.1788C86.2819 26.1948 86.0234 26.2318 85.7648 26.2382C85.5288 26.243 85.3698 26.341 85.2895 26.5545C85.1852 26.8323 85.092 27.1165 84.9973 27.3975C84.962 27.4987 84.9427 27.6079 84.9042 27.7075C84.8608 27.815 84.7757 27.8809 84.6537 27.8857C84.2458 27.9018 83.8363 27.9178 83.4269 27.9323C83.3739 27.9339 83.3193 27.9178 83.2663 27.9066C83.2085 27.8937 83.1523 27.815 83.1587 27.7508C83.1635 27.6978 83.1748 27.6448 83.1876 27.5934C83.353 26.911 83.512 26.227 83.6886 25.5477C83.7496 25.3133 83.8379 25.0837 83.9295 24.8589C84.0322 24.6067 84.1189 24.3514 84.1655 24.0833C84.2105 23.8167 84.2875 23.5582 84.3582 23.2965C84.4658 22.8918 84.5509 22.4823 84.6633 22.0777C84.8608 21.3615 85.0567 20.6421 85.3184 19.9436C85.3377 19.8923 85.3602 19.8425 85.3779 19.7911C85.4373 19.6337 85.5593 19.547 85.7247 19.5374C86.0041 19.5229 86.2851 19.5245 86.6464 19.5197C86.746 19.5133 86.929 19.5005 87.1089 19.4908C87.2068 19.486 87.3048 19.4828 87.4027 19.4876C87.5761 19.494 87.6966 19.5807 87.7431 19.7413C87.8587 20.1299 88.0402 20.4976 88.1221 20.8975C88.1542 21.0564 88.1927 21.2154 88.2538 21.3663C88.4159 21.771 88.5348 22.1869 88.6552 22.6012C88.6696 22.6525 88.6857 22.7055 88.7098 22.7537C88.9185 23.1985 89.0293 23.6722 89.1578 24.1427C89.1995 24.2984 89.2509 24.4542 89.3168 24.6019C89.4581 24.9263 89.548 25.2651 89.6363 25.6055C89.7343 25.9845 89.8402 26.3618 89.9382 26.7408C90.0104 27.0154 90.0795 27.29 90.1485 27.5645L90.1501 27.5597ZM87.1313 24.9472C87.3288 24.9247 87.4557 24.7818 87.4364 24.5891C87.4284 24.5104 87.3979 24.4333 87.3754 24.3562C87.3256 24.1876 87.2566 24.0239 87.2261 23.8536C87.1618 23.4891 86.9772 23.1696 86.8503 22.8292C86.8311 22.7794 86.7989 22.7328 86.7652 22.6911C86.6737 22.5755 86.4906 22.5915 86.4152 22.72C86.3814 22.7778 86.3541 22.8404 86.3269 22.903C86.1117 23.404 86.0426 23.9436 85.8692 24.4558C85.8612 24.4799 85.8628 24.5088 85.8612 24.5361C85.8467 24.7432 85.9383 24.8781 86.147 24.9134C86.3365 24.944 86.5276 24.952 86.6303 24.96C86.8311 24.9568 86.9402 24.9568 87.0494 24.9536C87.0767 24.9536 87.104 24.9504 87.1313 24.9488V24.9472Z" fill="black"/>
<path d="M97.3311 25.3919C97.3006 26.0149 97.3166 26.638 97.3038 27.2594C97.3022 27.367 97.2941 27.4762 97.2749 27.5821C97.2395 27.7812 97.14 27.8567 96.9377 27.8599C96.8558 27.8599 96.7739 27.8535 96.692 27.8519C96.4752 27.8487 96.2568 27.8342 96.0416 27.8985C95.9517 27.9242 95.8522 27.9161 95.7574 27.9161C95.5647 27.9145 95.4186 27.8246 95.3126 27.6688C95.2821 27.6239 95.2516 27.5773 95.2307 27.5275C95.0686 27.1406 94.8598 26.7728 94.7426 26.3682C94.6671 26.1064 94.5644 25.8592 94.4279 25.6215C94.3412 25.469 94.2882 25.2988 94.2207 25.1366C94.1051 24.862 93.9911 24.5858 93.8739 24.3128C93.853 24.263 93.8273 24.2133 93.7984 24.1683C93.747 24.0864 93.6876 24.0109 93.5784 24.0045C93.4917 23.9997 93.4179 24.0832 93.3761 24.2309C93.2846 24.5617 93.2669 24.8941 93.3279 25.2329C93.3584 25.4047 93.36 25.5814 93.3649 25.758C93.3729 26.0278 93.3649 26.2959 93.4098 26.5673C93.4612 26.8788 93.3938 27.1887 93.3376 27.4938C93.3054 27.6688 93.185 27.7764 92.9987 27.7973C92.7948 27.8214 92.5925 27.8664 92.3902 27.8615C92.1332 27.8567 91.8763 27.8166 91.621 27.7764C91.5728 27.7684 91.5215 27.6897 91.4974 27.6335C91.4717 27.5741 91.4717 27.5002 91.4733 27.4328C91.4797 27.0827 91.5295 26.7311 91.4331 26.3826C91.4235 26.3457 91.438 26.3023 91.4444 26.2622C91.5439 25.6568 91.5471 25.0515 91.4444 24.4461C91.4235 24.3289 91.4251 24.202 91.4444 24.0832C91.5311 23.5453 91.5022 23.0057 91.4604 22.4662C91.4283 22.0503 91.3914 21.6312 91.4733 21.2137C91.5038 21.0564 91.4958 20.891 91.4974 20.7288C91.499 20.4992 91.4942 20.2679 91.4925 20.0383C91.4925 19.9709 91.4926 19.9018 91.499 19.836C91.5231 19.6176 91.6098 19.5084 91.8346 19.4843C92.2248 19.4426 92.6166 19.4329 93.0084 19.4908C93.2171 19.5213 93.3633 19.6305 93.4676 19.8087C93.633 20.0913 93.8161 20.3643 93.975 20.6501C94.073 20.8283 94.1549 21.0162 94.2191 21.2089C94.3074 21.4674 94.4102 21.7195 94.5676 21.9427C94.7201 22.1595 94.7827 22.4116 94.8775 22.6509C94.9321 22.7906 94.9786 22.9319 95.0846 23.0443C95.1521 23.1165 95.2356 23.147 95.303 23.1198C95.3737 23.0908 95.4106 23.0346 95.417 22.964C95.4266 22.8564 95.4347 22.7488 95.4347 22.6396C95.4427 22.1643 95.4475 21.6922 95.4555 21.2169C95.462 20.9327 95.4555 20.6517 95.5117 20.3675C95.5471 20.1828 95.523 19.9901 95.5262 19.8007C95.5262 19.7332 95.5262 19.6642 95.539 19.5999C95.5519 19.5261 95.6065 19.4795 95.682 19.4731C95.7928 19.4651 95.9068 19.4683 96.0176 19.4731C96.3676 19.4875 96.7177 19.5068 97.0677 19.4635C97.1448 19.4538 97.2363 19.4779 97.3054 19.5148C97.36 19.5437 97.4033 19.608 97.4306 19.6674C97.4531 19.714 97.4483 19.7734 97.4467 19.828C97.437 20.2872 97.4258 20.7481 97.413 21.2089C97.4065 21.4112 97.3921 21.6152 97.3889 21.8175C97.3792 22.4132 97.3728 23.0073 97.3648 23.6031C97.36 23.6031 97.3648 24.7946 97.3343 25.3887L97.3311 25.3919Z" fill="black"/>
<path d="M109.101 23.6063C109.125 24.0752 109.101 24.5505 108.987 25.0162C108.929 25.249 108.945 25.4995 108.918 25.742C108.852 26.3297 108.663 26.8724 108.292 27.3445C108.014 27.6994 107.669 27.9499 107.216 28.0286C106.988 28.0671 106.76 28.1089 106.529 28.1233C105.437 28.194 105.676 28.271 104.533 28.1699C104.478 28.165 104.424 28.1651 104.369 28.1634C104.369 28.1634 104.369 28.1667 104.369 28.1683C104.029 28.1538 103.688 28.1394 103.348 28.1249C103.293 28.1233 103.239 28.1185 103.186 28.1072C103.052 28.0767 102.972 27.99 102.946 27.86C102.934 27.7941 102.937 27.7251 102.938 27.6576C102.953 27.2112 102.967 26.7664 102.917 26.32C102.897 26.1354 102.934 25.9427 102.951 25.7548C102.972 25.5396 103.023 25.3261 103.025 25.1109C103.025 23.9451 103.149 22.7874 103.171 21.6248C103.179 21.1784 103.19 20.732 103.202 20.2856C103.205 20.2037 103.205 20.1234 103.213 20.0432C103.237 19.7525 103.296 19.6883 103.587 19.653C103.669 19.6433 103.756 19.6449 103.838 19.6546C104.435 19.7316 105.034 19.775 105.636 19.7943C106.001 19.8055 106.365 19.8167 106.728 19.82C107.222 19.8248 107.654 20.0126 108.072 20.2375C108.143 20.276 108.21 20.3338 108.26 20.398C108.48 20.679 108.695 20.9616 108.901 21.2523C108.962 21.339 109.003 21.4482 109.019 21.551C109.068 21.8705 109.141 22.1884 109.117 22.5144C109.09 22.8773 109.085 23.2386 109.103 23.6063H109.101ZM106.916 23.139C106.924 22.8966 106.909 22.6525 106.879 22.4116C106.847 22.1547 106.709 21.9283 106.447 21.8625C106.124 21.7806 105.785 21.7645 105.459 21.8753C105.361 21.909 105.296 21.9797 105.275 22.0792C105.238 22.2511 105.194 22.4229 105.183 22.5963C105.151 23.1085 105.133 23.624 105.111 24.1362C105.103 24.1362 105.039 25.1623 105.016 25.6761C105.013 25.7436 105.013 25.8126 105.016 25.8785C105.027 26.0647 105.127 26.1787 105.318 26.2044C105.665 26.2526 106.001 26.2285 106.32 26.0712C106.601 25.9331 106.75 25.7066 106.802 25.408C106.811 25.355 106.813 25.3004 106.816 25.2458C106.85 24.5441 106.892 23.8408 106.916 23.139Z" fill="black"/>
<path d="M112.735 25.3084C112.75 25.4272 112.749 25.5589 112.709 25.6697C112.566 26.0631 112.591 26.4694 112.599 26.874C112.6 26.9832 112.592 27.0844 112.578 27.192C112.533 27.5404 112.51 27.8921 112.477 28.2421C112.467 28.3369 112.464 28.4316 112.436 28.5215C112.424 28.5617 112.363 28.6147 112.322 28.6163C112.187 28.6179 112.048 28.6163 111.918 28.5858C111.65 28.5183 111.381 28.4958 111.108 28.536C111.028 28.5488 110.945 28.5392 110.864 28.5328C110.701 28.5199 110.617 28.4396 110.617 28.271C110.617 28.0687 110.635 27.8648 110.648 27.6641C110.675 27.2321 110.702 26.8002 110.729 26.3682C110.755 25.9491 110.782 25.5316 110.81 25.1125C110.816 25.1125 110.937 23.2771 110.974 22.3587C110.988 21.9958 111.012 21.6345 111.059 21.2732C111.089 21.0323 111.086 20.7866 111.097 20.5442C111.1 20.4767 111.105 20.4093 111.116 20.3418C111.141 20.1877 111.224 20.0913 111.385 20.0753C111.523 20.0624 111.669 20.0528 111.802 20.0849C112.102 20.1572 112.404 20.2069 112.714 20.2262C112.756 20.2294 112.796 20.2407 112.835 20.2567C112.933 20.2953 112.998 20.3627 113.002 20.4687C113.005 20.5634 113 20.6582 112.997 20.7529C112.979 21.1961 113.002 21.6409 112.913 22.0825C112.864 22.3314 112.886 22.5931 112.891 22.85C112.897 23.2001 112.864 23.5517 112.814 23.9002C112.746 24.3691 112.676 24.8347 112.733 25.31L112.735 25.3084Z" fill="black"/>
<path d="M120.953 29.0707C120.99 29.151 120.924 29.2377 120.836 29.2377C120.809 29.2377 120.782 29.2409 120.754 29.2377C120.306 29.1831 119.86 29.1285 119.409 29.159C119.179 29.1735 119.02 29.0594 118.93 28.8491C118.893 28.7624 118.853 28.6757 118.819 28.5874C118.733 28.3577 118.63 28.1393 118.474 27.9451C118.415 27.8712 118.365 27.7877 118.33 27.701C118.241 27.4874 118.124 27.2899 118.005 27.0908C117.922 26.9527 117.867 26.7969 117.812 26.6444C117.686 26.2976 117.498 25.9828 117.303 25.6713C117.254 25.591 117.191 25.5156 117.124 25.4481C116.936 25.2634 116.634 25.3421 116.566 25.591C116.56 25.6167 116.552 25.644 116.55 25.6713C116.521 26.2783 116.338 26.8692 116.33 27.4794C116.329 27.6416 116.321 27.8005 116.337 27.9643C116.354 28.1506 116.334 28.3449 116.297 28.5279C116.263 28.6965 116.155 28.8186 115.955 28.8154C115.847 28.8154 115.733 28.8427 115.63 28.8186C115.324 28.7447 115.009 28.7303 114.696 28.711C114.656 28.7094 114.614 28.703 114.574 28.6965C114.506 28.6837 114.45 28.6195 114.452 28.5536C114.455 28.4589 114.458 28.3642 114.471 28.271C114.548 27.6801 114.578 27.0908 114.562 26.4918C114.551 25.9796 114.623 25.4674 114.659 24.9535C114.842 24.3209 114.782 23.6641 114.866 23.0218C114.876 22.9431 114.877 22.8596 114.864 22.7794C114.84 22.6284 114.872 22.4871 114.898 22.3394C114.964 21.954 115.01 21.5654 114.967 21.1704C114.945 20.9713 114.972 20.7657 114.998 20.565C115.018 20.406 115.126 20.3466 115.299 20.3595C115.9 20.406 116.501 20.4542 117.101 20.504C117.101 20.5072 118.19 20.6132 118.734 20.6565C119.033 20.6806 119.312 20.7625 119.571 20.907C119.765 21.0146 119.961 21.1222 120.149 21.2394C120.428 21.4161 120.618 21.6682 120.735 21.9652C120.823 22.1933 120.904 22.4245 120.971 22.6589C121 22.7617 121.001 22.8741 120.993 22.9801C120.971 23.2932 120.912 23.5967 120.767 23.8793C120.704 23.9997 120.642 24.1202 120.59 24.2454C120.449 24.5874 120.195 24.8251 119.877 25.0049C119.735 25.0852 119.585 25.1559 119.437 25.2281C119.14 25.3726 119.081 25.5123 119.221 25.8126C119.319 26.0214 119.428 26.2269 119.56 26.4164C119.78 26.7327 119.964 27.0571 120.073 27.428C120.117 27.5789 120.211 27.7251 120.311 27.8519C120.605 28.2212 120.761 28.6564 120.957 29.0723L120.953 29.0707ZM118.583 22.6621C118.586 22.5016 118.498 22.3779 118.35 22.3057C118.265 22.2639 118.171 22.2334 118.076 22.2173C117.954 22.1965 117.829 22.1933 117.703 22.182C117.58 22.1708 117.454 22.1595 117.331 22.1515C117.289 22.1483 117.247 22.1515 117.205 22.1563C116.942 22.1852 116.786 22.3362 116.738 22.5931C116.698 22.8115 116.743 23.0218 116.772 23.2354C116.79 23.3638 116.881 23.4602 117.003 23.5035C117.358 23.6304 117.724 23.693 118.1 23.6176C118.341 23.5694 118.49 23.4152 118.537 23.1856C118.57 23.0154 118.58 22.8388 118.583 22.6637V22.6621Z" fill="black"/>
<path d="M136.336 24.398C136.359 24.475 136.315 24.5312 136.253 24.5666C136.193 24.6003 136.128 24.6228 136.062 24.6436C135.692 24.7609 135.322 24.8781 134.952 24.9953C134.901 25.0114 134.846 25.0322 134.792 25.037C134.676 25.0483 134.57 25.0242 134.493 24.9263C134.384 24.7866 134.267 24.6485 134.162 24.5039C133.878 24.1153 133.48 24.064 133.045 24.1443C132.781 24.1924 132.552 24.3257 132.328 24.4622C132.208 24.5361 132.126 24.6452 132.059 24.7641C131.964 24.9279 131.872 25.0949 131.778 25.2602C131.593 25.583 131.469 25.9234 131.452 26.2895C131.349 26.8146 131.436 27.3188 131.593 27.815C131.673 28.0671 131.805 28.2855 132.025 28.4445C132.169 28.5488 132.309 28.6596 132.458 28.756C132.797 28.9744 133.149 29.0016 133.51 28.8138C133.583 28.7752 133.653 28.7319 133.725 28.695C133.873 28.6227 133.979 28.6355 134.1 28.7511C134.167 28.8154 134.23 28.8892 134.283 28.9695C134.401 29.1526 134.541 29.318 134.707 29.4641C134.798 29.5444 134.877 29.6407 134.951 29.7387C135.016 29.827 134.999 29.9635 134.91 30.0341C134.633 30.2541 134.365 30.4822 133.998 30.5576C133.706 30.6186 133.422 30.7198 133.122 30.7519C132.844 30.7824 132.574 30.7519 132.311 30.6813C132.035 30.6058 131.765 30.5062 131.495 30.4083C131.341 30.3521 131.198 30.275 131.09 30.1417C130.766 29.7387 130.438 29.3389 130.108 28.9406C129.884 28.6709 129.754 28.361 129.706 28.0189C129.644 27.5645 129.583 27.1085 129.534 26.6508C129.478 26.1017 129.568 25.575 129.803 25.0724C129.883 24.9006 129.97 24.7271 130.013 24.5457C130.063 24.3418 130.154 24.1667 130.284 24.0062C130.336 23.9419 130.393 23.8809 130.427 23.807C130.596 23.4441 130.909 23.2193 131.233 23.009C131.615 22.7601 132.019 22.5481 132.433 22.3506C132.654 22.2446 132.878 22.2061 133.123 22.2286C133.403 22.2543 133.682 22.2735 133.963 22.2816C134.125 22.2864 134.263 22.3538 134.401 22.4149C134.629 22.5192 134.851 22.6381 135.071 22.7617C135.167 22.8163 135.257 22.8853 135.338 22.9608C135.519 23.1326 135.699 23.306 135.863 23.4907C136.096 23.7524 136.234 24.064 136.333 24.3931L136.336 24.398Z" fill="black"/>
<path d="M142.666 23.6898C143.024 23.7861 143.037 23.807 142.975 24.1779C142.93 24.4461 142.886 24.7126 142.841 24.9792C142.83 25.0466 142.822 25.1125 142.808 25.1799C142.777 25.326 142.692 25.3999 142.549 25.3839C142.313 25.3566 142.079 25.318 141.844 25.2811C141.624 25.2458 141.404 25.1976 141.183 25.1687C141.009 25.1462 140.876 25.2265 140.828 25.3839C140.776 25.5525 140.734 25.7243 140.714 25.8977C140.604 26.7568 140.41 27.603 140.317 28.4653C140.225 29.0401 140.136 29.615 140.039 30.1883C139.98 30.5496 139.911 30.9076 139.845 31.2673C139.835 31.3203 139.829 31.3749 139.81 31.4263C139.691 31.7426 139.651 31.7603 139.326 31.6977C139.273 31.6864 139.219 31.6736 139.169 31.6527C138.962 31.566 138.748 31.5467 138.527 31.5515C138.392 31.5548 138.254 31.5323 138.12 31.5066C137.987 31.4825 137.908 31.3781 137.913 31.2448C137.916 31.1373 137.931 31.0281 137.949 30.9221C138.011 30.5335 138.082 30.1481 138.141 29.7595C138.255 29.0096 138.361 28.2598 138.475 27.5099C138.504 27.3236 138.554 27.1421 138.61 26.9607C138.684 26.7166 138.735 26.4581 138.74 26.2044C138.745 25.9459 138.782 25.6938 138.812 25.4384C138.819 25.3855 138.822 25.3309 138.832 25.2779C138.888 24.9535 138.743 24.7688 138.408 24.6837C138.218 24.634 138.024 24.6131 137.83 24.5794C137.65 24.5489 137.47 24.5264 137.292 24.4894C137.049 24.4381 136.995 24.3578 137.03 24.1121C137.078 23.7765 137.134 23.4425 137.192 23.1101C137.223 22.9383 137.306 22.8773 137.488 22.9062C137.862 22.9672 138.242 22.9736 138.613 23.0635C138.828 23.1165 139.058 23.1149 139.283 23.1213C139.44 23.1246 139.59 23.1422 139.739 23.1904C140.063 23.2932 140.394 23.3478 140.735 23.3478C140.877 23.3478 141.012 23.3702 141.147 23.4152C141.401 23.5019 141.664 23.5517 141.934 23.5453C142.106 23.5404 142.268 23.5629 142.429 23.6256C142.506 23.6561 142.591 23.6689 142.673 23.6914L142.666 23.6898Z" fill="black"/>
<path d="M150.017 29.326C149.997 29.5412 149.94 29.7467 149.846 29.9474C149.754 30.1417 149.707 30.3569 149.63 30.5592C149.598 30.6459 149.545 30.7278 149.492 30.8049C149.348 31.0185 149.19 31.224 149.056 31.4424C148.881 31.7234 148.657 31.961 148.397 32.1601C148.248 32.2741 148.073 32.3609 147.896 32.4315C147.554 32.568 147.207 32.6949 146.854 32.804C146.674 32.8602 146.477 32.8892 146.289 32.8811C145.834 32.8619 145.407 32.7478 144.999 32.5214C144.471 32.2292 144.076 31.8101 143.697 31.3573C143.398 30.9992 143.211 30.6074 143.143 30.153C143.098 29.8446 143.039 29.5396 142.984 29.2312C142.926 28.9069 142.954 28.5841 142.981 28.2614C142.991 28.1409 143.02 28.0205 143.04 27.9001C143.066 27.5886 143.14 27.2867 143.276 27.0025C143.376 26.7953 143.468 26.5834 143.565 26.3762C143.659 26.1787 143.779 25.9989 143.941 25.8463C144.24 25.5653 144.537 25.2811 144.836 24.9985C144.966 24.8748 145.12 24.7881 145.29 24.7175C145.756 24.5248 146.233 24.3867 146.748 24.3738C146.976 24.3674 147.194 24.3835 147.413 24.4557C147.911 24.6195 148.37 24.8588 148.808 25.1334C149.06 25.2923 149.259 25.4979 149.386 25.7709C149.512 26.0438 149.659 26.3088 149.785 26.5818C149.847 26.7166 149.889 26.8628 149.932 27.0057C149.992 27.2 150.041 27.3991 150.102 27.5934C150.136 27.6994 150.157 27.8021 150.146 27.9129C150.101 28.385 150.066 28.8555 150.019 29.326H150.017ZM148.196 28.4364C148.298 28.1586 148.221 27.7524 148.046 27.3541C147.991 27.2305 147.941 27.1036 147.89 26.9768C147.773 26.6829 147.551 26.4822 147.28 26.3248C146.912 26.1097 146.533 26.1032 146.162 26.2911C145.701 26.524 145.37 26.8692 145.218 27.3654C145.126 27.6608 145.009 27.9483 144.919 28.2453C144.869 28.4107 144.824 28.5873 144.826 28.7592C144.828 29.0145 144.865 29.2698 144.901 29.5235C144.919 29.6423 144.961 29.7595 145.007 29.8719C145.076 30.0341 145.158 30.1915 145.235 30.3505C145.454 30.7985 145.879 31.0313 146.379 30.9751C146.702 30.9398 146.991 30.8306 147.22 30.5929C147.305 30.5062 147.395 30.4227 147.48 30.3344C147.604 30.2059 147.702 30.0662 147.765 29.896C147.925 29.4657 148.057 29.0289 148.196 28.4364Z" fill="black"/>
<path d="M128.098 28.6315C128.138 28.6604 128.17 28.7054 128.196 28.7503C128.209 28.7712 128.206 28.8033 128.202 28.8306C128.156 29.208 128.113 29.5837 128.058 29.9595C128.029 30.1554 127.923 30.2373 127.722 30.2437C127.682 30.2437 127.64 30.2421 127.6 30.2373C127.112 30.1811 126.622 30.1281 126.134 30.0719C125.93 30.0494 125.728 30.0205 125.524 29.998C125.253 29.9675 124.978 29.9595 124.718 29.8631C124.655 29.8407 124.585 29.8326 124.517 29.8294C124.231 29.8117 123.941 29.8246 123.661 29.7748C123.379 29.725 123.099 29.664 122.81 29.6672C122.696 29.6672 122.594 29.648 122.492 29.603C122.383 29.5532 122.33 29.4633 122.308 29.3509C122.306 29.3381 122.308 29.3236 122.308 29.3108C122.33 28.866 122.269 28.418 122.361 27.9764C122.399 27.7917 122.455 27.6087 122.48 27.4224C122.545 26.9262 122.606 26.4284 122.658 25.9306C122.712 25.4056 122.748 24.8789 122.801 24.3522C122.847 23.8801 122.916 23.4112 122.961 22.9391C123.006 22.4815 123.032 22.0206 123.069 21.563C123.09 21.29 123.212 21.1792 123.47 21.2451C124.018 21.3848 124.581 21.396 125.137 21.4731C125.331 21.5004 125.526 21.5293 125.722 21.5486C126.015 21.5775 126.309 21.624 126.602 21.6176C127.125 21.6064 127.637 21.6995 128.151 21.7589C128.344 21.7814 128.533 21.8472 128.719 21.9082C128.832 21.9436 128.903 22.0303 128.917 22.1507C128.96 22.5168 128.939 22.8797 128.872 23.241C128.864 23.2812 128.851 23.3213 128.832 23.355C128.789 23.4273 128.731 23.4867 128.636 23.4867C128.538 23.4867 128.442 23.4787 128.344 23.4738C128.162 23.4658 127.981 23.4658 127.801 23.4498C127.621 23.4337 127.44 23.4176 127.265 23.3775C126.948 23.3068 126.635 23.2699 126.311 23.2747C126.033 23.2779 125.755 23.2426 125.476 23.225C125.351 23.2169 125.225 23.2009 125.1 23.2041C124.943 23.2089 124.837 23.2988 124.811 23.4482C124.765 23.7147 124.731 23.9829 124.789 24.2542C124.816 24.3843 124.887 24.4774 125.017 24.5208C125.121 24.5561 125.227 24.5979 125.336 24.6107C125.543 24.6348 125.752 24.6589 125.959 24.6509C126.365 24.6348 126.764 24.691 127.164 24.7408C127.369 24.7665 127.57 24.8291 127.769 24.8885C127.909 24.9287 127.962 25.0218 127.957 25.1679C127.957 25.1808 127.957 25.1952 127.954 25.2081C127.913 25.5437 127.873 25.8793 127.828 26.2149C127.806 26.3738 127.708 26.4589 127.549 26.4573C127.453 26.4573 127.356 26.4413 127.26 26.4349C127.107 26.4252 126.956 26.406 126.804 26.4108C126.288 26.43 125.786 26.3658 125.285 26.2454C125.139 26.21 124.983 26.2004 124.834 26.202C124.646 26.2068 124.509 26.3128 124.485 26.4911C124.421 26.9455 124.333 27.3983 124.389 27.864C124.405 28.0005 124.461 28.0968 124.596 28.1353C124.781 28.1851 124.965 28.2461 125.153 28.2702C125.603 28.3312 126.507 28.4115 126.508 28.4051C126.998 28.4693 127.488 28.5336 127.976 28.601C128.016 28.6074 128.064 28.609 128.095 28.6299L128.098 28.6315Z" fill="black"/>
<path d="M157.271 34.8258C157.298 34.9093 157.222 34.9879 157.134 34.9783C157.107 34.9751 157.079 34.9735 157.052 34.9671C156.612 34.8595 156.174 34.7519 155.719 34.7262C155.488 34.7134 155.344 34.5785 155.278 34.3601C155.251 34.2686 155.222 34.1786 155.199 34.0871C155.14 33.8495 155.064 33.6182 154.931 33.4079C154.881 33.3276 154.841 33.2377 154.815 33.1477C154.753 32.9245 154.66 32.7142 154.565 32.5038C154.497 32.3577 154.462 32.1955 154.425 32.0366C154.34 31.6769 154.191 31.3413 154.033 31.0089C153.993 30.9238 153.94 30.8403 153.881 30.7664C153.717 30.5609 153.406 30.6026 153.309 30.8403C153.3 30.866 153.288 30.8917 153.285 30.9174C153.184 31.5179 152.93 32.0799 152.852 32.6869C152.831 32.8475 152.803 33.0048 152.8 33.1686C152.795 33.3549 152.752 33.546 152.693 33.7226C152.638 33.8864 152.516 33.994 152.317 33.9683C152.209 33.9538 152.092 33.9683 151.992 33.933C151.694 33.8222 151.384 33.7708 151.074 33.713C151.034 33.7049 150.994 33.6969 150.954 33.6841C150.889 33.6632 150.84 33.5941 150.849 33.5267C150.864 33.4336 150.88 33.3388 150.902 33.2473C151.05 32.6708 151.149 32.0863 151.206 31.4922C151.254 30.9832 151.389 30.4822 151.483 29.9764C151.742 29.371 151.761 28.7111 151.92 28.0832C151.939 28.0061 151.951 27.921 151.947 27.8423C151.941 27.6898 151.991 27.5533 152.033 27.4088C152.143 27.0346 152.237 26.6541 152.24 26.2559C152.24 26.0567 152.293 25.8544 152.343 25.6585C152.383 25.5028 152.497 25.4562 152.668 25.4915C153.263 25.6103 153.855 25.7292 154.448 25.8512C154.448 25.856 155.52 26.0889 156.058 26.1997C156.354 26.2591 156.622 26.3747 156.863 26.5481C157.044 26.6798 157.226 26.8082 157.399 26.9479C157.658 27.1567 157.817 27.4297 157.897 27.7396C157.958 27.9756 158.011 28.2149 158.049 28.4573C158.067 28.5617 158.054 28.6741 158.033 28.7801C157.975 29.0868 157.878 29.3823 157.699 29.6456C157.624 29.758 157.547 29.8704 157.479 29.9876C157.298 30.3104 157.015 30.5159 156.678 30.6556C156.526 30.7182 156.368 30.7712 156.212 30.8242C155.899 30.9334 155.822 31.0635 155.927 31.3798C155.999 31.5982 156.082 31.8166 156.191 32.0205C156.373 32.3609 156.519 32.7062 156.583 33.0867C156.609 33.2425 156.686 33.3982 156.77 33.5363C157.017 33.9378 157.123 34.389 157.267 34.8258H157.271ZM155.67 28.1779C155.692 28.019 155.618 27.8857 155.48 27.7958C155.4 27.7444 155.308 27.7026 155.217 27.6753C155.098 27.6384 154.973 27.6223 154.849 27.5951C154.727 27.5694 154.603 27.5437 154.48 27.5196C154.44 27.5116 154.396 27.5099 154.355 27.5083C154.088 27.5051 153.916 27.6368 153.837 27.8857C153.772 28.096 153.791 28.3128 153.796 28.5264C153.797 28.6565 153.878 28.7624 153.993 28.8202C154.332 28.9872 154.689 29.0948 155.074 29.0659C155.32 29.0467 155.487 28.9118 155.56 28.6902C155.615 28.5248 155.644 28.3498 155.668 28.1779H155.67Z" fill="black"/>
<path d="M164.671 28.1892C164.704 28.2229 164.728 28.3032 164.708 28.3353C164.522 28.6612 164.435 29.0402 164.13 29.3052C163.999 29.4176 163.91 29.5813 163.816 29.7291C163.591 30.0839 163.374 30.4436 163.154 30.8017C163.112 30.8708 163.064 30.9382 163.027 31.0105C162.789 31.4713 162.504 31.8952 162.147 32.2758C161.987 32.446 161.893 32.6564 161.844 32.8876C161.762 33.2714 161.662 33.6519 161.58 34.0357C161.551 34.1658 161.547 34.3039 161.532 34.4371C161.529 34.4773 161.532 34.519 161.524 34.5576C161.434 34.9526 161.348 35.3508 161.25 35.7442C161.209 35.9096 161.111 35.9722 160.948 35.9482C160.826 35.9305 160.707 35.8936 160.532 35.8534C160.233 35.7603 159.878 35.6511 159.527 35.5387C159.401 35.4985 159.348 35.415 159.366 35.2898C159.379 35.1967 159.408 35.1051 159.427 35.0136C159.503 34.67 159.578 34.3263 159.655 33.9827C159.769 33.4817 159.87 32.9759 160.002 32.4797C160.103 32.1008 160.097 31.7331 159.979 31.3605C159.861 30.9816 159.795 30.5946 159.808 30.198C159.811 30.0904 159.801 29.9812 159.784 29.8736C159.716 29.4593 159.647 29.045 159.573 28.6307C159.539 28.4429 159.527 28.2566 159.53 28.0655C159.535 27.823 159.504 27.579 159.49 27.3365C159.485 27.2691 159.475 27.2016 159.486 27.1358C159.491 27.1037 159.533 27.0748 159.565 27.0523C159.586 27.0378 159.62 27.0314 159.645 27.0346C159.967 27.0716 160.288 27.1101 160.609 27.1518C160.663 27.1583 160.721 27.1743 160.771 27.1984C161.15 27.375 161.209 27.3012 161.314 27.7957C161.404 28.2229 161.487 28.6484 161.466 29.0852C161.46 29.204 161.479 29.3276 161.51 29.4449C161.545 29.5797 161.709 29.6119 161.81 29.5107C161.858 29.4625 161.893 29.4047 161.932 29.3501C162.093 29.1317 162.247 28.9085 162.414 28.695C162.581 28.4814 162.775 28.2855 162.862 28.0206C162.878 27.9708 162.92 27.929 162.953 27.8857C162.998 27.8279 163.059 27.799 163.135 27.8054C163.191 27.8102 163.247 27.8182 163.302 27.8311C163.576 27.8953 163.849 27.9563 164.134 27.9724C164.329 27.9836 164.527 28.0382 164.668 28.1908L164.671 28.1892Z" fill="black"/>
<defs>
<clipPath id="clip0_102_15180">
<rect width="90.0779" height="144.624" fill="white"/>
</clipPath>
<clipPath id="clip1_102_15180">
<rect width="90.0779" height="144.624" fill="white" transform="matrix(-1 0 0 1 180 0.00012207)"/>
</clipPath>
</defs>
</svg>
