<svg width="32" height="32" viewBox="0 0 32 32" fill="none" xmlns="http://www.w3.org/2000/svg">
<circle cx="17" cy="16" r="12" fill="black"/>
<mask id="mask0_315_62455" style="mask-type:alpha" maskUnits="userSpaceOnUse" x="0" y="0" width="32" height="32">
<rect width="32" height="32" fill="#D9D9D9"/>
</mask>
<g mask="url(#mask0_315_62455)">
</g>
<g clip-path="url(#clip0_315_62455)">
<path d="M26.7469 15.665C26.7469 12.7259 25.5793 9.90719 23.5011 7.82893C21.4228 5.75068 18.6041 4.58312 15.665 4.58312C12.7259 4.58312 9.90719 5.75068 7.82893 7.82893C5.75068 9.90719 4.58312 12.7259 4.58312 15.665C4.58312 18.6041 5.75068 21.4228 7.82893 23.5011C9.90719 25.5793 12.7259 26.7469 15.665 26.7469C18.6041 26.7469 21.4228 25.5793 23.5011 23.5011C25.5793 21.4228 26.7469 18.6041 26.7469 15.665ZM3 15.665C3 12.306 4.33434 9.08464 6.70949 6.70949C9.08464 4.33434 12.306 3 15.665 3C19.024 3 22.2454 4.33434 24.6205 6.70949C26.9957 9.08464 28.33 12.306 28.33 15.665C28.33 19.024 26.9957 22.2454 24.6205 24.6205C22.2454 26.9957 19.024 28.33 15.665 28.33C12.306 28.33 9.08464 26.9957 6.70949 24.6205C4.33434 22.2454 3 19.024 3 15.665ZM14.0819 11.7072V19.6228V20.4144H12.4987V19.6228V11.7072V10.9156H14.0819V11.7072ZM18.8312 11.7072V19.6228V20.4144H17.2481V19.6228V11.7072V10.9156H18.8312V11.7072Z" fill="white"/>
</g>
<circle cx="16" cy="16" r="12" stroke="white" stroke-width="2"/>
<defs>
<clipPath id="clip0_315_62455">
<rect width="25.33" height="25.33" fill="white" transform="translate(3 3)"/>
</clipPath>
</defs>
</svg>
