<svg width="1425" height="1455" viewBox="0 0 1425 1455" fill="none" xmlns="http://www.w3.org/2000/svg">
<g clip-path="url(#clip0_2001_8190)">
<rect width="1424.87" height="1454.28" fill="black"/>
<path d="M470.951 920.83C470.701 920.83 470.451 920.83 470.201 920.83C464.851 920.73 463.681 919.83 462.621 914.63C461.181 907.57 459.951 900.48 458.431 893.44C457.701 890.06 456.571 886.75 455.461 883.46C455.251 882.85 454.301 882.2 453.631 882.14C453.131 882.09 452.221 882.84 452.031 883.41C450.971 886.63 449.911 889.86 449.151 893.16C447.231 901.47 445.531 909.83 443.561 918.13C443.321 919.12 442.001 920.6 441.181 920.59C436.221 920.57 431.251 920.25 426.301 919.88C423.991 919.7 422.881 917.97 422.431 915.9C421.551 911.85 420.821 907.78 419.931 903.73C418.511 897.27 417.111 890.8 415.461 884.39C415.111 883.02 414.891 880.59 412.621 880.96C410.701 881.28 410.681 883.28 410.411 884.96C409.331 891.67 408.161 898.36 406.981 905.05C406.391 908.39 405.681 911.71 405.111 915.06C404.461 918.9 403.951 919.66 400.121 919.83C395.911 920.02 391.691 919.83 387.471 919.72C385.681 919.67 384.771 918.68 385.091 916.79C385.691 913.23 386.261 909.66 386.851 906.1C387.121 904.47 387.381 902.83 387.681 901.21C388.751 895.44 389.891 889.68 390.921 883.91C392.601 874.46 394.091 864.98 395.891 855.56C397.481 847.26 399.281 839 401.251 830.79C401.511 829.72 403.281 828.26 404.361 828.25C410.581 828.17 416.831 828.29 423.031 828.78C424.231 828.87 425.991 830.73 426.271 832.04C427.881 839.41 429.111 846.85 430.481 854.27C430.801 855.98 431.031 857.71 431.541 859.37C431.741 860.01 432.561 860.84 433.131 860.87C433.761 860.91 434.771 860.27 435.051 859.67C435.841 857.95 436.541 856.15 436.941 854.3C438.541 846.87 439.981 839.4 441.541 831.96C441.951 830 442.931 828.71 445.261 828.27C450.811 827.21 456.341 827.14 461.911 827.84C465.081 828.24 465.891 829.33 466.491 832.43C468.001 840.24 469.741 848 471.291 855.8C471.901 858.89 472.081 862.06 472.731 865.14C475.381 877.77 478.211 890.35 480.801 902.99C481.701 907.37 482.121 911.84 482.661 916.29C482.901 918.3 482.101 919.59 479.841 919.84C476.881 920.18 473.931 920.72 470.981 921.17C470.961 921.06 470.951 920.96 470.931 920.85L470.951 920.83Z" fill="white"/>
<path d="M963.3 873.3C963.3 885.84 963.32 898.37 963.28 910.91C963.28 912.9 963.08 914.88 962.91 916.87C962.76 918.61 961.77 919.54 960 919.69C955.95 920.03 951.91 920.39 947.87 920.76C944.76 921.04 942.44 919.68 941.2 916.97C938.86 911.87 936.81 906.64 934.59 901.48C932.69 897.08 930.73 892.7 928.79 888.32C927.65 885.75 926.64 883.11 925.29 880.65C924.73 879.64 923.43 879.04 922.46 878.25C921.73 879.18 920.65 880.02 920.35 881.07C919.87 882.8 919.65 884.69 919.75 886.49C920.07 892.87 920.79 899.23 920.93 905.6C921.01 909.45 920.43 913.33 919.84 917.16C919.71 918.03 918.44 919.13 917.48 919.4C912.44 920.83 907.33 920.99 902.21 919.61C900.23 919.07 899.99 917.62 900 915.94C900.07 908.81 900.14 901.68 900.21 894.56C900.21 894.23 900.25 893.9 900.24 893.56C899.94 880.63 899.48 867.7 899.38 854.76C899.32 847.14 899.77 839.51 900.13 831.88C900.22 829.99 901.38 828.57 903.48 828.54C907.72 828.48 911.96 828.45 916.19 828.57C918.71 828.64 920.22 830.43 921.28 832.47C924.43 838.55 927.54 844.65 930.56 850.8C932.86 855.47 934.98 860.23 937.22 864.93C937.57 865.66 938.02 866.4 938.6 866.97C940.05 868.41 941.63 867.98 942.08 865.97C942.38 864.61 942.43 863.17 942.45 861.76C942.58 851.8 942.66 841.84 942.76 831.87C942.79 828.7 943.3 828.07 946.52 827.9C950.67 827.68 954.82 827.57 958.98 827.52C961.9 827.48 963.05 828.72 963.1 832.2C963.18 838.34 963.07 844.49 963.06 850.63C963.05 858.18 963.06 865.74 963.06 873.29C963.13 873.29 963.21 873.29 963.28 873.29L963.3 873.3Z" fill="white"/>
<path d="M495.979 861.43C495.979 851.88 495.969 842.33 495.979 832.78C495.979 829.3 496.849 828.21 500.229 827.94C504.369 827.61 508.539 827.4 512.689 827.4C515.789 827.4 517.019 829.12 516.909 831.98C516.659 839.02 516.539 846.06 516.429 853.1C516.339 858.82 516.179 864.55 516.299 870.28C516.459 877.42 516.829 884.55 517.209 891.68C517.399 895.19 519.959 898.21 523.409 899.32C528.319 900.91 532.569 899.8 535.579 896.12C538.179 892.94 539.089 889.31 538.859 885.22C538.539 879.69 538.389 874.14 538.359 868.6C538.299 857.23 538.419 845.87 538.339 834.5C538.309 830.19 538.929 829.2 543.229 828.21C547.339 827.26 551.419 827.13 555.579 828.09C557.889 828.62 558.739 829.71 558.699 832.01C558.549 839.48 558.439 846.96 558.489 854.43C558.549 862.98 559.029 871.53 558.869 880.07C558.749 886.85 558.089 893.64 557.409 900.4C556.799 906.51 553.329 910.93 548.299 914.23C545.879 915.82 543.529 917.59 540.959 918.88C539.019 919.86 536.749 920.79 534.649 920.73C528.189 920.55 521.719 920.04 515.299 919.31C513.359 919.09 511.149 918.16 509.739 916.84C506.189 913.51 502.519 910.12 499.839 906.13C496.279 900.81 496.159 894.32 495.999 888.11C495.769 879.23 495.939 870.34 495.939 861.45C495.939 861.45 495.949 861.45 495.959 861.45L495.979 861.43Z" fill="white"/>
<path d="M876.3 920.15C874.8 920.15 873.3 920.16 871.81 920.15C867.24 920.11 866.42 919.35 865.28 915.01C864.48 911.97 863.41 909 862.36 906.04C861.19 902.74 858.67 901.18 855.25 901.3C849.01 901.52 842.78 901.82 836.55 902.23C833.08 902.46 832.13 905.36 831.13 908C830.04 910.86 828.98 913.74 828.16 916.68C827.61 918.65 826.54 919.78 824.56 919.86C820.41 920.02 816.25 920.17 812.1 920.1C809.37 920.05 808.64 919.17 809.23 916.45C810.18 912.01 811.29 907.58 812.59 903.23C815.77 892.63 819.21 882.11 822.34 871.49C824.88 862.85 826.99 854.07 829.54 845.43C830.96 840.6 832.89 835.92 834.59 831.18C835.22 829.42 836.45 828.53 838.35 828.51C843.76 828.44 849.16 828.28 854.57 828.26C858.36 828.25 859.05 828.91 860.13 832.57C863.25 843.11 866.3 853.68 869.57 864.17C872.34 873.08 875.52 881.87 878.25 890.79C879.99 896.48 881.24 902.32 882.69 908.1C883.4 910.91 884.03 913.74 884.79 916.53C885.45 918.99 884.82 920.02 882.3 920.11C880.31 920.18 878.31 920.12 876.31 920.12C876.31 920.12 876.31 920.14 876.31 920.15H876.3ZM848.89 888.44C848.89 888.44 848.9 888.35 848.91 888.3C849.66 888.3 850.41 888.34 851.15 888.3C854.91 888.07 856.4 885.81 855.19 882.25C854.95 881.55 854.88 880.79 854.65 880.09C853.06 875.24 851.56 870.36 849.75 865.59C849.31 864.43 847.84 863.65 846.85 862.7C845.88 863.75 844.46 864.64 844.02 865.88C842.16 871.17 840.5 876.53 838.95 881.92C837.96 885.35 839.42 887.29 842.98 887.74C844.95 887.99 846.93 888.22 848.9 888.46L848.89 888.44Z" fill="white"/>
<path d="M1013.56 921C1006.11 920.48 999.332 919.67 993.892 915.63C989.772 912.57 986.462 908.38 983.022 904.49C981.922 903.25 982.142 901.58 983.972 900.52C988.062 898.16 992.062 895.65 996.132 893.26C998.062 892.13 999.652 892.73 1001.3 894.15C1003.72 896.24 1006.25 898.27 1008.98 899.91C1011.3 901.3 1013.83 900.63 1016.07 899.23C1018.16 897.92 1018.79 894.62 1016.85 892.67C1014.43 890.23 1011.74 887.9 1008.79 886.16C999.892 880.91 991.302 875.34 984.442 867.47C979.282 861.55 978.272 848.63 982.642 842.43C984.502 839.79 986.052 836.94 987.922 834.32C990.362 830.9 993.812 829.05 997.972 828.52C1001.59 828.06 1005.2 827.39 1008.83 827.19C1013.99 826.91 1018.38 829.5 1022.96 831.42C1029.12 834.01 1033.71 838.14 1036.88 843.96C1038.17 846.32 1037.98 847.59 1035.68 848.87C1031.78 851.04 1027.82 853.1 1023.86 855.17C1021.76 856.27 1020.2 855.4 1018.95 853.64C1016.86 850.69 1014.07 848.72 1010.59 847.74C1007.84 846.96 1005.22 847.34 1003.1 849.24C1001.35 850.81 1000.75 853.22 1001.77 855.19C1002.87 857.31 1004.52 859.47 1006.49 860.73C1011.08 863.66 1016.03 866.04 1020.81 868.68C1026.58 871.86 1031.23 876.42 1035.32 881.42C1037.11 883.61 1037.64 886.83 1038.74 889.59C1041.25 895.89 1039.17 901.42 1035.74 906.66C1033.21 910.51 1031.38 915.03 1026.99 917.26C1022.56 919.51 1018.04 921.7 1013.55 920.99L1013.56 921Z" fill="white"/>
<path d="M610.66 921.06C601.93 920.56 595.01 919.65 589.43 915.5C585.38 912.48 582.16 908.32 578.8 904.46C577.69 903.19 577.95 901.56 579.78 900.51C583.87 898.15 587.87 895.64 591.95 893.26C593.76 892.2 595.32 892.67 596.93 894.03C599.43 896.15 602 898.26 604.79 899.94C607.1 901.33 609.64 900.66 611.87 899.23C614.03 897.85 614.52 894.51 612.44 892.46C610.05 890.1 607.41 887.85 604.53 886.16C595.62 880.93 587.05 875.32 580.18 867.46C575.05 861.58 573.96 848.64 578.44 842.43C581.13 838.69 583.36 834.33 586.81 831.48C591.78 827.37 598.39 827.39 604.64 827.16C609.93 826.97 614.34 829.65 619 831.56C625.03 834.04 629.4 838.2 632.56 843.8C633.95 846.26 633.8 847.57 631.4 848.91C627.5 851.08 623.55 853.15 619.59 855.21C617.49 856.3 615.93 855.41 614.69 853.64C612.78 850.9 610.21 849.02 607.05 847.95C604.09 846.95 601.21 847.15 598.86 849.29C597.04 850.94 596.38 853.57 597.63 855.45C599.31 857.97 601.62 860.34 604.17 861.98C608.82 864.96 614.08 867.02 618.68 870.08C624.12 873.71 629.48 877.79 632.41 883.83C634.11 887.34 635.2 891.36 635.54 895.24C635.76 897.81 634.52 900.72 633.29 903.15C631.34 906.96 629.23 910.81 626.49 914.06C621.98 919.42 615.54 920.75 610.67 921.07L610.66 921.06Z" fill="white"/>
<path d="M728.691 827.34C740.411 826.07 755.821 836.11 759.391 845.75C759.671 846.51 759.161 848.2 758.521 848.56C754.271 850.94 749.921 853.19 745.501 855.24C743.691 856.08 741.891 855.7 740.281 854.1C738.291 852.13 736.211 850.05 733.771 848.77C729.281 846.41 725.091 848.39 721.081 850.61C716.851 852.95 714.981 856.92 713.371 861.18C710.591 868.54 710.001 875.92 711.891 883.62C713.951 892.02 718.661 897.92 727.001 900.51C730.591 901.62 734.021 900.7 737.111 898.46C740.711 895.85 741.111 895.97 744.501 899.07C747.071 901.42 749.761 903.64 752.321 906C754.211 907.74 754.151 909.03 752.571 910.91C748.771 915.39 743.661 917.56 738.321 919.59C730.901 922.42 723.711 920.69 716.531 919.03C714.721 918.61 713.021 917.2 711.551 915.92C708.731 913.47 706.231 910.65 703.391 908.23C698.691 904.23 695.331 899.51 694.081 893.36C692.981 887.93 691.411 882.59 690.561 877.12C689.801 872.26 690.761 867.42 691.881 862.6C693.221 856.85 694.931 851.26 697.851 846.13C700.931 840.73 706.151 837.45 710.781 833.57C716.211 829.01 722.291 826.78 728.691 827.32V827.34Z" fill="white"/>
<path d="M653.25 874.33C653.25 860.38 653.25 846.43 653.25 832.47C653.25 828.7 654.5 827.25 658.32 827.4C662.54 827.58 666.76 828.15 670.96 828.64C672.64 828.84 673.27 830.07 673.33 831.67C673.41 834.16 673.59 836.65 673.59 839.14C673.59 850.24 673.51 861.35 673.57 872.45C673.59 876.42 673.95 880.38 674.14 884.34C674.19 885.41 674.23 886.49 674.18 887.56C673.99 891.68 673.67 895.8 673.57 899.92C673.41 905.98 673.39 912.04 673.32 918.09C673.3 920.1 672.27 920.85 670.32 920.82C666.08 920.77 661.84 920.82 657.61 920.84C654.08 920.86 653.29 920.16 653.28 916.67C653.25 908.61 653.26 900.56 653.25 892.5C653.25 886.44 653.25 880.37 653.25 874.31V874.33Z" fill="white"/>
<path d="M774.651 874.3C774.651 860.35 774.651 846.4 774.651 832.45C774.651 828.67 775.891 827.24 779.701 827.4C783.921 827.57 788.161 828.03 792.321 828.75C793.261 828.91 794.411 830.58 794.621 831.72C795.041 833.98 794.951 836.35 794.951 838.67C794.961 849.94 794.891 861.2 794.951 872.47C794.971 876.44 795.341 880.4 795.521 884.36C795.571 885.43 795.601 886.51 795.551 887.58C795.361 891.7 795.041 895.81 794.941 899.94C794.781 906 794.761 912.05 794.701 918.11C794.681 920.13 793.631 920.85 791.691 920.83C787.451 920.78 783.211 920.83 778.981 920.85C775.481 920.87 774.681 920.16 774.671 916.65C774.641 902.53 774.661 888.42 774.661 874.3H774.641H774.651Z" fill="white"/>
<path d="M562.002 1022.1C564.502 1016.06 567.042 1010.02 569.482 1003.95C570.242 1002.08 571.202 1001.37 573.372 1002.27C580.982 1005.42 588.722 1008.17 596.482 1010.76C598.452 1011.42 600.362 1012.12 600.262 1014.84C600.082 1020.23 598.732 1021.27 593.252 1019.57C589.042 1018.25 584.862 1016.78 580.652 1015.41C577.902 1014.5 576.692 1015.07 575.922 1017.31C574.852 1020.44 575.312 1021.62 578.292 1022.73C581.852 1024.06 585.482 1025.16 589.052 1026.44C592.102 1027.53 592.382 1028.2 591.522 1031.02C590.082 1035.75 589.822 1035.99 584.572 1034.58C581.192 1033.67 577.872 1032.45 574.612 1031.14C572.192 1030.17 570.752 1030.71 569.952 1032.81C569.922 1032.89 569.882 1032.96 569.852 1033.04C566.992 1039.15 567.452 1040.18 574.602 1042.78C578.722 1044.26 582.832 1045.75 586.992 1047.04C589.462 1047.8 590.142 1049.12 589.372 1051.14C589.192 1051.6 589.112 1052.1 588.952 1052.57C587.692 1056.39 586.952 1056.74 582.492 1055.28C574.022 1052.48 565.622 1049.38 557.302 1046.01C553.542 1044.47 553.032 1043.73 554.322 1040.44C556.732 1034.27 559.352 1028.19 561.882 1022.07C561.912 1022.08 561.942 1022.1 561.982 1022.11L562.002 1022.1Z" fill="white"/>
<path d="M852.823 1015.74C853.973 1018.67 855.133 1021.6 856.273 1024.53C856.893 1026.13 858.013 1026.74 860.003 1026.5C863.423 1026.09 866.663 1028.46 866.573 1031.64C866.543 1032.7 865.353 1034.18 864.263 1034.87C861.853 1036.39 860.893 1037.94 862.213 1040.21C862.423 1040.56 862.503 1040.99 862.673 1041.36C864.833 1046.32 863.893 1047.98 856.573 1050.01C855.443 1050.32 853.533 1048.94 852.583 1047.89C851.603 1046.81 851.363 1045.2 850.763 1043.83C849.693 1041.39 848.193 1040.83 845.303 1041.81C840.383 1043.48 835.433 1045.02 830.513 1046.63C827.963 1047.46 826.303 1046.72 825.863 1044.67C825.323 1042.23 824.583 1039.48 825.303 1037.17C827.983 1028.49 830.873 1019.9 833.363 1011.28C833.643 1010.3 834.393 1009 835.233 1008.67C838.923 1007.24 842.673 1005.93 846.473 1004.8C847.143 1004.6 848.683 1005.69 849.083 1006.53C850.493 1009.52 851.583 1012.66 852.793 1015.74C852.803 1015.74 852.823 1015.73 852.833 1015.72L852.823 1015.74ZM844.663 1025.78C844.663 1025.78 844.713 1025.76 844.733 1025.75C844.233 1024.36 843.813 1022.93 843.183 1021.59C842.943 1021.09 842.223 1020.47 841.743 1020.51C841.233 1020.55 840.483 1021.24 840.313 1021.77C839.233 1025.15 838.073 1028.52 837.223 1031.95C836.713 1033.96 838.093 1034.8 840.343 1034.18C845.953 1032.61 846.373 1031.93 845.013 1026.96C844.903 1026.57 844.773 1026.17 844.653 1025.78H844.663Z" fill="white"/>
<path d="M774.35 1046.21C774.99 1050.22 775.77 1054.2 776.22 1058.23C776.57 1061.34 775.73 1064.34 773.6 1067.02C769.62 1072.04 763.49 1073.33 757.35 1072.85C749.85 1072.26 745.68 1067.7 745.12 1061.11C744.5 1054.02 743.88 1046.92 743.45 1039.82C743.04 1032.29 747.83 1026.23 755.96 1025.33C759.41 1024.94 762.68 1024.96 765.89 1026.43C769.55 1028.11 771.76 1030.91 772.53 1034.67C773.31 1038.48 773.8 1042.35 774.41 1046.19C774.39 1046.19 774.36 1046.19 774.34 1046.2L774.35 1046.21ZM764.45 1048.43C764.45 1048.43 764.52 1048.42 764.56 1048.42C764.14 1045.31 763.79 1042.17 763.29 1039.07C762.81 1036.07 760.41 1034.39 757.41 1034.74C754.5 1035.08 753.22 1036.68 753.54 1040.15C754.1 1046.25 754.76 1052.35 755.49 1058.43C755.84 1061.42 758.44 1063.44 761.14 1063.06C764.17 1062.63 766 1060.16 765.6 1057.04C765.24 1054.16 764.84 1051.29 764.46 1048.42L764.45 1048.43Z" fill="white"/>
<path d="M716.623 1075.84C712.603 1075.88 708.563 1076 704.563 1075.75C700.513 1075.48 699.303 1074.21 699.723 1070.73C700.233 1066.5 700.133 1062.2 702.703 1058.26C705.913 1053.34 710.963 1050.79 715.923 1048C717.293 1047.23 718.843 1046.74 720.163 1045.92C722.463 1044.49 723.273 1041.86 722.083 1040.39C720.873 1038.89 717.683 1038.9 715.613 1040.36C714.343 1041.26 712.823 1042.99 711.753 1042.78C709.353 1042.3 707.073 1040.99 705.023 1039.64C704.453 1039.27 704.303 1037.3 704.793 1036.68C711.193 1028.79 719.113 1025.46 728.723 1031.35C732.443 1033.63 734.623 1041.02 733.383 1045.16C731.463 1051.52 725.933 1054.35 720.263 1057.3C717.803 1058.58 715.603 1060.45 713.603 1062.33C712.843 1063.04 712.683 1064.7 713.023 1065.73C713.203 1066.28 715.023 1066.66 716.123 1066.67C720.993 1066.72 725.863 1066.59 730.723 1066.25C732.933 1066.09 733.683 1066.77 733.763 1068.7C734.013 1074.61 733.793 1075.03 726.963 1075.61C723.533 1075.89 720.073 1075.84 716.623 1075.87C716.623 1075.87 716.623 1075.85 716.623 1075.83V1075.84Z" fill="white"/>
<path d="M803.942 1065.73C799.992 1066.61 796.052 1067.57 792.062 1068.18C787.592 1068.86 786.152 1067.79 785.852 1063.87C785.502 1059.53 784.632 1055.29 786.552 1050.83C788.772 1045.68 793.052 1042.35 797.072 1038.72C798.502 1037.43 800.142 1036.35 801.482 1035C803.082 1033.4 803.062 1031.4 801.522 1030.06C800.112 1028.84 798.102 1028.9 796.482 1030.31C795.712 1030.98 794.822 1031.7 794.432 1032.56C793.422 1034.81 791.622 1034.87 789.592 1034.49C789.082 1034.39 788.602 1034.16 788.092 1034.04C782.562 1032.58 782.202 1031.51 785.532 1026.94C787.552 1024.14 789.692 1021.64 793.052 1019.96C797.422 1017.78 801.412 1018.6 805.722 1019.46C809.782 1020.28 814.112 1028.47 813.742 1032.19C813.072 1038.81 808.322 1042.77 803.362 1046.86C801.152 1048.69 799.162 1051 797.752 1053.39C796.092 1056.17 797.722 1057.75 801.152 1057.01C805.932 1055.96 810.712 1054.82 815.422 1053.47C817.512 1052.87 818.462 1053.24 818.972 1055.17C820.492 1060.99 820.442 1061.35 813.782 1063.38C810.552 1064.35 807.222 1065.01 803.942 1065.75C803.942 1065.75 803.942 1065.75 803.942 1065.74V1065.73Z" fill="white"/>
<path d="M612.992 1064.05C606.642 1062.35 602.032 1058.78 599.362 1053.44C598.212 1051.15 598.682 1050.22 601.252 1049.66C602.142 1049.46 603.042 1049.31 603.922 1049.09C608.522 1047.95 609.072 1048.22 611.762 1051.73C612.692 1052.94 615.062 1053.64 616.852 1053.88C618.782 1054.12 619.632 1052.14 618.212 1050.43C616.072 1047.85 613.532 1045.55 611.332 1043.02C609.192 1040.56 607.012 1038.09 605.292 1035.41C602.382 1030.86 603.572 1025 607.492 1021.55C614.032 1015.8 621.552 1015.85 628.402 1021.49C630.952 1023.59 633.162 1025.75 634.272 1028.93C634.892 1030.7 634.612 1031.62 632.682 1031.98C631.742 1032.15 630.732 1032.21 629.902 1032.6C626.762 1034.06 624.642 1033.28 622.832 1030.3C621.452 1028.05 617.822 1027.25 616.382 1028.37C614.722 1029.67 615.272 1032.71 617.532 1034.78C620.432 1037.43 623.652 1039.86 626.262 1042.76C631.372 1048.44 634.042 1055.07 625.982 1061.5C622.162 1064.51 617.992 1065.29 613.002 1064.06L612.992 1064.05Z" fill="white"/>
<path d="M649.482 1052.91C650.252 1048.09 651.082 1043.27 651.772 1038.43C652.292 1034.76 651.472 1033.8 647.702 1033.09C647.622 1033.07 647.532 1033.06 647.442 1033.04C641.462 1031.9 640.872 1030.79 642.862 1025.31C643.492 1023.57 644.862 1023.48 646.392 1023.73C652.382 1024.72 658.382 1025.59 664.392 1026.32C666.842 1026.62 669.292 1026.97 671.752 1027.23C673.732 1027.44 674.582 1028.56 674.602 1030.41C674.602 1030.66 674.602 1030.91 674.602 1031.16C674.422 1036.72 674.212 1036.93 668.432 1036.3C663.772 1035.77 663.322 1036 662.722 1040.41C661.482 1049.52 660.332 1058.63 659.132 1067.75C658.642 1071.53 657.752 1072.69 652.912 1071.73C646.552 1070.44 646.522 1070.64 647.432 1065.16C648.112 1061.07 648.742 1056.98 649.402 1052.89C649.432 1052.89 649.462 1052.89 649.492 1052.9L649.482 1052.91Z" fill="white"/>
<path d="M1046.01 715.87H1168.35" stroke="white" stroke-width="9" stroke-miterlimit="10"/>
<path d="M1046.22 627.833H1168.57" stroke="white" stroke-width="9" stroke-miterlimit="10"/>
<path d="M1046.22 656.833H1168.57" stroke="white" stroke-width="9" stroke-miterlimit="10"/>
<path d="M1046.22 598.613H1168.57" stroke="white" stroke-width="9" stroke-miterlimit="10"/>
<path d="M1046.22 714.833H1168.57" stroke="white" stroke-width="9" stroke-miterlimit="10"/>
<path d="M1046.22 685.833H1168.57" stroke="white" stroke-width="9" stroke-miterlimit="10"/>
<path d="M256.77 627.833H379.11" stroke="white" stroke-width="9" stroke-miterlimit="10"/>
<path d="M256.77 656.833H379.11" stroke="white" stroke-width="9" stroke-miterlimit="10"/>
<path d="M256.77 598.613H379.11" stroke="white" stroke-width="9" stroke-miterlimit="10"/>
<path d="M256.77 714.833H379.11" stroke="white" stroke-width="9" stroke-miterlimit="10"/>
<path d="M256.77 685.833H379.11" stroke="white" stroke-width="9" stroke-miterlimit="10"/>
<path d="M572.729 568.39C576.335 568.16 579.921 567.865 583.48 567.999C585.934 568.091 587.518 568.615 588.573 569.633C589.634 570.657 590.252 572.265 590.564 574.745V574.746C590.752 576.207 590.849 577.713 590.546 579.053C589.398 584.053 589.494 589.133 589.519 594.115L589.521 596.243C589.481 604.666 588.947 613.247 589.752 621.652L589.834 622.465C590.938 632.951 590.749 643.407 590.79 653.941C590.803 657.516 590.242 661.008 589.994 664.667C589.818 667.273 589.577 669.929 589.547 672.579L589.548 673.713C589.665 683.542 588.895 693.55 590.537 703.459L590.703 704.418C590.996 706.035 590.744 707.857 590.433 709.616V709.618C589.179 716.869 589.549 724.053 590.293 731.29L590.339 731.739H590.36C590.903 737.315 590.848 742.944 590.859 748.602L590.871 751.09C590.882 752.953 589.328 754.424 587.188 754.584C585.417 754.718 583.626 754.718 581.826 754.665H581.824C573.683 754.456 565.448 754.065 557.294 755.575L556.505 755.727C555.428 755.94 554.263 755.829 553.043 755.719H553.039C552.135 755.645 551.405 755.356 550.824 754.893C550.241 754.428 549.781 753.765 549.455 752.907C547.943 748.929 547.569 744.751 548.193 740.643L548.332 739.822C550.098 730.206 550.082 720.547 549.677 710.923C549.334 702.779 548.659 694.641 548.107 686.514L547.88 683.032C547.767 681.246 547.263 679.762 546.336 678.575C545.41 677.389 544.094 676.538 542.428 675.961H542.427C533.083 672.734 523.438 672.029 513.732 672.857H513.731C511.284 673.069 509.298 673.973 507.771 675.436C506.25 676.895 505.213 678.882 504.608 681.223C501.999 691.336 501.549 701.51 503.48 711.82V711.821C503.96 714.358 504.235 716.967 504.306 719.559L504.323 720.668C504.35 728.492 504.188 736.304 504.013 744.135V744.136C503.973 746.206 503.785 748.28 503.361 750.294V750.297C502.833 752.873 502.301 754.225 501.399 754.987C500.615 755.65 499.468 755.934 497.511 756.017L496.62 756.042C492.874 756.08 489.134 756.046 485.38 756.042V755.704H484.88C480.033 755.704 475.248 755.892 470.458 755.65H470.457C467.985 755.531 466.427 755.027 465.362 754.028C464.356 753.084 463.712 751.628 463.239 749.385L463.147 748.926C463.07 748.51 463.014 748.076 462.974 747.635L462.938 747.192C462.371 738.193 461.71 729.211 461.278 720.21C461.091 716.32 461.477 712.443 461.947 708.519L462.153 706.833C463.658 694.5 463.399 682.104 461.883 669.784V669.783C461.212 664.392 461.146 659.16 461.988 653.788C463.455 644.485 463.318 635.085 462.669 625.74V625.739C462.225 619.447 462.305 613.19 462.629 606.883C462.948 600.582 462.885 594.202 463.018 587.908L463.088 585.216C463.141 583.588 463.296 581.963 463.466 580.324C463.593 579.098 463.73 577.862 463.839 576.621L463.938 575.378C464.058 573.639 464.685 572.483 465.615 571.682C466.445 570.968 467.55 570.507 468.851 570.204L469.42 570.083C471.156 569.752 472.896 569.771 474.755 569.618L474.754 569.617C480.456 569.171 486.147 568.687 491.829 568.282H491.831C493.647 568.145 495.412 567.975 497.12 568.184L497.122 568.185C499.188 568.43 500.437 568.9 501.305 569.736C502.072 570.476 502.597 571.555 503.062 573.199L503.258 573.939C504.349 578.33 504.534 582.849 503.764 587.178C502.688 593.224 502.783 599.257 502.716 605.245C502.655 610.211 502.663 615.184 502.688 620.151L502.716 625.116C502.716 627.206 502.688 629.388 503.062 631.492V631.494C503.673 634.878 505.779 637.402 509.281 638.053C515.877 639.283 522.575 640.277 529.404 639.004L530.065 638.875C531.958 638.48 533.879 638.208 535.818 637.931C537.752 637.655 539.703 637.373 541.627 636.957C544.83 636.263 546.887 635.538 548.121 634.09C549.36 632.637 549.684 630.559 549.771 627.462V627.46C549.839 624.745 549.717 622.007 549.663 619.31V619.309C549.529 613.012 549.798 606.814 550.645 600.525C551.528 593.976 550.988 587.196 551.041 580.641V580.64C551.048 579.574 550.996 578.504 550.961 577.462C550.926 576.414 550.906 575.383 550.972 574.363C551.074 572.831 551.532 571.725 552.279 570.974C553.027 570.223 554.128 569.768 555.64 569.659C557.128 569.551 558.625 569.498 560.132 569.444C561.636 569.39 563.15 569.336 564.659 569.227L564.661 569.226C566.025 569.124 567.381 568.957 568.721 568.795C569.729 568.674 570.729 568.556 571.729 568.467L572.729 568.39Z" fill="white" stroke="white"/>
<path d="M616.042 737.569C616.015 727.943 616.042 718.319 616.042 708.69V680.762C616.043 680.753 616.045 680.746 616.046 680.741C616.05 680.706 616.052 680.665 616.055 680.624C616.06 680.538 616.064 680.416 616.068 680.263C616.077 679.955 616.085 679.502 616.093 678.922C616.108 677.762 616.122 676.081 616.132 674.003C616.152 669.847 616.159 664.093 616.148 657.7C616.126 644.915 616.028 629.569 615.799 619.335V619.334C615.61 611.255 615.624 603.21 616.136 595.156V595.155C616.432 590.422 616.138 585.616 616.023 580.894L615.988 578.876C615.975 577.382 615.988 575.89 616.121 574.417V574.413C616.257 572.76 616.726 571.435 617.526 570.462C618.271 569.556 619.336 568.917 620.786 568.615L621.081 568.559C624.021 568.06 627.091 567.684 629.874 568.18C636.448 569.359 643.026 570.01 649.702 569.983V569.984C650.508 569.984 651.37 570.17 652.19 570.444L652.194 570.445C653.216 570.777 654.052 571.265 654.658 571.919C655.259 572.569 655.656 573.405 655.767 574.477C655.98 576.546 656.021 578.631 656.075 580.744V580.745C656.338 590.363 657.42 599.797 656.388 609.367L656.281 610.293C655.671 615.268 656.265 620.345 656.755 625.333L656.954 627.464C657.626 635.179 657.438 643.036 656.886 650.798C656.167 660.96 655.352 671.135 657.095 681.355L657.271 682.344C657.752 684.922 657.939 687.774 657.255 690.162V690.165C655.019 698.104 655.641 706.032 656.354 713.872L656.657 717.226C656.832 719.301 656.834 721.288 656.742 723.362L656.696 724.256C656.25 732.069 656.291 739.929 656.089 747.711C656.034 749.841 656.086 751.914 655.655 753.863C655.578 754.197 655.281 754.667 654.86 755.078C654.485 755.445 654.106 755.673 653.841 755.741L653.734 755.759C650.762 756.016 647.747 756.211 644.92 755.685L644.917 755.684C638.844 754.581 632.876 754.456 626.818 755.782C625.146 756.145 623.363 756.082 621.545 756.054H621.543C619.802 756.035 618.547 755.626 617.701 754.851C616.911 754.127 616.406 753.017 616.256 751.399L616.23 751.069C615.962 746.593 616.042 742.093 616.042 737.571V737.569Z" fill="white" stroke="white"/>
<path d="M686.982 568.701H725.75C725.777 568.705 725.805 568.708 725.827 568.71C725.881 568.714 725.956 568.719 726.045 568.723C726.225 568.731 726.486 568.74 726.819 568.749C727.487 568.767 728.452 568.786 729.645 568.807C732.031 568.847 735.334 568.891 739.003 568.928C745.423 568.993 752.968 569.039 758.688 569.022L761.018 569.012C767.374 568.972 773.418 570.212 779.182 572.854V572.854C783.564 574.87 787.935 576.82 792.173 579.053V579.054C798.398 582.346 802.906 587.417 805.972 593.694V593.695C808.329 598.545 810.511 603.487 812.436 608.521C813.242 610.629 813.497 613.072 813.551 615.429V615.432C813.739 622.345 813.066 629.119 810.546 635.611C809.455 638.413 808.339 641.23 807.481 644.13C805.186 651.879 800.249 657.587 793.778 662.173H793.777C790.851 664.254 787.778 666.093 784.69 668.002H784.689C781.593 669.924 779.65 671.766 779.026 674.034C778.401 676.31 779.144 678.856 780.981 682.068C783.356 686.233 785.975 690.35 788.984 694.1L789.591 694.845C794.988 701.373 799.664 708.145 802.77 716.056V716.057C804.004 719.188 806.177 722.101 808.474 724.595L808.935 725.088C815.982 732.507 820.282 741.613 825.417 750.377L825.391 750.431L825.528 750.665C826.296 751.969 825.356 753.686 823.703 753.87C823.049 753.943 822.523 754.042 821.974 754.029C812.37 753.807 802.712 753.532 793.084 754.959L792.152 755.103C789.737 755.486 787.663 755.135 785.912 754.179C784.156 753.219 782.685 751.629 781.518 749.471C780.509 747.604 779.47 745.806 778.573 743.918L778.571 743.915C776.2 738.996 773.499 734.284 769.639 730.245C768.227 728.768 767 727.038 766.077 725.231L766.076 725.23C763.708 720.63 760.758 716.444 757.775 712.287L757.774 712.286C755.73 709.445 754.266 706.121 752.76 702.838H752.761C749.335 695.333 744.62 688.681 739.8 682.132C738.533 680.411 737.034 678.83 735.415 677.444L735.414 677.443L735.192 677.261C730.507 673.533 723.835 676.017 722.757 681.92C722.65 682.495 722.531 683.169 722.561 683.828C722.788 690.555 722.171 697.255 721.608 703.998C721.047 710.732 720.54 717.505 721.009 724.319V724.32C721.263 727.885 721.373 731.48 722.014 735.105L722.015 735.106C722.732 739.119 722.627 743.414 722.145 747.518C721.93 749.34 721.313 750.906 720.261 752.047C719.215 753.18 717.703 753.936 715.613 754.084C714.395 754.167 713.134 754.433 711.969 754.618C710.778 754.807 709.656 754.92 708.598 754.751H708.597C701.645 753.649 694.696 753.881 687.786 753.976H687.785C686.895 753.989 686.012 753.962 685.146 753.87H685.143C683.961 753.752 682.873 752.741 682.687 751.6L682.662 751.37C682.568 749.267 682.501 747.184 682.621 745.106V745.104C683.325 731.846 682.987 718.67 681.675 705.414C680.559 694.131 681.297 682.697 681.218 671.228C682.691 664.027 682.831 656.8 682.699 649.601C682.575 642.819 682.213 636.085 682.479 629.359L682.54 628.015C682.637 626.191 682.499 624.28 682.082 622.5V622.499L681.953 621.898C681.38 618.903 681.812 615.986 682.094 612.844C682.853 604.436 683.237 595.986 681.8 587.485L681.655 586.663C680.871 582.356 681.095 577.798 681.339 573.307C681.434 571.62 681.991 570.501 682.894 569.79C683.812 569.066 685.168 568.701 686.982 568.701ZM749.84 603.956C747.137 603.71 744.362 603.887 741.72 603.887C739.026 603.887 736.33 603.86 733.625 603.9C732.924 603.911 732.221 603.993 731.537 604.108L730.86 604.234C727.959 604.819 725.678 606.052 724.05 607.923C722.423 609.791 721.483 612.254 721.186 615.233C720.752 619.598 721.753 623.759 722.682 627.81L723.071 629.539C723.724 632.556 726.044 634.653 728.884 635.424V635.425C736.586 637.505 744.436 638.284 752.309 636.112L753.07 635.894C755.712 635.099 757.813 633.738 759.325 631.888C760.837 630.038 761.739 627.725 762.024 625.059C762.429 621.343 762.308 617.563 762.062 613.852H762.076L762.04 613.318C761.782 609.524 759.504 606.806 756.055 605.435L756.054 605.434L755.31 605.156C753.557 604.538 751.689 604.125 749.84 603.956Z" fill="white" stroke="white"/>
<path d="M912.126 568.966C923.221 567.433 934.265 568.161 945.437 568.12C949.531 568.107 953.669 569.064 957.811 569.906H957.812C960.095 570.365 961.705 571.926 962.271 574.362C964.108 582.276 964.632 590.314 964.108 598.427V598.429C964.056 599.285 963.901 600.156 963.58 600.909L963.578 600.914C962.889 602.579 961.889 603.827 960.146 604.038H960.145C958.079 604.293 955.995 604.372 953.875 604.536H953.874C949.943 604.849 946.092 605.318 942.205 605.439H942.203C938.315 605.574 934.405 605.654 930.582 605.239H930.581C923.621 604.493 916.735 604.465 909.765 605.389C903.851 606.168 897.846 606.072 891.781 606.357H891.779C889.138 606.489 886.32 606.398 883.629 606.808C881.861 607.072 880.397 607.798 879.345 608.936C878.292 610.073 877.682 611.588 877.561 613.371V613.372C877.167 619.203 877.085 625.099 878.802 630.887L878.974 631.447C879.893 634.329 881.67 636.311 884.604 637.05L884.893 637.117C887.197 637.62 889.653 638.317 892.071 638.331C896.575 638.358 901.192 638.372 905.68 637.677C914.339 636.334 923.015 636.549 931.753 636.616H931.754C936.171 636.643 940.617 637.523 945.065 638.296C946.529 638.551 947.53 639.111 948.202 639.942C948.882 640.783 949.275 641.958 949.405 643.529V643.533C949.419 643.683 949.432 643.83 949.441 643.974L949.458 644.393C949.431 651.916 949.444 659.444 949.336 666.974C949.31 668.66 948.838 669.958 948.019 670.874C947.2 671.789 945.988 672.375 944.382 672.547H944.381C943.357 672.659 942.322 672.696 941.27 672.72C940.224 672.743 939.152 672.753 938.088 672.814C934.828 673.001 931.414 672.964 928.13 673.468H928.129C917.085 675.187 906.075 675.055 895.002 673.615H895.003C891.704 673.175 888.254 673.342 884.976 673.764H884.974C882.863 674.046 881.065 674.891 879.776 676.222C878.485 677.555 877.732 679.348 877.668 681.467C877.355 691.318 876.527 701.311 878.604 711.218L878.814 712.177C879.169 713.713 879.726 715.051 880.624 716.074C881.531 717.108 882.757 717.787 884.378 718.054H884.379C888.494 718.724 892.706 719.598 896.924 719.693C901.91 719.808 909.382 719.744 915.603 719.633C918.713 719.577 921.514 719.51 923.538 719.447C924.55 719.416 925.37 719.385 925.938 719.357C926.221 719.344 926.446 719.332 926.602 719.319C926.678 719.313 926.747 719.306 926.8 719.299C926.812 719.297 926.828 719.293 926.846 719.29C937.653 719.452 948.446 719.613 959.252 719.802H959.253C959.742 719.809 960.177 719.791 960.62 719.822C961.024 719.85 961.353 719.918 961.607 720.047L961.616 720.056L961.675 720.089C962.538 720.575 963.282 721.418 963.982 722.308V722.309C964.068 722.419 964.138 722.607 964.181 722.883C964.201 723.017 964.213 723.159 964.22 723.304L964.229 723.744C964.202 732.188 964.242 740.617 964.04 749.035V749.036C963.994 751.153 963.462 752.638 962.487 753.675C961.568 754.653 960.196 755.296 958.278 755.644L957.888 755.709C957.031 755.839 956.141 755.879 955.264 755.879H955.261C944.418 755.946 933.577 756.012 922.723 756.039C920.465 756.039 918.209 756.017 915.951 755.993C913.693 755.97 911.433 755.946 909.168 755.946C903.105 755.946 897.168 756.427 891.306 754.962H891.307C889.796 754.577 888.162 754.61 886.665 754.678C883.505 754.82 880.316 755.139 877.18 755.365C874.227 755.578 871.299 755.711 868.398 755.551L867.818 755.516C861.728 755.099 855.585 754.407 849.42 755.046L848.823 755.112C846.409 755.388 844.174 755.165 841.938 754.419H841.937C839.756 753.696 838.502 752.141 837.79 750.025L837.655 749.595C837.594 749.379 837.581 749.119 837.566 748.809V748.805C837.309 743.846 836.6 738.893 836.088 733.989C835.574 729.069 835.254 724.168 835.755 719.231C836.18 715.11 836.985 710.87 837.107 706.666C837.459 695.536 837.675 684.378 837.688 673.233C837.695 667.355 837.601 661.477 837.505 655.604C837.409 649.73 837.311 643.861 837.311 637.992C837.311 632.732 837.415 627.465 837.513 622.191C837.611 616.919 837.702 611.641 837.675 606.368C837.634 596.13 837.188 585.874 836.973 575.656L836.968 575.103C836.978 572.393 837.529 570.54 838.596 569.432C839.712 568.271 841.52 567.801 844.295 568.222V568.223C850.334 569.16 856.379 569.355 862.406 569.36C867.693 569.365 872.942 569.223 878.196 569.301L880.448 569.349C884.65 569.47 888.88 569.66 893.12 569.605C899.399 569.525 905.86 569.822 912.125 568.966H912.126Z" fill="white" stroke="white"/>
<path d="M287.298 452.81C289.588 452.54 289.718 452.63 290.218 454.91C290.588 456.56 290.948 458.2 291.308 459.85C291.398 460.26 291.508 460.67 291.578 461.08C291.738 461.99 291.428 462.62 290.548 462.86C289.118 463.25 287.668 463.58 286.228 463.91C284.868 464.22 283.488 464.45 282.138 464.8C281.078 465.07 280.488 465.85 280.578 466.87C280.678 467.96 280.838 469.05 281.108 470.11C282.468 475.34 283.318 480.67 284.788 485.87C285.588 489.4 286.408 492.94 287.188 496.48C287.678 498.7 288.108 500.94 288.568 503.17C288.638 503.5 288.718 503.83 288.728 504.17C288.778 506.27 288.578 506.47 286.558 506.86C286.228 506.92 285.878 506.97 285.538 506.97C284.138 506.95 282.848 507.34 281.578 507.88C280.798 508.21 279.948 508.4 279.118 508.57C278.288 508.74 277.588 508.33 277.298 507.54C277.068 506.91 276.898 506.25 276.748 505.6C276.208 503.21 275.728 500.82 275.168 498.44C274.088 493.85 272.958 489.26 271.868 484.67C271.598 483.53 271.468 482.36 271.368 481.18C271.228 479.6 270.918 477.99 270.358 476.5C269.788 474.99 269.418 473.45 268.998 471.91C268.908 471.58 268.808 471.26 268.738 470.93C268.308 468.93 267.048 468.2 264.898 468.48C263.688 468.63 262.508 468.97 261.308 469.23C260.198 469.47 259.098 469.77 257.978 469.96C256.458 470.23 255.948 469.9 255.578 468.39C255.078 466.34 254.618 464.28 254.188 462.22C253.958 461.16 254.308 460.61 255.428 460.36C257.738 459.84 259.958 458.99 262.328 458.65C263.698 458.45 265.028 457.91 266.338 457.42C267.258 457.08 268.168 456.83 269.138 456.76C271.248 456.6 273.308 456.14 275.278 455.35C276.108 455.02 276.938 454.83 277.828 454.78C279.498 454.69 281.148 454.37 282.688 453.7C283.678 453.27 284.668 453.02 285.738 453.01C286.258 453.01 286.778 452.89 287.298 452.82V452.81Z" fill="white"/>
<path d="M342.941 487.7C343.481 489.46 343.791 491.3 344.161 493.12C344.281 493.72 343.861 494.27 343.221 494.44C342.731 494.58 342.231 494.67 341.721 494.76C339.371 495.17 337.001 495.52 334.771 496.45C334.461 496.58 334.111 496.61 333.771 496.65C333.211 496.71 332.781 496.48 332.481 496.02C331.781 494.92 331.441 493.69 331.421 492.42C331.381 489.7 330.841 487.06 330.191 484.44C329.561 481.91 328.821 479.41 328.141 476.89C327.891 475.96 327.291 475.48 326.331 475.36C323.551 475.01 320.821 475.37 318.151 476.16C316.861 476.54 316.241 477.54 316.171 478.86C316.021 481.77 316.481 484.56 317.601 487.25C317.921 488.02 318.181 488.83 318.351 489.65C318.811 491.8 319.211 493.95 319.611 496.1C319.721 496.68 319.791 497.26 319.791 497.85C319.791 499.32 319.521 499.64 318.141 499.95C317.061 500.19 315.971 500.41 314.881 500.64C314.881 500.61 314.871 500.58 314.861 500.55C313.521 500.83 312.201 501.17 310.851 501.39C309.441 501.62 308.841 501.23 308.271 499.9C308.201 499.75 308.151 499.59 308.101 499.42C307.411 496.99 306.691 494.57 306.041 492.14C305.711 490.92 305.601 489.67 305.491 488.4C305.181 484.95 304.381 481.58 303.231 478.31C302.721 476.87 302.391 475.42 302.311 473.89C302.171 471.27 301.581 468.72 300.851 466.21C300.351 464.51 300.001 462.78 299.721 461.03C299.401 459.03 298.931 457.06 298.571 455.07C298.411 454.16 298.361 453.24 298.231 452.32C298.091 451.29 298.701 450.74 299.571 450.39C300.051 450.19 300.581 450.08 301.081 449.93C302.681 449.46 304.271 448.98 305.871 448.53C306.371 448.38 306.881 448.23 307.401 448.18C308.631 448.07 309.091 448.38 309.621 449.47C310.191 450.63 310.511 451.87 310.541 453.12C310.581 454.83 310.951 456.46 311.281 458.11C311.641 459.93 312.031 461.74 312.421 463.55C312.541 464.13 312.661 464.71 312.881 465.26C313.231 466.11 313.921 466.63 314.881 466.6C316.881 466.55 318.861 466.42 320.741 465.62C321.771 465.18 322.871 464.87 323.901 464.43C325.641 463.68 325.881 463.23 325.591 461.51C325.461 460.77 325.271 460.03 325.111 459.29C324.721 457.57 324.451 455.84 324.341 454.06C324.231 452.22 323.701 450.41 323.351 448.6C323.241 448.02 323.061 447.46 322.981 446.87C322.861 445.97 323.261 445.4 324.161 445.15C325.001 444.92 325.861 444.75 326.711 444.51C327.471 444.3 328.211 444.02 328.971 443.82C329.981 443.55 331.001 443.27 332.031 443.1C333.471 442.87 334.121 443.3 334.581 444.65C334.711 445.04 334.831 445.47 334.811 445.88C334.741 447.51 335.141 449.06 335.441 450.63C335.901 453.03 336.211 455.48 336.941 457.8C337.821 460.63 338.331 463.53 338.911 466.41C339.111 467.4 339.141 468.41 339.261 469.41C339.361 470.25 339.451 471.09 339.621 471.91C340.201 474.71 340.531 477.57 341.591 480.26C341.771 480.72 341.801 481.25 341.801 481.75C341.841 483.79 342.331 485.73 342.921 487.68L342.941 487.7Z" fill="white"/>
<path d="M389.351 475.88C389.641 475.98 389.911 476.19 390.151 476.41C390.261 476.51 390.3 476.71 390.33 476.87C390.72 479.2 391.131 481.53 391.471 483.86C391.651 485.08 391.161 485.76 389.971 486.15C389.731 486.23 389.481 486.28 389.221 486.33C386.201 486.87 383.181 487.41 380.161 487.95C378.901 488.18 377.641 488.37 376.381 488.59C374.711 488.89 373.051 489.33 371.321 489.22C370.911 489.19 370.47 489.28 370.05 489.37C368.31 489.77 366.59 490.36 364.83 490.57C363.05 490.78 361.27 490.91 359.55 491.44C358.87 491.65 358.221 491.71 357.541 491.62C356.791 491.52 356.32 491.08 355.99 490.44C355.95 490.36 355.931 490.28 355.911 490.2C355.251 487.51 354.1 484.94 353.86 482.14C353.76 480.97 353.771 479.78 353.591 478.62C353.111 475.54 352.591 472.46 352.011 469.4C351.401 466.17 350.681 462.96 350.071 459.73C349.521 456.83 349.09 453.91 348.52 451.01C347.97 448.2 347.321 445.41 346.721 442.6C346.361 440.93 346.891 440.06 348.561 439.99C352.091 439.85 355.481 438.92 358.941 438.38C360.151 438.19 361.371 438.03 362.571 437.79C364.371 437.44 366.221 437.19 367.961 436.64C371.071 435.65 374.291 435.29 377.481 434.73C378.671 434.52 379.921 434.58 381.141 434.61C381.881 434.63 382.461 435.01 382.751 435.71C383.651 437.82 384.191 440.02 384.421 442.3C384.451 442.55 384.441 442.81 384.381 443.06C384.261 443.57 384.011 444.03 383.451 444.19C382.871 444.37 382.271 444.49 381.681 444.64C380.581 444.92 379.501 445.24 378.391 445.47C377.291 445.7 376.17 445.92 375.05 445.99C373.04 446.13 371.091 446.47 369.161 447.07C367.501 447.59 365.78 447.87 364.08 448.26C363.32 448.43 362.53 448.55 361.8 448.8C360.87 449.11 360.401 449.83 360.501 450.78C360.691 452.46 360.97 454.11 361.8 455.63C362.2 456.36 362.791 456.79 363.641 456.81C364.331 456.83 365.041 456.89 365.711 456.78C366.991 456.56 368.291 456.33 369.511 455.91C371.911 455.09 374.401 454.72 376.871 454.3C378.141 454.09 379.451 454.11 380.751 454.1C381.661 454.1 382.141 454.55 382.371 455.44C382.391 455.52 382.411 455.6 382.431 455.69C382.781 457.77 383.141 459.84 383.471 461.93C383.621 462.91 383.181 463.6 382.231 463.87C381.651 464.04 381.05 464.12 380.46 464.25C379.53 464.46 378.591 464.62 377.691 464.92C374.641 465.95 371.521 466.47 368.311 466.63C367.371 466.68 366.421 466.89 365.531 467.18C364.411 467.53 363.791 468.41 363.961 469.52C364.381 472.35 364.661 475.21 365.821 477.88C366.161 478.67 366.671 479.15 367.541 479.13C368.731 479.11 369.951 479.13 371.121 478.95C373.921 478.51 379.47 477.39 379.46 477.35C382.5 476.86 385.541 476.38 388.591 475.91C388.841 475.87 389.131 475.8 389.351 475.88Z" fill="white"/>
<path d="M476.661 470.11C476.781 470.6 476.811 471.11 476.821 471.62C476.841 472.22 476.451 472.78 475.841 472.95C474.121 473.43 472.391 473.88 471.031 474.24C469.891 474.31 469.121 474.38 468.361 474.41C467.131 474.47 466.151 474.02 465.731 472.83C464.491 469.27 462.691 465.89 461.971 462.13C461.841 461.47 461.651 460.81 461.391 460.2C460.601 458.34 459.761 456.5 458.931 454.66C458.831 454.43 458.731 454.17 458.551 454.01C458.311 453.79 458.011 453.54 457.711 453.51C457.221 453.47 456.921 453.88 456.831 454.3C456.411 456.28 455.801 458.24 455.841 460.27C455.881 462.05 455.681 463.79 455.501 465.55C455.261 467.89 455.081 470.24 454.871 472.59C454.801 473.43 454.731 474.27 454.571 475.1C454.441 475.82 453.961 476.34 453.211 476.43C450.431 476.76 447.671 477.36 444.831 477.2C444.001 477.15 443.331 476.86 442.911 476.15C442.531 475.5 442.111 474.85 441.871 474.14C441.081 471.83 440.271 469.53 439.641 467.18C438.781 463.9 437.071 460.96 435.821 457.84C435.611 457.31 435.221 456.83 434.831 456.4C434.441 455.96 433.571 456.19 433.331 456.77C433.201 457.08 433.061 457.41 433.061 457.73C433.051 458.99 433.101 460.25 433.111 461.51C433.111 462.6 433.171 463.7 433.051 464.78C432.741 467.8 432.821 470.83 432.721 473.85C432.681 475.19 432.501 476.53 432.341 477.86C432.261 478.5 431.851 478.95 431.201 479.08C428.451 479.61 425.751 480.39 422.911 480.36C422.661 480.36 422.361 480.4 422.161 480.29C421.891 480.14 421.511 479.9 421.471 479.65C421.321 478.74 421.221 477.81 421.231 476.89C421.251 475.21 421.381 473.53 421.441 471.85C421.461 471.18 421.511 470.5 421.401 469.84C421.031 467.56 421.161 465.3 421.581 463.05C421.901 461.38 422.051 459.71 421.771 458.03C421.541 456.68 421.791 455.34 421.921 454C422.041 452.74 422.251 451.49 422.371 450.23C422.441 449.56 422.491 448.88 422.421 448.22C422.141 445.36 422.191 442.52 422.511 439.66C422.911 436.23 423.021 432.78 423.251 429.33C423.331 428.11 423.651 427.66 424.911 427.42C426.541 427.1 428.191 426.83 429.831 426.61C431.131 426.43 432.441 426.34 433.741 426.22C434.171 426.18 434.611 426.11 435.041 426.09C436.511 426.03 437.551 426.64 438.121 427.96C438.221 428.19 438.311 428.43 438.371 428.68C439.141 431.43 440.421 434.01 441.151 436.79C441.661 438.74 442.321 440.65 442.931 442.57C443.001 442.81 443.131 443.04 443.271 443.24C443.541 443.61 443.951 443.83 444.391 443.7C444.681 443.61 445.071 443.35 445.151 443.1C445.431 442.13 445.681 441.14 445.801 440.15C445.931 439.06 445.981 437.96 445.921 436.87C445.841 435.26 446.071 433.68 446.361 432.1C446.681 430.36 447.121 428.63 446.861 426.83C446.811 426.51 446.941 426.16 446.961 425.83C447.011 424.95 447.531 424.42 448.361 424.2C449.881 423.8 451.411 423.44 452.941 423.08C453.281 423 453.631 422.95 453.981 422.93C455.721 422.82 457.471 422.73 459.211 422.65C460.251 422.6 460.631 422.88 460.951 423.8C462.191 427.38 463.421 430.96 464.671 434.54C465.231 436.13 465.881 437.69 466.431 439.27C466.651 439.9 466.801 440.57 466.881 441.23C467.121 443.19 467.821 444.98 468.771 446.69C469.431 447.88 469.871 449.14 470.151 450.47C470.371 451.54 470.631 452.61 471.021 453.63C472.131 456.54 472.921 459.55 474.221 462.4C475.031 464.16 475.571 466.02 476.001 467.92C476.171 468.66 476.471 469.36 476.651 470.09L476.661 470.11Z" fill="white"/>
<path d="M517.3 436.84C517.48 437.3 517.461 437.84 517.511 438.34C517.881 441.95 518.24 445.55 518.6 449.16C518.7 450.15 518.681 456.96 518.571 457.71C518.161 460.47 517.041 462.89 514.891 464.74C513.291 466.12 511.631 467.45 509.921 468.71C509.261 469.2 508.431 469.6 507.631 469.76C503.441 470.59 499.211 470.8 494.951 470.29C493.721 470.14 492.65 469.77 491.68 469.01C490.48 468.07 489.27 467.15 488.05 466.24C485.92 464.65 484.68 462.46 483.9 460.02C483.34 458.27 482.951 456.47 482.631 454.64C481.921 450.56 481.821 446.43 481.071 442.36C480.901 441.45 480.841 440.52 480.731 439.6C480.761 439.6 479.79 431.05 479.28 426.79C479.09 425.2 478.85 423.62 478.72 422.02C478.62 420.81 479.07 420.32 480.3 420.08C482.44 419.67 484.58 419.26 486.74 418.91C487.59 418.77 488.48 418.73 489.34 418.8C490.25 418.87 490.96 419.69 490.84 420.57C490.58 422.44 490.961 424.27 491.161 426.1C491.361 427.94 491.42 429.82 491.8 431.62C492.36 434.26 492.531 436.93 492.701 439.61C492.841 441.71 493.101 443.81 493.411 445.89C493.841 448.72 494.41 451.52 494.83 454.35C495.13 456.41 496.44 457.81 498.53 458.44C501.4 459.31 503.731 458.58 505.541 456.2C507.401 453.75 507.681 451 506.671 448.27C505.551 445.25 505.621 442.14 505.541 439.05C505.491 437.11 505.541 435.19 504.851 433.33C504.711 432.94 504.66 432.51 504.62 432.09C504.41 430.25 504.21 428.41 504.03 426.56C503.98 426.06 503.931 425.54 504.011 425.05C504.211 423.86 504.121 422.71 503.661 421.58C503.511 421.19 503.411 420.77 503.381 420.36C503.221 418.78 503.95 417.75 505.53 417.35C506.97 416.99 508.4 416.57 509.87 416.41C511.24 416.26 512.65 416.38 514.04 416.45C514.68 416.48 515.301 417.11 515.381 417.81C515.491 418.81 515.59 419.82 515.55 420.83C515.44 423.29 515.75 425.71 516.16 428.12C516.26 428.7 516.34 429.26 516.36 429.85C516.45 432.2 516.411 434.57 517.281 436.83L517.3 436.84Z" fill="white"/>
<path d="M562.691 449.88C562.991 451.04 562.851 452.2 562.411 453.35C561.401 455.96 560.161 458.45 558.691 460.83C557.831 462.23 556.671 463.3 555.111 463.95C554.021 464.41 552.981 465 551.881 465.44C551.181 465.72 550.421 466.02 549.681 466.03C546.281 466.03 542.891 465.89 539.591 464.95C537.861 464.46 536.301 463.68 535.021 462.33C534.151 461.42 533.031 460.76 532.081 459.91C531.401 459.29 530.771 458.6 530.221 457.86C529.791 457.29 530.021 456.49 530.601 456.07C532.951 454.39 535.331 452.74 537.691 451.05C538.511 450.46 539.271 450.47 540.031 451.05C540.841 451.66 541.671 452.28 542.411 452.97C544.001 454.45 545.851 454.7 547.891 454.28C547.981 454.26 548.061 454.25 548.141 454.23C550.221 453.68 551.011 451.46 549.551 449.88C548.641 448.9 547.491 448.11 546.361 447.37C545.591 446.87 544.661 446.58 543.801 446.21C539.061 444.18 534.631 441.66 530.611 438.43C527.561 435.98 526.141 432.74 525.911 428.98C525.781 426.95 526.091 424.95 527.101 423.1C527.961 421.54 528.731 419.92 529.621 418.38C530.411 417.03 531.571 415.97 533.021 415.31C533.881 414.92 534.821 414.67 535.741 414.44C537.591 413.97 539.461 413.55 540.861 413.22C543.191 413.05 545.021 413.28 546.751 413.85C548.891 414.56 550.971 415.41 553.081 416.2C554.331 416.67 555.351 417.48 556.221 418.41C557.321 419.59 558.311 420.87 559.281 422.16C559.701 422.71 559.581 423.32 559.021 423.73C558.341 424.24 557.641 424.8 556.861 425.12C555.171 425.84 553.641 426.77 552.241 427.92C551.911 428.19 551.551 428.43 551.181 428.65C550.431 429.11 549.951 429.05 549.361 428.41C548.901 427.91 548.481 427.36 547.991 426.9C546.501 425.49 544.711 424.75 542.611 424.73C541.721 424.73 540.881 424.91 540.101 425.3C539.271 425.71 538.751 426.4 538.611 427.27C538.401 428.57 538.641 429.79 539.621 430.78C540.591 431.76 541.711 432.53 543.021 433.02C544.391 433.53 545.751 434.05 547.101 434.6C548.371 435.12 549.631 435.66 550.881 436.22C552.451 436.92 553.891 437.82 555.201 438.95C556.361 439.95 557.631 440.81 558.811 441.79C559.321 442.22 559.791 442.74 560.131 443.3C561.361 445.34 562.071 447.6 562.661 449.88H562.691Z" fill="white"/>
<path d="M584.12 442.34C584.31 443.06 584.42 443.88 584.26 444.59C583.71 447.14 584.21 449.63 584.6 452.11C584.7 452.78 584.74 453.42 584.74 454.09C584.76 456.28 584.92 458.47 585.01 460.65C585.03 461.24 585.09 461.83 585.01 462.4C584.97 462.66 584.63 463.04 584.39 463.08C583.56 463.21 582.69 463.32 581.87 463.23C580.15 463.04 578.49 463.12 576.83 463.61C576.35 463.75 575.83 463.77 575.32 463.8C574.3 463.86 573.72 463.44 573.57 462.4C573.4 461.15 573.34 459.88 573.24 458.63C573.04 455.94 572.85 453.25 572.65 450.56C572.46 447.96 572.27 445.35 572.08 442.75C572.12 442.75 571.31 431.32 570.76 425.62C570.54 423.36 570.38 421.12 570.36 418.85C570.35 417.34 570.11 415.83 569.99 414.32C569.95 413.9 569.93 413.48 569.94 413.06C569.95 412.09 570.39 411.42 571.37 411.19C572.21 410.99 573.11 410.82 573.96 410.9C575.88 411.1 577.79 411.15 579.7 411.01C579.96 410.99 580.23 411.03 580.47 411.09C581.11 411.25 581.57 411.61 581.69 412.26C581.79 412.84 581.84 413.43 581.9 414.02C582.16 416.77 582.68 419.5 582.51 422.29C582.42 423.87 582.77 425.46 583.02 427.04C583.36 429.19 583.45 431.4 583.44 433.58C583.42 436.53 583.38 439.46 584.13 442.35L584.12 442.34Z" fill="white"/>
<path d="M632.999 418.33C633.229 418.77 633.019 419.17 632.679 419.46C632.359 419.73 631.979 419.95 631.599 420.16C629.479 421.31 627.349 422.44 625.229 423.58C624.929 423.74 624.629 423.93 624.299 424.02C623.609 424.22 622.929 424.2 622.349 423.69C621.519 422.96 620.649 422.25 619.849 421.48C617.669 419.42 615.179 419.56 612.609 420.56C611.049 421.16 609.809 422.23 608.599 423.33C607.939 423.93 607.569 424.68 607.289 425.49C606.899 426.61 606.539 427.73 606.149 428.85C605.379 431.03 605.029 433.26 605.339 435.52C605.319 438.85 606.419 441.84 607.949 444.7C608.729 446.16 609.779 447.33 611.309 448.06C612.309 448.53 613.289 449.05 614.319 449.47C616.639 450.42 618.819 450.18 620.809 448.62C621.209 448.31 621.589 447.95 621.989 447.65C622.809 447.04 623.469 446.99 624.339 447.57C624.829 447.89 625.299 448.27 625.699 448.7C626.639 449.69 627.679 450.54 628.859 451.24C629.509 451.63 630.109 452.13 630.659 452.64C631.169 453.11 631.209 453.96 630.749 454.49C629.309 456.15 627.929 457.86 625.779 458.74C624.059 459.44 622.449 460.39 620.639 460.94C618.969 461.44 617.299 461.58 615.599 461.44C613.829 461.29 612.069 460.99 610.309 460.71C609.299 460.55 608.339 460.24 607.529 459.54C605.089 457.45 602.629 455.37 600.149 453.31C598.469 451.91 597.329 450.16 596.649 448.13C595.739 445.42 594.849 442.7 594.039 439.95C593.059 436.65 593.009 433.32 593.869 429.98C594.159 428.84 594.489 427.68 594.559 426.52C594.629 425.21 594.989 424.05 595.599 422.91C595.839 422.46 596.119 422.01 596.249 421.53C596.859 419.12 598.519 417.38 600.269 415.72C602.319 413.76 604.539 412 606.839 410.32C608.069 409.42 609.389 408.92 610.919 408.78C612.649 408.62 614.389 408.42 616.109 408.14C617.109 407.98 618.029 408.23 618.939 408.46C620.449 408.84 621.949 409.31 623.419 409.81C624.069 410.03 624.699 410.35 625.269 410.72C626.569 411.56 627.869 412.41 629.089 413.36C630.809 414.7 632.019 416.45 632.989 418.34L632.999 418.33Z" fill="white"/>
<path d="M654.4 438.95C654.56 439.67 654.64 440.5 654.46 441.2C653.82 443.73 654.23 446.23 654.52 448.73C654.6 449.4 654.61 450.04 654.59 450.72C654.53 452.91 654.61 455.1 654.62 457.29C654.62 457.87 654.66 458.48 654.55 459.04C654.5 459.3 654.15 459.67 653.9 459.7C653.06 459.8 652.2 459.88 651.38 459.76C649.68 459.51 648.01 459.53 646.34 459.95C645.85 460.07 645.33 460.07 644.82 460.08C643.8 460.11 643.23 459.66 643.13 458.61C643.01 457.36 642.99 456.09 642.94 454.83C642.84 452.14 642.75 449.44 642.65 446.75C642.55 444.14 642.46 441.53 642.37 438.92C642.41 438.92 642.02 427.47 641.68 421.75C641.55 419.49 641.47 417.23 641.53 414.97C641.57 413.46 641.39 411.94 641.32 410.43C641.3 410.01 641.29 409.59 641.32 409.17C641.37 408.2 641.83 407.55 642.81 407.35C643.66 407.18 644.56 407.04 645.4 407.16C647.31 407.42 649.21 407.55 651.13 407.47C651.38 407.47 651.65 407.51 651.9 407.58C652.53 407.76 652.98 408.14 653.07 408.79C653.15 409.37 653.18 409.96 653.21 410.55C653.37 413.31 653.79 416.05 653.52 418.84C653.37 420.42 653.67 422.02 653.86 423.61C654.12 425.77 654.13 427.98 654.04 430.16C653.92 433.11 653.76 436.04 654.41 438.95H654.4Z" fill="white"/>
<path d="M706.389 456.8C706.449 457.04 706.459 457.3 706.479 457.55C706.509 457.97 706.189 458.46 705.789 458.47C702.989 458.5 700.199 458.51 697.399 458.53C696.389 458.53 695.859 457.89 695.579 457.04C695.159 455.76 694.819 454.46 694.389 453.18C694.039 452.14 693.659 451.11 693.209 450.12C692.559 448.69 691.429 447.87 689.799 447.92C687.839 447.97 685.869 448.08 683.919 448.2C682.299 448.3 680.689 448.53 679.079 448.57C677.609 448.6 676.609 449.21 676.119 450.54C675.479 452.28 674.889 454.03 674.299 455.79C674.089 456.43 673.959 457.09 673.709 457.72C673.439 458.39 672.909 458.8 672.149 458.83C669.599 458.93 667.059 459.03 664.509 459.12C664.179 459.12 663.839 459.03 663.509 458.96C663.149 458.88 662.799 458.39 662.839 457.99C662.869 457.66 662.939 457.33 663.019 457.01C664.039 452.76 665.049 448.5 666.139 444.26C666.519 442.8 667.069 441.37 667.639 439.97C668.279 438.4 668.819 436.81 669.109 435.14C669.389 433.48 669.869 431.87 670.309 430.24C670.979 427.72 671.519 425.16 672.209 422.65C673.439 418.18 674.659 413.71 676.289 409.36C676.409 409.04 676.539 408.73 676.659 408.41C677.029 407.43 677.789 406.89 678.819 406.83C680.559 406.74 682.309 406.76 684.559 406.72C685.189 406.68 686.309 406.6 687.439 406.54C688.049 406.51 688.659 406.49 689.269 406.52C690.349 406.57 691.099 407.1 691.389 408.1C692.109 410.52 693.239 412.81 693.749 415.3C693.949 416.29 694.189 417.28 694.569 418.22C695.579 420.73 696.319 423.33 697.069 425.91C697.169 426.23 697.259 426.56 697.409 426.87C698.709 429.64 699.399 432.6 700.199 435.52C700.459 436.49 700.779 437.46 701.189 438.38C702.069 440.4 702.629 442.51 703.179 444.63C703.789 446.99 704.439 449.34 705.059 451.7C705.509 453.4 705.939 455.12 706.369 456.83L706.389 456.8ZM687.579 440.54C688.809 440.4 689.599 439.51 689.479 438.31C689.429 437.82 689.239 437.34 689.099 436.86C688.789 435.81 688.349 434.79 688.169 433.73C687.769 431.46 686.619 429.47 685.829 427.35C685.719 427.04 685.509 426.75 685.299 426.49C684.729 425.78 683.589 425.87 683.119 426.67C682.909 427.03 682.739 427.42 682.569 427.81C681.229 430.92 680.799 434.29 679.719 437.48C679.669 437.64 679.679 437.81 679.669 437.98C679.579 439.28 680.149 440.11 681.449 440.33C682.619 440.53 683.829 440.57 684.459 440.62C685.709 440.6 686.389 440.6 687.069 440.58C687.239 440.58 687.409 440.57 687.579 440.55V440.54Z" fill="white"/>
<path d="M751.11 443.31C750.92 447.19 751.02 451.06 750.94 454.94C750.92 455.61 750.88 456.29 750.76 456.95C750.53 458.19 749.92 458.67 748.66 458.68C748.15 458.68 747.64 458.64 747.13 458.63C745.77 458.61 744.42 458.52 743.08 458.92C742.53 459.08 741.9 459.03 741.31 459.02C740.11 459.01 739.2 458.44 738.54 457.48C738.35 457.2 738.16 456.91 738.03 456.6C737.02 454.19 735.72 451.9 734.99 449.38C734.52 447.75 733.88 446.21 733.03 444.73C732.49 443.78 732.16 442.72 731.74 441.71C731.02 440 730.31 438.28 729.58 436.57C729.45 436.26 729.29 435.96 729.11 435.67C728.79 435.16 728.42 434.69 727.74 434.65C727.2 434.62 726.74 435.14 726.48 436.06C725.91 438.12 725.8 440.19 726.18 442.3C726.37 443.37 726.38 444.47 726.41 445.57C726.46 447.25 726.41 448.93 726.69 450.61C727.01 452.55 726.58 454.48 726.24 456.38C726.04 457.47 725.29 458.14 724.13 458.27C722.86 458.42 721.6 458.7 720.34 458.67C718.74 458.64 717.14 458.4 715.55 458.14C715.24 458.09 714.93 457.6 714.78 457.25C714.62 456.88 714.62 456.42 714.63 456C714.67 453.82 714.98 451.63 714.38 449.46C714.32 449.23 714.41 448.96 714.45 448.71C715.07 444.94 715.09 441.18 714.45 437.4C714.32 436.67 714.33 435.88 714.45 435.14C714.99 431.79 714.81 428.43 714.55 425.07C714.35 422.48 714.11 419.87 714.63 417.27C714.82 416.29 714.77 415.26 714.78 414.25C714.79 412.82 714.75 411.38 714.75 409.95C714.75 409.53 714.75 409.1 714.79 408.69C714.94 407.33 715.48 406.65 716.88 406.5C719.31 406.24 721.75 406.18 724.19 406.54C725.49 406.73 726.4 407.41 727.05 408.52C728.08 410.28 729.22 411.98 730.21 413.75C730.83 414.86 731.32 416.04 731.73 417.23C732.28 418.84 732.91 420.41 733.9 421.8C734.85 423.15 735.24 424.72 735.83 426.21C736.17 427.08 736.45 427.96 737.12 428.66C737.54 429.11 738.06 429.3 738.48 429.13C738.92 428.95 739.15 428.6 739.19 428.16C739.25 427.49 739.29 426.81 739.3 426.14C739.35 423.19 739.37 420.24 739.43 417.28C739.46 415.51 739.43 413.76 739.78 411.99C740 410.85 739.84 409.64 739.87 408.46C739.87 408.04 739.87 407.62 739.95 407.21C740.03 406.75 740.38 406.45 740.84 406.42C741.53 406.37 742.24 406.39 742.93 406.42C745.11 406.5 747.28 406.64 749.46 406.36C749.93 406.3 750.51 406.46 750.94 406.68C751.28 406.86 751.55 407.26 751.72 407.63C751.86 407.92 751.82 408.29 751.82 408.63C751.76 411.49 751.69 414.36 751.61 417.22C751.58 418.48 751.48 419.75 751.46 421.01C751.4 424.72 751.36 428.42 751.31 432.13C751.28 432.13 751.31 439.55 751.12 443.25L751.11 443.31Z" fill="white"/>
<path d="M824.4 432.19C824.55 435.11 824.4 438.07 823.7 440.97C823.34 442.42 823.44 443.98 823.27 445.49C822.86 449.15 821.68 452.53 819.37 455.47C817.64 457.68 815.5 459.24 812.67 459.73C811.25 459.97 809.83 460.23 808.39 460.32C801.59 460.76 803.08 461.23 795.96 460.61C795.62 460.58 795.28 460.58 794.94 460.57C794.94 460.57 794.94 460.59 794.94 460.6C792.82 460.51 790.7 460.42 788.58 460.33C788.24 460.32 787.9 460.29 787.57 460.22C786.74 460.03 786.24 459.49 786.08 458.68C786 458.27 786.02 457.84 786.03 457.42C786.12 454.64 786.21 451.87 785.89 449.09C785.76 447.94 785.99 446.74 786.1 445.57C786.23 444.23 786.56 442.9 786.56 441.56C786.56 434.31 787.33 427.09 787.47 419.85C787.52 417.07 787.59 414.29 787.66 411.51C787.67 411.01 787.69 410.5 787.73 410C787.88 408.19 788.25 407.79 790.06 407.57C790.57 407.51 791.11 407.52 791.62 407.58C795.34 408.07 799.07 408.33 802.82 408.45C805.09 408.52 807.35 408.6 809.62 408.61C812.7 408.64 815.39 409.81 817.99 411.21C818.43 411.45 818.85 411.81 819.16 412.21C820.52 413.96 821.87 415.72 823.15 417.53C823.53 418.07 823.8 418.75 823.89 419.39C824.2 421.38 824.65 423.36 824.5 425.39C824.33 427.65 824.3 429.9 824.41 432.19H824.4ZM810.79 429.27C810.84 427.77 810.75 426.24 810.56 424.74C810.36 423.14 809.5 421.73 807.87 421.32C805.86 420.81 803.75 420.71 801.72 421.4C801.11 421.61 800.7 422.06 800.57 422.67C800.34 423.73 800.07 424.81 800 425.89C799.8 429.08 799.69 432.29 799.55 435.48C799.5 435.48 799.1 441.87 798.96 445.07C798.94 445.49 798.94 445.91 798.96 446.33C799.03 447.49 799.66 448.2 800.84 448.36C803 448.66 805.09 448.51 807.08 447.53C808.83 446.67 809.76 445.26 810.08 443.4C810.14 443.07 810.15 442.73 810.17 442.39C810.38 438.02 810.64 433.64 810.79 429.27Z" fill="white"/>
<path d="M847.03 442.78C847.12 443.52 847.12 444.34 846.87 445.03C845.98 447.48 846.13 450.01 846.18 452.53C846.19 453.2 846.14 453.84 846.05 454.51C845.77 456.68 845.63 458.87 845.42 461.05C845.36 461.63 845.34 462.23 845.17 462.79C845.09 463.05 844.71 463.38 844.46 463.38C843.62 463.39 842.75 463.39 841.94 463.19C840.27 462.77 838.6 462.62 836.9 462.88C836.4 462.95 835.88 462.9 835.38 462.86C834.36 462.78 833.84 462.28 833.84 461.23C833.84 459.97 833.95 458.7 834.03 457.45C834.2 454.76 834.37 452.07 834.54 449.38C834.71 446.77 834.87 444.17 835.04 441.56C835.08 441.56 835.83 430.13 836.06 424.41C836.15 422.15 836.3 419.9 836.59 417.65C836.78 416.15 836.75 414.62 836.83 413.11C836.85 412.69 836.89 412.27 836.95 411.85C837.09 410.89 837.62 410.29 838.62 410.19C839.48 410.1 840.4 410.05 841.22 410.25C843.09 410.7 844.97 411.01 846.89 411.13C847.15 411.15 847.41 411.22 847.65 411.32C848.26 411.56 848.67 411.98 848.69 412.64C848.71 413.23 848.69 413.82 848.66 414.41C848.54 417.17 848.69 419.94 848.14 422.69C847.83 424.24 847.97 425.87 848 427.47C848.04 429.65 847.83 431.84 847.52 434.01C847.1 436.93 846.66 439.83 847.02 442.79L847.03 442.78Z" fill="white"/>
<path d="M898.209 466.22C898.439 466.71 898.029 467.25 897.479 467.26C897.309 467.26 897.139 467.28 896.969 467.26C894.179 466.92 891.399 466.58 888.589 466.77C887.159 466.86 886.169 466.14 885.609 464.84C885.379 464.3 885.129 463.76 884.919 463.21C884.379 461.78 883.739 460.41 882.769 459.21C882.399 458.75 882.089 458.23 881.869 457.69C881.319 456.36 880.589 455.13 879.849 453.89C879.329 453.03 878.989 452.06 878.649 451.11C877.869 448.95 876.689 446.99 875.479 445.05C875.169 444.55 874.779 444.08 874.359 443.66C873.189 442.51 871.309 443 870.889 444.55C870.839 444.71 870.799 444.88 870.789 445.04C870.609 448.83 869.469 452.5 869.419 456.3C869.409 457.31 869.359 458.3 869.459 459.32C869.569 460.48 869.439 461.68 869.209 462.83C868.999 463.88 868.329 464.64 867.079 464.62C866.409 464.61 865.689 464.8 865.059 464.64C863.139 464.18 861.189 464.09 859.239 463.97C858.989 463.95 858.729 463.93 858.479 463.88C858.059 463.81 857.709 463.41 857.719 462.99C857.739 462.4 857.759 461.81 857.839 461.23C858.319 457.55 858.509 453.87 858.409 450.15C858.329 446.96 858.789 443.76 859.009 440.57C860.149 436.63 859.779 432.54 860.299 428.54C860.359 428.05 860.369 427.52 860.289 427.03C860.139 426.09 860.339 425.21 860.499 424.29C860.909 421.89 861.199 419.47 860.929 417.01C860.789 415.77 860.959 414.49 861.119 413.24C861.249 412.24 861.919 411.88 862.999 411.96C866.739 412.25 870.479 412.55 874.219 412.86C874.219 412.89 880.999 413.53 884.389 413.81C886.249 413.96 887.979 414.47 889.599 415.37C890.809 416.05 892.029 416.71 893.199 417.44C894.939 418.54 896.119 420.1 896.849 421.96C897.399 423.38 897.899 424.82 898.319 426.28C898.499 426.91 898.509 427.62 898.459 428.28C898.329 430.22 897.949 432.12 897.049 433.88C896.659 434.63 896.269 435.38 895.949 436.16C895.079 438.29 893.489 439.77 891.509 440.89C890.619 441.39 889.689 441.83 888.769 442.28C886.919 443.19 886.549 444.05 887.419 445.92C888.029 447.22 888.709 448.51 889.529 449.68C890.899 451.65 892.059 453.67 892.729 455.98C893.009 456.92 893.589 457.83 894.209 458.62C896.029 460.92 897.009 463.63 898.229 466.22H898.209ZM883.459 426.31C883.479 425.31 882.929 424.54 882.009 424.09C881.479 423.83 880.889 423.64 880.299 423.54C879.539 423.41 878.749 423.39 877.979 423.32C877.209 423.26 876.429 423.18 875.649 423.13C875.389 423.11 875.129 423.13 874.869 423.15C873.229 423.33 872.259 424.27 871.959 425.87C871.709 427.22 871.989 428.54 872.169 429.86C872.279 430.66 872.849 431.26 873.609 431.53C875.819 432.32 878.099 432.71 880.439 432.24C881.939 431.94 882.869 430.98 883.159 429.55C883.369 428.49 883.429 427.39 883.449 426.3L883.459 426.31Z" fill="white"/>
<path d="M942.598 462.4C942.848 462.58 943.048 462.86 943.208 463.14C943.288 463.27 943.268 463.47 943.248 463.64C942.958 465.98 942.688 468.33 942.348 470.67C942.178 471.89 941.508 472.4 940.258 472.44C940.008 472.44 939.748 472.43 939.498 472.4C936.458 472.06 933.408 471.71 930.368 471.37C929.098 471.23 927.838 471.05 926.568 470.91C924.878 470.72 923.178 470.67 921.548 470.07C921.158 469.93 920.718 469.89 920.288 469.86C918.508 469.75 916.698 469.83 914.958 469.52C913.198 469.21 911.448 468.83 909.658 468.85C908.948 468.85 908.308 468.73 907.678 468.44C906.998 468.13 906.668 467.57 906.528 466.87C906.508 466.79 906.528 466.7 906.528 466.62C906.668 463.85 906.288 461.06 906.858 458.31C907.098 457.16 907.438 456.02 907.598 454.86C908.008 451.77 908.388 448.67 908.708 445.57C909.048 442.3 909.268 439.02 909.598 435.74C909.898 432.81 910.318 429.88 910.598 426.94C910.878 424.09 911.038 421.23 911.268 418.37C911.408 416.66 912.158 415.98 913.768 416.39C917.178 417.27 920.688 417.33 924.148 417.8C925.358 417.97 926.568 418.15 927.788 418.27C929.608 418.45 931.448 418.74 933.268 418.7C936.528 418.64 939.708 419.21 942.918 419.58C944.118 419.72 945.298 420.13 946.458 420.51C947.158 420.74 947.608 421.27 947.688 422.02C947.958 424.3 947.828 426.56 947.408 428.81C947.358 429.05 947.278 429.31 947.158 429.52C946.898 429.97 946.528 430.34 945.938 430.34C945.328 430.34 944.728 430.29 944.118 430.26C942.988 430.21 941.858 430.21 940.738 430.11C939.618 430.01 938.488 429.91 937.398 429.66C935.438 429.22 933.478 428.99 931.458 429.02C929.728 429.05 927.988 428.82 926.258 428.71C925.478 428.66 924.698 428.55 923.918 428.58C922.948 428.61 922.278 429.17 922.118 430.1C921.818 431.76 921.618 433.43 921.978 435.12C922.148 435.94 922.588 436.51 923.398 436.78C924.048 437 924.708 437.26 925.388 437.34C926.678 437.49 927.978 437.64 929.268 437.59C931.798 437.49 934.278 437.84 936.768 438.15C938.038 438.31 939.298 438.7 940.538 439.07C941.408 439.32 941.738 439.9 941.708 440.81C941.708 440.9 941.708 440.98 941.698 441.06C941.438 443.15 941.198 445.24 940.918 447.33C940.788 448.31 940.168 448.85 939.178 448.84C938.578 448.84 937.978 448.74 937.378 448.7C936.428 448.64 935.488 448.52 934.538 448.55C931.328 448.66 928.198 448.28 925.078 447.52C924.168 447.3 923.198 447.24 922.268 447.25C921.098 447.27 920.258 447.94 920.098 449.05C919.698 451.88 919.148 454.7 919.498 457.6C919.598 458.45 919.948 459.06 920.788 459.29C921.938 459.61 923.088 459.98 924.258 460.13C927.058 460.5 932.688 461.01 932.698 460.97C935.748 461.37 938.788 461.77 941.838 462.19C942.088 462.23 942.388 462.24 942.578 462.37L942.598 462.4Z" fill="white"/>
<path d="M994.012 437.12C994.152 437.6 993.872 437.95 993.492 438.17C993.122 438.38 992.702 438.52 992.302 438.65C990.002 439.38 987.692 440.11 985.392 440.84C985.062 440.94 984.732 441.07 984.392 441.1C983.672 441.17 983.012 441.02 982.532 440.41C981.842 439.53 981.122 438.68 980.472 437.78C978.702 435.36 976.222 435.04 973.512 435.54C971.872 435.84 970.442 436.67 969.052 437.52C968.292 437.98 967.792 438.66 967.362 439.4C966.772 440.42 966.202 441.46 965.612 442.49C964.452 444.49 963.692 446.62 963.582 448.9C962.942 452.17 963.482 455.31 964.462 458.4C964.962 459.97 965.782 461.33 967.152 462.32C968.052 462.97 968.922 463.66 969.852 464.26C971.962 465.63 974.152 465.79 976.402 464.62C976.852 464.38 977.292 464.11 977.742 463.88C978.672 463.43 979.322 463.51 980.072 464.23C980.492 464.64 980.892 465.1 981.212 465.59C981.962 466.73 982.822 467.77 983.852 468.67C984.422 469.17 984.912 469.77 985.372 470.38C985.782 470.93 985.672 471.78 985.122 472.22C983.392 473.58 981.722 475.02 979.442 475.48C977.612 475.85 975.862 476.49 973.982 476.69C972.252 476.88 970.572 476.69 968.932 476.25C967.212 475.78 965.532 475.16 963.852 474.55C962.892 474.2 961.992 473.72 961.332 472.89C959.312 470.38 957.272 467.89 955.212 465.41C953.812 463.73 953.012 461.8 952.712 459.67C952.312 456.84 951.942 454 951.652 451.15C951.292 447.73 951.862 444.45 953.322 441.32C953.822 440.25 954.352 439.17 954.632 438.04C954.942 436.77 955.512 435.68 956.322 434.68C956.642 434.28 957.002 433.89 957.212 433.44C958.262 431.18 960.212 429.79 962.232 428.47C964.612 426.92 967.122 425.6 969.702 424.37C971.082 423.71 972.472 423.46 974.002 423.61C975.742 423.77 977.482 423.89 979.232 423.94C980.242 423.97 981.102 424.39 981.962 424.77C983.382 425.42 984.762 426.16 986.132 426.93C986.732 427.27 987.292 427.7 987.792 428.17C988.922 429.24 990.042 430.32 991.062 431.47C992.512 433.1 993.372 435.04 993.992 437.09L994.012 437.12Z" fill="white"/>
<path d="M1033.43 432.7C1035.66 433.3 1035.74 433.43 1035.35 435.74C1035.07 437.4 1034.8 439.07 1034.52 440.73C1034.45 441.15 1034.4 441.57 1034.31 441.98C1034.12 442.89 1033.59 443.35 1032.7 443.25C1031.23 443.08 1029.77 442.84 1028.31 442.61C1026.94 442.39 1025.57 442.09 1024.19 441.91C1023.11 441.77 1022.27 442.27 1021.98 443.25C1021.66 444.3 1021.4 445.37 1021.27 446.45C1020.59 451.8 1019.38 457.07 1018.8 462.44C1018.22 466.02 1017.67 469.6 1017.07 473.17C1016.69 475.42 1016.27 477.65 1015.86 479.89C1015.8 480.22 1015.76 480.56 1015.64 480.88C1014.9 482.85 1014.65 482.96 1012.63 482.57C1012.3 482.5 1011.96 482.42 1011.65 482.29C1010.36 481.75 1009.03 481.63 1007.65 481.66C1006.81 481.68 1005.95 481.54 1005.12 481.38C1004.29 481.23 1003.8 480.59 1003.83 479.74C1003.85 479.07 1003.94 478.4 1004.05 477.73C1004.44 475.31 1004.88 472.91 1005.25 470.49C1005.96 465.82 1006.62 461.15 1007.33 456.48C1007.51 455.32 1007.82 454.19 1008.17 453.06C1008.63 451.54 1008.94 449.93 1008.98 448.35C1009.02 446.74 1009.24 445.16 1009.43 443.58C1009.47 443.25 1009.49 442.91 1009.55 442.58C1009.9 440.56 1009 439.42 1006.91 438.88C1005.73 438.58 1004.52 438.44 1003.31 438.23C1002.2 438.04 1001.07 437.9 999.96 437.67C998.45 437.35 998.11 436.85 998.33 435.32C998.63 433.23 998.98 431.15 999.34 429.08C999.53 428.01 1000.05 427.63 1001.18 427.81C1003.51 428.19 1005.87 428.23 1008.19 428.79C1009.53 429.11 1010.96 429.11 1012.36 429.15C1013.34 429.17 1014.27 429.28 1015.2 429.58C1017.21 430.22 1019.28 430.56 1021.4 430.56C1022.29 430.56 1023.13 430.7 1023.97 430.98C1025.55 431.52 1027.19 431.83 1028.87 431.79C1029.94 431.76 1030.95 431.9 1031.95 432.29C1032.43 432.48 1032.96 432.56 1033.47 432.7H1033.43Z" fill="white"/>
<path d="M1079.21 467.8C1079.08 469.14 1078.73 470.42 1078.14 471.67C1077.57 472.88 1077.28 474.22 1076.8 475.48C1076.6 476.02 1076.27 476.53 1075.94 477.01C1075.04 478.34 1074.06 479.62 1073.22 480.98C1072.13 482.73 1070.74 484.21 1069.12 485.45C1068.19 486.16 1067.09 486.7 1066 487.14C1063.87 487.99 1061.71 488.79 1059.51 489.46C1058.39 489.8 1057.16 489.99 1055.99 489.94C1053.15 489.82 1050.5 489.11 1047.96 487.7C1044.66 485.87 1042.21 483.27 1039.85 480.45C1037.99 478.23 1036.82 475.78 1036.4 472.95C1036.12 471.03 1035.75 469.12 1035.42 467.21C1035.06 465.19 1035.23 463.18 1035.4 461.17C1035.46 460.42 1035.64 459.67 1035.77 458.92C1035.93 456.97 1036.39 455.1 1037.24 453.33C1037.86 452.04 1038.43 450.72 1039.04 449.43C1039.62 448.2 1040.37 447.08 1041.38 446.13C1043.24 444.38 1045.09 442.61 1046.95 440.85C1047.76 440.08 1048.71 439.54 1049.77 439.1C1052.67 437.91 1055.64 437.04 1058.85 436.96C1060.27 436.92 1061.63 437.02 1062.99 437.47C1066.09 438.5 1068.95 439.98 1071.68 441.69C1073.25 442.68 1074.5 443.97 1075.28 445.66C1076.07 447.36 1076.97 449.01 1077.76 450.71C1078.15 451.55 1078.41 452.46 1078.68 453.35C1079.05 454.56 1079.36 455.79 1079.74 457.01C1079.94 457.67 1080.08 458.31 1080.01 459C1079.73 461.93 1079.51 464.87 1079.22 467.8H1079.21ZM1067.87 462.27C1068.5 460.54 1068.02 458.01 1066.93 455.53C1066.59 454.76 1066.28 453.96 1065.96 453.18C1065.23 451.36 1063.84 450.1 1062.16 449.12C1059.87 447.78 1057.51 447.75 1055.2 448.91C1052.33 450.36 1050.28 452.51 1049.32 455.6C1048.75 457.44 1048.02 459.23 1047.46 461.08C1047.15 462.11 1046.87 463.21 1046.88 464.28C1046.89 465.87 1047.12 467.46 1047.35 469.04C1047.46 469.78 1047.72 470.51 1048.01 471.21C1048.44 472.22 1048.95 473.2 1049.43 474.19C1050.79 476.98 1053.44 478.43 1056.55 478.08C1058.56 477.86 1060.36 477.18 1061.79 475.7C1062.32 475.15 1062.88 474.64 1063.41 474.09C1064.18 473.29 1064.79 472.42 1065.18 471.36C1066.18 468.68 1067 465.96 1067.87 462.27Z" fill="white"/>
<path d="M1124.38 502.05C1124.55 502.57 1124.08 503.06 1123.53 503C1123.36 502.98 1123.19 502.97 1123.02 502.93C1120.28 502.26 1117.55 501.59 1114.72 501.43C1113.28 501.35 1112.38 500.52 1111.97 499.15C1111.8 498.59 1111.62 498.02 1111.48 497.45C1111.11 495.97 1110.64 494.53 1109.81 493.22C1109.5 492.72 1109.25 492.16 1109.09 491.6C1108.7 490.21 1108.12 488.9 1107.53 487.59C1107.11 486.67 1106.89 485.67 1106.66 484.68C1106.13 482.44 1105.2 480.35 1104.22 478.28C1103.97 477.75 1103.64 477.23 1103.27 476.77C1102.24 475.49 1100.31 475.75 1099.71 477.23C1099.65 477.38 1099.58 477.55 1099.56 477.71C1098.93 481.45 1097.35 484.95 1096.86 488.72C1096.73 489.72 1096.56 490.7 1096.54 491.72C1096.51 492.88 1096.24 494.06 1095.87 495.17C1095.53 496.19 1094.77 496.86 1093.53 496.7C1092.86 496.61 1092.13 496.7 1091.51 496.48C1089.65 495.79 1087.72 495.47 1085.79 495.11C1085.54 495.06 1085.29 495 1085.04 494.93C1084.63 494.81 1084.33 494.37 1084.39 493.95C1084.48 493.37 1084.58 492.78 1084.72 492.21C1085.64 488.61 1086.26 484.98 1086.61 481.28C1086.91 478.11 1087.75 474.99 1088.34 471.84C1089.95 468.07 1090.07 463.96 1091.06 460.05C1091.18 459.57 1091.25 459.05 1091.23 458.55C1091.19 457.6 1091.5 456.75 1091.76 455.85C1092.45 453.51 1093.03 451.15 1093.05 448.67C1093.06 447.42 1093.38 446.17 1093.69 444.95C1093.94 443.98 1094.65 443.69 1095.72 443.9C1099.42 444.63 1103.11 445.38 1106.8 446.14C1106.8 446.17 1113.48 447.62 1116.83 448.31C1118.67 448.69 1120.34 449.4 1121.84 450.48C1122.97 451.29 1124.1 452.1 1125.18 452.97C1126.78 454.27 1127.78 455.97 1128.28 457.9C1128.66 459.38 1128.99 460.87 1129.23 462.37C1129.34 463.02 1129.26 463.72 1129.13 464.38C1128.77 466.29 1128.17 468.13 1127.05 469.77C1126.57 470.47 1126.1 471.17 1125.68 471.9C1124.55 473.91 1122.79 475.19 1120.69 476.06C1119.74 476.45 1118.76 476.78 1117.79 477.11C1115.84 477.79 1115.36 478.6 1116.01 480.56C1116.46 481.92 1116.98 483.28 1117.66 484.55C1118.79 486.67 1119.7 488.82 1120.1 491.19C1120.26 492.16 1120.74 493.13 1121.26 493.98C1122.8 496.48 1123.46 499.29 1124.36 502.01L1124.38 502.05ZM1114.41 460.65C1114.55 459.65 1114.09 458.83 1113.23 458.27C1112.73 457.95 1112.17 457.69 1111.59 457.52C1110.84 457.29 1110.07 457.19 1109.3 457.02C1108.53 456.86 1107.77 456.7 1107 456.55C1106.75 456.5 1106.48 456.48 1106.22 456.48C1104.56 456.46 1103.49 457.28 1103 458.84C1102.59 460.15 1102.71 461.49 1102.74 462.83C1102.75 463.64 1103.25 464.3 1103.97 464.66C1106.08 465.71 1108.3 466.37 1110.7 466.19C1112.23 466.07 1113.27 465.23 1113.73 463.85C1114.07 462.82 1114.25 461.73 1114.4 460.66L1114.41 460.65Z" fill="white"/>
<path d="M1170.47 460.73C1170.67 460.94 1170.82 461.43 1170.7 461.64C1169.54 463.67 1169 466.03 1167.1 467.68C1166.28 468.39 1165.73 469.4 1165.14 470.32C1163.74 472.53 1162.39 474.77 1161.02 477C1160.75 477.43 1160.46 477.85 1160.23 478.3C1158.75 481.16 1156.97 483.81 1154.75 486.18C1153.75 487.25 1153.17 488.55 1152.86 489.99C1152.34 492.38 1151.73 494.75 1151.22 497.14C1151.04 497.95 1151.01 498.8 1150.92 499.64C1150.89 499.89 1150.92 500.15 1150.87 500.39C1150.31 502.86 1149.77 505.33 1149.16 507.78C1148.91 508.81 1148.3 509.2 1147.28 509.05C1146.52 508.94 1145.78 508.71 1144.69 508.46C1142.83 507.88 1140.62 507.2 1138.43 506.5C1137.65 506.25 1137.32 505.73 1137.43 504.95C1137.51 504.37 1137.68 503.8 1137.81 503.23C1138.28 501.09 1138.75 498.95 1139.23 496.81C1139.93 493.69 1140.57 490.54 1141.39 487.45C1142.02 485.09 1141.98 482.81 1141.25 480.48C1140.52 478.12 1140.1 475.71 1140.18 473.24C1140.2 472.57 1140.14 471.89 1140.03 471.22C1139.62 468.64 1139.18 466.06 1138.72 463.48C1138.51 462.31 1138.43 461.15 1138.45 459.96C1138.48 458.45 1138.29 456.93 1138.2 455.42C1138.17 455 1138.11 454.58 1138.18 454.17C1138.21 453.97 1138.47 453.79 1138.67 453.65C1138.8 453.56 1139.01 453.52 1139.17 453.54C1141.17 453.77 1143.17 454.01 1145.17 454.28C1145.51 454.32 1145.87 454.42 1146.18 454.57C1148.53 455.67 1148.91 455.22 1149.56 458.29C1150.12 460.95 1150.64 463.6 1150.52 466.32C1150.49 467.06 1150.6 467.83 1150.79 468.56C1151.01 469.4 1152.03 469.6 1152.66 468.97C1152.95 468.67 1153.17 468.31 1153.42 467.97C1154.42 466.61 1155.38 465.22 1156.42 463.89C1157.46 462.56 1158.67 461.34 1159.21 459.69C1159.31 459.38 1159.57 459.12 1159.78 458.85C1160.05 458.49 1160.44 458.31 1160.91 458.35C1161.26 458.38 1161.61 458.43 1161.95 458.51C1163.66 458.91 1165.36 459.29 1167.13 459.39C1168.35 459.46 1169.58 459.81 1170.46 460.75L1170.47 460.73Z" fill="white"/>
</g>
<defs>
<clipPath id="clip0_2001_8190">
<rect width="1424.87" height="1454.28" fill="white"/>
</clipPath>
</defs>
</svg>
