<svg width="917" height="670" viewBox="0 0 917 670" fill="none" xmlns="http://www.w3.org/2000/svg">
<g clip-path="url(#clip0_2006_1682)">
<path d="M216.951 514.83C216.701 514.83 216.451 514.83 216.201 514.83C210.851 514.73 209.681 513.83 208.621 508.63C207.181 501.57 205.951 494.48 204.431 487.44C203.701 484.06 202.571 480.75 201.461 477.46C201.251 476.85 200.301 476.2 199.631 476.14C199.131 476.09 198.221 476.84 198.031 477.41C196.971 480.63 195.911 483.86 195.151 487.16C193.231 495.47 191.531 503.83 189.561 512.13C189.321 513.12 188.001 514.6 187.181 514.59C182.221 514.57 177.251 514.25 172.301 513.88C169.991 513.7 168.881 511.97 168.431 509.9C167.551 505.85 166.821 501.78 165.931 497.73C164.511 491.27 163.111 484.8 161.461 478.39C161.111 477.02 160.891 474.59 158.621 474.96C156.701 475.28 156.681 477.28 156.411 478.96C155.331 485.67 154.161 492.36 152.981 499.05C152.391 502.39 151.681 505.71 151.111 509.06C150.461 512.9 149.951 513.66 146.121 513.83C141.911 514.02 137.691 513.83 133.471 513.72C131.681 513.67 130.771 512.68 131.091 510.79C131.691 507.23 132.261 503.66 132.851 500.1C133.121 498.47 133.381 496.83 133.681 495.21C134.751 489.44 135.891 483.68 136.921 477.91C138.601 468.46 140.091 458.98 141.891 449.56C143.481 441.26 145.281 433 147.251 424.79C147.511 423.72 149.281 422.26 150.361 422.25C156.581 422.17 162.831 422.29 169.031 422.78C170.231 422.87 171.991 424.73 172.271 426.04C173.881 433.41 175.111 440.85 176.481 448.27C176.801 449.98 177.031 451.71 177.541 453.37C177.741 454.01 178.561 454.84 179.131 454.87C179.761 454.91 180.771 454.27 181.051 453.67C181.841 451.95 182.541 450.15 182.941 448.3C184.541 440.87 185.981 433.4 187.541 425.96C187.951 424 188.931 422.71 191.261 422.27C196.811 421.21 202.341 421.14 207.911 421.84C211.081 422.24 211.891 423.33 212.491 426.43C214.001 434.24 215.741 442 217.291 449.8C217.901 452.89 218.081 456.06 218.731 459.14C221.381 471.77 224.211 484.35 226.801 496.99C227.701 501.37 228.121 505.84 228.661 510.29C228.901 512.3 228.101 513.59 225.841 513.84C222.881 514.18 219.931 514.72 216.981 515.17C216.961 515.06 216.951 514.96 216.931 514.85L216.951 514.83Z" fill="white"/>
<path d="M709.3 467.3C709.3 479.84 709.32 492.37 709.28 504.91C709.28 506.9 709.08 508.88 708.91 510.87C708.76 512.61 707.77 513.54 706 513.69C701.95 514.03 697.91 514.39 693.87 514.76C690.76 515.04 688.44 513.68 687.2 510.97C684.86 505.87 682.81 500.64 680.59 495.48C678.69 491.08 676.73 486.7 674.79 482.32C673.65 479.75 672.64 477.11 671.29 474.65C670.73 473.64 669.43 473.04 668.46 472.25C667.73 473.18 666.65 474.02 666.35 475.07C665.87 476.8 665.65 478.69 665.75 480.49C666.07 486.87 666.79 493.23 666.93 499.6C667.01 503.45 666.43 507.33 665.84 511.16C665.71 512.03 664.44 513.13 663.48 513.4C658.44 514.83 653.33 514.99 648.21 513.61C646.23 513.07 645.99 511.62 646 509.94C646.07 502.81 646.14 495.68 646.21 488.56C646.21 488.23 646.25 487.9 646.24 487.56C645.94 474.63 645.48 461.7 645.38 448.76C645.32 441.14 645.77 433.51 646.13 425.88C646.22 423.99 647.38 422.57 649.48 422.54C653.72 422.48 657.96 422.45 662.19 422.57C664.71 422.64 666.22 424.43 667.28 426.47C670.43 432.55 673.54 438.65 676.56 444.8C678.86 449.47 680.98 454.23 683.22 458.93C683.57 459.66 684.02 460.4 684.6 460.97C686.05 462.41 687.63 461.98 688.08 459.97C688.38 458.61 688.43 457.17 688.45 455.76C688.58 445.8 688.66 435.84 688.76 425.87C688.79 422.7 689.3 422.07 692.52 421.9C696.67 421.68 700.82 421.57 704.98 421.52C707.9 421.48 709.05 422.72 709.1 426.2C709.18 432.34 709.07 438.49 709.06 444.63C709.05 452.18 709.06 459.74 709.06 467.29C709.13 467.29 709.21 467.29 709.28 467.29L709.3 467.3Z" fill="white"/>
<path d="M241.979 455.43C241.979 445.88 241.969 436.33 241.979 426.78C241.979 423.3 242.849 422.21 246.229 421.94C250.369 421.61 254.539 421.4 258.689 421.4C261.789 421.4 263.019 423.12 262.909 425.98C262.659 433.02 262.539 440.06 262.429 447.1C262.339 452.82 262.179 458.55 262.299 464.28C262.459 471.42 262.829 478.55 263.209 485.68C263.399 489.19 265.959 492.21 269.409 493.32C274.319 494.91 278.569 493.8 281.579 490.12C284.179 486.94 285.089 483.31 284.859 479.22C284.539 473.69 284.389 468.14 284.359 462.6C284.299 451.23 284.419 439.87 284.339 428.5C284.309 424.19 284.929 423.2 289.229 422.21C293.339 421.26 297.419 421.13 301.579 422.09C303.889 422.62 304.739 423.71 304.699 426.01C304.549 433.48 304.439 440.96 304.489 448.43C304.549 456.98 305.029 465.53 304.869 474.07C304.749 480.85 304.089 487.64 303.409 494.4C302.799 500.51 299.329 504.93 294.299 508.23C291.879 509.82 289.529 511.59 286.959 512.88C285.019 513.86 282.749 514.79 280.649 514.73C274.189 514.55 267.719 514.04 261.299 513.31C259.359 513.09 257.149 512.16 255.739 510.84C252.189 507.51 248.519 504.12 245.839 500.13C242.279 494.81 242.159 488.32 241.999 482.11C241.769 473.23 241.939 464.34 241.939 455.45C241.939 455.45 241.949 455.45 241.959 455.45L241.979 455.43Z" fill="white"/>
<path d="M622.3 514.15C620.8 514.15 619.3 514.16 617.81 514.15C613.24 514.11 612.42 513.35 611.28 509.01C610.48 505.97 609.41 503 608.36 500.04C607.19 496.74 604.67 495.18 601.25 495.3C595.01 495.52 588.78 495.82 582.55 496.23C579.08 496.46 578.13 499.36 577.13 502C576.04 504.86 574.98 507.74 574.16 510.68C573.61 512.65 572.54 513.78 570.56 513.86C566.41 514.02 562.25 514.17 558.1 514.1C555.37 514.05 554.64 513.17 555.23 510.45C556.18 506.01 557.29 501.58 558.59 497.23C561.77 486.63 565.21 476.11 568.34 465.49C570.88 456.85 572.99 448.07 575.54 439.43C576.96 434.6 578.89 429.92 580.59 425.18C581.22 423.42 582.45 422.53 584.35 422.51C589.76 422.44 595.16 422.28 600.57 422.26C604.36 422.25 605.05 422.91 606.13 426.57C609.25 437.11 612.3 447.68 615.57 458.17C618.34 467.08 621.52 475.87 624.25 484.79C625.99 490.48 627.24 496.32 628.69 502.1C629.4 504.91 630.03 507.74 630.79 510.53C631.45 512.99 630.82 514.02 628.3 514.11C626.31 514.18 624.31 514.12 622.31 514.12C622.31 514.12 622.31 514.14 622.31 514.15H622.3ZM594.89 482.44C594.89 482.44 594.9 482.35 594.91 482.3C595.66 482.3 596.41 482.34 597.15 482.3C600.91 482.07 602.4 479.81 601.19 476.25C600.95 475.55 600.88 474.79 600.65 474.09C599.06 469.24 597.56 464.36 595.75 459.59C595.31 458.43 593.84 457.65 592.85 456.7C591.88 457.75 590.46 458.64 590.02 459.88C588.16 465.17 586.5 470.53 584.95 475.92C583.96 479.35 585.42 481.29 588.98 481.74C590.95 481.99 592.93 482.22 594.9 482.46L594.89 482.44Z" fill="white"/>
<path d="M759.562 515C752.112 514.48 745.332 513.67 739.892 509.63C735.772 506.57 732.462 502.38 729.022 498.49C727.922 497.25 728.142 495.58 729.972 494.52C734.062 492.16 738.062 489.65 742.132 487.26C744.062 486.13 745.652 486.73 747.302 488.15C749.722 490.24 752.252 492.27 754.982 493.91C757.302 495.3 759.832 494.63 762.072 493.23C764.162 491.92 764.792 488.62 762.852 486.67C760.432 484.23 757.742 481.9 754.792 480.16C745.892 474.91 737.302 469.34 730.442 461.47C725.282 455.55 724.272 442.63 728.642 436.43C730.502 433.79 732.052 430.94 733.922 428.32C736.362 424.9 739.812 423.05 743.972 422.52C747.592 422.06 751.202 421.39 754.832 421.19C759.992 420.91 764.382 423.5 768.962 425.42C775.122 428.01 779.712 432.14 782.882 437.96C784.172 440.32 783.982 441.59 781.682 442.87C777.782 445.04 773.822 447.1 769.862 449.17C767.762 450.27 766.202 449.4 764.952 447.64C762.862 444.69 760.072 442.72 756.592 441.74C753.842 440.96 751.222 441.34 749.102 443.24C747.352 444.81 746.752 447.22 747.772 449.19C748.872 451.31 750.522 453.47 752.492 454.73C757.082 457.66 762.032 460.04 766.812 462.68C772.582 465.86 777.232 470.42 781.322 475.42C783.112 477.61 783.642 480.83 784.742 483.59C787.252 489.89 785.172 495.42 781.742 500.66C779.212 504.51 777.382 509.03 772.992 511.26C768.562 513.51 764.042 515.7 759.552 514.99L759.562 515Z" fill="white"/>
<path d="M356.66 515.06C347.93 514.56 341.01 513.65 335.43 509.5C331.38 506.48 328.16 502.32 324.8 498.46C323.69 497.19 323.95 495.56 325.78 494.51C329.87 492.15 333.87 489.64 337.95 487.26C339.76 486.2 341.32 486.67 342.93 488.03C345.43 490.15 348 492.26 350.79 493.94C353.1 495.33 355.64 494.66 357.87 493.23C360.03 491.85 360.52 488.51 358.44 486.46C356.05 484.1 353.41 481.85 350.53 480.16C341.62 474.93 333.05 469.32 326.18 461.46C321.05 455.58 319.96 442.64 324.44 436.43C327.13 432.69 329.36 428.33 332.81 425.48C337.78 421.37 344.39 421.39 350.64 421.16C355.93 420.97 360.34 423.65 365 425.56C371.03 428.04 375.4 432.2 378.56 437.8C379.95 440.26 379.8 441.57 377.4 442.91C373.5 445.08 369.55 447.15 365.59 449.21C363.49 450.3 361.93 449.41 360.69 447.64C358.78 444.9 356.21 443.02 353.05 441.95C350.09 440.95 347.21 441.15 344.86 443.29C343.04 444.94 342.38 447.57 343.63 449.45C345.31 451.97 347.62 454.34 350.17 455.98C354.82 458.96 360.08 461.02 364.68 464.08C370.12 467.71 375.48 471.79 378.41 477.83C380.11 481.34 381.2 485.36 381.54 489.24C381.76 491.81 380.52 494.72 379.29 497.15C377.34 500.96 375.23 504.81 372.49 508.06C367.98 513.42 361.54 514.75 356.67 515.07L356.66 515.06Z" fill="white"/>
<path d="M474.691 421.34C486.411 420.07 501.821 430.11 505.391 439.75C505.671 440.51 505.161 442.2 504.521 442.56C500.271 444.94 495.921 447.19 491.501 449.24C489.691 450.08 487.891 449.7 486.281 448.1C484.291 446.13 482.211 444.05 479.771 442.77C475.281 440.41 471.091 442.39 467.081 444.61C462.851 446.95 460.981 450.92 459.371 455.18C456.591 462.54 456.001 469.92 457.891 477.62C459.951 486.02 464.661 491.92 473.001 494.51C476.591 495.62 480.021 494.7 483.111 492.46C486.711 489.85 487.111 489.97 490.501 493.07C493.071 495.42 495.761 497.64 498.321 500C500.211 501.74 500.151 503.03 498.571 504.91C494.771 509.39 489.661 511.56 484.321 513.59C476.901 516.42 469.711 514.69 462.531 513.03C460.721 512.61 459.021 511.2 457.551 509.92C454.731 507.47 452.231 504.65 449.391 502.23C444.691 498.23 441.331 493.51 440.081 487.36C438.981 481.93 437.411 476.59 436.561 471.12C435.801 466.26 436.761 461.42 437.881 456.6C439.221 450.85 440.931 445.26 443.851 440.13C446.931 434.73 452.151 431.45 456.781 427.57C462.211 423.01 468.291 420.78 474.691 421.32V421.34Z" fill="white"/>
<path d="M399.25 468.33C399.25 454.38 399.25 440.43 399.25 426.47C399.25 422.7 400.5 421.25 404.32 421.4C408.54 421.58 412.76 422.15 416.96 422.64C418.64 422.84 419.27 424.07 419.33 425.67C419.41 428.16 419.59 430.65 419.59 433.14C419.59 444.24 419.51 455.35 419.57 466.45C419.59 470.42 419.95 474.38 420.14 478.34C420.19 479.41 420.23 480.49 420.18 481.56C419.99 485.68 419.67 489.8 419.57 493.92C419.41 499.98 419.39 506.04 419.32 512.09C419.3 514.1 418.27 514.85 416.32 514.82C412.08 514.77 407.84 514.82 403.61 514.84C400.08 514.86 399.29 514.16 399.28 510.67C399.25 502.61 399.26 494.56 399.25 486.5C399.25 480.44 399.25 474.37 399.25 468.31V468.33Z" fill="white"/>
<path d="M520.651 468.3C520.651 454.35 520.651 440.4 520.651 426.45C520.651 422.67 521.891 421.24 525.701 421.4C529.921 421.57 534.161 422.03 538.321 422.75C539.261 422.91 540.411 424.58 540.621 425.72C541.041 427.98 540.951 430.35 540.951 432.67C540.961 443.94 540.891 455.2 540.951 466.47C540.971 470.44 541.341 474.4 541.521 478.36C541.571 479.43 541.601 480.51 541.551 481.58C541.361 485.7 541.041 489.81 540.941 493.94C540.781 500 540.761 506.05 540.701 512.11C540.681 514.13 539.631 514.85 537.691 514.83C533.451 514.78 529.211 514.83 524.981 514.85C521.481 514.87 520.681 514.16 520.671 510.65C520.641 496.53 520.661 482.42 520.661 468.3H520.641H520.651Z" fill="white"/>
<path d="M308.002 616.1C310.502 610.06 313.042 604.02 315.482 597.95C316.242 596.08 317.202 595.37 319.372 596.27C326.982 599.42 334.722 602.17 342.482 604.76C344.452 605.42 346.362 606.12 346.262 608.84C346.082 614.23 344.732 615.27 339.252 613.57C335.042 612.25 330.862 610.78 326.652 609.41C323.902 608.5 322.692 609.07 321.922 611.31C320.852 614.44 321.312 615.62 324.292 616.73C327.852 618.06 331.482 619.16 335.052 620.44C338.102 621.53 338.382 622.2 337.522 625.02C336.082 629.75 335.822 629.99 330.572 628.58C327.192 627.67 323.872 626.45 320.612 625.14C318.192 624.17 316.752 624.71 315.952 626.81C315.922 626.89 315.882 626.96 315.852 627.04C312.992 633.15 313.452 634.18 320.602 636.78C324.722 638.26 328.832 639.75 332.992 641.04C335.462 641.8 336.142 643.12 335.372 645.14C335.192 645.6 335.112 646.1 334.952 646.57C333.692 650.39 332.952 650.74 328.492 649.28C320.022 646.48 311.622 643.38 303.302 640.01C299.542 638.47 299.032 637.73 300.322 634.44C302.732 628.27 305.352 622.19 307.882 616.07C307.912 616.08 307.942 616.1 307.982 616.11L308.002 616.1Z" fill="white"/>
<path d="M598.823 609.739C599.973 612.669 601.133 615.599 602.273 618.529C602.893 620.129 604.013 620.739 606.003 620.499C609.423 620.089 612.663 622.459 612.573 625.639C612.543 626.699 611.353 628.179 610.263 628.869C607.853 630.389 606.893 631.939 608.213 634.209C608.423 634.559 608.503 634.989 608.673 635.359C610.833 640.319 609.893 641.979 602.573 644.009C601.443 644.319 599.533 642.939 598.583 641.889C597.603 640.809 597.363 639.199 596.763 637.829C595.693 635.389 594.193 634.829 591.303 635.809C586.383 637.479 581.433 639.019 576.513 640.629C573.963 641.459 572.303 640.719 571.863 638.669C571.323 636.229 570.583 633.479 571.303 631.169C573.983 622.489 576.873 613.899 579.363 605.279C579.643 604.299 580.393 602.999 581.233 602.669C584.923 601.239 588.673 599.929 592.473 598.799C593.143 598.599 594.683 599.689 595.083 600.529C596.493 603.519 597.583 606.659 598.793 609.739C598.803 609.739 598.823 609.729 598.833 609.719L598.823 609.739ZM590.663 619.779C590.663 619.779 590.713 619.759 590.733 619.749C590.233 618.359 589.813 616.929 589.183 615.589C588.943 615.089 588.223 614.469 587.743 614.509C587.233 614.549 586.483 615.239 586.313 615.769C585.233 619.149 584.073 622.519 583.223 625.949C582.713 627.959 584.093 628.799 586.343 628.179C591.953 626.609 592.373 625.929 591.013 620.959C590.903 620.569 590.773 620.169 590.653 619.779H590.663Z" fill="white"/>
<path d="M520.35 640.209C520.99 644.219 521.77 648.199 522.22 652.229C522.57 655.339 521.73 658.339 519.6 661.019C515.62 666.039 509.49 667.329 503.35 666.849C495.85 666.259 491.68 661.699 491.12 655.109C490.5 648.019 489.88 640.919 489.45 633.819C489.04 626.289 493.83 620.229 501.96 619.329C505.41 618.939 508.68 618.959 511.89 620.429C515.55 622.109 517.76 624.909 518.53 628.669C519.31 632.479 519.8 636.349 520.41 640.189C520.39 640.189 520.36 640.189 520.34 640.199L520.35 640.209ZM510.45 642.429C510.45 642.429 510.52 642.419 510.56 642.419C510.14 639.309 509.79 636.169 509.29 633.069C508.81 630.069 506.41 628.389 503.41 628.739C500.5 629.079 499.22 630.679 499.54 634.149C500.1 640.249 500.76 646.349 501.49 652.429C501.84 655.419 504.44 657.439 507.14 657.059C510.17 656.629 512 654.159 511.6 651.039C511.24 648.159 510.84 645.289 510.46 642.419L510.45 642.429Z" fill="white"/>
<path d="M462.623 669.839C458.603 669.879 454.563 669.999 450.563 669.749C446.513 669.479 445.303 668.209 445.723 664.729C446.233 660.499 446.133 656.199 448.703 652.259C451.913 647.339 456.963 644.789 461.923 641.999C463.293 641.229 464.843 640.74 466.163 639.92C468.463 638.49 469.273 635.859 468.083 634.389C466.873 632.889 463.683 632.899 461.613 634.359C460.343 635.259 458.823 636.989 457.753 636.779C455.353 636.299 453.073 634.989 451.023 633.639C450.453 633.269 450.303 631.3 450.793 630.68C457.193 622.79 465.113 619.459 474.723 625.349C478.443 627.629 480.623 635.02 479.383 639.16C477.463 645.52 471.933 648.35 466.263 651.3C463.803 652.58 461.603 654.449 459.603 656.329C458.843 657.039 458.683 658.699 459.023 659.729C459.203 660.279 461.023 660.66 462.123 660.67C466.993 660.72 471.863 660.589 476.723 660.249C478.933 660.089 479.683 660.769 479.763 662.699C480.013 668.609 479.793 669.029 472.963 669.609C469.533 669.889 466.073 669.839 462.623 669.869C462.623 669.869 462.623 669.849 462.623 669.829V669.839Z" fill="white"/>
<path d="M549.942 659.729C545.992 660.609 542.052 661.57 538.062 662.18C533.592 662.86 532.152 661.789 531.852 657.869C531.502 653.529 530.632 649.289 532.552 644.829C534.772 639.679 539.052 636.349 543.072 632.719C544.502 631.429 546.142 630.349 547.482 628.999C549.082 627.399 549.062 625.4 547.522 624.06C546.112 622.84 544.102 622.9 542.482 624.31C541.712 624.98 540.822 625.7 540.432 626.56C539.422 628.81 537.622 628.869 535.592 628.489C535.082 628.389 534.602 628.16 534.092 628.04C528.562 626.58 528.202 625.509 531.532 620.939C533.552 618.139 535.692 615.64 539.052 613.96C543.422 611.78 547.412 612.6 551.722 613.46C555.782 614.28 560.112 622.469 559.742 626.189C559.072 632.809 554.322 636.769 549.362 640.859C547.152 642.689 545.162 645 543.752 647.39C542.092 650.17 543.722 651.749 547.152 651.009C551.932 649.959 556.712 648.819 561.422 647.469C563.512 646.869 564.462 647.24 564.972 649.17C566.492 654.99 566.442 655.349 559.782 657.379C556.552 658.349 553.222 659.009 549.942 659.749C549.942 659.749 549.942 659.749 549.942 659.739V659.729Z" fill="white"/>
<path d="M358.992 658.049C352.642 656.349 348.032 652.779 345.362 647.439C344.212 645.149 344.682 644.219 347.252 643.659C348.142 643.459 349.042 643.309 349.922 643.089C354.522 641.949 355.072 642.219 357.762 645.729C358.692 646.939 361.062 647.639 362.852 647.879C364.782 648.119 365.632 646.139 364.212 644.429C362.072 641.849 359.532 639.549 357.332 637.019C355.192 634.559 353.012 632.089 351.292 629.409C348.382 624.859 349.572 618.999 353.492 615.549C360.032 609.799 367.552 609.849 374.402 615.489C376.952 617.589 379.162 619.749 380.272 622.929C380.892 624.699 380.612 625.619 378.682 625.979C377.742 626.149 376.732 626.209 375.902 626.599C372.762 628.059 370.642 627.279 368.832 624.299C367.452 622.049 363.822 621.249 362.382 622.369C360.722 623.669 361.272 626.709 363.532 628.779C366.432 631.429 369.652 633.859 372.262 636.759C377.372 642.439 380.042 649.069 371.982 655.499C368.162 658.509 363.992 659.289 359.002 658.059L358.992 658.049Z" fill="white"/>
<path d="M395.482 646.909C396.252 642.089 397.082 637.269 397.772 632.429C398.292 628.759 397.472 627.799 393.702 627.089C393.622 627.069 393.532 627.059 393.442 627.039C387.462 625.899 386.872 624.789 388.862 619.309C389.492 617.569 390.862 617.479 392.392 617.729C398.382 618.719 404.382 619.589 410.392 620.319C412.842 620.619 415.292 620.969 417.752 621.229C419.732 621.439 420.582 622.559 420.602 624.409C420.602 624.659 420.602 624.909 420.602 625.159C420.422 630.719 420.212 630.929 414.432 630.299C409.772 629.769 409.322 629.999 408.722 634.409C407.482 643.519 406.332 652.629 405.132 661.749C404.642 665.529 403.752 666.689 398.912 665.729C392.552 664.439 392.522 664.639 393.432 659.159C394.112 655.069 394.742 650.979 395.402 646.889C395.432 646.889 395.462 646.889 395.492 646.899L395.482 646.909Z" fill="white"/>
<path d="M792.012 309.87H914.352" stroke="white" stroke-width="9" stroke-miterlimit="10"/>
<path d="M792.219 221.832H914.569" stroke="white" stroke-width="9" stroke-miterlimit="10"/>
<path d="M792.219 250.832H914.569" stroke="white" stroke-width="9" stroke-miterlimit="10"/>
<path d="M792.219 192.612H914.569" stroke="white" stroke-width="9" stroke-miterlimit="10"/>
<path d="M792.219 308.832H914.569" stroke="white" stroke-width="9" stroke-miterlimit="10"/>
<path d="M792.219 279.832H914.569" stroke="white" stroke-width="9" stroke-miterlimit="10"/>
<path d="M2.76953 221.832H125.11" stroke="white" stroke-width="9" stroke-miterlimit="10"/>
<path d="M2.76953 250.832H125.11" stroke="white" stroke-width="9" stroke-miterlimit="10"/>
<path d="M2.76953 192.612H125.11" stroke="white" stroke-width="9" stroke-miterlimit="10"/>
<path d="M2.76953 308.832H125.11" stroke="white" stroke-width="9" stroke-miterlimit="10"/>
<path d="M2.76953 279.832H125.11" stroke="white" stroke-width="9" stroke-miterlimit="10"/>
<path d="M318.729 162.39C322.335 162.159 325.921 161.864 329.48 161.998C331.934 162.091 333.518 162.615 334.573 163.633C335.634 164.656 336.252 166.265 336.564 168.744V168.745C336.752 170.206 336.849 171.712 336.546 173.053C335.398 178.052 335.494 183.133 335.519 188.114L335.521 190.242C335.481 198.666 334.947 207.246 335.752 215.651L335.834 216.465C336.938 226.95 336.749 237.407 336.79 247.94C336.803 251.515 336.242 255.008 335.994 258.666C335.818 261.273 335.577 263.929 335.547 266.578L335.548 267.713C335.665 277.541 334.895 287.55 336.537 297.459L336.703 298.418C336.996 300.034 336.744 301.857 336.433 303.615V303.617C335.179 310.869 335.549 318.053 336.293 325.289L336.339 325.738H336.36C336.903 331.315 336.848 336.943 336.859 342.602L336.871 345.09C336.882 346.953 335.328 348.423 333.188 348.584C331.417 348.717 329.626 348.718 327.826 348.664H327.824C319.683 348.455 311.448 348.064 303.294 349.574L302.505 349.727C301.428 349.939 300.263 349.828 299.043 349.719H299.039C298.135 349.645 297.405 349.356 296.824 348.893C296.241 348.428 295.781 347.765 295.455 346.906C293.943 342.928 293.569 338.751 294.193 334.643L294.332 333.821C296.098 324.206 296.082 314.546 295.677 304.923C295.334 296.779 294.659 288.64 294.107 280.514L293.88 277.031C293.767 275.245 293.263 273.762 292.336 272.574C291.41 271.388 290.094 270.538 288.428 269.961H288.427C279.083 266.733 269.438 266.028 259.732 266.856H259.731C257.284 267.068 255.298 267.972 253.771 269.436C252.25 270.894 251.213 272.882 250.608 275.223C247.999 285.336 247.549 295.51 249.48 305.819V305.82C249.96 308.357 250.235 310.967 250.306 313.559L250.323 314.668C250.35 322.492 250.188 330.304 250.013 338.135V338.136C249.973 340.206 249.785 342.28 249.361 344.294V344.297C248.833 346.872 248.301 348.224 247.399 348.986C246.615 349.65 245.468 349.933 243.511 350.017L242.62 350.041C238.874 350.08 235.134 350.045 231.38 350.042V349.703H230.88C226.033 349.703 221.248 349.892 216.458 349.649H216.457C213.985 349.53 212.427 349.026 211.362 348.027C210.356 347.083 209.712 345.627 209.239 343.385L209.147 342.926C209.07 342.509 209.014 342.075 208.974 341.635L208.938 341.191C208.371 332.193 207.71 323.21 207.278 314.21C207.091 310.319 207.477 306.443 207.947 302.519L208.153 300.833C209.658 288.499 209.399 276.103 207.883 263.783V263.782C207.212 258.391 207.146 253.16 207.988 247.787C209.455 238.484 209.318 229.085 208.669 219.739V219.738C208.225 213.446 208.305 207.19 208.629 200.883C208.948 194.582 208.885 188.201 209.018 181.907L209.088 179.216C209.141 177.588 209.296 175.962 209.466 174.323C209.593 173.098 209.73 171.861 209.839 170.62L209.938 169.378C210.058 167.639 210.685 166.483 211.615 165.682C212.445 164.968 213.55 164.506 214.851 164.203L215.42 164.083C217.156 163.752 218.896 163.771 220.755 163.617L220.754 163.616C226.456 163.17 232.147 162.686 237.829 162.281H237.831C239.647 162.145 241.412 161.975 243.12 162.184L243.122 162.185C245.188 162.43 246.437 162.899 247.305 163.735C248.072 164.475 248.597 165.554 249.062 167.198L249.258 167.938C250.349 172.329 250.534 176.849 249.764 181.178C248.688 187.223 248.783 193.257 248.716 199.244C248.655 204.21 248.663 209.183 248.688 214.15L248.716 219.115C248.716 221.206 248.688 223.387 249.062 225.491V225.493C249.673 228.878 251.779 231.401 255.281 232.053C261.877 233.283 268.575 234.276 275.404 233.004L276.065 232.874C277.958 232.48 279.879 232.208 281.818 231.931C283.752 231.654 285.703 231.372 287.627 230.956C290.83 230.263 292.887 229.537 294.121 228.09C295.36 226.637 295.684 224.559 295.771 221.462V221.46C295.839 218.745 295.717 216.007 295.663 213.31V213.309C295.529 207.011 295.798 200.813 296.645 194.524C297.528 187.976 296.988 181.195 297.041 174.641V174.64C297.048 173.573 296.996 172.504 296.961 171.462C296.926 170.413 296.906 169.383 296.972 168.362C297.074 166.831 297.532 165.724 298.279 164.974C299.027 164.223 300.128 163.767 301.64 163.658C303.128 163.551 304.625 163.497 306.132 163.443C307.636 163.389 309.15 163.335 310.659 163.227L310.661 163.226C312.025 163.123 313.381 162.957 314.721 162.795C315.729 162.673 316.729 162.555 317.729 162.467L318.729 162.39Z" fill="white" stroke="white"/>
<path d="M362.042 331.568C362.015 321.942 362.042 312.318 362.042 302.689V274.762C362.043 274.753 362.045 274.745 362.046 274.74C362.05 274.706 362.052 274.664 362.055 274.623C362.06 274.538 362.064 274.416 362.068 274.263C362.077 273.954 362.085 273.502 362.093 272.922C362.108 271.761 362.122 270.081 362.132 268.003C362.152 263.847 362.159 258.092 362.148 251.699C362.126 238.914 362.028 223.568 361.799 213.335V213.334C361.61 205.254 361.624 197.209 362.136 189.155V189.154C362.432 184.422 362.138 179.615 362.023 174.894L361.988 172.876C361.975 171.382 361.988 169.889 362.121 168.416V168.412C362.257 166.759 362.726 165.435 363.526 164.462C364.271 163.556 365.336 162.916 366.786 162.614L367.081 162.559C370.021 162.06 373.091 161.683 375.874 162.18C382.448 163.359 389.026 164.009 395.702 163.982V163.983C396.508 163.983 397.37 164.17 398.19 164.443L398.194 164.444C399.216 164.776 400.052 165.265 400.658 165.919C401.259 166.568 401.656 167.404 401.767 168.477C401.98 170.546 402.021 172.63 402.075 174.743V174.744C402.338 184.363 403.42 193.796 402.388 203.366L402.281 204.293C401.671 209.267 402.265 214.344 402.755 219.332L402.954 221.464C403.626 229.178 403.438 237.035 402.886 244.798C402.167 254.959 401.352 265.135 403.095 275.354L403.271 276.344C403.752 278.922 403.939 281.774 403.255 284.161V284.164C401.019 292.103 401.641 300.031 402.354 307.871L402.657 311.226C402.832 313.301 402.834 315.288 402.742 317.361L402.696 318.256C402.25 326.069 402.291 333.929 402.089 341.711C402.034 343.84 402.086 345.913 401.655 347.862C401.578 348.197 401.281 348.666 400.86 349.077C400.485 349.444 400.106 349.673 399.841 349.74L399.734 349.759C396.762 350.015 393.747 350.21 390.92 349.685L390.917 349.684C384.844 348.581 378.876 348.455 372.818 349.781C371.146 350.144 369.363 350.081 367.545 350.054H367.543C365.802 350.034 364.547 349.626 363.701 348.851C362.911 348.126 362.406 347.017 362.256 345.398L362.23 345.068C361.962 340.592 362.042 336.092 362.042 331.57V331.568Z" fill="white" stroke="white"/>
<path d="M432.982 162.7H471.75C471.777 162.704 471.805 162.707 471.827 162.709C471.881 162.713 471.956 162.718 472.045 162.722C472.225 162.73 472.486 162.739 472.819 162.748C473.487 162.766 474.452 162.785 475.645 162.806C478.031 162.846 481.334 162.89 485.003 162.927C491.423 162.992 498.968 163.038 504.688 163.021L507.018 163.011C513.374 162.971 519.418 164.211 525.182 166.853V166.854C529.564 168.869 533.935 170.819 538.173 173.052V173.053C544.398 176.345 548.906 181.416 551.972 187.693V187.694C554.329 192.544 556.511 197.486 558.436 202.521C559.242 204.628 559.497 207.071 559.551 209.428V209.431C559.739 216.344 559.066 223.118 556.546 229.61C555.455 232.413 554.339 235.229 553.481 238.129C551.186 245.878 546.249 251.586 539.778 256.172H539.777C536.851 258.253 533.778 260.092 530.69 262.001H530.689C527.593 263.923 525.65 265.765 525.026 268.033C524.401 270.309 525.144 272.855 526.981 276.067C529.356 280.232 531.975 284.349 534.984 288.099L535.591 288.844C540.988 295.372 545.664 302.144 548.77 310.055V310.056C550.004 313.187 552.177 316.1 554.474 318.594L554.935 319.087C561.982 326.506 566.282 335.612 571.417 344.376L571.391 344.43L571.528 344.664C572.296 345.968 571.356 347.685 569.703 347.869C569.049 347.942 568.523 348.041 567.974 348.028C558.37 347.806 548.712 347.531 539.084 348.958L538.152 349.102C535.737 349.485 533.663 349.134 531.912 348.178C530.156 347.218 528.685 345.628 527.518 343.47C526.509 341.603 525.47 339.805 524.573 337.917L524.571 337.914C522.2 332.995 519.499 328.283 515.639 324.244C514.227 322.767 513 321.037 512.077 319.23L512.076 319.229C509.708 314.629 506.758 310.443 503.775 306.286L503.774 306.285C501.73 303.444 500.266 300.12 498.76 296.837H498.761C495.335 289.332 490.62 282.68 485.8 276.131C484.533 274.41 483.034 272.83 481.415 271.443L481.414 271.442L481.192 271.26C476.507 267.532 469.835 270.016 468.757 275.919C468.65 276.494 468.531 277.168 468.561 277.827C468.788 284.554 468.171 291.254 467.608 297.997C467.047 304.731 466.54 311.504 467.009 318.318V318.319C467.263 321.884 467.373 325.479 468.014 329.104L468.015 329.105C468.732 333.118 468.627 337.413 468.145 341.517C467.93 343.339 467.313 344.905 466.261 346.046C465.215 347.179 463.703 347.935 461.613 348.083C460.395 348.166 459.134 348.432 457.969 348.617C456.778 348.806 455.656 348.919 454.598 348.75H454.597C447.645 347.648 440.696 347.88 433.786 347.975H433.785C432.895 347.988 432.012 347.961 431.146 347.869H431.143C429.961 347.751 428.873 346.74 428.687 345.599L428.662 345.369C428.568 343.266 428.501 341.183 428.621 339.105V339.104C429.325 325.845 428.987 312.669 427.675 299.413C426.559 288.13 427.297 276.696 427.218 265.227C428.691 258.026 428.831 250.799 428.699 243.6C428.575 236.818 428.213 230.084 428.479 223.358L428.54 222.014C428.637 220.19 428.499 218.279 428.082 216.499V216.498L427.953 215.897C427.38 212.902 427.812 209.985 428.094 206.843C428.853 198.435 429.237 189.985 427.8 181.484L427.655 180.662C426.871 176.355 427.095 171.797 427.339 167.306C427.434 165.619 427.991 164.5 428.894 163.789C429.812 163.065 431.168 162.7 432.982 162.7ZM495.84 197.955C493.137 197.709 490.362 197.886 487.72 197.886C485.026 197.886 482.33 197.859 479.625 197.899C478.924 197.91 478.221 197.992 477.537 198.107L476.86 198.233C473.959 198.818 471.678 200.051 470.05 201.922C468.423 203.79 467.483 206.253 467.186 209.232C466.752 213.597 467.753 217.758 468.682 221.809L469.071 223.538C469.724 226.555 472.044 228.652 474.884 229.423V229.424C482.586 231.504 490.436 232.283 498.309 230.111L499.07 229.893C501.712 229.098 503.813 227.737 505.325 225.887C506.837 224.037 507.739 221.725 508.024 219.058C508.429 215.342 508.308 211.562 508.062 207.851H508.076L508.04 207.317C507.782 203.523 505.504 200.805 502.055 199.434L502.054 199.433L501.31 199.155C499.557 198.537 497.689 198.124 495.84 197.955Z" fill="white" stroke="white"/>
<path d="M658.126 162.965C669.221 161.432 680.265 162.16 691.437 162.119C695.531 162.106 699.669 163.063 703.811 163.905H703.812C706.095 164.365 707.705 165.925 708.271 168.361C710.108 176.275 710.632 184.314 710.108 192.426V192.428C710.056 193.284 709.901 194.155 709.58 194.908L709.578 194.913C708.889 196.578 707.889 197.826 706.146 198.037H706.145C704.079 198.292 701.995 198.371 699.875 198.535H699.874C695.943 198.848 692.092 199.317 688.205 199.438H688.203C684.315 199.573 680.405 199.653 676.582 199.238H676.581C669.621 198.492 662.735 198.464 655.765 199.388C649.851 200.167 643.846 200.071 637.781 200.356H637.779C635.138 200.488 632.32 200.397 629.629 200.807C627.861 201.071 626.397 201.797 625.345 202.935C624.292 204.072 623.682 205.587 623.561 207.37V207.371C623.167 213.203 623.085 219.098 624.802 224.886L624.974 225.446C625.893 228.328 627.67 230.31 630.604 231.049L630.893 231.116C633.197 231.619 635.653 232.316 638.071 232.33C642.575 232.357 647.192 232.371 651.68 231.676C660.339 230.333 669.015 230.548 677.753 230.615H677.754C682.171 230.642 686.617 231.522 691.065 232.295C692.529 232.55 693.53 233.11 694.202 233.941C694.882 234.782 695.275 235.957 695.405 237.528V237.532C695.419 237.682 695.432 237.829 695.441 237.973L695.458 238.392C695.431 245.915 695.444 253.443 695.336 260.973C695.31 262.659 694.838 263.957 694.019 264.873C693.2 265.788 691.988 266.374 690.382 266.546H690.381C689.357 266.658 688.322 266.695 687.27 266.719C686.224 266.742 685.152 266.752 684.088 266.813C680.828 267 677.414 266.963 674.13 267.467H674.129C663.085 269.187 652.075 269.054 641.002 267.614H641.003C637.704 267.174 634.254 267.341 630.976 267.763H630.974C628.863 268.045 627.065 268.89 625.776 270.221C624.485 271.554 623.732 273.347 623.668 275.466C623.355 285.317 622.527 295.31 624.604 305.217L624.814 306.176C625.169 307.712 625.726 309.05 626.624 310.073C627.531 311.107 628.757 311.786 630.378 312.053H630.379C634.494 312.723 638.706 313.597 642.924 313.692C647.91 313.807 655.382 313.743 661.603 313.632C664.713 313.576 667.514 313.509 669.538 313.446C670.55 313.415 671.37 313.384 671.938 313.356C672.221 313.343 672.446 313.331 672.602 313.318C672.678 313.312 672.747 313.305 672.8 313.298C672.812 313.296 672.828 313.292 672.846 313.289C683.653 313.451 694.446 313.612 705.252 313.801H705.253C705.742 313.808 706.177 313.79 706.62 313.821C707.024 313.85 707.353 313.917 707.607 314.046L707.616 314.055L707.675 314.088C708.538 314.574 709.282 315.417 709.982 316.307V316.308C710.068 316.418 710.138 316.606 710.181 316.882C710.201 317.016 710.213 317.158 710.22 317.303L710.229 317.743C710.202 326.187 710.242 334.616 710.04 343.034V343.035C709.994 345.152 709.462 346.637 708.487 347.674C707.568 348.652 706.196 349.295 704.278 349.643L703.888 349.708C703.031 349.838 702.141 349.878 701.264 349.878H701.261C690.418 349.945 679.577 350.011 668.723 350.038C666.465 350.038 664.209 350.016 661.951 349.992C659.693 349.969 657.433 349.945 655.168 349.945C649.105 349.945 643.168 350.426 637.306 348.961H637.307C635.796 348.576 634.162 348.609 632.665 348.677C629.505 348.819 626.316 349.138 623.18 349.364C620.227 349.577 617.299 349.71 614.398 349.55L613.818 349.515C607.728 349.098 601.585 348.406 595.42 349.045L594.823 349.111C592.409 349.387 590.174 349.164 587.938 348.418H587.937C585.756 347.695 584.502 346.14 583.79 344.024L583.655 343.594C583.594 343.378 583.581 343.118 583.566 342.808V342.804C583.309 337.845 582.6 332.892 582.088 327.988C581.574 323.068 581.254 318.167 581.755 313.23C582.18 309.109 582.985 304.869 583.107 300.665C583.459 289.535 583.675 278.377 583.688 267.232C583.695 261.354 583.601 255.476 583.505 249.604C583.409 243.729 583.311 237.86 583.311 231.991C583.311 226.731 583.415 221.464 583.513 216.19C583.611 210.918 583.702 205.64 583.675 200.367C583.634 190.129 583.188 179.873 582.973 169.655L582.968 169.102C582.978 166.392 583.529 164.539 584.596 163.431C585.712 162.27 587.52 161.8 590.295 162.221V162.222C596.334 163.159 602.379 163.354 608.406 163.359C613.693 163.364 618.942 163.222 624.196 163.3L626.448 163.348C630.65 163.469 634.88 163.659 639.12 163.604C645.399 163.524 651.86 163.821 658.125 162.965H658.126Z" fill="white" stroke="white"/>
<path d="M33.2981 46.8101C35.5881 46.5401 35.7181 46.6301 36.2181 48.9101C36.5881 50.5601 36.9481 52.2001 37.3081 53.8501C37.3981 54.2601 37.5081 54.6701 37.5781 55.0801C37.7381 55.9901 37.4281 56.6201 36.5481 56.8601C35.1181 57.2501 33.6681 57.5801 32.2281 57.9101C30.8681 58.2201 29.4881 58.4501 28.1381 58.8001C27.0781 59.0701 26.4881 59.8501 26.5781 60.8701C26.6781 61.9601 26.8381 63.0501 27.1081 64.1101C28.4681 69.3401 29.3181 74.6701 30.7881 79.8701C31.5881 83.4001 32.4081 86.9401 33.1881 90.4801C33.6781 92.7001 34.1081 94.9401 34.5681 97.1701C34.6381 97.5001 34.7181 97.8301 34.7281 98.1701C34.7781 100.27 34.5781 100.47 32.5581 100.86C32.2281 100.92 31.8781 100.97 31.5381 100.97C30.1381 100.95 28.8481 101.34 27.5781 101.88C26.7981 102.21 25.9481 102.4 25.1181 102.57C24.2881 102.74 23.5881 102.33 23.2981 101.54C23.0681 100.91 22.8981 100.25 22.7481 99.6001C22.2081 97.2101 21.7281 94.8201 21.1681 92.4401C20.0881 87.8501 18.9581 83.2601 17.8681 78.6701C17.5981 77.5301 17.4681 76.3601 17.3681 75.1801C17.2281 73.6001 16.9181 71.9901 16.3581 70.5001C15.7881 68.9901 15.4181 67.4501 14.9981 65.9101C14.9081 65.5801 14.8081 65.2601 14.7381 64.9301C14.3081 62.9301 13.0481 62.2001 10.8981 62.4801C9.68808 62.6301 8.50808 62.9701 7.30808 63.2301C6.19808 63.4701 5.0981 63.7701 3.9781 63.9601C2.4581 64.2301 1.94809 63.9001 1.57809 62.3901C1.07809 60.3401 0.618087 58.2801 0.188087 56.2201C-0.0419134 55.1601 0.308077 54.6101 1.42808 54.3601C3.73808 53.8401 5.95807 52.9901 8.32807 52.6501C9.69807 52.4501 11.0281 51.9101 12.3381 51.4201C13.2581 51.0801 14.1681 50.8301 15.1381 50.7601C17.2481 50.6001 19.3081 50.1401 21.2781 49.3501C22.1081 49.0201 22.9381 48.8301 23.8281 48.7801C25.4981 48.6901 27.1481 48.3701 28.6881 47.7001C29.6781 47.2701 30.6681 47.0201 31.7381 47.0101C32.2581 47.0101 32.7781 46.8901 33.2981 46.8201V46.8101Z" fill="white"/>
<path d="M88.9409 81.6998C89.4809 83.4598 89.7909 85.2998 90.1609 87.1198C90.2809 87.7198 89.8609 88.2698 89.2209 88.4398C88.7309 88.5798 88.2309 88.6698 87.7209 88.7598C85.3709 89.1698 83.0009 89.5198 80.7709 90.4498C80.4609 90.5798 80.1109 90.6098 79.7709 90.6498C79.2109 90.7098 78.781 90.4798 78.481 90.0198C77.781 88.9198 77.441 87.6898 77.421 86.4198C77.381 83.6998 76.8409 81.0598 76.1909 78.4398C75.5609 75.9098 74.821 73.4098 74.141 70.8898C73.891 69.9598 73.2909 69.4798 72.3309 69.3598C69.5509 69.0098 66.8209 69.3698 64.1509 70.1598C62.8609 70.5398 62.241 71.5398 62.171 72.8598C62.021 75.7698 62.481 78.5598 63.601 81.2498C63.921 82.0198 64.181 82.8298 64.351 83.6498C64.811 85.7998 65.2109 87.9498 65.6109 90.0998C65.7209 90.6798 65.791 91.2598 65.791 91.8498C65.791 93.3198 65.521 93.6398 64.141 93.9498C63.061 94.1898 61.9709 94.4098 60.8809 94.6398C60.8809 94.6098 60.8709 94.5798 60.8609 94.5498C59.5209 94.8298 58.201 95.1698 56.851 95.3898C55.441 95.6198 54.8409 95.2298 54.2709 93.8998C54.2009 93.7498 54.151 93.5898 54.101 93.4198C53.411 90.9898 52.691 88.5698 52.041 86.1398C51.711 84.9198 51.6009 83.6698 51.4909 82.3998C51.1809 78.9498 50.381 75.5798 49.231 72.3098C48.721 70.8698 48.3909 69.4198 48.3109 67.8898C48.1709 65.2698 47.581 62.7198 46.851 60.2098C46.351 58.5098 46.0009 56.7798 45.7209 55.0298C45.4009 53.0298 44.931 51.0598 44.571 49.0698C44.411 48.1598 44.361 47.2398 44.231 46.3198C44.091 45.2898 44.701 44.7398 45.571 44.3898C46.051 44.1898 46.5809 44.0798 47.0809 43.9298C48.6809 43.4598 50.2709 42.9798 51.8709 42.5298C52.3709 42.3798 52.8809 42.2298 53.4009 42.1798C54.6309 42.0698 55.0909 42.3798 55.6209 43.4698C56.1909 44.6298 56.511 45.8698 56.541 47.1198C56.581 48.8298 56.9509 50.4598 57.2809 52.1098C57.6409 53.9298 58.031 55.7398 58.421 57.5498C58.541 58.1298 58.6609 58.7098 58.8809 59.2598C59.2309 60.1098 59.9209 60.6298 60.8809 60.5998C62.8809 60.5498 64.8609 60.4198 66.7409 59.6198C67.7709 59.1798 68.8709 58.8698 69.9009 58.4298C71.6409 57.6798 71.8809 57.2298 71.5909 55.5098C71.4609 54.7698 71.2709 54.0298 71.1109 53.2898C70.7209 51.5698 70.4509 49.8398 70.3409 48.0598C70.2309 46.2198 69.701 44.4098 69.351 42.5998C69.241 42.0198 69.061 41.4598 68.981 40.8698C68.861 39.9698 69.2609 39.3998 70.1609 39.1498C71.0009 38.9198 71.8609 38.7498 72.7109 38.5098C73.4709 38.2998 74.2109 38.0198 74.9709 37.8198C75.9809 37.5498 77.0009 37.2698 78.0309 37.0998C79.4709 36.8698 80.1209 37.2998 80.5809 38.6498C80.7109 39.0398 80.8309 39.4698 80.8109 39.8798C80.7409 41.5098 81.1409 43.0598 81.4409 44.6298C81.9009 47.0298 82.2109 49.4798 82.9409 51.7998C83.8209 54.6298 84.3309 57.5298 84.9109 60.4098C85.1109 61.3998 85.141 62.4098 85.261 63.4098C85.361 64.2498 85.4509 65.0898 85.6209 65.9098C86.2009 68.7098 86.5309 71.5698 87.5909 74.2598C87.7709 74.7198 87.8009 75.2498 87.8009 75.7498C87.8409 77.7898 88.331 79.7298 88.921 81.6798L88.9409 81.6998Z" fill="white"/>
<path d="M135.351 69.8796C135.641 69.9796 135.911 70.1896 136.151 70.4096C136.261 70.5096 136.3 70.7096 136.33 70.8696C136.72 73.1996 137.131 75.5296 137.471 77.8596C137.651 79.0796 137.161 79.7596 135.971 80.1496C135.731 80.2296 135.481 80.2796 135.221 80.3296C132.201 80.8696 129.181 81.4096 126.161 81.9496C124.901 82.1796 123.641 82.3696 122.381 82.5896C120.711 82.8896 119.051 83.3296 117.321 83.2196C116.911 83.1896 116.47 83.2796 116.05 83.3696C114.31 83.7696 112.59 84.3596 110.83 84.5696C109.05 84.7796 107.27 84.9096 105.55 85.4396C104.87 85.6496 104.221 85.7096 103.541 85.6196C102.791 85.5196 102.32 85.0796 101.99 84.4396C101.95 84.3596 101.931 84.2796 101.911 84.1996C101.251 81.5096 100.1 78.9396 99.8605 76.1396C99.7605 74.9696 99.7705 73.7796 99.5905 72.6196C99.1105 69.5396 98.5905 66.4596 98.0105 63.3996C97.4005 60.1696 96.6805 56.9596 96.0705 53.7296C95.5205 50.8296 95.0905 47.9096 94.5205 45.0096C93.9705 42.1996 93.3205 39.4096 92.7205 36.5996C92.3605 34.9296 92.8905 34.0596 94.5605 33.9896C98.0905 33.8496 101.481 32.9196 104.941 32.3796C106.151 32.1896 107.371 32.0296 108.571 31.7896C110.371 31.4396 112.221 31.1896 113.961 30.6396C117.071 29.6496 120.291 29.2896 123.481 28.7296C124.671 28.5196 125.921 28.5796 127.141 28.6096C127.881 28.6296 128.461 29.0096 128.751 29.7096C129.651 31.8196 130.191 34.0196 130.421 36.2996C130.451 36.5496 130.441 36.8096 130.381 37.0596C130.261 37.5696 130.011 38.0296 129.451 38.1896C128.871 38.3696 128.271 38.4896 127.681 38.6396C126.581 38.9196 125.501 39.2396 124.391 39.4696C123.291 39.6996 122.17 39.9196 121.05 39.9896C119.04 40.1296 117.091 40.4696 115.161 41.0696C113.501 41.5896 111.78 41.8696 110.08 42.2596C109.32 42.4296 108.53 42.5496 107.8 42.7996C106.87 43.1096 106.401 43.8296 106.501 44.7796C106.691 46.4596 106.97 48.1096 107.8 49.6296C108.2 50.3596 108.791 50.7896 109.641 50.8096C110.331 50.8296 111.041 50.8896 111.711 50.7796C112.991 50.5596 114.291 50.3296 115.511 49.9096C117.911 49.0896 120.401 48.7196 122.871 48.2996C124.141 48.0896 125.451 48.1096 126.751 48.0996C127.661 48.0996 128.141 48.5496 128.371 49.4396C128.391 49.5196 128.411 49.5996 128.431 49.6896C128.781 51.7696 129.141 53.8396 129.471 55.9296C129.621 56.9096 129.181 57.5996 128.231 57.8696C127.651 58.0396 127.05 58.1196 126.46 58.2496C125.53 58.4596 124.591 58.6196 123.691 58.9196C120.641 59.9496 117.521 60.4696 114.311 60.6296C113.371 60.6796 112.421 60.8896 111.531 61.1796C110.411 61.5296 109.791 62.4096 109.961 63.5196C110.381 66.3496 110.661 69.2096 111.821 71.8796C112.161 72.6696 112.671 73.1496 113.541 73.1296C114.731 73.1096 115.951 73.1296 117.121 72.9496C119.921 72.5096 125.47 71.3896 125.46 71.3496C128.5 70.8596 131.541 70.3796 134.591 69.9096C134.841 69.8696 135.131 69.7996 135.351 69.8796Z" fill="white"/>
<path d="M222.661 64.1101C222.781 64.6001 222.811 65.1101 222.821 65.6201C222.841 66.2201 222.451 66.7801 221.841 66.9501C220.121 67.4301 218.391 67.8801 217.031 68.2401C215.891 68.3101 215.121 68.3801 214.361 68.4101C213.131 68.4701 212.151 68.0201 211.731 66.8301C210.491 63.2701 208.691 59.8901 207.971 56.1301C207.841 55.4701 207.651 54.8101 207.391 54.2001C206.601 52.3401 205.761 50.5001 204.931 48.6601C204.831 48.4301 204.731 48.1701 204.551 48.0101C204.311 47.7901 204.011 47.5401 203.711 47.5101C203.221 47.4701 202.921 47.8801 202.831 48.3001C202.411 50.2801 201.801 52.2401 201.841 54.2701C201.881 56.0501 201.681 57.7901 201.501 59.5501C201.261 61.8901 201.081 64.2401 200.871 66.5901C200.801 67.4301 200.731 68.2701 200.571 69.1001C200.441 69.8201 199.961 70.3401 199.211 70.4301C196.431 70.7601 193.671 71.3601 190.831 71.2001C190.001 71.1501 189.331 70.8601 188.911 70.1501C188.531 69.5001 188.111 68.8501 187.871 68.1401C187.081 65.8301 186.271 63.5301 185.641 61.1801C184.781 57.9001 183.071 54.9601 181.821 51.8401C181.611 51.3101 181.221 50.8301 180.831 50.4001C180.441 49.9601 179.571 50.1901 179.331 50.7701C179.201 51.0801 179.061 51.4101 179.061 51.7301C179.051 52.9901 179.101 54.2501 179.111 55.5101C179.111 56.6001 179.171 57.7001 179.051 58.7801C178.741 61.8001 178.821 64.8301 178.721 67.8501C178.681 69.1901 178.501 70.5301 178.341 71.8601C178.261 72.5001 177.851 72.9501 177.201 73.0801C174.451 73.6101 171.751 74.3901 168.911 74.3601C168.661 74.3601 168.361 74.4001 168.161 74.2901C167.891 74.1401 167.511 73.9001 167.471 73.6501C167.321 72.7401 167.221 71.8101 167.231 70.8901C167.251 69.2101 167.381 67.5301 167.441 65.8501C167.461 65.1801 167.511 64.5001 167.401 63.8401C167.031 61.5601 167.161 59.3001 167.581 57.0501C167.901 55.3801 168.051 53.7101 167.771 52.0301C167.541 50.6801 167.791 49.3401 167.921 48.0001C168.041 46.7401 168.251 45.4901 168.371 44.2301C168.441 43.5601 168.491 42.8801 168.421 42.2201C168.141 39.3601 168.191 36.5201 168.511 33.6601C168.911 30.2301 169.021 26.7801 169.251 23.3301C169.331 22.1101 169.651 21.6601 170.911 21.4201C172.541 21.1001 174.191 20.8301 175.831 20.6101C177.131 20.4301 178.441 20.3401 179.741 20.2201C180.171 20.1801 180.611 20.1101 181.041 20.0901C182.511 20.0301 183.551 20.6401 184.121 21.9601C184.221 22.1901 184.311 22.4301 184.371 22.6801C185.141 25.4301 186.421 28.0101 187.151 30.7901C187.661 32.7401 188.321 34.6501 188.931 36.5701C189.001 36.8101 189.131 37.0401 189.271 37.2401C189.541 37.6101 189.951 37.8301 190.391 37.7001C190.681 37.6101 191.071 37.3501 191.151 37.1001C191.431 36.1301 191.681 35.1401 191.801 34.1501C191.931 33.0601 191.981 31.9601 191.921 30.8701C191.841 29.2601 192.071 27.6801 192.361 26.1001C192.681 24.3601 193.121 22.6301 192.861 20.8301C192.811 20.5101 192.941 20.1601 192.961 19.8301C193.011 18.9501 193.531 18.4201 194.361 18.2001C195.881 17.8001 197.411 17.4401 198.941 17.0801C199.281 17.0001 199.631 16.9501 199.981 16.9301C201.721 16.8201 203.471 16.7301 205.211 16.6501C206.251 16.6001 206.631 16.8801 206.951 17.8001C208.191 21.3801 209.421 24.9601 210.671 28.5401C211.231 30.1301 211.881 31.6901 212.431 33.2701C212.651 33.9001 212.801 34.5701 212.881 35.2301C213.121 37.1901 213.821 38.9801 214.771 40.6901C215.431 41.8801 215.871 43.1401 216.151 44.4701C216.371 45.5401 216.631 46.6101 217.021 47.6301C218.131 50.5401 218.921 53.5501 220.221 56.4001C221.031 58.1601 221.571 60.0201 222.001 61.9201C222.171 62.6601 222.471 63.3601 222.651 64.0901L222.661 64.1101Z" fill="white"/>
<path d="M263.3 30.8399C263.48 31.2999 263.461 31.8399 263.511 32.3399C263.881 35.9499 264.24 39.5499 264.6 43.1599C264.7 44.1499 264.681 50.9599 264.571 51.7099C264.161 54.4699 263.041 56.8899 260.891 58.7399C259.291 60.1199 257.631 61.4499 255.921 62.7099C255.261 63.1999 254.431 63.5999 253.631 63.7599C249.441 64.5899 245.211 64.7999 240.951 64.2899C239.721 64.1399 238.65 63.7699 237.68 63.0099C236.48 62.0699 235.27 61.1499 234.05 60.2399C231.92 58.6499 230.68 56.4599 229.9 54.0199C229.34 52.2699 228.951 50.4699 228.631 48.6399C227.921 44.5599 227.821 40.4299 227.071 36.3599C226.901 35.4499 226.841 34.5199 226.731 33.5999C226.761 33.5999 225.79 25.0499 225.28 20.7899C225.09 19.1999 224.85 17.6199 224.72 16.0199C224.62 14.8099 225.07 14.3199 226.3 14.0799C228.44 13.6699 230.58 13.2599 232.74 12.9099C233.59 12.7699 234.48 12.7299 235.34 12.7999C236.25 12.8699 236.96 13.6899 236.84 14.5699C236.58 16.4399 236.961 18.2699 237.161 20.0999C237.361 21.9399 237.42 23.8199 237.8 25.6199C238.36 28.2599 238.531 30.9299 238.701 33.6099C238.841 35.7099 239.101 37.8099 239.411 39.8899C239.841 42.7199 240.41 45.5199 240.83 48.3499C241.13 50.4099 242.44 51.8099 244.53 52.4399C247.4 53.3099 249.731 52.5799 251.541 50.1999C253.401 47.7499 253.681 44.9999 252.671 42.2699C251.551 39.2499 251.621 36.1399 251.541 33.0499C251.491 31.1099 251.541 29.1899 250.851 27.3299C250.711 26.9399 250.66 26.5099 250.62 26.0899C250.41 24.2499 250.21 22.4099 250.03 20.5599C249.98 20.0599 249.931 19.5399 250.011 19.0499C250.211 17.8599 250.121 16.7099 249.661 15.5799C249.511 15.1899 249.411 14.7699 249.381 14.3599C249.221 12.7799 249.95 11.7499 251.53 11.3499C252.97 10.9899 254.4 10.5699 255.87 10.4099C257.24 10.2599 258.65 10.3799 260.04 10.4499C260.68 10.4799 261.301 11.1099 261.381 11.8099C261.491 12.8099 261.59 13.8199 261.55 14.8299C261.44 17.2899 261.75 19.7099 262.16 22.1199C262.26 22.6999 262.34 23.2599 262.36 23.8499C262.45 26.1999 262.411 28.5699 263.281 30.8299L263.3 30.8399Z" fill="white"/>
<path d="M308.691 43.8798C308.991 45.0398 308.851 46.1998 308.411 47.3498C307.401 49.9598 306.161 52.4498 304.691 54.8298C303.831 56.2298 302.671 57.2998 301.111 57.9498C300.021 58.4098 298.981 58.9998 297.881 59.4398C297.181 59.7198 296.421 60.0198 295.681 60.0298C292.281 60.0298 288.891 59.8898 285.591 58.9498C283.861 58.4598 282.301 57.6798 281.021 56.3298C280.151 55.4198 279.031 54.7598 278.081 53.9098C277.401 53.2898 276.771 52.5998 276.221 51.8598C275.791 51.2898 276.021 50.4898 276.601 50.0698C278.951 48.3898 281.331 46.7398 283.691 45.0498C284.511 44.4598 285.271 44.4698 286.031 45.0498C286.841 45.6598 287.671 46.2798 288.411 46.9698C290.001 48.4498 291.851 48.6998 293.891 48.2798C293.981 48.2598 294.061 48.2498 294.141 48.2298C296.221 47.6798 297.011 45.4598 295.551 43.8798C294.641 42.8998 293.491 42.1098 292.361 41.3698C291.591 40.8698 290.661 40.5798 289.801 40.2098C285.061 38.1798 280.631 35.6598 276.611 32.4298C273.561 29.9798 272.141 26.7398 271.911 22.9798C271.781 20.9498 272.091 18.9498 273.101 17.0998C273.961 15.5398 274.731 13.9198 275.621 12.3798C276.411 11.0298 277.571 9.96981 279.021 9.30981C279.881 8.91981 280.821 8.66982 281.741 8.43982C283.591 7.96982 285.461 7.54982 286.861 7.21982C289.191 7.04982 291.021 7.27982 292.751 7.84982C294.891 8.55982 296.971 9.40983 299.081 10.1998C300.331 10.6698 301.351 11.4798 302.221 12.4098C303.321 13.5898 304.311 14.8698 305.281 16.1598C305.701 16.7098 305.581 17.3198 305.021 17.7298C304.341 18.2398 303.641 18.7998 302.861 19.1198C301.171 19.8398 299.641 20.7698 298.241 21.9198C297.911 22.1898 297.551 22.4298 297.181 22.6498C296.431 23.1098 295.951 23.0498 295.361 22.4098C294.901 21.9098 294.481 21.3598 293.991 20.8998C292.501 19.4898 290.711 18.7498 288.611 18.7298C287.721 18.7298 286.881 18.9098 286.101 19.2998C285.271 19.7098 284.751 20.3998 284.611 21.2698C284.401 22.5698 284.641 23.7898 285.621 24.7798C286.591 25.7598 287.711 26.5298 289.021 27.0198C290.391 27.5298 291.751 28.0498 293.101 28.5998C294.371 29.1198 295.631 29.6598 296.881 30.2198C298.451 30.9198 299.891 31.8198 301.201 32.9498C302.361 33.9498 303.631 34.8098 304.811 35.7898C305.321 36.2198 305.791 36.7398 306.131 37.2998C307.361 39.3398 308.071 41.5998 308.661 43.8798H308.691Z" fill="white"/>
<path d="M330.12 36.3401C330.31 37.0601 330.42 37.8801 330.26 38.5901C329.71 41.1401 330.21 43.6301 330.6 46.1101C330.7 46.7801 330.74 47.4201 330.74 48.0901C330.76 50.2801 330.92 52.4701 331.01 54.6501C331.03 55.2401 331.09 55.8301 331.01 56.4001C330.97 56.6601 330.63 57.0401 330.39 57.0801C329.56 57.2101 328.69 57.3201 327.87 57.2301C326.15 57.0401 324.49 57.1201 322.83 57.6101C322.35 57.7501 321.83 57.7701 321.32 57.8001C320.3 57.8601 319.72 57.4401 319.57 56.4001C319.4 55.1501 319.34 53.8801 319.24 52.6301C319.04 49.9401 318.85 47.2501 318.65 44.5601C318.46 41.9601 318.27 39.3501 318.08 36.7501C318.12 36.7501 317.31 25.3201 316.76 19.6201C316.54 17.3601 316.38 15.1201 316.36 12.8501C316.35 11.3401 316.11 9.83011 315.99 8.32011C315.95 7.90011 315.93 7.4801 315.94 7.0601C315.95 6.0901 316.39 5.4201 317.37 5.1901C318.21 4.9901 319.11 4.82009 319.96 4.90009C321.88 5.10009 323.79 5.15011 325.7 5.01011C325.96 4.99011 326.23 5.0301 326.47 5.0901C327.11 5.2501 327.57 5.61011 327.69 6.26011C327.79 6.84011 327.84 7.43009 327.9 8.02009C328.16 10.7701 328.68 13.5001 328.51 16.2901C328.42 17.8701 328.77 19.4601 329.02 21.0401C329.36 23.1901 329.45 25.4001 329.44 27.5801C329.42 30.5301 329.38 33.4601 330.13 36.3501L330.12 36.3401Z" fill="white"/>
<path d="M378.999 12.3305C379.229 12.7705 379.019 13.1705 378.679 13.4605C378.359 13.7305 377.979 13.9505 377.599 14.1605C375.479 15.3105 373.349 16.4405 371.229 17.5805C370.929 17.7405 370.629 17.9305 370.299 18.0205C369.609 18.2205 368.929 18.2005 368.349 17.6905C367.519 16.9605 366.649 16.2505 365.849 15.4805C363.669 13.4205 361.179 13.5605 358.609 14.5605C357.049 15.1605 355.809 16.2305 354.599 17.3305C353.939 17.9305 353.569 18.6805 353.289 19.4905C352.899 20.6105 352.539 21.7305 352.149 22.8505C351.379 25.0305 351.029 27.2605 351.339 29.5205C351.319 32.8505 352.419 35.8405 353.949 38.7005C354.729 40.1605 355.779 41.3305 357.309 42.0605C358.309 42.5305 359.289 43.0505 360.319 43.4705C362.639 44.4205 364.819 44.1805 366.809 42.6205C367.209 42.3105 367.589 41.9505 367.989 41.6505C368.809 41.0405 369.469 40.9905 370.339 41.5705C370.829 41.8905 371.299 42.2705 371.699 42.7005C372.639 43.6905 373.679 44.5405 374.859 45.2405C375.509 45.6305 376.109 46.1305 376.659 46.6405C377.169 47.1105 377.209 47.9605 376.749 48.4905C375.309 50.1505 373.929 51.8605 371.779 52.7405C370.059 53.4405 368.449 54.3905 366.639 54.9405C364.969 55.4405 363.299 55.5805 361.599 55.4405C359.829 55.2905 358.069 54.9905 356.309 54.7105C355.299 54.5505 354.339 54.2405 353.529 53.5405C351.089 51.4505 348.629 49.3705 346.149 47.3105C344.469 45.9105 343.329 44.1605 342.649 42.1305C341.739 39.4205 340.849 36.7005 340.039 33.9505C339.059 30.6505 339.009 27.3205 339.869 23.9805C340.159 22.8405 340.489 21.6805 340.559 20.5205C340.629 19.2105 340.989 18.0505 341.599 16.9105C341.839 16.4605 342.119 16.0105 342.249 15.5305C342.859 13.1205 344.519 11.3805 346.269 9.72048C348.319 7.76048 350.539 6.00049 352.839 4.32049C354.069 3.42049 355.389 2.92048 356.919 2.78048C358.649 2.62048 360.389 2.42049 362.109 2.14049C363.109 1.98049 364.029 2.23047 364.939 2.46047C366.449 2.84047 367.949 3.31048 369.419 3.81048C370.069 4.03048 370.699 4.35048 371.269 4.72048C372.569 5.56048 373.869 6.41046 375.089 7.36046C376.809 8.70046 378.019 10.4505 378.989 12.3405L378.999 12.3305Z" fill="white"/>
<path d="M400.4 32.9502C400.56 33.6702 400.64 34.5002 400.46 35.2002C399.82 37.7302 400.23 40.2302 400.52 42.7302C400.6 43.4002 400.61 44.0401 400.59 44.7201C400.53 46.9101 400.61 49.1002 400.62 51.2902C400.62 51.8702 400.66 52.4802 400.55 53.0402C400.5 53.3002 400.15 53.6702 399.9 53.7002C399.06 53.8002 398.2 53.8802 397.38 53.7602C395.68 53.5102 394.01 53.5302 392.34 53.9502C391.85 54.0702 391.33 54.0701 390.82 54.0801C389.8 54.1101 389.23 53.6601 389.13 52.6101C389.01 51.3601 388.99 50.0901 388.94 48.8301C388.84 46.1401 388.75 43.4401 388.65 40.7501C388.55 38.1401 388.46 35.5302 388.37 32.9202C388.41 32.9202 388.02 21.4701 387.68 15.7501C387.55 13.4901 387.47 11.2301 387.53 8.97015C387.57 7.46015 387.39 5.94014 387.32 4.43014C387.3 4.01014 387.29 3.59016 387.32 3.17016C387.37 2.20016 387.83 1.55015 388.81 1.35015C389.66 1.18015 390.56 1.04015 391.4 1.16015C393.31 1.42015 395.21 1.55015 397.13 1.47015C397.38 1.47015 397.65 1.51013 397.9 1.58013C398.53 1.76013 398.98 2.14015 399.07 2.79015C399.15 3.37015 399.18 3.96013 399.21 4.55013C399.37 7.31013 399.79 10.0501 399.52 12.8401C399.37 14.4201 399.67 16.0201 399.86 17.6101C400.12 19.7701 400.13 21.9801 400.04 24.1601C399.92 27.1101 399.76 30.0402 400.41 32.9502H400.4Z" fill="white"/>
<path d="M452.389 50.7997C452.449 51.0397 452.459 51.2997 452.479 51.5497C452.509 51.9697 452.189 52.4597 451.789 52.4697C448.989 52.4997 446.199 52.5097 443.399 52.5297C442.389 52.5297 441.859 51.8897 441.579 51.0397C441.159 49.7597 440.819 48.4597 440.389 47.1797C440.039 46.1397 439.659 45.1097 439.209 44.1197C438.559 42.6897 437.429 41.8697 435.799 41.9197C433.839 41.9697 431.869 42.0797 429.919 42.1997C428.299 42.2997 426.689 42.5297 425.079 42.5697C423.609 42.5997 422.609 43.2097 422.119 44.5397C421.479 46.2797 420.889 48.0297 420.299 49.7897C420.089 50.4297 419.959 51.0897 419.709 51.7197C419.439 52.3897 418.909 52.7997 418.149 52.8297C415.599 52.9297 413.059 53.0297 410.509 53.1197C410.179 53.1197 409.839 53.0297 409.509 52.9597C409.149 52.8797 408.799 52.3897 408.839 51.9897C408.869 51.6597 408.939 51.3297 409.019 51.0097C410.039 46.7597 411.049 42.4997 412.139 38.2597C412.519 36.7997 413.069 35.3697 413.639 33.9697C414.279 32.3997 414.819 30.8097 415.109 29.1397C415.389 27.4797 415.869 25.8697 416.309 24.2397C416.979 21.7197 417.519 19.1597 418.209 16.6497C419.439 12.1797 420.659 7.70971 422.289 3.35971C422.409 3.03971 422.539 2.72973 422.659 2.40973C423.029 1.42973 423.789 0.889715 424.819 0.829715C426.559 0.739715 428.309 0.75973 430.559 0.71973C431.189 0.67973 432.309 0.599737 433.439 0.539737C434.049 0.509737 434.659 0.489718 435.269 0.519718C436.349 0.569718 437.099 1.09973 437.389 2.09973C438.109 4.51973 439.239 6.80972 439.749 9.29972C439.949 10.2897 440.189 11.2797 440.569 12.2197C441.579 14.7297 442.319 17.3297 443.069 19.9097C443.169 20.2297 443.259 20.5597 443.409 20.8697C444.709 23.6397 445.399 26.5997 446.199 29.5197C446.459 30.4897 446.779 31.4597 447.189 32.3797C448.069 34.3997 448.629 36.5097 449.179 38.6297C449.789 40.9897 450.439 43.3397 451.059 45.6997C451.509 47.3997 451.939 49.1197 452.369 50.8297L452.389 50.7997ZM433.579 34.5397C434.809 34.3997 435.599 33.5097 435.479 32.3097C435.429 31.8197 435.239 31.3397 435.099 30.8597C434.789 29.8097 434.349 28.7897 434.169 27.7297C433.769 25.4597 432.619 23.4697 431.829 21.3497C431.719 21.0397 431.509 20.7497 431.299 20.4897C430.729 19.7797 429.589 19.8697 429.119 20.6697C428.909 21.0297 428.739 21.4197 428.569 21.8097C427.229 24.9197 426.799 28.2897 425.719 31.4797C425.669 31.6397 425.679 31.8097 425.669 31.9797C425.579 33.2797 426.149 34.1097 427.449 34.3297C428.619 34.5297 429.829 34.5697 430.459 34.6197C431.709 34.5997 432.389 34.5997 433.069 34.5797C433.239 34.5797 433.409 34.5697 433.579 34.5497V34.5397Z" fill="white"/>
<path d="M497.11 37.3097C496.92 41.1897 497.02 45.0597 496.94 48.9397C496.92 49.6097 496.88 50.2897 496.76 50.9497C496.53 52.1897 495.92 52.6697 494.66 52.6797C494.15 52.6797 493.64 52.6397 493.13 52.6297C491.77 52.6097 490.42 52.5197 489.08 52.9197C488.53 53.0797 487.9 53.0297 487.31 53.0197C486.11 53.0097 485.2 52.4397 484.54 51.4797C484.35 51.1997 484.16 50.9097 484.03 50.5997C483.02 48.1897 481.72 45.8997 480.99 43.3797C480.52 41.7497 479.88 40.2097 479.03 38.7297C478.49 37.7797 478.16 36.7197 477.74 35.7097C477.02 33.9997 476.31 32.2797 475.58 30.5697C475.45 30.2597 475.29 29.9597 475.11 29.6697C474.79 29.1597 474.42 28.6897 473.74 28.6497C473.2 28.6197 472.74 29.1397 472.48 30.0597C471.91 32.1197 471.8 34.1897 472.18 36.2997C472.37 37.3697 472.38 38.4697 472.41 39.5697C472.46 41.2497 472.41 42.9296 472.69 44.6096C473.01 46.5496 472.58 48.4797 472.24 50.3797C472.04 51.4697 471.29 52.1397 470.13 52.2697C468.86 52.4197 467.6 52.6997 466.34 52.6697C464.74 52.6397 463.14 52.3997 461.55 52.1397C461.24 52.0897 460.93 51.5997 460.78 51.2497C460.62 50.8797 460.62 50.4197 460.63 49.9997C460.67 47.8197 460.98 45.6297 460.38 43.4597C460.32 43.2297 460.41 42.9597 460.45 42.7097C461.07 38.9397 461.09 35.1797 460.45 31.3997C460.32 30.6697 460.33 29.8797 460.45 29.1397C460.99 25.7897 460.81 22.4297 460.55 19.0697C460.35 16.4797 460.11 13.8697 460.63 11.2697C460.82 10.2897 460.77 9.25967 460.78 8.24967C460.79 6.81967 460.75 5.37968 460.75 3.94968C460.75 3.52968 460.75 3.09967 460.79 2.68967C460.94 1.32967 461.48 0.649665 462.88 0.499665C465.31 0.239665 467.75 0.179674 470.19 0.539674C471.49 0.729674 472.4 1.40965 473.05 2.51965C474.08 4.27965 475.22 5.97967 476.21 7.74967C476.83 8.85967 477.32 10.0397 477.73 11.2297C478.28 12.8397 478.91 14.4097 479.9 15.7997C480.85 17.1497 481.24 18.7197 481.83 20.2097C482.17 21.0797 482.45 21.9597 483.12 22.6597C483.54 23.1097 484.06 23.2997 484.48 23.1297C484.92 22.9497 485.15 22.5997 485.19 22.1597C485.25 21.4897 485.29 20.8097 485.3 20.1397C485.35 17.1897 485.37 14.2397 485.43 11.2797C485.46 9.50966 485.43 7.75966 485.78 5.98966C486 4.84966 485.84 3.63966 485.87 2.45966C485.87 2.03966 485.87 1.61966 485.95 1.20966C486.03 0.749657 486.38 0.449679 486.84 0.419679C487.53 0.369679 488.24 0.389679 488.93 0.419679C491.11 0.499679 493.28 0.639651 495.46 0.359651C495.93 0.299651 496.51 0.459658 496.94 0.679658C497.28 0.859658 497.55 1.25967 497.72 1.62967C497.86 1.91967 497.82 2.28967 497.82 2.62967C497.76 5.48967 497.69 8.35967 497.61 11.2197C497.58 12.4797 497.48 13.7497 497.46 15.0097C497.4 18.7197 497.36 22.4197 497.31 26.1297C497.28 26.1297 497.31 33.5497 497.12 37.2497L497.11 37.3097Z" fill="white"/>
<path d="M570.4 26.1896C570.55 29.1096 570.4 32.0696 569.7 34.9696C569.34 36.4196 569.44 37.9796 569.27 39.4896C568.86 43.1496 567.68 46.5296 565.37 49.4696C563.64 51.6796 561.5 53.2396 558.67 53.7296C557.25 53.9696 555.83 54.2296 554.39 54.3196C547.59 54.7596 549.08 55.2296 541.96 54.6096C541.62 54.5796 541.28 54.5796 540.94 54.5696C540.94 54.5696 540.94 54.5896 540.94 54.5996C538.82 54.5096 536.7 54.4196 534.58 54.3296C534.24 54.3196 533.9 54.2896 533.57 54.2196C532.74 54.0296 532.24 53.4896 532.08 52.6796C532 52.2696 532.02 51.8396 532.03 51.4196C532.12 48.6396 532.21 45.8696 531.89 43.0896C531.76 41.9396 531.99 40.7396 532.1 39.5696C532.23 38.2296 532.56 36.8996 532.56 35.5596C532.56 28.3096 533.33 21.0896 533.47 13.8496C533.52 11.0696 533.59 8.28962 533.66 5.50962C533.67 5.00962 533.69 4.49961 533.73 3.99961C533.88 2.18961 534.25 1.78962 536.06 1.56962C536.57 1.50962 537.11 1.5196 537.62 1.5796C541.34 2.0696 545.07 2.32962 548.82 2.44962C551.09 2.51962 553.35 2.5996 555.62 2.6096C558.7 2.6396 561.39 3.8096 563.99 5.2096C564.43 5.4496 564.85 5.8096 565.16 6.2096C566.52 7.9596 567.87 9.71961 569.15 11.5296C569.53 12.0696 569.8 12.7496 569.89 13.3896C570.2 15.3796 570.65 17.3596 570.5 19.3896C570.33 21.6496 570.3 23.8996 570.41 26.1896H570.4ZM556.79 23.2696C556.84 21.7696 556.75 20.2396 556.56 18.7396C556.36 17.1396 555.5 15.7296 553.87 15.3196C551.86 14.8096 549.75 14.7096 547.72 15.3996C547.11 15.6096 546.7 16.0596 546.57 16.6696C546.34 17.7296 546.07 18.8096 546 19.8896C545.8 23.0796 545.69 26.2896 545.55 29.4796C545.5 29.4796 545.1 35.8696 544.96 39.0696C544.94 39.4896 544.94 39.9096 544.96 40.3296C545.03 41.4896 545.66 42.1996 546.84 42.3596C549 42.6596 551.09 42.5096 553.08 41.5296C554.83 40.6696 555.76 39.2596 556.08 37.3996C556.14 37.0696 556.15 36.7296 556.17 36.3896C556.38 32.0196 556.64 27.6396 556.79 23.2696Z" fill="white"/>
<path d="M593.03 36.7801C593.12 37.5201 593.12 38.3401 592.87 39.0301C591.98 41.4801 592.13 44.0101 592.18 46.5301C592.19 47.2001 592.14 47.8401 592.05 48.5101C591.77 50.6801 591.63 52.8701 591.42 55.0501C591.36 55.6301 591.34 56.2301 591.17 56.7901C591.09 57.0501 590.71 57.3801 590.46 57.3801C589.62 57.3901 588.75 57.3901 587.94 57.1901C586.27 56.7701 584.6 56.6201 582.9 56.8801C582.4 56.9501 581.88 56.9001 581.38 56.8601C580.36 56.7801 579.84 56.2801 579.84 55.2301C579.84 53.9701 579.95 52.7001 580.03 51.4501C580.2 48.7601 580.37 46.0701 580.54 43.3801C580.71 40.7701 580.87 38.1701 581.04 35.5601C581.08 35.5601 581.83 24.1301 582.06 18.4101C582.15 16.1501 582.3 13.9001 582.59 11.6501C582.78 10.1501 582.75 8.62009 582.83 7.11009C582.85 6.69009 582.89 6.27012 582.95 5.85012C583.09 4.89012 583.62 4.29011 584.62 4.19011C585.48 4.10011 586.4 4.05011 587.22 4.25011C589.09 4.70011 590.97 5.01011 592.89 5.13011C593.15 5.15011 593.41 5.22012 593.65 5.32012C594.26 5.56012 594.67 5.98012 594.69 6.64012C594.71 7.23012 594.69 7.82011 594.66 8.41011C594.54 11.1701 594.69 13.9401 594.14 16.6901C593.83 18.2401 593.97 19.8701 594 21.4701C594.04 23.6501 593.83 25.8401 593.52 28.0101C593.1 30.9301 592.66 33.8301 593.02 36.7901L593.03 36.7801Z" fill="white"/>
<path d="M644.209 60.22C644.439 60.71 644.029 61.25 643.479 61.26C643.309 61.26 643.139 61.28 642.969 61.26C640.179 60.92 637.399 60.58 634.589 60.77C633.159 60.86 632.169 60.14 631.609 58.84C631.379 58.3 631.129 57.76 630.919 57.21C630.379 55.78 629.739 54.41 628.769 53.21C628.399 52.75 628.089 52.23 627.869 51.69C627.319 50.36 626.589 49.13 625.849 47.89C625.329 47.03 624.989 46.06 624.649 45.11C623.869 42.95 622.689 40.99 621.479 39.05C621.169 38.55 620.779 38.08 620.359 37.66C619.189 36.51 617.309 37 616.889 38.55C616.839 38.71 616.799 38.88 616.789 39.04C616.609 42.83 615.469 46.5 615.419 50.3C615.409 51.31 615.359 52.3 615.459 53.32C615.569 54.48 615.439 55.68 615.209 56.83C614.999 57.88 614.329 58.64 613.079 58.62C612.409 58.61 611.689 58.8 611.059 58.64C609.139 58.18 607.189 58.09 605.239 57.97C604.989 57.95 604.729 57.93 604.479 57.88C604.059 57.81 603.709 57.41 603.719 56.99C603.739 56.4 603.759 55.81 603.839 55.23C604.319 51.55 604.509 47.87 604.409 44.15C604.329 40.96 604.789 37.76 605.009 34.57C606.149 30.63 605.779 26.54 606.299 22.54C606.359 22.05 606.369 21.52 606.289 21.03C606.139 20.09 606.339 19.21 606.499 18.29C606.909 15.89 607.199 13.47 606.929 11.01C606.789 9.77 606.959 8.48998 607.119 7.23998C607.249 6.23998 607.919 5.87998 608.999 5.95998C612.739 6.24998 616.479 6.54998 620.219 6.85998C620.219 6.88998 626.999 7.52999 630.389 7.80999C632.249 7.95999 633.979 8.46999 635.599 9.36999C636.809 10.05 638.029 10.71 639.199 11.44C640.939 12.54 642.119 14.1 642.849 15.96C643.399 17.38 643.899 18.82 644.319 20.28C644.499 20.91 644.509 21.62 644.459 22.28C644.329 24.22 643.949 26.12 643.049 27.88C642.659 28.63 642.269 29.38 641.949 30.16C641.079 32.29 639.489 33.77 637.509 34.89C636.619 35.39 635.689 35.83 634.769 36.28C632.919 37.19 632.549 38.05 633.419 39.92C634.029 41.22 634.709 42.51 635.529 43.68C636.899 45.65 638.059 47.67 638.729 49.98C639.009 50.92 639.589 51.83 640.209 52.62C642.029 54.92 643.009 57.63 644.229 60.22H644.209ZM629.459 20.31C629.479 19.31 628.929 18.54 628.009 18.09C627.479 17.83 626.889 17.64 626.299 17.54C625.539 17.41 624.749 17.39 623.979 17.32C623.209 17.26 622.429 17.18 621.649 17.13C621.389 17.11 621.129 17.13 620.869 17.15C619.229 17.33 618.259 18.27 617.959 19.87C617.709 21.22 617.989 22.54 618.169 23.86C618.279 24.66 618.849 25.26 619.609 25.53C621.819 26.32 624.099 26.71 626.439 26.24C627.939 25.94 628.869 24.98 629.159 23.55C629.369 22.49 629.429 21.39 629.449 20.3L629.459 20.31Z" fill="white"/>
<path d="M688.598 56.4005C688.848 56.5805 689.048 56.8605 689.208 57.1405C689.288 57.2705 689.268 57.4705 689.248 57.6405C688.958 59.9805 688.688 62.3305 688.348 64.6705C688.178 65.8905 687.508 66.4005 686.258 66.4405C686.008 66.4405 685.748 66.4305 685.498 66.4005C682.458 66.0605 679.408 65.7105 676.368 65.3705C675.098 65.2305 673.838 65.0505 672.568 64.9105C670.878 64.7205 669.178 64.6705 667.548 64.0705C667.158 63.9305 666.718 63.8905 666.288 63.8605C664.508 63.7505 662.698 63.8305 660.958 63.5205C659.198 63.2105 657.448 62.8305 655.658 62.8505C654.948 62.8505 654.308 62.7305 653.678 62.4405C652.998 62.1305 652.668 61.5705 652.528 60.8705C652.508 60.7905 652.528 60.7005 652.528 60.6205C652.668 57.8505 652.288 55.0605 652.858 52.3105C653.098 51.1605 653.438 50.0205 653.598 48.8605C654.008 45.7705 654.388 42.6705 654.708 39.5705C655.048 36.3005 655.268 33.0205 655.598 29.7405C655.898 26.8105 656.318 23.8805 656.598 20.9405C656.878 18.0905 657.038 15.2305 657.268 12.3705C657.408 10.6605 658.158 9.98048 659.768 10.3905C663.178 11.2705 666.688 11.3305 670.148 11.8005C671.358 11.9705 672.568 12.1505 673.788 12.2705C675.608 12.4505 677.448 12.7405 679.268 12.7005C682.528 12.6405 685.708 13.2105 688.918 13.5805C690.118 13.7205 691.298 14.1305 692.458 14.5105C693.158 14.7405 693.608 15.2705 693.688 16.0205C693.958 18.3005 693.828 20.5605 693.408 22.8105C693.358 23.0505 693.278 23.3105 693.158 23.5205C692.898 23.9705 692.528 24.3405 691.938 24.3405C691.328 24.3405 690.728 24.2905 690.118 24.2605C688.988 24.2105 687.858 24.2105 686.738 24.1105C685.618 24.0105 684.488 23.9105 683.398 23.6605C681.438 23.2205 679.478 22.9905 677.458 23.0205C675.728 23.0505 673.988 22.8205 672.258 22.7105C671.478 22.6605 670.698 22.5505 669.918 22.5805C668.948 22.6105 668.278 23.1705 668.118 24.1005C667.818 25.7605 667.618 27.4305 667.978 29.1205C668.148 29.9405 668.588 30.5105 669.398 30.7805C670.048 31.0005 670.708 31.2605 671.388 31.3405C672.678 31.4905 673.978 31.6405 675.268 31.5905C677.798 31.4905 680.278 31.8405 682.768 32.1505C684.038 32.3105 685.298 32.7005 686.538 33.0705C687.408 33.3205 687.738 33.9005 687.708 34.8105C687.708 34.9005 687.708 34.9805 687.698 35.0605C687.438 37.1505 687.198 39.2405 686.918 41.3305C686.788 42.3105 686.168 42.8505 685.178 42.8405C684.578 42.8405 683.978 42.7405 683.378 42.7005C682.428 42.6405 681.488 42.5205 680.538 42.5505C677.328 42.6605 674.198 42.2805 671.078 41.5205C670.168 41.3005 669.198 41.2405 668.268 41.2505C667.098 41.2705 666.258 41.9405 666.098 43.0505C665.698 45.8805 665.148 48.7005 665.498 51.6005C665.598 52.4505 665.948 53.0605 666.788 53.2905C667.938 53.6105 669.088 53.9805 670.258 54.1305C673.058 54.5005 678.688 55.0105 678.698 54.9705C681.748 55.3705 684.788 55.7705 687.838 56.1905C688.088 56.2305 688.388 56.2405 688.578 56.3705L688.598 56.4005Z" fill="white"/>
<path d="M740.012 31.1205C740.152 31.6005 739.872 31.9505 739.492 32.1705C739.122 32.3805 738.702 32.5205 738.302 32.6505C736.002 33.3805 733.692 34.1105 731.392 34.8405C731.062 34.9405 730.732 35.0705 730.392 35.1005C729.672 35.1705 729.012 35.0205 728.532 34.4105C727.842 33.5305 727.122 32.6805 726.472 31.7805C724.702 29.3605 722.222 29.0405 719.512 29.5405C717.872 29.8405 716.442 30.6705 715.052 31.5205C714.292 31.9805 713.792 32.6605 713.362 33.4005C712.772 34.4205 712.202 35.4605 711.612 36.4905C710.452 38.4905 709.692 40.6205 709.582 42.9005C708.942 46.1705 709.482 49.3105 710.462 52.4005C710.962 53.9705 711.782 55.3305 713.152 56.3205C714.052 56.9705 714.922 57.6605 715.852 58.2605C717.962 59.6305 720.152 59.7905 722.402 58.6205C722.852 58.3805 723.292 58.1105 723.742 57.8805C724.672 57.4305 725.322 57.5105 726.072 58.2305C726.492 58.6405 726.892 59.1005 727.212 59.5905C727.962 60.7305 728.822 61.7705 729.852 62.6705C730.422 63.1705 730.912 63.7705 731.372 64.3805C731.782 64.9305 731.672 65.7805 731.122 66.2205C729.392 67.5805 727.722 69.0205 725.442 69.4805C723.612 69.8505 721.862 70.4905 719.982 70.6905C718.252 70.8805 716.572 70.6905 714.932 70.2505C713.212 69.7805 711.532 69.1605 709.852 68.5505C708.892 68.2005 707.992 67.7205 707.332 66.8905C705.312 64.3805 703.272 61.8905 701.212 59.4105C699.812 57.7305 699.012 55.8005 698.712 53.6705C698.312 50.8405 697.942 48.0005 697.652 45.1505C697.292 41.7305 697.862 38.4505 699.322 35.3205C699.822 34.2505 700.352 33.1705 700.632 32.0405C700.942 30.7705 701.512 29.6805 702.322 28.6805C702.642 28.2805 703.002 27.8905 703.212 27.4405C704.262 25.1805 706.212 23.7905 708.232 22.4705C710.612 20.9205 713.122 19.6005 715.702 18.3705C717.082 17.7105 718.472 17.4605 720.002 17.6105C721.742 17.7705 723.482 17.8905 725.232 17.9405C726.242 17.9705 727.102 18.3905 727.962 18.7705C729.382 19.4205 730.762 20.1605 732.132 20.9305C732.732 21.2705 733.292 21.7005 733.792 22.1705C734.922 23.2405 736.042 24.3205 737.062 25.4705C738.512 27.1005 739.372 29.0405 739.992 31.0905L740.012 31.1205Z" fill="white"/>
<path d="M779.43 26.7005C781.66 27.3005 781.74 27.4304 781.35 29.7404C781.07 31.4004 780.8 33.0705 780.52 34.7305C780.45 35.1505 780.4 35.5705 780.31 35.9805C780.12 36.8905 779.59 37.3504 778.7 37.2504C777.23 37.0804 775.77 36.8404 774.31 36.6104C772.94 36.3904 771.57 36.0905 770.19 35.9105C769.11 35.7705 768.27 36.2704 767.98 37.2504C767.66 38.3004 767.4 39.3705 767.27 40.4505C766.59 45.8005 765.38 51.0705 764.8 56.4405C764.22 60.0205 763.67 63.6005 763.07 67.1705C762.69 69.4205 762.27 71.6505 761.86 73.8905C761.8 74.2205 761.76 74.5605 761.64 74.8805C760.9 76.8505 760.65 76.9605 758.63 76.5705C758.3 76.5005 757.96 76.4205 757.65 76.2905C756.36 75.7505 755.03 75.6305 753.65 75.6605C752.81 75.6805 751.95 75.5405 751.12 75.3805C750.29 75.2305 749.8 74.5904 749.83 73.7404C749.85 73.0704 749.94 72.4005 750.05 71.7305C750.44 69.3105 750.88 66.9104 751.25 64.4904C751.96 59.8204 752.62 55.1505 753.33 50.4805C753.51 49.3205 753.82 48.1904 754.17 47.0604C754.63 45.5404 754.94 43.9305 754.98 42.3505C755.02 40.7405 755.24 39.1604 755.43 37.5804C755.47 37.2504 755.49 36.9104 755.55 36.5804C755.9 34.5604 755 33.4205 752.91 32.8805C751.73 32.5805 750.52 32.4405 749.31 32.2305C748.2 32.0405 747.07 31.9005 745.96 31.6705C744.45 31.3505 744.11 30.8505 744.33 29.3205C744.63 27.2305 744.98 25.1504 745.34 23.0804C745.53 22.0104 746.05 21.6304 747.18 21.8104C749.51 22.1904 751.87 22.2305 754.19 22.7905C755.53 23.1105 756.96 23.1104 758.36 23.1504C759.34 23.1704 760.27 23.2804 761.2 23.5804C763.21 24.2204 765.28 24.5604 767.4 24.5604C768.29 24.5604 769.13 24.7005 769.97 24.9805C771.55 25.5205 773.19 25.8305 774.87 25.7905C775.94 25.7605 776.95 25.9005 777.95 26.2905C778.43 26.4805 778.96 26.5605 779.47 26.7005H779.43Z" fill="white"/>
<path d="M825.21 61.8002C825.08 63.1402 824.73 64.4202 824.14 65.6702C823.57 66.8802 823.28 68.2202 822.8 69.4802C822.6 70.0202 822.269 70.5302 821.939 71.0102C821.039 72.3402 820.06 73.6202 819.22 74.9802C818.13 76.7302 816.74 78.2102 815.12 79.4502C814.19 80.1602 813.09 80.7002 812 81.1402C809.87 81.9902 807.71 82.7902 805.51 83.4602C804.39 83.8002 803.16 83.9902 801.99 83.9402C799.15 83.8202 796.5 83.1102 793.96 81.7002C790.66 79.8702 788.21 77.2702 785.85 74.4502C783.99 72.2302 782.82 69.7802 782.4 66.9502C782.12 65.0302 781.75 63.1202 781.42 61.2102C781.06 59.1902 781.23 57.1802 781.4 55.1702C781.46 54.4202 781.64 53.6702 781.77 52.9202C781.93 50.9702 782.39 49.1002 783.24 47.3302C783.86 46.0402 784.43 44.7202 785.04 43.4302C785.62 42.2002 786.37 41.0802 787.38 40.1302C789.24 38.3802 791.09 36.6102 792.95 34.8502C793.76 34.0802 794.71 33.5402 795.77 33.1002C798.67 31.9102 801.64 31.0402 804.85 30.9602C806.27 30.9202 807.63 31.0202 808.99 31.4702C812.09 32.5002 814.95 33.9802 817.68 35.6902C819.25 36.6802 820.5 37.9702 821.28 39.6602C822.07 41.3602 822.97 43.0102 823.76 44.7102C824.15 45.5502 824.41 46.4602 824.68 47.3502C825.05 48.5602 825.36 49.7902 825.74 51.0102C825.94 51.6702 826.08 52.3102 826.01 53.0002C825.73 55.9302 825.51 58.8702 825.22 61.8002H825.21ZM813.87 56.2702C814.5 54.5402 814.02 52.0102 812.93 49.5302C812.59 48.7602 812.28 47.9602 811.96 47.1802C811.23 45.3602 809.84 44.1002 808.16 43.1202C805.87 41.7802 803.51 41.7502 801.2 42.9102C798.33 44.3602 796.28 46.5102 795.32 49.6002C794.75 51.4402 794.02 53.2302 793.46 55.0802C793.15 56.1102 792.87 57.2102 792.88 58.2802C792.89 59.8702 793.12 61.4602 793.35 63.0402C793.46 63.7802 793.72 64.5102 794.01 65.2102C794.44 66.2202 794.95 67.2002 795.43 68.1902C796.79 70.9802 799.44 72.4302 802.55 72.0802C804.56 71.8602 806.36 71.1802 807.79 69.7002C808.32 69.1502 808.88 68.6402 809.41 68.0902C810.18 67.2902 810.79 66.4202 811.18 65.3602C812.18 62.6802 813 59.9602 813.87 56.2702Z" fill="white"/>
<path d="M870.38 96.0495C870.55 96.5695 870.08 97.0595 869.53 96.9995C869.36 96.9795 869.19 96.9695 869.02 96.9295C866.28 96.2595 863.55 95.5895 860.72 95.4295C859.28 95.3495 858.38 94.5195 857.97 93.1495C857.8 92.5895 857.62 92.0195 857.48 91.4495C857.11 89.9695 856.641 88.5295 855.811 87.2195C855.501 86.7195 855.25 86.1595 855.09 85.5995C854.7 84.2095 854.12 82.8995 853.53 81.5895C853.11 80.6695 852.89 79.6695 852.66 78.6795C852.13 76.4395 851.2 74.3495 850.22 72.2795C849.97 71.7495 849.64 71.2295 849.27 70.7695C848.24 69.4895 846.31 69.7495 845.71 71.2295C845.65 71.3795 845.581 71.5495 845.561 71.7095C844.931 75.4495 843.35 78.9495 842.86 82.7195C842.73 83.7195 842.56 84.6995 842.54 85.7195C842.51 86.8795 842.24 88.0595 841.87 89.1695C841.53 90.1895 840.77 90.8595 839.53 90.6995C838.86 90.6095 838.13 90.6995 837.51 90.4795C835.65 89.7895 833.72 89.4695 831.79 89.1095C831.54 89.0595 831.29 88.9995 831.04 88.9295C830.63 88.8095 830.33 88.3695 830.39 87.9495C830.48 87.3695 830.58 86.7795 830.72 86.2095C831.64 82.6095 832.26 78.9795 832.61 75.2795C832.91 72.1095 833.75 68.9895 834.34 65.8395C835.95 62.0695 836.071 57.9595 837.061 54.0495C837.181 53.5695 837.25 53.0495 837.23 52.5495C837.19 51.5995 837.5 50.7495 837.76 49.8495C838.45 47.5095 839.03 45.1495 839.05 42.6695C839.06 41.4195 839.38 40.1695 839.69 38.9495C839.94 37.9795 840.65 37.6895 841.72 37.8995C845.42 38.6295 849.11 39.3796 852.8 40.1396C852.8 40.1696 859.48 41.6195 862.83 42.3095C864.67 42.6895 866.34 43.3995 867.84 44.4795C868.97 45.2895 870.101 46.0995 871.181 46.9695C872.781 48.2695 873.78 49.9695 874.28 51.8995C874.66 53.3795 874.99 54.8695 875.23 56.3695C875.34 57.0195 875.26 57.7195 875.13 58.3795C874.77 60.2895 874.17 62.1295 873.05 63.7695C872.57 64.4695 872.101 65.1695 871.681 65.8995C870.551 67.9095 868.79 69.1895 866.69 70.0595C865.74 70.4495 864.76 70.7795 863.79 71.1095C861.84 71.7895 861.36 72.5995 862.01 74.5595C862.46 75.9195 862.98 77.2795 863.66 78.5495C864.79 80.6695 865.7 82.8195 866.1 85.1895C866.26 86.1595 866.74 87.1295 867.26 87.9795C868.8 90.4795 869.46 93.2895 870.36 96.0095L870.38 96.0495ZM860.41 54.6495C860.55 53.6495 860.09 52.8295 859.23 52.2695C858.73 51.9495 858.17 51.6895 857.59 51.5195C856.84 51.2895 856.07 51.1895 855.3 51.0195C854.53 50.8595 853.77 50.6995 853 50.5495C852.75 50.4995 852.48 50.4795 852.22 50.4795C850.56 50.4595 849.49 51.2795 849 52.8395C848.59 54.1495 848.71 55.4895 848.74 56.8295C848.75 57.6395 849.25 58.2995 849.97 58.6595C852.08 59.7095 854.3 60.3695 856.7 60.1895C858.23 60.0695 859.27 59.2295 859.73 57.8495C860.07 56.8195 860.25 55.7295 860.4 54.6595L860.41 54.6495Z" fill="white"/>
<path d="M916.471 54.7302C916.671 54.9402 916.821 55.4302 916.701 55.6402C915.541 57.6702 915.001 60.0302 913.101 61.6802C912.281 62.3902 911.731 63.4002 911.141 64.3202C909.741 66.5302 908.391 68.7702 907.021 71.0002C906.751 71.4302 906.461 71.8502 906.231 72.3002C904.751 75.1602 902.971 77.8102 900.751 80.1802C899.751 81.2502 899.171 82.5502 898.861 83.9902C898.341 86.3802 897.731 88.7502 897.221 91.1402C897.041 91.9502 897.011 92.8002 896.921 93.6402C896.891 93.8902 896.921 94.1502 896.871 94.3902C896.311 96.8602 895.771 99.3302 895.161 101.78C894.911 102.81 894.301 103.2 893.281 103.05C892.521 102.94 891.781 102.71 890.691 102.46C888.831 101.88 886.621 101.2 884.431 100.5C883.651 100.25 883.321 99.7302 883.431 98.9502C883.511 98.3702 883.681 97.8002 883.811 97.2302C884.281 95.0902 884.751 92.9502 885.231 90.8102C885.931 87.6902 886.571 84.5402 887.391 81.4502C888.021 79.0902 887.981 76.8102 887.251 74.4802C886.521 72.1202 886.101 69.7102 886.181 67.2402C886.201 66.5702 886.141 65.8902 886.031 65.2202C885.621 62.6402 885.181 60.0602 884.721 57.4802C884.511 56.3102 884.431 55.1502 884.451 53.9602C884.481 52.4502 884.291 50.9302 884.201 49.4202C884.171 49.0002 884.111 48.5802 884.181 48.1702C884.211 47.9702 884.471 47.7902 884.671 47.6502C884.801 47.5602 885.011 47.5202 885.171 47.5402C887.171 47.7702 889.171 48.0102 891.171 48.2802C891.511 48.3202 891.871 48.4202 892.181 48.5702C894.531 49.6702 894.911 49.2202 895.561 52.2902C896.121 54.9502 896.641 57.6002 896.521 60.3202C896.491 61.0602 896.601 61.8302 896.791 62.5602C897.011 63.4002 898.031 63.6002 898.661 62.9702C898.951 62.6702 899.171 62.3102 899.421 61.9702C900.421 60.6102 901.381 59.2202 902.421 57.8902C903.461 56.5602 904.671 55.3402 905.211 53.6902C905.311 53.3802 905.571 53.1202 905.781 52.8502C906.051 52.4902 906.441 52.3102 906.911 52.3502C907.261 52.3802 907.611 52.4302 907.951 52.5102C909.661 52.9102 911.361 53.2902 913.131 53.3902C914.351 53.4602 915.581 53.8102 916.461 54.7502L916.471 54.7302Z" fill="white"/>
</g>
<defs>
<clipPath id="clip0_2006_1682">
<rect width="917" height="670" fill="white"/>
</clipPath>
</defs>
</svg>
