<svg width="1122" height="902" viewBox="0 0 1122 902" fill="none" xmlns="http://www.w3.org/2000/svg">
<g clip-path="url(#clip0_2006_3369)">
<g clip-path="url(#clip1_2006_3369)">
<path d="M561.121 30.8101C485.971 30.8401 398.311 35.9001 301.571 51.0301C210.201 65.3201 129.101 85.7101 59.6609 107.4C42.2809 112.83 30.4609 128.92 30.4609 147.12V475.19C30.4609 498.17 49.0909 516.81 72.0809 516.81H95.5109C118.491 516.81 137.131 535.44 137.131 558.43V677.86C137.131 700.84 155.761 719.48 178.751 719.48H229.511C241.581 719.48 253.081 724.7 260.961 733.84C281.631 757.81 310.861 786.01 350.471 810.81C436.101 864.42 520.581 871.06 561.141 871.48" fill="white"/>
<path d="M561.121 30.8101C485.971 30.8401 398.311 35.9001 301.571 51.0301C210.201 65.3201 129.101 85.7101 59.6609 107.4C42.2809 112.83 30.4609 128.92 30.4609 147.12V475.19C30.4609 498.17 49.0909 516.81 72.0809 516.81H95.5109C118.491 516.81 137.131 535.44 137.131 558.43V677.86C137.131 700.84 155.761 719.48 178.751 719.48H229.511C241.581 719.48 253.081 724.7 260.961 733.84C281.631 757.81 310.861 786.01 350.471 810.81C436.101 864.42 520.581 871.06 561.141 871.48" stroke="white" stroke-width="60" stroke-miterlimit="10"/>
<path d="M561.121 30.8101C485.971 30.8401 398.311 35.9001 301.571 51.0301C210.201 65.3201 129.101 85.7101 59.6609 107.4C42.2809 112.83 30.4609 128.92 30.4609 147.12V475.19C30.4609 498.17 49.0909 516.81 72.0809 516.81H95.5109C118.491 516.81 137.131 535.44 137.131 558.43V677.86C137.131 700.84 155.761 719.48 178.751 719.48H229.511C241.581 719.48 253.081 724.7 260.961 733.84C281.631 757.81 310.861 786.01 350.471 810.81C436.101 864.42 520.581 871.06 561.141 871.48" stroke="black" stroke-width="20" stroke-miterlimit="10"/>
</g>
<g clip-path="url(#clip2_2006_3369)">
<path d="M560.746 30.8101C635.896 30.8401 723.556 35.9001 820.296 51.0301C911.666 65.3201 992.766 85.7101 1062.21 107.4C1079.59 112.83 1091.41 128.92 1091.41 147.12V475.19C1091.41 498.17 1072.78 516.81 1049.79 516.81H1026.36C1003.38 516.81 984.736 535.44 984.736 558.43V677.86C984.736 700.84 966.106 719.48 943.116 719.48H892.356C880.286 719.48 868.786 724.7 860.906 733.84C840.236 757.81 811.006 786.01 771.396 810.81C685.766 864.42 601.286 871.06 560.726 871.48" fill="white"/>
<path d="M560.746 30.8101C635.896 30.8401 723.556 35.9001 820.296 51.0301C911.666 65.3201 992.766 85.7101 1062.21 107.4C1079.59 112.83 1091.41 128.92 1091.41 147.12V475.19C1091.41 498.17 1072.78 516.81 1049.79 516.81H1026.36C1003.38 516.81 984.736 535.44 984.736 558.43V677.86C984.736 700.84 966.106 719.48 943.116 719.48H892.356C880.286 719.48 868.786 724.7 860.906 733.84C840.236 757.81 811.006 786.01 771.396 810.81C685.766 864.42 601.286 871.06 560.726 871.48" stroke="white" stroke-width="60" stroke-miterlimit="10"/>
<path d="M560.746 30.8101C635.896 30.8401 723.556 35.9001 820.296 51.0301C911.666 65.3201 992.766 85.7101 1062.21 107.4C1079.59 112.83 1091.41 128.92 1091.41 147.12V475.19C1091.41 498.17 1072.78 516.81 1049.79 516.81H1026.36C1003.38 516.81 984.736 535.44 984.736 558.43V677.86C984.736 700.84 966.106 719.48 943.116 719.48H892.356C880.286 719.48 868.786 724.7 860.906 733.84C840.236 757.81 811.006 786.01 771.396 810.81C685.766 864.42 601.286 871.06 560.726 871.48" stroke="black" stroke-width="20" stroke-miterlimit="10"/>
</g>
<path d="M326.439 636.47C326.189 636.47 325.939 636.47 325.689 636.47C320.339 636.37 319.169 635.47 318.109 630.27C316.669 623.21 315.439 616.12 313.919 609.08C313.189 605.7 312.059 602.39 310.949 599.1C310.739 598.49 309.789 597.84 309.119 597.78C308.619 597.73 307.709 598.48 307.519 599.05C306.459 602.27 305.399 605.5 304.639 608.8C302.719 617.11 301.019 625.47 299.049 633.77C298.809 634.76 297.489 636.24 296.669 636.23C291.709 636.21 286.739 635.89 281.789 635.52C279.479 635.34 278.369 633.61 277.919 631.54C277.039 627.49 276.309 623.42 275.419 619.37C273.999 612.91 272.599 606.44 270.949 600.03C270.599 598.66 270.379 596.23 268.109 596.6C266.189 596.92 266.169 598.92 265.899 600.6C264.819 607.31 263.649 614 262.469 620.69C261.879 624.03 261.169 627.35 260.599 630.7C259.949 634.54 259.439 635.3 255.609 635.47C251.399 635.66 247.179 635.47 242.959 635.36C241.169 635.31 240.259 634.32 240.579 632.43C241.179 628.87 241.749 625.3 242.339 621.74C242.609 620.11 242.869 618.47 243.169 616.85C244.239 611.08 245.379 605.32 246.409 599.55C248.089 590.1 249.579 580.62 251.379 571.2C252.969 562.9 254.769 554.64 256.739 546.43C256.999 545.36 258.769 543.9 259.849 543.89C266.069 543.81 272.319 543.93 278.519 544.42C279.719 544.51 281.479 546.37 281.759 547.68C283.369 555.05 284.599 562.49 285.969 569.91C286.289 571.62 286.519 573.35 287.029 575.01C287.229 575.65 288.049 576.48 288.619 576.51C289.249 576.55 290.259 575.91 290.539 575.31C291.329 573.59 292.029 571.79 292.429 569.94C294.029 562.51 295.469 555.04 297.029 547.6C297.439 545.64 298.419 544.35 300.749 543.91C306.299 542.85 311.829 542.78 317.399 543.48C320.569 543.88 321.379 544.97 321.979 548.07C323.489 555.88 325.229 563.64 326.779 571.44C327.389 574.53 327.569 577.7 328.219 580.78C330.869 593.41 333.699 605.99 336.289 618.63C337.189 623.01 337.609 627.48 338.149 631.93C338.389 633.94 337.589 635.23 335.329 635.48C332.369 635.82 329.419 636.36 326.469 636.81C326.449 636.7 326.439 636.6 326.419 636.49L326.439 636.47Z" fill="black"/>
<path d="M818.789 588.93C818.789 601.47 818.809 614 818.769 626.54C818.769 628.53 818.569 630.51 818.399 632.5C818.249 634.24 817.259 635.17 815.489 635.32C811.439 635.66 807.399 636.02 803.359 636.39C800.249 636.67 797.929 635.31 796.689 632.6C794.349 627.5 792.299 622.27 790.079 617.11C788.179 612.71 786.219 608.33 784.279 603.95C783.139 601.38 782.129 598.74 780.779 596.28C780.219 595.27 778.919 594.67 777.949 593.88C777.219 594.81 776.139 595.65 775.839 596.7C775.359 598.43 775.139 600.32 775.239 602.12C775.559 608.5 776.279 614.86 776.419 621.23C776.499 625.08 775.919 628.96 775.329 632.79C775.199 633.66 773.929 634.76 772.969 635.03C767.929 636.46 762.819 636.62 757.699 635.24C755.719 634.7 755.479 633.25 755.489 631.57C755.559 624.44 755.629 617.31 755.699 610.19C755.699 609.86 755.739 609.53 755.729 609.19C755.429 596.26 754.969 583.33 754.869 570.39C754.809 562.77 755.259 555.14 755.619 547.51C755.709 545.62 756.869 544.2 758.969 544.17C763.209 544.11 767.449 544.08 771.679 544.2C774.199 544.27 775.709 546.06 776.769 548.1C779.919 554.18 783.029 560.28 786.049 566.43C788.349 571.1 790.469 575.86 792.709 580.56C793.059 581.29 793.509 582.03 794.089 582.6C795.539 584.04 797.119 583.61 797.569 581.6C797.869 580.24 797.919 578.8 797.939 577.39C798.069 567.43 798.149 557.47 798.249 547.5C798.279 544.33 798.789 543.7 802.009 543.53C806.159 543.31 810.309 543.2 814.469 543.15C817.389 543.11 818.539 544.35 818.589 547.83C818.669 553.97 818.559 560.12 818.549 566.26C818.539 573.81 818.549 581.37 818.549 588.92C818.619 588.92 818.699 588.92 818.769 588.92L818.789 588.93Z" fill="black"/>
<path d="M351.46 577.07C351.46 567.52 351.45 557.97 351.46 548.42C351.46 544.94 352.33 543.85 355.71 543.58C359.85 543.25 364.02 543.04 368.17 543.04C371.27 543.04 372.5 544.76 372.39 547.62C372.14 554.66 372.02 561.7 371.91 568.74C371.82 574.46 371.66 580.19 371.78 585.92C371.94 593.06 372.31 600.19 372.69 607.32C372.88 610.83 375.44 613.85 378.89 614.96C383.8 616.55 388.05 615.44 391.06 611.76C393.66 608.58 394.57 604.95 394.34 600.86C394.02 595.33 393.87 589.78 393.84 584.24C393.78 572.87 393.9 561.51 393.82 550.14C393.79 545.83 394.41 544.84 398.71 543.85C402.82 542.9 406.9 542.77 411.06 543.73C413.37 544.26 414.22 545.35 414.18 547.65C414.03 555.12 413.92 562.6 413.97 570.07C414.03 578.62 414.51 587.17 414.35 595.71C414.23 602.49 413.57 609.28 412.89 616.04C412.28 622.15 408.81 626.57 403.78 629.87C401.36 631.46 399.01 633.23 396.44 634.52C394.5 635.5 392.23 636.43 390.13 636.37C383.67 636.19 377.2 635.68 370.78 634.95C368.84 634.73 366.63 633.8 365.22 632.48C361.67 629.15 358 625.76 355.32 621.77C351.76 616.45 351.64 609.96 351.48 603.75C351.25 594.87 351.42 585.98 351.42 577.09C351.42 577.09 351.43 577.09 351.44 577.09L351.46 577.07Z" fill="black"/>
<path d="M731.78 635.79C730.28 635.79 728.78 635.8 727.29 635.79C722.72 635.75 721.9 634.99 720.76 630.65C719.96 627.61 718.89 624.64 717.84 621.68C716.67 618.38 714.15 616.82 710.73 616.94C704.49 617.16 698.26 617.46 692.03 617.87C688.56 618.1 687.61 621 686.61 623.64C685.52 626.5 684.46 629.38 683.64 632.32C683.09 634.29 682.02 635.42 680.04 635.5C675.89 635.66 671.73 635.81 667.58 635.74C664.85 635.69 664.12 634.81 664.71 632.09C665.66 627.65 666.77 623.22 668.07 618.87C671.25 608.27 674.69 597.75 677.82 587.13C680.36 578.49 682.47 569.71 685.02 561.07C686.44 556.24 688.37 551.56 690.07 546.82C690.7 545.06 691.93 544.17 693.83 544.15C699.24 544.08 704.64 543.92 710.05 543.9C713.84 543.89 714.53 544.55 715.61 548.21C718.73 558.75 721.78 569.32 725.05 579.81C727.82 588.72 731 597.51 733.73 606.43C735.47 612.12 736.72 617.96 738.17 623.74C738.88 626.55 739.51 629.38 740.27 632.17C740.93 634.63 740.3 635.66 737.78 635.75C735.79 635.82 733.79 635.76 731.79 635.76C731.79 635.76 731.79 635.78 731.79 635.79H731.78ZM704.37 604.08C704.37 604.08 704.38 603.99 704.39 603.94C705.14 603.94 705.89 603.98 706.63 603.94C710.39 603.71 711.88 601.45 710.67 597.89C710.43 597.19 710.36 596.43 710.13 595.73C708.54 590.88 707.04 586 705.23 581.23C704.79 580.07 703.32 579.29 702.33 578.34C701.36 579.39 699.94 580.28 699.5 581.52C697.64 586.81 695.98 592.17 694.43 597.56C693.44 600.99 694.9 602.93 698.46 603.38C700.43 603.63 702.41 603.86 704.38 604.1L704.37 604.08Z" fill="black"/>
<path d="M869.05 636.63C861.6 636.11 854.82 635.3 849.38 631.26C845.26 628.2 841.95 624.01 838.51 620.12C837.41 618.88 837.63 617.21 839.46 616.15C843.55 613.79 847.55 611.28 851.62 608.89C853.55 607.76 855.14 608.36 856.79 609.78C859.21 611.87 861.74 613.9 864.47 615.54C866.79 616.93 869.32 616.26 871.56 614.86C873.65 613.55 874.28 610.25 872.34 608.3C869.92 605.86 867.23 603.53 864.28 601.79C855.38 596.54 846.79 590.97 839.93 583.1C834.77 577.18 833.76 564.26 838.13 558.06C839.99 555.42 841.54 552.57 843.41 549.95C845.85 546.53 849.3 544.68 853.46 544.15C857.08 543.69 860.69 543.02 864.32 542.82C869.48 542.54 873.87 545.13 878.45 547.05C884.61 549.64 889.2 553.77 892.37 559.59C893.66 561.95 893.47 563.22 891.17 564.5C887.27 566.67 883.31 568.73 879.35 570.8C877.25 571.9 875.69 571.03 874.44 569.27C872.35 566.32 869.56 564.35 866.08 563.37C863.33 562.59 860.71 562.97 858.59 564.87C856.84 566.44 856.24 568.85 857.26 570.82C858.36 572.94 860.01 575.1 861.98 576.36C866.57 579.29 871.52 581.67 876.3 584.31C882.07 587.49 886.72 592.05 890.81 597.05C892.6 599.24 893.13 602.46 894.23 605.22C896.74 611.52 894.66 617.05 891.23 622.29C888.7 626.14 886.87 630.66 882.48 632.89C878.05 635.14 873.53 637.33 869.04 636.62L869.05 636.63Z" fill="black"/>
<path d="M466.141 636.69C457.411 636.19 450.491 635.28 444.911 631.13C440.861 628.11 437.641 623.95 434.281 620.09C433.171 618.82 433.431 617.19 435.261 616.14C439.351 613.78 443.351 611.27 447.431 608.89C449.241 607.83 450.801 608.3 452.411 609.66C454.911 611.78 457.481 613.89 460.271 615.57C462.581 616.96 465.121 616.29 467.351 614.86C469.511 613.48 470.001 610.14 467.921 608.09C465.531 605.73 462.891 603.48 460.011 601.79C451.101 596.56 442.531 590.95 435.661 583.09C430.531 577.21 429.441 564.27 433.921 558.06C436.611 554.32 438.841 549.96 442.291 547.11C447.261 543 453.871 543.02 460.121 542.79C465.411 542.6 469.821 545.28 474.481 547.19C480.511 549.67 484.881 553.83 488.041 559.43C489.431 561.89 489.281 563.2 486.881 564.54C482.981 566.71 479.031 568.78 475.071 570.84C472.971 571.93 471.411 571.04 470.171 569.27C468.261 566.53 465.691 564.65 462.531 563.58C459.571 562.58 456.691 562.78 454.341 564.92C452.521 566.57 451.861 569.2 453.111 571.08C454.791 573.6 457.101 575.97 459.651 577.61C464.301 580.59 469.561 582.65 474.161 585.71C479.601 589.34 484.961 593.42 487.891 599.46C489.591 602.97 490.681 606.99 491.021 610.87C491.241 613.44 490.001 616.35 488.771 618.78C486.821 622.59 484.711 626.44 481.971 629.69C477.461 635.05 471.021 636.38 466.151 636.7L466.141 636.69Z" fill="black"/>
<path d="M584.179 542.98C595.899 541.71 611.309 551.75 614.879 561.39C615.159 562.15 614.649 563.84 614.009 564.2C609.759 566.58 605.409 568.83 600.989 570.88C599.179 571.72 597.379 571.34 595.769 569.74C593.779 567.77 591.699 565.69 589.259 564.41C584.769 562.05 580.579 564.03 576.569 566.25C572.339 568.59 570.469 572.56 568.859 576.82C566.079 584.18 565.489 591.56 567.379 599.26C569.439 607.66 574.149 613.56 582.489 616.15C586.079 617.26 589.509 616.34 592.599 614.1C596.199 611.49 596.599 611.61 599.989 614.71C602.559 617.06 605.249 619.28 607.809 621.64C609.699 623.38 609.639 624.67 608.059 626.55C604.259 631.03 599.149 633.2 593.809 635.23C586.389 638.06 579.199 636.33 572.019 634.67C570.209 634.25 568.509 632.84 567.039 631.56C564.219 629.11 561.719 626.29 558.879 623.87C554.179 619.87 550.819 615.15 549.569 609C548.469 603.57 546.899 598.23 546.049 592.76C545.289 587.9 546.249 583.06 547.369 578.24C548.709 572.49 550.419 566.9 553.339 561.77C556.419 556.37 561.639 553.09 566.269 549.21C571.699 544.65 577.779 542.42 584.179 542.96V542.98Z" fill="black"/>
<path d="M508.73 589.96C508.73 576.01 508.73 562.06 508.73 548.1C508.73 544.33 509.98 542.88 513.8 543.03C518.02 543.21 522.24 543.78 526.44 544.27C528.12 544.47 528.75 545.7 528.81 547.3C528.89 549.79 529.07 552.28 529.07 554.77C529.07 565.87 528.99 576.98 529.05 588.08C529.07 592.05 529.43 596.01 529.62 599.97C529.67 601.04 529.71 602.12 529.66 603.19C529.47 607.31 529.15 611.43 529.05 615.55C528.89 621.61 528.87 627.67 528.8 633.72C528.78 635.73 527.75 636.48 525.8 636.45C521.56 636.4 517.321 636.45 513.091 636.47C509.561 636.49 508.77 635.79 508.76 632.3C508.73 624.24 508.74 616.19 508.73 608.13C508.73 602.07 508.73 596 508.73 589.94V589.96Z" fill="black"/>
<path d="M630.139 589.94C630.139 575.99 630.139 562.04 630.139 548.09C630.139 544.31 631.379 542.88 635.189 543.04C639.409 543.21 643.649 543.67 647.809 544.39C648.749 544.55 649.899 546.22 650.109 547.36C650.529 549.62 650.439 551.99 650.439 554.31C650.449 565.58 650.379 576.84 650.439 588.11C650.459 592.08 650.829 596.04 651.009 600C651.059 601.07 651.089 602.15 651.039 603.22C650.849 607.34 650.529 611.45 650.429 615.58C650.269 621.64 650.249 627.69 650.189 633.75C650.169 635.77 649.119 636.49 647.179 636.47C642.939 636.42 638.699 636.47 634.469 636.49C630.969 636.51 630.169 635.8 630.159 632.29C630.129 618.17 630.149 604.06 630.149 589.94H630.129H630.139Z" fill="black"/>
<path d="M417.492 737.73C419.992 731.68 422.532 725.65 424.972 719.58C425.732 717.71 426.692 716.99 428.862 717.9C436.472 721.05 444.212 723.8 451.972 726.39C453.952 727.05 455.852 727.76 455.752 730.47C455.572 735.86 454.222 736.9 448.742 735.2C444.522 733.88 440.352 732.41 436.142 731.03C433.392 730.12 432.182 730.69 431.412 732.93C430.342 736.06 430.802 737.23 433.782 738.35C437.342 739.68 440.982 740.78 444.542 742.06C447.592 743.15 447.872 743.82 447.012 746.64C445.572 751.36 445.312 751.61 440.062 750.2C436.682 749.28 433.372 748.07 430.112 746.76C427.692 745.79 426.252 746.33 425.452 748.43C425.422 748.51 425.382 748.58 425.352 748.66C422.492 754.77 422.952 755.8 430.102 758.4C434.222 759.88 438.332 761.37 442.492 762.66C444.972 763.42 445.642 764.74 444.872 766.76C444.692 767.23 444.612 767.72 444.452 768.19C443.192 772.01 442.442 772.37 437.992 770.9C429.522 768.1 421.122 765.01 412.802 761.63C409.042 760.09 408.532 759.35 409.822 756.06C412.232 749.89 414.852 743.81 417.392 737.69C417.422 737.7 417.462 737.72 417.492 737.73Z" fill="black"/>
<path d="M708.313 731.37C709.463 734.3 710.623 737.23 711.763 740.16C712.383 741.76 713.503 742.38 715.493 742.13C718.913 741.72 722.143 744.09 722.063 747.27C722.033 748.33 720.843 749.81 719.743 750.5C717.333 752.02 716.373 753.57 717.693 755.84C717.903 756.2 717.983 756.62 718.153 756.99C720.313 761.96 719.373 763.61 712.053 765.64C710.923 765.95 709.013 764.57 708.063 763.52C707.083 762.45 706.843 760.82 706.243 759.46C705.173 757.03 703.673 756.46 700.783 757.44C695.863 759.11 690.913 760.65 685.993 762.26C683.443 763.09 681.783 762.34 681.343 760.3C680.803 757.86 680.063 755.11 680.783 752.8C683.463 744.12 686.353 735.53 688.843 726.91C689.123 725.93 689.873 724.63 690.713 724.3C694.393 722.87 698.153 721.55 701.953 720.43C702.623 720.23 704.163 721.32 704.563 722.16C705.973 725.15 707.063 728.29 708.273 731.37C708.283 731.37 708.303 731.36 708.313 731.35V731.37ZM700.153 741.41C700.153 741.41 700.203 741.39 700.223 741.38C699.723 739.99 699.303 738.56 698.673 737.22C698.443 736.72 697.713 736.1 697.233 736.14C696.723 736.18 695.973 736.87 695.803 737.4C694.723 740.77 693.563 744.15 692.713 747.58C692.203 749.59 693.583 750.43 695.833 749.81C701.443 748.24 701.863 747.56 700.503 742.59C700.393 742.19 700.263 741.8 700.143 741.41H700.153Z" fill="black"/>
<path d="M629.842 761.84C630.482 765.85 631.262 769.83 631.712 773.86C632.062 776.97 631.222 779.97 629.092 782.65C625.112 787.66 618.982 788.96 612.842 788.48C605.342 787.89 601.172 783.32 600.612 776.74C599.992 769.65 599.372 762.55 598.942 755.45C598.532 747.92 603.322 741.86 611.452 740.96C614.902 740.58 618.172 740.59 621.382 742.06C625.042 743.74 627.252 746.54 628.022 750.3C628.802 754.11 629.292 757.98 629.902 761.82C629.882 761.82 629.852 761.82 629.832 761.83L629.842 761.84ZM619.932 764.06C619.932 764.06 620.002 764.06 620.042 764.05C619.622 760.94 619.272 757.81 618.772 754.7C618.292 751.7 615.892 750.02 612.892 750.37C609.982 750.71 608.702 752.31 609.022 755.78C609.582 761.88 610.242 767.97 610.972 774.06C611.322 777.05 613.922 779.07 616.622 778.69C619.652 778.26 621.482 775.8 621.082 772.67C620.722 769.8 620.322 766.92 619.942 764.05L619.932 764.06Z" fill="black"/>
<path d="M572.112 791.47C568.092 791.51 564.052 791.63 560.052 791.38C555.992 791.12 554.792 789.84 555.212 786.36C555.712 782.12 555.622 777.83 558.192 773.89C561.392 768.97 566.452 766.42 571.412 763.63C572.782 762.86 574.332 762.37 575.652 761.55C577.952 760.12 578.762 757.49 577.572 756.02C576.362 754.52 573.172 754.54 571.102 755.99C569.832 756.89 568.312 758.62 567.242 758.41C564.842 757.93 562.562 756.62 560.512 755.27C559.942 754.89 559.792 752.93 560.282 752.31C566.682 744.42 574.592 741.09 584.212 746.98C587.932 749.26 590.112 756.66 588.872 760.79C586.952 767.16 581.422 769.98 575.752 772.93C573.292 774.22 571.092 776.08 569.092 777.96C568.332 778.67 568.172 780.34 568.512 781.36C568.692 781.91 570.512 782.3 571.612 782.3C576.482 782.34 581.352 782.21 586.212 781.88C588.422 781.73 589.172 782.4 589.252 784.33C589.502 790.24 589.282 790.66 582.452 791.24C579.022 791.52 575.562 791.46 572.112 791.5C572.112 791.49 572.112 791.48 572.112 791.46V791.47Z" fill="black"/>
<path d="M659.43 781.36C655.48 782.25 651.54 783.2 647.55 783.81C643.08 784.49 641.64 783.42 641.34 779.5C640.99 775.16 640.12 770.92 642.04 766.46C644.26 761.31 648.54 757.98 652.56 754.35C653.99 753.06 655.62 751.98 656.97 750.63C658.57 749.03 658.55 747.02 657.01 745.69C655.6 744.47 653.59 744.53 651.97 745.94C651.2 746.61 650.31 747.32 649.92 748.19C648.91 750.44 647.11 750.5 645.08 750.12C644.57 750.02 644.09 749.8 643.58 749.67C638.05 748.21 637.69 747.14 641.02 742.57C643.04 739.77 645.18 737.27 648.54 735.59C652.91 733.41 656.9 734.23 661.21 735.09C665.27 735.9 669.6 744.1 669.23 747.82C668.57 754.44 663.81 758.39 658.85 762.49C656.64 764.32 654.66 766.63 653.24 769.02C651.58 771.8 653.21 773.39 656.64 772.64C661.42 771.6 666.2 770.45 670.91 769.1C673 768.5 673.95 768.87 674.46 770.8C675.98 776.63 675.93 776.98 669.27 779.01C666.04 779.98 662.72 780.63 659.43 781.38V781.37V781.36Z" fill="black"/>
<path d="M468.472 779.68C462.122 777.98 457.512 774.41 454.842 769.07C453.692 766.78 454.162 765.85 456.732 765.29C457.622 765.09 458.522 764.94 459.402 764.72C464.002 763.59 464.552 763.85 467.242 767.36C468.172 768.57 470.542 769.27 472.332 769.51C474.262 769.76 475.112 767.77 473.692 766.06C471.552 763.48 469.012 761.18 466.812 758.65C464.672 756.19 462.492 753.73 460.772 751.04C457.862 746.49 459.052 740.63 462.972 737.18C469.512 731.43 477.032 731.48 483.882 737.12C486.432 739.22 488.642 741.38 489.752 744.56C490.372 746.34 490.092 747.25 488.162 747.61C487.222 747.78 486.212 747.84 485.382 748.23C482.242 749.69 480.122 748.91 478.312 745.93C476.942 743.67 473.302 742.88 471.862 744C470.202 745.3 470.752 748.34 473.012 750.41C475.912 753.07 479.142 755.49 481.742 758.39C486.852 764.07 489.512 770.7 481.462 777.13C477.642 780.14 473.472 780.92 468.482 779.7L468.472 779.68Z" fill="black"/>
<path d="M504.971 768.54C505.741 763.72 506.571 758.9 507.261 754.06C507.781 750.38 506.961 749.44 503.191 748.72C503.111 748.7 503.021 748.69 502.931 748.67C496.951 747.53 496.361 746.42 498.351 740.94C498.981 739.2 500.351 739.11 501.881 739.36C507.871 740.36 513.871 741.22 519.881 741.95C522.331 742.25 524.781 742.6 527.241 742.86C529.221 743.07 530.071 744.19 530.091 746.04C530.091 746.29 530.091 746.54 530.091 746.79C529.911 752.35 529.711 752.56 523.921 751.93C519.261 751.4 518.821 751.63 518.211 756.04C516.971 765.15 515.821 774.27 514.621 783.38C514.131 787.16 513.251 788.32 508.401 787.36C502.041 786.07 502.001 786.27 502.921 780.79C503.601 776.71 504.231 772.61 504.891 768.52C504.921 768.52 504.951 768.53 504.981 768.53L504.971 768.54Z" fill="black"/>
<path d="M901.449 343.473H1023.8" stroke="black" stroke-width="9" stroke-miterlimit="10"/>
<path d="M901.449 372.473H1023.8" stroke="black" stroke-width="9" stroke-miterlimit="10"/>
<path d="M901.449 314.253H1023.8" stroke="black" stroke-width="9" stroke-miterlimit="10"/>
<path d="M901.449 430.473H1023.8" stroke="black" stroke-width="9" stroke-miterlimit="10"/>
<path d="M901.449 401.473H1023.8" stroke="black" stroke-width="9" stroke-miterlimit="10"/>
<path d="M112 343.473H234.34" stroke="black" stroke-width="9" stroke-miterlimit="10"/>
<path d="M112 372.473H234.34" stroke="black" stroke-width="9" stroke-miterlimit="10"/>
<path d="M112 314.253H234.34" stroke="black" stroke-width="9" stroke-miterlimit="10"/>
<path d="M112 430.473H234.34" stroke="black" stroke-width="9" stroke-miterlimit="10"/>
<path d="M112 401.473H234.34" stroke="black" stroke-width="9" stroke-miterlimit="10"/>
<path d="M446.048 446.906C446.723 453.468 446.547 460.11 446.601 466.726C446.615 468.914 444.792 470.548 442.456 470.723C440.66 470.858 438.851 470.858 437.042 470.804C428.617 470.588 420.178 470.183 411.834 471.857C410.672 472.087 409.43 471.965 408.229 471.857C406.244 471.695 404.921 470.575 404.218 468.725C402.571 464.391 402.247 459.827 403.071 455.371C404.826 445.812 404.813 436.198 404.407 426.585C404.016 417.282 403.192 408.006 402.612 398.703C402.396 395.287 400.694 393.181 397.494 392.074C388.232 388.874 378.659 388.172 369.005 388.995C364.32 389.4 361.498 392.438 360.323 396.988C357.731 407.034 357.285 417.133 359.203 427.368C359.756 430.298 360.04 433.322 360.053 436.306C360.08 444.138 359.918 451.955 359.743 459.786C359.702 461.879 359.513 463.986 359.081 466.038C358.028 471.169 356.867 472.114 351.858 472.181C347.942 472.222 344.026 472.181 340.111 472.181V471.844C335.291 471.844 330.47 472.033 325.664 471.79C320.627 471.547 318.859 469.724 317.886 464.661C317.778 464.08 317.711 463.473 317.67 462.865C317.103 453.873 316.442 444.88 316.01 435.874C315.794 431.378 316.334 426.909 316.887 422.413C318.386 410.126 318.129 397.772 316.617 385.485C315.942 380.057 315.875 374.778 316.725 369.35C318.183 360.101 318.048 350.744 317.4 341.414C316.955 335.095 317.036 328.817 317.36 322.498C317.724 315.288 317.589 308.051 317.819 300.84C317.927 297.546 318.44 294.279 318.67 290.984C318.926 287.271 321.383 285.84 324.556 285.232C326.325 284.895 328.148 284.908 329.944 284.76C335.642 284.314 341.339 283.828 347.024 283.423C348.82 283.288 350.642 283.112 352.411 283.328C356.624 283.828 357.933 285.286 358.973 289.458C360.08 293.914 360.269 298.505 359.486 302.906C358.42 308.901 358.514 314.883 358.447 320.891C358.366 327.507 358.406 334.137 358.447 340.753C358.447 342.859 358.42 344.992 358.784 347.044C359.365 350.258 361.336 352.594 364.603 353.201C371.409 354.471 378.241 355.47 385.194 354.025C389.015 353.228 392.944 352.931 396.752 352.108C403.179 350.717 404.326 349.299 404.502 343.088C404.57 340.388 404.448 337.674 404.394 334.96C404.259 328.641 404.529 322.417 405.38 316.098C406.257 309.59 405.717 302.893 405.771 296.277C405.785 294.171 405.569 292.064 405.704 289.971C405.92 286.744 407.648 285.03 410.834 284.8C413.832 284.584 416.856 284.584 419.854 284.368C422.554 284.165 425.228 283.706 427.928 283.531C431.52 283.301 435.138 283.004 438.73 283.139C443.739 283.328 445.656 285.286 446.291 290.322C446.48 291.794 446.588 293.374 446.264 294.805C444.968 300.449 445.278 306.187 445.251 311.885C445.211 320.621 444.644 329.424 445.562 338.052C446.669 348.57 446.48 359.061 446.52 369.579C446.534 373.171 445.967 376.749 445.724 380.341C445.521 383.338 445.238 386.349 445.278 389.346C445.4 399.554 444.576 409.802 446.426 419.969C446.736 421.684 446.466 423.587 446.156 425.343C444.914 432.526 445.278 439.655 446.021 446.878H446.048V446.906Z" fill="black"/>
<path d="M512.993 397.893C513.48 400.499 513.682 403.442 512.966 405.94C510.442 414.905 511.603 423.857 512.386 432.823C512.588 435.226 512.561 437.508 512.426 439.925C511.981 447.729 512.021 455.56 511.819 463.364C511.765 465.457 511.819 467.604 511.373 469.616C511.157 470.547 509.888 471.816 509.01 471.897C506.04 472.154 502.961 472.356 500.059 471.816C494.037 470.723 488.136 470.601 482.155 471.911C480.413 472.289 478.563 472.221 476.768 472.194C473.149 472.154 471.191 470.493 470.962 466.74C470.692 462.243 470.773 457.72 470.773 453.211C470.746 443.584 470.773 433.957 470.773 424.33V396.353C470.921 396.353 470.989 355.442 470.53 334.987C470.341 326.899 470.354 318.838 470.867 310.764C471.205 305.377 470.773 299.935 470.719 294.521C470.705 293.022 470.719 291.51 470.854 290.011C471.137 286.568 472.825 284.287 476.227 283.706C479.171 283.206 482.317 282.815 485.193 283.328C491.741 284.503 498.29 285.151 504.933 285.124C505.81 285.124 506.729 285.326 507.579 285.61C509.739 286.312 511.252 287.716 511.495 290.065C511.711 292.158 511.751 294.265 511.805 296.371C512.075 306.241 513.223 316.057 512.008 325.994C511.319 331.611 512.183 337.35 512.683 343.061C513.358 350.811 513.169 358.696 512.615 366.473C511.873 376.978 511.036 387.415 512.993 397.893Z" fill="black"/>
<path d="M681.19 466.051C682.175 467.726 680.933 469.791 678.989 470.007C678.381 470.075 677.787 470.183 677.193 470.169C667.269 469.94 657.345 469.656 647.461 471.236C642.439 472.033 638.712 469.791 636.309 465.349C635.31 463.499 634.256 461.677 633.352 459.773C630.989 454.872 628.316 450.213 624.508 446.23C623.063 444.718 621.808 442.949 620.862 441.1C618.513 436.536 615.583 432.377 612.599 428.219C610.52 425.329 609.035 421.954 607.536 418.686C604.133 411.233 599.448 404.617 594.628 398.069C593.386 396.381 591.914 394.828 590.321 393.464C585.919 389.724 579.506 392.033 578.48 397.65C578.372 398.231 578.264 398.852 578.291 399.446C578.75 412.975 575.806 426.382 576.738 439.925C576.994 443.516 577.102 447.067 577.737 450.659C578.466 454.737 578.358 459.084 577.872 463.216C577.426 467.01 575.28 469.913 570.878 470.223C568.502 470.385 566.031 471.25 563.749 470.885C556.849 469.791 549.95 470.021 543.023 470.115C542.119 470.129 541.214 470.102 540.323 470.007C538.838 469.859 537.474 468.536 537.393 467.037C537.298 464.931 537.231 462.824 537.352 460.718C538.054 447.486 537.717 434.335 536.407 421.103C535.287 409.775 536.029 398.258 535.948 386.821C538.892 372.496 536.515 358.022 537.271 343.628C537.366 341.846 537.231 339.983 536.826 338.255C536.043 334.947 536.529 331.747 536.826 328.439C537.609 319.77 537.987 311.102 536.394 302.393C535.597 298.018 535.827 293.401 536.07 288.918C536.272 285.34 538.473 283.841 542.213 283.841H581.031C581.031 283.949 604.511 284.233 616.245 284.152C622.672 284.111 628.788 285.367 634.621 288.04C638.996 290.052 643.384 292.01 647.637 294.251C653.969 297.6 658.547 302.758 661.652 309.117C664.015 313.978 666.202 318.933 668.133 323.983C668.97 326.17 669.227 328.682 669.281 331.058C669.47 338.011 668.795 344.857 666.243 351.432C665.149 354.241 664.042 357.036 663.191 359.912C660.855 367.797 655.833 373.589 649.298 378.221C646.354 380.313 643.262 382.163 640.184 384.067C634.027 387.888 633.001 391.088 636.646 397.461C639.171 401.89 641.966 406.251 645.207 410.166C650.621 416.715 655.333 423.533 658.466 431.513C659.748 434.767 662.084 437.805 664.528 440.384C671.698 447.932 676.059 457.234 681.23 466.024H681.203L681.19 466.051ZM616.771 328.992C616.528 325.414 614.395 322.849 611.1 321.539C609.183 320.783 607.09 320.283 605.025 320.094C602.351 319.851 599.637 320.027 596.95 320.027C594.25 320.027 591.563 320 588.863 320.04C587.972 320.054 587.067 320.189 586.189 320.364C580.559 321.499 577.494 325.117 576.913 330.923C576.427 335.811 577.777 340.428 578.79 345.073C579.398 347.882 581.558 349.853 584.245 350.582C592.144 352.715 600.15 353.458 608.157 351.054C613.274 349.515 616.204 345.816 616.758 340.644C617.176 336.796 617.028 332.867 616.758 328.992H616.771Z" fill="black"/>
<path d="M817.151 435.293C818.11 435.833 818.906 436.751 819.608 437.643C819.932 438.061 819.959 438.79 819.959 439.384C819.932 447.823 819.973 456.262 819.77 464.687C819.676 469.075 817.556 471.168 813.195 471.843C812.304 471.978 811.386 472.019 810.494 472.019C799.652 472.086 788.81 472.154 777.954 472.181C773.431 472.181 768.922 472.086 764.398 472.086C758.39 472.086 752.355 472.572 746.414 471.087C744.983 470.722 743.416 470.749 741.918 470.817C735.612 471.1 729.266 472.086 723.015 471.654C716.696 471.222 710.417 470.506 704.112 471.249C701.627 471.533 699.319 471.303 697.01 470.533C694.485 469.696 693.121 467.82 692.406 465.376C692.325 465.092 692.311 464.768 692.298 464.471C691.784 454.588 689.476 444.799 690.488 434.821C690.92 430.635 691.717 426.476 691.838 422.291C692.19 411.165 692.406 400.012 692.419 388.873C692.433 377.126 692.041 365.38 692.041 353.633C692.041 343.101 692.46 332.543 692.406 322.011C692.365 311.777 691.92 301.542 691.703 291.307C691.568 285.204 693.904 282.504 699.602 283.368C711.605 285.232 723.663 284.151 735.693 284.489C739.906 284.61 744.118 284.799 748.345 284.745C754.663 284.664 761.063 284.961 767.288 284.111C778.427 282.572 789.539 283.301 800.665 283.26C804.824 283.247 809.023 284.219 813.141 285.056C815.625 285.556 817.38 287.27 817.988 289.89C819.838 297.856 820.364 305.944 819.838 314.099C819.784 314.99 819.622 315.922 819.271 316.745C818.555 318.474 817.448 319.932 815.436 320.175C813.357 320.431 811.237 320.512 809.144 320.674C805.242 320.985 801.353 321.457 797.451 321.579C793.563 321.714 789.62 321.795 785.759 321.376C778.832 320.634 771.987 320.607 765.06 321.525C759.119 322.308 753.057 322.214 747.035 322.497C744.334 322.632 741.594 322.538 738.934 322.943C735.585 323.442 733.519 325.67 733.29 329.046C732.885 335.054 732.817 341.062 734.68 346.936C735.585 349.771 737.327 351.634 740.23 352.269C742.579 352.782 744.955 353.457 747.305 353.471C751.815 353.498 756.392 353.511 760.834 352.823C769.543 351.473 778.265 351.688 786.987 351.756C791.457 351.783 795.953 352.674 800.381 353.444C803.487 353.984 804.864 355.874 805.134 359.128C805.161 359.425 805.188 359.736 805.188 360.033C805.161 367.553 805.175 375.088 805.067 382.622C805.013 386.173 803.068 388.32 799.666 388.684C797.573 388.914 795.453 388.833 793.347 388.954C790.039 389.143 786.69 389.103 783.436 389.602C772.338 391.331 761.279 391.195 750.167 389.751C746.927 389.319 743.524 389.481 740.27 389.899C736.233 390.439 733.519 393.113 733.398 397.123C733.074 407.33 732.21 417.565 734.532 427.705C735.221 430.689 736.652 432.701 739.69 433.2C743.835 433.875 747.993 434.74 752.166 434.834C762.117 435.064 782.019 434.578 782.019 434.429C792.847 434.591 803.662 434.753 814.491 434.942C815.396 434.956 816.422 434.875 817.137 435.28L817.151 435.293Z" fill="black"/>
<path d="M142.78 168.45C145.07 168.18 145.2 168.27 145.71 170.55C146.07 172.2 146.43 173.84 146.8 175.49C146.89 175.9 147 176.31 147.07 176.72C147.23 177.63 146.92 178.26 146.04 178.5C144.61 178.9 143.16 179.22 141.72 179.55C140.36 179.85 138.98 180.09 137.63 180.44C136.57 180.71 135.98 181.48 136.07 182.51C136.17 183.59 136.33 184.7 136.6 185.75C137.96 190.97 138.8 196.31 140.28 201.51C141.09 205.04 141.9 208.58 142.68 212.11C143.17 214.33 143.61 216.57 144.06 218.8C144.13 219.13 144.21 219.47 144.22 219.8C144.27 221.9 144.08 222.1 142.05 222.49C141.72 222.55 141.37 222.6 141.03 222.6C139.63 222.58 138.34 222.97 137.07 223.51C136.29 223.84 135.44 224.03 134.61 224.2C133.78 224.37 133.08 223.96 132.79 223.17C132.56 222.54 132.39 221.88 132.24 221.23C131.7 218.84 131.21 216.45 130.66 214.07C129.58 209.48 128.45 204.89 127.36 200.3C127.09 199.16 126.96 197.99 126.86 196.81C126.72 195.23 126.41 193.61 125.85 192.13C125.28 190.62 124.91 189.08 124.49 187.54C124.4 187.21 124.3 186.89 124.23 186.56C123.8 184.55 122.54 183.84 120.39 184.11C119.18 184.27 117.99 184.59 116.8 184.86C115.69 185.1 114.59 185.4 113.47 185.59C111.95 185.86 111.44 185.53 111.07 184.02C110.57 181.97 110.11 179.91 109.68 177.85C109.46 176.79 109.8 176.24 110.92 175.99C113.23 175.47 115.45 174.62 117.82 174.28C119.19 174.08 120.52 173.54 121.83 173.05C122.75 172.71 123.66 172.46 124.63 172.39C126.74 172.23 128.8 171.77 130.77 170.98C131.6 170.65 132.43 170.46 133.32 170.41C135 170.32 136.64 170 138.18 169.33C139.17 168.9 140.16 168.65 141.23 168.64C141.75 168.64 142.27 168.52 142.79 168.45H142.78Z" fill="black"/>
<path d="M198.42 203.33C198.97 205.09 199.27 206.93 199.64 208.74C199.76 209.34 199.34 209.89 198.7 210.06C198.21 210.19 197.7 210.29 197.2 210.38C194.84 210.78 192.48 211.14 190.25 212.07C189.94 212.2 189.59 212.23 189.25 212.27C188.69 212.34 188.26 212.1 187.96 211.64C187.26 210.54 186.92 209.31 186.9 208.04C186.86 205.32 186.32 202.68 185.67 200.06C185.05 197.53 184.29 195.03 183.62 192.51C183.37 191.59 182.78 191.1 181.81 190.98C179.03 190.63 176.3 190.99 173.63 191.78C172.34 192.16 171.72 193.16 171.65 194.48C171.5 197.38 171.96 200.18 173.08 202.87C173.4 203.65 173.66 204.45 173.83 205.27C174.29 207.41 174.69 209.57 175.09 211.72C175.2 212.29 175.26 212.89 175.27 213.47C175.27 214.94 175 215.26 173.62 215.57C172.54 215.81 171.45 216.03 170.36 216.26C170.36 216.23 170.35 216.2 170.34 216.17C169 216.46 167.68 216.79 166.33 217.01C164.92 217.24 164.32 216.85 163.75 215.52C163.69 215.37 163.63 215.21 163.58 215.04C162.89 212.61 162.17 210.19 161.52 207.76C161.19 206.54 161.08 205.29 160.97 204.02C160.66 200.57 159.86 197.2 158.71 193.93C158.2 192.49 157.87 191.04 157.79 189.51C157.65 186.89 157.06 184.34 156.33 181.83C155.83 180.13 155.48 178.4 155.2 176.65C154.88 174.65 154.41 172.68 154.05 170.69C153.89 169.78 153.84 168.86 153.71 167.94C153.56 166.91 154.18 166.36 155.05 166.01C155.53 165.81 156.06 165.7 156.56 165.55C158.15 165.08 159.75 164.6 161.35 164.15C161.85 164.01 162.37 163.85 162.88 163.8C164.11 163.68 164.57 164.01 165.1 165.09C165.67 166.24 165.99 167.49 166.02 168.74C166.06 170.45 166.43 172.08 166.76 173.73C167.12 175.55 167.51 177.37 167.9 179.17C168.02 179.74 168.14 180.34 168.36 180.87C168.71 181.71 169.4 182.24 170.36 182.21C172.36 182.16 174.34 182.03 176.22 181.23C177.26 180.79 178.35 180.48 179.38 180.04C181.12 179.29 181.36 178.84 181.07 177.12C180.94 176.37 180.75 175.64 180.59 174.9C180.21 173.18 179.93 171.45 179.82 169.67C179.71 167.83 179.18 166.03 178.83 164.21C178.72 163.63 178.54 163.07 178.46 162.48C178.34 161.59 178.74 161.01 179.64 160.76C180.48 160.53 181.35 160.36 182.19 160.12C182.95 159.91 183.69 159.63 184.45 159.43C185.46 159.16 186.48 158.88 187.51 158.71C188.95 158.48 189.6 158.91 190.06 160.26C190.19 160.66 190.31 161.08 190.29 161.49C190.22 163.11 190.62 164.68 190.92 166.24C191.38 168.64 191.69 171.09 192.42 173.41C193.3 176.24 193.81 179.13 194.39 182.02C194.59 183 194.62 184.02 194.74 185.02C194.84 185.85 194.93 186.7 195.1 187.52C195.68 190.31 196.01 193.18 197.07 195.87C197.25 196.32 197.28 196.86 197.28 197.36C197.32 199.4 197.81 201.34 198.4 203.29L198.42 203.33Z" fill="black"/>
<path d="M244.841 191.52C245.131 191.62 245.401 191.84 245.641 192.05C245.751 192.15 245.791 192.35 245.821 192.51C246.211 194.84 246.61 197.17 246.96 199.5C247.14 200.72 246.65 201.39 245.46 201.79C245.22 201.87 244.97 201.92 244.71 201.97C241.69 202.51 238.671 203.05 235.651 203.59C234.391 203.81 233.121 204.01 231.871 204.23C230.201 204.53 228.541 204.97 226.811 204.86C226.391 204.83 225.961 204.92 225.541 205.01C223.801 205.41 222.081 206 220.321 206.21C218.541 206.41 216.761 206.55 215.041 207.08C214.361 207.29 213.711 207.35 213.031 207.26C212.291 207.16 211.811 206.71 211.481 206.08C211.441 206.01 211.421 205.92 211.401 205.84C210.741 203.15 209.591 200.58 209.351 197.78C209.251 196.61 209.26 195.42 209.08 194.26C208.6 191.17 208.081 188.1 207.501 185.04C206.891 181.8 206.171 178.6 205.561 175.37C205.011 172.47 204.58 169.55 204.02 166.65C203.47 163.84 202.811 161.05 202.221 158.24C201.861 156.57 202.391 155.7 204.061 155.63C207.591 155.49 210.991 154.56 214.441 154.02C215.651 153.83 216.871 153.67 218.071 153.43C219.881 153.08 221.721 152.83 223.461 152.28C226.571 151.29 229.791 150.93 232.981 150.37C234.171 150.16 235.421 150.22 236.641 150.25C237.381 150.27 237.961 150.65 238.261 151.35C239.161 153.45 239.691 155.67 239.931 157.94C239.951 158.19 239.951 158.46 239.891 158.7C239.771 159.21 239.52 159.67 238.96 159.83C238.38 160 237.781 160.12 237.191 160.28C236.101 160.55 235.001 160.88 233.901 161.11C232.801 161.34 231.681 161.56 230.561 161.63C228.551 161.77 226.601 162.11 224.671 162.71C223.021 163.23 221.281 163.51 219.591 163.9C218.831 164.07 218.051 164.2 217.311 164.44C216.381 164.75 215.901 165.47 216.011 166.41C216.201 168.09 216.491 169.74 217.311 171.26C217.701 171.99 218.301 172.42 219.151 172.44C219.841 172.46 220.541 172.52 221.221 172.41C222.501 172.19 223.8 171.96 225.02 171.54C227.42 170.73 229.911 170.34 232.381 169.93C233.651 169.72 234.961 169.74 236.261 169.73C237.161 169.73 237.641 170.18 237.881 171.07C237.901 171.15 237.921 171.23 237.941 171.31C238.291 173.39 238.651 175.46 238.981 177.55C239.131 178.53 238.69 179.22 237.74 179.49C237.16 179.65 236.561 179.74 235.971 179.87C235.051 180.08 234.101 180.24 233.201 180.54C230.151 181.57 227.031 182.09 223.821 182.25C222.881 182.3 221.941 182.51 221.041 182.8C219.921 183.15 219.301 184.03 219.471 185.14C219.891 187.97 220.17 190.84 221.33 193.5C221.67 194.29 222.17 194.76 223.05 194.75C224.24 194.73 225.461 194.75 226.631 194.57C229.431 194.12 234.981 193.01 234.971 192.97C238.011 192.48 241.051 192 244.101 191.53C244.351 191.49 244.64 191.42 244.86 191.5L244.841 191.52Z" fill="black"/>
<path d="M332.142 185.74C332.262 186.23 332.292 186.74 332.302 187.25C332.312 187.85 331.932 188.41 331.322 188.58C329.602 189.06 327.872 189.51 326.512 189.87C325.372 189.94 324.602 190.01 323.842 190.04C322.612 190.1 321.632 189.65 321.212 188.46C319.972 184.89 318.172 181.51 317.452 177.76C317.322 177.1 317.132 176.44 316.872 175.83C316.082 173.97 315.242 172.13 314.412 170.29C314.312 170.06 314.212 169.8 314.032 169.64C313.792 169.43 313.492 169.17 313.192 169.14C312.702 169.1 312.402 169.51 312.312 169.93C311.892 171.91 311.282 173.86 311.322 175.9C311.352 177.67 311.162 179.42 310.982 181.18C310.742 183.52 310.562 185.87 310.352 188.22C310.272 189.06 310.212 189.9 310.052 190.73C309.912 191.45 309.442 191.97 308.692 192.06C305.912 192.4 303.152 192.99 300.312 192.83C299.482 192.78 298.812 192.49 298.392 191.78C298.002 191.13 297.592 190.48 297.352 189.77C296.562 187.46 295.742 185.16 295.122 182.81C294.252 179.53 292.552 176.6 291.302 173.47C291.092 172.94 290.692 172.46 290.312 172.03C289.912 171.59 289.052 171.82 288.812 172.4C288.682 172.71 288.542 173.04 288.542 173.36C288.542 174.62 288.582 175.88 288.592 177.14C288.592 178.23 288.652 179.33 288.532 180.41C288.222 183.43 288.302 186.46 288.202 189.48C288.162 190.82 287.982 192.16 287.822 193.49C287.742 194.13 287.332 194.58 286.682 194.71C283.932 195.24 281.232 196.02 278.392 195.99C278.142 195.99 277.842 196.03 277.642 195.92C277.362 195.78 276.992 195.53 276.952 195.28C276.802 194.37 276.702 193.44 276.712 192.52C276.732 190.84 276.862 189.16 276.922 187.48C276.952 186.81 276.992 186.13 276.882 185.47C276.512 183.19 276.642 180.93 277.062 178.68C277.382 177 277.532 175.34 277.252 173.66C277.022 172.31 277.272 170.97 277.402 169.63C277.522 168.37 277.732 167.12 277.852 165.86C277.912 165.19 277.972 164.51 277.902 163.85C277.622 160.99 277.672 158.16 277.992 155.29C278.392 151.87 278.502 148.41 278.722 144.96C278.802 143.74 279.122 143.29 280.382 143.05C282.012 142.73 283.662 142.46 285.302 142.24C286.592 142.06 287.912 141.98 289.212 141.84C289.652 141.8 290.082 141.73 290.522 141.71C291.992 141.65 293.032 142.26 293.602 143.58C293.702 143.81 293.792 144.05 293.862 144.3C294.632 147.06 295.912 149.64 296.632 152.41C297.142 154.36 297.802 156.27 298.412 158.19C298.482 158.43 298.612 158.66 298.752 158.86C299.022 159.23 299.432 159.45 299.872 159.32C300.162 159.24 300.552 158.98 300.632 158.72C300.912 157.75 301.162 156.76 301.282 155.77C301.412 154.69 301.462 153.58 301.402 152.49C301.322 150.87 301.552 149.3 301.842 147.72C302.162 145.98 302.602 144.25 302.342 142.45C302.292 142.13 302.422 141.78 302.442 141.45C302.492 140.57 303.002 140.05 303.842 139.82C305.362 139.42 306.892 139.05 308.422 138.7C308.762 138.62 309.112 138.57 309.462 138.55C311.202 138.44 312.942 138.35 314.692 138.26C315.732 138.21 316.112 138.49 316.432 139.41C317.672 142.99 318.892 146.57 320.152 150.15C320.712 151.74 321.352 153.29 321.912 154.88C322.132 155.51 322.282 156.18 322.362 156.85C322.592 158.81 323.312 160.6 324.252 162.31C324.912 163.5 325.352 164.76 325.632 166.09C325.852 167.16 326.112 168.23 326.502 169.25C327.612 172.16 328.402 175.17 329.702 178.02C330.512 179.78 331.052 181.64 331.482 183.54C331.652 184.28 331.952 184.98 332.132 185.71L332.142 185.74Z" fill="black"/>
<path d="M372.788 152.47C372.968 152.93 372.948 153.47 372.998 153.97C373.368 157.58 373.728 161.18 374.088 164.78C374.188 165.77 374.168 172.59 374.058 173.33C373.638 176.09 372.528 178.51 370.378 180.36C368.778 181.74 367.118 183.07 365.418 184.33C364.758 184.82 363.928 185.22 363.128 185.38C358.938 186.21 354.708 186.42 350.448 185.91C349.218 185.76 348.148 185.39 347.178 184.63C345.978 183.69 344.768 182.77 343.548 181.86C341.418 180.27 340.178 178.08 339.398 175.64C338.838 173.89 338.448 172.09 338.128 170.26C337.418 166.18 337.328 162.04 336.568 157.98C336.398 157.07 336.338 156.14 336.228 155.22C336.258 155.22 335.288 146.67 334.778 142.41C334.588 140.82 334.348 139.24 334.218 137.64C334.128 136.43 334.568 135.94 335.798 135.7C337.938 135.29 340.078 134.87 342.238 134.53C343.088 134.4 343.978 134.36 344.838 134.42C345.748 134.49 346.458 135.31 346.338 136.19C346.078 138.06 346.458 139.89 346.658 141.72C346.858 143.56 346.908 145.44 347.298 147.24C347.858 149.88 348.028 152.55 348.198 155.23C348.338 157.33 348.598 159.43 348.908 161.51C349.338 164.34 349.908 167.14 350.328 169.97C350.628 172.03 351.928 173.43 354.028 174.06C356.908 174.94 359.238 174.2 361.038 171.82C362.898 169.37 363.178 166.62 362.168 163.89C361.048 160.87 361.118 157.76 361.038 154.67C360.988 152.72 361.038 150.8 360.348 148.95C360.208 148.56 360.168 148.13 360.118 147.71C359.908 145.87 359.708 144.02 359.528 142.18C359.478 141.68 359.428 141.17 359.508 140.67C359.708 139.48 359.618 138.33 359.158 137.2C359.008 136.82 358.918 136.39 358.878 135.98C358.718 134.4 359.448 133.37 361.028 132.97C362.458 132.61 363.898 132.19 365.368 132.03C366.738 131.88 368.148 132.01 369.538 132.07C370.178 132.11 370.798 132.73 370.878 133.43C370.988 134.43 371.088 135.45 371.048 136.45C370.938 138.91 371.248 141.33 371.658 143.74C371.758 144.32 371.838 144.88 371.858 145.47C371.938 147.82 371.918 150.19 372.778 152.45L372.788 152.47Z" fill="black"/>
<path d="M418.179 165.52C418.479 166.68 418.339 167.85 417.899 168.99C416.889 171.6 415.639 174.09 414.179 176.47C413.319 177.87 412.149 178.94 410.599 179.59C409.509 180.05 408.469 180.64 407.369 181.09C406.669 181.37 405.909 181.67 405.169 181.68C401.769 181.68 398.369 181.54 395.079 180.6C393.349 180.11 391.789 179.33 390.509 177.98C389.639 177.07 388.519 176.41 387.569 175.56C386.879 174.94 386.259 174.25 385.709 173.51C385.279 172.94 385.509 172.13 386.089 171.72C388.449 170.04 390.829 168.39 393.179 166.7C393.999 166.11 394.749 166.11 395.519 166.7C396.329 167.31 397.149 167.93 397.899 168.62C399.489 170.1 401.339 170.35 403.379 169.93C403.469 169.91 403.549 169.9 403.629 169.88C405.719 169.33 406.499 167.11 405.039 165.53C404.129 164.55 402.979 163.76 401.849 163.02C401.079 162.51 400.149 162.23 399.289 161.86C394.549 159.83 390.119 157.31 386.099 154.08C383.049 151.63 381.629 148.39 381.399 144.63C381.269 142.6 381.579 140.6 382.589 138.75C383.439 137.18 384.209 135.57 385.109 134.03C385.899 132.68 387.059 131.62 388.509 130.96C389.369 130.57 390.309 130.32 391.229 130.09C393.079 129.62 394.949 129.2 396.349 128.87C398.679 128.7 400.509 128.93 402.239 129.5C404.379 130.2 406.459 131.06 408.569 131.85C409.819 132.31 410.839 133.13 411.709 134.06C412.819 135.23 413.799 136.53 414.769 137.81C415.179 138.36 415.069 138.97 414.509 139.38C413.829 139.89 413.129 140.44 412.349 140.77C410.659 141.49 409.129 142.42 407.729 143.57C407.399 143.84 407.029 144.08 406.669 144.3C405.929 144.76 405.439 144.7 404.849 144.06C404.389 143.56 403.979 143.01 403.479 142.54C401.989 141.13 400.199 140.39 398.099 140.37C397.209 140.37 396.379 140.55 395.589 140.94C394.759 141.35 394.239 142.04 394.099 142.91C393.889 144.21 394.129 145.44 395.109 146.42C396.079 147.4 397.199 148.17 398.509 148.66C399.879 149.17 401.239 149.69 402.589 150.24C403.859 150.76 405.119 151.3 406.369 151.86C407.939 152.56 409.379 153.46 410.679 154.59C411.839 155.59 413.119 156.45 414.289 157.43C414.799 157.86 415.269 158.38 415.609 158.94C416.839 160.98 417.549 163.24 418.149 165.52H418.179Z" fill="black"/>
<path d="M439.611 157.98C439.801 158.7 439.911 159.52 439.751 160.23C439.201 162.78 439.701 165.27 440.091 167.75C440.191 168.42 440.231 169.06 440.231 169.73C440.251 171.92 440.411 174.1 440.501 176.29C440.531 176.88 440.581 177.47 440.491 178.04C440.451 178.3 440.121 178.68 439.871 178.72C439.041 178.85 438.181 178.96 437.351 178.87C435.641 178.67 433.971 178.76 432.311 179.25C431.831 179.39 431.301 179.41 430.801 179.44C429.781 179.5 429.201 179.08 429.051 178.04C428.881 176.79 428.821 175.53 428.721 174.27C428.521 171.58 428.331 168.89 428.131 166.2C427.941 163.6 427.751 160.99 427.561 158.39C427.601 158.39 426.791 146.96 426.241 141.26C426.021 139 425.861 136.75 425.841 134.49C425.841 132.98 425.591 131.47 425.471 129.96C425.431 129.54 425.411 129.12 425.421 128.7C425.441 127.73 425.871 127.06 426.851 126.83C427.691 126.63 428.591 126.45 429.441 126.54C431.361 126.73 433.261 126.79 435.181 126.64C435.441 126.62 435.701 126.66 435.951 126.72C436.591 126.88 437.051 127.24 437.161 127.89C437.261 128.47 437.311 129.06 437.371 129.65C437.631 132.4 438.151 135.12 437.981 137.92C437.891 139.5 438.241 141.09 438.491 142.67C438.831 144.82 438.921 147.03 438.911 149.21C438.891 152.16 438.851 155.09 439.601 157.98H439.611Z" fill="black"/>
<path d="M488.48 133.96C488.71 134.4 488.5 134.8 488.16 135.09C487.83 135.36 487.46 135.58 487.08 135.79C484.96 136.94 482.83 138.07 480.71 139.21C480.41 139.37 480.11 139.56 479.78 139.65C479.09 139.85 478.41 139.83 477.83 139.32C477 138.59 476.13 137.88 475.33 137.12C473.15 135.06 470.66 135.21 468.09 136.2C466.53 136.8 465.29 137.87 464.08 138.97C463.43 139.57 463.05 140.32 462.77 141.13C462.38 142.24 462.02 143.37 461.63 144.49C460.87 146.67 460.51 148.9 460.82 151.16C460.79 154.5 461.9 157.47 463.43 160.34C464.21 161.8 465.26 162.97 466.79 163.7C467.79 164.18 468.77 164.69 469.8 165.11C472.12 166.06 474.29 165.82 476.29 164.26C476.69 163.94 477.07 163.59 477.47 163.29C478.29 162.67 478.95 162.64 479.82 163.21C480.31 163.53 480.78 163.91 481.18 164.34C482.12 165.33 483.16 166.18 484.34 166.89C484.99 167.27 485.59 167.77 486.14 168.29C486.65 168.76 486.69 169.61 486.23 170.14C484.79 171.8 483.41 173.51 481.26 174.39C479.54 175.1 477.93 176.04 476.12 176.59C474.46 177.09 472.78 177.23 471.08 177.09C469.31 176.94 467.55 176.64 465.79 176.36C464.78 176.2 463.82 175.88 463.01 175.2C460.57 173.11 458.11 171.03 455.63 168.97C453.95 167.57 452.81 165.82 452.13 163.79C451.22 161.07 450.33 158.36 449.52 155.61C448.54 152.32 448.49 148.99 449.35 145.64C449.65 144.5 449.97 143.34 450.04 142.18C450.11 140.87 450.47 139.7 451.08 138.57C451.32 138.12 451.6 137.67 451.73 137.19C452.35 134.77 454 133.04 455.75 131.38C457.8 129.42 460.02 127.65 462.32 125.98C463.55 125.08 464.87 124.58 466.4 124.44C468.13 124.28 469.87 124.08 471.59 123.8C472.59 123.64 473.51 123.89 474.42 124.12C475.94 124.5 477.42 124.97 478.9 125.47C479.55 125.69 480.18 126.01 480.75 126.38C482.05 127.22 483.35 128.08 484.57 129.02C486.29 130.36 487.5 132.11 488.47 134L488.48 133.96Z" fill="black"/>
<path d="M509.89 154.59C510.05 155.32 510.13 156.14 509.95 156.84C509.3 159.37 509.72 161.87 510.01 164.37C510.09 165.04 510.1 165.68 510.08 166.36C510.02 168.55 510.09 170.74 510.11 172.93C510.11 173.51 510.15 174.11 510.04 174.68C509.99 174.94 509.64 175.31 509.39 175.34C508.55 175.44 507.69 175.52 506.86 175.4C505.15 175.15 503.49 175.17 501.82 175.59C501.33 175.71 500.81 175.71 500.3 175.72C499.28 175.75 498.72 175.3 498.61 174.25C498.49 173 498.47 171.73 498.42 170.47C498.32 167.78 498.23 165.08 498.13 162.39C498.04 159.78 497.94 157.17 497.85 154.56C497.9 154.56 497.5 143.11 497.16 137.39C497.02 135.13 496.95 132.87 497.01 130.61C497.05 129.1 496.87 127.58 496.8 126.07C496.78 125.65 496.77 125.23 496.8 124.81C496.85 123.84 497.31 123.19 498.29 122.99C499.14 122.82 500.04 122.68 500.88 122.8C502.79 123.06 504.69 123.18 506.61 123.11C506.87 123.11 507.13 123.15 507.38 123.22C508.01 123.4 508.46 123.78 508.55 124.43C508.63 125.01 508.66 125.6 508.69 126.19C508.85 128.95 509.27 131.69 509 134.48C508.85 136.06 509.15 137.66 509.34 139.25C509.6 141.41 509.61 143.62 509.52 145.8C509.4 148.75 509.24 151.68 509.89 154.59Z" fill="black"/>
<path d="M561.871 172.44C561.931 172.68 561.941 172.94 561.961 173.19C562.001 173.61 561.671 174.1 561.271 174.11C558.481 174.14 555.671 174.15 552.881 174.17C551.881 174.17 551.341 173.53 551.061 172.68C550.641 171.4 550.301 170.1 549.871 168.82C549.521 167.78 549.141 166.75 548.691 165.76C548.041 164.33 546.911 163.51 545.281 163.56C543.321 163.62 541.361 163.72 539.401 163.84C537.781 163.94 536.171 164.17 534.561 164.21C533.091 164.24 532.101 164.85 531.601 166.18C530.951 167.91 530.371 169.68 529.781 171.43C529.561 172.06 529.441 172.74 529.201 173.36C528.931 174.03 528.401 174.44 527.641 174.47C525.101 174.57 522.551 174.67 520.001 174.76C519.671 174.77 519.331 174.67 519.001 174.6C518.641 174.52 518.291 174.03 518.331 173.63C518.361 173.3 518.431 172.97 518.511 172.65C519.541 168.4 520.531 164.14 521.631 159.91C522.011 158.45 522.561 157.02 523.131 155.62C523.771 154.05 524.311 152.46 524.601 150.79C524.881 149.13 525.361 147.52 525.801 145.89C526.471 143.37 527.001 140.82 527.701 138.3C528.931 133.84 530.151 129.36 531.781 125.01C531.901 124.69 532.041 124.38 532.151 124.06C532.521 123.08 533.281 122.54 534.311 122.48C536.051 122.39 537.801 122.4 540.051 122.37C540.671 122.33 541.811 122.25 542.931 122.19C543.541 122.16 544.151 122.14 544.761 122.17C545.841 122.21 546.591 122.75 546.881 123.75C547.601 126.17 548.731 128.46 549.241 130.95C549.441 131.94 549.681 132.93 550.061 133.87C551.071 136.39 551.811 138.98 552.561 141.56C552.651 141.88 552.751 142.21 552.901 142.51C554.201 145.28 554.891 148.23 555.691 151.16C555.951 152.13 556.271 153.1 556.681 154.02C557.561 156.04 558.121 158.15 558.671 160.27C559.281 162.63 559.941 164.98 560.551 167.34C561.001 169.05 561.431 170.76 561.861 172.47L561.871 172.44ZM543.071 156.17C544.301 156.03 545.091 155.14 544.971 153.94C544.921 153.45 544.731 152.97 544.591 152.49C544.281 151.44 543.851 150.42 543.661 149.36C543.261 147.09 542.111 145.1 541.321 142.98C541.201 142.67 541.001 142.38 540.791 142.12C540.221 141.4 539.081 141.5 538.611 142.3C538.401 142.66 538.231 143.05 538.061 143.44C536.721 146.56 536.291 149.92 535.211 153.11C535.161 153.26 535.171 153.44 535.161 153.61C535.071 154.9 535.641 155.74 536.941 155.96C538.121 156.15 539.311 156.2 539.951 156.25C541.201 156.23 541.881 156.23 542.561 156.21C542.731 156.21 542.901 156.19 543.071 156.18V156.17Z" fill="black"/>
<path d="M606.59 158.94C606.4 162.82 606.5 166.7 606.42 170.57C606.41 171.24 606.36 171.92 606.24 172.58C606.02 173.82 605.4 174.29 604.14 174.31C603.63 174.31 603.12 174.27 602.61 174.26C601.26 174.24 599.9 174.15 598.56 174.55C598 174.71 597.38 174.66 596.79 174.66C595.59 174.65 594.68 174.09 594.02 173.12C593.83 172.84 593.64 172.55 593.51 172.24C592.5 169.83 591.2 167.54 590.47 165.02C590 163.39 589.36 161.85 588.51 160.37C587.97 159.42 587.64 158.36 587.22 157.35C586.5 155.64 585.79 153.92 585.06 152.22C584.93 151.91 584.77 151.6 584.59 151.32C584.27 150.81 583.9 150.34 583.22 150.3C582.68 150.27 582.22 150.79 581.96 151.71C581.39 153.77 581.28 155.84 581.66 157.95C581.85 159.02 581.86 160.12 581.89 161.22C581.94 162.9 581.89 164.57 582.17 166.26C582.49 168.2 582.07 170.13 581.72 172.03C581.52 173.12 580.77 173.79 579.61 173.92C578.34 174.07 577.08 174.35 575.82 174.32C574.22 174.29 572.62 174.04 571.03 173.79C570.73 173.74 570.41 173.25 570.26 172.9C570.1 172.53 570.1 172.07 570.11 171.65C570.15 169.47 570.46 167.28 569.86 165.11C569.8 164.88 569.89 164.61 569.93 164.36C570.55 160.59 570.57 156.82 569.93 153.05C569.8 152.32 569.81 151.53 569.93 150.79C570.47 147.44 570.29 144.08 570.03 140.72C569.83 138.13 569.6 135.52 570.11 132.92C570.3 131.94 570.25 130.91 570.26 129.9C570.27 128.47 570.24 127.03 570.23 125.6C570.23 125.18 570.23 124.75 570.27 124.34C570.42 122.98 570.96 122.3 572.36 122.15C574.79 121.89 577.23 121.83 579.67 122.19C580.97 122.38 581.88 123.06 582.53 124.17C583.56 125.93 584.7 127.63 585.69 129.41C586.3 130.52 586.81 131.69 587.21 132.89C587.76 134.5 588.4 136.07 589.38 137.46C590.33 138.81 590.72 140.38 591.31 141.87C591.65 142.74 591.94 143.62 592.6 144.32C593.02 144.77 593.54 144.96 593.96 144.79C594.4 144.61 594.63 144.26 594.67 143.82C594.73 143.15 594.78 142.48 594.78 141.8C594.83 138.84 594.86 135.9 594.91 132.94C594.95 131.17 594.91 129.42 595.26 127.65C595.48 126.5 595.33 125.3 595.35 124.12C595.35 123.7 595.35 123.27 595.43 122.87C595.51 122.41 595.85 122.12 596.32 122.08C597.01 122.03 597.72 122.05 598.41 122.08C600.59 122.17 602.77 122.29 604.95 122.02C605.43 121.96 606 122.11 606.43 122.34C606.77 122.52 607.04 122.92 607.21 123.29C607.35 123.58 607.32 123.95 607.31 124.29C607.25 127.15 607.18 130.02 607.1 132.89C607.06 134.15 606.97 135.42 606.95 136.68C606.89 140.39 606.85 144.09 606.8 147.8C606.77 147.8 606.8 155.22 606.61 158.92L606.59 158.94Z" fill="black"/>
<path d="M679.889 147.82C680.039 150.74 679.889 153.7 679.179 156.6C678.819 158.05 678.919 159.61 678.749 161.12C678.339 164.78 677.159 168.16 674.849 171.1C673.119 173.31 670.969 174.87 668.149 175.36C666.729 175.6 665.309 175.86 663.869 175.95C657.069 176.39 658.559 176.87 651.439 176.24C651.099 176.21 650.759 176.21 650.419 176.2C650.419 176.2 650.419 176.22 650.419 176.23C648.299 176.14 646.179 176.05 644.059 175.96C643.719 175.95 643.379 175.92 643.049 175.85C642.219 175.66 641.719 175.12 641.559 174.31C641.479 173.9 641.499 173.47 641.509 173.05C641.599 170.27 641.689 167.5 641.379 164.72C641.249 163.57 641.479 162.37 641.589 161.2C641.719 159.86 642.039 158.53 642.049 157.19C642.049 149.93 642.819 142.72 642.959 135.48C643.009 132.7 643.079 129.92 643.149 127.14C643.169 126.63 643.169 126.13 643.219 125.63C643.369 123.82 643.739 123.42 645.549 123.2C646.059 123.14 646.599 123.15 647.109 123.21C650.829 123.69 654.559 123.96 658.309 124.08C660.579 124.15 662.849 124.22 665.109 124.24C668.189 124.27 670.879 125.44 673.479 126.84C673.919 127.08 674.339 127.44 674.649 127.84C676.019 129.59 677.359 131.35 678.639 133.16C679.019 133.7 679.279 134.38 679.379 135.02C679.679 137.01 680.139 138.99 679.989 141.02C679.819 143.28 679.789 145.53 679.899 147.82H679.889ZM666.279 144.91C666.329 143.4 666.239 141.88 666.049 140.38C665.849 138.78 664.989 137.37 663.359 136.96C661.349 136.45 659.239 136.35 657.209 137.04C656.599 137.25 656.189 137.69 656.059 138.31C655.829 139.38 655.559 140.45 655.489 141.53C655.289 144.72 655.179 147.93 655.039 151.12C654.989 151.12 654.589 157.51 654.449 160.71C654.429 161.13 654.429 161.56 654.449 161.97C654.519 163.13 655.139 163.84 656.329 164C658.489 164.3 660.579 164.15 662.569 163.17C664.319 162.31 665.249 160.9 665.569 159.04C665.629 158.71 665.639 158.37 665.659 158.03C665.869 153.66 666.129 149.28 666.279 144.91Z" fill="black"/>
<path d="M702.518 158.42C702.608 159.16 702.608 159.98 702.358 160.67C701.468 163.12 701.618 165.65 701.668 168.17C701.678 168.85 701.628 169.48 701.538 170.15C701.258 172.32 701.118 174.51 700.908 176.69C700.848 177.28 700.828 177.87 700.658 178.43C700.578 178.68 700.198 179.01 699.948 179.02C699.108 179.03 698.238 179.02 697.428 178.83C695.758 178.41 694.088 178.27 692.388 178.52C691.888 178.6 691.368 178.54 690.868 178.5C689.848 178.42 689.328 177.92 689.328 176.87C689.328 175.61 689.438 174.34 689.518 173.09C689.688 170.4 689.858 167.71 690.028 165.02C690.188 162.41 690.358 159.81 690.528 157.2C690.568 157.2 691.318 145.77 691.548 140.05C691.638 137.79 691.788 135.54 692.078 133.29C692.268 131.79 692.248 130.26 692.318 128.75C692.338 128.33 692.368 127.91 692.438 127.49C692.588 126.53 693.108 125.93 694.108 125.83C694.968 125.75 695.878 125.69 696.708 125.89C698.578 126.34 700.458 126.65 702.388 126.77C702.648 126.79 702.898 126.86 703.138 126.96C703.748 127.2 704.158 127.62 704.178 128.28C704.198 128.87 704.168 129.46 704.148 130.05C704.038 132.81 704.178 135.58 703.628 138.33C703.318 139.88 703.458 141.51 703.488 143.11C703.528 145.29 703.318 147.48 703.008 149.65C702.588 152.57 702.148 155.47 702.508 158.43L702.518 158.42Z" fill="black"/>
<path d="M753.701 181.85C753.931 182.35 753.521 182.89 752.971 182.89C752.801 182.89 752.631 182.91 752.461 182.89C749.671 182.55 746.891 182.21 744.081 182.4C742.651 182.49 741.661 181.78 741.101 180.47C740.871 179.93 740.621 179.39 740.411 178.84C739.871 177.41 739.231 176.05 738.261 174.84C737.891 174.38 737.581 173.86 737.361 173.32C736.811 171.99 736.081 170.76 735.341 169.52C734.821 168.66 734.481 167.69 734.141 166.74C733.351 164.58 732.181 162.62 730.971 160.68C730.661 160.18 730.271 159.71 729.851 159.29C728.681 158.14 726.801 158.63 726.381 160.18C726.341 160.34 726.291 160.51 726.281 160.68C726.101 164.46 724.961 168.14 724.911 171.94C724.901 172.95 724.851 173.94 724.951 174.96C725.061 176.12 724.931 177.33 724.701 178.47C724.491 179.52 723.821 180.28 722.571 180.26C721.901 180.26 721.191 180.43 720.551 180.28C718.641 179.82 716.681 179.73 714.731 179.61C714.481 179.6 714.221 179.56 713.971 179.52C713.551 179.44 713.201 179.04 713.211 178.63C713.231 178.04 713.251 177.45 713.331 176.87C713.811 173.19 714.001 169.52 713.901 165.79C713.831 162.6 714.281 159.41 714.501 156.21C715.641 152.27 715.271 148.18 715.791 144.18C715.851 143.69 715.861 143.17 715.781 142.67C715.631 141.73 715.831 140.85 715.991 139.93C716.401 137.53 716.691 135.11 716.421 132.65C716.281 131.41 716.451 130.13 716.611 128.88C716.741 127.89 717.411 127.52 718.491 127.6C722.231 127.89 725.971 128.19 729.711 128.5C729.711 128.52 736.491 129.18 739.881 129.45C741.741 129.6 743.481 130.11 745.091 131.01C746.301 131.68 747.521 132.35 748.691 133.08C750.431 134.18 751.611 135.75 752.341 137.6C752.891 139.02 753.391 140.46 753.811 141.92C753.991 142.56 754.001 143.26 753.951 143.92C753.811 145.87 753.441 147.76 752.541 149.52C752.151 150.27 751.761 151.02 751.441 151.8C750.561 153.93 748.981 155.41 747.001 156.53C746.111 157.03 745.181 157.47 744.261 157.92C742.411 158.82 742.041 159.69 742.911 161.56C743.521 162.86 744.201 164.14 745.021 165.32C746.391 167.29 747.541 169.31 748.221 171.62C748.491 172.56 749.081 173.47 749.701 174.26C751.531 176.56 752.501 179.27 753.721 181.86L753.701 181.85ZM738.941 141.94C738.961 140.94 738.411 140.17 737.491 139.72C736.961 139.46 736.371 139.27 735.781 139.17C735.021 139.04 734.241 139.02 733.461 138.95C732.691 138.88 731.911 138.81 731.141 138.76C730.881 138.74 730.621 138.76 730.361 138.79C728.721 138.97 727.751 139.91 727.451 141.51C727.201 142.87 727.481 144.18 727.661 145.51C727.771 146.31 728.341 146.91 729.101 147.18C731.311 147.97 733.591 148.36 735.931 147.89C737.431 147.59 738.361 146.63 738.651 145.2C738.861 144.14 738.921 143.04 738.941 141.95V141.94Z" fill="black"/>
<path d="M849.5 152.75C849.64 153.23 849.37 153.58 848.98 153.8C848.61 154.01 848.2 154.15 847.79 154.28C845.49 155.01 843.18 155.74 840.88 156.47C840.56 156.57 840.22 156.7 839.88 156.73C839.16 156.8 838.5 156.65 838.02 156.04C837.34 155.17 836.61 154.31 835.96 153.41C834.19 150.99 831.71 150.67 829 151.17C827.36 151.47 825.93 152.3 824.54 153.15C823.79 153.61 823.28 154.29 822.86 155.03C822.27 156.05 821.7 157.09 821.11 158.12C819.96 160.13 819.19 162.25 819.08 164.53C818.44 167.8 818.98 170.94 819.96 174.03C820.46 175.6 821.28 176.96 822.65 177.95C823.55 178.6 824.42 179.29 825.35 179.89C827.46 181.25 829.65 181.42 831.9 180.25C832.35 180.01 832.79 179.74 833.24 179.51C834.16 179.06 834.82 179.14 835.57 179.86C835.99 180.26 836.38 180.72 836.71 181.22C837.45 182.36 838.32 183.39 839.35 184.3C839.92 184.8 840.41 185.4 840.87 186.01C841.28 186.56 841.17 187.41 840.62 187.85C838.89 189.22 837.22 190.64 834.94 191.11C833.12 191.49 831.35 192.12 829.48 192.32C827.75 192.51 826.07 192.32 824.43 191.88C822.71 191.41 821.03 190.79 819.35 190.18C818.39 189.83 817.5 189.35 816.83 188.52C814.81 186.01 812.77 183.52 810.71 181.04C809.32 179.36 808.51 177.43 808.21 175.3C807.82 172.47 807.44 169.63 807.14 166.78C806.79 163.36 807.35 160.08 808.81 156.95C809.31 155.88 809.85 154.8 810.12 153.67C810.43 152.4 811 151.31 811.81 150.31C812.13 149.91 812.49 149.53 812.7 149.07C813.75 146.81 815.7 145.41 817.72 144.1C820.1 142.55 822.61 141.23 825.19 140C826.57 139.34 827.96 139.1 829.49 139.24C831.23 139.4 832.97 139.52 834.72 139.57C835.73 139.6 836.59 140.02 837.45 140.4C838.87 141.05 840.25 141.79 841.62 142.56C842.22 142.9 842.78 143.33 843.28 143.8C844.41 144.87 845.53 145.95 846.55 147.1C848 148.73 848.86 150.67 849.48 152.72L849.5 152.75Z" fill="black"/>
<path d="M888.919 148.34C891.149 148.94 891.229 149.07 890.839 151.38C890.559 153.05 890.289 154.71 890.009 156.37C889.939 156.79 889.889 157.2 889.799 157.62C889.609 158.53 889.079 158.99 888.189 158.89C886.719 158.72 885.259 158.48 883.799 158.25C882.429 158.03 881.059 157.73 879.679 157.55C878.599 157.41 877.769 157.91 877.469 158.89C877.149 159.94 876.889 161.01 876.759 162.09C876.079 167.44 874.869 172.71 874.289 178.08C873.719 181.66 873.159 185.24 872.559 188.81C872.189 191.06 871.759 193.29 871.349 195.53C871.289 195.86 871.249 196.2 871.129 196.52C870.389 198.49 870.139 198.6 868.119 198.21C867.789 198.14 867.449 198.06 867.139 197.93C865.849 197.39 864.519 197.27 863.139 197.3C862.299 197.32 861.439 197.18 860.609 197.02C859.779 196.87 859.289 196.22 859.319 195.39C859.339 194.72 859.429 194.04 859.539 193.38C859.929 190.96 860.369 188.56 860.739 186.14C861.449 181.47 862.109 176.8 862.819 172.13C862.999 170.97 863.309 169.84 863.659 168.71C864.119 167.19 864.439 165.58 864.469 164C864.499 162.39 864.729 160.82 864.919 159.23C864.959 158.9 864.979 158.56 865.039 158.23C865.389 156.21 864.489 155.06 862.399 154.53C861.219 154.22 860.009 154.09 858.799 153.88C857.679 153.69 856.559 153.55 855.449 153.32C853.939 153 853.599 152.5 853.819 150.97C854.119 148.88 854.469 146.8 854.829 144.73C855.019 143.66 855.539 143.28 856.669 143.46C858.999 143.84 861.369 143.88 863.679 144.44C865.019 144.77 866.449 144.76 867.849 144.8C868.829 144.82 869.759 144.93 870.689 145.23C872.709 145.87 874.769 146.21 876.889 146.21C877.779 146.21 878.619 146.35 879.459 146.63C881.039 147.17 882.679 147.48 884.359 147.44C885.429 147.41 886.439 147.55 887.439 147.94C887.919 148.13 888.449 148.21 888.959 148.35L888.919 148.34Z" fill="black"/>
<path d="M934.7 183.44C934.57 184.78 934.22 186.06 933.63 187.31C933.06 188.52 932.77 189.86 932.29 191.12C932.09 191.66 931.76 192.17 931.43 192.65C930.53 193.98 929.55 195.26 928.71 196.62C927.62 198.37 926.23 199.85 924.61 201.09C923.68 201.8 922.59 202.34 921.49 202.78C919.36 203.63 917.2 204.42 915 205.1C913.88 205.45 912.65 205.63 911.48 205.58C908.65 205.46 905.99 204.75 903.45 203.34C900.16 201.52 897.7 198.91 895.34 196.09C893.48 193.86 892.31 191.42 891.89 188.59C891.61 186.67 891.24 184.77 890.9 182.85C890.54 180.83 890.71 178.82 890.88 176.81C890.94 176.06 891.12 175.31 891.25 174.56C891.41 172.62 891.87 170.74 892.72 168.97C893.34 167.68 893.91 166.36 894.52 165.07C895.1 163.84 895.85 162.72 896.86 161.77C898.72 160.02 900.57 158.25 902.43 156.49C903.24 155.72 904.2 155.18 905.26 154.74C908.16 153.54 911.13 152.68 914.34 152.6C915.76 152.56 917.12 152.66 918.48 153.11C921.58 154.13 924.44 155.62 927.17 157.33C928.74 158.32 929.98 159.6 930.77 161.3C931.55 163 932.47 164.65 933.25 166.35C933.64 167.19 933.9 168.1 934.17 168.99C934.54 170.2 934.85 171.44 935.23 172.65C935.44 173.31 935.57 173.95 935.5 174.64C935.22 177.58 935 180.51 934.71 183.44H934.7ZM923.36 177.9C923.99 176.17 923.51 173.64 922.42 171.16C922.08 170.39 921.77 169.6 921.45 168.81C920.72 166.98 919.34 165.73 917.65 164.75C915.36 163.41 913 163.37 910.69 164.54C907.82 165.99 905.76 168.14 904.81 171.23C904.24 173.07 903.51 174.86 902.95 176.71C902.64 177.74 902.36 178.84 902.37 179.91C902.38 181.5 902.61 183.09 902.84 184.67C902.95 185.41 903.21 186.14 903.5 186.84C903.93 187.85 904.44 188.83 904.92 189.82C906.28 192.61 908.93 194.06 912.04 193.71C914.05 193.49 915.85 192.81 917.28 191.33C917.81 190.79 918.37 190.27 918.9 189.72C919.67 188.92 920.28 188.05 920.67 186.99C921.67 184.31 922.49 181.59 923.36 177.9Z" fill="black"/>
<path d="M798.197 179.115C798.447 179.295 798.647 179.575 798.807 179.855C798.887 179.985 798.867 180.185 798.847 180.355C798.557 182.705 798.287 185.045 797.947 187.385C797.767 188.605 797.107 189.115 795.857 189.155C795.607 189.155 795.347 189.145 795.097 189.115C792.057 188.765 789.007 188.435 785.967 188.085C784.697 187.945 783.437 187.765 782.167 187.625C780.477 187.435 778.767 187.385 777.147 186.785C776.757 186.645 776.317 186.595 775.897 186.575C774.117 186.465 772.307 186.545 770.567 186.235C768.807 185.925 767.067 185.545 765.267 185.565C764.557 185.565 763.917 185.445 763.287 185.165C762.607 184.855 762.277 184.295 762.137 183.595C762.127 183.515 762.137 183.425 762.137 183.345C762.277 180.575 761.897 177.785 762.467 175.035C762.707 173.885 763.057 172.745 763.207 171.585C763.617 168.495 763.997 165.395 764.317 162.295C764.657 159.025 764.877 155.745 765.207 152.465C765.497 149.525 765.927 146.605 766.207 143.665C766.487 140.815 766.647 137.945 766.877 135.095C767.007 133.395 767.767 132.705 769.377 133.115C772.787 133.985 776.297 134.055 779.757 134.535C780.967 134.705 782.177 134.885 783.397 135.005C785.227 135.185 787.057 135.475 788.877 135.435C792.137 135.365 795.327 135.945 798.527 136.315C799.727 136.455 800.907 136.865 802.067 137.245C802.767 137.465 803.207 138.005 803.297 138.755C803.567 141.035 803.437 143.295 803.017 145.545C802.967 145.795 802.887 146.045 802.767 146.255C802.497 146.705 802.137 147.075 801.547 147.075C800.937 147.075 800.337 147.025 799.727 146.995C798.597 146.945 797.467 146.945 796.347 146.845C795.227 146.745 794.097 146.645 793.007 146.395C791.037 145.955 789.087 145.725 787.067 145.755C785.337 145.775 783.607 145.555 781.867 145.445C781.087 145.395 780.307 145.295 779.527 145.315C778.547 145.345 777.887 145.905 777.727 146.835C777.437 148.495 777.227 150.165 777.587 151.855C777.757 152.665 778.197 153.245 779.007 153.515C779.657 153.735 780.317 153.995 780.997 154.075C782.287 154.225 783.587 154.375 784.877 154.325C787.407 154.225 789.887 154.575 792.377 154.885C793.657 155.045 794.907 155.435 796.147 155.805C797.017 156.055 797.347 156.635 797.317 157.545C797.317 157.625 797.317 157.715 797.297 157.795C797.047 159.885 796.797 161.975 796.517 164.065C796.377 165.055 795.767 165.585 794.777 165.575C794.177 165.575 793.577 165.475 792.977 165.435C792.027 165.375 791.087 165.255 790.137 165.285C786.927 165.405 783.797 165.005 780.677 164.255C779.767 164.035 778.797 163.975 777.867 163.985C776.697 164.015 775.847 164.675 775.697 165.785C775.297 168.615 774.747 171.435 775.097 174.335C775.197 175.185 775.547 175.785 776.387 176.025C777.537 176.335 778.687 176.715 779.857 176.865C782.657 177.245 788.287 177.745 788.297 177.705C791.347 178.105 794.397 178.505 797.437 178.925C797.687 178.965 797.987 178.975 798.177 179.105L798.197 179.115Z" fill="black"/>
<path d="M979.869 217.69C980.039 218.21 979.569 218.7 979.019 218.64C978.849 218.62 978.679 218.61 978.509 218.57C975.769 217.9 973.039 217.23 970.209 217.07C968.769 216.99 967.869 216.15 967.459 214.79C967.289 214.22 967.109 213.66 966.969 213.09C966.599 211.61 966.129 210.17 965.299 208.86C964.989 208.36 964.738 207.8 964.578 207.24C964.188 205.85 963.609 204.54 963.019 203.23C962.599 202.32 962.379 201.31 962.149 200.32C961.619 198.08 960.689 195.99 959.709 193.92C959.459 193.39 959.129 192.87 958.759 192.41C957.739 191.13 955.798 191.39 955.198 192.87C955.138 193.03 955.069 193.19 955.049 193.35C954.419 197.09 952.839 200.59 952.349 204.37C952.219 205.37 952.049 206.35 952.029 207.37C951.999 208.53 951.729 209.72 951.359 210.82C951.019 211.84 950.259 212.51 949.019 212.35C948.349 212.26 947.619 212.35 946.999 212.13C945.139 211.44 943.209 211.12 941.279 210.76C941.029 210.71 940.779 210.66 940.529 210.58C940.129 210.45 939.819 210.02 939.879 209.6C939.969 209.02 940.069 208.43 940.209 207.86C941.129 204.27 941.749 200.63 942.099 196.93C942.399 193.76 943.238 190.64 943.828 187.49C945.438 183.72 945.559 179.61 946.549 175.7C946.669 175.22 946.739 174.69 946.719 174.2C946.679 173.25 946.989 172.4 947.249 171.5C947.939 169.17 948.519 166.8 948.539 164.32C948.539 163.08 948.869 161.82 949.179 160.6C949.429 159.63 950.139 159.34 951.209 159.56C954.909 160.3 958.599 161.04 962.289 161.8C962.289 161.83 968.968 163.28 972.318 163.97C974.158 164.34 975.828 165.06 977.328 166.14C978.458 166.96 979.589 167.76 980.669 168.63C982.279 169.93 983.269 171.63 983.769 173.56C984.149 175.03 984.479 176.52 984.719 178.03C984.829 178.68 984.749 179.38 984.619 180.04C984.259 181.95 983.649 183.79 982.539 185.43C982.069 186.13 981.589 186.83 981.169 187.56C980.039 189.57 978.279 190.85 976.179 191.72C975.229 192.11 974.249 192.44 973.279 192.77C971.329 193.45 970.849 194.26 971.499 196.23C971.949 197.59 972.469 198.95 973.149 200.22C974.279 202.34 975.189 204.49 975.589 206.86C975.749 207.83 976.229 208.8 976.749 209.66C978.289 212.16 978.949 214.97 979.849 217.69H979.869ZM969.899 176.29C970.039 175.3 969.579 174.47 968.719 173.91C968.219 173.59 967.648 173.33 967.078 173.16C966.338 172.93 965.559 172.83 964.789 172.66C964.029 172.5 963.259 172.34 962.489 172.19C962.239 172.14 961.969 172.13 961.709 172.12C960.049 172.1 958.979 172.92 958.489 174.47C958.079 175.78 958.199 177.13 958.229 178.46C958.239 179.27 958.739 179.93 959.459 180.29C961.569 181.33 963.788 182 966.188 181.82C967.718 181.7 968.759 180.86 969.219 179.48C969.559 178.45 969.739 177.36 969.889 176.29H969.899Z" fill="black"/>
<path d="M1025.96 176.36C1026.16 176.57 1026.31 177.07 1026.19 177.27C1025.03 179.3 1024.49 181.66 1022.59 183.31C1021.77 184.01 1021.22 185.03 1020.63 185.95C1019.23 188.16 1017.88 190.4 1016.51 192.63C1016.25 193.06 1015.95 193.48 1015.72 193.93C1014.24 196.8 1012.46 199.44 1010.24 201.81C1009.24 202.87 1008.66 204.18 1008.35 205.62C1007.84 208.01 1007.22 210.38 1006.71 212.77C1006.53 213.58 1006.5 214.44 1006.41 215.27C1006.39 215.52 1006.41 215.78 1006.36 216.02C1005.8 218.48 1005.26 220.96 1004.65 223.41C1004.4 224.44 1003.79 224.83 1002.77 224.68C1002.01 224.57 1001.27 224.34 1000.18 224.09C998.319 223.51 996.109 222.83 993.919 222.13C993.139 221.88 992.809 221.36 992.919 220.58C992.999 220 993.179 219.43 993.299 218.86C993.769 216.72 994.239 214.58 994.719 212.44C995.429 209.32 996.059 206.17 996.879 203.08C997.509 200.72 997.469 198.43 996.739 196.11C995.999 193.75 995.589 191.34 995.669 188.87C995.689 188.2 995.629 187.52 995.519 186.85C995.099 184.27 994.669 181.69 994.209 179.11C993.999 177.94 993.919 176.78 993.939 175.59C993.969 174.08 993.779 172.56 993.689 171.05C993.659 170.63 993.599 170.21 993.669 169.8C993.699 169.6 993.959 169.42 994.159 169.28C994.289 169.19 994.499 169.15 994.659 169.17C996.659 169.4 998.659 169.64 1000.66 169.9C1001 169.94 1001.36 170.04 1001.67 170.19C1004.03 171.29 1004.4 170.83 1005.05 173.91C1005.61 176.57 1006.13 179.22 1006 181.94C1005.96 182.68 1006.08 183.45 1006.27 184.18C1006.49 185.02 1007.51 185.22 1008.14 184.59C1008.44 184.29 1008.66 183.93 1008.9 183.59C1009.9 182.23 1010.86 180.84 1011.9 179.51C1012.94 178.18 1014.15 176.96 1014.69 175.31C1014.79 175 1015.05 174.74 1015.26 174.47C1015.54 174.11 1015.92 173.93 1016.39 173.97C1016.74 174 1017.09 174.05 1017.43 174.13C1019.14 174.53 1020.84 174.91 1022.61 175.01C1023.83 175.08 1025.06 175.42 1025.94 176.37L1025.96 176.36Z" fill="black"/>
</g>
<defs>
<clipPath id="clip0_2006_3369">
<rect width="1122" height="902" fill="white"/>
</clipPath>
<clipPath id="clip1_2006_3369">
<rect width="560.97" height="900.66" fill="white" transform="translate(0.449219 0.810059)"/>
</clipPath>
<clipPath id="clip2_2006_3369">
<rect width="560.97" height="900.66" fill="white" transform="matrix(-1 0 0 1 1121.42 0.810059)"/>
</clipPath>
</defs>
</svg>
