<svg width="1425" height="1455" viewBox="0 0 1425 1455" fill="none" xmlns="http://www.w3.org/2000/svg">
<g clip-path="url(#clip0_2001_4255)">
<path d="M712.121 306.81C636.971 306.84 549.311 311.9 452.571 327.03C361.201 341.32 280.101 361.71 210.661 383.4C193.281 388.83 181.461 404.92 181.461 423.12V751.19C181.461 774.17 200.091 792.81 223.081 792.81H246.511C269.491 792.81 288.131 811.44 288.131 834.43V953.86C288.131 976.84 306.761 995.48 329.751 995.48H380.511C392.581 995.48 404.081 1000.7 411.961 1009.84C432.631 1033.81 461.861 1062.01 501.471 1086.81C587.101 1140.42 671.581 1147.06 712.141 1147.48" fill="white"/>
<path d="M712.121 306.81C636.971 306.84 549.311 311.9 452.571 327.03C361.201 341.32 280.101 361.71 210.661 383.4C193.281 388.83 181.461 404.92 181.461 423.12V751.19C181.461 774.17 200.091 792.81 223.081 792.81H246.511C269.491 792.81 288.131 811.44 288.131 834.43V953.86C288.131 976.84 306.761 995.48 329.751 995.48H380.511C392.581 995.48 404.081 1000.7 411.961 1009.84C432.631 1033.81 461.861 1062.01 501.471 1086.81C587.101 1140.42 671.581 1147.06 712.141 1147.48" stroke="white" stroke-width="60" stroke-miterlimit="10"/>
<path d="M712.121 306.81C636.971 306.84 549.311 311.9 452.571 327.03C361.201 341.32 280.101 361.71 210.661 383.4C193.281 388.83 181.461 404.92 181.461 423.12V751.19C181.461 774.17 200.091 792.81 223.081 792.81H246.511C269.491 792.81 288.131 811.44 288.131 834.43V953.86C288.131 976.84 306.761 995.48 329.751 995.48H380.511C392.581 995.48 404.081 1000.7 411.961 1009.84C432.631 1033.81 461.861 1062.01 501.471 1086.81C587.101 1140.42 671.581 1147.06 712.141 1147.48" stroke="black" stroke-width="20" stroke-miterlimit="10"/>
</g>
<g clip-path="url(#clip1_2001_4255)">
<path d="M711.746 306.81C786.896 306.84 874.556 311.9 971.296 327.03C1062.67 341.32 1143.77 361.71 1213.21 383.4C1230.59 388.83 1242.41 404.92 1242.41 423.12V751.19C1242.41 774.17 1223.78 792.81 1200.79 792.81H1177.36C1154.38 792.81 1135.74 811.44 1135.74 834.43V953.86C1135.74 976.84 1117.11 995.48 1094.12 995.48H1043.36C1031.29 995.48 1019.79 1000.7 1011.91 1009.84C991.236 1033.81 962.006 1062.01 922.396 1086.81C836.766 1140.42 752.286 1147.06 711.726 1147.48" fill="white"/>
<path d="M711.746 306.81C786.896 306.84 874.556 311.9 971.296 327.03C1062.67 341.32 1143.77 361.71 1213.21 383.4C1230.59 388.83 1242.41 404.92 1242.41 423.12V751.19C1242.41 774.17 1223.78 792.81 1200.79 792.81H1177.36C1154.38 792.81 1135.74 811.44 1135.74 834.43V953.86C1135.74 976.84 1117.11 995.48 1094.12 995.48H1043.36C1031.29 995.48 1019.79 1000.7 1011.91 1009.84C991.236 1033.81 962.006 1062.01 922.396 1086.81C836.766 1140.42 752.286 1147.06 711.726 1147.48" stroke="white" stroke-width="60" stroke-miterlimit="10"/>
<path d="M711.746 306.81C786.896 306.84 874.556 311.9 971.296 327.03C1062.67 341.32 1143.77 361.71 1213.21 383.4C1230.59 388.83 1242.41 404.92 1242.41 423.12V751.19C1242.41 774.17 1223.78 792.81 1200.79 792.81H1177.36C1154.38 792.81 1135.74 811.44 1135.74 834.43V953.86C1135.74 976.84 1117.11 995.48 1094.12 995.48H1043.36C1031.29 995.48 1019.79 1000.7 1011.91 1009.84C991.236 1033.81 962.006 1062.01 922.396 1086.81C836.766 1140.42 752.286 1147.06 711.726 1147.48" stroke="black" stroke-width="20" stroke-miterlimit="10"/>
</g>
<path d="M477.439 912.47C477.189 912.47 476.939 912.47 476.689 912.47C471.339 912.37 470.169 911.47 469.109 906.27C467.669 899.21 466.439 892.12 464.919 885.08C464.189 881.7 463.059 878.39 461.949 875.1C461.739 874.49 460.789 873.84 460.119 873.78C459.619 873.73 458.709 874.48 458.519 875.05C457.459 878.27 456.399 881.5 455.639 884.8C453.719 893.11 452.019 901.47 450.049 909.77C449.809 910.76 448.489 912.24 447.669 912.23C442.709 912.21 437.739 911.89 432.789 911.52C430.479 911.34 429.369 909.61 428.919 907.54C428.039 903.49 427.309 899.42 426.419 895.37C424.999 888.91 423.599 882.44 421.949 876.03C421.599 874.66 421.379 872.23 419.109 872.6C417.189 872.92 417.169 874.92 416.899 876.6C415.819 883.31 414.649 890 413.469 896.69C412.879 900.03 412.169 903.35 411.599 906.7C410.949 910.54 410.439 911.3 406.609 911.47C402.399 911.66 398.179 911.47 393.959 911.36C392.169 911.31 391.259 910.32 391.579 908.43C392.179 904.87 392.749 901.3 393.339 897.74C393.609 896.11 393.869 894.47 394.169 892.85C395.239 887.08 396.379 881.32 397.409 875.55C399.089 866.1 400.579 856.62 402.379 847.2C403.969 838.9 405.769 830.64 407.739 822.43C407.999 821.36 409.769 819.9 410.849 819.89C417.069 819.81 423.319 819.93 429.519 820.42C430.719 820.51 432.479 822.37 432.759 823.68C434.369 831.05 435.599 838.49 436.969 845.91C437.289 847.62 437.519 849.35 438.029 851.01C438.229 851.65 439.049 852.48 439.619 852.51C440.249 852.55 441.259 851.91 441.539 851.31C442.329 849.59 443.029 847.79 443.429 845.94C445.029 838.51 446.469 831.04 448.029 823.6C448.439 821.64 449.419 820.35 451.749 819.91C457.299 818.85 462.829 818.78 468.399 819.48C471.569 819.88 472.379 820.97 472.979 824.07C474.489 831.88 476.229 839.64 477.779 847.44C478.389 850.53 478.569 853.7 479.219 856.78C481.869 869.41 484.699 881.99 487.289 894.63C488.189 899.01 488.609 903.48 489.149 907.93C489.389 909.94 488.589 911.23 486.329 911.48C483.369 911.82 480.419 912.36 477.469 912.81C477.449 912.7 477.439 912.6 477.419 912.49L477.439 912.47Z" fill="black"/>
<path d="M969.789 864.93C969.789 877.47 969.809 890 969.769 902.54C969.769 904.53 969.569 906.51 969.399 908.5C969.249 910.24 968.259 911.17 966.489 911.32C962.439 911.66 958.399 912.02 954.359 912.39C951.249 912.67 948.929 911.31 947.689 908.6C945.349 903.5 943.299 898.27 941.079 893.11C939.179 888.71 937.219 884.33 935.279 879.95C934.139 877.38 933.129 874.74 931.779 872.28C931.219 871.27 929.919 870.67 928.949 869.88C928.219 870.81 927.139 871.65 926.839 872.7C926.359 874.43 926.139 876.32 926.239 878.12C926.559 884.5 927.279 890.86 927.419 897.23C927.499 901.08 926.919 904.96 926.329 908.79C926.199 909.66 924.929 910.76 923.969 911.03C918.929 912.46 913.819 912.62 908.699 911.24C906.719 910.7 906.479 909.25 906.489 907.57C906.559 900.44 906.629 893.31 906.699 886.19C906.699 885.86 906.739 885.53 906.729 885.19C906.429 872.26 905.969 859.33 905.869 846.39C905.809 838.77 906.259 831.14 906.619 823.51C906.709 821.62 907.869 820.2 909.969 820.17C914.209 820.11 918.449 820.08 922.679 820.2C925.199 820.27 926.709 822.06 927.769 824.1C930.919 830.18 934.029 836.28 937.049 842.43C939.349 847.1 941.469 851.86 943.709 856.56C944.059 857.29 944.509 858.03 945.089 858.6C946.539 860.04 948.119 859.61 948.569 857.6C948.869 856.24 948.919 854.8 948.939 853.39C949.069 843.43 949.149 833.47 949.249 823.5C949.279 820.33 949.789 819.7 953.009 819.53C957.159 819.31 961.309 819.2 965.469 819.15C968.389 819.11 969.539 820.35 969.589 823.83C969.669 829.97 969.559 836.12 969.549 842.26C969.539 849.81 969.549 857.37 969.549 864.92C969.619 864.92 969.699 864.92 969.769 864.92L969.789 864.93Z" fill="black"/>
<path d="M502.46 853.07C502.46 843.52 502.45 833.97 502.46 824.42C502.46 820.94 503.33 819.85 506.71 819.58C510.85 819.25 515.02 819.04 519.17 819.04C522.27 819.04 523.5 820.76 523.39 823.62C523.14 830.66 523.02 837.7 522.91 844.74C522.82 850.46 522.66 856.19 522.78 861.92C522.94 869.06 523.31 876.19 523.69 883.32C523.88 886.83 526.44 889.85 529.89 890.96C534.8 892.55 539.05 891.44 542.06 887.76C544.66 884.58 545.57 880.95 545.34 876.86C545.02 871.33 544.87 865.78 544.84 860.24C544.78 848.87 544.9 837.51 544.82 826.14C544.79 821.83 545.41 820.84 549.71 819.85C553.82 818.9 557.9 818.77 562.06 819.73C564.37 820.26 565.22 821.35 565.18 823.65C565.03 831.12 564.92 838.6 564.97 846.07C565.03 854.62 565.51 863.17 565.35 871.71C565.23 878.49 564.57 885.28 563.89 892.04C563.28 898.15 559.81 902.57 554.78 905.87C552.36 907.46 550.01 909.23 547.44 910.52C545.5 911.5 543.23 912.43 541.13 912.37C534.67 912.19 528.2 911.68 521.78 910.95C519.84 910.73 517.63 909.8 516.22 908.48C512.67 905.15 509 901.76 506.32 897.77C502.76 892.45 502.64 885.96 502.48 879.75C502.25 870.87 502.42 861.98 502.42 853.09C502.42 853.09 502.43 853.09 502.44 853.09L502.46 853.07Z" fill="black"/>
<path d="M882.78 911.79C881.28 911.79 879.78 911.8 878.29 911.79C873.72 911.75 872.9 910.99 871.76 906.65C870.96 903.61 869.89 900.64 868.84 897.68C867.67 894.38 865.15 892.82 861.73 892.94C855.49 893.16 849.26 893.46 843.03 893.87C839.56 894.1 838.61 897 837.61 899.64C836.52 902.5 835.46 905.38 834.64 908.32C834.09 910.29 833.02 911.42 831.04 911.5C826.89 911.66 822.73 911.81 818.58 911.74C815.85 911.69 815.12 910.81 815.71 908.09C816.66 903.65 817.77 899.22 819.07 894.87C822.25 884.27 825.69 873.75 828.82 863.13C831.36 854.49 833.47 845.71 836.02 837.07C837.44 832.24 839.37 827.56 841.07 822.82C841.7 821.06 842.93 820.17 844.83 820.15C850.24 820.08 855.64 819.92 861.05 819.9C864.84 819.89 865.53 820.55 866.61 824.21C869.73 834.75 872.78 845.32 876.05 855.81C878.82 864.72 882 873.51 884.73 882.43C886.47 888.12 887.72 893.96 889.17 899.74C889.88 902.55 890.51 905.38 891.27 908.17C891.93 910.63 891.3 911.66 888.78 911.75C886.79 911.82 884.79 911.76 882.79 911.76C882.79 911.76 882.79 911.78 882.79 911.79H882.78ZM855.37 880.08C855.37 880.08 855.38 879.99 855.39 879.94C856.14 879.94 856.89 879.98 857.63 879.94C861.39 879.71 862.88 877.45 861.67 873.89C861.43 873.19 861.36 872.43 861.13 871.73C859.54 866.88 858.04 862 856.23 857.23C855.79 856.07 854.32 855.29 853.33 854.34C852.36 855.39 850.94 856.28 850.5 857.52C848.64 862.81 846.98 868.17 845.43 873.56C844.44 876.99 845.9 878.93 849.46 879.38C851.43 879.63 853.41 879.86 855.38 880.1L855.37 880.08Z" fill="black"/>
<path d="M1020.05 912.63C1012.6 912.11 1005.82 911.3 1000.38 907.26C996.26 904.2 992.95 900.01 989.51 896.12C988.41 894.88 988.63 893.21 990.46 892.15C994.55 889.79 998.55 887.28 1002.62 884.89C1004.55 883.76 1006.14 884.36 1007.79 885.78C1010.21 887.87 1012.74 889.9 1015.47 891.54C1017.79 892.93 1020.32 892.26 1022.56 890.86C1024.65 889.55 1025.28 886.25 1023.34 884.3C1020.92 881.86 1018.23 879.53 1015.28 877.79C1006.38 872.54 997.79 866.97 990.93 859.1C985.77 853.18 984.76 840.26 989.13 834.06C990.99 831.42 992.54 828.57 994.41 825.95C996.85 822.53 1000.3 820.68 1004.46 820.15C1008.08 819.69 1011.69 819.02 1015.32 818.82C1020.48 818.54 1024.87 821.13 1029.45 823.05C1035.61 825.64 1040.2 829.77 1043.37 835.59C1044.66 837.95 1044.47 839.22 1042.17 840.5C1038.27 842.67 1034.31 844.73 1030.35 846.8C1028.25 847.9 1026.69 847.03 1025.44 845.27C1023.35 842.32 1020.56 840.35 1017.08 839.37C1014.33 838.59 1011.71 838.97 1009.59 840.87C1007.84 842.44 1007.24 844.85 1008.26 846.82C1009.36 848.94 1011.01 851.1 1012.98 852.36C1017.57 855.29 1022.52 857.67 1027.3 860.31C1033.07 863.49 1037.72 868.05 1041.81 873.05C1043.6 875.24 1044.13 878.46 1045.23 881.22C1047.74 887.52 1045.66 893.05 1042.23 898.29C1039.7 902.14 1037.87 906.66 1033.48 908.89C1029.05 911.14 1024.53 913.33 1020.04 912.62L1020.05 912.63Z" fill="black"/>
<path d="M617.141 912.69C608.411 912.19 601.491 911.28 595.911 907.13C591.861 904.11 588.641 899.95 585.281 896.09C584.171 894.82 584.431 893.19 586.261 892.14C590.351 889.78 594.351 887.27 598.431 884.89C600.241 883.83 601.801 884.3 603.411 885.66C605.911 887.78 608.481 889.89 611.271 891.57C613.581 892.96 616.121 892.29 618.351 890.86C620.511 889.48 621.001 886.14 618.921 884.09C616.531 881.73 613.891 879.48 611.011 877.79C602.101 872.56 593.531 866.95 586.661 859.09C581.531 853.21 580.441 840.27 584.921 834.06C587.611 830.32 589.841 825.96 593.291 823.11C598.261 819 604.871 819.02 611.121 818.79C616.411 818.6 620.821 821.28 625.481 823.19C631.511 825.67 635.881 829.83 639.041 835.43C640.431 837.89 640.281 839.2 637.881 840.54C633.981 842.71 630.031 844.78 626.071 846.84C623.971 847.93 622.411 847.04 621.171 845.27C619.261 842.53 616.691 840.65 613.531 839.58C610.571 838.58 607.691 838.78 605.341 840.92C603.521 842.57 602.861 845.2 604.111 847.08C605.791 849.6 608.101 851.97 610.651 853.61C615.301 856.59 620.561 858.65 625.161 861.71C630.601 865.34 635.961 869.42 638.891 875.46C640.591 878.97 641.681 882.99 642.021 886.87C642.241 889.44 641.001 892.35 639.771 894.78C637.821 898.59 635.711 902.44 632.971 905.69C628.461 911.05 622.021 912.38 617.151 912.7L617.141 912.69Z" fill="black"/>
<path d="M735.179 818.98C746.899 817.71 762.309 827.75 765.879 837.39C766.159 838.15 765.649 839.84 765.009 840.2C760.759 842.58 756.409 844.83 751.989 846.88C750.179 847.72 748.379 847.34 746.769 845.74C744.779 843.77 742.699 841.69 740.259 840.41C735.769 838.05 731.579 840.03 727.569 842.25C723.339 844.59 721.469 848.56 719.859 852.82C717.079 860.18 716.489 867.56 718.379 875.26C720.439 883.66 725.149 889.56 733.489 892.15C737.079 893.26 740.509 892.34 743.599 890.1C747.199 887.49 747.599 887.61 750.989 890.71C753.559 893.06 756.249 895.28 758.809 897.64C760.699 899.38 760.639 900.67 759.059 902.55C755.259 907.03 750.149 909.2 744.809 911.23C737.389 914.06 730.199 912.33 723.019 910.67C721.209 910.25 719.509 908.84 718.039 907.56C715.219 905.11 712.719 902.29 709.879 899.87C705.179 895.87 701.819 891.15 700.569 885C699.469 879.57 697.899 874.23 697.049 868.76C696.289 863.9 697.249 859.06 698.369 854.24C699.709 848.49 701.419 842.9 704.339 837.77C707.419 832.37 712.639 829.09 717.269 825.21C722.699 820.65 728.779 818.42 735.179 818.96V818.98Z" fill="black"/>
<path d="M659.73 865.96C659.73 852.01 659.73 838.06 659.73 824.1C659.73 820.33 660.98 818.88 664.8 819.03C669.02 819.21 673.24 819.78 677.44 820.27C679.12 820.47 679.75 821.7 679.81 823.3C679.89 825.79 680.07 828.28 680.07 830.77C680.07 841.87 679.99 852.98 680.05 864.08C680.07 868.05 680.43 872.01 680.62 875.97C680.67 877.04 680.71 878.12 680.66 879.19C680.47 883.31 680.15 887.43 680.05 891.55C679.89 897.61 679.87 903.67 679.8 909.72C679.78 911.73 678.75 912.48 676.8 912.45C672.56 912.4 668.321 912.45 664.091 912.47C660.561 912.49 659.77 911.79 659.76 908.3C659.73 900.24 659.74 892.19 659.73 884.13C659.73 878.07 659.73 872 659.73 865.94V865.96Z" fill="black"/>
<path d="M781.139 865.94C781.139 851.99 781.139 838.04 781.139 824.09C781.139 820.31 782.379 818.88 786.189 819.04C790.409 819.21 794.649 819.67 798.809 820.39C799.749 820.55 800.899 822.22 801.109 823.36C801.529 825.62 801.439 827.99 801.439 830.31C801.449 841.58 801.379 852.84 801.439 864.11C801.459 868.08 801.829 872.04 802.009 876C802.059 877.07 802.089 878.15 802.039 879.22C801.849 883.34 801.529 887.45 801.429 891.58C801.269 897.64 801.249 903.69 801.189 909.75C801.169 911.77 800.119 912.49 798.179 912.47C793.939 912.42 789.699 912.47 785.469 912.49C781.969 912.51 781.169 911.8 781.159 908.29C781.129 894.17 781.149 880.06 781.149 865.94H781.129H781.139Z" fill="black"/>
<path d="M568.492 1013.73C570.992 1007.68 573.532 1001.65 575.972 995.58C576.732 993.71 577.692 992.99 579.862 993.9C587.472 997.05 595.212 999.8 602.972 1002.39C604.952 1003.05 606.852 1003.76 606.752 1006.47C606.572 1011.86 605.222 1012.9 599.742 1011.2C595.522 1009.88 591.352 1008.41 587.142 1007.03C584.392 1006.12 583.182 1006.69 582.412 1008.93C581.342 1012.06 581.802 1013.23 584.782 1014.35C588.342 1015.68 591.982 1016.78 595.542 1018.06C598.592 1019.15 598.872 1019.82 598.012 1022.64C596.572 1027.36 596.312 1027.61 591.062 1026.2C587.682 1025.28 584.372 1024.07 581.112 1022.76C578.692 1021.79 577.252 1022.33 576.452 1024.43C576.422 1024.51 576.382 1024.58 576.352 1024.66C573.492 1030.77 573.952 1031.8 581.102 1034.4C585.222 1035.88 589.332 1037.37 593.492 1038.66C595.972 1039.42 596.642 1040.74 595.872 1042.76C595.692 1043.23 595.612 1043.72 595.452 1044.19C594.192 1048.01 593.442 1048.37 588.992 1046.9C580.522 1044.1 572.122 1041.01 563.802 1037.63C560.042 1036.09 559.532 1035.35 560.822 1032.06C563.232 1025.89 565.852 1019.81 568.392 1013.69C568.422 1013.7 568.462 1013.72 568.492 1013.73Z" fill="black"/>
<path d="M859.313 1007.37C860.463 1010.3 861.623 1013.23 862.763 1016.16C863.383 1017.76 864.503 1018.38 866.493 1018.13C869.913 1017.72 873.143 1020.09 873.063 1023.27C873.033 1024.33 871.843 1025.81 870.743 1026.5C868.333 1028.02 867.373 1029.57 868.693 1031.84C868.903 1032.2 868.983 1032.62 869.153 1032.99C871.313 1037.96 870.373 1039.61 863.053 1041.64C861.923 1041.95 860.013 1040.57 859.063 1039.52C858.083 1038.45 857.843 1036.82 857.243 1035.46C856.173 1033.03 854.673 1032.46 851.783 1033.44C846.863 1035.11 841.913 1036.65 836.993 1038.26C834.443 1039.09 832.783 1038.34 832.343 1036.3C831.803 1033.86 831.063 1031.11 831.783 1028.8C834.463 1020.12 837.353 1011.53 839.843 1002.91C840.123 1001.93 840.873 1000.63 841.713 1000.3C845.393 998.87 849.153 997.55 852.953 996.43C853.623 996.23 855.163 997.32 855.563 998.16C856.973 1001.15 858.063 1004.29 859.273 1007.37C859.283 1007.37 859.303 1007.36 859.313 1007.35V1007.37ZM851.153 1017.41C851.153 1017.41 851.203 1017.39 851.223 1017.38C850.723 1015.99 850.303 1014.56 849.673 1013.22C849.443 1012.72 848.713 1012.1 848.233 1012.14C847.723 1012.18 846.973 1012.87 846.803 1013.4C845.723 1016.77 844.563 1020.15 843.713 1023.58C843.203 1025.59 844.583 1026.43 846.833 1025.81C852.443 1024.24 852.863 1023.56 851.503 1018.59C851.393 1018.19 851.263 1017.8 851.143 1017.41H851.153Z" fill="black"/>
<path d="M780.842 1037.84C781.482 1041.85 782.262 1045.83 782.712 1049.86C783.062 1052.97 782.222 1055.97 780.092 1058.65C776.112 1063.66 769.982 1064.96 763.842 1064.48C756.342 1063.89 752.172 1059.32 751.612 1052.74C750.992 1045.65 750.372 1038.55 749.942 1031.45C749.532 1023.92 754.322 1017.86 762.452 1016.96C765.902 1016.58 769.172 1016.59 772.382 1018.06C776.042 1019.74 778.252 1022.54 779.022 1026.3C779.802 1030.11 780.292 1033.98 780.902 1037.82C780.882 1037.82 780.852 1037.82 780.832 1037.83L780.842 1037.84ZM770.932 1040.06C770.932 1040.06 771.002 1040.06 771.042 1040.05C770.622 1036.94 770.272 1033.81 769.772 1030.7C769.292 1027.7 766.892 1026.02 763.892 1026.37C760.982 1026.71 759.702 1028.31 760.022 1031.78C760.582 1037.88 761.242 1043.97 761.972 1050.06C762.322 1053.05 764.922 1055.07 767.622 1054.69C770.652 1054.26 772.482 1051.8 772.082 1048.67C771.722 1045.8 771.322 1042.92 770.942 1040.05L770.932 1040.06Z" fill="black"/>
<path d="M723.112 1067.47C719.092 1067.51 715.052 1067.63 711.052 1067.38C706.992 1067.12 705.792 1065.84 706.212 1062.36C706.712 1058.12 706.622 1053.83 709.192 1049.89C712.392 1044.97 717.452 1042.42 722.412 1039.63C723.782 1038.86 725.332 1038.37 726.652 1037.55C728.952 1036.12 729.762 1033.49 728.572 1032.02C727.362 1030.52 724.172 1030.54 722.102 1031.99C720.832 1032.89 719.312 1034.62 718.242 1034.41C715.842 1033.93 713.562 1032.62 711.512 1031.27C710.942 1030.89 710.792 1028.93 711.282 1028.31C717.682 1020.42 725.592 1017.09 735.212 1022.98C738.932 1025.26 741.112 1032.66 739.872 1036.79C737.952 1043.16 732.422 1045.98 726.752 1048.93C724.292 1050.22 722.092 1052.08 720.092 1053.96C719.332 1054.67 719.172 1056.34 719.512 1057.36C719.692 1057.91 721.512 1058.3 722.612 1058.3C727.482 1058.34 732.352 1058.21 737.212 1057.88C739.422 1057.73 740.172 1058.4 740.252 1060.33C740.502 1066.24 740.282 1066.66 733.452 1067.24C730.022 1067.52 726.562 1067.46 723.112 1067.5C723.112 1067.49 723.112 1067.48 723.112 1067.46V1067.47Z" fill="black"/>
<path d="M810.43 1057.36C806.48 1058.25 802.54 1059.2 798.55 1059.81C794.08 1060.49 792.64 1059.42 792.34 1055.5C791.99 1051.16 791.12 1046.92 793.04 1042.46C795.26 1037.31 799.54 1033.98 803.56 1030.35C804.99 1029.06 806.62 1027.98 807.97 1026.63C809.57 1025.03 809.55 1023.02 808.01 1021.69C806.6 1020.47 804.59 1020.53 802.97 1021.94C802.2 1022.61 801.31 1023.32 800.92 1024.19C799.91 1026.44 798.11 1026.5 796.08 1026.12C795.57 1026.02 795.09 1025.8 794.58 1025.67C789.05 1024.21 788.69 1023.14 792.02 1018.57C794.04 1015.77 796.18 1013.27 799.54 1011.59C803.91 1009.41 807.9 1010.23 812.21 1011.09C816.27 1011.9 820.6 1020.1 820.23 1023.82C819.57 1030.44 814.81 1034.39 809.85 1038.49C807.64 1040.32 805.66 1042.63 804.24 1045.02C802.58 1047.8 804.21 1049.39 807.64 1048.64C812.42 1047.6 817.2 1046.45 821.91 1045.1C824 1044.5 824.95 1044.87 825.46 1046.8C826.98 1052.63 826.93 1052.98 820.27 1055.01C817.04 1055.98 813.72 1056.63 810.43 1057.38V1057.37V1057.36Z" fill="black"/>
<path d="M619.472 1055.68C613.122 1053.98 608.512 1050.41 605.842 1045.07C604.692 1042.78 605.162 1041.85 607.732 1041.29C608.622 1041.09 609.522 1040.94 610.402 1040.72C615.002 1039.59 615.552 1039.85 618.242 1043.36C619.172 1044.57 621.542 1045.27 623.332 1045.51C625.262 1045.76 626.112 1043.77 624.692 1042.06C622.552 1039.48 620.012 1037.18 617.812 1034.65C615.672 1032.19 613.492 1029.73 611.772 1027.04C608.862 1022.49 610.052 1016.63 613.972 1013.18C620.512 1007.43 628.032 1007.48 634.882 1013.12C637.432 1015.22 639.642 1017.38 640.752 1020.56C641.372 1022.34 641.092 1023.25 639.162 1023.61C638.222 1023.78 637.212 1023.84 636.382 1024.23C633.242 1025.69 631.122 1024.91 629.312 1021.93C627.942 1019.67 624.302 1018.88 622.862 1020C621.202 1021.3 621.752 1024.34 624.012 1026.41C626.912 1029.07 630.142 1031.49 632.742 1034.39C637.852 1040.07 640.512 1046.7 632.462 1053.13C628.642 1056.14 624.472 1056.92 619.482 1055.7L619.472 1055.68Z" fill="black"/>
<path d="M655.971 1044.54C656.741 1039.72 657.571 1034.9 658.261 1030.06C658.781 1026.38 657.961 1025.44 654.191 1024.72C654.111 1024.7 654.021 1024.69 653.931 1024.67C647.951 1023.53 647.361 1022.42 649.351 1016.94C649.981 1015.2 651.351 1015.11 652.881 1015.36C658.871 1016.36 664.871 1017.22 670.881 1017.95C673.331 1018.25 675.781 1018.6 678.241 1018.86C680.221 1019.07 681.071 1020.19 681.091 1022.04C681.091 1022.29 681.091 1022.54 681.091 1022.79C680.911 1028.35 680.711 1028.56 674.921 1027.93C670.261 1027.4 669.821 1027.63 669.211 1032.04C667.971 1041.15 666.821 1050.27 665.621 1059.38C665.131 1063.16 664.251 1064.32 659.401 1063.36C653.041 1062.07 653.001 1062.27 653.921 1056.79C654.601 1052.71 655.231 1048.61 655.891 1044.52C655.921 1044.52 655.951 1044.53 655.981 1044.53L655.971 1044.54Z" fill="black"/>
<path d="M1052.45 619.473H1174.8" stroke="black" stroke-width="9" stroke-miterlimit="10"/>
<path d="M1052.45 648.473H1174.8" stroke="black" stroke-width="9" stroke-miterlimit="10"/>
<path d="M1052.45 590.253H1174.8" stroke="black" stroke-width="9" stroke-miterlimit="10"/>
<path d="M1052.45 706.473H1174.8" stroke="black" stroke-width="9" stroke-miterlimit="10"/>
<path d="M1052.45 677.473H1174.8" stroke="black" stroke-width="9" stroke-miterlimit="10"/>
<path d="M263 619.473H385.34" stroke="black" stroke-width="9" stroke-miterlimit="10"/>
<path d="M263 648.473H385.34" stroke="black" stroke-width="9" stroke-miterlimit="10"/>
<path d="M263 590.253H385.34" stroke="black" stroke-width="9" stroke-miterlimit="10"/>
<path d="M263 706.473H385.34" stroke="black" stroke-width="9" stroke-miterlimit="10"/>
<path d="M263 677.473H385.34" stroke="black" stroke-width="9" stroke-miterlimit="10"/>
<path d="M597.048 722.906C597.723 729.468 597.547 736.11 597.601 742.726C597.615 744.914 595.792 746.548 593.456 746.723C591.66 746.858 589.851 746.858 588.042 746.804C579.617 746.588 571.178 746.183 562.834 747.857C561.672 748.087 560.43 747.965 559.229 747.857C557.244 747.695 555.921 746.575 555.218 744.725C553.571 740.391 553.247 735.827 554.071 731.371C555.826 721.812 555.813 712.198 555.407 702.585C555.016 693.282 554.192 684.006 553.612 674.703C553.396 671.287 551.694 669.181 548.494 668.074C539.232 664.874 529.659 664.172 520.005 664.995C515.32 665.4 512.498 668.438 511.323 672.988C508.731 683.034 508.285 693.133 510.203 703.368C510.756 706.298 511.04 709.322 511.053 712.306C511.08 720.138 510.918 727.955 510.743 735.786C510.702 737.879 510.513 739.986 510.081 742.038C509.028 747.169 507.867 748.114 502.858 748.181C498.942 748.222 495.026 748.181 491.111 748.181V747.844C486.291 747.844 481.47 748.033 476.664 747.79C471.627 747.547 469.859 745.724 468.886 740.661C468.778 740.08 468.711 739.473 468.67 738.865C468.103 729.873 467.442 720.88 467.01 711.874C466.794 707.378 467.334 702.909 467.887 698.413C469.386 686.126 469.129 673.772 467.617 661.485C466.942 656.057 466.875 650.778 467.725 645.35C469.183 636.101 469.048 626.744 468.4 617.414C467.955 611.095 468.036 604.817 468.36 598.498C468.724 591.288 468.589 584.051 468.819 576.84C468.927 573.546 469.44 570.279 469.67 566.984C469.926 563.271 472.383 561.84 475.556 561.232C477.325 560.895 479.148 560.908 480.944 560.76C486.642 560.314 492.339 559.828 498.024 559.423C499.82 559.288 501.642 559.112 503.411 559.328C507.624 559.828 508.933 561.286 509.973 565.458C511.08 569.914 511.269 574.505 510.486 578.906C509.42 584.901 509.514 590.883 509.447 596.891C509.366 603.507 509.406 610.137 509.447 616.753C509.447 618.859 509.42 620.992 509.784 623.044C510.365 626.258 512.336 628.594 515.603 629.201C522.409 630.471 529.241 631.47 536.194 630.025C540.015 629.228 543.944 628.931 547.752 628.108C554.179 626.717 555.326 625.299 555.502 619.088C555.57 616.388 555.448 613.674 555.394 610.96C555.259 604.641 555.529 598.417 556.38 592.098C557.257 585.59 556.717 578.893 556.771 572.277C556.785 570.171 556.569 568.064 556.704 565.971C556.92 562.744 558.648 561.03 561.834 560.8C564.832 560.584 567.856 560.584 570.854 560.368C573.554 560.165 576.228 559.706 578.928 559.531C582.52 559.301 586.138 559.004 589.73 559.139C594.739 559.328 596.656 561.286 597.291 566.322C597.48 567.794 597.588 569.374 597.264 570.805C595.968 576.449 596.278 582.187 596.251 587.885C596.211 596.621 595.644 605.424 596.562 614.052C597.669 624.57 597.48 635.061 597.52 645.579C597.534 649.171 596.967 652.749 596.724 656.341C596.521 659.338 596.238 662.349 596.278 665.346C596.4 675.554 595.576 685.802 597.426 695.969C597.736 697.684 597.466 699.587 597.156 701.343C595.914 708.526 596.278 715.655 597.021 722.878H597.048V722.906Z" fill="black"/>
<path d="M663.993 673.893C664.48 676.499 664.682 679.442 663.966 681.94C661.442 690.905 662.603 699.857 663.386 708.823C663.588 711.226 663.561 713.508 663.426 715.925C662.981 723.729 663.021 731.56 662.819 739.364C662.765 741.457 662.819 743.604 662.373 745.616C662.157 746.547 660.888 747.816 660.01 747.897C657.04 748.154 653.961 748.356 651.059 747.816C645.037 746.723 639.136 746.601 633.155 747.911C631.413 748.289 629.563 748.221 627.768 748.194C624.149 748.154 622.191 746.493 621.962 742.74C621.692 738.243 621.773 733.72 621.773 729.211C621.746 719.584 621.773 709.957 621.773 700.33V672.353C621.921 672.353 621.989 631.442 621.53 610.987C621.341 602.899 621.354 594.838 621.867 586.764C622.205 581.377 621.773 575.935 621.719 570.521C621.705 569.022 621.719 567.51 621.854 566.011C622.137 562.568 623.825 560.287 627.227 559.706C630.171 559.206 633.317 558.815 636.193 559.328C642.741 560.503 649.29 561.151 655.933 561.124C656.81 561.124 657.729 561.326 658.579 561.61C660.739 562.312 662.252 563.716 662.495 566.065C662.711 568.158 662.751 570.265 662.805 572.371C663.075 582.241 664.223 592.057 663.008 601.994C662.319 607.611 663.183 613.35 663.683 619.061C664.358 626.811 664.169 634.696 663.615 642.473C662.873 652.978 662.036 663.415 663.993 673.893Z" fill="black"/>
<path d="M832.19 742.051C833.175 743.726 831.933 745.791 829.989 746.007C829.381 746.075 828.787 746.183 828.193 746.169C818.269 745.94 808.345 745.656 798.461 747.236C793.439 748.033 789.712 745.791 787.309 741.349C786.31 739.499 785.256 737.677 784.352 735.773C781.989 730.872 779.316 726.213 775.508 722.23C774.063 720.718 772.808 718.949 771.862 717.1C769.513 712.536 766.583 708.377 763.599 704.219C761.52 701.329 760.035 697.954 758.536 694.686C755.133 687.233 750.448 680.617 745.628 674.069C744.386 672.381 742.914 670.828 741.321 669.464C736.919 665.724 730.506 668.033 729.48 673.65C729.372 674.231 729.264 674.852 729.291 675.446C729.75 688.975 726.806 702.382 727.738 715.925C727.994 719.516 728.102 723.067 728.737 726.659C729.466 730.737 729.358 735.084 728.872 739.216C728.426 743.01 726.28 745.913 721.878 746.223C719.502 746.385 717.031 747.25 714.749 746.885C707.849 745.791 700.95 746.021 694.023 746.115C693.119 746.129 692.214 746.102 691.323 746.007C689.838 745.859 688.474 744.536 688.393 743.037C688.298 740.931 688.231 738.824 688.352 736.718C689.054 723.486 688.717 710.335 687.407 697.103C686.287 685.775 687.029 674.258 686.948 662.821C689.892 648.496 687.515 634.022 688.271 619.628C688.366 617.846 688.231 615.983 687.826 614.255C687.043 610.947 687.529 607.747 687.826 604.439C688.609 595.77 688.987 587.102 687.394 578.393C686.597 574.018 686.827 569.401 687.07 564.918C687.272 561.34 689.473 559.841 693.213 559.841H732.031C732.031 559.949 755.511 560.233 767.245 560.152C773.672 560.111 779.788 561.367 785.621 564.04C789.996 566.052 794.384 568.01 798.637 570.251C804.969 573.6 809.547 578.758 812.652 585.117C815.015 589.978 817.202 594.933 819.133 599.983C819.97 602.17 820.227 604.682 820.281 607.058C820.47 614.011 819.795 620.857 817.243 627.432C816.149 630.241 815.042 633.036 814.191 635.912C811.855 643.797 806.833 649.589 800.298 654.221C797.354 656.313 794.262 658.163 791.184 660.067C785.027 663.888 784.001 667.088 787.646 673.461C790.171 677.89 792.966 682.251 796.207 686.166C801.621 692.715 806.333 699.533 809.466 707.513C810.748 710.767 813.084 713.805 815.528 716.384C822.698 723.932 827.059 733.234 832.23 742.024H832.203L832.19 742.051ZM767.771 604.992C767.528 601.414 765.395 598.849 762.1 597.539C760.183 596.783 758.09 596.283 756.025 596.094C753.351 595.851 750.637 596.027 747.95 596.027C745.25 596.027 742.563 596 739.863 596.04C738.972 596.054 738.067 596.189 737.189 596.364C731.559 597.499 728.494 601.117 727.913 606.923C727.427 611.811 728.777 616.428 729.79 621.073C730.398 623.882 732.558 625.853 735.245 626.582C743.144 628.715 751.15 629.458 759.157 627.054C764.274 625.515 767.204 621.816 767.758 616.644C768.176 612.796 768.028 608.867 767.758 604.992H767.771Z" fill="black"/>
<path d="M968.151 711.293C969.11 711.833 969.906 712.751 970.608 713.643C970.932 714.061 970.959 714.79 970.959 715.384C970.932 723.823 970.973 732.262 970.77 740.687C970.676 745.075 968.556 747.168 964.195 747.843C963.304 747.978 962.386 748.019 961.494 748.019C950.652 748.086 939.81 748.154 928.954 748.181C924.431 748.181 919.922 748.086 915.398 748.086C909.39 748.086 903.355 748.572 897.414 747.087C895.983 746.722 894.416 746.749 892.918 746.817C886.612 747.1 880.266 748.086 874.015 747.654C867.696 747.222 861.417 746.506 855.112 747.249C852.627 747.533 850.319 747.303 848.01 746.533C845.485 745.696 844.121 743.82 843.406 741.376C843.325 741.092 843.311 740.768 843.298 740.471C842.784 730.588 840.476 720.799 841.488 710.821C841.92 706.635 842.717 702.476 842.838 698.291C843.19 687.165 843.406 676.012 843.419 664.873C843.433 653.126 843.041 641.38 843.041 629.633C843.041 619.101 843.46 608.543 843.406 598.011C843.365 587.777 842.92 577.542 842.703 567.307C842.568 561.204 844.904 558.504 850.602 559.368C862.605 561.232 874.663 560.151 886.693 560.489C890.906 560.61 895.118 560.799 899.345 560.745C905.663 560.664 912.063 560.961 918.288 560.111C929.427 558.572 940.539 559.301 951.665 559.26C955.824 559.247 960.023 560.219 964.141 561.056C966.625 561.556 968.38 563.27 968.988 565.89C970.838 573.856 971.364 581.944 970.838 590.099C970.784 590.99 970.622 591.922 970.271 592.745C969.555 594.474 968.448 595.932 966.436 596.175C964.357 596.431 962.237 596.512 960.144 596.674C956.242 596.985 952.353 597.457 948.451 597.579C944.563 597.714 940.62 597.795 936.759 597.376C929.832 596.634 922.987 596.607 916.06 597.525C910.119 598.308 904.057 598.214 898.035 598.497C895.334 598.632 892.594 598.538 889.934 598.943C886.585 599.442 884.519 601.67 884.29 605.046C883.885 611.054 883.817 617.062 885.68 622.936C886.585 625.771 888.327 627.634 891.23 628.269C893.579 628.782 895.955 629.457 898.305 629.471C902.815 629.498 907.392 629.511 911.834 628.823C920.543 627.473 929.265 627.688 937.987 627.756C942.457 627.783 946.953 628.674 951.381 629.444C954.487 629.984 955.864 631.874 956.134 635.128C956.161 635.425 956.188 635.736 956.188 636.033C956.161 643.553 956.175 651.088 956.067 658.622C956.013 662.173 954.068 664.32 950.666 664.684C948.573 664.914 946.453 664.833 944.347 664.954C941.039 665.143 937.69 665.103 934.436 665.602C923.338 667.331 912.279 667.195 901.167 665.751C897.927 665.319 894.524 665.481 891.27 665.899C887.233 666.439 884.519 669.113 884.398 673.123C884.074 683.33 883.21 693.565 885.532 703.705C886.221 706.689 887.652 708.701 890.69 709.2C894.835 709.875 898.993 710.74 903.166 710.834C913.117 711.064 933.019 710.578 933.019 710.429C943.847 710.591 954.662 710.753 965.491 710.942C966.396 710.956 967.422 710.875 968.137 711.28L968.151 711.293Z" fill="black"/>
<path d="M293.78 444.45C296.07 444.18 296.2 444.27 296.71 446.55C297.07 448.2 297.43 449.84 297.8 451.49C297.89 451.9 298 452.31 298.07 452.72C298.23 453.63 297.92 454.26 297.04 454.5C295.61 454.9 294.16 455.22 292.72 455.55C291.36 455.85 289.98 456.09 288.63 456.44C287.57 456.71 286.98 457.48 287.07 458.51C287.17 459.59 287.33 460.7 287.6 461.75C288.96 466.97 289.8 472.31 291.28 477.51C292.09 481.04 292.9 484.58 293.68 488.11C294.17 490.33 294.61 492.57 295.06 494.8C295.13 495.13 295.21 495.47 295.22 495.8C295.27 497.9 295.08 498.1 293.05 498.49C292.72 498.55 292.37 498.6 292.03 498.6C290.63 498.58 289.34 498.97 288.07 499.51C287.29 499.84 286.44 500.03 285.61 500.2C284.78 500.37 284.08 499.96 283.79 499.17C283.56 498.54 283.39 497.88 283.24 497.23C282.7 494.84 282.21 492.45 281.66 490.07C280.58 485.48 279.45 480.89 278.36 476.3C278.09 475.16 277.96 473.99 277.86 472.81C277.72 471.23 277.41 469.61 276.85 468.13C276.28 466.62 275.91 465.08 275.49 463.54C275.4 463.21 275.3 462.89 275.23 462.56C274.8 460.55 273.54 459.84 271.39 460.11C270.18 460.27 268.99 460.59 267.8 460.86C266.69 461.1 265.59 461.4 264.47 461.59C262.95 461.86 262.44 461.53 262.07 460.02C261.57 457.97 261.11 455.91 260.68 453.85C260.46 452.79 260.8 452.24 261.92 451.99C264.23 451.47 266.45 450.62 268.82 450.28C270.19 450.08 271.52 449.54 272.83 449.05C273.75 448.71 274.66 448.46 275.63 448.39C277.74 448.23 279.8 447.77 281.77 446.98C282.6 446.65 283.43 446.46 284.32 446.41C286 446.32 287.64 446 289.18 445.33C290.17 444.9 291.16 444.65 292.23 444.64C292.75 444.64 293.27 444.52 293.79 444.45H293.78Z" fill="black"/>
<path d="M349.42 479.33C349.97 481.09 350.27 482.93 350.64 484.74C350.76 485.34 350.34 485.89 349.7 486.06C349.21 486.19 348.7 486.29 348.2 486.38C345.84 486.78 343.48 487.14 341.25 488.07C340.94 488.2 340.59 488.23 340.25 488.27C339.69 488.34 339.26 488.1 338.96 487.64C338.26 486.54 337.92 485.31 337.9 484.04C337.86 481.32 337.32 478.68 336.67 476.06C336.05 473.53 335.29 471.03 334.62 468.51C334.37 467.59 333.78 467.1 332.81 466.98C330.03 466.63 327.3 466.99 324.63 467.78C323.34 468.16 322.72 469.16 322.65 470.48C322.5 473.38 322.96 476.18 324.08 478.87C324.4 479.65 324.66 480.45 324.83 481.27C325.29 483.41 325.69 485.57 326.09 487.72C326.2 488.29 326.26 488.89 326.27 489.47C326.27 490.94 326 491.26 324.62 491.57C323.54 491.81 322.45 492.03 321.36 492.26C321.36 492.23 321.35 492.2 321.34 492.17C320 492.46 318.68 492.79 317.33 493.01C315.92 493.24 315.32 492.85 314.75 491.52C314.69 491.37 314.63 491.21 314.58 491.04C313.89 488.61 313.17 486.19 312.52 483.76C312.19 482.54 312.08 481.29 311.97 480.02C311.66 476.57 310.86 473.2 309.71 469.93C309.2 468.49 308.87 467.04 308.79 465.51C308.65 462.89 308.06 460.34 307.33 457.83C306.83 456.13 306.48 454.4 306.2 452.65C305.88 450.65 305.41 448.68 305.05 446.69C304.89 445.78 304.84 444.86 304.71 443.94C304.56 442.91 305.18 442.36 306.05 442.01C306.53 441.81 307.06 441.7 307.56 441.55C309.15 441.08 310.75 440.6 312.35 440.15C312.85 440.01 313.37 439.85 313.88 439.8C315.11 439.68 315.57 440.01 316.1 441.09C316.67 442.24 316.99 443.49 317.02 444.74C317.06 446.45 317.43 448.08 317.76 449.73C318.12 451.55 318.51 453.37 318.9 455.17C319.02 455.74 319.14 456.34 319.36 456.87C319.71 457.71 320.4 458.24 321.36 458.21C323.36 458.16 325.34 458.03 327.22 457.23C328.26 456.79 329.35 456.48 330.38 456.04C332.12 455.29 332.36 454.84 332.07 453.12C331.94 452.37 331.75 451.64 331.59 450.9C331.21 449.18 330.93 447.45 330.82 445.67C330.71 443.83 330.18 442.03 329.83 440.21C329.72 439.63 329.54 439.07 329.46 438.48C329.34 437.59 329.74 437.01 330.64 436.76C331.48 436.53 332.35 436.36 333.19 436.12C333.95 435.91 334.69 435.63 335.45 435.43C336.46 435.16 337.48 434.88 338.51 434.71C339.95 434.48 340.6 434.91 341.06 436.26C341.19 436.66 341.31 437.08 341.29 437.49C341.22 439.11 341.62 440.68 341.92 442.24C342.38 444.64 342.69 447.09 343.42 449.41C344.3 452.24 344.81 455.13 345.39 458.02C345.59 459 345.62 460.02 345.74 461.02C345.84 461.85 345.93 462.7 346.1 463.52C346.68 466.31 347.01 469.18 348.07 471.87C348.25 472.32 348.28 472.86 348.28 473.36C348.32 475.4 348.81 477.34 349.4 479.29L349.42 479.33Z" fill="black"/>
<path d="M395.841 467.52C396.131 467.62 396.401 467.84 396.641 468.05C396.751 468.15 396.791 468.35 396.821 468.51C397.211 470.84 397.61 473.17 397.96 475.5C398.14 476.72 397.65 477.39 396.46 477.79C396.22 477.87 395.97 477.92 395.71 477.97C392.69 478.51 389.671 479.05 386.651 479.59C385.391 479.81 384.121 480.01 382.871 480.23C381.201 480.53 379.541 480.97 377.811 480.86C377.391 480.83 376.961 480.92 376.541 481.01C374.801 481.41 373.081 482 371.321 482.21C369.541 482.41 367.761 482.55 366.041 483.08C365.361 483.29 364.711 483.35 364.031 483.26C363.291 483.16 362.811 482.71 362.481 482.08C362.441 482.01 362.421 481.92 362.401 481.84C361.741 479.15 360.591 476.58 360.351 473.78C360.251 472.61 360.26 471.42 360.08 470.26C359.6 467.17 359.081 464.1 358.501 461.04C357.891 457.8 357.171 454.6 356.561 451.37C356.011 448.47 355.58 445.55 355.02 442.65C354.47 439.84 353.811 437.05 353.221 434.24C352.861 432.57 353.391 431.7 355.061 431.63C358.591 431.49 361.991 430.56 365.441 430.02C366.651 429.83 367.871 429.67 369.071 429.43C370.881 429.08 372.721 428.83 374.461 428.28C377.571 427.29 380.791 426.93 383.981 426.37C385.171 426.16 386.421 426.22 387.641 426.25C388.381 426.27 388.961 426.65 389.261 427.35C390.161 429.45 390.691 431.67 390.931 433.94C390.951 434.19 390.951 434.46 390.891 434.7C390.771 435.21 390.52 435.67 389.96 435.83C389.38 436 388.781 436.12 388.191 436.28C387.101 436.55 386.001 436.88 384.901 437.11C383.801 437.34 382.681 437.56 381.561 437.63C379.551 437.77 377.601 438.11 375.671 438.71C374.021 439.23 372.281 439.51 370.591 439.9C369.831 440.07 369.051 440.2 368.311 440.44C367.381 440.75 366.901 441.47 367.011 442.41C367.201 444.09 367.491 445.74 368.311 447.26C368.701 447.99 369.301 448.42 370.151 448.44C370.841 448.46 371.541 448.52 372.221 448.41C373.501 448.19 374.8 447.96 376.02 447.54C378.42 446.73 380.911 446.34 383.381 445.93C384.651 445.72 385.961 445.74 387.261 445.73C388.161 445.73 388.641 446.18 388.881 447.07C388.901 447.15 388.921 447.23 388.941 447.31C389.291 449.39 389.651 451.46 389.981 453.55C390.131 454.53 389.69 455.22 388.74 455.49C388.16 455.65 387.561 455.74 386.971 455.87C386.051 456.08 385.101 456.24 384.201 456.54C381.151 457.57 378.031 458.09 374.821 458.25C373.881 458.3 372.941 458.51 372.041 458.8C370.921 459.15 370.301 460.03 370.471 461.14C370.891 463.97 371.17 466.84 372.33 469.5C372.67 470.29 373.17 470.76 374.05 470.75C375.24 470.73 376.461 470.75 377.631 470.57C380.431 470.12 385.981 469.01 385.971 468.97C389.011 468.48 392.051 468 395.101 467.53C395.351 467.49 395.64 467.42 395.86 467.5L395.841 467.52Z" fill="black"/>
<path d="M483.142 461.74C483.262 462.23 483.292 462.74 483.302 463.25C483.312 463.85 482.932 464.41 482.322 464.58C480.602 465.06 478.872 465.51 477.512 465.87C476.372 465.94 475.602 466.01 474.842 466.04C473.612 466.1 472.632 465.65 472.212 464.46C470.972 460.89 469.172 457.51 468.452 453.76C468.322 453.1 468.132 452.44 467.872 451.83C467.082 449.97 466.242 448.13 465.412 446.29C465.312 446.06 465.212 445.8 465.032 445.64C464.792 445.43 464.492 445.17 464.192 445.14C463.702 445.1 463.402 445.51 463.312 445.93C462.892 447.91 462.282 449.86 462.322 451.9C462.352 453.67 462.162 455.42 461.982 457.18C461.742 459.52 461.562 461.87 461.352 464.22C461.272 465.06 461.212 465.9 461.052 466.73C460.912 467.45 460.442 467.97 459.692 468.06C456.912 468.4 454.152 468.99 451.312 468.83C450.482 468.78 449.812 468.49 449.392 467.78C449.002 467.13 448.592 466.48 448.352 465.77C447.562 463.46 446.742 461.16 446.122 458.81C445.252 455.53 443.552 452.6 442.302 449.47C442.092 448.94 441.692 448.46 441.312 448.03C440.912 447.59 440.052 447.82 439.812 448.4C439.682 448.71 439.542 449.04 439.542 449.36C439.542 450.62 439.582 451.88 439.592 453.14C439.592 454.23 439.652 455.33 439.532 456.41C439.222 459.43 439.302 462.46 439.202 465.48C439.162 466.82 438.982 468.16 438.822 469.49C438.742 470.13 438.332 470.58 437.682 470.71C434.932 471.24 432.232 472.02 429.392 471.99C429.142 471.99 428.842 472.03 428.642 471.92C428.362 471.78 427.992 471.53 427.952 471.28C427.802 470.37 427.702 469.44 427.712 468.52C427.732 466.84 427.862 465.16 427.922 463.48C427.952 462.81 427.992 462.13 427.882 461.47C427.512 459.19 427.642 456.93 428.062 454.68C428.382 453 428.532 451.34 428.252 449.66C428.022 448.31 428.272 446.97 428.402 445.63C428.522 444.37 428.732 443.12 428.852 441.86C428.912 441.19 428.972 440.51 428.902 439.85C428.622 436.99 428.672 434.16 428.992 431.29C429.392 427.87 429.502 424.41 429.722 420.96C429.802 419.74 430.122 419.29 431.382 419.05C433.012 418.73 434.662 418.46 436.302 418.24C437.592 418.06 438.912 417.98 440.212 417.84C440.652 417.8 441.082 417.73 441.522 417.71C442.992 417.65 444.032 418.26 444.602 419.58C444.702 419.81 444.792 420.05 444.862 420.3C445.632 423.06 446.912 425.64 447.632 428.41C448.142 430.36 448.802 432.27 449.412 434.19C449.482 434.43 449.612 434.66 449.752 434.86C450.022 435.23 450.432 435.45 450.872 435.32C451.162 435.24 451.552 434.98 451.632 434.72C451.912 433.75 452.162 432.76 452.282 431.77C452.412 430.69 452.462 429.58 452.402 428.49C452.322 426.87 452.552 425.3 452.842 423.72C453.162 421.98 453.602 420.25 453.342 418.45C453.292 418.13 453.422 417.78 453.442 417.45C453.492 416.57 454.002 416.05 454.842 415.82C456.362 415.42 457.892 415.05 459.422 414.7C459.762 414.62 460.112 414.57 460.462 414.55C462.202 414.44 463.942 414.35 465.692 414.26C466.732 414.21 467.112 414.49 467.432 415.41C468.672 418.99 469.892 422.57 471.152 426.15C471.712 427.74 472.352 429.29 472.912 430.88C473.132 431.51 473.282 432.18 473.362 432.85C473.592 434.81 474.312 436.6 475.252 438.31C475.912 439.5 476.352 440.76 476.632 442.09C476.852 443.16 477.112 444.23 477.502 445.25C478.612 448.16 479.402 451.17 480.702 454.02C481.512 455.78 482.052 457.64 482.482 459.54C482.652 460.28 482.952 460.98 483.132 461.71L483.142 461.74Z" fill="black"/>
<path d="M523.788 428.47C523.968 428.93 523.948 429.47 523.998 429.97C524.368 433.58 524.728 437.18 525.088 440.78C525.188 441.77 525.168 448.59 525.058 449.33C524.638 452.09 523.528 454.51 521.378 456.36C519.778 457.74 518.118 459.07 516.418 460.33C515.758 460.82 514.928 461.22 514.128 461.38C509.938 462.21 505.708 462.42 501.448 461.91C500.218 461.76 499.148 461.39 498.178 460.63C496.978 459.69 495.768 458.77 494.548 457.86C492.418 456.27 491.178 454.08 490.398 451.64C489.838 449.89 489.448 448.09 489.128 446.26C488.418 442.18 488.328 438.04 487.568 433.98C487.398 433.07 487.338 432.14 487.228 431.22C487.258 431.22 486.288 422.67 485.778 418.41C485.588 416.82 485.348 415.24 485.218 413.64C485.128 412.43 485.568 411.94 486.798 411.7C488.938 411.29 491.078 410.87 493.238 410.53C494.088 410.4 494.978 410.36 495.838 410.42C496.748 410.49 497.458 411.31 497.338 412.19C497.078 414.06 497.458 415.89 497.658 417.72C497.858 419.56 497.908 421.44 498.298 423.24C498.858 425.88 499.028 428.55 499.198 431.23C499.338 433.33 499.598 435.43 499.908 437.51C500.338 440.34 500.908 443.14 501.328 445.97C501.628 448.03 502.928 449.43 505.028 450.06C507.908 450.94 510.238 450.2 512.038 447.82C513.898 445.37 514.178 442.62 513.168 439.89C512.048 436.87 512.118 433.76 512.038 430.67C511.988 428.72 512.038 426.8 511.348 424.95C511.208 424.56 511.168 424.13 511.118 423.71C510.908 421.87 510.708 420.02 510.528 418.18C510.478 417.68 510.428 417.17 510.508 416.67C510.708 415.48 510.618 414.33 510.158 413.2C510.008 412.82 509.918 412.39 509.878 411.98C509.718 410.4 510.448 409.37 512.028 408.97C513.458 408.61 514.898 408.19 516.368 408.03C517.738 407.88 519.148 408.01 520.538 408.07C521.178 408.11 521.798 408.73 521.878 409.43C521.988 410.43 522.088 411.45 522.048 412.45C521.938 414.91 522.248 417.33 522.658 419.74C522.758 420.32 522.838 420.88 522.858 421.47C522.938 423.82 522.918 426.19 523.778 428.45L523.788 428.47Z" fill="black"/>
<path d="M569.179 441.52C569.479 442.68 569.339 443.85 568.899 444.99C567.889 447.6 566.639 450.09 565.179 452.47C564.319 453.87 563.149 454.94 561.599 455.59C560.509 456.05 559.469 456.64 558.369 457.09C557.669 457.37 556.909 457.67 556.169 457.68C552.769 457.68 549.369 457.54 546.079 456.6C544.349 456.11 542.789 455.33 541.509 453.98C540.639 453.07 539.519 452.41 538.569 451.56C537.879 450.94 537.259 450.25 536.709 449.51C536.279 448.94 536.509 448.13 537.089 447.72C539.449 446.04 541.829 444.39 544.179 442.7C544.999 442.11 545.749 442.11 546.519 442.7C547.329 443.31 548.149 443.93 548.899 444.62C550.489 446.1 552.339 446.35 554.379 445.93C554.469 445.91 554.549 445.9 554.629 445.88C556.719 445.33 557.499 443.11 556.039 441.53C555.129 440.55 553.979 439.76 552.849 439.02C552.079 438.51 551.149 438.23 550.289 437.86C545.549 435.83 541.119 433.31 537.099 430.08C534.049 427.63 532.629 424.39 532.399 420.63C532.269 418.6 532.579 416.6 533.589 414.75C534.439 413.18 535.209 411.57 536.109 410.03C536.899 408.68 538.059 407.62 539.509 406.96C540.369 406.57 541.309 406.32 542.229 406.09C544.079 405.62 545.949 405.2 547.349 404.87C549.679 404.7 551.509 404.93 553.239 405.5C555.379 406.2 557.459 407.06 559.569 407.85C560.819 408.31 561.839 409.13 562.709 410.06C563.819 411.23 564.799 412.53 565.769 413.81C566.179 414.36 566.069 414.97 565.509 415.38C564.829 415.89 564.129 416.44 563.349 416.77C561.659 417.49 560.129 418.42 558.729 419.57C558.399 419.84 558.029 420.08 557.669 420.3C556.929 420.76 556.439 420.7 555.849 420.06C555.389 419.56 554.979 419.01 554.479 418.54C552.989 417.13 551.199 416.39 549.099 416.37C548.209 416.37 547.379 416.55 546.589 416.94C545.759 417.35 545.239 418.04 545.099 418.91C544.889 420.21 545.129 421.44 546.109 422.42C547.079 423.4 548.199 424.17 549.509 424.66C550.879 425.17 552.239 425.69 553.589 426.24C554.859 426.76 556.119 427.3 557.369 427.86C558.939 428.56 560.379 429.46 561.679 430.59C562.839 431.59 564.119 432.45 565.289 433.43C565.799 433.86 566.269 434.38 566.609 434.94C567.839 436.98 568.549 439.24 569.149 441.52H569.179Z" fill="black"/>
<path d="M590.611 433.98C590.801 434.7 590.911 435.52 590.751 436.23C590.201 438.78 590.701 441.27 591.091 443.75C591.191 444.42 591.231 445.06 591.231 445.73C591.251 447.92 591.411 450.1 591.501 452.29C591.531 452.88 591.581 453.47 591.491 454.04C591.451 454.3 591.121 454.68 590.871 454.72C590.041 454.85 589.181 454.96 588.351 454.87C586.641 454.67 584.971 454.76 583.311 455.25C582.831 455.39 582.301 455.41 581.801 455.44C580.781 455.5 580.201 455.08 580.051 454.04C579.881 452.79 579.821 451.53 579.721 450.27C579.521 447.58 579.331 444.89 579.131 442.2C578.941 439.6 578.751 436.99 578.561 434.39C578.601 434.39 577.791 422.96 577.241 417.26C577.021 415 576.861 412.75 576.841 410.49C576.841 408.98 576.591 407.47 576.471 405.96C576.431 405.54 576.411 405.12 576.421 404.7C576.441 403.73 576.871 403.06 577.851 402.83C578.691 402.63 579.591 402.45 580.441 402.54C582.361 402.73 584.261 402.79 586.181 402.64C586.441 402.62 586.701 402.66 586.951 402.72C587.591 402.88 588.051 403.24 588.161 403.89C588.261 404.47 588.311 405.06 588.371 405.65C588.631 408.4 589.151 411.12 588.981 413.92C588.891 415.5 589.241 417.09 589.491 418.67C589.831 420.82 589.921 423.03 589.911 425.21C589.891 428.16 589.851 431.09 590.601 433.98H590.611Z" fill="black"/>
<path d="M639.48 409.96C639.71 410.4 639.5 410.8 639.16 411.09C638.83 411.36 638.46 411.58 638.08 411.79C635.96 412.94 633.83 414.07 631.71 415.21C631.41 415.37 631.11 415.56 630.78 415.65C630.09 415.85 629.41 415.83 628.83 415.32C628 414.59 627.13 413.88 626.33 413.12C624.15 411.06 621.66 411.21 619.09 412.2C617.53 412.8 616.29 413.87 615.08 414.97C614.43 415.57 614.05 416.32 613.77 417.13C613.38 418.24 613.02 419.37 612.63 420.49C611.87 422.67 611.51 424.9 611.82 427.16C611.79 430.5 612.9 433.47 614.43 436.34C615.21 437.8 616.26 438.97 617.79 439.7C618.79 440.18 619.77 440.69 620.8 441.11C623.12 442.06 625.29 441.82 627.29 440.26C627.69 439.94 628.07 439.59 628.47 439.29C629.29 438.67 629.95 438.64 630.82 439.21C631.31 439.53 631.78 439.91 632.18 440.34C633.12 441.33 634.16 442.18 635.34 442.89C635.99 443.27 636.59 443.77 637.14 444.29C637.65 444.76 637.69 445.61 637.23 446.14C635.79 447.8 634.41 449.51 632.26 450.39C630.54 451.1 628.93 452.04 627.12 452.59C625.46 453.09 623.78 453.23 622.08 453.09C620.31 452.94 618.55 452.64 616.79 452.36C615.78 452.2 614.82 451.88 614.01 451.2C611.57 449.11 609.11 447.03 606.63 444.97C604.95 443.57 603.81 441.82 603.13 439.79C602.22 437.07 601.33 434.36 600.52 431.61C599.54 428.32 599.49 424.99 600.35 421.64C600.65 420.5 600.97 419.34 601.04 418.18C601.11 416.87 601.47 415.7 602.08 414.57C602.32 414.12 602.6 413.67 602.73 413.19C603.35 410.77 605 409.04 606.75 407.38C608.8 405.42 611.02 403.65 613.32 401.98C614.55 401.08 615.87 400.58 617.4 400.44C619.13 400.28 620.87 400.08 622.59 399.8C623.59 399.64 624.51 399.89 625.42 400.12C626.94 400.5 628.42 400.97 629.9 401.47C630.55 401.69 631.18 402.01 631.75 402.38C633.05 403.22 634.35 404.08 635.57 405.02C637.29 406.36 638.5 408.11 639.47 410L639.48 409.96Z" fill="black"/>
<path d="M660.89 430.59C661.05 431.32 661.13 432.14 660.95 432.84C660.3 435.37 660.72 437.87 661.01 440.37C661.09 441.04 661.1 441.68 661.08 442.36C661.02 444.55 661.09 446.74 661.11 448.93C661.11 449.51 661.15 450.11 661.04 450.68C660.99 450.94 660.64 451.31 660.39 451.34C659.55 451.44 658.69 451.52 657.86 451.4C656.15 451.15 654.49 451.17 652.82 451.59C652.33 451.71 651.81 451.71 651.3 451.72C650.28 451.75 649.72 451.3 649.61 450.25C649.49 449 649.47 447.73 649.42 446.47C649.32 443.78 649.23 441.08 649.13 438.39C649.04 435.78 648.94 433.17 648.85 430.56C648.9 430.56 648.5 419.11 648.16 413.39C648.02 411.13 647.95 408.87 648.01 406.61C648.05 405.1 647.87 403.58 647.8 402.07C647.78 401.65 647.77 401.23 647.8 400.81C647.85 399.84 648.31 399.19 649.29 398.99C650.14 398.82 651.04 398.68 651.88 398.8C653.79 399.06 655.69 399.18 657.61 399.11C657.87 399.11 658.13 399.15 658.38 399.22C659.01 399.4 659.46 399.78 659.55 400.43C659.63 401.01 659.66 401.6 659.69 402.19C659.85 404.95 660.27 407.69 660 410.48C659.85 412.06 660.15 413.66 660.34 415.25C660.6 417.41 660.61 419.62 660.52 421.8C660.4 424.75 660.24 427.68 660.89 430.59Z" fill="black"/>
<path d="M712.871 448.44C712.931 448.68 712.941 448.94 712.961 449.19C713.001 449.61 712.671 450.1 712.271 450.11C709.481 450.14 706.671 450.15 703.881 450.17C702.881 450.17 702.341 449.53 702.061 448.68C701.641 447.4 701.301 446.1 700.871 444.82C700.521 443.78 700.141 442.75 699.691 441.76C699.041 440.33 697.911 439.51 696.281 439.56C694.321 439.62 692.361 439.72 690.401 439.84C688.781 439.94 687.171 440.17 685.561 440.21C684.091 440.24 683.101 440.85 682.601 442.18C681.951 443.91 681.371 445.68 680.781 447.43C680.561 448.06 680.441 448.74 680.201 449.36C679.931 450.03 679.401 450.44 678.641 450.47C676.101 450.57 673.551 450.67 671.001 450.76C670.671 450.77 670.331 450.67 670.001 450.6C669.641 450.52 669.291 450.03 669.331 449.63C669.361 449.3 669.431 448.97 669.511 448.65C670.541 444.4 671.531 440.14 672.631 435.91C673.011 434.45 673.561 433.02 674.131 431.62C674.771 430.05 675.311 428.46 675.601 426.79C675.881 425.13 676.361 423.52 676.801 421.89C677.471 419.37 678.001 416.82 678.701 414.3C679.931 409.84 681.151 405.36 682.781 401.01C682.901 400.69 683.041 400.38 683.151 400.06C683.521 399.08 684.281 398.54 685.311 398.48C687.051 398.39 688.801 398.4 691.051 398.37C691.671 398.33 692.811 398.25 693.931 398.19C694.541 398.16 695.151 398.14 695.761 398.17C696.841 398.21 697.591 398.75 697.881 399.75C698.601 402.17 699.731 404.46 700.241 406.95C700.441 407.94 700.681 408.93 701.061 409.87C702.071 412.39 702.811 414.98 703.561 417.56C703.651 417.88 703.751 418.21 703.901 418.51C705.201 421.28 705.891 424.23 706.691 427.16C706.951 428.13 707.271 429.1 707.681 430.02C708.561 432.04 709.121 434.15 709.671 436.27C710.281 438.63 710.941 440.98 711.551 443.34C712.001 445.05 712.431 446.76 712.861 448.47L712.871 448.44ZM694.071 432.17C695.301 432.03 696.091 431.14 695.971 429.94C695.921 429.45 695.731 428.97 695.591 428.49C695.281 427.44 694.851 426.42 694.661 425.36C694.261 423.09 693.111 421.1 692.321 418.98C692.201 418.67 692.001 418.38 691.791 418.12C691.221 417.4 690.081 417.5 689.611 418.3C689.401 418.66 689.231 419.05 689.061 419.44C687.721 422.56 687.291 425.92 686.211 429.11C686.161 429.26 686.171 429.44 686.161 429.61C686.071 430.9 686.641 431.74 687.941 431.96C689.121 432.15 690.311 432.2 690.951 432.25C692.201 432.23 692.881 432.23 693.561 432.21C693.731 432.21 693.901 432.19 694.071 432.18V432.17Z" fill="black"/>
<path d="M757.59 434.94C757.4 438.82 757.5 442.7 757.42 446.57C757.41 447.24 757.36 447.92 757.24 448.58C757.02 449.82 756.4 450.29 755.14 450.31C754.63 450.31 754.12 450.27 753.61 450.26C752.26 450.24 750.9 450.15 749.56 450.55C749 450.71 748.38 450.66 747.79 450.66C746.59 450.65 745.68 450.09 745.02 449.12C744.83 448.84 744.64 448.55 744.51 448.24C743.5 445.83 742.2 443.54 741.47 441.02C741 439.39 740.36 437.85 739.51 436.37C738.97 435.42 738.64 434.36 738.22 433.35C737.5 431.64 736.79 429.92 736.06 428.22C735.93 427.91 735.77 427.6 735.59 427.32C735.27 426.81 734.9 426.34 734.22 426.3C733.68 426.27 733.22 426.79 732.96 427.71C732.39 429.77 732.28 431.84 732.66 433.95C732.85 435.02 732.86 436.12 732.89 437.22C732.94 438.9 732.89 440.57 733.17 442.26C733.49 444.2 733.07 446.13 732.72 448.03C732.52 449.12 731.77 449.79 730.61 449.92C729.34 450.07 728.08 450.35 726.82 450.32C725.22 450.29 723.62 450.04 722.03 449.79C721.73 449.74 721.41 449.25 721.26 448.9C721.1 448.53 721.1 448.07 721.11 447.65C721.15 445.47 721.46 443.28 720.86 441.11C720.8 440.88 720.89 440.61 720.93 440.36C721.55 436.59 721.57 432.82 720.93 429.05C720.8 428.32 720.81 427.53 720.93 426.79C721.47 423.44 721.29 420.08 721.03 416.72C720.83 414.13 720.6 411.52 721.11 408.92C721.3 407.94 721.25 406.91 721.26 405.9C721.27 404.47 721.24 403.03 721.23 401.6C721.23 401.18 721.23 400.75 721.27 400.34C721.42 398.98 721.96 398.3 723.36 398.15C725.79 397.89 728.23 397.83 730.67 398.19C731.97 398.38 732.88 399.06 733.53 400.17C734.56 401.93 735.7 403.63 736.69 405.41C737.3 406.52 737.81 407.69 738.21 408.89C738.76 410.5 739.4 412.07 740.38 413.46C741.33 414.81 741.72 416.38 742.31 417.87C742.65 418.74 742.94 419.62 743.6 420.32C744.02 420.77 744.54 420.96 744.96 420.79C745.4 420.61 745.63 420.26 745.67 419.82C745.73 419.15 745.78 418.48 745.78 417.8C745.83 414.84 745.86 411.9 745.91 408.94C745.95 407.17 745.91 405.42 746.26 403.65C746.48 402.5 746.33 401.3 746.35 400.12C746.35 399.7 746.35 399.27 746.43 398.87C746.51 398.41 746.85 398.12 747.32 398.08C748.01 398.03 748.72 398.05 749.41 398.08C751.59 398.17 753.77 398.29 755.95 398.02C756.43 397.96 757 398.11 757.43 398.34C757.77 398.52 758.04 398.92 758.21 399.29C758.35 399.58 758.32 399.95 758.31 400.29C758.25 403.15 758.18 406.02 758.1 408.89C758.06 410.15 757.97 411.42 757.95 412.68C757.89 416.39 757.85 420.09 757.8 423.8C757.77 423.8 757.8 431.22 757.61 434.92L757.59 434.94Z" fill="black"/>
<path d="M830.889 423.82C831.039 426.74 830.889 429.7 830.179 432.6C829.819 434.05 829.919 435.61 829.749 437.12C829.339 440.78 828.159 444.16 825.849 447.1C824.119 449.31 821.969 450.87 819.149 451.36C817.729 451.6 816.309 451.86 814.869 451.95C808.069 452.39 809.559 452.87 802.439 452.24C802.099 452.21 801.759 452.21 801.419 452.2C801.419 452.2 801.419 452.22 801.419 452.23C799.299 452.14 797.179 452.05 795.059 451.96C794.719 451.95 794.379 451.92 794.049 451.85C793.219 451.66 792.719 451.12 792.559 450.31C792.479 449.9 792.499 449.47 792.509 449.05C792.599 446.27 792.689 443.5 792.379 440.72C792.249 439.57 792.479 438.37 792.589 437.2C792.719 435.86 793.039 434.53 793.049 433.19C793.049 425.93 793.819 418.72 793.959 411.48C794.009 408.7 794.079 405.92 794.149 403.14C794.169 402.63 794.169 402.13 794.219 401.63C794.369 399.82 794.739 399.42 796.549 399.2C797.059 399.14 797.599 399.15 798.109 399.21C801.829 399.69 805.559 399.96 809.309 400.08C811.579 400.15 813.849 400.22 816.109 400.24C819.189 400.27 821.879 401.44 824.479 402.84C824.919 403.08 825.339 403.44 825.649 403.84C827.019 405.59 828.359 407.35 829.639 409.16C830.019 409.7 830.279 410.38 830.379 411.02C830.679 413.01 831.139 414.99 830.989 417.02C830.819 419.28 830.789 421.53 830.899 423.82H830.889ZM817.279 420.91C817.329 419.4 817.239 417.88 817.049 416.38C816.849 414.78 815.989 413.37 814.359 412.96C812.349 412.45 810.239 412.35 808.209 413.04C807.599 413.25 807.189 413.69 807.059 414.31C806.829 415.38 806.559 416.45 806.489 417.53C806.289 420.72 806.179 423.93 806.039 427.12C805.989 427.12 805.589 433.51 805.449 436.71C805.429 437.13 805.429 437.56 805.449 437.97C805.519 439.13 806.139 439.84 807.329 440C809.489 440.3 811.579 440.15 813.569 439.17C815.319 438.31 816.249 436.9 816.569 435.04C816.629 434.71 816.639 434.37 816.659 434.03C816.869 429.66 817.129 425.28 817.279 420.91Z" fill="black"/>
<path d="M853.518 434.42C853.608 435.16 853.608 435.98 853.358 436.67C852.468 439.12 852.618 441.65 852.668 444.17C852.678 444.85 852.628 445.48 852.538 446.15C852.258 448.32 852.118 450.51 851.908 452.69C851.848 453.28 851.828 453.87 851.658 454.43C851.578 454.68 851.198 455.01 850.948 455.02C850.108 455.03 849.238 455.02 848.428 454.83C846.758 454.41 845.088 454.27 843.388 454.52C842.888 454.6 842.368 454.54 841.868 454.5C840.848 454.42 840.328 453.92 840.328 452.87C840.328 451.61 840.438 450.34 840.518 449.09C840.688 446.4 840.858 443.71 841.028 441.02C841.188 438.41 841.358 435.81 841.528 433.2C841.568 433.2 842.318 421.77 842.548 416.05C842.638 413.79 842.788 411.54 843.078 409.29C843.268 407.79 843.248 406.26 843.318 404.75C843.338 404.33 843.368 403.91 843.438 403.49C843.588 402.53 844.108 401.93 845.108 401.83C845.968 401.75 846.878 401.69 847.708 401.89C849.578 402.34 851.458 402.65 853.388 402.77C853.648 402.79 853.898 402.86 854.138 402.96C854.748 403.2 855.158 403.62 855.178 404.28C855.198 404.87 855.168 405.46 855.148 406.05C855.038 408.81 855.178 411.58 854.628 414.33C854.318 415.88 854.458 417.51 854.488 419.11C854.528 421.29 854.318 423.48 854.008 425.65C853.588 428.57 853.148 431.47 853.508 434.43L853.518 434.42Z" fill="black"/>
<path d="M904.701 457.85C904.931 458.35 904.521 458.89 903.971 458.89C903.801 458.89 903.631 458.91 903.461 458.89C900.671 458.55 897.891 458.21 895.081 458.4C893.651 458.49 892.661 457.78 892.101 456.47C891.871 455.93 891.621 455.39 891.411 454.84C890.871 453.41 890.231 452.05 889.261 450.84C888.891 450.38 888.581 449.86 888.361 449.32C887.811 447.99 887.081 446.76 886.341 445.52C885.821 444.66 885.481 443.69 885.141 442.74C884.351 440.58 883.181 438.62 881.971 436.68C881.661 436.18 881.271 435.71 880.851 435.29C879.681 434.14 877.801 434.63 877.381 436.18C877.341 436.34 877.291 436.51 877.281 436.68C877.101 440.46 875.961 444.14 875.911 447.94C875.901 448.95 875.851 449.94 875.951 450.96C876.061 452.12 875.931 453.33 875.701 454.47C875.491 455.52 874.821 456.28 873.571 456.26C872.901 456.26 872.191 456.43 871.551 456.28C869.641 455.82 867.681 455.73 865.731 455.61C865.481 455.6 865.221 455.56 864.971 455.52C864.551 455.44 864.201 455.04 864.211 454.63C864.231 454.04 864.251 453.45 864.331 452.87C864.811 449.19 865.001 445.52 864.901 441.79C864.831 438.6 865.281 435.41 865.501 432.21C866.641 428.27 866.271 424.18 866.791 420.18C866.851 419.69 866.861 419.17 866.781 418.67C866.631 417.73 866.831 416.85 866.991 415.93C867.401 413.53 867.691 411.11 867.421 408.65C867.281 407.41 867.451 406.13 867.611 404.88C867.741 403.89 868.411 403.52 869.491 403.6C873.231 403.89 876.971 404.19 880.711 404.5C880.711 404.52 887.491 405.18 890.881 405.45C892.741 405.6 894.481 406.11 896.091 407.01C897.301 407.68 898.521 408.35 899.691 409.08C901.431 410.18 902.611 411.75 903.341 413.6C903.891 415.02 904.391 416.46 904.811 417.92C904.991 418.56 905.001 419.26 904.951 419.92C904.811 421.87 904.441 423.76 903.541 425.52C903.151 426.27 902.761 427.02 902.441 427.8C901.561 429.93 899.981 431.41 898.001 432.53C897.111 433.03 896.181 433.47 895.261 433.92C893.411 434.82 893.041 435.69 893.911 437.56C894.521 438.86 895.201 440.14 896.021 441.32C897.391 443.29 898.541 445.31 899.221 447.62C899.491 448.56 900.081 449.47 900.701 450.26C902.531 452.56 903.501 455.27 904.721 457.86L904.701 457.85ZM889.941 417.94C889.961 416.94 889.411 416.17 888.491 415.72C887.961 415.46 887.371 415.27 886.781 415.17C886.021 415.04 885.241 415.02 884.461 414.95C883.691 414.88 882.911 414.81 882.141 414.76C881.881 414.74 881.621 414.76 881.361 414.79C879.721 414.97 878.751 415.91 878.451 417.51C878.201 418.87 878.481 420.18 878.661 421.51C878.771 422.31 879.341 422.91 880.101 423.18C882.311 423.97 884.591 424.36 886.931 423.89C888.431 423.59 889.361 422.63 889.651 421.2C889.861 420.14 889.921 419.04 889.941 417.95V417.94Z" fill="black"/>
<path d="M1000.5 428.75C1000.64 429.23 1000.37 429.58 999.98 429.8C999.61 430.01 999.2 430.15 998.79 430.28C996.49 431.01 994.18 431.74 991.88 432.47C991.56 432.57 991.22 432.7 990.88 432.73C990.16 432.8 989.5 432.65 989.02 432.04C988.34 431.17 987.61 430.31 986.96 429.41C985.19 426.99 982.71 426.67 980 427.17C978.36 427.47 976.93 428.3 975.54 429.15C974.79 429.61 974.28 430.29 973.86 431.03C973.27 432.05 972.7 433.09 972.11 434.12C970.96 436.13 970.19 438.25 970.08 440.53C969.44 443.8 969.98 446.94 970.96 450.03C971.46 451.6 972.28 452.96 973.65 453.95C974.55 454.6 975.42 455.29 976.35 455.89C978.46 457.25 980.65 457.42 982.9 456.25C983.35 456.01 983.79 455.74 984.24 455.51C985.16 455.06 985.82 455.14 986.57 455.86C986.99 456.26 987.38 456.72 987.71 457.22C988.45 458.36 989.32 459.39 990.35 460.3C990.92 460.8 991.41 461.4 991.87 462.01C992.28 462.56 992.17 463.41 991.62 463.85C989.89 465.22 988.22 466.64 985.94 467.11C984.12 467.49 982.35 468.12 980.48 468.32C978.75 468.51 977.07 468.32 975.43 467.88C973.71 467.41 972.03 466.79 970.35 466.18C969.39 465.83 968.5 465.35 967.83 464.52C965.81 462.01 963.77 459.52 961.71 457.04C960.32 455.36 959.51 453.43 959.21 451.3C958.82 448.47 958.44 445.63 958.14 442.78C957.79 439.36 958.35 436.08 959.81 432.95C960.31 431.88 960.85 430.8 961.12 429.67C961.43 428.4 962 427.31 962.81 426.31C963.13 425.91 963.49 425.53 963.7 425.07C964.75 422.81 966.7 421.41 968.72 420.1C971.1 418.55 973.61 417.23 976.19 416C977.57 415.34 978.96 415.1 980.49 415.24C982.23 415.4 983.97 415.52 985.72 415.57C986.73 415.6 987.59 416.02 988.45 416.4C989.87 417.05 991.25 417.79 992.62 418.56C993.22 418.9 993.78 419.33 994.28 419.8C995.41 420.87 996.53 421.95 997.55 423.1C999 424.73 999.86 426.67 1000.48 428.72L1000.5 428.75Z" fill="black"/>
<path d="M1039.92 424.34C1042.15 424.94 1042.23 425.07 1041.84 427.38C1041.56 429.05 1041.29 430.71 1041.01 432.37C1040.94 432.79 1040.89 433.2 1040.8 433.62C1040.61 434.53 1040.08 434.99 1039.19 434.89C1037.72 434.72 1036.26 434.48 1034.8 434.25C1033.43 434.03 1032.06 433.73 1030.68 433.55C1029.6 433.41 1028.77 433.91 1028.47 434.89C1028.15 435.94 1027.89 437.01 1027.76 438.09C1027.08 443.44 1025.87 448.71 1025.29 454.08C1024.72 457.66 1024.16 461.24 1023.56 464.81C1023.19 467.06 1022.76 469.29 1022.35 471.53C1022.29 471.86 1022.25 472.2 1022.13 472.52C1021.39 474.49 1021.14 474.6 1019.12 474.21C1018.79 474.14 1018.45 474.06 1018.14 473.93C1016.85 473.39 1015.52 473.27 1014.14 473.3C1013.3 473.32 1012.44 473.18 1011.61 473.02C1010.78 472.87 1010.29 472.22 1010.32 471.39C1010.34 470.72 1010.43 470.04 1010.54 469.38C1010.93 466.96 1011.37 464.56 1011.74 462.14C1012.45 457.47 1013.11 452.8 1013.82 448.13C1014 446.97 1014.31 445.84 1014.66 444.71C1015.12 443.19 1015.44 441.58 1015.47 440C1015.5 438.39 1015.73 436.82 1015.92 435.23C1015.96 434.9 1015.98 434.56 1016.04 434.23C1016.39 432.21 1015.49 431.06 1013.4 430.53C1012.22 430.22 1011.01 430.09 1009.8 429.88C1008.68 429.69 1007.56 429.55 1006.45 429.32C1004.94 429 1004.6 428.5 1004.82 426.97C1005.12 424.88 1005.47 422.8 1005.83 420.73C1006.02 419.66 1006.54 419.28 1007.67 419.46C1010 419.84 1012.37 419.88 1014.68 420.44C1016.02 420.77 1017.45 420.76 1018.85 420.8C1019.83 420.82 1020.76 420.93 1021.69 421.23C1023.71 421.87 1025.77 422.21 1027.89 422.21C1028.78 422.21 1029.62 422.35 1030.46 422.63C1032.04 423.17 1033.68 423.48 1035.36 423.44C1036.43 423.41 1037.44 423.55 1038.44 423.94C1038.92 424.13 1039.45 424.21 1039.96 424.35L1039.92 424.34Z" fill="black"/>
<path d="M1085.7 459.44C1085.57 460.78 1085.22 462.06 1084.63 463.31C1084.06 464.52 1083.77 465.86 1083.29 467.12C1083.09 467.66 1082.76 468.17 1082.43 468.65C1081.53 469.98 1080.55 471.26 1079.71 472.62C1078.62 474.37 1077.23 475.85 1075.61 477.09C1074.68 477.8 1073.59 478.34 1072.49 478.78C1070.36 479.63 1068.2 480.42 1066 481.1C1064.88 481.45 1063.65 481.63 1062.48 481.58C1059.65 481.46 1056.99 480.75 1054.45 479.34C1051.16 477.52 1048.7 474.91 1046.34 472.09C1044.48 469.86 1043.31 467.42 1042.89 464.59C1042.61 462.67 1042.24 460.77 1041.9 458.85C1041.54 456.83 1041.71 454.82 1041.88 452.81C1041.94 452.06 1042.12 451.31 1042.25 450.56C1042.41 448.62 1042.87 446.74 1043.72 444.97C1044.34 443.68 1044.91 442.36 1045.52 441.07C1046.1 439.84 1046.85 438.72 1047.86 437.77C1049.72 436.02 1051.57 434.25 1053.43 432.49C1054.24 431.72 1055.2 431.18 1056.26 430.74C1059.16 429.54 1062.13 428.68 1065.34 428.6C1066.76 428.56 1068.12 428.66 1069.48 429.11C1072.58 430.13 1075.44 431.62 1078.17 433.33C1079.74 434.32 1080.98 435.6 1081.77 437.3C1082.55 439 1083.47 440.65 1084.25 442.35C1084.64 443.19 1084.9 444.1 1085.17 444.99C1085.54 446.2 1085.85 447.44 1086.23 448.65C1086.44 449.31 1086.57 449.95 1086.5 450.64C1086.22 453.58 1086 456.51 1085.71 459.44H1085.7ZM1074.36 453.9C1074.99 452.17 1074.51 449.64 1073.42 447.16C1073.08 446.39 1072.77 445.6 1072.45 444.81C1071.72 442.98 1070.34 441.73 1068.65 440.75C1066.36 439.41 1064 439.37 1061.69 440.54C1058.82 441.99 1056.76 444.14 1055.81 447.23C1055.24 449.07 1054.51 450.86 1053.95 452.71C1053.64 453.74 1053.36 454.84 1053.37 455.91C1053.38 457.5 1053.61 459.09 1053.84 460.67C1053.95 461.41 1054.21 462.14 1054.5 462.84C1054.93 463.85 1055.44 464.83 1055.92 465.82C1057.28 468.61 1059.93 470.06 1063.04 469.71C1065.05 469.49 1066.85 468.81 1068.28 467.33C1068.81 466.79 1069.37 466.27 1069.9 465.72C1070.67 464.92 1071.28 464.05 1071.67 462.99C1072.67 460.31 1073.49 457.59 1074.36 453.9Z" fill="black"/>
<path d="M949.197 455.115C949.447 455.295 949.647 455.575 949.807 455.855C949.887 455.985 949.867 456.185 949.847 456.355C949.557 458.705 949.287 461.045 948.947 463.385C948.767 464.605 948.107 465.115 946.857 465.155C946.607 465.155 946.347 465.145 946.097 465.115C943.057 464.765 940.007 464.435 936.967 464.085C935.697 463.945 934.437 463.765 933.167 463.625C931.477 463.435 929.767 463.385 928.147 462.785C927.757 462.645 927.317 462.595 926.897 462.575C925.117 462.465 923.307 462.545 921.567 462.235C919.807 461.925 918.067 461.545 916.267 461.565C915.557 461.565 914.917 461.445 914.287 461.165C913.607 460.855 913.277 460.295 913.137 459.595C913.127 459.515 913.137 459.425 913.137 459.345C913.277 456.575 912.897 453.785 913.467 451.035C913.707 449.885 914.057 448.745 914.207 447.585C914.617 444.495 914.997 441.395 915.317 438.295C915.657 435.025 915.877 431.745 916.207 428.465C916.497 425.525 916.927 422.605 917.207 419.665C917.487 416.815 917.647 413.945 917.877 411.095C918.007 409.395 918.767 408.705 920.377 409.115C923.787 409.985 927.297 410.055 930.757 410.535C931.967 410.705 933.177 410.885 934.397 411.005C936.227 411.185 938.057 411.475 939.877 411.435C943.137 411.365 946.327 411.945 949.527 412.315C950.727 412.455 951.907 412.865 953.067 413.245C953.767 413.465 954.207 414.005 954.297 414.755C954.567 417.035 954.437 419.295 954.017 421.545C953.967 421.795 953.887 422.045 953.767 422.255C953.497 422.705 953.137 423.075 952.547 423.075C951.937 423.075 951.337 423.025 950.727 422.995C949.597 422.945 948.467 422.945 947.347 422.845C946.227 422.745 945.097 422.645 944.007 422.395C942.037 421.955 940.087 421.725 938.067 421.755C936.337 421.775 934.607 421.555 932.867 421.445C932.087 421.395 931.307 421.295 930.527 421.315C929.547 421.345 928.887 421.905 928.727 422.835C928.437 424.495 928.227 426.165 928.587 427.855C928.757 428.665 929.197 429.245 930.007 429.515C930.657 429.735 931.317 429.995 931.997 430.075C933.287 430.225 934.587 430.375 935.877 430.325C938.407 430.225 940.887 430.575 943.377 430.885C944.657 431.045 945.907 431.435 947.147 431.805C948.017 432.055 948.347 432.635 948.317 433.545C948.317 433.625 948.317 433.715 948.297 433.795C948.047 435.885 947.797 437.975 947.517 440.065C947.377 441.055 946.767 441.585 945.777 441.575C945.177 441.575 944.577 441.475 943.977 441.435C943.027 441.375 942.087 441.255 941.137 441.285C937.927 441.405 934.797 441.005 931.677 440.255C930.767 440.035 929.797 439.975 928.867 439.985C927.697 440.015 926.847 440.675 926.697 441.785C926.297 444.615 925.747 447.435 926.097 450.335C926.197 451.185 926.547 451.785 927.387 452.025C928.537 452.335 929.687 452.715 930.857 452.865C933.657 453.245 939.287 453.745 939.297 453.705C942.347 454.105 945.397 454.505 948.437 454.925C948.687 454.965 948.987 454.975 949.177 455.105L949.197 455.115Z" fill="black"/>
<path d="M1130.87 493.69C1131.04 494.21 1130.57 494.7 1130.02 494.64C1129.85 494.62 1129.68 494.61 1129.51 494.57C1126.77 493.9 1124.04 493.23 1121.21 493.07C1119.77 492.99 1118.87 492.15 1118.46 490.79C1118.29 490.22 1118.11 489.66 1117.97 489.09C1117.6 487.61 1117.13 486.17 1116.3 484.86C1115.99 484.36 1115.74 483.8 1115.58 483.24C1115.19 481.85 1114.61 480.54 1114.02 479.23C1113.6 478.32 1113.38 477.31 1113.15 476.32C1112.62 474.08 1111.69 471.99 1110.71 469.92C1110.46 469.39 1110.13 468.87 1109.76 468.41C1108.74 467.13 1106.8 467.39 1106.2 468.87C1106.14 469.03 1106.07 469.19 1106.05 469.35C1105.42 473.09 1103.84 476.59 1103.35 480.37C1103.22 481.37 1103.05 482.35 1103.03 483.37C1103 484.53 1102.73 485.72 1102.36 486.82C1102.02 487.84 1101.26 488.51 1100.02 488.35C1099.35 488.26 1098.62 488.35 1098 488.13C1096.14 487.44 1094.21 487.12 1092.28 486.76C1092.03 486.71 1091.78 486.66 1091.53 486.58C1091.13 486.45 1090.82 486.02 1090.88 485.6C1090.97 485.02 1091.07 484.43 1091.21 483.86C1092.13 480.27 1092.75 476.63 1093.1 472.93C1093.4 469.76 1094.24 466.64 1094.83 463.49C1096.44 459.72 1096.56 455.61 1097.55 451.7C1097.67 451.22 1097.74 450.69 1097.72 450.2C1097.68 449.25 1097.99 448.4 1098.25 447.5C1098.94 445.17 1099.52 442.8 1099.54 440.32C1099.54 439.08 1099.87 437.82 1100.18 436.6C1100.43 435.63 1101.14 435.34 1102.21 435.56C1105.91 436.3 1109.6 437.04 1113.29 437.8C1113.29 437.83 1119.97 439.28 1123.32 439.97C1125.16 440.34 1126.83 441.06 1128.33 442.14C1129.46 442.96 1130.59 443.76 1131.67 444.63C1133.28 445.93 1134.27 447.63 1134.77 449.56C1135.15 451.03 1135.48 452.52 1135.72 454.03C1135.83 454.68 1135.75 455.38 1135.62 456.04C1135.26 457.95 1134.65 459.79 1133.54 461.43C1133.07 462.13 1132.59 462.83 1132.17 463.56C1131.04 465.57 1129.28 466.85 1127.18 467.72C1126.23 468.11 1125.25 468.44 1124.28 468.77C1122.33 469.45 1121.85 470.26 1122.5 472.23C1122.95 473.59 1123.47 474.95 1124.15 476.22C1125.28 478.34 1126.19 480.49 1126.59 482.86C1126.75 483.83 1127.23 484.8 1127.75 485.66C1129.29 488.16 1129.95 490.97 1130.85 493.69H1130.87ZM1120.9 452.29C1121.04 451.3 1120.58 450.47 1119.72 449.91C1119.22 449.59 1118.65 449.33 1118.08 449.16C1117.34 448.93 1116.56 448.83 1115.79 448.66C1115.03 448.5 1114.26 448.34 1113.49 448.19C1113.24 448.14 1112.97 448.13 1112.71 448.12C1111.05 448.1 1109.98 448.92 1109.49 450.47C1109.08 451.78 1109.2 453.13 1109.23 454.46C1109.24 455.27 1109.74 455.93 1110.46 456.29C1112.57 457.33 1114.79 458 1117.19 457.82C1118.72 457.7 1119.76 456.86 1120.22 455.48C1120.56 454.45 1120.74 453.36 1120.89 452.29H1120.9Z" fill="black"/>
<path d="M1176.96 452.36C1177.16 452.57 1177.31 453.07 1177.19 453.27C1176.03 455.3 1175.49 457.66 1173.59 459.31C1172.77 460.01 1172.22 461.03 1171.63 461.95C1170.23 464.16 1168.88 466.4 1167.51 468.63C1167.25 469.06 1166.95 469.48 1166.72 469.93C1165.24 472.8 1163.46 475.44 1161.24 477.81C1160.24 478.87 1159.66 480.18 1159.35 481.62C1158.84 484.01 1158.22 486.38 1157.71 488.77C1157.53 489.58 1157.5 490.44 1157.41 491.27C1157.39 491.52 1157.41 491.78 1157.36 492.02C1156.8 494.48 1156.26 496.96 1155.65 499.41C1155.4 500.44 1154.79 500.83 1153.77 500.68C1153.01 500.57 1152.27 500.34 1151.18 500.09C1149.32 499.51 1147.11 498.83 1144.92 498.13C1144.14 497.88 1143.81 497.36 1143.92 496.58C1144 496 1144.18 495.43 1144.3 494.86C1144.77 492.72 1145.24 490.58 1145.72 488.44C1146.43 485.32 1147.06 482.17 1147.88 479.08C1148.51 476.72 1148.47 474.43 1147.74 472.11C1147 469.75 1146.59 467.34 1146.67 464.87C1146.69 464.2 1146.63 463.52 1146.52 462.85C1146.1 460.27 1145.67 457.69 1145.21 455.11C1145 453.94 1144.92 452.78 1144.94 451.59C1144.97 450.08 1144.78 448.56 1144.69 447.05C1144.66 446.63 1144.6 446.21 1144.67 445.8C1144.7 445.6 1144.96 445.42 1145.16 445.28C1145.29 445.19 1145.5 445.15 1145.66 445.17C1147.66 445.4 1149.66 445.64 1151.66 445.9C1152 445.94 1152.36 446.04 1152.67 446.19C1155.03 447.29 1155.4 446.83 1156.05 449.91C1156.61 452.57 1157.13 455.22 1157 457.94C1156.96 458.68 1157.08 459.45 1157.27 460.18C1157.49 461.02 1158.51 461.22 1159.14 460.59C1159.44 460.29 1159.66 459.93 1159.9 459.59C1160.9 458.23 1161.86 456.84 1162.9 455.51C1163.94 454.18 1165.15 452.96 1165.69 451.31C1165.79 451 1166.05 450.74 1166.26 450.47C1166.54 450.11 1166.92 449.93 1167.39 449.97C1167.74 450 1168.09 450.05 1168.43 450.13C1170.14 450.53 1171.84 450.91 1173.61 451.01C1174.83 451.08 1176.06 451.42 1176.94 452.37L1176.96 452.36Z" fill="black"/>
<defs>
<clipPath id="clip0_2001_4255">
<rect width="560.97" height="900.66" fill="white" transform="translate(151.449 276.81)"/>
</clipPath>
<clipPath id="clip1_2001_4255">
<rect width="560.97" height="900.66" fill="white" transform="matrix(-1 0 0 1 1272.42 276.81)"/>
</clipPath>
</defs>
</svg>
