<svg width="1118.31" height="880.66" viewBox="141 260 1118.31 880.66" fill="none" xmlns="http://www.w3.org/2000/svg">
<path d="M701.67 290C626.52 290.03 538.86 295.09 442.12 310.22C350.75 324.51 269.65 344.9 200.21 366.59C182.83 372.02 171.01 388.11 171.01 406.31V714.38C171.01 737.36 189.64 756 212.63 756H236.06C259.04 756 277.68 774.63 277.68 797.62V917.05C277.68 940.03 296.31 958.67 319.3 958.67H370.06C382.13 958.67 393.63 963.89 401.51 973.03C422.18 997 451.41 1025.2 491.02 1050C576.65 1103.61 661.13 1110.25 701.69 1110.67" fill="white"/>
<path d="M701.67 290C626.52 290.03 538.86 295.09 442.12 310.22C350.75 324.51 269.65 344.9 200.21 366.59C182.83 372.02 171.01 388.11 171.01 406.31V714.38C171.01 737.36 189.64 756 212.63 756H236.06C259.04 756 277.68 774.63 277.68 797.62V917.05C277.68 940.03 296.31 958.67 319.3 958.67H370.06C382.13 958.67 393.63 963.89 401.51 973.03C422.18 997 451.41 1025.2 491.02 1050C576.65 1103.61 661.13 1110.25 701.69 1110.67" stroke="white" stroke-width="60" stroke-miterlimit="10"/>
<path d="M701.67 290C626.52 290.03 538.86 295.09 442.12 310.22C350.75 324.51 269.65 344.9 200.21 366.59C182.83 372.02 171.01 388.11 171.01 406.31V714.38C171.01 737.36 189.64 756 212.63 756H236.06C259.04 756 277.68 774.63 277.68 797.62V917.05C277.68 940.03 296.31 958.67 319.3 958.67H370.06C382.13 958.67 393.63 963.89 401.51 973.03C422.18 997 451.41 1025.2 491.02 1050C576.65 1103.61 661.13 1110.25 701.69 1110.67" stroke="black" stroke-width="20" stroke-miterlimit="10"/>
<path d="M698.641 290C773.791 290.03 861.451 295.09 958.191 310.22C1049.56 324.51 1130.66 344.9 1200.1 366.59C1217.48 372.02 1229.3 388.11 1229.3 406.31V714.38C1229.3 737.36 1210.67 756 1187.68 756H1164.25C1141.27 756 1122.63 774.63 1122.63 797.62V917.05C1122.63 940.03 1104 958.67 1081.01 958.67H1030.25C1018.18 958.67 1006.68 963.89 998.801 973.03C978.131 997 948.901 1025.2 909.291 1050C823.661 1103.61 739.181 1110.25 698.621 1110.67" fill="white"/>
<path d="M698.641 290C773.791 290.03 861.451 295.09 958.191 310.22C1049.56 324.51 1130.66 344.9 1200.1 366.59C1217.48 372.02 1229.3 388.11 1229.3 406.31V714.38C1229.3 737.36 1210.67 756 1187.68 756H1164.25C1141.27 756 1122.63 774.63 1122.63 797.62V917.05C1122.63 940.03 1104 958.67 1081.01 958.67H1030.25C1018.18 958.67 1006.68 963.89 998.801 973.03C978.131 997 948.901 1025.2 909.291 1050C823.661 1103.61 739.181 1110.25 698.621 1110.67" stroke="white" stroke-width="60" stroke-miterlimit="10"/>
<path d="M698.641 290C773.791 290.03 861.451 295.09 958.191 310.22C1049.56 324.51 1130.66 344.9 1200.1 366.59C1217.48 372.02 1229.3 388.11 1229.3 406.31V714.38C1229.3 737.36 1210.67 756 1187.68 756H1164.25C1141.27 756 1122.63 774.63 1122.63 797.62V917.05C1122.63 940.03 1104 958.67 1081.01 958.67H1030.25C1018.18 958.67 1006.68 963.89 998.801 973.03C978.131 997 948.901 1025.2 909.291 1050C823.661 1103.61 739.181 1110.25 698.621 1110.67" stroke="black" stroke-width="20" stroke-miterlimit="10"/>
<path d="M296.41 412.42C298.81 412.39 298.92 412.49 299.21 414.95C299.42 416.72 299.62 418.49 299.82 420.26C299.87 420.7 299.94 421.15 299.97 421.59C300.04 422.57 299.65 423.19 298.72 423.35C297.2 423.61 295.68 423.79 294.15 423.97C292.72 424.14 291.26 424.23 289.83 424.45C288.72 424.62 288.02 425.37 288 426.45C287.98 427.61 288.03 428.77 288.21 429.91C289.06 435.55 289.37 441.25 290.33 446.87C290.79 450.67 291.25 454.47 291.68 458.28C291.95 460.67 292.16 463.06 292.4 465.46C292.44 465.81 292.49 466.18 292.46 466.53C292.28 468.75 292.06 468.93 289.91 469.11C289.56 469.14 289.19 469.15 288.84 469.11C287.38 468.93 286.01 469.2 284.62 469.62C283.78 469.88 282.87 469.98 281.98 470.06C281.1 470.14 280.41 469.63 280.2 468.77C280.03 468.08 279.93 467.37 279.84 466.67C279.54 464.1 279.3 461.53 278.98 458.97C278.36 454.03 277.7 449.08 277.07 444.13C276.92 442.89 276.91 441.66 276.94 440.41C276.97 438.74 276.83 437.01 276.41 435.39C275.99 433.74 275.77 432.08 275.5 430.41C275.45 430.06 275.37 429.71 275.34 429.35C275.12 427.19 273.89 426.29 271.65 426.33C270.39 426.35 269.13 426.56 267.86 426.69C266.69 426.81 265.52 426.99 264.35 427.06C262.75 427.16 262.27 426.75 262.05 425.12C261.76 422.91 261.52 420.7 261.3 418.48C261.18 417.34 261.6 416.81 262.78 416.67C265.22 416.4 267.59 415.77 270.06 415.68C271.49 415.63 272.92 415.21 274.32 414.86C275.3 414.61 276.26 414.45 277.27 414.49C279.46 414.56 281.63 414.32 283.74 413.71C284.62 413.46 285.51 413.35 286.43 413.4C288.16 413.49 289.89 413.34 291.55 412.81C292.61 412.47 293.66 412.32 294.76 412.43C295.3 412.48 295.84 412.42 296.39 412.41L296.41 412.42Z" fill="black"/>
<path d="M347.05 455.25C347.44 457.16 347.6 459.12 347.82 461.06C347.89 461.71 347.4 462.24 346.72 462.36C346.19 462.46 345.66 462.51 345.13 462.55C342.64 462.75 340.13 462.89 337.72 463.64C337.39 463.74 337.01 463.75 336.66 463.75C336.07 463.76 335.64 463.48 335.38 462.96C334.76 461.73 334.52 460.4 334.62 459.07C334.84 456.21 334.54 453.38 334.12 450.56C333.71 447.84 333.18 445.14 332.71 442.42C332.54 441.42 331.97 440.86 330.98 440.63C328.13 439.98 325.26 440.08 322.42 440.64C321.04 440.91 320.3 441.9 320.1 443.27C319.66 446.31 319.85 449.29 320.75 452.24C321.01 453.09 321.19 453.96 321.29 454.84C321.55 457.14 321.76 459.45 321.96 461.75C322.01 462.36 322.03 462.99 321.96 463.61C321.81 465.15 321.5 465.47 320.03 465.65C318.87 465.79 317.72 465.91 316.57 466.04C316.57 466.01 316.57 465.97 316.56 465.94C315.14 466.1 313.72 466.31 312.29 466.4C310.79 466.5 310.22 466.02 309.76 464.57C309.71 464.4 309.67 464.23 309.63 464.05C309.16 461.43 308.66 458.81 308.23 456.18C308.02 454.86 308.02 453.54 308.04 452.19C308.07 448.53 307.59 444.91 306.72 441.35C306.34 439.78 306.14 438.23 306.21 436.61C306.33 433.84 305.98 431.1 305.47 428.38C305.12 426.54 304.94 424.69 304.82 422.82C304.68 420.69 304.41 418.57 304.23 416.44C304.15 415.47 304.2 414.49 304.16 413.52C304.11 412.42 304.8 411.92 305.73 411.63C306.25 411.47 306.8 411.41 307.33 411.31C309.02 410.99 310.71 410.65 312.41 410.34C312.94 410.24 313.49 410.13 314.02 410.13C315.3 410.13 315.74 410.52 316.18 411.71C316.66 412.98 316.87 414.33 316.77 415.65C316.65 417.45 316.87 419.2 317.04 420.97C317.23 422.92 317.46 424.86 317.69 426.81C317.76 427.42 317.82 428.06 318 428.65C318.28 429.58 318.94 430.19 319.94 430.27C322.01 430.42 324.08 430.49 326.1 429.84C327.21 429.49 328.37 429.27 329.48 428.91C331.35 428.3 331.66 427.84 331.51 426.01C331.45 425.21 331.33 424.42 331.22 423.62C330.98 421.77 330.87 419.93 330.92 418.04C330.98 416.1 330.61 414.15 330.42 412.2C330.36 411.58 330.23 410.97 330.21 410.35C330.17 409.4 330.64 408.83 331.59 408.66C332.48 408.5 333.39 408.41 334.28 408.25C335.09 408.11 335.87 407.89 336.68 407.75C337.75 407.57 338.83 407.37 339.91 407.3C341.42 407.2 342.05 407.72 342.39 409.18C342.49 409.61 342.57 410.07 342.52 410.5C342.3 412.2 342.57 413.88 342.73 415.56C342.98 418.13 343.08 420.74 343.62 423.25C344.27 426.31 344.53 429.4 344.86 432.5C344.97 433.55 344.91 434.62 344.95 435.69C344.98 436.58 344.99 437.47 345.09 438.35C345.44 441.35 345.5 444.39 346.36 447.32C346.5 447.82 346.48 448.38 346.44 448.91C346.28 451.06 346.62 453.15 347.05 455.25Z" fill="black"/>
<path d="M392.96 447.39C393.26 447.53 393.52 447.77 393.75 448.02C393.86 448.14 393.88 448.35 393.9 448.52C394.11 451.01 394.35 453.49 394.51 455.98C394.59 457.27 394.03 457.95 392.75 458.26C392.49 458.32 392.22 458.36 391.96 458.38C388.77 458.69 385.56 459 382.35 459.3C381.01 459.43 379.68 459.52 378.34 459.64C376.56 459.8 374.8 460.12 373 459.85C372.57 459.78 372.1 459.84 371.66 459.9C369.8 460.16 367.96 460.63 366.1 460.69C364.22 460.74 362.35 460.72 360.51 461.12C359.78 461.28 359.1 461.28 358.39 461.12C357.62 460.95 357.16 460.44 356.88 459.74C356.84 459.66 356.84 459.56 356.82 459.48C356.38 456.59 355.4 453.78 355.41 450.81C355.41 449.57 355.53 448.32 355.44 447.08C355.21 443.79 354.96 440.51 354.63 437.23C354.29 433.78 353.83 430.33 353.48 426.87C353.17 423.77 352.98 420.65 352.66 417.55C352.34 414.54 351.91 411.54 351.55 408.54C351.33 406.75 351.95 405.88 353.68 405.97C357.34 406.16 360.93 405.49 364.54 405.24C365.81 405.15 367.08 405.09 368.34 404.95C370.23 404.75 372.16 404.65 374.01 404.22C377.31 403.45 380.67 403.36 384.01 403.05C385.26 402.93 386.54 403.1 387.81 403.24C388.57 403.32 389.14 403.78 389.39 404.53C390.16 406.83 390.53 409.2 390.58 411.61C390.58 411.87 390.56 412.15 390.48 412.4C390.31 412.93 390.02 413.38 389.42 413.51C388.81 413.64 388.18 413.72 387.55 413.83C386.39 414.03 385.24 414.27 384.07 414.41C382.91 414.55 381.73 414.69 380.57 414.67C378.48 414.64 376.43 414.82 374.38 415.29C372.62 415.69 370.81 415.83 369.02 416.09C368.21 416.2 367.39 416.26 366.61 416.45C365.62 416.69 365.07 417.41 365.1 418.41C365.15 420.19 365.3 421.96 366.02 423.64C366.37 424.45 366.94 424.95 367.82 425.05C368.54 425.13 369.26 425.26 369.97 425.2C371.32 425.08 372.68 424.96 373.99 424.63C376.55 423.99 379.16 423.81 381.76 423.59C383.1 423.48 384.46 423.61 385.8 423.72C386.74 423.79 387.2 424.31 387.37 425.27C387.38 425.36 387.4 425.45 387.41 425.53C387.6 427.75 387.8 429.97 387.97 432.19C388.05 433.24 387.53 433.92 386.52 434.12C385.91 434.25 385.27 434.28 384.65 434.37C383.67 434.52 382.67 434.59 381.72 434.83C378.46 435.64 375.17 435.91 371.83 435.8C370.85 435.77 369.84 435.91 368.89 436.13C367.7 436.4 366.97 437.27 367.05 438.45C367.24 441.47 367.28 444.5 368.26 447.42C368.55 448.28 369.03 448.83 369.94 448.89C371.19 448.97 372.44 449.11 373.68 449.02C376.64 448.81 382.51 448.12 382.51 448.07C385.73 447.82 388.93 447.58 392.15 447.34C392.41 447.32 392.72 447.27 392.94 447.37L392.96 447.39Z" fill="black"/>
<path d="M477.58 448.27C477.67 448.79 477.67 449.33 477.66 449.87C477.64 450.51 477.2 451.07 476.56 451.21C474.74 451.61 472.89 451.97 471.44 452.27C470.24 452.27 469.42 452.29 468.63 452.28C467.34 452.26 466.34 451.72 465.98 450.45C464.9 446.61 463.24 442.93 462.73 438.93C462.64 438.23 462.48 437.53 462.25 436.86C461.55 434.85 460.79 432.85 460.04 430.85C459.95 430.61 459.86 430.33 459.69 430.14C459.46 429.89 459.15 429.61 458.85 429.56C458.34 429.48 458.01 429.9 457.89 430.33C457.33 432.39 456.56 434.41 456.47 436.56C456.39 438.43 456.08 440.27 455.77 442.11C455.37 444.56 455.02 447.03 454.65 449.49C454.52 450.37 454.39 451.25 454.17 452.11C453.98 452.86 453.45 453.37 452.65 453.42C449.72 453.58 446.78 454.02 443.83 453.65C442.96 453.54 442.28 453.18 441.89 452.41C441.53 451.7 441.15 450.98 440.94 450.22C440.27 447.73 439.58 445.25 439.09 442.72C438.41 439.2 436.83 435.99 435.75 432.61C435.57 432.04 435.19 431.51 434.82 431.02C434.44 430.53 433.52 430.71 433.23 431.3C433.08 431.62 432.91 431.96 432.88 432.29C432.78 433.62 432.75 434.95 432.67 436.28C432.6 437.43 432.58 438.59 432.38 439.72C431.84 442.88 431.71 446.07 431.39 449.25C431.25 450.66 430.98 452.05 430.71 453.45C430.58 454.12 430.12 454.56 429.43 454.65C426.52 455.01 423.63 455.64 420.67 455.39C420.4 455.37 420.09 455.39 419.89 455.26C419.61 455.09 419.23 454.8 419.21 454.54C419.12 453.57 419.09 452.59 419.16 451.62C419.31 449.85 419.56 448.09 419.75 446.33C419.83 445.63 419.92 444.91 419.86 444.21C419.64 441.78 419.94 439.41 420.54 437.07C420.99 435.33 421.27 433.59 421.09 431.8C420.94 430.36 421.3 428.97 421.53 427.57C421.75 426.25 422.05 424.95 422.27 423.64C422.38 422.94 422.49 422.23 422.47 421.53C422.38 418.5 422.63 415.51 423.18 412.51C423.83 408.93 424.19 405.29 424.67 401.69C424.84 400.41 425.2 399.96 426.52 399.8C428.23 399.59 429.95 399.42 431.67 399.3C433.03 399.2 434.39 399.21 435.75 399.17C436.2 399.16 436.66 399.12 437.11 399.13C438.64 399.17 439.68 399.89 440.17 401.32C440.26 401.58 440.34 401.83 440.39 402.09C441.01 405.04 442.16 407.86 442.73 410.83C443.13 412.92 443.7 414.98 444.19 417.05C444.25 417.31 444.36 417.56 444.5 417.78C444.75 418.19 445.17 418.45 445.63 418.34C445.94 418.27 446.36 418.02 446.46 417.76C446.82 416.76 447.14 415.73 447.33 414.69C447.53 413.56 447.65 412.39 447.67 411.24C447.69 409.53 448.03 407.89 448.44 406.24C448.88 404.43 449.45 402.63 449.3 400.72C449.27 400.37 449.43 400.02 449.47 399.67C449.58 398.75 450.15 398.23 451.03 398.05C452.63 397.73 454.24 397.46 455.84 397.17C456.19 397.11 456.56 397.08 456.92 397.08C458.73 397.08 460.55 397.1 462.36 397.13C463.44 397.15 463.82 397.46 464.09 398.46C465.16 402.31 466.2 406.17 467.29 410.02C467.77 411.73 468.35 413.41 468.83 415.12C469.02 415.8 469.14 416.52 469.18 417.22C469.31 419.3 469.93 421.23 470.81 423.1C471.42 424.4 471.81 425.75 472.01 427.17C472.17 428.31 472.38 429.46 472.72 430.55C473.7 433.68 474.34 436.92 475.53 439.99C476.26 441.9 476.72 443.9 477.06 445.92C477.19 446.7 477.46 447.47 477.6 448.25L477.58 448.27Z" fill="black"/>
<path d="M518.33 415.69C518.49 416.18 518.45 416.75 518.48 417.28C518.68 421.1 518.89 424.92 519.09 428.75C519.14 429.8 518.79 436.99 518.63 437.77C518.06 440.66 516.77 443.15 514.42 444.99C512.67 446.36 510.86 447.67 509.01 448.91C508.29 449.39 507.4 449.77 506.55 449.89C502.11 450.54 497.67 450.53 493.23 449.75C491.96 449.53 490.85 449.07 489.88 448.22C488.68 447.16 487.46 446.12 486.23 445.09C484.1 443.29 482.92 440.91 482.25 438.29C481.77 436.41 481.46 434.49 481.24 432.54C480.74 428.2 480.87 423.83 480.32 419.5C480.2 418.53 480.19 417.55 480.13 416.57C480.16 416.57 479.64 407.5 479.35 402.97C479.24 401.28 479.08 399.6 479.04 397.91C479.01 396.64 479.5 396.14 480.79 395.96C483.03 395.65 485.27 395.34 487.53 395.11C488.43 395.02 489.35 395.03 490.23 395.15C491.17 395.28 491.86 396.19 491.69 397.1C491.32 399.06 491.61 401 491.72 402.95C491.83 404.91 491.78 406.88 492.08 408.81C492.52 411.63 492.54 414.45 492.58 417.29C492.61 419.52 492.77 421.74 492.98 423.96C493.27 426.97 493.72 429.95 494 432.97C494.2 435.16 495.49 436.71 497.65 437.5C500.61 438.58 503.09 437.94 505.1 435.53C507.17 433.05 507.61 430.16 506.7 427.23C505.69 423.98 505.93 420.71 506 417.44C506.05 415.39 506.19 413.36 505.58 411.37C505.45 410.95 505.43 410.49 505.4 410.05C505.28 408.1 505.17 406.14 505.07 404.18C505.05 403.65 505.03 403.1 505.13 402.59C505.4 401.34 505.36 400.13 504.95 398.91C504.81 398.49 504.74 398.04 504.72 397.6C504.65 395.93 505.44 394.88 507.1 394.54C508.6 394.23 510.12 393.87 511.65 393.78C513.08 393.69 514.54 393.9 515.97 394.04C516.64 394.11 517.24 394.8 517.29 395.55C517.36 396.61 517.41 397.69 517.32 398.75C517.08 401.34 517.29 403.91 517.6 406.47C517.67 407.09 517.74 407.68 517.72 408.31C517.69 410.8 517.54 413.29 518.34 415.72L518.33 415.69Z" fill="black"/>
<path d="M561.61 431.69C561.88 432.92 561.69 434.15 561.18 435.34C560.02 438.05 558.61 440.63 556.99 443.09C556.03 444.53 554.77 445.61 553.11 446.24C551.95 446.68 550.83 447.26 549.66 447.68C548.91 447.95 548.1 448.24 547.33 448.21C543.76 448.07 540.21 447.77 536.79 446.62C535 446.02 533.4 445.13 532.11 443.65C531.24 442.65 530.09 441.9 529.14 440.96C528.45 440.28 527.83 439.52 527.29 438.71C526.87 438.08 527.14 437.25 527.77 436.84C530.31 435.18 532.88 433.55 535.41 431.87C536.29 431.29 537.08 431.32 537.86 431.97C538.68 432.66 539.52 433.34 540.27 434.1C541.87 435.73 543.79 436.08 545.95 435.72C546.04 435.71 546.13 435.69 546.22 435.67C548.43 435.18 549.34 432.87 547.87 431.14C546.97 430.07 545.8 429.18 544.64 428.35C543.85 427.79 542.9 427.44 542.01 427.02C537.15 424.67 532.63 421.81 528.58 418.21C525.51 415.48 524.19 412 524.11 408.01C524.07 405.86 524.48 403.77 525.62 401.86C526.58 400.25 527.45 398.58 528.45 397C529.32 395.61 530.58 394.55 532.12 393.92C533.03 393.55 534.01 393.33 534.98 393.13C536.92 392.71 538.88 392.36 540.35 392.07C542.78 392 544.66 392.32 546.44 392.99C548.63 393.83 550.75 394.82 552.91 395.74C554.19 396.28 555.22 397.18 556.09 398.2C557.19 399.48 558.16 400.89 559.13 402.28C559.54 402.88 559.39 403.51 558.8 403.93C558.07 404.44 557.32 405 556.5 405.31C554.71 406 553.09 406.92 551.58 408.07C551.22 408.34 550.84 408.57 550.45 408.8C549.66 409.26 549.16 409.17 548.56 408.47C548.09 407.93 547.69 407.33 547.2 406.81C545.71 405.26 543.87 404.4 541.69 404.29C540.77 404.24 539.89 404.4 539.05 404.78C538.16 405.17 537.6 405.88 537.42 406.79C537.15 408.15 537.34 409.45 538.32 410.54C539.29 411.62 540.42 412.48 541.77 413.06C543.17 413.66 544.57 414.27 545.96 414.91C547.26 415.51 548.56 416.13 549.84 416.78C551.45 417.59 552.92 418.59 554.23 419.84C555.39 420.95 556.7 421.9 557.89 422.99C558.41 423.46 558.88 424.03 559.21 424.64C560.41 426.85 561.07 429.25 561.61 431.68V431.69Z" fill="black"/>
<path d="M580.75 424.65C580.92 425.41 581.01 426.28 580.83 427.03C580.17 429.71 580.61 432.34 580.94 434.98C581.02 435.69 581.05 436.36 581.03 437.08C580.98 439.39 581.07 441.71 581.09 444.02C581.09 444.64 581.14 445.27 581.02 445.87C580.97 446.15 580.6 446.54 580.34 446.57C579.47 446.68 578.55 446.77 577.69 446.64C575.89 446.38 574.14 446.41 572.39 446.86C571.88 446.99 571.33 446.99 570.8 447.01C569.73 447.04 569.13 446.57 569.02 445.46C568.89 444.14 568.86 442.8 568.81 441.46C568.69 438.61 568.59 435.77 568.48 432.92C568.38 430.17 568.27 427.4 568.16 424.65C568.21 424.65 567.76 412.56 567.39 406.52C567.24 404.13 567.16 401.75 567.21 399.36C567.25 397.77 567.06 396.16 566.98 394.56C566.96 394.11 566.95 393.67 566.97 393.23C567.02 392.21 567.5 391.52 568.52 391.3C569.39 391.12 570.34 390.97 571.21 391.09C573.2 391.36 575.17 391.48 577.17 391.4C577.44 391.4 577.71 391.44 577.97 391.51C578.63 391.7 579.1 392.09 579.19 392.79C579.28 393.41 579.31 394.03 579.35 394.65C579.53 397.56 579.98 400.46 579.72 403.4C579.57 405.07 579.89 406.76 580.1 408.44C580.38 410.72 580.4 413.06 580.32 415.36C580.21 418.47 580.06 421.57 580.76 424.64L580.75 424.65Z" fill="black"/>
<path d="M628.82 400.72C629.05 401.19 628.82 401.61 628.47 401.9C628.13 402.18 627.73 402.4 627.33 402.61C625.09 403.77 622.85 404.93 620.62 406.09C620.3 406.26 619.98 406.44 619.64 406.54C618.91 406.73 618.2 406.69 617.62 406.14C616.77 405.34 615.89 404.58 615.06 403.75C612.83 401.52 610.24 401.61 607.54 402.6C605.91 403.2 604.58 404.3 603.29 405.42C602.59 406.03 602.18 406.82 601.87 407.66C601.43 408.83 601.03 410 600.59 411.17C599.73 413.46 599.31 415.8 599.57 418.2C599.45 421.72 600.53 424.9 602.06 427.96C602.84 429.52 603.91 430.79 605.49 431.59C606.53 432.12 607.54 432.68 608.6 433.16C611.01 434.23 613.3 434.03 615.42 432.42C615.85 432.1 616.24 431.74 616.68 431.42C617.56 430.79 618.24 430.76 619.14 431.39C619.65 431.74 620.13 432.16 620.54 432.61C621.5 433.67 622.57 434.6 623.8 435.37C624.47 435.79 625.09 436.33 625.66 436.89C626.18 437.39 626.22 438.3 625.72 438.85C624.17 440.57 622.69 442.35 620.41 443.23C618.59 443.94 616.88 444.9 614.97 445.43C613.21 445.93 611.45 446.02 609.67 445.83C607.81 445.63 605.97 445.27 604.13 444.92C603.08 444.72 602.07 444.37 601.24 443.62C598.73 441.34 596.21 439.09 593.67 436.84C591.95 435.32 590.8 433.43 590.15 431.26C589.28 428.37 588.42 425.47 587.65 422.55C586.73 419.04 586.77 415.52 587.77 412.01C588.11 410.81 588.48 409.6 588.59 408.38C588.7 407 589.11 405.77 589.77 404.59C590.03 404.12 590.34 403.66 590.48 403.15C591.19 400.62 592.96 398.84 594.82 397.13C597 395.12 599.36 393.32 601.8 391.61C603.1 390.69 604.49 390.2 606.07 390.09C607.87 389.96 609.68 389.8 611.47 389.55C612.51 389.41 613.46 389.7 614.4 389.95C615.96 390.39 617.51 390.92 619.03 391.49C619.71 391.74 620.35 392.09 620.94 392.49C622.27 393.41 623.61 394.34 624.85 395.37C626.61 396.82 627.83 398.69 628.81 400.72H628.82Z" fill="black"/>
<path d="M647.25 422.96C647.41 423.73 647.48 424.6 647.28 425.34C646.56 428 646.96 430.65 647.23 433.29C647.3 434 647.31 434.68 647.28 435.39C647.18 437.7 647.23 440.01 647.21 442.33C647.2 442.95 647.23 443.58 647.11 444.18C647.06 444.45 646.68 444.84 646.42 444.86C645.54 444.95 644.63 445.03 643.77 444.88C641.98 444.58 640.23 444.58 638.47 445C637.96 445.12 637.41 445.11 636.87 445.12C635.8 445.12 635.21 444.65 635.12 443.54C635.01 442.21 635.02 440.87 634.99 439.54C634.93 436.69 634.88 433.85 634.82 431C634.77 428.24 634.71 425.48 634.66 422.73C634.7 422.73 634.49 410.63 634.23 404.59C634.13 402.2 634.09 399.82 634.19 397.43C634.26 395.83 634.1 394.23 634.05 392.63C634.03 392.19 634.04 391.74 634.06 391.3C634.13 390.28 634.62 389.6 635.64 389.4C636.52 389.23 637.47 389.1 638.34 389.24C640.32 389.55 642.29 389.71 644.29 389.67C644.56 389.67 644.83 389.72 645.09 389.8C645.74 390 646.21 390.4 646.29 391.1C646.36 391.72 646.38 392.34 646.41 392.96C646.53 395.88 646.93 398.78 646.61 401.72C646.43 403.38 646.72 405.08 646.89 406.76C647.13 409.05 647.1 411.38 646.98 413.68C646.81 416.79 646.61 419.88 647.24 422.97L647.25 422.96Z" fill="black"/>
<path d="M698.07 442.28C698.13 442.54 698.15 442.81 698.17 443.07C698.2 443.52 697.86 444.03 697.45 444.04C694.51 444.06 691.57 444.08 688.63 444.08C687.57 444.08 687.02 443.39 686.72 442.49C686.27 441.14 685.94 439.76 685.49 438.41C685.13 437.31 684.73 436.22 684.27 435.17C683.59 433.65 682.41 432.79 680.7 432.82C678.65 432.87 676.58 432.96 674.53 433.08C672.84 433.18 671.14 433.4 669.45 433.43C667.91 433.46 666.86 434.09 666.33 435.49C665.64 437.32 665.01 439.16 664.38 441.01C664.15 441.68 664.01 442.39 663.75 443.04C663.46 443.75 662.89 444.18 662.1 444.2C659.43 444.28 656.75 444.36 654.07 444.42C653.72 444.42 653.37 444.32 653.02 444.24C652.64 444.15 652.29 443.63 652.33 443.21C652.37 442.86 652.45 442.52 652.53 442.18C653.66 437.7 654.75 433.22 655.95 428.75C656.36 427.21 656.95 425.71 657.56 424.23C658.24 422.58 658.83 420.91 659.15 419.15C659.46 417.4 659.98 415.7 660.45 413.99C661.18 411.33 661.76 408.64 662.51 405.99C663.84 401.28 665.14 396.57 666.88 391.99C667 391.66 667.15 391.33 667.28 390.99C667.67 389.96 668.47 389.39 669.54 389.34C671.35 389.26 673.16 389.29 675.5 389.27C676.15 389.23 677.32 389.15 678.5 389.1C679.13 389.07 679.77 389.06 680.4 389.09C681.52 389.14 682.29 389.71 682.6 390.77C683.33 393.33 684.51 395.76 685.02 398.39C685.23 399.43 685.47 400.48 685.86 401.47C686.9 404.13 687.66 406.87 688.43 409.61C688.53 409.95 688.63 410.3 688.78 410.62C690.13 413.55 690.84 416.67 691.67 419.77C691.94 420.8 692.28 421.82 692.69 422.8C693.61 424.93 694.19 427.17 694.75 429.41C695.38 431.91 696.06 434.39 696.71 436.88C697.18 438.69 697.63 440.49 698.08 442.3L698.07 442.28ZM678.41 425.03C679.7 424.89 680.53 423.95 680.41 422.68C680.36 422.16 680.17 421.65 680.02 421.14C679.7 420.03 679.25 418.95 679.06 417.82C678.66 415.42 677.47 413.31 676.65 411.07C676.53 410.74 676.32 410.44 676.11 410.16C675.51 409.41 674.33 409.5 673.84 410.34C673.61 410.72 673.44 411.14 673.26 411.54C671.84 414.82 671.36 418.37 670.21 421.73C670.15 421.89 670.17 422.08 670.15 422.26C670.04 423.63 670.63 424.51 671.99 424.75C673.22 424.96 674.47 425.02 675.14 425.08C676.44 425.07 677.16 425.07 677.88 425.06C678.06 425.06 678.23 425.05 678.42 425.03H678.41Z" fill="black"/>
<path d="M741.4 427.84C741.24 431.94 741.38 436.03 741.34 440.13C741.34 440.84 741.29 441.56 741.16 442.26C740.94 443.57 740.29 444.08 738.97 444.11C738.43 444.11 737.9 444.08 737.36 444.08C735.94 444.07 734.52 443.99 733.11 444.42C732.53 444.6 731.88 444.54 731.25 444.54C729.99 444.54 729.03 443.95 728.33 442.93C728.13 442.64 727.93 442.33 727.79 442.01C726.71 439.47 725.34 437.06 724.56 434.4C724.06 432.68 723.37 431.05 722.48 429.5C721.91 428.5 721.56 427.38 721.11 426.32C720.35 424.51 719.59 422.71 718.83 420.91C718.69 420.58 718.52 420.26 718.33 419.96C717.99 419.42 717.61 418.93 716.89 418.89C716.33 418.86 715.85 419.41 715.58 420.39C714.99 422.57 714.88 424.75 715.29 426.99C715.49 428.12 715.51 429.29 715.55 430.44C715.61 432.22 715.56 433.99 715.86 435.76C716.21 437.81 715.77 439.85 715.41 441.86C715.21 443.01 714.42 443.72 713.2 443.87C711.87 444.03 710.54 444.33 709.22 444.3C707.54 444.27 705.85 444.02 704.19 443.75C703.87 443.7 703.53 443.18 703.37 442.81C703.2 442.42 703.2 441.94 703.21 441.49C703.25 439.18 703.58 436.87 702.94 434.59C702.88 434.35 702.97 434.06 703.01 433.8C703.66 429.82 703.67 425.84 702.99 421.86C702.86 421.08 702.87 420.25 702.99 419.48C703.55 415.93 703.36 412.4 703.09 408.85C702.88 406.11 702.63 403.36 703.17 400.61C703.37 399.57 703.31 398.49 703.33 397.42C703.35 395.91 703.3 394.39 703.29 392.88C703.29 392.43 703.29 391.99 703.33 391.54C703.48 390.1 704.05 389.38 705.5 389.22C708.02 388.94 710.56 388.88 713.09 389.24C714.44 389.44 715.39 390.15 716.07 391.32C717.15 393.17 718.34 394.96 719.38 396.84C720.02 398 720.55 399.25 720.98 400.51C721.56 402.21 722.23 403.86 723.26 405.33C724.26 406.75 724.67 408.4 725.29 409.97C725.66 410.88 725.95 411.81 726.65 412.55C727.09 413.02 727.64 413.22 728.08 413.04C728.54 412.85 728.77 412.47 728.81 412.01C728.87 411.3 728.91 410.59 728.91 409.88C728.95 406.76 728.95 403.64 728.99 400.53C729.02 398.67 728.97 396.81 729.31 394.94C729.54 393.73 729.36 392.45 729.38 391.21C729.38 390.77 729.38 390.32 729.45 389.89C729.53 389.4 729.89 389.09 730.37 389.05C731.09 388.99 731.82 389.01 732.54 389.03C734.81 389.1 737.06 389.23 739.33 388.91C739.83 388.84 740.41 389 740.87 389.24C741.23 389.43 741.51 389.85 741.69 390.23C741.83 390.54 741.81 390.93 741.8 391.28C741.76 394.31 741.72 397.34 741.66 400.36C741.64 401.69 741.55 403.03 741.54 404.37C741.51 408.29 741.5 412.2 741.48 416.12C741.45 416.12 741.55 423.96 741.39 427.87L741.4 427.84Z" fill="black"/>
<path d="M810.73 414.55C810.96 417.63 810.9 420.76 810.24 423.84C809.9 425.39 810.05 427.03 809.91 428.62C809.58 432.5 808.44 436.1 806.1 439.27C804.35 441.65 802.14 443.36 799.18 443.94C797.7 444.24 796.21 444.55 794.7 444.67C787.57 445.3 789.15 445.77 781.65 445.27C781.29 445.25 780.94 445.25 780.58 445.25C780.58 445.25 780.58 445.27 780.58 445.28C778.35 445.23 776.12 445.18 773.9 445.13C773.54 445.13 773.18 445.1 772.84 445.03C771.96 444.85 771.42 444.29 771.24 443.44C771.14 443.01 771.15 442.56 771.16 442.11C771.2 439.17 771.24 436.25 770.85 433.32C770.69 432.11 770.91 430.84 771.01 429.6C771.12 428.18 771.44 426.77 771.41 425.36C771.26 417.7 771.94 410.06 771.94 402.41C771.94 399.47 771.96 396.54 771.98 393.6C771.98 393.07 771.98 392.53 772.02 392C772.15 390.08 772.52 389.66 774.39 389.39C774.92 389.32 775.48 389.31 776.01 389.37C779.88 389.8 783.77 390 787.66 390.04C790.01 390.06 792.37 390.08 794.73 390.04C797.92 389.99 800.75 391.16 803.49 392.57C803.96 392.81 804.4 393.18 804.73 393.59C806.19 395.4 807.64 397.22 809.02 399.09C809.42 399.65 809.72 400.36 809.84 401.04C810.22 403.13 810.74 405.21 810.64 407.36C810.53 409.76 810.55 412.13 810.74 414.54L810.73 414.55ZM796.46 411.83C796.47 410.24 796.35 408.63 796.11 407.05C795.86 405.36 794.93 403.89 793.23 403.5C791.13 403.01 788.93 402.96 786.82 403.74C786.18 403.98 785.77 404.46 785.65 405.1C785.44 406.23 785.18 407.37 785.13 408.51C784.99 411.89 784.95 415.27 784.87 418.65C784.81 418.65 784.54 425.41 784.46 428.79C784.45 429.23 784.46 429.68 784.49 430.12C784.58 431.34 785.26 432.08 786.5 432.22C788.77 432.49 790.96 432.28 793.02 431.19C794.84 430.24 795.78 428.72 796.06 426.75C796.11 426.4 796.12 426.04 796.13 425.68C796.24 421.06 796.4 416.43 796.46 411.8V411.83Z" fill="black"/>
<path d="M831.15 424.89C831.26 425.67 831.29 426.54 831.06 427.27C830.21 429.89 830.46 432.55 830.6 435.21C830.63 435.92 830.6 436.6 830.54 437.31C830.32 439.61 830.25 441.92 830.11 444.23C830.07 444.85 830.06 445.48 829.91 446.07C829.83 446.34 829.45 446.71 829.19 446.72C828.31 446.77 827.39 446.79 826.54 446.6C824.77 446.21 823.02 446.11 821.24 446.44C820.72 446.54 820.17 446.5 819.64 446.47C818.57 446.42 818.01 445.91 817.97 444.8C817.93 443.47 818 442.13 818.05 440.8C818.14 437.95 818.24 435.11 818.33 432.26C818.42 429.5 818.51 426.75 818.6 423.99C818.65 423.99 819.07 411.9 819.13 405.85C819.16 403.46 819.24 401.07 819.47 398.69C819.62 397.1 819.55 395.49 819.58 393.89C819.58 393.45 819.61 393 819.66 392.56C819.78 391.54 820.31 390.89 821.34 390.75C822.23 390.63 823.18 390.55 824.04 390.73C826 391.14 827.96 391.41 829.96 391.47C830.22 391.47 830.5 391.54 830.75 391.64C831.39 391.87 831.83 392.3 831.88 393C831.92 393.62 831.91 394.25 831.9 394.87C831.87 397.79 832.12 400.7 831.64 403.63C831.37 405.28 831.57 406.99 831.66 408.68C831.78 410.98 831.63 413.31 831.38 415.6C831.04 418.7 830.68 421.77 831.15 424.89Z" fill="black"/>
<path d="M882.17 447.33C882.44 447.84 882.03 448.43 881.46 448.47C881.28 448.48 881.1 448.5 880.93 448.49C877.99 448.27 875.06 448.04 872.11 448.36C870.61 448.52 869.54 447.81 868.89 446.46C868.62 445.9 868.33 445.34 868.09 444.77C867.46 443.29 866.73 441.87 865.66 440.65C865.26 440.18 864.91 439.64 864.65 439.08C864.01 437.7 863.2 436.43 862.37 435.16C861.79 434.28 861.39 433.26 860.99 432.27C860.08 430.02 858.77 428.01 857.42 426.01C857.07 425.49 856.65 425.02 856.2 424.59C854.94 423.43 852.99 424.03 852.62 425.67C852.58 425.84 852.54 426.02 852.54 426.2C852.51 430.21 851.45 434.12 851.57 438.14C851.6 439.2 851.59 440.26 851.73 441.33C851.9 442.54 851.8 443.83 851.61 445.04C851.43 446.16 850.75 446.99 849.45 447.02C848.74 447.04 848 447.26 847.33 447.13C845.3 446.72 843.25 446.71 841.2 446.65C840.94 446.65 840.67 446.62 840.4 446.59C839.96 446.53 839.57 446.12 839.57 445.68C839.57 445.06 839.57 444.43 839.63 443.81C840 439.91 840.05 436.02 839.81 432.09C839.61 428.73 839.97 425.33 840.07 421.95C841.11 417.75 840.58 413.44 840.97 409.2C841.02 408.67 841 408.13 840.9 407.61C840.7 406.62 840.89 405.68 841.01 404.71C841.34 402.16 841.56 399.6 841.18 397.01C840.99 395.71 841.11 394.34 841.24 393.02C841.34 391.97 842.02 391.55 843.15 391.6C847.04 391.75 850.94 391.92 854.83 392.09C854.83 392.12 861.9 392.51 865.42 392.65C867.36 392.73 869.18 393.18 870.89 394.06C872.18 394.72 873.47 395.36 874.71 396.08C876.57 397.16 877.86 398.75 878.7 400.68C879.34 402.15 879.92 403.65 880.42 405.17C880.64 405.83 880.68 406.57 880.66 407.28C880.61 409.34 880.3 411.35 879.45 413.25C879.08 414.06 878.71 414.87 878.41 415.71C877.59 418 876.01 419.64 873.99 420.91C873.08 421.48 872.13 421.99 871.19 422.51C869.3 423.55 868.94 424.48 869.94 426.42C870.63 427.76 871.4 429.09 872.31 430.3C873.83 432.31 875.13 434.4 875.94 436.8C876.27 437.78 876.93 438.71 877.61 439.51C879.62 441.85 880.78 444.66 882.18 447.34L882.17 447.33ZM864.96 405.9C864.93 404.84 864.33 404.05 863.36 403.62C862.8 403.37 862.17 403.19 861.56 403.11C860.76 403 859.95 403.02 859.14 402.98C858.33 402.94 857.52 402.9 856.71 402.88C856.44 402.87 856.17 402.9 855.9 402.94C854.2 403.2 853.23 404.23 852.98 405.94C852.77 407.38 853.12 408.76 853.36 410.15C853.5 410.99 854.13 411.59 854.92 411.85C857.25 412.58 859.64 412.91 862.07 412.31C863.63 411.93 864.55 410.87 864.79 409.35C864.96 408.22 864.98 407.05 864.95 405.91L864.96 405.9Z" fill="black"/>
<path d="M924.93 440.7C925.2 440.88 925.42 441.16 925.62 441.44C925.7 441.57 925.71 441.79 925.69 441.96C925.52 444.45 925.37 446.94 925.15 449.42C925.04 450.71 924.37 451.29 923.07 451.41C922.8 451.43 922.53 451.43 922.27 451.41C919.06 451.23 915.85 451.05 912.64 450.86C911.3 450.78 909.97 450.67 908.63 450.59C906.85 450.48 905.06 450.52 903.32 449.98C902.9 449.85 902.44 449.83 901.99 449.82C900.12 449.8 898.22 449.98 896.38 449.75C894.51 449.52 892.67 449.21 890.79 449.32C890.05 449.37 889.37 449.26 888.7 448.99C887.96 448.7 887.59 448.13 887.42 447.39C887.4 447.31 887.4 447.21 887.4 447.12C887.4 444.19 886.87 441.27 887.33 438.34C887.52 437.11 887.82 435.9 887.93 434.66C888.21 431.38 888.45 428.09 888.63 424.8C888.82 421.33 888.89 417.85 889.07 414.39C889.23 411.28 889.53 408.17 889.68 405.06C889.83 402.03 889.86 399.01 889.95 395.98C890 394.17 890.75 393.41 892.45 393.76C896.04 394.5 899.67 394.39 903.29 394.7C904.55 394.81 905.82 394.94 907.09 395C908.99 395.09 910.91 395.29 912.8 395.15C916.17 394.89 919.51 395.32 922.85 395.51C924.1 395.58 925.34 395.95 926.57 396.28C927.31 396.48 927.8 397.01 927.93 397.8C928.33 400.19 928.34 402.58 928.03 404.98C928 405.24 927.93 405.51 927.81 405.75C927.56 406.25 927.2 406.65 926.6 406.69C925.97 406.73 925.33 406.71 924.7 406.72C923.52 406.74 922.35 406.8 921.18 406.77C920.01 406.73 918.83 406.69 917.68 406.49C915.62 406.14 913.57 406.01 911.47 406.16C909.68 406.28 907.86 406.16 906.05 406.13C905.23 406.13 904.43 406.05 903.61 406.13C902.6 406.22 901.94 406.85 901.82 407.84C901.6 409.61 901.48 411.38 901.94 413.15C902.16 414 902.65 414.58 903.51 414.82C904.2 415.01 904.9 415.25 905.61 415.3C906.96 415.39 908.33 415.48 909.66 415.35C912.28 415.11 914.89 415.33 917.5 415.51C918.84 415.6 920.16 415.95 921.47 416.26C922.39 416.47 922.76 417.06 922.79 418.03C922.79 418.11 922.79 418.21 922.79 418.3C922.64 420.52 922.5 422.75 922.33 424.96C922.25 426 921.63 426.6 920.61 426.65C919.98 426.68 919.35 426.62 918.72 426.61C917.72 426.61 916.73 426.53 915.75 426.62C912.41 426.93 909.13 426.69 905.83 426.07C904.87 425.89 903.85 425.87 902.88 425.94C901.66 426.03 900.82 426.77 900.71 427.96C900.44 430.97 900.02 433.97 900.53 437.01C900.68 437.91 901.07 438.52 901.97 438.72C903.19 438.99 904.41 439.32 905.65 439.42C908.6 439.66 914.51 439.88 914.52 439.83C917.73 440.08 920.94 440.32 924.15 440.58C924.41 440.6 924.73 440.59 924.93 440.73V440.7Z" fill="black"/>
<path d="M973.33 410.4C973.51 410.89 973.25 411.28 972.86 411.54C972.5 411.79 972.07 411.97 971.65 412.14C969.31 413.08 966.97 414.01 964.63 414.94C964.3 415.07 963.96 415.23 963.61 415.29C962.87 415.41 962.17 415.3 961.64 414.7C960.87 413.83 960.07 412.97 959.33 412.07C957.33 409.64 954.74 409.47 951.96 410.19C950.28 410.62 948.85 411.58 947.45 412.58C946.69 413.12 946.21 413.86 945.82 414.67C945.28 415.79 944.75 416.92 944.2 418.04C943.13 420.23 942.46 422.52 942.49 424.93C942.04 428.42 942.78 431.69 944.01 434.89C944.63 436.51 945.58 437.89 947.07 438.84C948.05 439.47 949.01 440.13 950.02 440.7C952.31 442 954.61 442.02 956.89 440.63C957.35 440.35 957.79 440.03 958.24 439.76C959.18 439.22 959.86 439.26 960.69 439.97C961.16 440.37 961.6 440.83 961.97 441.32C962.83 442.47 963.8 443.5 964.94 444.38C965.57 444.87 966.13 445.46 966.64 446.07C967.11 446.62 967.05 447.52 966.51 448.02C964.79 449.58 963.15 451.2 960.79 451.86C958.91 452.38 957.11 453.17 955.15 453.52C953.35 453.84 951.58 453.76 949.83 453.4C948 453.02 946.2 452.48 944.4 451.95C943.37 451.65 942.4 451.2 941.65 450.37C939.37 447.86 937.08 445.36 934.78 442.88C933.22 441.19 932.25 439.21 931.82 436.98C931.23 434.02 930.67 431.05 930.19 428.07C929.61 424.49 930 420.99 931.34 417.59C931.79 416.43 932.29 415.26 932.51 414.05C932.76 412.69 933.28 411.51 934.06 410.4C934.37 409.96 934.72 409.53 934.91 409.04C935.87 406.59 937.8 405 939.82 403.47C942.19 401.68 944.72 400.12 947.31 398.66C948.7 397.88 950.12 397.52 951.71 397.57C953.52 397.62 955.33 397.63 957.14 397.57C958.19 397.53 959.11 397.91 960.02 398.26C961.54 398.84 963.01 399.53 964.48 400.24C965.12 400.55 965.74 400.96 966.28 401.43C967.52 402.48 968.75 403.53 969.9 404.68C971.51 406.29 972.54 408.28 973.32 410.39L973.33 410.4Z" fill="black"/>
<path d="M1010.27 402.39C1012.62 402.84 1012.71 402.97 1012.5 405.43C1012.34 407.21 1012.19 408.98 1012.03 410.75C1011.99 411.19 1011.97 411.64 1011.91 412.08C1011.78 413.05 1011.27 413.59 1010.34 413.55C1008.8 413.5 1007.27 413.36 1005.74 413.24C1004.3 413.12 1002.86 412.92 1001.42 412.84C1000.29 412.78 999.46 413.37 999.23 414.43C998.98 415.56 998.8 416.71 998.73 417.86C998.43 423.56 997.57 429.2 997.39 434.9C997.07 438.72 996.76 442.53 996.41 446.34C996.19 448.74 995.92 451.12 995.67 453.52C995.64 453.87 995.61 454.24 995.51 454.58C994.9 456.71 994.64 456.85 992.49 456.59C992.14 456.55 991.78 456.49 991.44 456.38C990.05 455.91 988.65 455.9 987.2 456.03C986.32 456.11 985.42 456.03 984.53 455.93C983.65 455.84 983.08 455.19 983.05 454.31C983.02 453.6 983.06 452.88 983.13 452.18C983.36 449.61 983.64 447.04 983.84 444.47C984.24 439.5 984.58 434.52 984.97 429.55C985.07 428.31 985.31 427.1 985.59 425.88C985.95 424.25 986.16 422.52 986.08 420.85C986 419.15 986.12 417.47 986.2 415.79C986.21 415.44 986.21 415.08 986.25 414.72C986.47 412.57 985.45 411.43 983.25 411.02C982.01 410.79 980.73 410.74 979.47 410.61C978.3 410.49 977.11 410.44 975.96 410.27C974.38 410.04 973.98 409.55 974.1 407.91C974.27 405.69 974.47 403.47 974.7 401.26C974.82 400.12 975.34 399.68 976.51 399.79C978.94 400.01 981.4 399.87 983.83 400.29C985.24 400.53 986.72 400.41 988.17 400.34C989.18 400.29 990.15 400.34 991.13 400.57C993.26 401.09 995.43 401.28 997.61 401.11C998.53 401.04 999.41 401.11 1000.3 401.35C1001.98 401.79 1003.7 401.99 1005.42 401.8C1006.53 401.68 1007.58 401.75 1008.64 402.07C1009.16 402.23 1009.7 402.28 1010.24 402.38L1010.27 402.39Z" fill="black"/>
<path d="M1057.11 434.93C1057.1 436.36 1056.85 437.74 1056.35 439.11C1055.86 440.44 1055.69 441.87 1055.31 443.24C1055.15 443.83 1054.86 444.39 1054.56 444.93C1053.75 446.41 1052.84 447.85 1052.09 449.36C1051.11 451.3 1049.8 452.99 1048.23 454.45C1047.33 455.28 1046.23 455.95 1045.12 456.51C1042.97 457.6 1040.79 458.64 1038.56 459.54C1037.42 460 1036.15 460.31 1034.93 460.37C1031.96 460.5 1029.12 460 1026.35 458.73C1022.75 457.1 1019.96 454.58 1017.27 451.81C1015.14 449.63 1013.72 447.16 1013.05 444.21C1012.6 442.22 1012.06 440.24 1011.55 438.25C1011.01 436.16 1011.02 434.02 1011.04 431.89C1011.04 431.09 1011.17 430.3 1011.24 429.5C1011.24 427.44 1011.58 425.43 1012.32 423.49C1012.86 422.07 1013.34 420.64 1013.87 419.23C1014.37 417.88 1015.06 416.65 1016.03 415.56C1017.82 413.55 1019.58 411.53 1021.36 409.52C1022.14 408.64 1023.08 407.99 1024.14 407.43C1027.04 405.92 1030.04 404.75 1033.34 404.37C1034.8 404.2 1036.22 404.19 1037.66 404.54C1040.94 405.34 1044.03 406.64 1047 408.19C1048.71 409.08 1050.11 410.33 1051.06 412.03C1052.02 413.75 1053.11 415.39 1054.07 417.11C1054.55 417.96 1054.9 418.89 1055.26 419.8C1055.75 421.04 1056.18 422.31 1056.68 423.55C1056.95 424.22 1057.15 424.88 1057.14 425.62C1057.12 428.73 1057.15 431.84 1057.12 434.95L1057.11 434.93ZM1044.85 430.17C1045.35 428.29 1044.63 425.68 1043.28 423.17C1042.86 422.38 1042.46 421.59 1042.07 420.78C1041.16 418.93 1039.61 417.73 1037.79 416.85C1035.31 415.65 1032.85 415.83 1030.56 417.26C1027.72 419.04 1025.76 421.49 1025.03 424.82C1024.6 426.81 1023.98 428.76 1023.56 430.75C1023.31 431.87 1023.13 433.05 1023.23 434.17C1023.38 435.84 1023.75 437.5 1024.12 439.14C1024.29 439.91 1024.63 440.66 1024.99 441.36C1025.52 442.39 1026.14 443.37 1026.72 444.37C1028.37 447.19 1031.26 448.48 1034.47 447.83C1036.55 447.41 1038.36 446.53 1039.71 444.85C1040.21 444.23 1040.76 443.63 1041.26 443.01C1041.98 442.1 1042.55 441.13 1042.86 439.97C1043.67 437.06 1044.27 434.12 1044.85 430.16V430.17Z" fill="black"/>
<path d="M1103.89 465.97C1104.12 466.5 1103.68 467.06 1103.1 467.06C1102.92 467.06 1102.74 467.06 1102.56 467.05C1099.64 466.64 1096.72 466.22 1093.76 466.36C1092.25 466.43 1091.23 465.65 1090.67 464.26C1090.44 463.68 1090.18 463.11 1089.98 462.52C1089.44 461 1088.81 459.54 1087.81 458.25C1087.43 457.76 1087.12 457.2 1086.9 456.62C1086.35 455.2 1085.62 453.88 1084.87 452.56C1084.34 451.64 1084.02 450.6 1083.68 449.59C1082.91 447.29 1081.73 445.19 1080.52 443.11C1080.2 442.57 1079.82 442.07 1079.39 441.62C1078.2 440.38 1076.22 440.85 1075.74 442.47C1075.69 442.64 1075.63 442.81 1075.63 442.99C1075.34 446.98 1074.03 450.83 1073.89 454.84C1073.85 455.9 1073.77 456.95 1073.85 458.03C1073.94 459.25 1073.77 460.53 1073.49 461.73C1073.24 462.83 1072.52 463.62 1071.2 463.57C1070.49 463.55 1069.74 463.72 1069.08 463.54C1067.08 463 1065.03 462.86 1062.99 462.67C1062.72 462.65 1062.46 462.61 1062.2 462.56C1061.76 462.47 1061.4 462.04 1061.43 461.6C1061.47 460.98 1061.51 460.36 1061.61 459.74C1062.22 455.87 1062.53 451.99 1062.54 448.06C1062.55 444.69 1063.13 441.33 1063.45 437.96C1064.77 433.84 1064.49 429.5 1065.16 425.3C1065.24 424.78 1065.26 424.23 1065.19 423.7C1065.06 422.7 1065.3 421.78 1065.49 420.81C1065.99 418.29 1066.37 415.75 1066.16 413.14C1066.05 411.83 1066.27 410.48 1066.48 409.17C1066.65 408.12 1067.36 407.75 1068.48 407.87C1072.36 408.28 1076.24 408.69 1080.12 409.11C1080.12 409.14 1087.15 409.99 1090.67 410.35C1092.6 410.55 1094.39 411.13 1096.05 412.11C1097.29 412.85 1098.54 413.57 1099.74 414.37C1101.52 415.57 1102.72 417.24 1103.43 419.22C1103.97 420.73 1104.46 422.26 1104.86 423.81C1105.04 424.49 1105.03 425.23 1104.96 425.93C1104.78 427.98 1104.35 429.97 1103.36 431.81C1102.94 432.6 1102.52 433.38 1102.16 434.2C1101.2 436.43 1099.51 437.97 1097.41 439.11C1096.47 439.62 1095.48 440.07 1094.51 440.52C1092.55 441.44 1092.14 442.34 1093.01 444.34C1093.61 445.73 1094.3 447.1 1095.13 448.36C1096.51 450.47 1097.68 452.63 1098.34 455.08C1098.61 456.08 1099.2 457.05 1099.84 457.89C1101.7 460.35 1102.67 463.23 1103.9 465.99L1103.89 465.97ZM1089.35 423.52C1089.39 422.46 1088.84 421.64 1087.9 421.14C1087.35 420.85 1086.74 420.64 1086.13 420.52C1085.34 420.36 1084.52 420.33 1083.72 420.24C1082.91 420.15 1082.11 420.06 1081.3 419.98C1081.03 419.96 1080.76 419.96 1080.49 419.98C1078.77 420.13 1077.74 421.1 1077.39 422.78C1077.09 424.2 1077.35 425.6 1077.5 427C1077.59 427.84 1078.17 428.49 1078.95 428.79C1081.24 429.68 1083.6 430.15 1086.06 429.71C1087.64 429.43 1088.63 428.43 1088.96 426.93C1089.21 425.81 1089.29 424.65 1089.34 423.5L1089.35 423.52Z" fill="black"/>
<path d="M1143.62 416.93C1143.85 417.13 1144.06 417.62 1143.96 417.85C1142.99 420.11 1142.7 422.66 1140.92 424.61C1140.16 425.45 1139.7 426.57 1139.19 427.61C1137.99 430.09 1136.84 432.6 1135.68 435.1C1135.45 435.58 1135.2 436.06 1135.01 436.56C1133.8 439.74 1132.25 442.73 1130.21 445.47C1129.29 446.7 1128.84 448.14 1128.67 449.68C1128.4 452.25 1128.03 454.8 1127.75 457.37C1127.66 458.24 1127.72 459.14 1127.71 460.02C1127.71 460.28 1127.77 460.56 1127.74 460.82C1127.44 463.47 1127.14 466.13 1126.79 468.78C1126.64 469.89 1126.05 470.37 1124.98 470.33C1124.18 470.3 1123.38 470.15 1122.22 470.01C1120.22 469.61 1117.85 469.15 1115.49 468.66C1114.66 468.49 1114.25 467.97 1114.28 467.14C1114.3 466.52 1114.42 465.91 1114.49 465.29C1114.75 462.99 1115 460.69 1115.27 458.39C1115.67 455.03 1115.98 451.65 1116.51 448.31C1116.91 445.76 1116.62 443.36 1115.62 441C1114.6 438.6 1113.92 436.12 1113.74 433.51C1113.69 432.81 1113.55 432.09 1113.38 431.41C1112.68 428.74 1111.96 426.08 1111.22 423.43C1110.88 422.23 1110.68 421.02 1110.57 419.76C1110.44 418.17 1110.1 416.6 1109.84 415.02C1109.77 414.59 1109.66 414.14 1109.68 413.71C1109.69 413.5 1109.94 413.27 1110.13 413.11C1110.25 413 1110.46 412.94 1110.63 412.94C1112.71 412.96 1114.8 412.99 1116.88 413.04C1117.24 413.04 1117.61 413.11 1117.95 413.23C1120.49 414.12 1120.83 413.6 1121.83 416.75C1122.69 419.48 1123.51 422.2 1123.67 425.08C1123.71 425.86 1123.91 426.66 1124.19 427.4C1124.51 428.25 1125.59 428.35 1126.16 427.62C1126.43 427.28 1126.62 426.87 1126.84 426.49C1127.72 424.95 1128.57 423.37 1129.49 421.86C1130.42 420.35 1131.53 418.92 1131.91 417.13C1131.98 416.8 1132.22 416.49 1132.4 416.19C1132.65 415.78 1133.03 415.55 1133.51 415.54C1133.87 415.54 1134.24 415.54 1134.59 415.58C1136.4 415.8 1138.18 415.99 1140.02 415.89C1141.29 415.82 1142.58 416.03 1143.6 416.93H1143.62Z" fill="black"/>
<path d="M569.52 997.62C569.79 997.87 569.97 998.2 570.12 998.52C570.19 998.67 570.14 998.88 570.09 999.05C569.38 1001.44 568.7 1003.84 567.93 1006.22C567.53 1007.46 566.66 1007.85 565.16 1007.61C564.86 1007.56 564.55 1007.48 564.25 1007.39C560.66 1006.34 557.07 1005.24 553.5 1004.08C552.01 1003.6 550.54 1003.08 549.05 1002.58C547.08 1001.92 545.05 1001.38 543.25 1000.28C542.82 1000.02 542.3 999.84 541.8 999.69C539.71 999.04 537.54 998.57 535.55 997.7C533.54 996.82 531.57 995.86 529.45 995.27C528.61 995.04 527.89 994.68 527.22 994.18C526.5 993.63 526.26 992.94 526.29 992.18C526.29 992.09 526.33 992 526.35 991.92C527.25 989.13 527.59 986.15 529 983.54C529.59 982.44 530.29 981.4 530.79 980.26C532.11 977.24 533.39 974.2 534.6 971.14C535.88 967.91 537.04 964.63 538.31 961.4C539.45 958.5 540.73 955.65 541.85 952.74C542.94 949.92 543.93 947.06 544.98 944.21C545.6 942.52 546.56 942.03 548.1 942.91C551.35 944.76 554.94 945.76 558.38 947.1C559.59 947.57 560.79 948.06 562.02 948.47C563.86 949.09 565.69 949.8 567.58 950.17C570.96 950.82 574.13 952.06 577.39 953.05C578.61 953.42 579.75 954.07 580.89 954.66C581.58 955.02 581.95 955.66 581.91 956.45C581.79 958.87 581.28 961.21 580.45 963.48C580.36 963.73 580.23 963.98 580.06 964.18C579.7 964.61 579.25 964.92 578.62 964.82C577.97 964.71 577.33 964.54 576.69 964.4C575.49 964.14 574.29 963.91 573.1 963.59C571.92 963.26 570.74 962.92 569.62 962.43C567.62 961.56 565.58 960.89 563.42 960.45C561.57 960.07 559.78 959.43 557.96 958.89C557.14 958.64 556.34 958.34 555.51 958.16C554.47 957.94 553.63 958.34 553.22 959.26C552.49 960.89 551.87 962.55 551.85 964.39C551.83 965.27 552.18 965.99 552.99 966.47C553.65 966.86 554.3 967.31 555.02 967.56C556.39 968.05 557.77 968.53 559.19 968.79C561.96 969.31 564.6 970.24 567.26 971.1C568.62 971.54 569.92 972.22 571.21 972.86C572.12 973.3 572.37 973.96 572.18 974.92C572.16 975.01 572.15 975.09 572.12 975.18C571.46 977.31 570.82 979.44 570.14 981.56C569.82 982.56 569.02 982.98 567.92 982.76C567.24 982.62 566.59 982.4 565.92 982.22C564.86 981.95 563.82 981.61 562.76 981.42C559.13 980.8 555.69 979.6 552.37 978C551.4 977.53 550.33 977.2 549.28 976.96C547.97 976.67 546.86 977.11 546.42 978.21C545.3 981.01 543.99 983.76 543.71 986.85C543.63 987.76 543.88 988.48 544.8 988.97C546.05 989.63 547.3 990.33 548.63 990.82C551.79 992 558.23 993.96 558.25 993.9C561.72 995.07 565.2 996.19 568.69 997.28C568.98 997.37 569.32 997.44 569.52 997.63V997.62Z" fill="black"/>
<path d="M616.2 1003.99C616.21 1005.26 615.72 1006.4 614.89 1007.44C612.99 1009.79 610.82 1011.93 608.41 1013.88C606.99 1015.03 605.3 1015.73 603.29 1015.86C601.87 1015.96 600.47 1016.2 599.05 1016.27C598.15 1016.31 597.15 1016.35 596.3 1016.09C592.34 1014.89 588.44 1013.47 585 1011.26C583.19 1010.1 581.7 1008.71 580.74 1006.86C580.09 1005.61 579.08 1004.5 578.34 1003.29C577.81 1002.41 577.37 1001.46 577.05 1000.51C576.8 999.77 577.36 999.07 578.17 998.9C581.43 998.21 584.69 997.52 587.89 996.73C589.01 996.46 589.84 996.74 590.48 997.6C591.16 998.51 591.87 999.43 592.46 1000.39C593.71 1002.45 595.72 1003.37 598.16 1003.66C598.26 1003.67 598.36 1003.69 598.46 1003.69C601 1003.86 602.59 1001.89 601.46 999.81C600.76 998.52 599.75 997.33 598.75 996.19C598.06 995.42 597.15 994.81 596.32 994.13C591.81 990.42 587.93 986.25 584.89 981.5C582.58 977.89 582.39 974.14 583.59 970.35C584.24 968.3 585.32 966.46 587.04 965.01C588.5 963.79 589.87 962.49 591.33 961.29C592.61 960.24 594.14 959.61 595.82 959.47C596.81 959.39 597.83 959.47 598.83 959.56C600.83 959.73 602.83 959.94 604.34 960.07C606.72 960.67 608.47 961.49 610.02 962.6C611.95 963.98 613.78 965.49 615.69 966.91C616.82 967.75 617.63 968.88 618.25 970.07C619.04 971.59 619.7 973.18 620.35 974.76C620.63 975.43 620.33 976.02 619.63 976.29C618.77 976.62 617.88 976.98 616.97 977.08C614.99 977.31 613.11 977.8 611.29 978.52C610.85 978.69 610.41 978.82 609.95 978.93C609.02 979.17 608.53 978.95 608.11 978.11C607.78 977.46 607.53 976.77 607.16 976.14C606.06 974.24 604.44 972.92 602.28 972.19C601.37 971.88 600.44 971.78 599.5 971.9C598.5 972.02 597.73 972.53 597.29 973.35C596.62 974.57 596.44 975.88 597.13 977.21C597.81 978.53 598.72 979.69 599.94 980.64C601.21 981.63 602.5 982.61 603.75 983.61C604.94 984.55 606.12 985.51 607.28 986.48C608.75 987.7 610.03 989.06 611.11 990.61C612.07 991.99 613.21 993.25 614.21 994.6C614.65 995.19 615.02 995.86 615.23 996.54C616 998.98 616.16 1001.49 616.18 1003.99H616.2Z" fill="black"/>
<path d="M661.15 970.15C663.51 970.62 663.6 970.75 663.38 973.21C663.22 974.98 663.05 976.76 662.89 978.53C662.85 978.97 662.82 979.42 662.77 979.86C662.63 980.83 662.12 981.36 661.14 981.32C659.55 981.25 657.97 981.09 656.39 980.93C654.9 980.78 653.42 980.53 651.93 980.4C650.76 980.3 649.89 980.86 649.61 981.91C649.32 983.03 649.08 984.17 648.98 985.32C648.47 991 647.38 996.6 647.02 1002.3C646.56 1006.1 646.11 1009.9 645.62 1013.7C645.31 1016.09 644.94 1018.46 644.59 1020.84C644.54 1021.19 644.51 1021.56 644.39 1021.89C643.62 1023.99 643.33 1024.11 640.87 1023.72C640.46 1023.66 640.05 1023.57 639.67 1023.44C638.09 1022.88 636.48 1022.76 634.81 1022.77C633.79 1022.78 632.76 1022.62 631.74 1022.44C630.73 1022.27 630.12 1021.57 630.13 1020.68C630.14 1019.97 630.23 1019.26 630.34 1018.56C630.76 1016.01 631.23 1013.47 631.61 1010.92C632.35 1005.99 633.04 1001.05 633.78 996.12C633.97 994.89 634.31 993.7 634.68 992.51C635.18 990.91 635.51 989.2 635.53 987.53C635.56 985.83 635.79 984.16 635.99 982.49C636.03 982.14 636.05 981.78 636.11 981.43C636.48 979.3 635.51 978.09 633.26 977.5C631.99 977.16 630.69 977 629.4 976.75C628.2 976.52 626.99 976.34 625.81 976.06C624.2 975.67 623.85 975.13 624.13 973.51C624.52 971.32 624.96 969.13 625.42 966.96C625.65 965.84 626.21 965.46 627.39 965.68C629.82 966.15 632.28 966.23 634.7 966.84C636.1 967.19 637.6 967.19 639.05 967.22C640.06 967.24 641.04 967.35 642.01 967.64C644.11 968.28 646.29 968.6 648.49 968.53C649.41 968.5 650.3 968.61 651.18 968.88C652.85 969.38 654.58 969.63 656.32 969.49C657.44 969.4 658.49 969.49 659.55 969.83C660.07 970 660.62 970.05 661.15 970.16V970.15Z" fill="black"/>
<path d="M704.7 1009.63C703.07 1010.94 702.37 1012.71 702.42 1014.69C702.45 1015.9 703 1016.5 704.36 1016.7C704.95 1016.79 705.57 1016.8 706.17 1016.77C706.88 1016.74 707.57 1016.64 708.27 1016.54C709.88 1016.33 711.48 1016.35 713.09 1016.52C716.51 1016.88 719.93 1016.87 723.32 1016.1C724.38 1015.85 725.52 1015.9 726.62 1015.87C727.2 1015.85 727.77 1016.35 727.83 1016.88C727.91 1017.5 728.02 1018.14 727.9 1018.75C727.58 1020.45 727.67 1022.14 727.74 1023.83C727.75 1024.28 727.76 1024.73 727.71 1025.17C727.63 1025.75 727.25 1026.18 726.59 1026.33C725.89 1026.48 725.17 1026.63 724.46 1026.62C721.96 1026.59 719.53 1026.96 717.1 1027.4C716.09 1027.58 715.07 1027.61 714.03 1027.58C710.53 1027.49 707.01 1027.47 703.51 1027.37C703.51 1027.39 703.51 1027.41 703.51 1027.43C701.76 1027.49 700 1027.47 698.25 1027.58C695.02 1027.79 691.89 1027.09 688.72 1026.7C687.92 1026.6 687.46 1026.13 687.25 1025.47C686.98 1024.61 686.73 1023.76 686.76 1022.84C686.87 1019.62 687.1 1016.41 687.71 1013.25C688.08 1011.32 688.68 1009.44 689.93 1007.77C690.65 1006.82 691.26 1005.79 691.85 1004.76C692.87 1002.98 694.23 1001.52 696.06 1000.4C698.9 998.67 701.62 996.8 704.43 995.08C705.7 994.31 707.18 993.83 708.57 993.23C710.05 992.59 711.52 991.98 712.82 991.02C714.32 989.91 714.87 988.54 714.73 986.8C714.61 985.26 713.74 984.33 712.3 983.83C710.04 983.04 707.23 983.74 705.59 985.48C704.78 986.35 704.04 987.28 703.22 988.14C702.82 988.55 702.29 988.74 701.67 988.48C698.89 987.33 696.07 986.27 693.64 984.53C693.2 984.21 692.78 983.84 692.4 983.45C691.98 983.02 691.87 982.44 692.14 981.95C692.62 981.1 693.11 980.2 693.8 979.51C696.05 977.25 698.54 975.27 701.07 973.33C702.24 972.43 703.56 971.81 705 971.51C706.7 971.16 708.39 970.85 710.1 970.62C712.32 970.33 714.45 970.72 716.49 971.64C717.89 972.28 719.32 972.9 720.75 973.49C722.69 974.29 724.14 975.59 725.08 977.43C726.46 980.16 727.74 982.92 728.05 986C728.21 987.54 728.05 989.03 727.44 990.47C726.85 991.89 726.3 993.32 725.67 994.73C724.54 997.27 722.84 999.32 720.14 1000.75C717.18 1002.32 714.3 1004.03 711.19 1005.4C708.78 1006.45 706.7 1008.02 704.7 1009.63Z" fill="black"/>
<path d="M738.67 1017.32C737.23 1015.45 736.51 1013.33 736.35 1011.06C736.13 1008.03 735.94 1005 735.75 1001.96C735.66 1000.62 735.63 999.28 735.48 997.95C735.31 996.35 735.29 994.78 735.48 993.16C735.7 991.21 735.51 989.22 734.96 987.32C734.43 985.47 734.31 983.64 734.82 981.77C735.31 979.95 735.76 978.13 736.23 976.31C736.6 974.87 737.38 973.7 738.63 972.81C740.19 971.7 741.7 970.53 743.23 969.4C744.42 968.52 745.77 968.01 747.26 967.87C748.53 967.75 749.8 967.59 751.06 967.38C754.49 966.8 757.84 967.2 760.99 968.51C764.33 969.9 766.99 972.2 768.51 975.55C768.77 976.12 769.1 976.69 769.19 977.29C769.72 980.91 771.15 984.34 771.44 988.02C771.58 989.8 772.34 993.31 772.4 993.3C772.73 995.42 773.05 997.54 773.38 999.66C773.63 1001.25 773.82 1002.83 773.64 1004.46C773.53 1005.43 773.72 1006.42 773.82 1007.4C774.34 1012.46 772.17 1016.72 768.18 1020.41C767.14 1021.36 765.88 1022.02 764.49 1022.41C761.72 1023.2 758.93 1023.9 756.11 1024.53C755.12 1024.75 754.05 1024.8 753.03 1024.77C751.7 1024.73 750.38 1024.53 749.05 1024.41C746.17 1024.14 743.77 1023.06 741.95 1021.14C740.79 1019.92 739.67 1018.66 738.66 1017.35L738.67 1017.32ZM746.9 989.63C746.78 991.12 747.14 992.65 747.34 994.15C747.5 995.3 747.8 996.42 747.95 997.57C748.14 998.99 748.24 1000.42 748.38 1001.84C748.4 1001.84 748.42 1001.84 748.44 1001.84C748.65 1003.88 748.82 1005.94 749.06 1007.98C749.27 1009.89 750.51 1011.25 752.16 1012.32C752.88 1012.79 753.74 1013.04 754.68 1013.05C757.71 1013.11 761.73 1010.35 761.21 1006.88C761.02 1005.56 760.72 1004.25 760.52 1002.93C760.22 1000.9 759.82 998.88 759.69 996.84C759.57 994.98 759.82 993.1 759.77 991.23C759.74 990.17 759.48 989.11 759.27 988.06C759.09 987.1 758.84 986.16 758.65 985.2C758.52 984.5 758.46 983.78 758.34 983.08C758.03 981.26 756.93 980 755.2 979.26C753.1 978.36 751.01 978.58 748.95 979.45C748.05 979.83 747.48 980.54 747.11 981.41C746.74 982.26 746.69 983.14 746.77 984.04C746.93 985.9 747.04 987.76 746.89 989.65L746.9 989.63Z" fill="black"/>
<path d="M797.16 1000.03C795.81 1001.64 795.48 1003.51 795.92 1005.44C796.19 1006.62 796.85 1007.1 798.23 1007.03C798.83 1007 799.44 1006.88 800.03 1006.74C800.72 1006.56 801.39 1006.33 802.06 1006.1C803.61 1005.57 805.18 1005.28 806.81 1005.12C810.25 1004.79 813.63 1004.1 816.82 1002.66C817.81 1002.21 818.95 1002.02 820.03 1001.77C820.61 1001.64 821.26 1002.01 821.43 1002.52C821.62 1003.11 821.87 1003.72 821.87 1004.33C821.89 1006.06 822.32 1007.7 822.72 1009.34C822.82 1009.77 822.92 1010.21 822.95 1010.66C822.99 1011.24 822.7 1011.75 822.07 1012.02C821.41 1012.31 820.72 1012.6 820.02 1012.74C817.55 1013.22 815.23 1014.06 812.91 1014.98C811.95 1015.36 810.95 1015.59 809.92 1015.77C806.44 1016.38 802.99 1017.06 799.51 1017.66C799.51 1017.68 799.51 1017.7 799.51 1017.72C797.8 1018.13 796.05 1018.46 794.36 1018.92C791.21 1019.77 788 1019.71 784.81 1019.96C784 1020.02 783.46 1019.65 783.12 1019.05C782.68 1018.26 782.27 1017.48 782.12 1016.57C781.6 1013.4 781.18 1010.21 781.15 1006.98C781.13 1005.01 781.34 1003.05 782.24 1001.17C782.76 1000.09 783.15 998.96 783.53 997.84C784.18 995.9 785.22 994.19 786.81 992.73C789.26 990.47 791.56 988.09 793.99 985.85C795.09 984.84 796.45 984.08 797.7 983.21C799.03 982.29 800.36 981.4 801.45 980.19C802.71 978.8 802.98 977.35 802.49 975.67C802.06 974.19 801.03 973.45 799.51 973.24C797.12 972.92 794.49 974.16 793.22 976.2C792.59 977.21 792.06 978.28 791.41 979.29C791.1 979.77 790.61 980.06 789.95 979.93C786.99 979.36 784 978.88 781.27 977.66C780.76 977.44 780.28 977.15 779.84 976.85C779.34 976.51 779.12 975.96 779.29 975.43C779.59 974.5 779.89 973.52 780.44 972.7C782.21 970.04 784.27 967.59 786.36 965.19C787.33 964.07 788.51 963.2 789.87 962.62C791.47 961.94 793.08 961.29 794.72 960.73C796.85 960.01 799.03 959.96 801.22 960.45C802.74 960.79 804.26 961.12 805.79 961.41C807.86 961.81 809.56 962.79 810.84 964.41C812.75 966.81 814.56 969.26 815.48 972.22C815.94 973.7 816.07 975.18 815.76 976.73C815.45 978.24 815.2 979.75 814.86 981.26C814.25 983.98 812.97 986.32 810.59 988.27C807.99 990.4 805.49 992.65 802.69 994.61C800.53 996.12 798.79 998.08 797.14 1000.05L797.16 1000.03Z" fill="black"/>
<path d="M827.98 975.25C829.23 971.99 830.38 968.71 831.65 965.48C832.63 963.01 833.4 960.49 834.07 957.95C834.53 956.21 835.12 954.48 835.71 952.77C836.21 951.33 837.13 950.29 838.69 949.77C840 949.33 841.22 948.64 842.51 948.12C843.1 947.88 843.74 947.77 844.37 947.62C846.62 947.1 848.93 946.82 851.09 945.89C852.65 945.22 853.31 945.68 854.08 946.89C854.55 947.64 854.83 948.51 855.17 949.34C855.41 949.92 855.61 950.51 856.05 951.66C856.49 952.85 857.05 954.61 857.38 956.48C857.85 959.13 858.87 961.65 860.16 964C861.12 965.74 861.83 967.56 862.6 969.36C862.92 970.1 863.22 970.85 863.63 971.54C864.08 972.29 864.87 972.63 865.83 972.51C867.01 972.35 868.18 972.1 869.34 971.85C870.57 971.59 871.45 972 872.08 972.87C872.35 973.23 872.51 973.65 872.73 974.04C873.31 975.05 873.89 976.05 874.47 977.05C874.56 977.21 874.66 977.36 874.73 977.52C875.65 979.47 875.06 981.04 872.91 982.18C872.11 982.61 871.21 982.89 870.39 983.28C868.69 984.06 868.09 985.12 868.59 986.67C868.99 987.95 869.58 989.16 870 990.44C870.56 992.13 871.26 993.79 871.23 995.65C871.22 996.25 870.93 996.72 870.33 997.05C867.86 998.41 865.34 999.68 862.58 1000.4C862.18 1000.51 861.77 1000.62 861.36 1000.68C860.13 1000.86 859.14 1000.61 858.64 999.56C858.29 998.84 857.85 998.15 857.55 997.41C856.98 996 856.49 994.56 855.97 993.13C855.75 992.54 855.59 991.93 855.29 991.38C854.62 990.18 853.55 989.57 851.94 989.74C850.4 989.9 848.94 990.31 847.56 990.96C845.62 991.87 843.61 992.43 841.51 992.91C838.76 993.54 836.04 994.45 833.37 995.39C831.71 995.98 830.04 996.15 828.36 996.43C827.7 996.54 827.13 996.21 826.92 995.71C825.76 993.01 824.27 990.38 824.44 987.31C824.49 986.34 824.77 985.35 825.07 984.4C825.9 981.78 826.78 979.17 827.61 976.55C827.75 976.11 827.84 975.66 828 975.24L827.98 975.25ZM839.41 980.1C839.52 981.22 840.45 981.85 841.65 981.55C842.7 981.28 843.73 980.9 844.76 980.57C845.61 980.3 846.46 980.04 847.3 979.73C847.95 979.49 848.59 979.22 849.19 978.89C850.43 978.2 850.7 977.6 850.36 976.38C850.15 975.61 849.85 974.86 849.6 974.1C849.07 972.5 848.5 970.93 848.27 969.22C848.07 967.74 847.42 966.32 846.81 964.94C846.37 963.94 844.93 963.88 844.21 964.78C843.81 965.28 843.54 965.88 843.28 966.46C841.53 970.35 840.85 974.49 839.52 978.5C839.35 979 839.36 979.58 839.41 980.1Z" fill="black"/>
<path d="M325.44 673.3C325.96 678.44 325.83 683.65 325.87 688.83C325.88 690.55 324.46 691.82 322.63 691.96C321.22 692.07 319.8 692.06 318.39 692.03C311.79 691.86 305.18 691.54 298.64 692.86C297.73 693.04 296.76 692.94 295.82 692.86C294.26 692.73 293.23 691.85 292.68 690.41C291.39 687.01 291.14 683.44 291.78 679.95C293.15 672.46 293.15 664.93 292.83 657.4C292.53 650.12 291.88 642.85 291.42 635.56C291.25 632.88 289.92 631.23 287.41 630.36C280.15 627.85 272.66 627.31 265.09 627.95C261.42 628.27 259.21 630.65 258.29 634.21C256.26 642.08 255.91 649.99 257.41 658C257.84 660.3 258.07 662.66 258.07 665C258.09 671.13 257.97 677.26 257.83 683.39C257.79 685.02 257.65 686.68 257.32 688.29C256.49 692.31 255.58 693.05 251.66 693.1C248.59 693.14 245.53 693.1 242.46 693.1V692.83C238.68 692.83 234.9 692.97 231.14 692.79C227.2 692.6 225.81 691.17 225.05 687.21C224.96 686.75 224.91 686.28 224.88 685.81C224.43 678.77 223.91 671.72 223.58 664.67C223.41 661.14 223.84 657.65 224.27 654.12C225.44 644.5 225.25 634.82 224.06 625.2C223.53 620.95 223.48 616.81 224.15 612.56C225.29 605.31 225.19 597.98 224.68 590.68C224.33 585.73 224.39 580.81 224.64 575.86C224.93 570.21 224.82 564.54 225 558.89C225.08 556.31 225.49 553.75 225.67 551.17C225.87 548.26 227.8 547.14 230.28 546.67C231.66 546.41 233.1 546.41 234.5 546.3C238.96 545.95 243.42 545.57 247.89 545.25C249.29 545.15 250.72 545.01 252.11 545.18C255.41 545.57 256.44 546.71 257.25 549.98C258.12 553.48 258.27 557.07 257.66 560.51C256.82 565.21 256.9 569.89 256.84 574.6C256.78 579.78 256.81 584.97 256.84 590.16C256.84 591.81 256.82 593.48 257.11 595.09C257.57 597.61 259.11 599.43 261.67 599.91C267 600.9 272.35 601.69 277.8 600.55C280.79 599.93 283.87 599.7 286.85 599.05C291.89 597.96 292.79 596.85 292.92 591.98C292.97 589.86 292.88 587.74 292.84 585.62C292.74 580.67 292.94 575.79 293.61 570.84C294.3 565.74 293.87 560.49 293.91 555.31C293.92 553.66 293.75 552.01 293.86 550.37C294.03 547.85 295.39 546.5 297.88 546.31C300.23 546.14 302.59 546.14 304.94 545.97C307.05 545.81 309.15 545.45 311.26 545.31C314.08 545.13 316.91 544.89 319.72 545C323.64 545.15 325.15 546.68 325.64 550.62C325.78 551.77 325.87 553.01 325.62 554.13C324.6 558.56 324.85 563.05 324.83 567.52C324.79 574.36 324.36 581.26 325.08 588.02C325.95 596.26 325.8 604.48 325.83 612.72C325.84 615.53 325.39 618.34 325.2 621.15C325.04 623.5 324.82 625.86 324.85 628.21C324.94 636.21 324.3 644.23 325.74 652.2C325.98 653.55 325.77 655.03 325.53 656.41C324.55 662.04 324.84 667.62 325.43 673.29H325.45L325.44 673.3Z" fill="black"/>
<path d="M377.88 634.9C378.26 636.94 378.42 639.25 377.86 641.21C375.88 648.23 376.79 655.25 377.41 662.27C377.57 664.15 377.55 665.94 377.45 667.83C377.1 673.94 377.13 680.08 376.98 686.2C376.94 687.84 376.98 689.52 376.63 691.1C376.46 691.83 375.47 692.82 374.78 692.88C372.45 693.08 370.04 693.24 367.76 692.82C363.05 691.96 358.42 691.87 353.74 692.89C352.38 693.19 350.92 693.13 349.52 693.12C346.69 693.09 345.15 691.79 344.97 688.85C344.76 685.32 344.83 681.78 344.82 678.25C344.8 670.7 344.82 663.16 344.82 655.62V633.7C344.94 633.7 344.99 601.65 344.63 585.63C344.49 579.29 344.49 572.98 344.89 566.66C345.15 562.44 344.81 558.18 344.77 553.94C344.76 552.76 344.77 551.58 344.87 550.41C345.1 547.71 346.41 545.93 349.08 545.47C351.38 545.08 353.85 544.77 356.1 545.18C361.23 546.1 366.36 546.61 371.56 546.58C372.25 546.58 372.97 546.74 373.63 546.96C375.32 547.51 376.51 548.61 376.7 550.46C376.87 552.1 376.9 553.75 376.94 555.4C377.15 563.13 378.06 570.83 377.1 578.6C376.56 583 377.24 587.5 377.63 591.97C378.16 598.04 378.01 604.22 377.58 610.31C377 618.54 376.34 626.71 377.88 634.92H377.89L377.88 634.9Z" fill="black"/>
<path d="M509.64 688.31C510.41 689.62 509.44 691.24 507.91 691.41C507.44 691.46 506.97 691.55 506.5 691.54C498.72 691.35 490.95 691.14 483.21 692.37C479.28 693 476.36 691.24 474.48 687.75C473.7 686.3 472.88 684.87 472.17 683.38C470.32 679.54 468.23 675.89 465.25 672.77C464.12 671.59 463.14 670.2 462.39 668.75C460.55 665.17 458.26 661.92 455.91 658.66C454.28 656.39 453.11 653.76 451.94 651.19C449.27 645.36 445.6 640.17 441.83 635.04C440.86 633.72 439.7 632.5 438.45 631.44C435 628.51 429.97 630.32 429.17 634.71C429.09 635.17 429 635.65 429.02 636.11C429.38 646.71 427.07 657.21 427.81 667.82C428.01 670.63 428.09 673.42 428.59 676.23C429.16 679.43 429.08 682.83 428.7 686.07C428.35 689.05 426.67 691.32 423.22 691.56C421.35 691.69 419.43 692.36 417.64 692.08C412.24 691.23 406.83 691.41 401.4 691.48C400.7 691.49 399.99 691.47 399.28 691.4C398.12 691.28 397.04 690.24 396.99 689.07C396.91 687.42 396.86 685.77 396.95 684.12C397.5 673.75 397.24 663.45 396.21 653.08C395.33 644.2 395.91 635.18 395.85 626.23C398.15 615.01 396.29 603.66 396.88 592.4C396.95 591 396.85 589.55 396.53 588.19C395.92 585.6 396.3 583.1 396.53 580.5C397.14 573.71 397.44 566.92 396.19 560.1C395.56 556.68 395.75 553.06 395.94 549.55C396.09 546.75 397.82 545.58 400.75 545.58H431.17C431.17 545.66 449.57 545.88 458.76 545.82C463.8 545.78 468.59 546.77 473.15 548.87C476.57 550.44 480.02 551.98 483.34 553.73C488.3 556.35 491.88 560.39 494.32 565.38C496.17 569.19 497.89 573.07 499.4 577.03C500.06 578.75 500.25 580.71 500.3 582.57C500.44 588.02 499.92 593.38 497.92 598.53C497.07 600.73 496.2 602.92 495.53 605.18C493.7 611.35 489.76 615.89 484.64 619.52C482.34 621.15 479.91 622.61 477.51 624.1C472.68 627.09 471.88 629.6 474.74 634.59C476.72 638.06 478.9 641.47 481.44 644.54C485.68 649.67 489.37 655.01 491.82 661.27C492.82 663.82 494.66 666.2 496.57 668.22C502.18 674.14 505.6 681.42 509.66 688.31H509.64ZM459.18 580.93C458.99 578.13 457.32 576.12 454.74 575.1C453.24 574.5 451.6 574.12 449.99 573.97C447.9 573.78 445.77 573.92 443.66 573.92C441.55 573.92 439.44 573.9 437.33 573.93C436.63 573.94 435.92 574.04 435.24 574.18C430.83 575.07 428.43 577.9 427.97 582.45C427.59 586.28 428.64 589.89 429.44 593.54C429.92 595.74 431.61 597.28 433.72 597.85C439.91 599.53 446.18 600.1 452.45 598.22C456.46 597.02 458.75 594.12 459.19 590.07C459.52 587.06 459.4 583.97 459.19 580.94L459.18 580.93Z" fill="black"/>
<path d="M616.15 664.2C616.9 664.62 617.53 665.34 618.08 666.04C618.34 666.37 618.36 666.94 618.36 667.4C618.34 674.01 618.37 680.62 618.22 687.22C618.14 690.66 616.48 692.3 613.07 692.83C612.37 692.94 611.66 692.97 610.95 692.97C602.46 693.02 593.96 693.07 585.46 693.1C581.92 693.1 578.38 693.02 574.84 693.02C570.13 693.02 565.41 693.4 560.75 692.24C559.63 691.96 558.4 691.98 557.22 692.03C552.28 692.26 547.31 693.03 542.41 692.69C537.46 692.35 532.54 691.8 527.6 692.37C525.65 692.6 523.84 692.41 522.03 691.81C520.06 691.15 518.99 689.68 518.43 687.77C518.36 687.54 518.36 687.3 518.35 687.07C517.94 679.33 516.14 671.66 516.94 663.84C517.27 660.57 517.9 657.31 518 654.03C518.27 645.31 518.45 636.58 518.46 627.86C518.47 618.66 518.17 609.46 518.17 600.25C518.17 591.99 518.5 583.73 518.46 575.48C518.42 567.46 518.08 559.45 517.91 551.43C517.81 546.65 519.63 544.53 524.1 545.21C533.51 546.67 542.95 545.82 552.37 546.09C555.67 546.19 558.97 546.33 562.28 546.29C567.23 546.23 572.24 546.46 577.12 545.79C585.84 544.58 594.56 545.15 603.27 545.13C606.53 545.12 609.82 545.88 613.05 546.54C615 546.93 616.37 548.28 616.84 550.32C618.29 556.57 618.71 562.89 618.29 569.28C618.24 569.98 618.12 570.71 617.85 571.35C617.29 572.7 616.42 573.84 614.84 574.04C613.21 574.24 611.55 574.3 609.91 574.43C606.86 574.67 603.81 575.04 600.75 575.14C597.7 575.24 594.62 575.31 591.59 574.98C586.16 574.4 580.8 574.38 575.37 575.09C570.71 575.7 565.96 575.63 561.25 575.85C559.13 575.95 556.99 575.89 554.9 576.2C552.28 576.59 550.66 578.34 550.48 580.98C550.16 585.69 550.11 590.4 551.57 594.99C552.27 597.21 553.64 598.68 555.91 599.17C557.75 599.57 559.61 600.1 561.46 600.11C565 600.13 568.58 600.15 572.05 599.6C578.87 598.54 585.7 598.71 592.53 598.76C596.03 598.78 599.55 599.48 603.02 600.08C605.45 600.5 606.53 601.98 606.75 604.54C606.77 604.77 606.79 605.01 606.79 605.24C606.77 611.13 606.78 617.03 606.69 622.93C606.65 625.71 605.13 627.39 602.45 627.68C600.81 627.86 599.15 627.8 597.5 627.89C594.91 628.03 592.29 628 589.73 628.4C581.03 629.75 572.37 629.65 563.66 628.51C561.12 628.18 558.46 628.3 555.91 628.63C552.74 629.05 550.63 631.15 550.52 634.29C550.26 642.28 549.59 650.31 551.41 658.25C551.95 660.59 553.07 662.16 555.45 662.55C558.7 663.08 561.96 663.76 565.23 663.83C573.02 664.02 588.61 663.63 588.61 663.51C597.09 663.64 605.57 663.77 614.05 663.91C614.75 663.92 615.56 663.86 616.13 664.17L616.15 664.2Z" fill="black"/>
<path d="M828.22 683.77C828.38 685.17 828.29 686.6 828.15 688.01C827.99 689.69 826.74 691.11 825.01 691.37C820.12 692.12 815.22 692.74 811.33 693.27C808.16 693.07 806.03 692.97 803.91 692.8C800.5 692.53 797.97 690.91 797.25 687.49C795.1 677.15 791.39 667.12 790.78 656.45C790.67 654.58 790.38 652.69 789.89 650.89C788.4 645.44 786.78 640.03 785.18 634.61C784.98 633.94 784.81 633.19 784.39 632.68C783.82 631.99 783.09 631.18 782.3 630.99C780.98 630.69 780.02 631.73 779.63 632.84C777.78 638.17 775.39 643.37 774.76 649.04C774.2 653.98 773.03 658.76 771.88 663.56C770.35 669.97 769 676.41 767.54 682.84C767.02 685.14 766.53 687.45 765.79 689.68C765.15 691.62 763.66 692.88 761.55 692.85C753.78 692.72 745.98 693.31 738.27 691.75C736 691.29 734.29 690.21 733.41 688.09C732.6 686.15 731.73 684.16 731.35 682.11C730.09 675.41 728.76 668.71 727.99 661.94C726.91 652.5 723.42 643.7 721.25 634.56C720.89 633.02 720.01 631.54 719.13 630.18C718.24 628.8 715.8 629.09 714.92 630.59C714.46 631.4 713.94 632.25 713.8 633.14C713.27 636.63 712.92 640.14 712.43 643.64C712.01 646.66 711.71 649.73 710.97 652.68C708.91 660.91 707.92 669.32 706.43 677.66C705.77 681.35 704.75 684.98 703.77 688.61C703.3 690.35 701.99 691.43 700.16 691.52C692.42 691.86 684.68 692.9 676.93 691.62C676.23 691.51 675.42 691.5 674.9 691.11C674.21 690.59 673.28 689.76 673.27 689.05C673.24 686.47 673.36 683.86 673.78 681.32C674.54 676.69 675.59 672.09 676.46 667.47C676.81 665.63 677.21 663.76 677.19 661.9C677.12 655.45 678.43 649.24 680.5 643.21C682.06 638.71 683.16 634.18 683.07 629.41C683 625.58 684.23 621.98 685.12 618.33C685.95 614.9 687.03 611.52 687.88 608.1C688.33 606.29 688.74 604.42 688.83 602.56C689.25 594.54 690.51 586.7 692.55 578.9C694.98 569.58 696.68 560.07 698.65 550.63C699.35 547.3 700.37 546.17 703.83 546.01C708.31 545.8 712.8 545.72 717.28 545.76C720.81 545.79 724.35 546.07 727.88 546.23C729.06 546.28 730.24 546.27 731.41 546.39C735.36 546.81 737.92 548.9 738.92 552.79C739.09 553.48 739.24 554.17 739.33 554.87C740.36 562.8 742.81 570.45 743.71 578.41C744.34 584.01 745.41 589.56 746.32 595.12C746.43 595.81 746.68 596.49 746.99 597.11C747.57 598.24 748.59 599 749.83 598.82C750.65 598.7 751.8 598.13 752.1 597.45C753.22 594.87 754.26 592.22 754.95 589.51C755.7 586.55 756.24 583.51 756.49 580.47C756.87 575.96 758.07 571.69 759.43 567.41C760.93 562.71 762.74 558.07 762.69 553C762.69 552.09 763.15 551.18 763.33 550.26C763.79 547.84 765.35 546.58 767.67 546.28C771.88 545.74 776.1 545.31 780.32 544.87C781.25 544.77 782.21 544.77 783.15 544.85C787.85 545.2 792.55 545.56 797.25 545.97C800.05 546.21 800.98 547.12 801.51 549.79C803.59 560.17 805.64 570.55 807.79 580.91C808.74 585.51 809.96 590.06 810.91 594.66C811.29 596.49 811.47 598.4 811.46 600.27C811.42 605.79 812.72 611.01 814.7 616.09C816.08 619.63 816.85 623.27 817.14 627.07C817.37 630.11 817.71 633.18 818.42 636.13C820.45 644.59 821.58 653.24 824.16 661.58C825.76 666.75 826.62 672.11 827.17 677.51C827.38 679.61 827.97 681.67 828.2 683.76L828.22 683.77Z" fill="black"/>
<path d="M951.62 620.01C951.95 623.77 951.7 627.48 950.76 631.22C949.85 634.85 949.76 638.68 949.13 642.39C948.86 643.99 948.25 645.55 947.62 647.05C945.89 651.18 943.91 655.2 942.32 659.39C940.28 664.77 937.28 669.57 933.55 673.83C931.41 676.27 928.7 678.32 925.94 680.09C920.58 683.52 915.12 686.82 909.49 689.78C906.61 691.29 903.36 692.43 900.16 692.89C892.39 693.98 884.81 693.36 877.19 690.72C867.33 687.3 859.4 681.33 851.65 674.67C845.55 669.43 841.23 663.23 838.79 655.61C837.14 650.46 835.28 645.36 833.48 640.25C831.58 634.86 831.12 629.21 830.66 623.58C830.49 621.47 830.63 619.34 830.63 617.22C830.17 611.77 830.58 606.4 832.05 601.11C833.12 597.26 834.05 593.36 835.09 589.5C836.08 585.83 837.58 582.41 839.84 579.31C844.02 573.6 848.12 567.84 852.27 562.11C854.08 559.6 856.36 557.65 858.97 555.93C866.13 551.24 873.61 547.43 882.06 545.6C885.8 544.79 889.46 544.4 893.27 544.96C901.97 546.24 910.27 548.88 918.34 552.19C922.97 554.09 926.93 557.01 929.85 561.26C932.78 565.53 936.03 569.59 938.98 573.86C940.45 575.98 941.59 578.32 942.77 580.62C944.38 583.76 945.82 586.98 947.45 590.12C948.33 591.82 949.02 593.51 949.2 595.44C949.97 603.64 950.88 611.83 951.61 620.03L951.62 620.01ZM918.44 610.71C919.26 605.62 916.73 598.92 912.57 592.66C911.27 590.7 910.05 588.69 908.82 586.68C905.98 582.03 901.67 579.28 896.72 577.42C889.98 574.89 883.66 575.96 878.05 580.31C871.09 585.71 866.6 592.64 865.5 601.6C864.85 606.95 863.72 612.25 863.08 617.6C862.72 620.6 862.51 623.76 863.03 626.7C863.82 631.07 865.2 635.35 866.56 639.59C867.2 641.57 868.25 643.47 869.37 645.24C871 647.82 872.86 650.26 874.64 652.75C879.66 659.77 887.55 662.46 895.79 659.94C901.13 658.31 905.65 655.54 908.76 650.76C909.92 648.99 911.18 647.28 912.33 645.5C913.99 642.91 915.21 640.19 915.74 637.08C917.11 629.2 917.93 621.28 918.42 610.71H918.44Z" fill="black"/>
<path d="M1077.64 688.31C1078.41 689.62 1077.44 691.24 1075.91 691.41C1075.44 691.46 1074.97 691.55 1074.5 691.54C1066.72 691.35 1058.95 691.14 1051.21 692.37C1047.28 693 1044.36 691.24 1042.48 687.75C1041.7 686.3 1040.88 684.87 1040.17 683.38C1038.32 679.54 1036.23 675.89 1033.25 672.77C1032.12 671.59 1031.14 670.2 1030.39 668.75C1028.55 665.17 1026.26 661.92 1023.91 658.66C1022.28 656.39 1021.11 653.76 1019.94 651.19C1017.27 645.36 1013.6 640.17 1009.83 635.04C1008.86 633.72 1007.7 632.5 1006.45 631.44C1003 628.51 997.97 630.32 997.17 634.71C997.09 635.17 997 635.65 997.02 636.11C997.38 646.71 995.07 657.21 995.81 667.82C996.01 670.63 996.09 673.42 996.59 676.23C997.16 679.43 997.08 682.83 996.7 686.07C996.35 689.05 994.67 691.32 991.22 691.56C989.35 691.69 987.43 692.36 985.64 692.08C980.24 691.23 974.83 691.41 969.4 691.48C968.7 691.49 967.99 691.47 967.28 691.4C966.12 691.28 965.04 690.24 964.99 689.07C964.91 687.42 964.86 685.77 964.95 684.12C965.5 673.75 965.24 663.45 964.21 653.08C963.33 644.2 963.91 635.18 963.85 626.23C966.15 615.01 964.29 603.66 964.88 592.4C964.95 591 964.85 589.55 964.53 588.19C963.92 585.6 964.3 583.1 964.53 580.5C965.14 573.71 965.44 566.92 964.19 560.1C963.56 556.68 963.75 553.06 963.94 549.55C964.09 546.75 965.82 545.58 968.75 545.58H999.17C999.17 545.66 1017.57 545.88 1026.76 545.82C1031.8 545.78 1036.59 546.77 1041.15 548.87C1044.57 550.44 1048.02 551.98 1051.34 553.73C1056.3 556.35 1059.88 560.39 1062.32 565.38C1064.17 569.19 1065.89 573.07 1067.4 577.03C1068.06 578.75 1068.25 580.71 1068.3 582.57C1068.44 588.02 1067.92 593.38 1065.92 598.53C1065.07 600.73 1064.2 602.92 1063.53 605.18C1061.7 611.35 1057.76 615.89 1052.64 619.52C1050.34 621.15 1047.91 622.61 1045.51 624.1C1040.68 627.09 1039.88 629.6 1042.74 634.59C1044.72 638.06 1046.9 641.47 1049.44 644.54C1053.68 649.67 1057.37 655.01 1059.82 661.27C1060.82 663.82 1062.66 666.2 1064.57 668.22C1070.18 674.14 1073.6 681.42 1077.66 688.31H1077.64ZM1027.17 580.93C1026.98 578.13 1025.31 576.12 1022.73 575.1C1021.23 574.5 1019.59 574.12 1017.98 573.97C1015.89 573.78 1013.76 573.92 1011.65 573.92C1009.54 573.92 1007.43 573.9 1005.32 573.93C1004.62 573.94 1003.91 574.04 1003.23 574.18C998.82 575.07 996.42 577.9 995.96 582.45C995.58 586.28 996.63 589.89 997.43 593.54C997.91 595.74 999.6 597.28 1001.71 597.85C1007.9 599.53 1014.17 600.1 1020.44 598.22C1024.45 597.02 1026.74 594.12 1027.18 590.07C1027.51 587.06 1027.39 583.97 1027.18 580.94L1027.17 580.93Z" fill="black"/>
<path d="M1184.14 664.2C1184.89 664.62 1185.52 665.34 1186.07 666.04C1186.33 666.37 1186.35 666.94 1186.35 667.4C1186.33 674.01 1186.36 680.62 1186.21 687.22C1186.13 690.66 1184.47 692.3 1181.06 692.83C1180.36 692.94 1179.65 692.97 1178.94 692.97C1170.45 693.02 1161.95 693.07 1153.45 693.1C1149.91 693.1 1146.37 693.02 1142.83 693.02C1138.12 693.02 1133.4 693.4 1128.74 692.24C1127.62 691.96 1126.39 691.98 1125.21 692.03C1120.27 692.26 1115.3 693.03 1110.4 692.69C1105.45 692.35 1100.53 691.8 1095.59 692.37C1093.64 692.6 1091.83 692.41 1090.02 691.81C1088.05 691.15 1086.98 689.68 1086.42 687.77C1086.35 687.54 1086.35 687.3 1086.34 687.07C1085.93 679.33 1084.13 671.66 1084.93 663.84C1085.26 660.57 1085.89 657.31 1085.99 654.03C1086.26 645.31 1086.44 636.58 1086.45 627.86C1086.46 618.66 1086.16 609.46 1086.16 600.25C1086.16 591.99 1086.49 583.73 1086.45 575.48C1086.41 567.46 1086.07 559.45 1085.9 551.43C1085.8 546.65 1087.62 544.53 1092.09 545.21C1101.5 546.67 1110.94 545.82 1120.36 546.09C1123.66 546.19 1126.96 546.33 1130.27 546.29C1135.22 546.23 1140.23 546.46 1145.11 545.79C1153.83 544.58 1162.55 545.15 1171.26 545.13C1174.52 545.12 1177.81 545.88 1181.04 546.54C1182.99 546.93 1184.36 548.28 1184.83 550.32C1186.28 556.57 1186.7 562.89 1186.28 569.28C1186.23 569.98 1186.11 570.71 1185.84 571.35C1185.28 572.7 1184.41 573.84 1182.83 574.04C1181.2 574.24 1179.54 574.3 1177.9 574.43C1174.85 574.67 1171.8 575.04 1168.74 575.14C1165.69 575.24 1162.61 575.31 1159.58 574.98C1154.15 574.4 1148.79 574.38 1143.36 575.09C1138.7 575.7 1133.95 575.63 1129.24 575.85C1127.12 575.95 1124.98 575.89 1122.89 576.2C1120.27 576.59 1118.65 578.34 1118.47 580.98C1118.15 585.69 1118.1 590.4 1119.56 594.99C1120.26 597.21 1121.63 598.68 1123.9 599.17C1125.74 599.57 1127.6 600.1 1129.45 600.11C1132.99 600.13 1136.57 600.15 1140.04 599.6C1146.86 598.54 1153.69 598.71 1160.52 598.76C1164.02 598.78 1167.54 599.48 1171.01 600.08C1173.44 600.5 1174.52 601.98 1174.74 604.54C1174.76 604.77 1174.78 605.01 1174.78 605.24C1174.76 611.13 1174.77 617.03 1174.68 622.93C1174.64 625.71 1173.12 627.39 1170.44 627.68C1168.8 627.86 1167.14 627.8 1165.49 627.89C1162.9 628.03 1160.28 628 1157.72 628.4C1149.02 629.75 1140.36 629.65 1131.65 628.51C1129.11 628.18 1126.45 628.3 1123.9 628.63C1120.73 629.05 1118.62 631.15 1118.51 634.29C1118.25 642.28 1117.58 650.31 1119.4 658.25C1119.94 660.59 1121.06 662.16 1123.44 662.55C1126.69 663.08 1129.95 663.76 1133.22 663.83C1141.01 664.02 1156.6 663.63 1156.6 663.51C1165.08 663.64 1173.56 663.77 1182.04 663.91C1182.74 663.92 1183.55 663.86 1184.12 664.17L1184.14 664.2Z" fill="black"/>
<path d="M441.49 872.29C441.62 873.47 441.55 874.69 441.43 875.88C441.29 877.31 440.23 878.51 438.76 878.73C434.61 879.36 430.45 879.89 427.15 880.34C424.46 880.17 422.65 880.09 420.86 879.95C417.97 879.72 415.82 878.35 415.21 875.44C413.39 866.66 410.24 858.15 409.72 849.1C409.63 847.52 409.38 845.91 408.96 844.38C407.69 839.76 406.32 835.17 404.97 830.57C404.8 830 404.66 829.37 404.3 828.93C403.82 828.34 403.2 827.65 402.52 827.5C401.4 827.24 400.59 828.13 400.26 829.07C398.69 833.59 396.67 838.01 396.13 842.81C395.66 847 394.66 851.06 393.69 855.14C392.39 860.58 391.25 866.05 390.01 871.5C389.57 873.45 389.15 875.41 388.53 877.3C387.99 878.95 386.72 880.02 384.93 879.99C378.34 879.88 371.72 880.38 365.17 879.05C363.25 878.66 361.79 877.74 361.05 875.95C360.37 874.3 359.63 872.62 359.3 870.88C358.23 865.2 357.1 859.51 356.44 853.77C355.52 845.76 352.56 838.3 350.72 830.54C350.41 829.23 349.67 827.97 348.92 826.82C348.16 825.65 346.09 825.9 345.35 827.17C344.96 827.85 344.52 828.58 344.4 829.34C343.95 832.3 343.66 835.28 343.24 838.25C342.88 840.82 342.63 843.42 342 845.92C340.25 852.91 339.41 860.04 338.14 867.11C337.58 870.24 336.71 873.32 335.88 876.4C335.48 877.88 334.37 878.79 332.81 878.87C326.24 879.16 319.67 880.04 313.1 878.95C312.51 878.85 311.81 878.85 311.37 878.52C310.78 878.08 309.99 877.37 309.99 876.77C309.96 874.58 310.07 872.37 310.42 870.21C311.07 866.28 311.96 862.38 312.69 858.46C312.98 856.9 313.33 855.31 313.31 853.74C313.25 848.26 314.36 842.99 316.12 837.88C317.44 834.06 318.38 830.22 318.3 826.17C318.24 822.92 319.28 819.87 320.04 816.77C320.75 813.86 321.66 810.99 322.38 808.09C322.76 806.55 323.11 804.97 323.19 803.39C323.54 796.58 324.62 789.94 326.34 783.31C328.41 775.4 329.84 767.33 331.51 759.32C332.1 756.49 332.97 755.54 335.91 755.4C339.71 755.22 343.52 755.16 347.33 755.19C350.33 755.22 353.33 755.45 356.33 755.59C357.33 755.64 358.33 755.62 359.33 755.73C362.68 756.08 364.85 757.86 365.7 761.16C365.85 761.74 365.97 762.33 366.05 762.93C366.92 769.66 369.01 776.15 369.77 782.91C370.31 787.66 371.21 792.37 371.98 797.09C372.07 797.67 372.28 798.25 372.55 798.78C373.05 799.74 373.91 800.38 374.96 800.23C375.66 800.13 376.63 799.64 376.88 799.07C377.83 796.88 378.71 794.64 379.3 792.33C379.94 789.82 380.4 787.24 380.61 784.66C380.93 780.83 381.95 777.21 383.11 773.58C384.38 769.59 385.92 765.65 385.88 761.35C385.88 760.58 386.27 759.81 386.43 759.02C386.82 756.96 388.15 755.9 390.12 755.64C393.69 755.18 397.27 754.81 400.85 754.44C401.64 754.35 402.45 754.36 403.25 754.42C407.24 754.71 411.23 755.02 415.21 755.37C417.58 755.57 418.37 756.34 418.83 758.61C420.6 767.42 422.34 776.23 424.16 785.02C424.97 788.93 426 792.78 426.81 796.69C427.13 798.24 427.29 799.86 427.28 801.45C427.25 806.13 428.35 810.56 430.03 814.87C431.2 817.88 431.85 820.96 432.1 824.18C432.3 826.76 432.58 829.36 433.18 831.87C434.91 839.05 435.86 846.39 438.06 853.47C439.42 857.86 440.15 862.4 440.61 866.99C440.79 868.77 441.29 870.52 441.49 872.29Z" fill="black"/>
<path d="M532.16 804.57C532.46 805.7 532.3 806.96 532.3 808.16C532.3 816.77 532.3 825.37 532.3 833.97C532.3 836.34 530.65 852.43 530.22 854.16C528.61 860.58 525.42 866.02 519.95 869.87C515.87 872.74 511.66 875.46 507.37 878.01C505.7 879 503.67 879.73 501.74 879.9C491.72 880.79 481.78 880.18 471.95 877.83C469.13 877.16 466.71 875.98 464.67 873.93C462.13 871.39 459.54 868.89 456.95 866.4C452.44 862.06 450.15 856.56 449.02 850.58C448.22 846.29 447.81 841.94 447.58 837.53C447.07 827.72 447.99 817.93 447.39 808.14C447.25 805.95 447.37 803.75 447.37 801.55C447.44 801.55 447.57 781.14 447.57 770.94C447.57 767.14 447.45 763.34 447.61 759.54C447.73 756.67 448.87 755.64 451.73 755.42C456.71 755.05 461.7 754.67 466.68 754.45C468.66 754.36 470.69 754.51 472.63 754.9C474.67 755.31 476.08 757.44 475.58 759.47C474.5 763.82 474.89 768.22 474.87 772.61C474.85 777.01 474.49 781.45 474.89 785.81C475.49 792.2 475.17 798.53 474.86 804.9C474.62 809.9 474.67 814.91 474.86 819.91C475.1 826.69 475.69 833.46 475.92 840.25C476.08 845.18 478.74 848.84 483.45 850.89C489.91 853.7 495.52 852.58 500.32 847.43C505.26 842.12 506.58 835.7 504.92 829C503.08 821.58 504.02 814.27 504.6 806.94C504.96 802.34 505.54 797.82 504.42 793.26C504.19 792.3 504.2 791.28 504.19 790.28C504.16 785.88 504.15 781.48 504.19 777.07C504.2 775.88 504.22 774.65 504.52 773.51C505.26 770.74 505.34 768.01 504.57 765.23C504.31 764.28 504.21 763.26 504.22 762.27C504.26 758.5 506.15 756.26 509.85 755.7C513.21 755.2 516.59 754.57 519.96 754.55C523.12 754.53 526.31 755.17 529.46 755.66C530.92 755.89 532.18 757.53 532.19 759.2C532.22 761.59 532.22 764.01 531.88 766.38C531.05 772.17 531.21 777.95 531.6 783.74C531.69 785.13 531.75 786.47 531.66 787.88C531.31 793.45 530.69 799.04 532.17 804.58L532.16 804.57Z" fill="black"/>
<path d="M622.47 845.01C622.96 847.81 622.43 850.54 621.18 853.17C618.35 859.16 614.97 864.82 611.1 870.18C608.82 873.33 605.88 875.64 602.11 876.87C599.46 877.74 596.91 878.93 594.24 879.77C592.54 880.3 590.69 880.86 588.97 880.72C581 880.04 573.06 879 565.53 876.06C561.59 874.52 558.09 872.34 555.39 868.88C553.56 866.54 551.07 864.72 549.06 862.51C547.6 860.91 546.29 859.12 545.17 857.26C544.3 855.81 545 853.96 546.46 853.11C552.32 849.67 558.22 846.3 564.04 842.8C566.07 841.59 567.83 841.76 569.49 843.28C571.26 844.9 573.05 846.52 574.64 848.32C578.03 852.15 582.3 853.13 587.15 852.55C587.35 852.52 587.55 852.51 587.75 852.47C592.73 851.58 594.99 846.5 591.89 842.47C589.97 839.97 587.46 837.87 584.98 835.88C583.28 834.53 581.19 833.67 579.27 832.61C568.68 826.83 558.94 819.92 550.36 811.39C543.84 804.91 541.31 796.94 541.6 787.99C541.76 783.16 542.91 778.51 545.63 774.36C547.93 770.85 550.04 767.21 552.42 763.76C554.51 760.74 557.38 758.5 560.84 757.24C562.88 756.5 565.08 756.12 567.23 755.76C571.56 755.04 575.91 754.44 579.17 753.95C584.54 754.04 588.65 754.95 592.5 756.64C597.25 758.74 601.85 761.17 606.52 763.44C609.29 764.79 611.48 766.91 613.3 769.26C615.62 772.25 617.63 775.49 619.64 778.7C620.5 780.07 620.11 781.49 618.75 782.38C617.08 783.47 615.38 784.64 613.53 785.28C609.51 786.66 605.83 788.58 602.37 791.02C601.55 791.59 600.67 792.08 599.79 792.55C597.98 793.5 596.89 793.26 595.64 791.62C594.67 790.35 593.83 788.97 592.78 787.76C589.63 784.13 585.66 782.02 580.84 781.54C578.8 781.34 576.84 781.61 574.95 782.35C572.95 783.14 571.63 784.67 571.13 786.69C570.39 789.72 570.68 792.66 572.74 795.21C574.77 797.74 577.19 799.79 580.12 801.22C583.17 802.72 586.22 804.22 589.23 805.8C592.06 807.28 594.87 808.81 597.66 810.39C601.16 812.37 604.32 814.76 607.13 817.69C609.62 820.28 612.42 822.56 614.97 825.1C616.08 826.21 617.08 827.53 617.76 828.93C620.24 833.99 621.49 839.46 622.46 844.97L622.47 845.01Z" fill="black"/>
<path d="M661.419 830.82C661.739 832.55 661.879 834.51 661.409 836.17C659.729 842.13 660.5 848.09 661.03 854.04C661.17 855.64 661.15 857.16 661.06 858.76C660.76 863.95 660.789 869.15 660.659 874.35C660.619 875.74 660.659 877.16 660.359 878.51C660.219 879.13 659.369 879.97 658.789 880.02C656.819 880.19 654.77 880.32 652.84 879.97C648.84 879.24 644.91 879.16 640.94 880.03C639.79 880.28 638.549 880.23 637.359 880.22C634.959 880.19 633.65 879.09 633.5 876.6C633.32 873.61 633.379 870.6 633.369 867.6C633.359 861.2 633.369 854.8 633.369 848.4V829.8C633.469 829.8 633.509 802.6 633.209 789.01C633.089 783.63 633.089 778.28 633.429 772.91C633.649 769.33 633.359 765.71 633.329 762.11C633.329 761.11 633.33 760.11 633.42 759.11C633.61 756.82 634.729 755.31 636.989 754.92C638.939 754.59 641.03 754.33 642.95 754.67C647.3 755.45 651.66 755.88 656.07 755.86C656.66 755.86 657.26 755.99 657.83 756.18C659.26 756.65 660.279 757.58 660.429 759.15C660.569 760.54 660.6 761.94 660.63 763.34C660.81 769.9 661.58 776.43 660.77 783.03C660.31 786.76 660.889 790.58 661.219 794.37C661.669 799.52 661.539 804.76 661.179 809.93C660.689 816.92 660.129 823.85 661.429 830.82H661.419Z" fill="black"/>
<path d="M765.36 780.08C765.85 781.15 765.33 782.07 764.53 782.72C763.76 783.34 762.86 783.82 761.97 784.26C756.96 786.77 751.94 789.25 746.92 791.73C746.21 792.08 745.49 792.49 744.73 792.68C743.11 793.08 741.55 792.95 740.27 791.68C738.42 789.85 736.51 788.07 734.73 786.17C729.93 781.05 724.18 781.1 718.14 783.15C714.49 784.39 711.48 786.77 708.56 789.22C706.98 790.55 706.02 792.29 705.27 794.17C704.23 796.77 703.25 799.38 702.2 801.98C700.16 807.06 699.04 812.29 699.47 817.7C698.99 825.6 701.16 832.81 704.39 839.8C706.03 843.35 708.34 846.28 711.82 848.18C714.1 849.43 716.34 850.77 718.68 851.89C723.99 854.43 729.12 854.11 733.96 850.62C734.93 849.92 735.85 849.13 736.84 848.45C738.84 847.08 740.37 847.06 742.34 848.51C743.45 849.33 744.51 850.28 745.41 851.33C747.51 853.77 749.84 855.91 752.55 857.7C754.04 858.68 755.38 859.93 756.63 861.2C757.77 862.35 757.79 864.39 756.66 865.6C753.11 869.39 749.69 873.31 744.55 875.17C740.42 876.66 736.54 878.72 732.22 879.82C728.24 880.83 724.27 880.94 720.31 880.41C716.16 879.85 712.05 878.92 707.95 878.02C705.6 877.5 703.37 876.64 701.57 874.9C696.1 869.63 690.6 864.37 685.08 859.14C681.34 855.6 678.91 851.28 677.6 846.36C675.86 839.8 674.17 833.22 672.67 826.61C670.86 818.66 671.24 810.76 673.7 802.95C674.54 800.29 675.46 797.59 675.78 794.85C676.13 791.77 677.11 789.04 678.68 786.43C679.3 785.4 680.01 784.37 680.36 783.25C682.11 777.62 686.16 773.74 690.38 770.03C695.34 765.67 700.67 761.78 706.15 758.08C709.09 756.11 712.17 755.08 715.68 754.94C719.67 754.77 723.67 754.5 727.64 754.05C729.95 753.79 732.02 754.49 734.09 755.13C737.52 756.19 740.88 757.49 744.22 758.84C745.69 759.43 747.11 760.26 748.38 761.2C751.28 763.34 754.18 765.49 756.88 767.86C760.71 771.2 763.31 775.47 765.38 780.07V780.09L765.36 780.08Z" fill="black"/>
<path d="M801.08 830.82C801.4 832.55 801.54 834.51 801.07 836.17C799.39 842.13 800.16 848.09 800.69 854.04C800.83 855.64 800.81 857.16 800.72 858.76C800.42 863.95 800.45 869.15 800.32 874.35C800.28 875.74 800.32 877.16 800.02 878.51C799.88 879.13 799.03 879.97 798.45 880.02C796.48 880.19 794.43 880.32 792.5 879.97C788.5 879.24 784.57 879.16 780.6 880.03C779.45 880.28 778.21 880.23 777.02 880.22C774.62 880.19 773.31 879.09 773.16 876.6C772.98 873.61 773.04 870.6 773.03 867.6C773.02 861.2 773.03 854.8 773.03 848.4V829.8C773.13 829.8 773.17 802.6 772.87 789.01C772.75 783.63 772.75 778.28 773.09 772.91C773.31 769.33 773.02 765.71 772.99 762.11C772.99 761.11 772.99 760.11 773.08 759.11C773.27 756.82 774.39 755.31 776.65 754.92C778.6 754.59 780.69 754.33 782.61 754.67C786.96 755.45 791.32 755.88 795.73 755.86C796.32 755.86 796.92 755.99 797.49 756.18C798.92 756.65 799.94 757.58 800.09 759.15C800.23 760.54 800.26 761.94 800.29 763.34C800.47 769.9 801.24 776.43 800.43 783.03C799.97 786.76 800.55 790.58 800.88 794.37C801.33 799.52 801.2 804.76 800.84 809.93C800.35 816.92 799.79 823.85 801.09 830.82H801.08Z" fill="black"/>
<path d="M909.99 875.24C910.13 875.82 910.16 876.42 910.21 877.02C910.29 878.02 909.52 879.19 908.59 879.19C902 879.24 895.4 879.24 888.81 879.22C886.44 879.22 885.2 877.67 884.55 875.64C883.58 872.6 882.81 869.49 881.83 866.45C881.04 863.98 880.16 861.52 879.13 859.15C877.64 855.74 875.01 853.77 871.18 853.83C866.58 853.91 861.98 854.09 857.38 854.31C853.59 854.49 849.81 854.97 846.02 854.99C842.57 855.01 840.22 856.41 839 859.54C837.41 863.63 835.96 867.78 834.5 871.91C833.97 873.41 833.64 874.99 833.03 876.46C832.37 878.04 831.08 878.99 829.3 879.02C823.3 879.13 817.3 879.23 811.29 879.28C810.51 879.28 809.72 879.04 808.95 878.84C808.1 878.62 807.32 877.44 807.43 876.5C807.53 875.72 807.71 874.95 807.92 874.18C810.59 864.15 813.18 854.1 815.98 844.11C816.95 840.66 818.3 837.3 819.71 834C821.29 830.31 822.64 826.56 823.39 822.62C824.14 818.69 825.33 814.89 826.42 811.05C828.11 805.1 829.47 799.06 831.19 793.12C834.24 782.58 837.26 772.02 841.2 761.77C841.49 761.02 841.81 760.29 842.1 759.54C842.98 757.23 844.77 755.97 847.12 755.88C851.11 755.73 855.12 755.84 860.29 755.84C861.72 755.76 864.31 755.61 866.91 755.51C868.31 755.45 869.71 755.43 871.11 755.51C873.58 755.65 875.29 756.94 875.94 759.31C877.53 765.08 880.09 770.55 881.2 776.46C881.64 778.81 882.19 781.17 883.03 783.4C885.3 789.39 886.97 795.56 888.66 801.72C888.87 802.49 889.1 803.27 889.42 803.99C892.39 810.59 893.95 817.62 895.77 824.57C896.37 826.88 897.11 829.18 898.03 831.38C900.06 836.19 901.35 841.2 902.6 846.24C904 851.85 905.51 857.44 906.94 863.05C907.98 867.1 908.98 871.17 909.99 875.23V875.24ZM866.2 836.27C869.08 835.98 870.95 833.88 870.69 831.02C870.58 829.85 870.16 828.71 869.85 827.56C869.15 825.07 868.17 822.63 867.77 820.09C866.91 814.69 864.3 809.93 862.52 804.87C862.26 804.14 861.8 803.44 861.33 802.81C860.02 801.09 857.39 801.29 856.28 803.17C855.77 804.03 855.37 804.95 854.97 805.86C851.76 813.2 850.63 821.18 847.98 828.7C847.85 829.06 847.88 829.49 847.84 829.88C847.58 832.95 848.88 834.96 851.89 835.52C854.62 836.03 857.43 836.16 858.91 836.32C861.82 836.32 863.42 836.32 865.02 836.32C865.42 836.32 865.82 836.29 866.21 836.25L866.2 836.27Z" fill="black"/>
<path d="M1002.46 842.29C1002.19 851.51 1002.62 860.7 1002.62 869.91C1002.62 871.5 1002.53 873.12 1002.28 874.69C1001.8 877.64 1000.39 878.81 997.4 878.89C996.2 878.93 995 878.85 993.8 878.85C990.61 878.85 987.41 878.71 984.27 879.7C982.98 880.11 981.5 880 980.1 880.01C977.27 880.03 975.12 878.71 973.51 876.45C973.05 875.8 972.6 875.11 972.29 874.38C969.83 868.7 966.72 863.29 964.94 857.33C963.79 853.47 962.25 849.83 960.23 846.34C958.94 844.11 958.14 841.6 957.13 839.21C955.41 835.16 953.71 831.11 951.99 827.07C951.68 826.34 951.3 825.62 950.88 824.94C950.13 823.74 949.26 822.62 947.66 822.56C946.4 822.5 945.34 823.74 944.75 825.94C943.45 830.84 943.23 835.75 944.15 840.77C944.62 843.31 944.66 845.93 944.75 848.52C944.9 852.51 944.79 856.49 945.48 860.48C946.27 865.08 945.3 869.66 944.52 874.19C944.07 876.79 942.31 878.39 939.59 878.72C936.61 879.08 933.63 879.77 930.66 879.72C926.89 879.66 923.11 879.1 919.37 878.51C918.65 878.39 917.9 877.23 917.54 876.39C917.17 875.5 917.16 874.43 917.17 873.43C917.25 868.25 917.99 863.04 916.57 857.91C916.42 857.37 916.64 856.73 916.73 856.14C918.18 847.19 918.2 838.25 916.68 829.3C916.38 827.56 916.41 825.69 916.68 823.94C917.93 815.97 917.5 808.02 916.9 800.04C916.43 793.88 915.88 787.7 917.07 781.52C917.52 779.19 917.39 776.74 917.41 774.34C917.44 770.94 917.34 767.53 917.32 764.13C917.32 763.13 917.32 762.12 917.41 761.13C917.74 757.9 918.99 756.29 922.19 755.92C927.76 755.29 933.37 755.13 938.95 755.94C941.94 756.37 944.04 757.98 945.55 760.59C947.95 764.75 950.61 768.75 952.92 772.96C954.36 775.58 955.54 778.37 956.5 781.2C957.8 785.01 959.31 788.71 961.62 792.01C963.84 795.19 964.79 798.9 966.2 802.42C967.02 804.47 967.7 806.55 969.26 808.21C970.25 809.27 971.46 809.71 972.44 809.28C973.45 808.83 973.97 807.99 974.05 806.95C974.17 805.35 974.25 803.75 974.25 802.15C974.27 795.14 974.23 788.13 974.27 781.12C974.3 776.93 974.16 772.75 974.9 768.56C975.38 765.84 974.97 762.97 974.99 760.17C974.99 759.18 974.99 758.17 975.13 757.19C975.3 756.09 976.09 755.38 977.15 755.29C978.74 755.15 980.35 755.17 981.95 755.2C986.95 755.32 991.95 755.54 996.94 754.79C998.03 754.62 999.34 754.97 1000.35 755.49C1001.14 755.9 1001.77 756.85 1002.18 757.7C1002.51 758.38 1002.45 759.27 1002.45 760.06C1002.45 766.86 1002.41 773.67 1002.36 780.47C1002.34 783.47 1002.18 786.47 1002.19 789.48C1002.22 798.28 1002.3 807.08 1002.36 815.88C1002.29 815.88 1002.7 833.5 1002.45 842.29V842.31L1002.46 842.29Z" fill="black"/>
<path d="M1094.04 845.01C1094.53 847.81 1094 850.54 1092.75 853.17C1089.92 859.16 1086.54 864.82 1082.67 870.18C1080.39 873.33 1077.45 875.64 1073.68 876.87C1071.03 877.74 1068.48 878.93 1065.81 879.77C1064.11 880.3 1062.26 880.86 1060.54 880.72C1052.57 880.04 1044.63 879 1037.1 876.06C1033.16 874.52 1029.66 872.34 1026.96 868.88C1025.13 866.54 1022.64 864.72 1020.63 862.51C1019.17 860.91 1017.86 859.12 1016.74 857.26C1015.87 855.81 1016.57 853.96 1018.03 853.11C1023.89 849.67 1029.79 846.3 1035.61 842.8C1037.64 841.59 1039.4 841.76 1041.06 843.28C1042.83 844.9 1044.62 846.52 1046.21 848.32C1049.6 852.15 1053.87 853.13 1058.72 852.55C1058.92 852.52 1059.12 852.51 1059.32 852.47C1064.3 851.58 1066.56 846.5 1063.46 842.47C1061.54 839.97 1059.03 837.87 1056.55 835.88C1054.85 834.53 1052.76 833.67 1050.84 832.61C1040.25 826.83 1030.51 819.92 1021.93 811.39C1015.41 804.91 1012.88 796.94 1013.17 787.99C1013.33 783.16 1014.48 778.51 1017.2 774.36C1019.5 770.85 1021.61 767.21 1023.99 763.76C1026.08 760.74 1028.95 758.5 1032.41 757.24C1034.45 756.5 1036.65 756.12 1038.8 755.76C1043.13 755.04 1047.48 754.44 1050.74 753.95C1056.11 754.04 1060.22 754.95 1064.07 756.64C1068.82 758.74 1073.42 761.17 1078.09 763.44C1080.86 764.79 1083.05 766.91 1084.87 769.26C1087.19 772.25 1089.2 775.49 1091.21 778.7C1092.07 780.07 1091.68 781.49 1090.32 782.38C1088.65 783.47 1086.95 784.64 1085.1 785.28C1081.08 786.66 1077.4 788.58 1073.94 791.02C1073.12 791.59 1072.24 792.08 1071.36 792.55C1069.55 793.5 1068.46 793.26 1067.21 791.62C1066.24 790.35 1065.4 788.97 1064.35 787.76C1061.2 784.13 1057.23 782.02 1052.41 781.54C1050.37 781.34 1048.41 781.61 1046.52 782.35C1044.52 783.14 1043.2 784.67 1042.7 786.69C1041.96 789.72 1042.25 792.66 1044.31 795.21C1046.34 797.74 1048.76 799.79 1051.69 801.22C1054.74 802.72 1057.79 804.22 1060.8 805.8C1063.63 807.28 1066.44 808.81 1069.23 810.39C1072.73 812.37 1075.89 814.76 1078.7 817.69C1081.19 820.28 1083.99 822.56 1086.54 825.1C1087.65 826.21 1088.65 827.53 1089.33 828.93C1091.81 833.99 1093.06 839.46 1094.03 844.97L1094.04 845.01Z" fill="black"/>
</svg>
