<svg width="962.89" height="638.76" viewBox="219 381 962.89 638.76" fill="none" xmlns="http://www.w3.org/2000/svg">
<path d="M291.88 404.56C294.27 404.53 294.39 404.63 294.68 407.09C294.89 408.86 295.09 410.63 295.29 412.4C295.34 412.84 295.41 413.29 295.44 413.73C295.51 414.71 295.12 415.33 294.19 415.49C292.67 415.75 291.15 415.93 289.62 416.11C288.18 416.28 286.73 416.37 285.3 416.59C284.18 416.76 283.49 417.5 283.47 418.59C283.45 419.74 283.51 420.91 283.68 422.05C284.53 427.69 284.83 433.39 285.8 439.01C286.25 442.81 286.72 446.61 287.15 450.42C287.42 452.81 287.63 455.2 287.87 457.6C287.91 457.95 287.96 458.32 287.93 458.67C287.75 460.89 287.53 461.07 285.38 461.25C285.03 461.28 284.66 461.3 284.31 461.25C282.86 461.07 281.47 461.34 280.09 461.76C279.25 462.02 278.34 462.12 277.45 462.2C276.56 462.28 275.89 461.77 275.67 460.91C275.5 460.22 275.4 459.51 275.31 458.81C275.02 456.24 274.77 453.67 274.45 451.11C273.83 446.16 273.17 441.22 272.54 436.27C272.39 435.04 272.38 433.8 272.41 432.55C272.44 430.87 272.29 429.15 271.88 427.53C271.46 425.88 271.24 424.22 270.97 422.55C270.92 422.2 270.84 421.85 270.81 421.5C270.59 419.35 269.36 418.44 267.12 418.48C265.86 418.5 264.6 418.71 263.33 418.84C262.16 418.96 260.99 419.14 259.82 419.21C258.23 419.31 257.74 418.9 257.52 417.27C257.23 415.06 256.99 412.85 256.77 410.63C256.66 409.49 257.07 408.96 258.25 408.82C260.68 408.55 263.06 407.92 265.53 407.83C266.96 407.78 268.39 407.36 269.79 407.01C270.77 406.76 271.73 406.6 272.74 406.64C274.93 406.71 277.1 406.47 279.21 405.86C280.1 405.61 280.98 405.5 281.9 405.55C283.64 405.65 285.36 405.49 287.02 404.96C288.08 404.62 289.13 404.47 290.23 404.58C290.77 404.63 291.32 404.57 291.86 404.56H291.88Z" fill="white"/>
<path d="M342.52 447.39C342.92 449.3 343.07 451.26 343.29 453.2C343.36 453.85 342.87 454.38 342.19 454.5C341.67 454.6 341.13 454.65 340.6 454.69C338.1 454.89 335.61 455.02 333.19 455.78C332.86 455.88 332.48 455.89 332.13 455.89C331.54 455.9 331.11 455.61 330.85 455.1C330.23 453.88 329.99 452.54 330.09 451.21C330.31 448.35 330.01 445.52 329.59 442.7C329.18 439.98 328.65 437.28 328.18 434.56C328.01 433.56 327.44 433 326.45 432.77C323.6 432.12 320.73 432.22 317.89 432.78C316.51 433.05 315.77 434.04 315.57 435.41C315.13 438.45 315.32 441.43 316.22 444.38C316.48 445.22 316.66 446.1 316.76 446.98C317.02 449.28 317.23 451.59 317.43 453.89C317.48 454.5 317.5 455.13 317.43 455.75C317.28 457.29 316.97 457.61 315.5 457.79C314.35 457.93 313.19 458.05 312.04 458.18C312.04 458.15 312.04 458.11 312.03 458.08C310.61 458.24 309.19 458.45 307.76 458.54C306.26 458.63 305.68 458.16 305.23 456.71C305.18 456.54 305.14 456.37 305.1 456.19C304.63 453.57 304.13 450.95 303.7 448.32C303.49 447.01 303.5 445.68 303.51 444.33C303.54 440.67 303.06 437.05 302.19 433.49C301.81 431.92 301.61 430.37 301.68 428.75C301.8 425.98 301.45 423.24 300.94 420.52C300.6 418.68 300.41 416.83 300.29 414.96C300.16 412.83 299.87 410.71 299.7 408.58C299.62 407.61 299.67 406.63 299.62 405.66C299.58 404.56 300.26 404.05 301.19 403.77C301.71 403.61 302.26 403.55 302.79 403.45C304.48 403.12 306.18 402.79 307.87 402.48C308.4 402.38 308.95 402.27 309.48 402.27C310.76 402.27 311.2 402.66 311.64 403.85C312.12 405.12 312.33 406.47 312.23 407.79C312.1 409.59 312.33 411.35 312.5 413.11C312.69 415.06 312.92 417 313.15 418.95C313.22 419.57 313.28 420.2 313.46 420.79C313.74 421.72 314.4 422.34 315.4 422.41C317.47 422.56 319.54 422.63 321.56 421.98C322.67 421.62 323.83 421.41 324.94 421.05C326.81 420.44 327.11 419.98 326.97 418.15C326.91 417.35 326.79 416.56 326.68 415.76C326.44 413.91 326.33 412.06 326.38 410.18C326.44 408.23 326.06 406.28 325.88 404.34C325.82 403.72 325.69 403.11 325.67 402.49C325.63 401.53 326.1 400.98 327.05 400.8C327.94 400.64 328.84 400.55 329.74 400.39C330.54 400.25 331.33 400.03 332.14 399.89C333.21 399.71 334.29 399.51 335.37 399.44C336.88 399.34 337.51 399.86 337.85 401.32C337.95 401.75 338.03 402.21 337.98 402.64C337.76 404.34 338.03 406.02 338.19 407.7C338.44 410.27 338.54 412.88 339.08 415.39C339.73 418.45 339.99 421.55 340.32 424.64C340.43 425.7 340.37 426.77 340.41 427.83C340.43 428.72 340.45 429.61 340.55 430.49C340.89 433.49 340.97 436.53 341.82 439.46C341.97 439.96 341.94 440.52 341.9 441.05C341.75 443.2 342.08 445.29 342.51 447.39H342.52Z" fill="white"/>
<path d="M388.43 439.53C388.73 439.67 388.99 439.91 389.22 440.16C389.33 440.27 389.36 440.49 389.37 440.66C389.58 443.15 389.81 445.63 389.98 448.12C390.07 449.42 389.49 450.09 388.22 450.4C387.96 450.46 387.69 450.5 387.43 450.52C384.23 450.83 381.03 451.14 377.82 451.44C376.48 451.57 375.15 451.66 373.81 451.79C372.03 451.95 370.27 452.27 368.47 452C368.03 451.93 367.58 451.99 367.13 452.05C365.27 452.31 363.43 452.78 361.57 452.84C359.69 452.9 357.82 452.87 355.98 453.27C355.25 453.43 354.57 453.43 353.86 453.27C353.09 453.1 352.64 452.59 352.35 451.89C352.31 451.81 352.3 451.72 352.29 451.63C351.85 448.74 350.87 445.93 350.88 442.96C350.88 441.72 351 440.47 350.91 439.23C350.68 435.94 350.42 432.66 350.1 429.38C349.75 425.92 349.29 422.48 348.95 419.02C348.64 415.92 348.45 412.8 348.13 409.7C347.81 406.69 347.38 403.69 347.02 400.69C346.8 398.9 347.42 398.03 349.15 398.12C352.81 398.31 356.39 397.64 360.01 397.39C361.28 397.3 362.55 397.24 363.81 397.1C365.71 396.9 367.63 396.8 369.48 396.37C372.77 395.6 376.14 395.51 379.48 395.2C380.74 395.08 382.02 395.25 383.28 395.39C384.04 395.47 384.61 395.93 384.86 396.68C385.62 398.98 386 401.34 386.05 403.76C386.05 404.02 386.03 404.3 385.95 404.55C385.78 405.08 385.49 405.54 384.89 405.66C384.27 405.79 383.64 405.87 383.02 405.98C381.86 406.17 380.71 406.42 379.54 406.56C378.38 406.71 377.2 406.84 376.04 406.82C373.94 406.79 371.9 406.98 369.85 407.44C368.1 407.84 366.27 407.98 364.49 408.24C363.69 408.35 362.87 408.41 362.08 408.6C361.1 408.84 360.54 409.56 360.57 410.56C360.62 412.34 360.77 414.11 361.49 415.78C361.84 416.59 362.42 417.09 363.29 417.19C364 417.27 364.73 417.4 365.44 417.34C366.79 417.22 368.15 417.1 369.46 416.77C372.02 416.12 374.63 415.95 377.23 415.73C378.57 415.62 379.93 415.75 381.27 415.86C382.21 415.93 382.67 416.45 382.84 417.41C382.86 417.5 382.87 417.59 382.88 417.67C383.07 419.89 383.27 422.1 383.44 424.33C383.52 425.38 383 426.06 381.99 426.26C381.37 426.38 380.74 426.42 380.12 426.51C379.13 426.65 378.14 426.73 377.19 426.97C373.94 427.78 370.65 428.06 367.3 427.94C366.32 427.91 365.32 428.05 364.36 428.27C363.17 428.54 362.45 429.41 362.52 430.59C362.71 433.6 362.75 436.64 363.73 439.56C364.02 440.42 364.51 440.97 365.41 441.03C366.66 441.11 367.92 441.25 369.15 441.16C372.1 440.95 377.99 440.26 377.98 440.21C381.19 439.96 384.4 439.72 387.62 439.48C387.89 439.46 388.19 439.41 388.41 439.51L388.43 439.53Z" fill="white"/>
<path d="M473.05 440.41C473.15 440.93 473.15 441.47 473.13 442.01C473.11 442.65 472.67 443.21 472.03 443.35C470.21 443.75 468.36 444.11 466.91 444.41C465.71 444.41 464.9 444.43 464.1 444.42C462.8 444.4 461.81 443.86 461.45 442.59C460.38 438.75 458.71 435.07 458.2 431.07C458.11 430.37 457.95 429.66 457.72 429C457.01 426.99 456.26 424.99 455.51 422.99C455.42 422.74 455.34 422.46 455.16 422.28C454.93 422.04 454.63 421.75 454.32 421.7C453.81 421.62 453.47 422.04 453.36 422.47C452.8 424.52 452.03 426.55 451.94 428.7C451.86 430.57 451.55 432.41 451.24 434.25C450.83 436.7 450.5 439.17 450.12 441.63C449.98 442.51 449.86 443.39 449.64 444.25C449.45 445 448.92 445.52 448.12 445.56C445.18 445.72 442.26 446.16 439.3 445.79C438.43 445.68 437.76 445.32 437.36 444.55C437 443.84 436.62 443.12 436.41 442.36C435.75 439.87 435.05 437.39 434.56 434.86C433.88 431.34 432.3 428.13 431.22 424.75C431.04 424.18 430.67 423.65 430.29 423.16C429.91 422.67 428.99 422.85 428.7 423.44C428.55 423.76 428.38 424.09 428.35 424.43C428.25 425.76 428.22 427.09 428.14 428.42C428.06 429.57 428.05 430.73 427.85 431.86C427.31 435.02 427.18 438.21 426.86 441.39C426.72 442.8 426.44 444.2 426.18 445.59C426.05 446.26 425.59 446.7 424.9 446.79C421.99 447.15 419.1 447.77 416.14 447.53C415.87 447.51 415.56 447.53 415.36 447.4C415.08 447.23 414.71 446.94 414.68 446.68C414.59 445.71 414.56 444.73 414.63 443.76C414.77 441.99 415.03 440.23 415.22 438.47C415.29 437.77 415.39 437.05 415.33 436.35C415.11 433.92 415.41 431.55 416.01 429.21C416.46 427.47 416.75 425.73 416.56 423.94C416.41 422.5 416.77 421.11 417 419.71C417.21 418.39 417.51 417.09 417.74 415.78C417.86 415.08 417.96 414.37 417.94 413.67C417.86 410.64 418.1 407.65 418.65 404.65C419.3 401.07 419.66 397.44 420.14 393.83C420.31 392.56 420.67 392.1 421.99 391.94C423.7 391.73 425.42 391.56 427.14 391.44C428.49 391.34 429.86 391.35 431.22 391.31C431.67 391.3 432.12 391.25 432.58 391.27C434.1 391.31 435.15 392.03 435.64 393.46C435.73 393.71 435.8 393.97 435.86 394.23C436.48 397.19 437.64 400 438.2 402.97C438.6 405.06 439.16 407.12 439.66 409.19C439.72 409.44 439.84 409.7 439.97 409.92C440.22 410.33 440.64 410.59 441.1 410.48C441.41 410.41 441.83 410.17 441.93 409.9C442.29 408.9 442.62 407.87 442.8 406.83C443.01 405.7 443.13 404.54 443.14 403.38C443.16 401.67 443.51 400.03 443.91 398.38C444.36 396.57 444.92 394.77 444.77 392.86C444.74 392.52 444.9 392.16 444.94 391.81C445.05 390.89 445.62 390.37 446.5 390.19C448.1 389.87 449.71 389.59 451.31 389.31C451.67 389.25 452.03 389.22 452.39 389.22C454.2 389.22 456.01 389.24 457.83 389.27C458.91 389.29 459.29 389.61 459.56 390.6C460.63 394.45 461.67 398.31 462.76 402.16C463.24 403.87 463.82 405.55 464.3 407.26C464.49 407.94 464.6 408.66 464.65 409.36C464.77 411.44 465.4 413.37 466.28 415.24C466.9 416.54 467.28 417.89 467.48 419.31C467.65 420.45 467.85 421.6 468.19 422.69C469.17 425.83 469.82 429.05 471 432.14C471.73 434.05 472.19 436.04 472.53 438.07C472.66 438.86 472.93 439.62 473.07 440.4L473.05 440.41Z" fill="white"/>
<path d="M513.79 407.83C513.95 408.32 513.91 408.89 513.94 409.42C514.14 413.24 514.34 417.06 514.55 420.89C514.61 421.94 514.25 429.13 514.09 429.91C513.52 432.8 512.23 435.29 509.88 437.13C508.13 438.5 506.32 439.82 504.47 441.05C503.75 441.53 502.87 441.91 502.01 442.03C497.57 442.68 493.13 442.67 488.69 441.89C487.42 441.66 486.3 441.21 485.34 440.36C484.14 439.3 482.91 438.27 481.69 437.23C479.56 435.43 478.38 433.05 477.71 430.43C477.23 428.55 476.92 426.63 476.7 424.68C476.19 420.34 476.33 415.97 475.78 411.64C475.66 410.67 475.65 409.69 475.58 408.71C475.61 408.71 475.09 399.64 474.8 395.11C474.69 393.42 474.53 391.74 474.49 390.05C474.46 388.77 474.95 388.28 476.24 388.1C478.49 387.79 480.72 387.48 482.98 387.25C483.87 387.16 484.8 387.17 485.68 387.29C486.62 387.41 487.31 388.33 487.14 389.24C486.77 391.2 487.06 393.14 487.17 395.09C487.28 397.05 487.24 399.03 487.53 400.95C487.97 403.77 488 406.59 488.03 409.43C488.05 411.66 488.22 413.88 488.43 416.1C488.72 419.11 489.16 422.09 489.45 425.11C489.65 427.3 490.94 428.85 493.1 429.64C496.06 430.72 498.53 430.08 500.55 427.67C502.62 425.19 503.06 422.3 502.15 419.37C501.14 416.12 501.38 412.85 501.45 409.58C501.5 407.53 501.65 405.51 501.03 403.51C500.9 403.09 500.88 402.64 500.85 402.19C500.73 400.23 500.62 398.28 500.52 396.32C500.5 395.79 500.47 395.24 500.58 394.73C500.84 393.48 500.82 392.27 500.4 391.05C500.26 390.63 500.19 390.18 500.17 389.74C500.09 388.07 500.89 387.02 502.55 386.68C504.06 386.37 505.57 386 507.1 385.92C508.52 385.83 509.99 386.04 511.42 386.18C512.08 386.25 512.69 386.95 512.74 387.69C512.81 388.75 512.86 389.83 512.77 390.89C512.53 393.48 512.74 396.05 513.05 398.61C513.12 399.23 513.18 399.82 513.17 400.45C513.15 402.93 512.99 405.43 513.79 407.86V407.83Z" fill="white"/>
<path d="M557.07 423.83C557.34 425.06 557.15 426.29 556.64 427.48C555.48 430.19 554.07 432.77 552.45 435.23C551.49 436.67 550.23 437.75 548.57 438.38C547.4 438.82 546.29 439.4 545.12 439.82C544.38 440.09 543.56 440.38 542.79 440.35C539.22 440.21 535.67 439.91 532.25 438.76C530.46 438.16 528.85 437.26 527.57 435.79C526.7 434.79 525.56 434.04 524.6 433.1C523.91 432.42 523.29 431.65 522.75 430.85C522.33 430.23 522.6 429.39 523.23 428.98C525.77 427.32 528.34 425.69 530.87 424.01C531.75 423.42 532.54 423.47 533.32 424.11C534.15 424.79 534.98 425.48 535.73 426.24C537.32 427.87 539.26 428.22 541.41 427.86C541.5 427.85 541.59 427.83 541.68 427.81C543.88 427.32 544.8 425.01 543.33 423.28C542.42 422.21 541.26 421.33 540.1 420.49C539.32 419.92 538.36 419.58 537.47 419.16C532.61 416.81 528.09 413.95 524.04 410.35C520.97 407.62 519.64 404.13 519.57 400.15C519.53 398 519.94 395.91 521.08 394C522.04 392.39 522.91 390.72 523.91 389.14C524.79 387.75 526.04 386.69 527.58 386.06C528.49 385.68 529.47 385.47 530.44 385.26C532.39 384.84 534.34 384.49 535.81 384.2C538.24 384.13 540.13 384.45 541.9 385.12C544.09 385.96 546.21 386.95 548.37 387.87C549.65 388.41 550.67 389.32 551.55 390.33C552.65 391.62 553.62 393.02 554.59 394.41C555 395 554.85 395.64 554.26 396.06C553.53 396.58 552.78 397.13 551.96 397.44C550.17 398.13 548.55 399.05 547.04 400.2C546.68 400.47 546.3 400.7 545.91 400.93C545.11 401.39 544.62 401.3 544.02 400.6C543.56 400.05 543.15 399.46 542.66 398.94C541.17 397.39 539.34 396.53 537.15 396.42C536.23 396.37 535.35 396.53 534.51 396.9C533.62 397.29 533.06 398 532.88 398.91C532.61 400.27 532.81 401.57 533.78 402.66C534.75 403.74 535.88 404.6 537.23 405.18C538.63 405.78 540.04 406.39 541.42 407.03C542.72 407.63 544.02 408.25 545.3 408.9C546.91 409.71 548.37 410.71 549.69 411.96C550.85 413.07 552.16 414.02 553.35 415.11C553.87 415.58 554.34 416.15 554.67 416.76C555.88 418.97 556.53 421.37 557.07 423.8V423.83Z" fill="white"/>
<path d="M576.21 416.79C576.38 417.55 576.47 418.42 576.29 419.17C575.63 421.84 576.07 424.48 576.4 427.12C576.48 427.83 576.5 428.51 576.49 429.22C576.44 431.53 576.53 433.84 576.55 436.16C576.55 436.78 576.6 437.41 576.48 438.01C576.43 438.29 576.06 438.68 575.8 438.71C574.93 438.82 574.01 438.91 573.15 438.78C571.35 438.52 569.61 438.55 567.85 439C567.34 439.13 566.79 439.13 566.26 439.15C565.19 439.18 564.59 438.71 564.48 437.6C564.35 436.28 564.32 434.93 564.27 433.6C564.15 430.75 564.05 427.91 563.94 425.06C563.83 422.3 563.73 419.55 563.62 416.79C563.67 416.79 563.21 404.7 562.85 398.66C562.7 396.27 562.62 393.89 562.67 391.5C562.71 389.9 562.52 388.3 562.44 386.7C562.42 386.26 562.4 385.81 562.43 385.37C562.48 384.35 562.96 383.66 563.98 383.44C564.86 383.26 565.8 383.11 566.67 383.23C568.66 383.5 570.63 383.63 572.63 383.54C572.89 383.53 573.18 383.58 573.43 383.65C574.08 383.83 574.56 384.24 574.65 384.93C574.74 385.55 574.77 386.17 574.81 386.79C574.99 389.71 575.44 392.6 575.18 395.54C575.03 397.21 575.35 398.9 575.56 400.58C575.84 402.86 575.86 405.19 575.78 407.5C575.67 410.61 575.53 413.7 576.22 416.78L576.21 416.79Z" fill="white"/>
<path d="M624.29 392.86C624.52 393.33 624.29 393.75 623.94 394.04C623.6 394.32 623.2 394.55 622.8 394.75C620.57 395.91 618.32 397.07 616.09 398.23C615.77 398.39 615.45 398.58 615.11 398.68C614.39 398.88 613.68 398.83 613.09 398.28C612.24 397.48 611.36 396.72 610.53 395.89C608.31 393.67 605.71 393.76 603.01 394.74C601.38 395.34 600.05 396.44 598.76 397.56C598.06 398.17 597.65 398.96 597.34 399.8C596.91 400.97 596.5 402.14 596.06 403.31C595.2 405.6 594.77 407.94 595.04 410.34C594.93 413.86 596 417.04 597.53 420.1C598.31 421.66 599.38 422.93 600.96 423.73C601.99 424.26 603.01 424.83 604.07 425.3C606.47 426.37 608.77 426.17 610.89 424.56C611.32 424.24 611.72 423.87 612.15 423.56C613.03 422.93 613.72 422.9 614.61 423.53C615.11 423.88 615.6 424.3 616.01 424.75C616.98 425.81 618.04 426.74 619.27 427.51C619.95 427.93 620.55 428.47 621.13 429.03C621.65 429.53 621.68 430.44 621.19 430.99C619.64 432.71 618.16 434.49 615.88 435.37C614.06 436.07 612.34 437.04 610.44 437.57C608.68 438.06 606.91 438.16 605.14 437.97C603.29 437.77 601.44 437.41 599.6 437.06C598.54 436.86 597.54 436.51 596.71 435.76C594.2 433.49 591.68 431.22 589.14 428.98C587.42 427.46 586.27 425.57 585.62 423.4C584.75 420.51 583.9 417.61 583.12 414.69C582.2 411.18 582.24 407.66 583.24 404.15C583.58 402.96 583.96 401.74 584.06 400.52C584.18 399.14 584.57 397.91 585.24 396.73C585.5 396.26 585.81 395.8 585.95 395.29C586.66 392.76 588.43 390.98 590.29 389.27C592.47 387.26 594.83 385.46 597.27 383.75C598.58 382.83 599.95 382.34 601.54 382.23C603.35 382.1 605.15 381.94 606.94 381.69C607.99 381.54 608.93 381.83 609.87 382.09C611.44 382.53 612.98 383.06 614.5 383.63C615.17 383.88 615.82 384.23 616.41 384.63C617.74 385.55 619.08 386.48 620.32 387.51C622.08 388.96 623.3 390.83 624.28 392.86H624.29Z" fill="white"/>
<path d="M642.71 415.1C642.86 415.87 642.94 416.74 642.74 417.48C642.03 420.14 642.42 422.79 642.69 425.43C642.77 426.14 642.76 426.81 642.74 427.53C642.64 429.84 642.69 432.15 642.67 434.47C642.67 435.09 642.69 435.72 642.57 436.32C642.51 436.6 642.14 436.98 641.88 437C641.01 437.09 640.09 437.16 639.23 437.02C637.44 436.73 635.69 436.72 633.93 437.14C633.42 437.26 632.87 437.25 632.33 437.26C631.26 437.27 630.67 436.79 630.58 435.68C630.47 434.35 630.48 433.01 630.45 431.68C630.39 428.83 630.34 425.99 630.28 423.14C630.22 420.38 630.17 417.62 630.12 414.87C630.16 414.87 629.95 402.77 629.69 396.73C629.59 394.34 629.55 391.96 629.65 389.57C629.72 387.97 629.56 386.37 629.51 384.77C629.5 384.33 629.49 383.88 629.52 383.44C629.58 382.42 630.09 381.74 631.1 381.54C631.98 381.37 632.93 381.24 633.8 381.38C635.78 381.69 637.75 381.85 639.75 381.81C640.01 381.81 640.29 381.86 640.55 381.94C641.2 382.14 641.67 382.55 641.75 383.24C641.83 383.86 641.84 384.48 641.87 385.1C641.99 388.02 642.39 390.92 642.07 393.86C641.89 395.52 642.18 397.22 642.35 398.9C642.59 401.19 642.57 403.52 642.44 405.82C642.27 408.93 642.06 412.02 642.7 415.11L642.71 415.1Z" fill="white"/>
<path d="M693.53 434.42C693.6 434.68 693.6 434.94 693.63 435.21C693.67 435.65 693.32 436.17 692.91 436.18C689.97 436.2 687.03 436.22 684.09 436.22C683.04 436.22 682.48 435.54 682.18 434.63C681.74 433.28 681.39 431.9 680.95 430.55C680.59 429.45 680.2 428.36 679.73 427.31C679.06 425.8 677.87 424.92 676.16 424.96C674.1 425.01 672.04 425.1 669.99 425.22C668.3 425.31 666.6 425.54 664.91 425.57C663.36 425.6 662.32 426.23 661.79 427.63C661.1 429.46 660.47 431.31 659.84 433.15C659.61 433.82 659.47 434.53 659.21 435.18C658.92 435.89 658.35 436.32 657.56 436.34C654.88 436.42 652.21 436.5 649.53 436.56C649.18 436.56 648.83 436.46 648.48 436.38C648.1 436.29 647.75 435.77 647.79 435.35C647.83 435 647.91 434.66 647.99 434.32C649.11 429.84 650.22 425.36 651.41 420.89C651.82 419.35 652.41 417.85 653.02 416.37C653.7 414.72 654.29 413.04 654.61 411.29C654.92 409.54 655.44 407.84 655.91 406.13C656.64 403.47 657.22 400.78 657.97 398.13C659.29 393.42 660.6 388.72 662.34 384.13C662.47 383.8 662.61 383.47 662.74 383.13C663.13 382.1 663.93 381.53 665 381.48C666.81 381.39 668.62 381.43 670.96 381.41C671.61 381.37 672.78 381.3 673.96 381.24C674.6 381.21 675.23 381.2 675.86 381.23C676.98 381.28 677.75 381.85 678.06 382.91C678.8 385.47 679.96 387.9 680.48 390.53C680.68 391.57 680.94 392.62 681.32 393.61C682.36 396.27 683.12 399.01 683.89 401.75C683.98 402.09 684.09 402.44 684.24 402.76C685.59 405.69 686.3 408.81 687.13 411.91C687.4 412.94 687.73 413.96 688.15 414.94C689.06 417.08 689.65 419.3 690.21 421.55C690.84 424.05 691.52 426.53 692.17 429.02C692.64 430.82 693.09 432.63 693.54 434.44L693.53 434.42ZM673.88 417.17C675.17 417.03 676 416.09 675.88 414.82C675.83 414.3 675.64 413.79 675.49 413.28C675.17 412.17 674.72 411.09 674.53 409.96C674.13 407.56 672.94 405.45 672.12 403.21C672 402.88 671.79 402.58 671.58 402.3C670.99 401.54 669.8 401.64 669.31 402.48C669.09 402.86 668.91 403.27 668.73 403.68C667.31 406.96 666.84 410.52 665.68 413.87C665.62 414.03 665.64 414.22 665.62 414.4C665.52 415.77 666.11 416.65 667.46 416.89C668.69 417.1 669.94 417.15 670.61 417.22C671.91 417.22 672.63 417.21 673.35 417.2C673.53 417.2 673.71 417.19 673.89 417.17H673.88Z" fill="white"/>
<path d="M736.86 419.98C736.69 424.08 736.84 428.17 736.8 432.27C736.79 432.98 736.75 433.7 736.62 434.4C736.39 435.71 735.76 436.22 734.43 436.25C733.9 436.25 733.36 436.22 732.82 436.22C731.4 436.21 729.97 436.13 728.57 436.56C728 436.74 727.33 436.68 726.71 436.68C725.45 436.68 724.5 436.09 723.79 435.07C723.59 434.77 723.39 434.47 723.25 434.15C722.17 431.61 720.8 429.2 720.02 426.54C719.52 424.82 718.84 423.2 717.94 421.64C717.37 420.64 717.02 419.52 716.57 418.46C715.81 416.65 715.05 414.85 714.29 413.05C714.15 412.72 713.98 412.4 713.79 412.1C713.45 411.56 713.07 411.07 712.35 411.03C711.78 411 711.3 411.55 711.04 412.53C710.45 414.71 710.34 416.89 710.75 419.13C710.96 420.26 710.97 421.43 711.01 422.58C711.07 424.35 711.01 426.13 711.32 427.9C711.67 429.95 711.22 431.99 710.87 434C710.67 435.15 709.88 435.86 708.66 436.01C707.33 436.17 706.01 436.47 704.68 436.44C703 436.41 701.31 436.16 699.65 435.89C699.32 435.84 698.99 435.32 698.83 434.95C698.66 434.56 698.66 434.08 698.67 433.63C698.71 431.32 699.04 429.01 698.4 426.73C698.34 426.49 698.43 426.2 698.47 425.94C699.12 421.96 699.13 417.98 698.45 414C698.32 413.23 698.32 412.39 698.45 411.62C699.01 408.07 698.82 404.54 698.55 400.99C698.34 398.25 698.09 395.5 698.63 392.75C698.84 391.72 698.77 390.63 698.79 389.56C698.8 388.05 698.76 386.53 698.75 385.02C698.75 384.58 698.75 384.13 698.79 383.69C698.94 382.25 699.51 381.54 700.96 381.37C703.48 381.09 706.02 381.03 708.55 381.39C709.9 381.59 710.86 382.3 711.53 383.47C712.61 385.32 713.8 387.11 714.84 388.99C715.48 390.15 716.01 391.4 716.44 392.66C717.02 394.36 717.69 396.01 718.72 397.48C719.72 398.9 720.13 400.55 720.75 402.12C721.12 403.03 721.41 403.96 722.11 404.7C722.55 405.17 723.1 405.37 723.54 405.19C724 404.99 724.23 404.62 724.27 404.16C724.33 403.45 724.37 402.74 724.37 402.03C724.4 398.91 724.41 395.79 724.45 392.68C724.48 390.82 724.43 388.96 724.77 387.09C725 385.88 724.82 384.61 724.84 383.36C724.84 382.92 724.84 382.47 724.91 382.04C724.99 381.55 725.35 381.24 725.83 381.2C726.55 381.14 727.28 381.16 728 381.18C730.26 381.25 732.53 381.37 734.79 381.06C735.28 380.99 735.88 381.15 736.33 381.39C736.69 381.58 736.97 382 737.15 382.38C737.3 382.68 737.27 383.08 737.26 383.43C737.22 386.46 737.18 389.48 737.12 392.51C737.1 393.85 737.01 395.18 737 396.52C736.98 400.44 736.97 404.35 736.94 408.27C736.91 408.27 737.01 416.11 736.85 420.02L736.86 419.98Z" fill="white"/>
<path d="M806.2 406.69C806.43 409.77 806.37 412.89 805.71 415.98C805.38 417.53 805.51 419.17 805.38 420.76C805.05 424.64 803.91 428.24 801.57 431.41C799.81 433.79 797.6 435.5 794.65 436.08C793.16 436.37 791.68 436.68 790.17 436.81C783.05 437.44 784.62 437.91 777.12 437.41C776.77 437.39 776.4 437.39 776.05 437.39C776.05 437.39 776.05 437.41 776.05 437.42C773.82 437.37 771.6 437.33 769.37 437.27C769.01 437.27 768.65 437.24 768.31 437.17C767.44 436.99 766.89 436.43 766.71 435.58C766.61 435.15 766.63 434.7 766.63 434.25C766.67 431.32 766.71 428.39 766.32 425.46C766.16 424.25 766.37 422.98 766.48 421.74C766.59 420.32 766.91 418.91 766.88 417.5C766.73 409.84 767.41 402.2 767.41 394.55C767.41 391.61 767.43 388.68 767.45 385.74C767.45 385.21 767.45 384.67 767.49 384.14C767.62 382.23 767.99 381.8 769.86 381.53C770.39 381.45 770.95 381.45 771.48 381.51C775.35 381.94 779.24 382.15 783.13 382.18C785.49 382.2 787.84 382.22 790.2 382.18C793.4 382.13 796.22 383.3 798.96 384.71C799.43 384.95 799.87 385.32 800.2 385.73C801.66 387.54 803.11 389.36 804.49 391.24C804.9 391.8 805.19 392.51 805.31 393.19C805.68 395.28 806.21 397.36 806.11 399.51C805.99 401.9 806.03 404.28 806.21 406.69H806.2ZM791.92 403.97C791.94 402.38 791.81 400.77 791.57 399.19C791.32 397.51 790.39 396.04 788.69 395.64C786.59 395.15 784.39 395.1 782.28 395.88C781.64 396.11 781.23 396.6 781.11 397.24C780.9 398.37 780.64 399.51 780.59 400.65C780.46 404.03 780.41 407.41 780.33 410.79C780.28 410.79 780 417.55 779.92 420.93C779.92 421.38 779.92 421.82 779.95 422.26C780.04 423.48 780.73 424.22 781.96 424.36C784.22 424.63 786.42 424.41 788.48 423.33C790.29 422.38 791.23 420.86 791.52 418.89C791.57 418.54 791.58 418.18 791.59 417.82C791.7 413.2 791.87 408.57 791.92 403.95V403.97Z" fill="white"/>
<path d="M826.62 417.03C826.74 417.81 826.76 418.68 826.53 419.41C825.68 422.03 825.93 424.69 826.07 427.35C826.11 428.06 826.07 428.74 826.01 429.45C825.79 431.75 825.71 434.06 825.58 436.37C825.54 436.99 825.54 437.62 825.38 438.21C825.31 438.48 824.92 438.84 824.66 438.86C823.78 438.9 822.86 438.93 822.01 438.74C820.24 438.35 818.49 438.25 816.71 438.58C816.19 438.68 815.64 438.63 815.11 438.61C814.04 438.56 813.48 438.05 813.44 436.94C813.41 435.61 813.47 434.27 813.52 432.94C813.61 430.09 813.7 427.25 813.8 424.4C813.89 421.64 813.98 418.88 814.07 416.13C814.11 416.13 814.54 404.04 814.6 397.99C814.62 395.6 814.71 393.21 814.94 390.83C815.1 389.24 815.02 387.63 815.05 386.03C815.05 385.59 815.08 385.14 815.13 384.7C815.25 383.69 815.78 383.03 816.81 382.89C817.7 382.77 818.65 382.69 819.51 382.87C821.47 383.28 823.43 383.55 825.43 383.61C825.7 383.61 825.97 383.69 826.22 383.78C826.86 384.01 827.3 384.44 827.35 385.14C827.39 385.76 827.38 386.38 827.37 387.01C827.34 389.93 827.58 392.85 827.11 395.77C826.85 397.42 827.04 399.13 827.13 400.82C827.25 403.11 827.1 405.45 826.85 407.74C826.51 410.84 826.15 413.91 826.62 417.03Z" fill="white"/>
<path d="M877.63 439.47C877.89 439.98 877.5 440.57 876.92 440.61C876.74 440.61 876.56 440.65 876.39 440.63C873.45 440.41 870.52 440.18 867.57 440.5C866.07 440.66 865 439.95 864.35 438.6C864.09 438.04 863.79 437.48 863.55 436.91C862.92 435.43 862.19 434.01 861.12 432.79C860.71 432.32 860.37 431.78 860.11 431.22C859.48 429.84 858.66 428.57 857.83 427.3C857.25 426.42 856.85 425.4 856.45 424.41C855.53 422.16 854.23 420.15 852.88 418.15C852.53 417.64 852.11 417.15 851.66 416.73C850.4 415.57 848.45 416.17 848.08 417.81C848.04 417.98 848 418.16 848 418.34C847.96 422.34 846.92 426.27 847.03 430.28C847.06 431.34 847.05 432.39 847.19 433.46C847.35 434.67 847.27 435.96 847.07 437.17C846.89 438.29 846.21 439.12 844.91 439.15C844.21 439.17 843.46 439.39 842.79 439.26C840.76 438.85 838.71 438.84 836.66 438.78C836.39 438.78 836.13 438.76 835.86 438.72C835.42 438.66 835.03 438.25 835.03 437.81C835.03 437.19 835.03 436.56 835.09 435.94C835.46 432.04 835.51 428.15 835.27 424.22C835.07 420.86 835.43 417.46 835.53 414.08C836.58 409.88 836.03 405.58 836.43 401.33C836.48 400.8 836.46 400.26 836.36 399.74C836.16 398.75 836.35 397.82 836.47 396.84C836.8 394.29 837.02 391.73 836.64 389.14C836.45 387.84 836.58 386.47 836.7 385.16C836.8 384.11 837.49 383.69 838.61 383.74C842.51 383.9 846.39 384.06 850.29 384.23C850.29 384.26 857.35 384.65 860.88 384.79C862.82 384.86 864.64 385.33 866.35 386.2C867.64 386.86 868.93 387.5 870.17 388.22C872.02 389.3 873.32 390.89 874.16 392.82C874.8 394.29 875.38 395.79 875.88 397.31C876.1 397.97 876.13 398.71 876.12 399.42C876.07 401.48 875.77 403.49 874.91 405.39C874.54 406.2 874.17 407.01 873.87 407.85C873.06 410.14 871.47 411.78 869.45 413.05C868.54 413.62 867.6 414.13 866.65 414.65C864.75 415.69 864.41 416.62 865.4 418.56C866.09 419.91 866.86 421.23 867.77 422.44C869.29 424.45 870.59 426.54 871.4 428.94C871.73 429.92 872.38 430.85 873.07 431.65C875.09 433.99 876.24 436.8 877.64 439.48L877.63 439.47ZM860.42 398.04C860.4 396.98 859.79 396.19 858.82 395.76C858.25 395.51 857.63 395.34 857.02 395.25C856.22 395.14 855.41 395.16 854.6 395.12C853.79 395.08 852.98 395.04 852.17 395.02C851.9 395.02 851.63 395.04 851.36 395.08C849.66 395.34 848.69 396.37 848.44 398.08C848.23 399.52 848.58 400.9 848.82 402.29C848.97 403.13 849.59 403.74 850.38 403.99C852.71 404.72 855.1 405.05 857.53 404.45C859.08 404.06 860.01 403.01 860.25 401.49C860.43 400.36 860.44 399.2 860.41 398.05L860.42 398.04Z" fill="white"/>
<path d="M920.39 432.84C920.66 433.02 920.89 433.31 921.08 433.58C921.17 433.71 921.16 433.93 921.15 434.1C920.98 436.59 920.83 439.08 920.61 441.56C920.5 442.85 919.83 443.43 918.53 443.55C918.26 443.57 917.99 443.57 917.73 443.55C914.52 443.37 911.31 443.19 908.1 443C906.76 442.92 905.43 442.81 904.09 442.73C902.31 442.62 900.51 442.66 898.78 442.12C898.36 441.99 897.9 441.97 897.45 441.96C895.58 441.94 893.69 442.12 891.84 441.89C889.98 441.65 888.13 441.35 886.25 441.46C885.51 441.51 884.83 441.4 884.16 441.13C883.42 440.84 883.05 440.27 882.88 439.53C882.85 439.44 882.86 439.35 882.86 439.26C882.86 436.33 882.33 433.41 882.79 430.47C882.99 429.24 883.28 428.03 883.39 426.79C883.67 423.51 883.91 420.22 884.09 416.93C884.28 413.46 884.35 409.99 884.53 406.52C884.69 403.41 884.99 400.3 885.14 397.19C885.29 394.17 885.32 391.14 885.41 388.11C885.47 386.31 886.21 385.54 887.91 385.89C891.49 386.63 895.13 386.52 898.75 386.83C900.01 386.94 901.28 387.07 902.55 387.13C904.45 387.22 906.37 387.42 908.26 387.28C911.64 387.03 914.97 387.44 918.31 387.64C919.56 387.71 920.81 388.08 922.03 388.41C922.77 388.61 923.26 389.14 923.39 389.93C923.8 392.32 923.8 394.72 923.49 397.11C923.46 397.37 923.39 397.64 923.27 397.88C923.02 398.38 922.66 398.78 922.06 398.82C921.43 398.86 920.79 398.84 920.16 398.85C918.98 398.87 917.81 398.93 916.64 398.9C915.47 398.86 914.29 398.82 913.14 398.62C911.07 398.27 909.03 398.14 906.93 398.29C905.13 398.42 903.32 398.28 901.51 398.26C900.69 398.26 899.88 398.18 899.07 398.26C898.06 398.35 897.4 398.98 897.28 399.97C897.06 401.74 896.94 403.51 897.4 405.27C897.62 406.12 898.11 406.7 898.97 406.94C899.66 407.13 900.36 407.37 901.07 407.42C902.42 407.5 903.78 407.59 905.12 407.47C907.75 407.23 910.35 407.45 912.96 407.63C914.3 407.72 915.62 408.07 916.93 408.38C917.85 408.6 918.22 409.18 918.25 410.15C918.25 410.23 918.25 410.33 918.25 410.42C918.1 412.64 917.97 414.86 917.79 417.08C917.71 418.13 917.09 418.73 916.07 418.77C915.44 418.8 914.81 418.74 914.18 418.73C913.18 418.73 912.19 418.65 911.21 418.74C907.88 419.05 904.58 418.81 901.29 418.19C900.33 418.01 899.32 417.99 898.34 418.06C897.13 418.15 896.27 418.89 896.17 420.08C895.9 423.09 895.47 426.1 895.99 429.13C896.14 430.02 896.54 430.64 897.43 430.84C898.64 431.11 899.88 431.43 901.11 431.54C904.06 431.78 909.97 431.99 909.98 431.95C913.19 432.2 916.4 432.44 919.61 432.7C919.87 432.72 920.18 432.72 920.39 432.85V432.84Z" fill="white"/>
<path d="M968.79 402.54C968.97 403.03 968.71 403.43 968.32 403.68C967.95 403.93 967.53 404.11 967.11 404.28C964.77 405.22 962.42 406.15 960.09 407.08C959.75 407.21 959.42 407.37 959.07 407.43C958.33 407.55 957.63 407.44 957.1 406.84C956.33 405.97 955.53 405.11 954.79 404.21C952.8 401.78 950.2 401.61 947.42 402.33C945.73 402.76 944.3 403.73 942.91 404.72C942.16 405.26 941.67 406 941.28 406.81C940.73 407.93 940.21 409.06 939.66 410.18C938.58 412.37 937.92 414.66 937.95 417.07C937.49 420.56 938.25 423.83 939.47 427.03C940.1 428.65 941.03 430.03 942.53 430.98C943.51 431.61 944.47 432.27 945.48 432.84C947.77 434.14 950.07 434.16 952.35 432.77C952.81 432.49 953.24 432.17 953.7 431.9C954.64 431.36 955.32 431.4 956.15 432.11C956.62 432.51 957.06 432.97 957.43 433.46C958.28 434.61 959.26 435.64 960.4 436.52C961.03 437.01 961.59 437.6 962.1 438.21C962.57 438.76 962.51 439.66 961.97 440.16C960.26 441.72 958.61 443.35 956.25 444C954.36 444.52 952.57 445.31 950.61 445.66C948.81 445.98 947.04 445.9 945.29 445.54C943.46 445.16 941.66 444.62 939.86 444.09C938.82 443.79 937.87 443.34 937.11 442.51C934.83 440 932.54 437.5 930.24 435.02C928.68 433.34 927.71 431.35 927.28 429.12C926.7 426.16 926.13 423.19 925.65 420.21C925.08 416.62 925.46 413.13 926.8 409.73C927.26 408.57 927.75 407.4 927.97 406.19C928.22 404.83 928.74 403.65 929.52 402.54C929.83 402.1 930.18 401.67 930.37 401.18C931.32 398.73 933.26 397.13 935.28 395.61C937.65 393.82 940.17 392.26 942.77 390.8C944.16 390.02 945.58 389.66 947.17 389.71C948.98 389.76 950.79 389.77 952.6 389.71C953.65 389.67 954.57 390.05 955.48 390.4C957 390.99 958.48 391.67 959.94 392.38C960.59 392.69 961.2 393.11 961.74 393.57C962.98 394.61 964.21 395.68 965.36 396.82C966.98 398.43 968 400.42 968.78 402.53L968.79 402.54Z" fill="white"/>
<path d="M1005.74 394.53C1008.09 394.98 1008.19 395.11 1007.97 397.58C1007.81 399.35 1007.66 401.13 1007.5 402.9C1007.46 403.34 1007.44 403.79 1007.38 404.23C1007.26 405.2 1006.74 405.73 1005.81 405.7C1004.27 405.65 1002.74 405.51 1001.21 405.39C999.77 405.27 998.33 405.07 996.89 404.99C995.76 404.93 994.93 405.52 994.7 406.58C994.45 407.7 994.27 408.86 994.2 410.01C993.9 415.71 993.05 421.35 992.86 427.05C992.54 430.87 992.23 434.68 991.88 438.49C991.67 440.88 991.39 443.28 991.14 445.67C991.1 446.02 991.08 446.39 990.98 446.73C990.36 448.86 990.11 449 987.96 448.74C987.61 448.7 987.25 448.64 986.91 448.53C985.52 448.06 984.12 448.05 982.67 448.18C981.79 448.26 980.89 448.18 980 448.08C979.12 447.98 978.55 447.35 978.52 446.46C978.49 445.75 978.53 445.04 978.6 444.33C978.83 441.76 979.11 439.19 979.31 436.62C979.71 431.65 980.05 426.68 980.44 421.7C980.54 420.46 980.78 419.25 981.06 418.03C981.43 416.4 981.63 414.67 981.55 413C981.46 411.3 981.59 409.63 981.67 407.94C981.69 407.59 981.69 407.23 981.72 406.87C981.94 404.72 980.92 403.58 978.72 403.17C977.48 402.94 976.21 402.89 974.94 402.76C973.77 402.64 972.59 402.59 971.43 402.42C969.85 402.2 969.45 401.7 969.57 400.06C969.73 397.84 969.94 395.62 970.17 393.41C970.29 392.27 970.8 391.83 971.98 391.94C974.41 392.16 976.87 392.03 979.3 392.44C980.71 392.68 982.19 392.56 983.64 392.49C984.65 392.44 985.62 392.49 986.6 392.72C988.73 393.23 990.9 393.43 993.08 393.26C994 393.19 994.88 393.26 995.77 393.5C997.45 393.94 999.17 394.14 1000.89 393.95C1002 393.83 1003.05 393.9 1004.11 394.23C1004.62 394.39 1005.18 394.43 1005.71 394.54L1005.74 394.53Z" fill="white"/>
<path d="M1052.58 427.07C1052.56 428.49 1052.32 429.88 1051.82 431.25C1051.33 432.58 1051.16 434.01 1050.78 435.38C1050.61 435.97 1050.33 436.53 1050.03 437.07C1049.22 438.55 1048.31 439.99 1047.56 441.5C1046.59 443.44 1045.27 445.13 1043.7 446.59C1042.8 447.42 1041.7 448.09 1040.59 448.65C1038.44 449.74 1036.26 450.78 1034.03 451.68C1032.89 452.14 1031.62 452.45 1030.4 452.51C1027.43 452.64 1024.59 452.13 1021.82 450.87C1018.22 449.24 1015.44 446.71 1012.74 443.95C1010.61 441.77 1009.18 439.29 1008.52 436.35C1008.06 434.36 1007.53 432.38 1007.02 430.39C1006.48 428.3 1006.49 426.16 1006.51 424.03C1006.51 423.23 1006.64 422.43 1006.71 421.64C1006.71 419.58 1007.05 417.57 1007.79 415.63C1008.33 414.22 1008.81 412.78 1009.34 411.37C1009.84 410.02 1010.53 408.79 1011.5 407.7C1013.28 405.7 1015.05 403.67 1016.83 401.66C1017.61 400.78 1018.55 400.13 1019.61 399.57C1022.51 398.06 1025.51 396.89 1028.81 396.51C1030.27 396.34 1031.69 396.32 1033.13 396.68C1036.42 397.48 1039.5 398.78 1042.47 400.33C1044.17 401.22 1045.58 402.46 1046.53 404.17C1047.49 405.89 1048.58 407.54 1049.54 409.25C1050.02 410.1 1050.37 411.03 1050.73 411.94C1051.22 413.18 1051.66 414.45 1052.15 415.69C1052.42 416.36 1052.62 417.02 1052.61 417.76C1052.59 420.87 1052.62 423.98 1052.59 427.09L1052.58 427.07ZM1040.32 422.31C1040.82 420.43 1040.11 417.82 1038.75 415.31C1038.32 414.52 1037.94 413.73 1037.54 412.92C1036.63 411.07 1035.08 409.87 1033.26 408.99C1030.78 407.79 1028.33 407.97 1026.03 409.4C1023.18 411.18 1021.23 413.63 1020.5 416.96C1020.06 418.95 1019.45 420.9 1019.03 422.89C1018.78 424.01 1018.6 425.18 1018.7 426.31C1018.84 427.98 1019.22 429.64 1019.59 431.28C1019.76 432.05 1020.1 432.8 1020.46 433.5C1020.99 434.53 1021.61 435.51 1022.19 436.51C1023.84 439.33 1026.73 440.62 1029.94 439.97C1032.02 439.55 1033.83 438.67 1035.18 436.99C1035.68 436.37 1036.22 435.77 1036.73 435.15C1037.45 434.24 1038.01 433.26 1038.33 432.11C1039.14 429.2 1039.75 426.26 1040.32 422.3V422.31Z" fill="white"/>
<path d="M1099.36 458.11C1099.59 458.64 1099.15 459.2 1098.57 459.2C1098.39 459.2 1098.21 459.21 1098.03 459.19C1095.11 458.78 1092.19 458.37 1089.23 458.5C1087.73 458.57 1086.7 457.79 1086.14 456.4C1085.91 455.82 1085.66 455.25 1085.45 454.66C1084.91 453.14 1084.28 451.68 1083.28 450.39C1082.9 449.9 1082.59 449.34 1082.37 448.76C1081.82 447.34 1081.1 446.02 1080.34 444.7C1079.82 443.78 1079.49 442.74 1079.15 441.73C1078.38 439.43 1077.2 437.33 1075.99 435.25C1075.67 434.71 1075.29 434.21 1074.86 433.76C1073.67 432.52 1071.69 432.99 1071.21 434.61C1071.16 434.78 1071.11 434.96 1071.1 435.13C1070.81 439.12 1069.51 442.97 1069.36 446.98C1069.32 448.04 1069.24 449.09 1069.32 450.17C1069.4 451.39 1069.24 452.67 1068.96 453.87C1068.71 454.97 1067.99 455.76 1066.67 455.71C1065.96 455.68 1065.21 455.86 1064.55 455.68C1062.55 455.14 1060.49 455 1058.46 454.81C1058.19 454.79 1057.93 454.75 1057.67 454.7C1057.23 454.61 1056.87 454.18 1056.9 453.74C1056.94 453.12 1056.98 452.49 1057.08 451.88C1057.7 448.01 1057.99 444.13 1058.01 440.2C1058.03 436.83 1058.59 433.47 1058.92 430.1C1060.24 425.98 1059.97 421.64 1060.63 417.44C1060.71 416.92 1060.73 416.37 1060.66 415.84C1060.53 414.84 1060.77 413.92 1060.96 412.95C1061.45 410.43 1061.84 407.89 1061.63 405.28C1061.52 403.97 1061.74 402.62 1061.95 401.31C1062.12 400.26 1062.82 399.89 1063.95 400.01C1067.84 400.41 1071.71 400.83 1075.59 401.25C1075.59 401.28 1082.62 402.13 1086.14 402.49C1088.07 402.69 1089.86 403.26 1091.52 404.25C1092.77 404.99 1094.01 405.71 1095.21 406.51C1097 407.71 1098.19 409.38 1098.9 411.36C1099.44 412.87 1099.93 414.41 1100.33 415.95C1100.51 416.62 1100.5 417.37 1100.43 418.07C1100.25 420.12 1099.82 422.11 1098.83 423.95C1098.41 424.74 1097.98 425.52 1097.63 426.34C1096.67 428.57 1094.97 430.11 1092.88 431.25C1091.94 431.76 1090.95 432.21 1089.98 432.66C1088.02 433.58 1087.62 434.48 1088.48 436.48C1089.08 437.86 1089.76 439.24 1090.6 440.5C1091.98 442.61 1093.15 444.77 1093.81 447.22C1094.08 448.22 1094.67 449.19 1095.31 450.03C1097.17 452.49 1098.15 455.38 1099.37 458.13L1099.36 458.11ZM1084.82 415.66C1084.86 414.6 1084.31 413.78 1083.37 413.28C1082.82 413 1082.21 412.78 1081.6 412.66C1080.81 412.5 1079.99 412.47 1079.19 412.38C1078.39 412.29 1077.58 412.2 1076.77 412.12C1076.5 412.09 1076.22 412.1 1075.96 412.12C1074.24 412.27 1073.21 413.23 1072.86 414.92C1072.56 416.34 1072.82 417.74 1072.97 419.14C1073.06 419.98 1073.64 420.63 1074.42 420.93C1076.7 421.81 1079.07 422.29 1081.53 421.85C1083.1 421.56 1084.1 420.58 1084.43 419.07C1084.68 417.95 1084.77 416.8 1084.81 415.64L1084.82 415.66Z" fill="white"/>
<path d="M1139.08 409.08C1139.3 409.28 1139.52 409.78 1139.42 410C1138.45 412.26 1138.16 414.81 1136.38 416.76C1135.62 417.6 1135.16 418.72 1134.65 419.76C1133.45 422.24 1132.3 424.75 1131.14 427.25C1130.91 427.74 1130.66 428.21 1130.47 428.71C1129.26 431.89 1127.71 434.88 1125.67 437.62C1124.76 438.85 1124.3 440.29 1124.13 441.83C1123.86 444.4 1123.49 446.95 1123.21 449.52C1123.12 450.4 1123.17 451.29 1123.17 452.17C1123.17 452.44 1123.23 452.71 1123.2 452.97C1122.9 455.62 1122.6 458.28 1122.25 460.93C1122.1 462.04 1121.52 462.52 1120.44 462.48C1119.64 462.45 1118.84 462.3 1117.68 462.16C1115.68 461.76 1113.31 461.3 1110.95 460.81C1110.11 460.64 1109.71 460.12 1109.74 459.29C1109.76 458.67 1109.88 458.06 1109.95 457.44C1110.21 455.14 1110.46 452.84 1110.73 450.54C1111.12 447.18 1111.44 443.8 1111.97 440.46C1112.36 437.91 1112.08 435.51 1111.08 433.15C1110.07 430.75 1109.38 428.27 1109.2 425.66C1109.15 424.95 1109.01 424.24 1108.84 423.56C1108.14 420.89 1107.42 418.23 1106.68 415.58C1106.34 414.38 1106.13 413.16 1106.03 411.91C1105.9 410.32 1105.56 408.75 1105.3 407.17C1105.23 406.74 1105.12 406.29 1105.14 405.86C1105.15 405.65 1105.4 405.42 1105.59 405.26C1105.72 405.15 1105.92 405.09 1106.09 405.09C1108.17 405.11 1110.26 405.14 1112.34 405.19C1112.7 405.19 1113.07 405.26 1113.41 405.38C1115.95 406.27 1116.29 405.75 1117.29 408.9C1118.15 411.63 1118.97 414.35 1119.13 417.23C1119.18 418.01 1119.37 418.81 1119.65 419.55C1119.97 420.41 1121.04 420.5 1121.62 419.77C1121.89 419.42 1122.08 419.02 1122.3 418.64C1123.18 417.09 1124.02 415.53 1124.95 414.01C1125.88 412.49 1127 411.08 1127.37 409.28C1127.44 408.95 1127.68 408.64 1127.86 408.34C1128.1 407.93 1128.48 407.7 1128.97 407.69C1129.33 407.67 1129.69 407.69 1130.05 407.73C1131.85 407.95 1133.65 408.15 1135.48 408.04C1136.74 407.97 1138.05 408.19 1139.06 409.08H1139.08Z" fill="white"/>
<path d="M564.99 989.76C565.26 990.01 565.44 990.34 565.59 990.66C565.66 990.81 565.61 991.02 565.56 991.19C564.85 993.58 564.17 995.98 563.4 998.36C563 999.6 562.13 999.99 560.63 999.75C560.32 999.7 560.02 999.62 559.72 999.53C556.13 998.48 552.54 997.38 548.97 996.22C547.48 995.74 546.01 995.22 544.52 994.72C542.55 994.05 540.52 993.52 538.72 992.42C538.29 992.16 537.77 991.98 537.27 991.83C535.19 991.18 533.01 990.71 531.02 989.84C529 988.96 527.05 988 524.92 987.41C524.08 987.18 523.36 986.82 522.69 986.32C521.97 985.77 521.73 985.08 521.76 984.32C521.76 984.23 521.8 984.14 521.82 984.06C522.73 981.27 523.05 978.29 524.47 975.68C525.06 974.58 525.76 973.54 526.26 972.4C527.58 969.38 528.85 966.34 530.07 963.28C531.35 960.05 532.5 956.77 533.78 953.54C534.92 950.64 536.19 947.79 537.32 944.88C538.42 942.06 539.4 939.19 540.45 936.35C541.08 934.66 542.03 934.18 543.57 935.05C546.82 936.9 550.41 937.9 553.85 939.24C555.05 939.71 556.26 940.19 557.49 940.61C559.33 941.23 561.16 941.94 563.05 942.31C566.43 942.96 569.6 944.2 572.86 945.19C574.08 945.56 575.22 946.2 576.36 946.8C577.04 947.16 577.42 947.8 577.38 948.59C577.26 951.01 576.75 953.35 575.92 955.62C575.83 955.87 575.7 956.12 575.53 956.32C575.17 956.75 574.72 957.06 574.09 956.96C573.44 956.85 572.8 956.68 572.16 956.54C570.96 956.27 569.76 956.05 568.57 955.73C567.4 955.41 566.2 955.06 565.09 954.57C563.08 953.7 561.05 953.02 558.89 952.59C557.04 952.22 555.24 951.57 553.43 951.03C552.61 950.79 551.81 950.47 550.98 950.3C549.94 950.08 549.1 950.49 548.69 951.4C547.97 953.03 547.34 954.69 547.32 956.53C547.3 957.42 547.65 958.13 548.46 958.61C549.12 959.01 549.77 959.45 550.49 959.7C551.86 960.19 553.25 960.67 554.66 960.93C557.44 961.45 560.07 962.38 562.73 963.24C564.09 963.68 565.38 964.36 566.68 965C567.58 965.44 567.85 966.1 567.65 967.06C567.63 967.15 567.62 967.23 567.59 967.32C566.93 969.44 566.29 971.58 565.61 973.7C565.29 974.7 564.49 975.12 563.39 974.9C562.71 974.76 562.05 974.54 561.39 974.36C560.34 974.09 559.29 973.74 558.23 973.56C554.6 972.93 551.16 971.74 547.84 970.14C546.87 969.67 545.8 969.34 544.75 969.1C543.45 968.8 542.33 969.25 541.89 970.35C540.77 973.15 539.47 975.9 539.18 978.99C539.1 979.9 539.36 980.62 540.27 981.11C541.53 981.77 542.77 982.47 544.1 982.96C547.26 984.14 553.7 986.1 553.72 986.04C557.19 987.21 560.67 988.33 564.16 989.42C564.45 989.51 564.8 989.58 564.99 989.77V989.76Z" fill="white"/>
<path d="M611.67 996.13C611.67 997.4 611.19 998.55 610.36 999.58C608.46 1001.93 606.29 1004.07 603.88 1006.02C602.46 1007.16 600.77 1007.87 598.76 1008C597.34 1008.1 595.94 1008.33 594.52 1008.41C593.61 1008.45 592.63 1008.49 591.77 1008.23C587.81 1007.03 583.91 1005.61 580.47 1003.4C578.66 1002.24 577.17 1000.84 576.21 999C575.56 997.76 574.55 996.65 573.81 995.43C573.28 994.54 572.84 993.6 572.52 992.65C572.27 991.91 572.83 991.21 573.64 991.04C576.9 990.35 580.16 989.66 583.36 988.87C584.48 988.59 585.31 988.88 585.95 989.74C586.64 990.66 587.33 991.57 587.93 992.53C589.18 994.59 591.19 995.51 593.63 995.8C593.73 995.81 593.83 995.83 593.93 995.83C596.47 996 598.06 994.03 596.93 991.95C596.24 990.66 595.23 989.47 594.22 988.33C593.53 987.56 592.61 986.95 591.79 986.27C587.28 982.56 583.4 978.39 580.36 973.64C578.05 970.03 577.85 966.28 579.06 962.49C579.71 960.44 580.79 958.59 582.51 957.15C583.96 955.93 585.34 954.63 586.8 953.43C588.08 952.38 589.62 951.76 591.29 951.61C592.28 951.53 593.3 951.61 594.3 951.7C596.31 951.87 598.3 952.08 599.81 952.21C602.19 952.81 603.93 953.62 605.49 954.74C607.42 956.12 609.26 957.62 611.16 959.05C612.29 959.9 613.09 961.02 613.72 962.21C614.51 963.72 615.16 965.32 615.82 966.9C616.1 967.57 615.81 968.16 615.1 968.43C614.24 968.76 613.35 969.12 612.44 969.22C610.46 969.45 608.58 969.94 606.76 970.66C606.33 970.83 605.88 970.95 605.42 971.07C604.49 971.31 604 971.09 603.58 970.25C603.25 969.6 602.99 968.91 602.63 968.28C601.52 966.38 599.91 965.05 597.75 964.33C596.84 964.02 595.91 963.93 594.97 964.04C593.97 964.16 593.2 964.67 592.76 965.49C592.1 966.72 591.92 968.02 592.6 969.35C593.28 970.67 594.19 971.83 595.41 972.78C596.68 973.77 597.96 974.75 599.22 975.75C600.41 976.69 601.58 977.65 602.75 978.62C604.22 979.84 605.5 981.2 606.58 982.75C607.53 984.13 608.68 985.39 609.68 986.74C610.12 987.33 610.48 988 610.7 988.68C611.47 991.12 611.63 993.63 611.65 996.13H611.67Z" fill="white"/>
<path d="M656.62 962.29C658.98 962.76 659.07 962.89 658.85 965.35C658.68 967.12 658.52 968.9 658.36 970.67C658.32 971.11 658.3 971.56 658.24 972C658.1 972.97 657.58 973.5 656.61 973.46C655.02 973.39 653.44 973.23 651.86 973.07C650.37 972.92 648.89 972.67 647.4 972.54C646.24 972.44 645.36 973 645.08 974.05C644.78 975.17 644.55 976.31 644.45 977.46C643.95 983.14 642.86 988.75 642.49 994.44C642.03 998.24 641.58 1002.04 641.09 1005.84C640.78 1008.23 640.41 1010.6 640.06 1012.98C640.01 1013.33 639.98 1013.7 639.86 1014.03C639.1 1016.13 638.8 1016.25 636.34 1015.86C635.94 1015.79 635.52 1015.71 635.14 1015.58C633.56 1015.02 631.94 1014.9 630.28 1014.91C629.26 1014.92 628.23 1014.76 627.21 1014.58C626.2 1014.4 625.59 1013.71 625.6 1012.82C625.6 1012.11 625.7 1011.4 625.81 1010.7C626.22 1008.15 626.69 1005.61 627.08 1003.06C627.82 998.13 628.51 993.19 629.25 988.26C629.43 987.03 629.77 985.84 630.15 984.65C630.64 983.05 630.98 981.34 631 979.67C631.02 977.97 631.26 976.31 631.46 974.63C631.5 974.28 631.52 973.92 631.58 973.57C631.95 971.43 630.98 970.23 628.73 969.64C627.47 969.3 626.15 969.14 624.87 968.89C623.67 968.66 622.46 968.49 621.28 968.2C619.66 967.81 619.32 967.27 619.6 965.65C620 963.46 620.44 961.27 620.89 959.1C621.13 957.98 621.68 957.6 622.86 957.82C625.29 958.29 627.76 958.37 630.17 958.98C631.56 959.33 633.06 959.33 634.52 959.36C635.54 959.38 636.51 959.49 637.48 959.78C639.58 960.42 641.76 960.74 643.96 960.67C644.89 960.64 645.76 960.76 646.65 961.02C648.32 961.52 650.05 961.78 651.79 961.63C652.9 961.54 653.96 961.63 655.02 961.97C655.54 962.14 656.09 962.19 656.62 962.3V962.29Z" fill="white"/>
<path d="M700.17 1001.77C698.53 1003.08 697.84 1004.85 697.89 1006.83C697.92 1008.04 698.47 1008.64 699.83 1008.84C700.42 1008.93 701.04 1008.94 701.64 1008.91C702.34 1008.88 703.04 1008.77 703.74 1008.68C705.35 1008.47 706.95 1008.5 708.56 1008.66C711.98 1009.02 715.4 1009.02 718.79 1008.24C719.85 1008 720.99 1008.04 722.09 1008.01C722.68 1008 723.24 1008.49 723.3 1009.02C723.38 1009.64 723.49 1010.28 723.37 1010.89C723.05 1012.58 723.15 1014.28 723.21 1015.97C723.22 1016.42 723.24 1016.87 723.18 1017.31C723.11 1017.89 722.72 1018.33 722.06 1018.47C721.36 1018.62 720.64 1018.77 719.93 1018.76C717.43 1018.73 715 1019.1 712.57 1019.54C711.56 1019.72 710.54 1019.75 709.5 1019.72C705.99 1019.63 702.48 1019.6 698.98 1019.51C698.98 1019.53 698.98 1019.55 698.98 1019.57C697.23 1019.63 695.46 1019.61 693.72 1019.72C690.49 1019.93 687.35 1019.23 684.19 1018.84C683.39 1018.74 682.93 1018.27 682.72 1017.61C682.45 1016.75 682.2 1015.9 682.23 1014.98C682.34 1011.76 682.57 1008.56 683.18 1005.39C683.55 1003.46 684.14 1001.57 685.4 999.91C686.12 998.96 686.73 997.93 687.32 996.9C688.34 995.12 689.7 993.66 691.53 992.54C694.37 990.82 697.08 988.93 699.9 987.22C701.17 986.45 702.65 985.97 704.04 985.37C705.52 984.73 706.99 984.12 708.29 983.16C709.8 982.05 710.34 980.68 710.2 978.94C710.07 977.4 709.2 976.47 707.77 975.97C705.5 975.18 702.7 975.88 701.06 977.62C700.25 978.49 699.51 979.42 698.69 980.28C698.29 980.69 697.76 980.87 697.14 980.62C694.36 979.47 691.54 978.41 689.11 976.67C688.67 976.35 688.25 975.98 687.87 975.59C687.45 975.16 687.34 974.57 687.61 974.09C688.09 973.24 688.59 972.34 689.27 971.65C691.52 969.39 694.02 967.41 696.54 965.47C697.71 964.57 699.03 963.95 700.47 963.65C702.16 963.3 703.87 962.99 705.57 962.76C707.79 962.47 709.92 962.86 711.96 963.78C713.37 964.42 714.79 965.04 716.22 965.63C718.16 966.43 719.61 967.73 720.55 969.57C721.93 972.3 723.22 975.06 723.52 978.14C723.68 979.68 723.51 981.17 722.91 982.61C722.32 984.03 721.77 985.46 721.14 986.87C720.01 989.41 718.31 991.46 715.61 992.89C712.66 994.46 709.78 996.17 706.66 997.54C704.25 998.59 702.18 1000.16 700.17 1001.77Z" fill="white"/>
<path d="M734.14 1009.46C732.7 1007.59 731.98 1005.47 731.82 1003.2C731.61 1000.17 731.41 997.13 731.22 994.1C731.13 992.76 731.1 991.42 730.95 990.09C730.78 988.49 730.76 986.92 730.95 985.3C731.18 983.36 730.97 981.36 730.43 979.46C729.9 977.61 729.78 975.78 730.29 973.91C730.78 972.09 731.23 970.27 731.7 968.45C732.07 967.01 732.85 965.84 734.1 964.95C735.66 963.84 737.17 962.66 738.7 961.54C739.89 960.66 741.24 960.15 742.73 960.01C743.99 959.89 745.27 959.73 746.53 959.52C749.96 958.94 753.31 959.34 756.46 960.65C759.8 962.03 762.46 964.34 763.98 967.69C764.24 968.26 764.57 968.83 764.66 969.43C765.19 973.05 766.63 976.48 766.91 980.16C767.05 981.94 767.81 985.44 767.87 985.44C768.2 987.56 768.52 989.68 768.85 991.8C769.1 993.39 769.28 994.97 769.11 996.6C769 997.57 769.2 998.56 769.29 999.54C769.8 1004.6 767.65 1008.86 763.65 1012.55C762.62 1013.5 761.35 1014.16 759.96 1014.55C757.19 1015.33 754.4 1016.05 751.58 1016.67C750.59 1016.89 749.53 1016.94 748.5 1016.91C747.16 1016.87 745.84 1016.67 744.52 1016.55C741.64 1016.28 739.24 1015.21 737.42 1013.28C736.27 1012.06 735.15 1010.8 734.13 1009.49L734.14 1009.46ZM742.37 981.77C742.25 983.26 742.61 984.79 742.81 986.29C742.97 987.44 743.27 988.56 743.42 989.71C743.61 991.13 743.72 992.55 743.85 993.98C743.87 993.98 743.89 993.98 743.91 993.98C744.11 996.03 744.3 998.07 744.53 1000.12C744.75 1002.02 745.98 1003.39 747.63 1004.46C748.35 1004.93 749.21 1005.18 750.15 1005.19C753.18 1005.25 757.2 1002.49 756.68 999.02C756.49 997.69 756.19 996.39 755.99 995.07C755.68 993.04 755.29 991.02 755.16 988.98C755.04 987.12 755.29 985.24 755.24 983.37C755.21 982.31 754.95 981.25 754.74 980.2C754.56 979.24 754.3 978.29 754.12 977.34C753.99 976.64 753.94 975.92 753.81 975.22C753.5 973.4 752.4 972.14 750.67 971.4C748.57 970.5 746.48 970.72 744.42 971.59C743.53 971.97 742.95 972.68 742.58 973.55C742.21 974.4 742.16 975.28 742.24 976.18C742.4 978.04 742.51 979.9 742.36 981.79L742.37 981.77Z" fill="white"/>
<path d="M792.62 992.17C791.27 993.78 790.94 995.65 791.38 997.58C791.65 998.76 792.31 999.24 793.69 999.17C794.29 999.14 794.9 999.02 795.49 998.88C796.18 998.71 796.84 998.47 797.52 998.24C799.06 997.72 800.64 997.42 802.27 997.26C805.71 996.93 809.09 996.24 812.28 994.8C813.27 994.35 814.41 994.16 815.49 993.91C816.07 993.78 816.72 994.15 816.89 994.66C817.08 995.25 817.33 995.86 817.33 996.47C817.35 998.2 817.78 999.84 818.18 1001.48C818.28 1001.91 818.38 1002.36 818.41 1002.8C818.45 1003.39 818.16 1003.89 817.53 1004.16C816.87 1004.45 816.18 1004.74 815.48 1004.88C813.01 1005.35 810.68 1006.2 808.37 1007.12C807.41 1007.5 806.41 1007.73 805.38 1007.91C801.91 1008.52 798.44 1009.2 794.97 1009.8C794.97 1009.82 794.97 1009.84 794.97 1009.86C793.26 1010.27 791.52 1010.6 789.82 1011.06C786.67 1011.91 783.46 1011.85 780.27 1012.1C779.46 1012.16 778.92 1011.79 778.58 1011.19C778.14 1010.4 777.73 1009.62 777.58 1008.71C777.06 1005.54 776.64 1002.35 776.61 999.12C776.59 997.15 776.8 995.19 777.7 993.31C778.22 992.23 778.61 991.1 778.99 989.98C779.64 988.04 780.68 986.33 782.27 984.87C784.72 982.62 787.02 980.23 789.45 977.99C790.55 976.98 791.91 976.22 793.16 975.35C794.49 974.43 795.82 973.54 796.91 972.33C798.16 970.94 798.43 969.49 797.95 967.81C797.52 966.33 796.48 965.59 794.97 965.38C792.58 965.06 789.95 966.3 788.68 968.34C788.05 969.35 787.51 970.42 786.87 971.43C786.56 971.92 786.07 972.2 785.41 972.07C782.45 971.5 779.46 971.02 776.73 969.8C776.23 969.58 775.75 969.29 775.3 968.99C774.8 968.65 774.58 968.1 774.75 967.57C775.05 966.63 775.36 965.66 775.9 964.84C777.66 962.18 779.73 959.73 781.82 957.33C782.8 956.21 783.98 955.34 785.33 954.76C786.93 954.08 788.55 953.43 790.18 952.87C792.31 952.14 794.49 952.1 796.68 952.59C798.19 952.93 799.73 953.26 801.25 953.55C803.32 953.94 805.02 954.93 806.3 956.55C808.21 958.95 810.02 961.4 810.94 964.36C811.4 965.84 811.53 967.33 811.22 968.87C810.91 970.38 810.66 971.89 810.32 973.4C809.71 976.12 808.43 978.46 806.05 980.41C803.44 982.54 800.95 984.79 798.15 986.75C795.99 988.26 794.25 990.22 792.6 992.19L792.62 992.17Z" fill="white"/>
<path d="M823.45 967.39C824.7 964.13 825.84 960.85 827.12 957.62C828.1 955.15 828.87 952.64 829.54 950.09C830 948.34 830.59 946.62 831.18 944.91C831.68 943.47 832.6 942.43 834.16 941.91C835.47 941.47 836.69 940.79 837.98 940.26C838.57 940.02 839.21 939.9 839.84 939.76C842.09 939.25 844.4 938.96 846.56 938.03C848.13 937.35 848.78 937.82 849.55 939.03C850.03 939.78 850.3 940.65 850.64 941.48C850.88 942.06 851.08 942.65 851.52 943.8C851.95 944.99 852.52 946.75 852.85 948.62C853.32 951.27 854.34 953.79 855.63 956.14C856.59 957.88 857.29 959.7 858.07 961.5C858.39 962.24 858.69 962.99 859.1 963.68C859.55 964.43 860.34 964.77 861.3 964.65C862.47 964.49 863.64 964.24 864.81 963.99C866.04 963.73 866.91 964.14 867.55 965.01C867.81 965.37 867.98 965.79 868.2 966.18C868.77 967.18 869.36 968.19 869.94 969.19C870.03 969.34 870.12 969.5 870.2 969.66C871.12 971.6 870.54 973.18 868.38 974.32C867.58 974.75 866.69 975.04 865.86 975.42C864.16 976.2 863.57 977.26 864.06 978.81C864.47 980.09 865.05 981.3 865.47 982.58C866.03 984.27 866.73 985.93 866.7 987.79C866.68 988.39 866.41 988.86 865.8 989.19C863.33 990.56 860.81 991.82 858.05 992.54C857.64 992.65 857.24 992.76 856.83 992.82C855.6 993 854.61 992.75 854.11 991.7C853.76 990.97 853.32 990.29 853.02 989.55C852.45 988.14 851.97 986.7 851.44 985.27C851.22 984.68 851.06 984.07 850.76 983.52C850.09 982.32 849.02 981.72 847.41 981.88C845.87 982.03 844.41 982.45 843.03 983.1C841.08 984.01 839.08 984.57 836.98 985.05C834.22 985.69 831.52 986.59 828.84 987.53C827.19 988.12 825.51 988.3 823.83 988.57C823.17 988.68 822.6 988.35 822.39 987.85C821.23 985.15 819.74 982.52 819.91 979.45C819.96 978.48 820.24 977.49 820.54 976.54C821.37 973.92 822.25 971.31 823.08 968.69C823.22 968.25 823.31 967.8 823.47 967.38L823.45 967.39ZM834.88 972.24C834.98 973.36 835.93 973.99 837.12 973.69C838.17 973.43 839.2 973.04 840.23 972.71C841.07 972.44 841.93 972.18 842.77 971.87C843.42 971.63 844.07 971.36 844.66 971.03C845.9 970.34 846.16 969.75 845.83 968.52C845.62 967.75 845.32 967 845.07 966.24C844.53 964.64 843.98 963.07 843.74 961.36C843.54 959.88 842.88 958.46 842.28 957.08C841.84 956.08 840.4 956.02 839.68 956.92C839.28 957.42 839.01 958.02 838.75 958.6C837 962.49 836.32 966.63 834.99 970.64C834.82 971.14 834.83 971.72 834.88 972.24Z" fill="white"/>
<path d="M320.9 665.44C321.42 670.58 321.29 675.79 321.33 680.97C321.34 682.69 319.92 683.96 318.09 684.1C316.68 684.21 315.26 684.2 313.85 684.17C307.25 684 300.64 683.68 294.1 685C293.19 685.18 292.22 685.08 291.28 685C289.72 684.87 288.69 683.99 288.14 682.55C286.85 679.15 286.6 675.58 287.24 672.09C288.61 664.6 288.61 657.07 288.29 649.54C287.99 642.26 287.34 634.99 286.88 627.7C286.71 625.02 285.38 623.37 282.87 622.5C275.61 619.99 268.12 619.45 260.55 620.09C256.88 620.41 254.67 622.79 253.75 626.35C251.72 634.22 251.37 642.13 252.87 650.14C253.3 652.44 253.53 654.8 253.53 657.14C253.55 663.27 253.43 669.4 253.29 675.53C253.25 677.16 253.11 678.82 252.78 680.43C251.95 684.45 251.04 685.19 247.12 685.24C244.05 685.28 240.99 685.24 237.92 685.24V684.97C234.14 684.97 230.36 685.11 226.6 684.93C222.66 684.74 221.27 683.31 220.51 679.35C220.42 678.89 220.37 678.42 220.34 677.95C219.89 670.91 219.37 663.86 219.04 656.81C218.87 653.28 219.3 649.79 219.73 646.26C220.9 636.64 220.71 626.96 219.52 617.34C218.99 613.09 218.94 608.95 219.61 604.7C220.75 597.45 220.65 590.12 220.14 582.82C219.79 577.87 219.85 572.95 220.1 568C220.39 562.35 220.28 556.68 220.46 551.03C220.54 548.45 220.95 545.89 221.13 543.31C221.33 540.4 223.26 539.28 225.74 538.81C227.12 538.55 228.56 538.55 229.96 538.44C234.42 538.09 238.88 537.71 243.35 537.39C244.75 537.29 246.18 537.15 247.57 537.32C250.87 537.71 251.9 538.85 252.71 542.12C253.58 545.62 253.73 549.21 253.12 552.65C252.28 557.35 252.36 562.03 252.3 566.74C252.24 571.92 252.27 577.11 252.3 582.3C252.3 583.95 252.28 585.62 252.57 587.23C253.03 589.75 254.57 591.57 257.13 592.05C262.46 593.04 267.81 593.83 273.26 592.69C276.25 592.07 279.33 591.84 282.31 591.19C287.35 590.1 288.25 588.99 288.38 584.12C288.43 582 288.34 579.88 288.3 577.76C288.2 572.81 288.4 567.93 289.07 562.98C289.76 557.88 289.33 552.63 289.37 547.45C289.38 545.8 289.21 544.15 289.32 542.51C289.49 539.99 290.85 538.64 293.34 538.45C295.69 538.28 298.05 538.28 300.4 538.11C302.51 537.95 304.61 537.59 306.72 537.45C309.54 537.27 312.37 537.03 315.18 537.14C319.1 537.29 320.61 538.82 321.1 542.76C321.24 543.91 321.33 545.15 321.08 546.27C320.06 550.7 320.31 555.19 320.29 559.66C320.25 566.5 319.82 573.4 320.54 580.16C321.41 588.4 321.26 596.62 321.29 604.86C321.3 607.67 320.85 610.48 320.66 613.29C320.5 615.64 320.28 618 320.31 620.35C320.4 628.35 319.76 636.37 321.2 644.34C321.44 645.69 321.23 647.17 320.99 648.55C320.01 654.18 320.3 659.76 320.89 665.43H320.91L320.9 665.44Z" fill="white"/>
<path d="M373.35 627.04C373.73 629.08 373.89 631.39 373.33 633.35C371.35 640.37 372.26 647.39 372.88 654.41C373.04 656.29 373.02 658.08 372.92 659.97C372.57 666.08 372.6 672.22 372.45 678.34C372.41 679.98 372.45 681.66 372.1 683.24C371.93 683.97 370.94 684.96 370.25 685.02C367.92 685.22 365.51 685.38 363.23 684.96C358.52 684.1 353.89 684.01 349.21 685.03C347.85 685.33 346.39 685.27 344.99 685.26C342.16 685.23 340.62 683.93 340.44 680.99C340.23 677.46 340.3 673.92 340.29 670.39C340.27 662.84 340.29 655.3 340.29 647.76V625.84C340.41 625.84 340.46 593.79 340.1 577.77C339.96 571.43 339.96 565.12 340.36 558.8C340.62 554.58 340.28 550.32 340.24 546.08C340.23 544.9 340.24 543.72 340.34 542.55C340.57 539.85 341.88 538.07 344.55 537.61C346.85 537.22 349.32 536.91 351.57 537.32C356.7 538.24 361.83 538.75 367.03 538.72C367.72 538.72 368.44 538.88 369.1 539.1C370.79 539.65 371.98 540.75 372.17 542.6C372.34 544.24 372.37 545.89 372.41 547.54C372.62 555.27 373.53 562.97 372.57 570.74C372.03 575.14 372.71 579.64 373.1 584.11C373.63 590.18 373.48 596.36 373.05 602.45C372.47 610.68 371.81 618.85 373.35 627.06H373.36L373.35 627.04Z" fill="white"/>
<path d="M505.11 680.45C505.88 681.76 504.91 683.38 503.38 683.55C502.91 683.6 502.44 683.69 501.97 683.68C494.19 683.49 486.42 683.28 478.68 684.51C474.75 685.14 471.83 683.38 469.95 679.89C469.17 678.44 468.35 677.01 467.64 675.52C465.79 671.68 463.7 668.03 460.72 664.91C459.59 663.73 458.61 662.34 457.86 660.89C456.02 657.31 453.73 654.06 451.38 650.8C449.75 648.53 448.58 645.9 447.41 643.33C444.74 637.5 441.07 632.31 437.3 627.18C436.33 625.86 435.17 624.64 433.92 623.58C430.47 620.65 425.44 622.46 424.64 626.85C424.56 627.31 424.47 627.79 424.49 628.25C424.85 638.85 422.54 649.35 423.28 659.96C423.48 662.77 423.56 665.56 424.06 668.37C424.63 671.57 424.55 674.97 424.17 678.21C423.82 681.19 422.14 683.46 418.69 683.7C416.82 683.83 414.9 684.5 413.11 684.22C407.71 683.37 402.3 683.55 396.87 683.62C396.17 683.63 395.46 683.61 394.75 683.54C393.59 683.42 392.51 682.38 392.46 681.21C392.38 679.56 392.33 677.91 392.42 676.26C392.97 665.89 392.71 655.59 391.68 645.22C390.8 636.34 391.38 627.32 391.32 618.37C393.62 607.15 391.76 595.8 392.35 584.54C392.42 583.14 392.32 581.69 392 580.33C391.39 577.74 391.77 575.24 392 572.64C392.61 565.85 392.91 559.06 391.66 552.24C391.03 548.82 391.22 545.2 391.41 541.69C391.56 538.89 393.29 537.72 396.22 537.72H426.64C426.64 537.8 445.04 538.02 454.23 537.96C459.27 537.92 464.06 538.91 468.62 541.01C472.04 542.58 475.49 544.12 478.81 545.87C483.77 548.49 487.35 552.53 489.79 557.52C491.64 561.33 493.36 565.21 494.87 569.17C495.53 570.89 495.72 572.85 495.77 574.71C495.91 580.16 495.39 585.52 493.39 590.67C492.54 592.87 491.67 595.06 491 597.32C489.17 603.49 485.23 608.03 480.11 611.66C477.81 613.29 475.38 614.75 472.98 616.24C468.15 619.23 467.35 621.74 470.21 626.73C472.19 630.2 474.37 633.61 476.91 636.68C481.15 641.81 484.84 647.15 487.29 653.41C488.29 655.96 490.13 658.34 492.04 660.36C497.65 666.28 501.07 673.56 505.13 680.45H505.11ZM454.65 573.07C454.46 570.27 452.79 568.26 450.21 567.24C448.71 566.64 447.07 566.26 445.46 566.11C443.37 565.92 441.24 566.06 439.13 566.06C437.02 566.06 434.91 566.04 432.8 566.07C432.1 566.08 431.39 566.18 430.71 566.32C426.3 567.21 423.9 570.04 423.44 574.59C423.06 578.42 424.11 582.03 424.91 585.68C425.39 587.88 427.08 589.42 429.19 589.99C435.38 591.67 441.65 592.24 447.92 590.36C451.93 589.16 454.22 586.26 454.66 582.21C454.99 579.2 454.87 576.11 454.66 573.08L454.65 573.07Z" fill="white"/>
<path d="M611.62 656.34C612.37 656.76 613 657.48 613.55 658.18C613.81 658.51 613.83 659.08 613.83 659.54C613.81 666.15 613.84 672.76 613.69 679.36C613.61 682.8 611.95 684.44 608.54 684.97C607.84 685.08 607.13 685.11 606.42 685.11C597.93 685.16 589.43 685.21 580.93 685.24C577.39 685.24 573.85 685.16 570.31 685.16C565.6 685.16 560.88 685.54 556.22 684.38C555.1 684.1 553.87 684.12 552.69 684.17C547.75 684.4 542.78 685.17 537.88 684.83C532.93 684.49 528.01 683.94 523.07 684.51C521.12 684.74 519.31 684.55 517.5 683.95C515.53 683.29 514.46 681.82 513.9 679.91C513.83 679.68 513.83 679.44 513.82 679.21C513.41 671.47 511.61 663.8 512.41 655.98C512.74 652.71 513.37 649.45 513.47 646.17C513.74 637.45 513.92 628.72 513.93 620C513.94 610.8 513.64 601.6 513.64 592.39C513.64 584.13 513.97 575.87 513.93 567.62C513.89 559.6 513.55 551.59 513.38 543.57C513.28 538.79 515.1 536.67 519.57 537.35C528.98 538.81 538.42 537.96 547.84 538.23C551.14 538.33 554.44 538.47 557.75 538.43C562.7 538.37 567.71 538.6 572.59 537.93C581.31 536.72 590.03 537.29 598.74 537.27C602 537.26 605.29 538.02 608.52 538.68C610.47 539.07 611.84 540.42 612.31 542.46C613.76 548.71 614.18 555.03 613.76 561.42C613.71 562.12 613.59 562.85 613.32 563.49C612.76 564.84 611.89 565.98 610.31 566.18C608.68 566.38 607.02 566.44 605.38 566.57C602.33 566.81 599.28 567.18 596.22 567.28C593.17 567.38 590.09 567.45 587.06 567.12C581.63 566.54 576.27 566.52 570.84 567.23C566.18 567.84 561.43 567.77 556.72 567.99C554.6 568.09 552.46 568.03 550.37 568.34C547.75 568.73 546.13 570.48 545.95 573.12C545.63 577.83 545.58 582.54 547.04 587.13C547.74 589.35 549.11 590.82 551.38 591.31C553.22 591.71 555.08 592.24 556.93 592.25C560.47 592.27 564.05 592.29 567.52 591.74C574.34 590.68 581.17 590.85 588 590.9C591.5 590.92 595.02 591.62 598.49 592.22C600.92 592.64 602 594.12 602.22 596.68C602.24 596.91 602.26 597.15 602.26 597.38C602.24 603.27 602.25 609.17 602.16 615.07C602.12 617.85 600.6 619.53 597.92 619.82C596.28 620 594.62 619.94 592.97 620.03C590.38 620.17 587.76 620.14 585.2 620.54C576.5 621.89 567.84 621.79 559.13 620.65C556.59 620.32 553.93 620.44 551.38 620.77C548.21 621.19 546.1 623.29 545.99 626.43C545.73 634.42 545.06 642.45 546.88 650.39C547.42 652.73 548.54 654.3 550.92 654.69C554.17 655.22 557.43 655.9 560.7 655.97C568.49 656.16 584.08 655.77 584.08 655.65C592.56 655.78 601.04 655.91 609.52 656.05C610.22 656.06 611.03 656 611.6 656.31L611.62 656.34Z" fill="white"/>
<path d="M823.68 675.92C823.84 677.32 823.75 678.75 823.61 680.16C823.45 681.84 822.2 683.26 820.47 683.52C815.58 684.27 810.68 684.89 806.79 685.42C803.62 685.22 801.49 685.12 799.37 684.95C795.96 684.68 793.43 683.06 792.71 679.64C790.56 669.3 786.85 659.27 786.24 648.6C786.13 646.73 785.84 644.84 785.35 643.04C783.86 637.59 782.24 632.18 780.64 626.76C780.44 626.09 780.27 625.34 779.85 624.83C779.28 624.14 778.55 623.33 777.76 623.14C776.44 622.84 775.48 623.88 775.09 624.99C773.24 630.32 770.85 635.52 770.22 641.19C769.66 646.13 768.49 650.91 767.34 655.71C765.81 662.12 764.46 668.56 763 674.99C762.48 677.29 761.99 679.6 761.25 681.83C760.61 683.77 759.12 685.03 757.01 685C749.24 684.87 741.44 685.46 733.73 683.9C731.46 683.44 729.75 682.36 728.87 680.24C728.06 678.3 727.19 676.31 726.81 674.26C725.55 667.56 724.22 660.86 723.45 654.09C722.37 644.65 718.88 635.85 716.71 626.71C716.35 625.17 715.47 623.69 714.59 622.33C713.7 620.95 711.26 621.24 710.38 622.74C709.92 623.55 709.4 624.4 709.26 625.29C708.73 628.78 708.38 632.29 707.89 635.79C707.47 638.81 707.17 641.88 706.43 644.83C704.37 653.06 703.38 661.47 701.89 669.81C701.23 673.5 700.21 677.13 699.23 680.76C698.76 682.5 697.45 683.58 695.62 683.67C687.88 684.01 680.14 685.05 672.39 683.77C671.69 683.66 670.88 683.65 670.36 683.26C669.67 682.74 668.74 681.91 668.73 681.2C668.7 678.62 668.82 676.01 669.24 673.47C670 668.84 671.05 664.24 671.92 659.62C672.27 657.78 672.67 655.91 672.65 654.05C672.58 647.6 673.89 641.39 675.96 635.36C677.52 630.86 678.62 626.33 678.53 621.56C678.46 617.73 679.69 614.13 680.58 610.48C681.41 607.05 682.49 603.67 683.34 600.25C683.79 598.44 684.2 596.57 684.29 594.71C684.71 586.69 685.97 578.85 688.01 571.05C690.44 561.73 692.14 552.22 694.11 542.78C694.81 539.45 695.83 538.32 699.29 538.16C703.77 537.95 708.26 537.87 712.74 537.91C716.27 537.94 719.81 538.22 723.34 538.38C724.52 538.43 725.7 538.42 726.87 538.54C730.82 538.96 733.38 541.05 734.38 544.94C734.55 545.63 734.7 546.32 734.79 547.02C735.82 554.95 738.27 562.6 739.17 570.56C739.8 576.16 740.87 581.71 741.78 587.27C741.89 587.96 742.14 588.64 742.45 589.26C743.03 590.39 744.05 591.15 745.29 590.97C746.11 590.85 747.26 590.28 747.56 589.6C748.68 587.02 749.72 584.37 750.41 581.66C751.16 578.7 751.7 575.66 751.95 572.62C752.33 568.11 753.53 563.84 754.89 559.56C756.39 554.86 758.2 550.22 758.15 545.15C758.15 544.24 758.61 543.33 758.79 542.41C759.25 539.99 760.81 538.73 763.13 538.43C767.34 537.89 771.56 537.46 775.78 537.02C776.71 536.92 777.67 536.92 778.61 537C783.31 537.35 788.01 537.71 792.71 538.12C795.51 538.36 796.44 539.27 796.97 541.94C799.05 552.32 801.1 562.7 803.25 573.06C804.2 577.66 805.42 582.21 806.37 586.81C806.75 588.64 806.93 590.55 806.92 592.42C806.88 597.94 808.18 603.16 810.16 608.24C811.54 611.78 812.31 615.42 812.6 619.22C812.83 622.26 813.17 625.33 813.88 628.28C815.91 636.74 817.04 645.39 819.62 653.73C821.22 658.9 822.08 664.26 822.63 669.66C822.84 671.76 823.43 673.82 823.66 675.91L823.68 675.92Z" fill="white"/>
<path d="M947.09 612.15C947.42 615.91 947.17 619.62 946.23 623.36C945.32 626.99 945.23 630.82 944.6 634.53C944.33 636.13 943.72 637.69 943.09 639.19C941.36 643.32 939.38 647.34 937.79 651.53C935.75 656.91 932.75 661.71 929.02 665.97C926.88 668.41 924.17 670.46 921.41 672.23C916.05 675.66 910.59 678.96 904.96 681.92C902.08 683.43 898.83 684.57 895.63 685.03C887.86 686.12 880.28 685.5 872.66 682.86C862.8 679.44 854.87 673.47 847.12 666.81C841.02 661.57 836.7 655.37 834.26 647.75C832.61 642.6 830.75 637.5 828.95 632.39C827.05 627 826.59 621.35 826.13 615.72C825.96 613.61 826.1 611.48 826.1 609.36C825.64 603.91 826.05 598.54 827.52 593.25C828.59 589.4 829.52 585.5 830.56 581.64C831.55 577.97 833.05 574.55 835.31 571.45C839.49 565.74 843.59 559.98 847.74 554.25C849.55 551.74 851.83 549.79 854.44 548.07C861.6 543.38 869.08 539.57 877.53 537.74C881.27 536.93 884.93 536.54 888.74 537.1C897.44 538.38 905.74 541.02 913.81 544.33C918.44 546.23 922.4 549.15 925.32 553.4C928.25 557.67 931.5 561.73 934.45 566C935.92 568.12 937.06 570.46 938.24 572.76C939.85 575.9 941.29 579.12 942.92 582.26C943.8 583.96 944.49 585.65 944.67 587.58C945.44 595.78 946.35 603.97 947.08 612.17L947.09 612.15ZM913.9 602.85C914.72 597.76 912.19 591.06 908.03 584.8C906.73 582.84 905.51 580.83 904.28 578.82C901.44 574.17 897.13 571.42 892.18 569.56C885.44 567.03 879.12 568.1 873.51 572.45C866.55 577.85 862.06 584.78 860.96 593.74C860.31 599.09 859.18 604.39 858.54 609.74C858.18 612.74 857.97 615.9 858.49 618.84C859.28 623.21 860.66 627.49 862.02 631.73C862.66 633.71 863.71 635.61 864.83 637.38C866.46 639.96 868.32 642.4 870.1 644.89C875.12 651.91 883.01 654.6 891.25 652.08C896.59 650.45 901.11 647.68 904.22 642.9C905.38 641.13 906.64 639.42 907.79 637.64C909.45 635.05 910.67 632.33 911.2 629.22C912.57 621.34 913.39 613.42 913.88 602.85H913.9Z" fill="white"/>
<path d="M1073.1 680.45C1073.87 681.76 1072.9 683.38 1071.37 683.55C1070.9 683.6 1070.43 683.69 1069.96 683.68C1062.18 683.49 1054.41 683.28 1046.67 684.51C1042.74 685.14 1039.82 683.38 1037.94 679.89C1037.16 678.44 1036.34 677.01 1035.63 675.52C1033.78 671.68 1031.69 668.03 1028.71 664.91C1027.58 663.73 1026.6 662.34 1025.85 660.89C1024.01 657.31 1021.72 654.06 1019.37 650.8C1017.74 648.53 1016.57 645.9 1015.4 643.33C1012.73 637.5 1009.06 632.31 1005.29 627.18C1004.32 625.86 1003.16 624.64 1001.91 623.58C998.46 620.65 993.43 622.46 992.63 626.85C992.55 627.31 992.46 627.79 992.48 628.25C992.84 638.85 990.53 649.35 991.27 659.96C991.47 662.77 991.55 665.56 992.05 668.37C992.62 671.57 992.54 674.97 992.16 678.21C991.81 681.19 990.13 683.46 986.68 683.7C984.81 683.83 982.89 684.5 981.1 684.22C975.7 683.37 970.29 683.55 964.86 683.62C964.16 683.63 963.45 683.61 962.74 683.54C961.58 683.42 960.5 682.38 960.45 681.21C960.37 679.56 960.32 677.91 960.41 676.26C960.96 665.89 960.7 655.59 959.67 645.22C958.79 636.34 959.37 627.32 959.31 618.37C961.61 607.15 959.75 595.8 960.34 584.54C960.41 583.14 960.31 581.69 959.99 580.33C959.38 577.74 959.76 575.24 959.99 572.64C960.6 565.85 960.9 559.06 959.65 552.24C959.02 548.82 959.21 545.2 959.4 541.69C959.55 538.89 961.28 537.72 964.21 537.72H994.63C994.63 537.8 1013.03 538.02 1022.22 537.96C1027.26 537.92 1032.05 538.91 1036.61 541.01C1040.03 542.58 1043.48 544.12 1046.8 545.87C1051.76 548.49 1055.34 552.53 1057.78 557.52C1059.63 561.33 1061.35 565.21 1062.86 569.17C1063.52 570.89 1063.71 572.85 1063.76 574.71C1063.9 580.16 1063.38 585.52 1061.38 590.67C1060.53 592.87 1059.66 595.06 1058.99 597.32C1057.16 603.49 1053.22 608.03 1048.1 611.66C1045.8 613.29 1043.37 614.75 1040.97 616.24C1036.14 619.23 1035.34 621.74 1038.2 626.73C1040.18 630.2 1042.36 633.61 1044.9 636.68C1049.14 641.81 1052.83 647.15 1055.28 653.41C1056.28 655.96 1058.12 658.34 1060.03 660.36C1065.64 666.28 1069.06 673.56 1073.12 680.45H1073.1ZM1022.64 573.07C1022.45 570.27 1020.78 568.26 1018.2 567.24C1016.7 566.64 1015.06 566.26 1013.45 566.11C1011.36 565.92 1009.23 566.06 1007.12 566.06C1005.01 566.06 1002.9 566.04 1000.79 566.07C1000.09 566.08 999.38 566.18 998.7 566.32C994.29 567.21 991.89 570.04 991.43 574.59C991.05 578.42 992.1 582.03 992.9 585.68C993.38 587.88 995.07 589.42 997.18 589.99C1003.37 591.67 1009.64 592.24 1015.91 590.36C1019.92 589.16 1022.21 586.26 1022.65 582.21C1022.98 579.2 1022.86 576.11 1022.65 573.08L1022.64 573.07Z" fill="white"/>
<path d="M1179.61 656.34C1180.36 656.76 1180.99 657.48 1181.54 658.18C1181.8 658.51 1181.82 659.08 1181.82 659.54C1181.8 666.15 1181.83 672.76 1181.68 679.36C1181.6 682.8 1179.94 684.44 1176.53 684.97C1175.83 685.08 1175.12 685.11 1174.41 685.11C1165.92 685.16 1157.42 685.21 1148.92 685.24C1145.38 685.24 1141.84 685.16 1138.3 685.16C1133.59 685.16 1128.87 685.54 1124.21 684.38C1123.09 684.1 1121.86 684.12 1120.68 684.17C1115.74 684.4 1110.77 685.17 1105.87 684.83C1100.92 684.49 1096 683.94 1091.06 684.51C1089.11 684.74 1087.3 684.55 1085.49 683.95C1083.52 683.29 1082.45 681.82 1081.89 679.91C1081.82 679.68 1081.82 679.44 1081.81 679.21C1081.4 671.47 1079.6 663.8 1080.4 655.98C1080.73 652.71 1081.36 649.45 1081.46 646.17C1081.73 637.45 1081.91 628.72 1081.92 620C1081.93 610.8 1081.63 601.6 1081.63 592.39C1081.63 584.13 1081.96 575.87 1081.92 567.62C1081.88 559.6 1081.54 551.59 1081.37 543.57C1081.27 538.79 1083.09 536.67 1087.56 537.35C1096.97 538.81 1106.41 537.96 1115.83 538.23C1119.13 538.33 1122.43 538.47 1125.74 538.43C1130.69 538.37 1135.7 538.6 1140.58 537.93C1149.3 536.72 1158.02 537.29 1166.73 537.27C1169.99 537.26 1173.28 538.02 1176.51 538.68C1178.46 539.07 1179.83 540.42 1180.3 542.46C1181.75 548.71 1182.17 555.03 1181.75 561.42C1181.7 562.12 1181.58 562.85 1181.31 563.49C1180.75 564.84 1179.88 565.98 1178.3 566.18C1176.67 566.38 1175.01 566.44 1173.37 566.57C1170.32 566.81 1167.27 567.18 1164.21 567.28C1161.16 567.38 1158.08 567.45 1155.05 567.12C1149.62 566.54 1144.26 566.52 1138.83 567.23C1134.17 567.84 1129.42 567.77 1124.71 567.99C1122.59 568.09 1120.45 568.03 1118.36 568.34C1115.74 568.73 1114.12 570.48 1113.94 573.12C1113.62 577.83 1113.57 582.54 1115.03 587.13C1115.73 589.35 1117.1 590.82 1119.37 591.31C1121.21 591.71 1123.07 592.24 1124.92 592.25C1128.46 592.27 1132.04 592.29 1135.51 591.74C1142.33 590.68 1149.16 590.85 1155.99 590.9C1159.49 590.92 1163.01 591.62 1166.48 592.22C1168.91 592.64 1169.99 594.12 1170.21 596.68C1170.23 596.91 1170.25 597.15 1170.25 597.38C1170.23 603.27 1170.24 609.17 1170.15 615.07C1170.11 617.85 1168.59 619.53 1165.91 619.82C1164.27 620 1162.61 619.94 1160.96 620.03C1158.37 620.17 1155.75 620.14 1153.19 620.54C1144.49 621.89 1135.83 621.79 1127.12 620.65C1124.58 620.32 1121.92 620.44 1119.37 620.77C1116.2 621.19 1114.09 623.29 1113.98 626.43C1113.72 634.42 1113.05 642.45 1114.87 650.39C1115.41 652.73 1116.53 654.3 1118.91 654.69C1122.16 655.22 1125.42 655.9 1128.69 655.97C1136.48 656.16 1152.07 655.77 1152.07 655.65C1160.55 655.78 1169.03 655.91 1177.51 656.05C1178.21 656.06 1179.02 656 1179.59 656.31L1179.61 656.34Z" fill="white"/>
<path d="M436.95 864.43C437.08 865.61 437.01 866.83 436.89 868.02C436.75 869.45 435.69 870.65 434.22 870.87C430.07 871.5 425.91 872.03 422.61 872.48C419.92 872.31 418.11 872.23 416.32 872.09C413.43 871.86 411.28 870.49 410.67 867.58C408.85 858.8 405.7 850.29 405.18 841.24C405.09 839.66 404.84 838.05 404.42 836.52C403.15 831.9 401.78 827.31 400.43 822.71C400.26 822.14 400.12 821.51 399.76 821.07C399.28 820.48 398.66 819.79 397.98 819.64C396.86 819.38 396.05 820.27 395.72 821.21C394.15 825.73 392.13 830.15 391.59 834.95C391.12 839.14 390.12 843.2 389.15 847.28C387.85 852.72 386.71 858.19 385.47 863.64C385.03 865.59 384.61 867.55 383.99 869.44C383.45 871.09 382.18 872.16 380.39 872.13C373.8 872.02 367.18 872.52 360.63 871.19C358.71 870.8 357.25 869.88 356.51 868.09C355.83 866.44 355.09 864.76 354.76 863.02C353.69 857.34 352.56 851.65 351.9 845.91C350.98 837.9 348.02 830.44 346.18 822.68C345.87 821.37 345.13 820.11 344.38 818.96C343.62 817.79 341.55 818.04 340.81 819.31C340.42 819.99 339.98 820.72 339.86 821.48C339.41 824.44 339.12 827.42 338.7 830.39C338.34 832.96 338.09 835.56 337.46 838.06C335.71 845.05 334.87 852.18 333.6 859.25C333.04 862.38 332.17 865.46 331.34 868.54C330.94 870.02 329.83 870.93 328.27 871.01C321.7 871.3 315.13 872.18 308.56 871.09C307.97 870.99 307.27 870.99 306.83 870.66C306.24 870.22 305.45 869.51 305.45 868.91C305.42 866.72 305.53 864.51 305.88 862.35C306.53 858.42 307.42 854.52 308.15 850.6C308.44 849.04 308.79 847.45 308.77 845.88C308.71 840.4 309.82 835.13 311.58 830.02C312.9 826.2 313.84 822.36 313.76 818.31C313.7 815.06 314.74 812.01 315.5 808.91C316.21 806 317.12 803.13 317.84 800.23C318.22 798.69 318.57 797.11 318.65 795.53C319 788.72 320.08 782.08 321.8 775.45C323.87 767.54 325.3 759.47 326.97 751.46C327.56 748.63 328.43 747.68 331.37 747.54C335.17 747.36 338.98 747.3 342.79 747.33C345.79 747.36 348.79 747.59 351.79 747.73C352.79 747.78 353.79 747.76 354.79 747.87C358.14 748.22 360.31 750 361.16 753.3C361.31 753.88 361.43 754.47 361.51 755.07C362.38 761.8 364.47 768.29 365.23 775.05C365.77 779.8 366.67 784.51 367.44 789.23C367.53 789.81 367.74 790.39 368.01 790.92C368.51 791.88 369.37 792.52 370.42 792.37C371.12 792.27 372.09 791.78 372.34 791.21C373.29 789.02 374.17 786.78 374.76 784.47C375.4 781.96 375.86 779.38 376.07 776.8C376.39 772.97 377.41 769.35 378.57 765.72C379.84 761.73 381.38 757.79 381.34 753.49C381.34 752.72 381.73 751.95 381.89 751.16C382.28 749.1 383.61 748.04 385.58 747.78C389.15 747.32 392.73 746.95 396.31 746.58C397.1 746.49 397.91 746.5 398.71 746.56C402.7 746.85 406.69 747.16 410.67 747.51C413.04 747.71 413.83 748.48 414.29 750.75C416.06 759.56 417.8 768.37 419.62 777.16C420.43 781.07 421.46 784.92 422.27 788.83C422.59 790.38 422.75 792 422.74 793.59C422.71 798.27 423.81 802.7 425.49 807.01C426.66 810.02 427.31 813.1 427.56 816.32C427.76 818.9 428.04 821.5 428.64 824.01C430.37 831.19 431.32 838.53 433.52 845.61C434.88 850 435.61 854.54 436.07 859.13C436.25 860.91 436.75 862.66 436.95 864.43Z" fill="white"/>
<path d="M527.63 796.71C527.93 797.84 527.77 799.1 527.77 800.3C527.77 808.91 527.77 817.51 527.77 826.11C527.77 828.48 526.12 844.57 525.69 846.3C524.08 852.72 520.89 858.16 515.42 862.01C511.34 864.88 507.13 867.6 502.84 870.15C501.17 871.14 499.14 871.87 497.21 872.04C487.19 872.93 477.25 872.32 467.42 869.97C464.6 869.3 462.18 868.12 460.14 866.07C457.6 863.53 455.01 861.03 452.42 858.54C447.91 854.2 445.62 848.7 444.49 842.72C443.69 838.43 443.28 834.08 443.05 829.67C442.54 819.86 443.46 810.07 442.86 800.28C442.72 798.09 442.84 795.89 442.84 793.69C442.91 793.69 443.04 773.28 443.04 763.08C443.04 759.28 442.92 755.48 443.08 751.68C443.2 748.81 444.34 747.78 447.2 747.56C452.18 747.19 457.17 746.81 462.15 746.59C464.13 746.5 466.16 746.65 468.1 747.04C470.14 747.45 471.55 749.58 471.05 751.61C469.97 755.96 470.36 760.36 470.34 764.75C470.32 769.15 469.96 773.59 470.36 777.95C470.96 784.34 470.64 790.67 470.33 797.04C470.09 802.04 470.14 807.05 470.33 812.05C470.57 818.83 471.16 825.6 471.39 832.39C471.55 837.32 474.21 840.98 478.92 843.03C485.38 845.84 490.99 844.72 495.79 839.57C500.73 834.26 502.05 827.84 500.39 821.14C498.55 813.72 499.49 806.41 500.07 799.08C500.43 794.48 501.01 789.96 499.89 785.4C499.66 784.44 499.67 783.42 499.66 782.42C499.63 778.02 499.62 773.62 499.66 769.21C499.67 768.02 499.69 766.79 499.99 765.65C500.73 762.88 500.81 760.15 500.04 757.37C499.78 756.42 499.68 755.4 499.69 754.41C499.73 750.64 501.62 748.4 505.32 747.84C508.68 747.34 512.06 746.71 515.43 746.69C518.59 746.67 521.78 747.31 524.93 747.8C526.39 748.03 527.65 749.67 527.66 751.34C527.69 753.73 527.69 756.15 527.35 758.52C526.52 764.31 526.68 770.09 527.07 775.88C527.16 777.27 527.22 778.61 527.13 780.02C526.78 785.59 526.16 791.18 527.64 796.72L527.63 796.71Z" fill="white"/>
<path d="M617.94 837.15C618.43 839.95 617.9 842.68 616.65 845.31C613.82 851.3 610.44 856.96 606.57 862.32C604.29 865.47 601.35 867.78 597.58 869.01C594.93 869.88 592.38 871.07 589.71 871.91C588.01 872.44 586.16 873 584.44 872.86C576.47 872.18 568.53 871.14 561 868.2C557.06 866.66 553.56 864.48 550.86 861.02C549.03 858.68 546.54 856.86 544.53 854.65C543.07 853.05 541.76 851.26 540.64 849.4C539.77 847.95 540.47 846.1 541.93 845.25C547.79 841.81 553.69 838.44 559.51 834.94C561.54 833.73 563.3 833.9 564.96 835.42C566.73 837.04 568.52 838.66 570.11 840.46C573.5 844.29 577.77 845.27 582.62 844.69C582.82 844.66 583.02 844.65 583.22 844.61C588.2 843.72 590.46 838.64 587.36 834.61C585.44 832.11 582.93 830.01 580.45 828.02C578.75 826.67 576.66 825.81 574.74 824.75C564.15 818.97 554.41 812.06 545.83 803.53C539.31 797.05 536.78 789.08 537.07 780.13C537.23 775.3 538.38 770.65 541.1 766.5C543.4 762.99 545.51 759.35 547.89 755.9C549.98 752.88 552.85 750.64 556.31 749.38C558.35 748.64 560.55 748.26 562.7 747.9C567.03 747.18 571.38 746.58 574.64 746.09C580.01 746.18 584.12 747.09 587.97 748.78C592.72 750.88 597.32 753.31 601.99 755.58C604.76 756.93 606.95 759.05 608.77 761.4C611.09 764.39 613.1 767.63 615.11 770.84C615.97 772.21 615.58 773.63 614.22 774.52C612.55 775.61 610.85 776.78 609 777.42C604.98 778.8 601.3 780.72 597.84 783.16C597.02 783.73 596.14 784.22 595.26 784.69C593.45 785.64 592.36 785.4 591.11 783.76C590.14 782.49 589.3 781.11 588.25 779.9C585.1 776.27 581.13 774.16 576.31 773.68C574.27 773.48 572.31 773.75 570.42 774.49C568.42 775.28 567.1 776.81 566.6 778.83C565.86 781.86 566.15 784.8 568.21 787.35C570.24 789.88 572.66 791.93 575.59 793.36C578.64 794.86 581.69 796.36 584.7 797.94C587.53 799.42 590.34 800.95 593.13 802.53C596.63 804.51 599.79 806.9 602.6 809.83C605.09 812.42 607.89 814.7 610.44 817.24C611.55 818.35 612.55 819.67 613.23 821.07C615.71 826.13 616.96 831.6 617.93 837.11L617.94 837.15Z" fill="white"/>
<path d="M656.88 822.96C657.2 824.69 657.34 826.65 656.87 828.31C655.19 834.27 655.96 840.23 656.49 846.18C656.63 847.78 656.61 849.3 656.52 850.9C656.22 856.09 656.25 861.29 656.12 866.49C656.08 867.88 656.12 869.3 655.82 870.65C655.68 871.27 654.83 872.11 654.25 872.16C652.28 872.33 650.23 872.46 648.3 872.11C644.3 871.38 640.37 871.3 636.4 872.17C635.25 872.42 634.01 872.37 632.82 872.36C630.42 872.33 629.11 871.23 628.96 868.74C628.78 865.75 628.84 862.74 628.83 859.74C628.82 853.34 628.83 846.94 628.83 840.54V821.94C628.93 821.94 628.97 794.74 628.67 781.15C628.55 775.77 628.55 770.42 628.89 765.05C629.11 761.47 628.82 757.85 628.79 754.25C628.79 753.25 628.79 752.25 628.88 751.25C629.07 748.96 630.19 747.45 632.45 747.06C634.4 746.73 636.49 746.47 638.41 746.81C642.76 747.59 647.12 748.02 651.53 748C652.12 748 652.72 748.13 653.29 748.32C654.72 748.79 655.74 749.72 655.89 751.29C656.03 752.68 656.06 754.08 656.09 755.48C656.27 762.04 657.04 768.57 656.23 775.17C655.77 778.9 656.35 782.72 656.68 786.51C657.13 791.66 657 796.9 656.64 802.07C656.15 809.06 655.59 815.99 656.89 822.96H656.88Z" fill="white"/>
<path d="M760.82 772.22C761.31 773.29 760.79 774.21 759.99 774.86C759.22 775.48 758.32 775.96 757.43 776.4C752.42 778.91 747.4 781.39 742.38 783.87C741.67 784.22 740.95 784.63 740.19 784.82C738.57 785.22 737.01 785.09 735.73 783.82C733.88 781.99 731.97 780.21 730.19 778.31C725.39 773.19 719.64 773.24 713.6 775.29C709.95 776.53 706.94 778.91 704.02 781.36C702.44 782.69 701.48 784.43 700.73 786.31C699.69 788.91 698.71 791.52 697.66 794.12C695.62 799.2 694.5 804.43 694.93 809.84C694.45 817.74 696.62 824.95 699.85 831.94C701.49 835.49 703.8 838.42 707.28 840.32C709.56 841.57 711.8 842.91 714.14 844.03C719.45 846.57 724.58 846.25 729.42 842.76C730.39 842.06 731.31 841.27 732.3 840.59C734.3 839.22 735.83 839.2 737.8 840.65C738.91 841.47 739.97 842.42 740.87 843.47C742.97 845.91 745.3 848.05 748.01 849.84C749.5 850.82 750.84 852.07 752.09 853.34C753.23 854.49 753.25 856.53 752.12 857.74C748.57 861.53 745.15 865.45 740.01 867.31C735.88 868.8 732 870.86 727.68 871.96C723.7 872.97 719.73 873.08 715.77 872.55C711.62 871.99 707.51 871.06 703.41 870.16C701.06 869.64 698.83 868.78 697.03 867.04C691.56 861.77 686.06 856.51 680.54 851.28C676.8 847.74 674.37 843.42 673.06 838.5C671.32 831.94 669.63 825.36 668.13 818.75C666.32 810.8 666.7 802.9 669.16 795.09C670 792.43 670.92 789.73 671.24 786.99C671.59 783.91 672.57 781.18 674.14 778.57C674.76 777.54 675.47 776.51 675.82 775.39C677.57 769.76 681.62 765.88 685.84 762.17C690.8 757.81 696.13 753.92 701.61 750.22C704.55 748.25 707.63 747.22 711.14 747.08C715.13 746.91 719.13 746.64 723.1 746.19C725.41 745.93 727.48 746.63 729.55 747.27C732.98 748.33 736.34 749.63 739.68 750.98C741.15 751.57 742.57 752.4 743.84 753.34C746.74 755.48 749.64 757.63 752.34 760C756.17 763.34 758.77 767.61 760.84 772.21V772.23L760.82 772.22Z" fill="white"/>
<path d="M796.54 822.96C796.86 824.69 797 826.65 796.53 828.31C794.85 834.27 795.62 840.23 796.15 846.18C796.29 847.78 796.27 849.3 796.18 850.9C795.88 856.09 795.91 861.29 795.78 866.49C795.74 867.88 795.78 869.3 795.48 870.65C795.34 871.27 794.49 872.11 793.91 872.16C791.94 872.33 789.89 872.46 787.96 872.11C783.96 871.38 780.03 871.3 776.06 872.17C774.91 872.42 773.67 872.37 772.48 872.36C770.08 872.33 768.77 871.23 768.62 868.74C768.44 865.75 768.5 862.74 768.49 859.74C768.48 853.34 768.49 846.94 768.49 840.54V821.94C768.59 821.94 768.63 794.74 768.33 781.15C768.21 775.77 768.21 770.42 768.55 765.05C768.77 761.47 768.48 757.85 768.45 754.25C768.45 753.25 768.45 752.25 768.54 751.25C768.73 748.96 769.85 747.45 772.11 747.06C774.06 746.73 776.15 746.47 778.07 746.81C782.42 747.59 786.78 748.02 791.19 748C791.78 748 792.38 748.13 792.95 748.32C794.38 748.79 795.4 749.72 795.55 751.29C795.69 752.68 795.72 754.08 795.75 755.48C795.93 762.04 796.7 768.57 795.89 775.17C795.43 778.9 796.01 782.72 796.34 786.51C796.79 791.66 796.66 796.9 796.3 802.07C795.81 809.06 795.25 815.99 796.55 822.96H796.54Z" fill="white"/>
<path d="M905.46 867.38C905.6 867.96 905.63 868.56 905.68 869.16C905.76 870.16 904.99 871.33 904.06 871.33C897.47 871.38 890.87 871.38 884.28 871.36C881.91 871.36 880.67 869.81 880.02 867.78C879.05 864.74 878.28 861.63 877.3 858.59C876.51 856.12 875.63 853.66 874.6 851.29C873.11 847.88 870.48 845.91 866.65 845.97C862.05 846.05 857.45 846.23 852.85 846.45C849.06 846.63 845.28 847.11 841.49 847.13C838.04 847.15 835.69 848.55 834.47 851.68C832.88 855.77 831.43 859.92 829.97 864.05C829.44 865.55 829.11 867.13 828.5 868.6C827.84 870.18 826.55 871.13 824.77 871.16C818.77 871.27 812.77 871.37 806.76 871.42C805.98 871.42 805.19 871.18 804.42 870.98C803.57 870.76 802.79 869.58 802.9 868.64C803 867.86 803.18 867.09 803.39 866.32C806.06 856.29 808.65 846.24 811.45 836.25C812.42 832.8 813.77 829.44 815.18 826.14C816.76 822.45 818.11 818.7 818.86 814.76C819.61 810.83 820.8 807.03 821.89 803.19C823.58 797.24 824.94 791.2 826.66 785.26C829.71 774.72 832.73 764.16 836.67 753.91C836.96 753.16 837.28 752.43 837.57 751.68C838.45 749.37 840.24 748.11 842.59 748.02C846.58 747.87 850.59 747.98 855.76 747.98C857.19 747.9 859.78 747.75 862.38 747.65C863.78 747.59 865.18 747.57 866.58 747.65C869.05 747.79 870.76 749.08 871.41 751.45C873 757.22 875.56 762.69 876.67 768.6C877.11 770.95 877.66 773.31 878.5 775.54C880.77 781.53 882.44 787.7 884.13 793.86C884.34 794.63 884.57 795.41 884.89 796.13C887.86 802.73 889.42 809.76 891.24 816.71C891.84 819.02 892.58 821.32 893.5 823.52C895.53 828.33 896.82 833.34 898.07 838.38C899.47 843.99 900.98 849.58 902.41 855.19C903.45 859.24 904.45 863.31 905.46 867.37V867.38ZM861.67 828.41C864.55 828.12 866.42 826.02 866.16 823.16C866.05 821.99 865.63 820.85 865.32 819.7C864.62 817.21 863.64 814.77 863.24 812.23C862.38 806.83 859.77 802.07 857.99 797.01C857.73 796.28 857.27 795.58 856.8 794.95C855.49 793.23 852.86 793.43 851.75 795.31C851.24 796.17 850.84 797.09 850.44 798C847.23 805.34 846.1 813.32 843.45 820.84C843.32 821.2 843.35 821.63 843.31 822.02C843.05 825.09 844.35 827.1 847.36 827.66C850.09 828.17 852.9 828.3 854.38 828.46C857.29 828.46 858.89 828.46 860.49 828.46C860.89 828.46 861.29 828.43 861.68 828.39L861.67 828.41Z" fill="white"/>
<path d="M997.92 834.43C997.65 843.65 998.08 852.84 998.08 862.05C998.08 863.64 997.99 865.26 997.74 866.83C997.26 869.78 995.85 870.95 992.86 871.03C991.66 871.07 990.46 870.99 989.26 870.99C986.07 870.99 982.87 870.85 979.73 871.84C978.44 872.25 976.96 872.14 975.56 872.15C972.73 872.17 970.58 870.85 968.97 868.59C968.51 867.94 968.06 867.25 967.75 866.52C965.29 860.84 962.18 855.43 960.4 849.47C959.25 845.61 957.71 841.97 955.69 838.48C954.4 836.25 953.6 833.74 952.59 831.35C950.87 827.3 949.17 823.25 947.45 819.21C947.14 818.48 946.76 817.76 946.34 817.08C945.59 815.88 944.72 814.76 943.12 814.7C941.86 814.64 940.8 815.88 940.21 818.08C938.91 822.98 938.69 827.89 939.61 832.91C940.08 835.45 940.12 838.07 940.21 840.66C940.36 844.65 940.25 848.63 940.94 852.62C941.73 857.22 940.76 861.8 939.98 866.33C939.53 868.93 937.77 870.53 935.05 870.86C932.07 871.22 929.09 871.91 926.12 871.86C922.35 871.8 918.57 871.24 914.83 870.65C914.11 870.53 913.36 869.37 913 868.53C912.63 867.64 912.62 866.57 912.63 865.57C912.71 860.39 913.45 855.18 912.03 850.05C911.88 849.51 912.1 848.87 912.19 848.28C913.64 839.33 913.66 830.39 912.14 821.44C911.84 819.7 911.87 817.83 912.14 816.08C913.39 808.11 912.96 800.16 912.36 792.18C911.89 786.02 911.34 779.84 912.53 773.66C912.98 771.33 912.85 768.88 912.87 766.48C912.9 763.08 912.8 759.67 912.78 756.27C912.78 755.27 912.78 754.26 912.87 753.27C913.2 750.04 914.45 748.43 917.65 748.06C923.22 747.43 928.83 747.27 934.41 748.08C937.4 748.51 939.5 750.12 941.01 752.73C943.41 756.89 946.07 760.89 948.38 765.1C949.82 767.72 951 770.51 951.96 773.34C953.26 777.15 954.77 780.85 957.08 784.15C959.3 787.33 960.25 791.04 961.66 794.56C962.48 796.61 963.16 798.69 964.72 800.35C965.71 801.41 966.92 801.85 967.9 801.42C968.91 800.97 969.43 800.13 969.51 799.09C969.63 797.49 969.71 795.89 969.71 794.29C969.73 787.28 969.69 780.27 969.73 773.26C969.76 769.07 969.62 764.89 970.36 760.7C970.84 757.98 970.43 755.11 970.45 752.31C970.45 751.32 970.45 750.31 970.59 749.33C970.76 748.23 971.55 747.52 972.61 747.43C974.2 747.29 975.81 747.31 977.41 747.34C982.41 747.46 987.41 747.68 992.4 746.93C993.49 746.76 994.8 747.11 995.81 747.63C996.6 748.04 997.23 748.99 997.64 749.84C997.97 750.52 997.91 751.41 997.91 752.2C997.91 759 997.87 765.81 997.82 772.61C997.8 775.61 997.64 778.61 997.65 781.62C997.68 790.42 997.76 799.22 997.82 808.02C997.75 808.02 998.16 825.64 997.91 834.43V834.45L997.92 834.43Z" fill="white"/>
<path d="M1089.51 837.15C1090 839.95 1089.47 842.68 1088.22 845.31C1085.39 851.3 1082.01 856.96 1078.14 862.32C1075.86 865.47 1072.92 867.78 1069.15 869.01C1066.5 869.88 1063.95 871.07 1061.28 871.91C1059.58 872.44 1057.73 873 1056.01 872.86C1048.04 872.18 1040.1 871.14 1032.57 868.2C1028.63 866.66 1025.13 864.48 1022.43 861.02C1020.6 858.68 1018.11 856.86 1016.1 854.65C1014.64 853.05 1013.33 851.26 1012.21 849.4C1011.34 847.95 1012.04 846.1 1013.5 845.25C1019.36 841.81 1025.26 838.44 1031.08 834.94C1033.11 833.73 1034.87 833.9 1036.53 835.42C1038.3 837.04 1040.09 838.66 1041.68 840.46C1045.07 844.29 1049.34 845.27 1054.19 844.69C1054.39 844.66 1054.59 844.65 1054.79 844.61C1059.77 843.72 1062.03 838.64 1058.93 834.61C1057.01 832.11 1054.5 830.01 1052.02 828.02C1050.32 826.67 1048.23 825.81 1046.31 824.75C1035.72 818.97 1025.98 812.06 1017.4 803.53C1010.88 797.05 1008.35 789.08 1008.64 780.13C1008.8 775.3 1009.95 770.65 1012.67 766.5C1014.97 762.99 1017.08 759.35 1019.46 755.9C1021.55 752.88 1024.42 750.64 1027.88 749.38C1029.92 748.64 1032.12 748.26 1034.27 747.9C1038.6 747.18 1042.95 746.58 1046.21 746.09C1051.58 746.18 1055.69 747.09 1059.54 748.78C1064.29 750.88 1068.89 753.31 1073.56 755.58C1076.33 756.93 1078.52 759.05 1080.34 761.4C1082.66 764.39 1084.67 767.63 1086.68 770.84C1087.54 772.21 1087.15 773.63 1085.79 774.52C1084.12 775.61 1082.42 776.78 1080.57 777.42C1076.55 778.8 1072.87 780.72 1069.41 783.16C1068.59 783.73 1067.71 784.22 1066.83 784.69C1065.02 785.64 1063.93 785.4 1062.68 783.76C1061.71 782.49 1060.87 781.11 1059.82 779.9C1056.67 776.27 1052.7 774.16 1047.88 773.68C1045.84 773.48 1043.88 773.75 1041.99 774.49C1039.99 775.28 1038.67 776.81 1038.17 778.83C1037.43 781.86 1037.72 784.8 1039.78 787.35C1041.81 789.88 1044.23 791.93 1047.16 793.36C1050.21 794.86 1053.26 796.36 1056.27 797.94C1059.1 799.42 1061.91 800.95 1064.7 802.53C1068.2 804.51 1071.36 806.9 1074.17 809.83C1076.66 812.42 1079.46 814.7 1082.01 817.24C1083.12 818.35 1084.12 819.67 1084.8 821.07C1087.28 826.13 1088.53 831.6 1089.5 837.11L1089.51 837.15Z" fill="white"/>
</svg>
