<svg width="148" height="108" viewBox="0 0 148 108" fill="none" xmlns="http://www.w3.org/2000/svg">
<path d="M34.8169 83.0717C34.7768 83.0717 34.7366 83.0717 34.6965 83.0717C33.8374 83.0556 33.6495 82.9111 33.4793 82.0761C33.2481 80.9424 33.0506 79.804 32.8065 78.6735C32.6893 78.1308 32.5079 77.5993 32.3296 77.071C32.2959 76.973 32.1433 76.8686 32.0358 76.859C31.9555 76.851 31.8093 76.9714 31.7788 77.0629C31.6086 77.58 31.4384 78.0986 31.3164 78.6285C31.0081 79.9629 30.7351 81.3053 30.4188 82.6381C30.3802 82.7971 30.1683 83.0347 30.0366 83.0331C29.2401 83.0299 28.4421 82.9785 27.6472 82.9191C27.2763 82.8902 27.0981 82.6124 27.0258 82.28C26.8845 81.6297 26.7673 80.9762 26.6244 80.3258C26.3964 79.2885 26.1716 78.2496 25.9066 77.2203C25.8504 77.0003 25.8151 76.6101 25.4506 76.6695C25.1423 76.7209 25.1391 77.0421 25.0957 77.3118C24.9223 78.3893 24.7344 79.4635 24.5449 80.5378C24.4502 81.0741 24.3362 81.6072 24.2446 82.1451C24.1403 82.7618 24.0584 82.8838 23.4434 82.9111C22.7674 82.9416 22.0897 82.9111 21.4121 82.8934C21.1247 82.8854 20.9785 82.7264 21.0299 82.4229C21.1263 81.8513 21.2178 81.278 21.3125 80.7064C21.3559 80.4446 21.3977 80.1813 21.4458 79.9212C21.6176 78.9947 21.8007 78.0697 21.9661 77.1432C22.2359 75.6258 22.4751 74.1035 22.7641 72.5909C23.0195 71.2581 23.3085 69.9318 23.6248 68.6135C23.6666 68.4417 23.9508 68.2072 24.1242 68.2056C25.123 68.1928 26.1266 68.212 27.1222 68.2907C27.3148 68.3052 27.5975 68.6038 27.6424 68.8142C27.9009 69.9976 28.0985 71.1923 28.3184 72.3838C28.3698 72.6584 28.4068 72.9362 28.4887 73.2027C28.5208 73.3055 28.6524 73.4388 28.744 73.4436C28.8451 73.45 29.0073 73.3472 29.0523 73.2509C29.1791 72.9747 29.2915 72.6857 29.3558 72.3886C29.6127 71.1955 29.8439 69.996 30.0944 68.8013C30.1602 68.4866 30.3176 68.2795 30.6917 68.2088C31.5829 68.0386 32.4709 68.0274 33.3653 68.1398C33.8743 68.204 34.0044 68.379 34.1008 68.8768C34.3432 70.1309 34.6226 71.377 34.8715 72.6295C34.9695 73.1256 34.9984 73.6347 35.1027 74.1292C35.5283 76.1573 35.9827 78.1773 36.3986 80.207C36.5431 80.9103 36.6105 81.6281 36.6973 82.3426C36.7358 82.6654 36.6073 82.8725 36.2444 82.9127C35.7691 82.9673 35.2954 83.054 34.8217 83.1263C34.8185 83.1086 34.8169 83.0925 34.8137 83.0749L34.8169 83.0717Z" fill="white"/>
<path d="M113.876 75.4377C113.876 77.4513 113.88 79.4633 113.873 81.4769C113.873 81.7965 113.841 82.1144 113.814 82.434C113.79 82.7134 113.631 82.8627 113.347 82.8868C112.696 82.9414 112.047 82.9992 111.399 83.0586C110.899 83.1036 110.527 82.8852 110.328 82.45C109.952 81.6311 109.623 80.7913 109.266 79.9627C108.961 79.2562 108.646 78.5529 108.335 77.8495C108.152 77.4369 107.99 77.013 107.773 76.6179C107.683 76.4558 107.474 76.3594 107.319 76.2326C107.201 76.3819 107.028 76.5168 106.98 76.6854C106.903 76.9632 106.867 77.2667 106.883 77.5557C106.935 78.5802 107.05 79.6014 107.073 80.6243C107.086 81.2425 106.993 81.8655 106.898 82.4805C106.877 82.6202 106.673 82.7969 106.519 82.8402C105.71 83.0698 104.889 83.0955 104.067 82.8739C103.749 82.7872 103.71 82.5544 103.712 82.2846C103.723 81.1397 103.734 79.9948 103.746 78.8515C103.746 78.7985 103.752 78.7456 103.751 78.691C103.702 76.6147 103.629 74.5385 103.612 72.4606C103.603 71.2371 103.675 70.0119 103.733 68.7867C103.747 68.4832 103.934 68.2552 104.271 68.2504C104.952 68.2407 105.632 68.2359 106.312 68.2552C106.716 68.2664 106.959 68.5538 107.129 68.8814C107.635 69.8577 108.134 70.8372 108.619 71.8248C108.989 72.5746 109.329 73.339 109.689 74.0937C109.745 74.2109 109.817 74.3297 109.91 74.4213C110.143 74.6525 110.397 74.5834 110.469 74.2607C110.517 74.0423 110.525 73.8111 110.528 73.5847C110.549 71.9853 110.562 70.386 110.578 68.7851C110.583 68.2761 110.665 68.1749 111.182 68.1476C111.848 68.1123 112.515 68.0946 113.183 68.0866C113.652 68.0802 113.836 68.2793 113.844 68.8381C113.857 69.824 113.839 70.8115 113.838 71.7975C113.836 73.0098 113.838 74.2238 113.838 75.4361C113.849 75.4361 113.862 75.4361 113.873 75.4361L113.876 75.4377Z" fill="white"/>
<path d="M38.8345 73.5335C38.8345 72 38.8329 70.4665 38.8345 68.933C38.8345 68.3742 38.9742 68.1992 39.5169 68.1558C40.1817 68.1028 40.8513 68.0691 41.5177 68.0691C42.0155 68.0691 42.213 68.3453 42.1953 68.8045C42.1552 69.935 42.1359 71.0654 42.1183 72.1959C42.1038 73.1144 42.0781 74.0345 42.0974 74.9546C42.1231 76.1011 42.1825 77.246 42.2435 78.3909C42.274 78.9545 42.6851 79.4394 43.2391 79.6177C44.0275 79.873 44.7099 79.6947 45.1933 79.1038C45.6108 78.5932 45.7569 78.0103 45.72 77.3536C45.6686 76.4656 45.6445 75.5744 45.6397 74.6848C45.63 72.8591 45.6493 71.0349 45.6365 69.2092C45.6316 68.5171 45.7312 68.3581 46.4217 68.1992C47.0816 68.0466 47.7368 68.0257 48.4048 68.1799C48.7757 68.265 48.9122 68.44 48.9058 68.8094C48.8817 70.0088 48.864 71.2099 48.872 72.4094C48.8817 73.7824 48.9588 75.1553 48.9331 76.5266C48.9138 77.6153 48.8078 78.7056 48.6986 79.7911C48.6007 80.7722 48.0435 81.4819 47.2358 82.0118C46.8472 82.2672 46.4698 82.5514 46.0572 82.7585C45.7457 82.9159 45.3811 83.0652 45.0439 83.0556C44.0066 83.0267 42.9677 82.9448 41.9368 82.8276C41.6253 82.7922 41.2704 82.6429 41.044 82.4309C40.474 81.8962 39.8847 81.3519 39.4543 80.7112C38.8827 79.8569 38.8634 78.8148 38.8377 77.8176C38.8008 76.3917 38.8281 74.9642 38.8281 73.5367C38.8281 73.5367 38.8297 73.5367 38.8313 73.5367L38.8345 73.5335Z" fill="white"/>
<path d="M99.9042 82.9623C99.6633 82.9623 99.4224 82.9639 99.1832 82.9623C98.4494 82.9559 98.3177 82.8338 98.1346 82.1369C98.0062 81.6488 97.8344 81.1719 97.6658 80.6966C97.4779 80.1667 97.0732 79.9162 96.5241 79.9355C95.5221 79.9708 94.5217 80.019 93.5213 80.0848C92.9641 80.1217 92.8116 80.5874 92.651 81.0113C92.476 81.4706 92.3058 81.933 92.1741 82.4051C92.0858 82.7214 91.9139 82.9029 91.596 82.9157C90.9296 82.9414 90.2616 82.9655 89.5952 82.9543C89.1569 82.9462 89.0397 82.8049 89.1344 82.3682C89.2869 81.6552 89.4652 80.9439 89.6739 80.2454C90.1846 78.5433 90.7369 76.854 91.2395 75.1487C91.6474 73.7613 91.9862 72.3515 92.3957 70.9641C92.6237 70.1885 92.9336 69.4371 93.2066 68.6759C93.3077 68.3933 93.5053 68.2504 93.8103 68.2472C94.6791 68.236 95.5462 68.2103 96.4149 68.207C97.0234 68.2054 97.1342 68.3114 97.3077 68.8991C97.8087 70.5916 98.2984 72.2889 98.8235 73.9733C99.2683 75.404 99.7789 76.8155 100.217 78.2478C100.497 79.1615 100.697 80.0992 100.93 81.0274C101.044 81.4786 101.145 81.933 101.267 82.381C101.373 82.776 101.272 82.9414 100.868 82.9559C100.548 82.9671 100.227 82.9575 99.9058 82.9575C99.9058 82.9575 99.9058 82.9607 99.9058 82.9623H99.9042ZM95.5028 77.8705C95.5028 77.8705 95.5044 77.856 95.506 77.848C95.6264 77.848 95.7469 77.8544 95.8657 77.848C96.4695 77.811 96.7087 77.4482 96.5144 76.8765C96.4759 76.7641 96.4647 76.6421 96.4277 76.5297C96.1724 75.7509 95.9315 74.9673 95.6409 74.2013C95.5702 74.015 95.3342 73.8898 95.1752 73.7373C95.0195 73.9059 94.7915 74.0488 94.7208 74.2479C94.4221 75.0973 94.1556 75.958 93.9067 76.8235C93.7477 77.3743 93.9822 77.6858 94.5538 77.7581C94.8701 77.7982 95.1881 77.8351 95.5044 77.8737L95.5028 77.8705Z" fill="white"/>
<path d="M121.946 83.0972C120.75 83.0137 119.661 82.8836 118.788 82.2349C118.126 81.7435 117.594 81.0707 117.042 80.4461C116.865 80.247 116.901 79.9788 117.195 79.8086C117.851 79.4297 118.494 79.0266 119.147 78.6428C119.457 78.4614 119.712 78.5577 119.977 78.7858C120.366 79.1214 120.772 79.4473 121.211 79.7107C121.583 79.9339 121.989 79.8263 122.349 79.6015C122.685 79.3911 122.786 78.8612 122.474 78.5481C122.086 78.1563 121.654 77.7822 121.18 77.5027C119.751 76.6597 118.372 75.7653 117.27 74.5016C116.442 73.551 116.279 71.4764 116.981 70.4808C117.28 70.0569 117.529 69.5992 117.829 69.1785C118.221 68.6294 118.775 68.3323 119.443 68.2472C120.024 68.1733 120.604 68.0657 121.187 68.0336C122.015 67.9887 122.72 68.4046 123.455 68.7129C124.445 69.1288 125.182 69.7919 125.691 70.7265C125.898 71.1054 125.867 71.3094 125.498 71.5149C124.872 71.8634 124.236 72.1941 123.6 72.5265C123.263 72.7032 123.012 72.5635 122.812 72.2808C122.476 71.8072 122.028 71.4908 121.469 71.3335C121.028 71.2082 120.607 71.2692 120.266 71.5743C119.985 71.8264 119.889 72.2134 120.053 72.5297C120.229 72.8702 120.494 73.217 120.811 73.4193C121.548 73.8898 122.343 74.272 123.11 74.6959C124.037 75.2065 124.783 75.9387 125.44 76.7416C125.728 77.0933 125.813 77.6103 125.989 78.0535C126.392 79.0651 126.058 79.9531 125.508 80.7945C125.101 81.4128 124.807 82.1386 124.103 82.4966C123.391 82.8579 122.665 83.2096 121.944 83.0956L121.946 83.0972Z" fill="white"/>
<path d="M57.2485 83.1069C55.8466 83.0266 54.7354 82.8805 53.8394 82.2141C53.1891 81.7292 52.6721 81.0612 52.1325 80.4414C51.9543 80.2374 51.996 79.9757 52.2899 79.8071C52.9466 79.4281 53.5889 79.0251 54.2441 78.6429C54.5347 78.4727 54.7852 78.5482 55.0437 78.7665C55.4452 79.107 55.8579 79.4458 56.3059 79.7155C56.6768 79.9387 57.0847 79.8312 57.4427 79.6015C57.7896 79.3799 57.8683 78.8436 57.5343 78.5145C57.1505 78.1355 56.7266 77.7742 56.2641 77.5028C54.8334 76.663 53.4573 75.7622 52.3541 74.5001C51.5304 73.5559 51.3553 71.478 52.0747 70.4809C52.5067 69.8803 52.8647 69.1802 53.4187 68.7226C54.2168 68.0626 55.2782 68.0658 56.2818 68.0289C57.1312 67.9984 57.8394 68.4287 58.5876 68.7354C59.5559 69.1336 60.2576 69.8016 60.765 70.7009C60.9882 71.0959 60.9642 71.3062 60.5788 71.5214C59.9525 71.8698 59.3183 72.2022 58.6824 72.533C58.3452 72.7081 58.0947 72.5651 57.8956 72.2809C57.5889 71.8409 57.1762 71.5391 56.6688 71.3672C56.1935 71.2067 55.731 71.2388 55.3537 71.5824C55.0614 71.8474 54.9554 72.2697 55.1562 72.5716C55.4259 72.9762 55.7969 73.3568 56.2063 73.6201C56.953 74.0986 57.7976 74.4294 58.5363 74.9208C59.4098 75.5037 60.2705 76.1588 60.741 77.1287C61.0139 77.6923 61.189 78.3378 61.2436 78.9608C61.2789 79.3735 61.0798 79.8408 60.8823 80.231C60.5691 80.8428 60.2303 81.461 59.7904 81.9829C59.0662 82.8436 58.0321 83.0571 57.2501 83.1085L57.2485 83.1069Z" fill="white"/>
<path d="M76.2036 68.0593C78.0856 67.8553 80.56 69.4675 81.1333 71.0155C81.1782 71.1375 81.0964 71.4089 80.9936 71.4667C80.3111 71.8489 79.6126 72.2101 78.9029 72.5393C78.6123 72.6742 78.3232 72.6132 78.0647 72.3563C77.7451 72.0399 77.4112 71.7059 77.0193 71.5004C76.2984 71.1214 75.6256 71.4394 74.9816 71.7959C74.3024 72.1716 74.0021 72.8091 73.7436 73.4931C73.2972 74.675 73.2025 75.86 73.506 77.0964C73.8367 78.4453 74.5931 79.3927 75.9323 79.8086C76.5087 79.9868 77.0595 79.8391 77.5557 79.4794C78.1337 79.0603 78.198 79.0796 78.7423 79.5773C79.155 79.9547 79.5869 80.3112 79.998 80.6901C80.3015 80.9695 80.2919 81.1767 80.0382 81.4785C79.428 82.1979 78.6074 82.5464 77.75 82.8723C76.5585 83.3268 75.404 83.049 74.251 82.7824C73.9604 82.715 73.6874 82.4886 73.4514 82.283C72.9985 81.8896 72.5971 81.4368 72.1411 81.0482C71.3864 80.4059 70.8468 79.648 70.6461 78.6604C70.4695 77.7885 70.2174 76.9311 70.0809 76.0527C69.9589 75.2723 70.113 74.4951 70.2928 73.7212C70.508 72.7978 70.7826 71.9002 71.2515 71.0765C71.7461 70.2094 72.5843 69.6827 73.3277 69.0597C74.1996 68.3274 75.1759 67.9694 76.2036 68.0561V68.0593Z" fill="white"/>
<path d="M64.0881 75.6031C64.0881 73.3631 64.0881 71.1231 64.0881 68.8815C64.0881 68.2761 64.2889 68.0433 64.9023 68.0674C65.5799 68.0963 66.2575 68.1878 66.9319 68.2665C67.2017 68.2986 67.3029 68.4961 67.3125 68.753C67.3253 69.1528 67.3542 69.5527 67.3542 69.9525C67.3542 71.7349 67.3414 73.5189 67.351 75.3013C67.3542 75.9388 67.412 76.5746 67.4426 77.2105C67.4506 77.3823 67.457 77.5557 67.449 77.7276C67.4185 78.3891 67.3671 79.0507 67.351 79.7123C67.3253 80.6853 67.3221 81.6584 67.3109 82.6299C67.3077 82.9527 67.1423 83.0731 66.8292 83.0683C66.1483 83.0603 65.4675 83.0683 64.7883 83.0715C64.2214 83.0747 64.0946 82.9623 64.093 82.4019C64.0881 81.1077 64.0897 79.815 64.0881 78.5208C64.0881 77.5477 64.0881 76.573 64.0881 75.5999V75.6031Z" fill="white"/>
<path d="M83.5839 75.5998C83.5839 73.3598 83.5839 71.1198 83.5839 68.8797C83.5839 68.2728 83.783 68.0431 84.3948 68.0688C85.0724 68.0961 85.7533 68.17 86.4212 68.2856C86.5722 68.3113 86.7568 68.5794 86.7906 68.7625C86.858 69.1254 86.8436 69.506 86.8436 69.8785C86.8452 71.6882 86.8339 73.4963 86.8436 75.3059C86.8468 75.9434 86.9062 76.5793 86.9351 77.2152C86.9431 77.387 86.9479 77.5604 86.9399 77.7322C86.9094 78.3938 86.858 79.0538 86.842 79.717C86.8163 80.69 86.813 81.6615 86.8034 82.6346C86.8002 82.959 86.6316 83.0746 86.3201 83.0714C85.6392 83.0633 84.9584 83.0714 84.2792 83.0746C83.7172 83.0778 83.5887 82.9638 83.5871 82.4002C83.5823 80.1328 83.5855 77.8671 83.5855 75.5998H83.5823H83.5839Z" fill="white"/>
<path d="M49.4378 99.3312C49.8392 98.3597 50.2471 97.3914 50.6389 96.4167C50.7609 96.1164 50.9151 96.0008 51.2636 96.147C52.4855 96.6528 53.7284 97.0943 54.9744 97.5102C55.2924 97.6162 55.5975 97.7302 55.5814 98.1654C55.5525 99.0309 55.3357 99.1979 54.4558 98.9249C53.7782 98.7129 53.1086 98.4769 52.4325 98.2553C51.991 98.1092 51.7967 98.2007 51.673 98.5604C51.5012 99.063 51.5751 99.2509 52.0536 99.4307C52.6252 99.6443 53.2097 99.8209 53.7814 100.026C54.2711 100.201 54.3161 100.309 54.178 100.762C53.9468 101.52 53.905 101.56 53.062 101.334C52.5193 101.186 51.9877 100.992 51.4643 100.781C51.0757 100.625 50.8445 100.712 50.716 101.049C50.7112 101.062 50.7047 101.073 50.6999 101.086C50.2407 102.067 50.3145 102.233 51.4627 102.65C52.1242 102.888 52.7842 103.127 53.4522 103.334C53.8504 103.456 53.958 103.668 53.8344 103.993C53.8055 104.068 53.7926 104.147 53.7669 104.222C53.5646 104.836 53.4442 104.893 52.7296 104.657C51.3695 104.208 50.0207 103.712 48.6847 103.169C48.0809 102.922 47.9991 102.803 48.2062 102.275C48.5932 101.284 49.0139 100.307 49.4218 99.3247C49.4266 99.3263 49.433 99.3296 49.4378 99.3312Z" fill="white"/>
<path d="M96.1368 98.3099C96.3215 98.7804 96.5077 99.2508 96.6908 99.7213C96.7903 99.9782 96.9702 100.078 97.2897 100.038C97.8389 99.9718 98.3576 100.352 98.3447 100.863C98.3399 101.033 98.1488 101.271 97.9722 101.382C97.5852 101.626 97.431 101.875 97.643 102.239C97.6767 102.297 97.6896 102.364 97.7169 102.424C98.0637 103.222 97.9128 103.487 96.7373 103.813C96.5559 103.863 96.2492 103.641 96.0967 103.472C95.9393 103.301 95.9008 103.039 95.8044 102.82C95.6326 102.43 95.3917 102.339 94.9277 102.496C94.1376 102.764 93.3428 103.012 92.5528 103.27C92.1433 103.403 91.8767 103.283 91.8061 102.955C91.7194 102.564 91.6006 102.122 91.7162 101.751C92.1465 100.357 92.6106 98.9779 93.0104 97.5937C93.0554 97.4363 93.1758 97.2276 93.3107 97.1746C93.9016 96.945 94.5054 96.733 95.1155 96.5532C95.2231 96.5211 95.4704 96.6961 95.5346 96.831C95.7611 97.3111 95.9361 97.8153 96.1304 98.3099C96.132 98.3099 96.1352 98.3083 96.1368 98.3067V98.3099ZM94.8265 99.922C94.8265 99.922 94.8345 99.9188 94.8377 99.9172C94.7575 99.694 94.69 99.4644 94.5889 99.2492C94.5519 99.1689 94.4347 99.0694 94.3576 99.0758C94.2757 99.0822 94.1553 99.193 94.128 99.2781C93.9546 99.8193 93.7683 100.362 93.6318 100.913C93.5499 101.236 93.7715 101.37 94.1328 101.271C95.0337 101.019 95.1011 100.91 94.8827 100.112C94.865 100.047 94.8442 99.9847 94.8249 99.922H94.8265Z" fill="white"/>
<path d="M83.5362 103.203C83.639 103.846 83.7643 104.486 83.8365 105.133C83.8927 105.632 83.7578 106.114 83.4158 106.544C82.7767 107.349 81.7924 107.557 80.8065 107.48C79.6022 107.385 78.9325 106.652 78.8426 105.595C78.7431 104.457 78.6435 103.317 78.5745 102.176C78.5086 100.967 79.2778 99.9942 80.5833 99.8497C81.1373 99.7887 81.6623 99.7903 82.1778 100.026C82.7655 100.296 83.1204 100.746 83.244 101.349C83.3692 101.961 83.4479 102.583 83.5459 103.199C83.5427 103.199 83.5379 103.199 83.5346 103.201L83.5362 103.203ZM81.9449 103.559C81.9449 103.559 81.9562 103.559 81.9626 103.557C81.8952 103.058 81.839 102.555 81.7587 102.056C81.6816 101.574 81.2962 101.305 80.8145 101.361C80.3472 101.415 80.1417 101.672 80.1931 102.229C80.283 103.209 80.389 104.187 80.5062 105.165C80.5624 105.645 80.9799 105.969 81.4134 105.908C81.9 105.839 82.1938 105.444 82.1296 104.942C82.0718 104.481 82.0076 104.018 81.9465 103.557L81.9449 103.559Z" fill="white"/>
<path d="M74.266 107.961C73.6205 107.967 72.9717 107.986 72.3294 107.946C71.6775 107.904 71.4848 107.699 71.5523 107.14C71.6325 106.459 71.6181 105.77 72.0308 105.138C72.5446 104.348 73.3571 103.938 74.1536 103.49C74.3736 103.366 74.6225 103.288 74.8344 103.156C75.2037 102.926 75.3338 102.504 75.1427 102.268C74.9484 102.027 74.4362 102.03 74.1038 102.263C73.8999 102.408 73.6558 102.686 73.484 102.652C73.0986 102.575 72.7325 102.364 72.4033 102.148C72.3118 102.087 72.2877 101.772 72.3664 101.672C73.3941 100.405 74.6642 99.8707 76.2089 100.817C76.8063 101.183 77.1563 102.371 76.9572 103.034C76.6489 104.057 75.7609 104.51 74.8505 104.983C74.4555 105.191 74.1022 105.489 73.781 105.791C73.659 105.905 73.6333 106.173 73.6879 106.337C73.7168 106.425 74.0091 106.488 74.1857 106.488C74.9677 106.494 75.7497 106.474 76.5301 106.421C76.885 106.397 77.0054 106.504 77.0182 106.814C77.0584 107.763 77.0231 107.83 75.9263 107.924C75.3756 107.969 74.82 107.959 74.266 107.965C74.266 107.964 74.266 107.962 74.266 107.959V107.961Z" fill="white"/>
<path d="M88.2874 106.337C87.6532 106.48 87.0205 106.633 86.3798 106.731C85.662 106.84 85.4308 106.668 85.3826 106.038C85.3264 105.342 85.1867 104.661 85.495 103.945C85.8515 103.118 86.5388 102.583 87.1843 102C87.4139 101.793 87.6756 101.619 87.8924 101.403C88.1493 101.146 88.1461 100.823 87.8988 100.609C87.6724 100.414 87.3497 100.423 87.0895 100.65C86.9659 100.757 86.823 100.871 86.7604 101.011C86.5982 101.372 86.3091 101.382 85.9832 101.321C85.9013 101.305 85.8242 101.269 85.7423 101.249C84.8543 101.014 84.7965 100.842 85.3312 100.108C85.6556 99.6588 85.9992 99.2574 86.5388 98.9876C87.2405 98.6376 87.8812 98.7692 88.5733 98.9073C89.2252 99.0374 89.9205 100.354 89.8611 100.951C89.7551 102.014 88.9907 102.649 88.1943 103.307C87.8394 103.601 87.5215 103.972 87.2935 104.356C87.0269 104.802 87.2887 105.057 87.8394 104.937C88.607 104.77 89.3745 104.585 90.1308 104.368C90.4664 104.272 90.619 104.332 90.7009 104.641C90.945 105.578 90.9369 105.634 89.8675 105.96C89.3488 106.116 88.8157 106.22 88.2874 106.34V106.339V106.337Z" fill="white"/>
<path d="M57.624 106.067C56.6043 105.794 55.8641 105.221 55.4353 104.363C55.2507 103.996 55.3261 103.846 55.7388 103.756C55.8817 103.724 56.0262 103.7 56.1675 103.665C56.9062 103.483 56.9945 103.525 57.4265 104.089C57.5758 104.283 57.9564 104.396 58.2438 104.434C58.5537 104.474 58.6902 104.155 58.4622 103.88C58.1185 103.466 57.7107 103.096 57.3574 102.69C57.0138 102.295 56.6637 101.9 56.3875 101.468C55.9203 100.738 56.1113 99.7967 56.7408 99.2427C57.791 98.3194 58.9985 98.3274 60.0984 99.233C60.5079 99.5702 60.8628 99.9171 61.041 100.428C61.1406 100.714 61.0956 100.86 60.7857 100.917C60.6347 100.945 60.4726 100.954 60.3393 101.017C59.8351 101.251 59.4947 101.126 59.204 100.648C58.984 100.285 58.3995 100.158 58.1683 100.338C57.9018 100.547 57.9901 101.035 58.353 101.367C58.8186 101.794 59.3373 102.183 59.7548 102.648C60.5753 103.561 61.0025 104.625 59.7098 105.658C59.0964 106.141 58.4268 106.266 57.6256 106.07L57.624 106.067Z" fill="white"/>
<path d="M63.4859 104.278C63.6095 103.504 63.7428 102.73 63.8536 101.953C63.9371 101.362 63.8054 101.211 63.2 101.096C63.1872 101.093 63.1727 101.091 63.1583 101.088C62.1981 100.905 62.1033 100.726 62.4229 99.8465C62.524 99.5671 62.744 99.5526 62.9897 99.5928C63.9515 99.7533 64.915 99.8914 65.88 100.009C66.2735 100.057 66.6669 100.113 67.0619 100.155C67.3798 100.188 67.5163 100.368 67.5195 100.665C67.5195 100.706 67.5195 100.746 67.5195 100.786C67.4906 101.679 67.4585 101.712 66.5288 101.611C65.7805 101.526 65.7098 101.563 65.6119 102.271C65.4128 103.734 65.2281 105.198 65.0354 106.661C64.9567 107.268 64.8154 107.455 64.0366 107.3C63.0154 107.093 63.009 107.125 63.1567 106.245C63.2659 105.59 63.367 104.932 63.473 104.275C63.4778 104.275 63.4827 104.277 63.4875 104.277L63.4859 104.278Z" fill="white"/>
<path d="M50.054 37.1213C50.054 34.0784 50.046 31.0339 50.0589 27.991C50.0637 27.0227 50.3784 26.7433 51.3387 26.6984C52.5671 26.6422 53.7938 26.5474 55.0222 26.5121C55.3996 26.5009 55.7898 26.6004 56.1591 26.6984C56.5911 26.814 56.8207 27.262 56.7549 27.702C56.6874 28.15 56.6039 28.6012 56.6055 29.0508C56.6103 33.9901 56.6168 38.9294 56.6537 43.8671C56.6617 45.0136 56.7725 46.1601 56.8624 47.3034C56.9459 48.3632 57.8789 49.2817 58.9772 49.6719C61.2413 50.4747 62.8615 48.8818 63.5119 47.3901C63.9277 46.4395 63.992 45.4809 63.7656 44.4628C63.4717 43.1413 63.3978 41.7908 63.5375 40.4436C63.7222 38.6596 63.7543 36.8885 63.6034 35.0932C63.4765 33.5726 63.4942 32.0311 63.719 30.4992C63.8041 29.9211 63.6275 29.3093 63.6291 28.712C63.6291 28.3234 63.6853 27.9187 63.8121 27.5526C64.0161 26.9649 64.5925 26.8606 65.1112 26.7642C66.5291 26.4993 67.9534 26.4848 69.3777 26.7433C69.9734 26.8525 70.2592 27.1656 70.248 27.7999C70.2367 28.4792 70.1388 29.1568 70.1308 29.836C70.1083 31.5975 70.1115 33.359 70.1115 35.1205C70.1115 36.0133 70.0344 36.9174 70.15 37.7957C70.4905 40.3649 70.2929 42.9406 70.2865 45.5098C70.2817 46.9565 70.0922 48.4146 69.861 49.8469C69.527 51.9135 68.4479 53.5192 66.5997 54.5806C65.7117 55.0913 64.8623 55.671 63.9647 56.1623C63.6146 56.3534 63.1843 56.461 62.7828 56.4851C61.0181 56.5894 59.2486 56.5894 57.5047 56.2731C56.5429 56.0981 55.5248 56.0435 54.6834 55.459C54.3366 55.2181 54.0267 54.9179 53.7248 54.6208C53.068 53.9769 52.3968 53.3426 51.7883 52.6537C51.1909 51.9777 50.8328 51.1572 50.6112 50.2821C49.8806 47.3981 50.0155 44.458 50.038 41.5243C50.0492 40.0566 50.0396 38.5874 50.0396 37.1197C50.0428 37.1197 50.0476 37.1197 50.0508 37.1197L50.054 37.1213Z" fill="white"/>
<path d="M82.5681 34.9454C82.5729 35.4544 82.8073 35.9329 83.167 36.3665C83.8125 37.1437 84.6652 37.6174 85.5484 38.075C87.0353 38.8458 88.4981 39.6647 89.9513 40.4981C90.3383 40.7197 90.6723 41.0489 90.9999 41.3604C91.7931 42.1135 92.5992 42.8569 93.3395 43.6598C94.0444 44.4241 94.2853 45.4326 94.5566 46.4056C94.6851 46.8665 94.706 47.3579 94.8457 47.8123C95.109 48.6681 94.9436 49.4742 94.5406 50.2097C93.8324 51.5023 93.0649 52.766 92.2861 54.0185C91.7145 54.9386 90.8377 55.4974 89.8261 55.8394C88.9943 56.122 88.1545 56.3774 87.3163 56.6375C87.191 56.676 87.0497 56.7098 86.9245 56.6905C85.7411 56.509 84.5464 56.3693 83.379 56.1092C82.4766 55.9069 81.5805 55.6098 80.7327 55.2405C80.1996 55.0077 79.7195 54.6046 79.2875 54.2016C78.5393 53.5015 77.8359 52.7516 77.139 52.0001C76.8982 51.7399 76.7135 51.4204 76.5321 51.1121C76.2992 50.7139 76.3699 50.3478 76.7553 50.1149C78.1796 49.2526 79.6071 48.3952 81.0506 47.5666C81.4441 47.3402 81.8808 47.3723 82.2389 47.7127C82.7126 48.1639 83.1815 48.6184 83.6536 49.0712C84.5929 49.9704 85.7218 50.1535 86.9261 49.8259C87.9345 49.5513 88.2685 48.3197 87.5748 47.4815C86.7944 46.5389 85.8294 45.8244 84.7359 45.2495C83.0225 44.3487 81.3943 43.2985 79.9186 42.0428C78.9359 41.2062 77.9419 40.3584 77.0973 39.3901C75.8785 37.9947 75.5799 36.2653 75.6328 34.4492C75.6698 33.1839 76.0262 32.0438 76.7328 30.9984C77.2611 30.2148 77.7396 29.3975 78.2855 28.6252C78.9857 27.636 80.0085 27.1414 81.1711 26.9198C82.2967 26.7063 83.4256 26.512 84.5576 26.3321C84.7439 26.3032 84.9462 26.4092 85.1421 26.414C86.743 26.4558 88.124 27.1639 89.5081 27.8544C90.2115 28.2044 90.926 28.5416 91.586 28.9607C92.535 29.5629 93.0761 30.5424 93.6959 31.44C93.8774 31.7018 94.0348 31.9812 94.1889 32.2606C94.4266 32.6941 94.4121 32.9093 93.9898 33.1694C93.4262 33.5163 92.8128 33.7812 92.2283 34.0943C91.3146 34.5841 90.3993 35.0738 89.4969 35.5829C89.1276 35.7916 88.8353 35.7338 88.5784 35.4239C88.2717 35.0546 87.9923 34.6628 87.668 34.3111C86.963 33.5452 86.0574 33.1453 85.0474 32.9751C84.4019 32.8659 83.7885 33.0121 83.2505 33.375C82.7287 33.7266 82.5713 34.2742 82.5681 34.9422V34.9454Z" fill="white"/>
<path d="M111.213 44.3502C111.213 47.7946 111.224 51.2405 111.2 54.6848C111.197 55.1521 111.068 55.6403 110.892 56.0754C110.811 56.2745 110.476 56.4801 110.249 56.4881C109.695 56.5074 109.138 56.3998 108.581 56.3693C108.155 56.3468 107.727 56.3468 107.303 56.3693C106.665 56.4014 106.029 56.4817 105.392 56.5042C104.994 56.517 104.668 56.3115 104.6 55.9068C104.509 55.3576 104.448 54.7972 104.446 54.2416C104.443 51.1843 104.465 48.1269 104.475 45.0696C104.478 43.9343 104.456 42.7991 104.483 41.6654C104.498 41.0664 104.647 40.4707 104.639 39.8734C104.615 38.1665 104.549 36.4612 104.485 34.7542C104.469 34.3448 104.478 33.9064 104.337 33.5323C104.04 32.7438 103.293 32.58 102.566 32.5303C101.66 32.4676 100.748 32.4933 99.8377 32.4821C99.6096 32.4789 99.3832 32.4805 99.1552 32.4741C98.1356 32.4468 97.8241 32.1385 97.8192 31.1108C97.816 30.0831 97.8224 29.0538 97.8513 28.0261C97.8786 27.0049 98.0713 26.8009 99.0781 26.7801C100.388 26.7512 101.7 26.7801 103.011 26.748C103.744 26.7303 104.475 26.6323 105.209 26.5938C105.647 26.5713 106.094 26.544 106.524 26.605C107.619 26.7608 108.706 26.7576 109.8 26.6099C110.192 26.5569 110.601 26.5617 110.994 26.6034C112.155 26.7271 113.313 26.8058 114.469 26.5649C114.649 26.528 114.843 26.5215 115.028 26.5392C115.68 26.6018 116.332 26.6677 116.981 26.756C117.686 26.8523 117.886 27.0755 117.894 27.7724C117.907 29.0538 117.914 30.3368 117.907 31.6182C117.902 32.3713 117.58 32.6844 116.823 32.6924C115.418 32.7053 114.013 32.7053 112.608 32.7149C111.746 32.7214 111.309 33.1132 111.306 33.9819C111.29 37.4391 111.3 40.8962 111.3 44.3534C111.272 44.3534 111.243 44.3534 111.216 44.3534L111.213 44.3502Z" fill="white"/>
<path d="M37.3538 37.1036C37.3538 34.0993 37.3474 31.0949 37.3634 28.0922C37.365 27.7694 37.4517 27.4161 37.6091 27.1383C37.7215 26.9408 38.0105 26.7369 38.2305 26.7241C39.5649 26.647 40.9025 26.594 42.2401 26.594C43.3288 26.594 43.7656 27.0532 43.7768 28.1451C43.7945 29.9211 43.764 31.6955 43.7929 33.4714C43.8105 34.5906 43.9358 35.7082 43.9438 36.8258C43.955 38.332 43.9502 39.8398 43.8571 41.3412C43.7704 42.735 43.7945 44.116 43.9984 45.4921C44.1557 46.5567 44.0739 47.6004 43.7318 48.6105C43.3577 49.7152 42.9611 50.8168 42.505 51.8894C42.057 52.9412 41.2927 53.7569 40.363 54.4233C39.3883 55.1234 38.4216 55.8379 37.243 56.1655C36.8849 56.2651 36.5124 56.3502 36.143 56.3646C35.0206 56.4064 33.8982 56.4385 32.7758 56.4192C31.7706 56.4032 30.9195 55.8909 30.0556 55.4461C28.869 54.836 27.6872 54.2226 26.6996 53.3025C26.6209 53.2302 26.5406 53.1596 26.4652 53.0841C26.2436 52.8609 26.144 52.665 26.3624 52.3342C27.0127 51.3483 27.761 50.4587 28.6458 49.6767C29.0039 49.3587 29.3379 49.0119 29.667 48.6635C30.1504 48.1528 30.4105 48.1496 31.0335 48.4868C31.838 48.9236 32.6682 49.3122 33.5032 49.6911C34.5212 50.1536 35.6308 49.5739 36.2635 48.7871C36.9957 47.875 37.3201 46.8313 37.3201 45.6735C37.3201 42.8169 37.3201 39.9603 37.3201 37.102C37.3329 37.102 37.3458 37.102 37.3586 37.102L37.3538 37.1036Z" fill="white"/>
<path fill-rule="evenodd" clip-rule="evenodd" d="M146.801 38.3866H127.155V36.9414H146.801V38.3866Z" fill="white"/>
<path fill-rule="evenodd" clip-rule="evenodd" d="M146.801 32.1385H127.155V30.6934H146.801V32.1385Z" fill="white"/>
<path fill-rule="evenodd" clip-rule="evenodd" d="M146.801 50.8807H127.155V49.4355H146.801V50.8807Z" fill="white"/>
<path fill-rule="evenodd" clip-rule="evenodd" d="M146.801 44.6346H127.155V43.1895H146.801V44.6346Z" fill="white"/>
<path fill-rule="evenodd" clip-rule="evenodd" d="M20.0337 38.3866H0.388916V36.9414H20.0337V38.3866Z" fill="white"/>
<path fill-rule="evenodd" clip-rule="evenodd" d="M20.0337 32.1385H0.388916V30.6934H20.0337V32.1385Z" fill="white"/>
<path fill-rule="evenodd" clip-rule="evenodd" d="M20.0337 50.8807H0.388916V49.4355H20.0337V50.8807Z" fill="white"/>
<path fill-rule="evenodd" clip-rule="evenodd" d="M20.0337 44.6346H0.388916V43.1895H20.0337V44.6346Z" fill="white"/>
<path d="M5.32544 7.91903C5.69316 7.87568 5.71403 7.89012 5.79592 8.25623C5.85373 8.52118 5.91154 8.78453 5.97095 9.04948C5.9854 9.11531 6.00307 9.18115 6.01431 9.24699C6.04 9.39311 5.99022 9.49427 5.84892 9.53281C5.61929 9.59704 5.38646 9.64842 5.15523 9.70141C4.93685 9.74958 4.71526 9.78812 4.49848 9.84433C4.32827 9.88768 4.23353 10.0113 4.24798 10.1767C4.26404 10.3501 4.28973 10.5284 4.33309 10.697C4.55147 11.5352 4.68635 12.3927 4.924 13.2276C5.05407 13.7945 5.18413 14.3629 5.30938 14.9297C5.38806 15.2862 5.45872 15.6459 5.53098 16.004C5.54222 16.057 5.55506 16.1116 5.55667 16.1646C5.5647 16.5018 5.53419 16.5339 5.20822 16.5965C5.15523 16.6061 5.09903 16.6142 5.04443 16.6142C4.81963 16.611 4.61249 16.6736 4.40856 16.7603C4.28331 16.8133 4.14682 16.8438 4.01354 16.8711C3.88026 16.8984 3.76786 16.8326 3.7213 16.7057C3.68436 16.6045 3.65706 16.4986 3.63298 16.3942C3.54627 16.0104 3.46759 15.6266 3.37927 15.2445C3.20585 14.5074 3.02439 13.7704 2.84937 13.0333C2.80601 12.8503 2.78514 12.6624 2.76908 12.4729C2.7466 12.2192 2.69683 11.9591 2.6069 11.7215C2.51537 11.479 2.45596 11.2317 2.38852 10.9844C2.37407 10.9314 2.35801 10.88 2.34677 10.827C2.27772 10.5043 2.0754 10.3903 1.73016 10.4336C1.53587 10.4593 1.34478 10.5107 1.15369 10.5541C0.975456 10.5926 0.798825 10.6408 0.618981 10.6713C0.374906 10.7146 0.293014 10.6617 0.233601 10.4192C0.153314 10.09 0.0794465 9.75922 0.0103992 9.42844C-0.0249273 9.25823 0.0296716 9.16991 0.209516 9.12976C0.580445 9.04627 0.936921 8.90978 1.31748 8.85518C1.53747 8.82307 1.75103 8.73635 1.96139 8.65767C2.10912 8.60308 2.25524 8.56294 2.411 8.5517C2.74981 8.52601 3.0806 8.45214 3.39693 8.32529C3.53021 8.2723 3.66349 8.24179 3.8064 8.23376C4.07617 8.21931 4.33951 8.16792 4.58679 8.06033C4.74576 7.99129 4.90474 7.95115 5.07655 7.94954C5.16005 7.94954 5.24355 7.93027 5.32705 7.91903H5.32544Z" fill="white"/>
<path d="M14.2593 13.52C14.3477 13.8026 14.3958 14.0981 14.4552 14.3887C14.4745 14.4851 14.4071 14.5734 14.3043 14.6007C14.2256 14.6216 14.1437 14.6376 14.0634 14.6521C13.6845 14.7163 13.3055 14.7741 12.9474 14.9234C12.8977 14.9443 12.8415 14.9491 12.7869 14.9556C12.6969 14.9668 12.6279 14.9283 12.5797 14.8544C12.4673 14.6778 12.4127 14.4803 12.4095 14.2763C12.4031 13.8396 12.3164 13.4156 12.212 12.9949C12.1124 12.5887 11.9904 12.1872 11.8828 11.7826C11.8427 11.6349 11.7479 11.5562 11.5922 11.5369C11.1458 11.4807 10.7074 11.5385 10.2787 11.6654C10.0715 11.7264 9.97198 11.887 9.96074 12.0989C9.93665 12.5646 10.0105 13.0142 10.1904 13.4461C10.2417 13.5714 10.2835 13.6999 10.3108 13.8315C10.3847 14.1752 10.4489 14.522 10.5131 14.8672C10.5308 14.9588 10.5404 15.0551 10.542 15.1482C10.542 15.3843 10.4987 15.4357 10.2771 15.4855C10.1036 15.524 9.92862 15.5593 9.75359 15.5963C9.75359 15.5914 9.75199 15.5866 9.75038 15.5818C9.53521 15.6284 9.32325 15.6814 9.10647 15.7167C8.88006 15.7536 8.78372 15.691 8.69219 15.4774C8.68256 15.4533 8.67292 15.4276 8.66489 15.4003C8.5541 15.0102 8.43848 14.6216 8.33411 14.2314C8.28112 14.0355 8.26346 13.8347 8.24579 13.6308C8.19602 13.0768 8.06755 12.5357 7.88289 12.0106C7.801 11.7794 7.74801 11.5465 7.73517 11.3009C7.71269 10.8802 7.61794 10.4707 7.50072 10.0676C7.42044 9.79467 7.36424 9.51687 7.31928 9.23587C7.26789 8.91471 7.19242 8.59838 7.13461 8.27884C7.10892 8.13271 7.10089 7.98499 7.08002 7.83726C7.05593 7.67186 7.15549 7.58355 7.29519 7.52735C7.37226 7.49523 7.45737 7.47757 7.53766 7.45348C7.79297 7.37801 8.04989 7.30093 8.30681 7.22868C8.3871 7.20619 8.4706 7.1805 8.55249 7.17247C8.75 7.1532 8.82387 7.20619 8.90897 7.37962C9.0005 7.56428 9.05188 7.765 9.0567 7.96571C9.06312 8.2403 9.12254 8.50204 9.17553 8.76699C9.23333 9.05924 9.29595 9.35148 9.35858 9.64052C9.37785 9.73205 9.39712 9.82839 9.43244 9.91349C9.48864 10.0484 9.59944 10.1335 9.75359 10.1287C10.0747 10.1206 10.3927 10.0998 10.6946 9.9713C10.8616 9.90065 11.0366 9.85087 11.202 9.78022C11.4814 9.65979 11.5199 9.58753 11.4734 9.31134C11.4525 9.1909 11.422 9.07368 11.3963 8.95486C11.3353 8.67867 11.2903 8.40088 11.2726 8.11505C11.255 7.81959 11.1699 7.53056 11.1137 7.23831C11.096 7.14518 11.0671 7.05526 11.0543 6.96052C11.035 6.81761 11.0992 6.72447 11.2437 6.68433C11.3786 6.6474 11.5183 6.6201 11.6532 6.58156C11.7752 6.54784 11.8941 6.50287 12.0161 6.47076C12.1783 6.4274 12.3421 6.38244 12.5075 6.35515C12.7387 6.31821 12.8431 6.38726 12.9169 6.60404C12.9378 6.66827 12.9571 6.73571 12.9539 6.80154C12.9426 7.06168 13.0069 7.31378 13.055 7.56428C13.1289 7.94966 13.1787 8.34307 13.2959 8.7156C13.4372 9.17003 13.5191 9.63409 13.6122 10.0982C13.6443 10.2555 13.6491 10.4193 13.6684 10.5799C13.6845 10.7132 13.6989 10.8496 13.7262 10.9813C13.8194 11.4293 13.8724 11.8902 14.0426 12.3221C14.0715 12.3944 14.0763 12.4811 14.0763 12.5614C14.0827 12.8889 14.1614 13.2005 14.2561 13.5136L14.2593 13.52Z" fill="white"/>
<path d="M21.7127 11.6237C21.7593 11.6398 21.8027 11.6751 21.8412 11.7088C21.8589 11.7249 21.8653 11.757 21.8701 11.7827C21.9327 12.1568 21.997 12.5309 22.0532 12.9051C22.0821 13.101 22.0034 13.2086 21.8123 13.2728C21.7738 13.2857 21.7336 13.2937 21.6919 13.3017C21.2069 13.3884 20.722 13.4751 20.2371 13.5618C20.0347 13.5972 19.8308 13.6293 19.6301 13.6646C19.3619 13.7128 19.0954 13.7834 18.8176 13.7658C18.7501 13.7609 18.6811 13.7754 18.6136 13.7899C18.3342 13.8541 18.058 13.9488 17.7754 13.9825C17.4896 14.0147 17.2038 14.0371 16.9276 14.1222C16.8184 14.156 16.714 14.1656 16.6048 14.1512C16.486 14.1351 16.4089 14.0628 16.356 13.9617C16.3495 13.9504 16.3463 13.936 16.3431 13.9231C16.2371 13.4912 16.0525 13.0785 16.0139 12.6289C15.9979 12.441 15.9995 12.2499 15.9706 12.0637C15.8935 11.5675 15.81 11.0745 15.7169 10.5832C15.6189 10.0629 15.5033 9.54906 15.4053 9.03041C15.317 8.56474 15.248 8.09586 15.1581 7.63019C15.0697 7.17897 14.9638 6.73097 14.869 6.27975C14.8112 6.01159 14.8963 5.87189 15.1645 5.86065C15.7313 5.83817 16.2773 5.68883 16.8313 5.60212C17.0256 5.57161 17.2215 5.54592 17.4141 5.50738C17.7048 5.45118 18.0002 5.41104 18.2796 5.32272C18.779 5.16375 19.2961 5.10595 19.8083 5.01602C19.9994 4.9823 20.2001 4.99194 20.396 4.99676C20.5149 4.99997 20.608 5.06099 20.6562 5.17339C20.8007 5.5106 20.8858 5.86707 20.9243 6.23158C20.9275 6.27172 20.9275 6.31508 20.9179 6.35362C20.8986 6.43551 20.8585 6.50937 20.7686 6.53506C20.6754 6.56236 20.5791 6.58163 20.4843 6.60733C20.3093 6.65068 20.1327 6.70367 19.956 6.7406C19.7794 6.77753 19.5996 6.81286 19.4197 6.8241C19.097 6.84658 18.7839 6.90118 18.4739 6.99752C18.209 7.08102 17.9296 7.12598 17.6582 7.18861C17.5362 7.2159 17.4109 7.23678 17.2921 7.27532C17.1428 7.3251 17.0657 7.44071 17.0834 7.59165C17.1139 7.86142 17.1604 8.12637 17.2921 8.37044C17.3547 8.48766 17.4511 8.55671 17.5876 8.55992C17.6984 8.56313 17.8108 8.57277 17.92 8.5551C18.1255 8.51978 18.3342 8.48285 18.5301 8.4154C18.9155 8.28534 19.3154 8.22271 19.712 8.15688C19.9159 8.12315 20.1263 8.12637 20.335 8.12476C20.4795 8.12476 20.5566 8.19702 20.5951 8.33993C20.5983 8.35278 20.6016 8.36562 20.6048 8.37847C20.661 8.71247 20.7188 9.04486 20.7718 9.38046C20.7959 9.53782 20.7252 9.64862 20.5727 9.69197C20.4795 9.71767 20.3832 9.73212 20.2884 9.75299C20.1407 9.78671 19.9882 9.81241 19.8436 9.86058C19.3539 10.026 18.8529 10.1095 18.3375 10.1352C18.1865 10.1432 18.0356 10.1769 17.8911 10.2235C17.7112 10.2797 17.6116 10.421 17.6389 10.5992C17.7064 11.0537 17.7513 11.5145 17.9376 11.9416C17.9922 12.0685 18.0725 12.144 18.2138 12.1424C18.4049 12.1391 18.6008 12.1424 18.7887 12.1135C19.2383 12.0412 20.1295 11.863 20.1279 11.8565C20.616 11.7778 21.1042 11.7008 21.5939 11.6253C21.6341 11.6189 21.6806 11.6076 21.716 11.6205L21.7127 11.6237Z" fill="white"/>
<path d="M35.7328 10.6953C35.752 10.774 35.7569 10.8559 35.7585 10.9378C35.7601 11.0341 35.699 11.124 35.6011 11.1513C35.3249 11.2284 35.0471 11.3007 34.8287 11.3585C34.6457 11.3697 34.522 11.381 34.4 11.3858C34.2025 11.3954 34.0451 11.3232 33.9777 11.1321C33.7786 10.5588 33.4895 10.0161 33.3739 9.41393C33.353 9.30795 33.3225 9.20196 33.2808 9.10401C33.1539 8.80534 33.019 8.50989 32.8858 8.21443C32.8697 8.1775 32.8537 8.13575 32.8248 8.11006C32.7862 8.07633 32.738 8.03459 32.6899 8.02977C32.6112 8.02334 32.563 8.08918 32.5486 8.15662C32.4811 8.47456 32.3832 8.78768 32.3896 9.11525C32.3944 9.39947 32.3639 9.68048 32.335 9.96309C32.2965 10.3388 32.2676 10.7162 32.2338 11.0935C32.221 11.2284 32.2114 11.3633 32.1857 11.4966C32.1632 11.6122 32.0877 11.6957 31.9673 11.7101C31.5209 11.7647 31.0777 11.8595 30.6217 11.8338C30.4884 11.8258 30.3808 11.7792 30.3134 11.6652C30.2507 11.5608 30.1849 11.4564 30.1464 11.3424C30.0195 10.9715 29.8878 10.6022 29.7883 10.2248C29.6486 9.69814 29.3756 9.22766 29.1749 8.72506C29.1412 8.63995 29.0769 8.56288 29.0159 8.49383C28.9517 8.42317 28.8136 8.46011 28.775 8.55324C28.7542 8.60302 28.7317 8.65601 28.7317 8.70739C28.7317 8.90972 28.7381 9.11205 28.7397 9.31437C28.7397 9.4894 28.7494 9.66603 28.7301 9.83945C28.6803 10.3244 28.6932 10.8109 28.6771 11.2959C28.6707 11.511 28.6418 11.7262 28.6161 11.9398C28.6032 12.0425 28.5374 12.1148 28.433 12.1357C27.9914 12.2208 27.5579 12.346 27.1019 12.3412C27.0617 12.3412 27.0135 12.3476 26.9814 12.33C26.9365 12.3075 26.877 12.2673 26.8706 12.2272C26.8465 12.0811 26.8305 11.9317 26.8321 11.784C26.8353 11.5142 26.8562 11.2445 26.8658 10.9747C26.8706 10.8671 26.877 10.7579 26.8594 10.652C26.8 10.2858 26.8208 9.92295 26.8883 9.56165C26.9397 9.29189 26.9638 9.02533 26.9188 8.75557C26.8819 8.53879 26.922 8.32362 26.9429 8.10845C26.9621 7.90612 26.9959 7.7054 27.0151 7.50308C27.0248 7.39549 27.0344 7.2863 27.0232 7.18032C26.9782 6.72108 26.9862 6.26665 27.0376 5.8058C27.1018 5.25663 27.1195 4.70104 27.1548 4.14706C27.1677 3.95115 27.2191 3.87889 27.4214 3.84036C27.6831 3.78897 27.9481 3.74562 28.2114 3.71029C28.4186 3.68139 28.6305 3.66854 28.8393 3.64606C28.9099 3.63964 28.979 3.6284 29.0496 3.62519C29.2857 3.61555 29.4527 3.7135 29.5442 3.92546C29.5603 3.96239 29.5747 4.00093 29.5859 4.04108C29.7096 4.48426 29.9151 4.89855 30.0307 5.34334C30.1126 5.65646 30.2186 5.96316 30.3166 6.27147C30.3278 6.31001 30.3487 6.34694 30.3712 6.37905C30.4145 6.43846 30.4804 6.47379 30.551 6.45292C30.5976 6.44007 30.6602 6.39832 30.673 6.35657C30.718 6.20081 30.7581 6.04184 30.7774 5.88287C30.7983 5.70945 30.8063 5.53121 30.7967 5.35619C30.7838 5.09605 30.8208 4.84395 30.8673 4.59024C30.9187 4.31084 30.9894 4.03305 30.9476 3.74401C30.9396 3.69263 30.9605 3.63643 30.9637 3.58344C30.9717 3.44213 31.0536 3.35863 31.1885 3.3217C31.4326 3.25747 31.6782 3.19806 31.9239 3.14186C31.9785 3.12901 32.0347 3.12098 32.0909 3.11777C32.3703 3.1001 32.6497 3.08566 32.9307 3.0712C33.0977 3.06318 33.1587 3.10814 33.2101 3.25586C33.4092 3.83072 33.6051 4.40558 33.8075 4.98044C33.8974 5.23576 34.0002 5.48465 34.0901 5.73996C34.1254 5.84113 34.1495 5.94871 34.1623 6.0563C34.1993 6.37102 34.3149 6.65845 34.4658 6.93304C34.5718 7.12412 34.6425 7.32645 34.6874 7.54001C34.7228 7.71183 34.7645 7.88364 34.8271 8.04743C35.0054 8.5147 35.1322 8.99803 35.341 9.45567C35.471 9.73828 35.5577 10.037 35.6268 10.3421C35.6541 10.4609 35.7023 10.5733 35.7312 10.6905L35.7328 10.6953Z" fill="white"/>
<path d="M42.2599 5.35291C42.2888 5.42678 42.2856 5.51349 42.2936 5.59378C42.353 6.17345 42.4108 6.75152 42.4687 7.32959C42.4847 7.48856 42.4815 8.58368 42.4638 8.70251C42.3964 9.1457 42.2182 9.53429 41.8729 9.83135C41.616 10.0529 41.3494 10.2665 41.0765 10.4688C40.9705 10.5475 40.8372 10.6118 40.7087 10.6374C40.0359 10.7707 39.3567 10.8044 38.6727 10.7225C38.4751 10.6985 38.3033 10.639 38.1476 10.517C37.9549 10.3661 37.7606 10.2183 37.5647 10.0722C37.2227 9.8169 37.0235 9.46525 36.8983 9.07344C36.8084 8.79244 36.7457 8.5034 36.6944 8.20955C36.5804 7.5544 36.5659 6.88962 36.4439 6.23768C36.4166 6.09156 36.4069 5.94222 36.3893 5.79449C36.3941 5.79449 36.2383 4.42158 36.1564 3.73753C36.1259 3.48221 36.0874 3.2285 36.0665 2.97158C36.0521 2.77729 36.1227 2.69861 36.3202 2.66007C36.6639 2.59423 37.0075 2.52679 37.3543 2.47219C37.4908 2.45132 37.6337 2.4449 37.7718 2.45453C37.9179 2.46577 38.032 2.59744 38.0127 2.73875C37.9709 3.03902 38.032 3.33288 38.0641 3.62673C38.0962 3.92219 38.1042 4.22407 38.1668 4.5131C38.2568 4.93702 38.2841 5.36576 38.3114 5.7961C38.3338 6.13331 38.3756 6.47052 38.4254 6.80451C38.4944 7.25894 38.5859 7.70855 38.6534 8.16298C38.7016 8.49376 38.9103 8.71857 39.2475 8.81973C39.71 8.96104 40.0841 8.84221 40.3731 8.46004C40.6718 8.06663 40.7168 7.62505 40.5546 7.18668C40.3747 6.70175 40.386 6.20236 40.3731 5.70618C40.3651 5.39306 40.3731 5.08475 40.2623 4.78769C40.2399 4.72507 40.2334 4.65601 40.2254 4.58857C40.1917 4.29311 40.1596 3.99605 40.1307 3.70059C40.1226 3.6203 40.1146 3.53841 40.1275 3.45813C40.1596 3.26704 40.1451 3.08238 40.0713 2.90093C40.0472 2.83991 40.0327 2.77086 40.0263 2.70503C40.0006 2.45132 40.1178 2.28593 40.3715 2.2217C40.6012 2.16389 40.8324 2.09645 41.0684 2.07075C41.2884 2.04667 41.5148 2.06754 41.738 2.07718C41.8408 2.0836 41.9404 2.18316 41.9532 2.29556C41.9709 2.45613 41.9869 2.61992 41.9805 2.7805C41.9628 3.17551 42.0126 3.5641 42.0784 3.95109C42.0945 4.04422 42.1074 4.13415 42.1106 4.22889C42.1234 4.60624 42.1202 4.9868 42.2583 5.3497L42.2599 5.35291Z" fill="white"/>
<path d="M49.5474 7.44856C49.5956 7.63483 49.5731 7.8227 49.5025 8.00576C49.3403 8.42486 49.1396 8.8247 48.9051 9.20686C48.767 9.43167 48.5791 9.60348 48.3303 9.70786C48.1552 9.78172 47.9882 9.87646 47.8116 9.94872C47.6992 9.99368 47.5772 10.0419 47.4583 10.0435C46.9124 10.0435 46.3664 10.021 45.8381 9.87004C45.5603 9.79136 45.3098 9.66611 45.1043 9.44933C44.9646 9.30321 44.7848 9.19723 44.6322 9.06074C44.5214 8.96118 44.4219 8.85039 44.3335 8.73156C44.2645 8.64004 44.3014 8.50997 44.3946 8.44413C44.7735 8.17437 45.1557 7.90942 45.533 7.63805C45.6647 7.54331 45.7851 7.54331 45.9088 7.63805C46.0388 7.736 46.1705 7.83555 46.291 7.94635C46.5463 8.184 46.8433 8.22414 47.1709 8.1567C47.1854 8.15349 47.1982 8.15189 47.211 8.14867C47.5466 8.06036 47.6719 7.70388 47.4375 7.45017C47.2913 7.29281 47.1067 7.16595 46.9252 7.04713C46.8016 6.96523 46.6522 6.92027 46.5141 6.86086C45.753 6.53489 45.0417 6.13024 44.3962 5.61158C43.9064 5.21817 43.6784 4.69791 43.6415 4.09415C43.6206 3.76818 43.6704 3.44703 43.8325 3.14997C43.969 2.89786 44.0927 2.63934 44.2372 2.39205C44.364 2.17528 44.5503 2.00506 44.7831 1.89908C44.9212 1.83646 45.0722 1.79632 45.2199 1.75939C45.517 1.68391 45.8172 1.61647 46.0421 1.56348C46.4162 1.53619 46.71 1.57312 46.9878 1.66465C47.3315 1.77705 47.6655 1.91514 48.0043 2.042C48.205 2.11586 48.3688 2.24753 48.5085 2.39687C48.6867 2.58474 48.8441 2.79349 48.9999 2.99903C49.0657 3.08734 49.048 3.18529 48.9581 3.25113C48.8489 3.33302 48.7365 3.42134 48.6113 3.47433C48.3399 3.58994 48.0942 3.73928 47.8694 3.92394C47.8164 3.9673 47.757 4.00583 47.6992 4.04116C47.5804 4.11502 47.5017 4.10539 47.4069 4.00262C47.3331 3.92233 47.2672 3.83402 47.187 3.75855C46.9477 3.53214 46.6603 3.41331 46.3231 3.4101C46.1801 3.4101 46.0469 3.439 45.92 3.50163C45.7867 3.56746 45.7032 3.67826 45.6808 3.81796C45.647 4.02671 45.6856 4.22422 45.8429 4.38158C45.9987 4.53894 46.1785 4.66259 46.3889 4.74127C46.6089 4.82316 46.8273 4.90666 47.0441 4.99497C47.248 5.07847 47.4503 5.16518 47.651 5.25511C47.9031 5.36751 48.1344 5.51203 48.3431 5.69348C48.5294 5.85405 48.7349 5.99215 48.9228 6.14951C49.0047 6.21856 49.0801 6.30206 49.1347 6.39198C49.3322 6.71955 49.4463 7.08245 49.5426 7.44856H49.5474Z" fill="white"/>
<path d="M52.9882 6.23786C53.0187 6.35347 53.0364 6.48514 53.0107 6.59915C52.9224 7.00862 53.0027 7.40845 53.0653 7.80668C53.0813 7.91426 53.0878 8.01703 53.0878 8.12462C53.091 8.47628 53.1167 8.82633 53.1311 9.17799C53.1359 9.27273 53.144 9.36747 53.1295 9.459C53.1231 9.50075 53.0701 9.56176 53.03 9.56819C52.8967 9.58906 52.7586 9.60672 52.6253 9.59227C52.3507 9.56016 52.0826 9.57461 51.816 9.65329C51.7389 9.67577 51.6538 9.67898 51.5735 9.6838C51.4097 9.69343 51.3166 9.62599 51.2925 9.459C51.2652 9.25828 51.2556 9.05595 51.2395 8.85362C51.2074 8.42168 51.1769 7.98973 51.1448 7.55779C51.1143 7.14029 51.0838 6.72119 51.0533 6.30369C51.0597 6.30369 50.9296 4.46832 50.8413 3.55304C50.806 3.19014 50.7803 2.82884 50.7771 2.46594C50.7771 2.22347 50.7369 1.981 50.7177 1.73854C50.7112 1.67109 50.708 1.60366 50.7096 1.53621C50.7128 1.38046 50.7819 1.27287 50.9393 1.23593C51.0741 1.20382 51.2187 1.17492 51.3552 1.18937C51.6635 1.21988 51.9685 1.22952 52.2769 1.20543C52.3186 1.20222 52.3604 1.20864 52.4005 1.21827C52.5033 1.24397 52.5771 1.30178 52.5948 1.40615C52.6108 1.49928 52.6189 1.59402 52.6285 1.68876C52.6703 2.13034 52.7538 2.56711 52.7265 3.01672C52.712 3.27043 52.7682 3.52574 52.8084 3.77945C52.863 4.12469 52.8774 4.47956 52.8758 4.82961C52.8726 5.30331 52.8662 5.77379 52.9866 6.23786H52.9882Z" fill="white"/>
<path d="M60.8363 2.38079C60.8732 2.45144 60.8395 2.51567 60.7849 2.56224C60.7319 2.60559 60.6725 2.64092 60.6115 2.67464C60.2711 2.85931 59.9291 3.04075 59.5886 3.22381C59.5405 3.2495 59.4923 3.28001 59.4393 3.29446C59.3285 3.32658 59.2193 3.32337 59.1262 3.24147C58.9929 3.12425 58.8532 3.01024 58.7247 2.88821C58.3747 2.55742 57.9749 2.58151 57.5622 2.74048C57.3117 2.83683 57.1126 3.00864 56.9183 3.18527C56.8139 3.28162 56.7529 3.40205 56.7079 3.53211C56.6453 3.71035 56.5875 3.8918 56.5249 4.07165C56.4028 4.4217 56.345 4.77978 56.3948 5.14268C56.39 5.67901 56.5682 6.15591 56.8139 6.61676C56.9391 6.8512 57.1077 7.03908 57.3534 7.1563C57.514 7.23338 57.6714 7.31526 57.8368 7.38271C58.2093 7.53525 58.5577 7.49672 58.8789 7.24622C58.9431 7.19484 59.0041 7.13864 59.0684 7.09046C59.2 6.99091 59.306 6.98609 59.4457 7.07761C59.5244 7.129 59.5999 7.19002 59.6641 7.25906C59.815 7.41803 59.982 7.55453 60.1715 7.66853C60.2759 7.72955 60.3722 7.80984 60.4606 7.89334C60.5424 7.96881 60.5489 8.1053 60.475 8.1904C60.2438 8.45696 60.0222 8.73154 59.6769 8.87285C59.4008 8.98686 59.1422 9.13779 58.8516 9.22611C58.585 9.3064 58.3153 9.32888 58.0423 9.3064C57.7581 9.28231 57.4755 9.23414 57.1928 9.18918C57.0307 9.16349 56.8765 9.11211 56.7464 9.00291C56.3546 8.66731 55.9596 8.33331 55.5614 8.00253C55.2916 7.77772 55.1086 7.49672 54.9994 7.17075C54.8533 6.73399 54.7104 6.29882 54.5803 5.85724C54.4229 5.32895 54.4149 4.79424 54.553 4.25631C54.6012 4.07325 54.6525 3.88698 54.6638 3.70072C54.675 3.49036 54.7328 3.30249 54.8308 3.12104C54.8693 3.04878 54.9143 2.97652 54.9352 2.89945C55.0347 2.51086 55.2997 2.23306 55.5807 1.96651C55.9098 1.65178 56.2663 1.36756 56.6357 1.0994C56.8332 0.954883 57.0451 0.874594 57.2908 0.852114C57.5686 0.826422 57.848 0.794305 58.1242 0.749343C58.2848 0.723651 58.4325 0.763796 58.5786 0.800729C58.8227 0.861747 59.0603 0.937219 59.298 1.01751C59.4024 1.05283 59.5035 1.10422 59.5951 1.16363C59.8038 1.29851 60.0125 1.43661 60.2084 1.58755C60.4846 1.80272 60.6789 2.08373 60.8347 2.38721L60.8363 2.38079Z" fill="white"/>
<path d="M64.2751 5.69344C64.3008 5.81066 64.3137 5.94233 64.2848 6.05474C64.1804 6.46099 64.2478 6.86243 64.2944 7.26387C64.3073 7.37145 64.3089 7.47422 64.3056 7.58341C64.296 7.93507 64.3073 8.28673 64.3105 8.63839C64.3105 8.73152 64.3169 8.82787 64.2992 8.9194C64.2912 8.96115 64.235 9.02056 64.1949 9.02538C64.06 9.04144 63.9219 9.05428 63.7886 9.03501C63.514 8.99487 63.2475 8.99808 62.9793 9.06552C62.9006 9.08479 62.8171 9.08479 62.7352 9.0864C62.5714 9.09122 62.4815 9.01896 62.4638 8.85035C62.4446 8.64963 62.4414 8.4457 62.4333 8.24338C62.4173 7.81143 62.4028 7.37788 62.3868 6.94593C62.3723 6.52683 62.3563 6.10773 62.3418 5.68863C62.3498 5.68863 62.2856 3.85004 62.231 2.93155C62.2085 2.56865 62.1973 2.20575 62.2069 1.84285C62.2134 1.60038 62.1844 1.35631 62.1732 1.11384C62.17 1.0464 62.1684 0.978954 62.1732 0.911513C62.1812 0.755755 62.2551 0.65138 62.4125 0.619265C62.549 0.591967 62.6935 0.569486 62.8284 0.588755C63.1351 0.630505 63.4401 0.649773 63.7484 0.638533C63.7902 0.638533 63.832 0.644959 63.8721 0.656199C63.9733 0.685102 64.0455 0.74612 64.06 0.850493C64.0728 0.943627 64.0776 1.03837 64.0824 1.13311C64.1081 1.5763 64.1756 2.01627 64.1322 2.46428C64.1081 2.71799 64.1563 2.9749 64.1868 3.23022C64.2286 3.57706 64.2302 3.93193 64.2157 4.28199C64.1965 4.75568 64.1708 5.22617 64.2751 5.69344Z" fill="white"/>
<path d="M72.6209 8.55961C72.6305 8.59814 72.6321 8.63989 72.6353 8.68004C72.6417 8.74748 72.5887 8.82616 72.5245 8.82776C72.0765 8.83258 71.6253 8.83419 71.1773 8.8374C71.0167 8.8374 70.93 8.73463 70.885 8.59814C70.8176 8.39261 70.763 8.18386 70.6939 7.97832C70.6377 7.81133 70.5767 7.64593 70.5045 7.48696C70.4001 7.25734 70.2187 7.12567 69.9569 7.1337C69.6422 7.14333 69.3275 7.15939 69.0127 7.17866C68.7526 7.19472 68.4941 7.23165 68.2355 7.23807C67.9995 7.24289 67.8405 7.34084 67.7602 7.5544C67.6559 7.8322 67.5627 8.11642 67.468 8.39742C67.4327 8.49859 67.4134 8.60778 67.3749 8.70733C67.3315 8.81492 67.2464 8.88076 67.1244 8.88557C66.7165 8.90163 66.307 8.91769 65.8976 8.93214C65.8446 8.93375 65.79 8.91769 65.737 8.90645C65.6792 8.8936 65.623 8.81492 65.6294 8.75069C65.6342 8.6977 65.6455 8.64471 65.6583 8.59332C65.8237 7.91088 65.9827 7.22683 66.1593 6.5476C66.2203 6.31316 66.3086 6.08353 66.4002 5.85873C66.5029 5.60663 66.5896 5.35131 66.6362 5.08315C66.6812 4.8166 66.7582 4.55807 66.8289 4.29634C66.9365 3.89169 67.0216 3.48221 67.134 3.07757C67.3315 2.3614 67.5274 1.64203 67.7891 0.943524C67.8084 0.89214 67.8309 0.84236 67.8486 0.790976C67.908 0.633612 68.03 0.546903 68.1954 0.537269C68.4748 0.522817 68.7558 0.52442 69.1171 0.519603C69.2167 0.51318 69.3997 0.500335 69.5796 0.490701C69.6775 0.485883 69.7755 0.482674 69.8734 0.487491C70.0468 0.493914 70.1673 0.580622 70.2138 0.741198C70.3294 1.12979 70.5109 1.49751 70.5928 1.89734C70.6249 2.05631 70.6634 2.21528 70.7245 2.36622C70.8866 2.77087 71.0055 3.18676 71.1259 3.60104C71.1403 3.65243 71.1564 3.70542 71.1805 3.75359C71.3892 4.19838 71.5 4.67208 71.6285 5.14257C71.6702 5.29832 71.7216 5.45408 71.7875 5.60181C71.9288 5.92617 72.0187 6.26498 72.107 6.6054C72.205 6.98436 72.3109 7.36171 72.4089 7.74067C72.4811 8.01525 72.5502 8.28984 72.6192 8.56442L72.6209 8.55961ZM69.602 5.94705C69.7995 5.92457 69.9264 5.78165 69.9071 5.58896C69.8991 5.51028 69.8686 5.4332 69.8461 5.35613C69.7963 5.18752 69.7273 5.02374 69.6968 4.85353C69.6325 4.48902 69.4479 4.16948 69.321 3.82906C69.3018 3.77928 69.2696 3.73271 69.2359 3.69096C69.1444 3.57535 68.9613 3.59141 68.8859 3.71987C68.8521 3.77767 68.8249 3.8403 68.7976 3.90292C68.5824 4.40392 68.5133 4.94345 68.3399 5.45568C68.3319 5.47977 68.3335 5.50867 68.3319 5.53597C68.3174 5.74311 68.409 5.878 68.6177 5.91332C68.8072 5.94383 68.9983 5.95186 69.101 5.95989C69.3018 5.95668 69.411 5.95668 69.5201 5.95347C69.5474 5.95347 69.5747 5.95026 69.602 5.94865V5.94705Z" fill="white"/>
<path d="M79.8022 6.39189C79.7717 7.01492 79.7877 7.63795 79.7749 8.25938C79.7733 8.36697 79.7653 8.47615 79.746 8.58213C79.7107 8.78125 79.6111 8.85672 79.4088 8.85993C79.3269 8.85993 79.245 8.85351 79.1631 8.8519C78.9463 8.84869 78.7279 8.83424 78.5128 8.89847C78.4229 8.92416 78.3233 8.91613 78.2286 8.91613C78.0359 8.91453 77.8897 8.8246 77.7838 8.66885C77.7533 8.62389 77.7227 8.57732 77.7019 8.52754C77.5397 8.14055 77.3309 7.77284 77.2137 7.36819C77.1382 7.10645 77.0355 6.85916 76.899 6.62151C76.8123 6.46897 76.7593 6.29876 76.6918 6.13658C76.5762 5.86199 76.4622 5.5858 76.345 5.31282C76.3241 5.26305 76.2984 5.21327 76.2695 5.16831C76.2182 5.08641 76.1587 5.01094 76.0495 5.00452C75.9628 4.9997 75.889 5.0832 75.8472 5.23093C75.7557 5.56172 75.738 5.89411 75.7991 6.23292C75.8296 6.40474 75.8312 6.58137 75.836 6.758C75.844 7.02777 75.836 7.29593 75.8809 7.5673C75.9323 7.87882 75.8649 8.18873 75.8087 8.49382C75.7766 8.66885 75.6561 8.77643 75.4699 8.79731C75.2659 8.82139 75.0636 8.86635 74.8613 8.86154C74.6044 8.85672 74.3475 8.81658 74.0921 8.77643C74.044 8.7684 73.9926 8.68972 73.9685 8.63352C73.9428 8.57411 73.9428 8.50024 73.9444 8.4328C73.9508 8.08275 74.0006 7.73108 73.9043 7.38264C73.8946 7.3457 73.9091 7.30235 73.9155 7.26221C74.0151 6.65684 74.0183 6.05147 73.9155 5.4461C73.8946 5.32888 73.8962 5.20203 73.9155 5.0832C74.0022 4.54528 73.9733 4.00574 73.9316 3.46621C73.8995 3.05032 73.8625 2.63122 73.9444 2.21372C73.9749 2.05636 73.9669 1.89097 73.9685 1.72878C73.9701 1.49916 73.9653 1.26794 73.9637 1.03831C73.9637 0.970871 73.9637 0.901823 73.9701 0.835987C73.9942 0.617604 74.0809 0.508413 74.3057 0.484327C74.6959 0.442577 75.0877 0.432944 75.4795 0.490751C75.6883 0.52126 75.8344 0.630453 75.9388 0.808692C76.1042 1.0913 76.2872 1.36428 76.4462 1.6501C76.5441 1.82834 76.626 2.01622 76.6903 2.20891C76.7786 2.46743 76.8813 2.71953 77.0387 2.94273C77.1912 3.15951 77.2539 3.41161 77.3486 3.65087C77.4032 3.79057 77.4498 3.93188 77.5557 4.04428C77.6232 4.11654 77.7067 4.14705 77.7741 4.11975C77.8448 4.09085 77.8817 4.03465 77.8881 3.96399C77.8978 3.85641 77.9058 3.74882 77.9058 3.63963C77.9138 3.16433 77.9186 2.69224 77.9267 2.21693C77.9331 1.93272 77.9267 1.65171 77.9829 1.36749C78.0182 1.18283 77.9941 0.990139 77.9973 0.80066C77.9973 0.733218 77.9973 0.664171 78.0102 0.599941C78.023 0.526076 78.0776 0.479508 78.1531 0.473085C78.2639 0.465056 78.3779 0.468268 78.4887 0.473085C78.8387 0.487537 79.1888 0.506806 79.5389 0.463451C79.6159 0.453816 79.7075 0.477904 79.7765 0.514836C79.8311 0.54374 79.8745 0.607972 79.9018 0.667385C79.9242 0.713951 79.9194 0.773364 79.9178 0.82796C79.9082 1.2872 79.8969 1.74806 79.8841 2.20891C79.8777 2.41123 79.8632 2.61516 79.86 2.81748C79.8504 3.41322 79.8439 4.00735 79.8359 4.60308C79.8311 4.60308 79.8359 5.79455 79.8054 6.38868L79.8022 6.39189Z" fill="white"/>
<path d="M91.5711 4.60632C91.5952 5.0752 91.5711 5.5505 91.4571 6.01617C91.3993 6.249 91.4153 6.4995 91.388 6.74197C91.3222 7.32967 91.1327 7.87242 90.7618 8.34451C90.484 8.69938 90.1387 8.94988 89.6859 9.02856C89.4579 9.0671 89.2299 9.10885 88.9987 9.1233C87.9067 9.19396 88.146 9.27103 87.0027 9.16987C86.9481 9.16505 86.8935 9.16505 86.8389 9.16345C86.8389 9.16345 86.8389 9.16666 86.8389 9.16826C86.4985 9.15381 86.1581 9.13936 85.8177 9.1249C85.7631 9.1233 85.7085 9.11848 85.6555 9.10724C85.5222 9.07673 85.4419 8.99002 85.4162 8.85996C85.4034 8.79412 85.4066 8.72507 85.4082 8.65763C85.4226 8.21123 85.4371 7.76644 85.3873 7.32004C85.3664 7.13538 85.4034 6.94269 85.421 6.75482C85.4419 6.53965 85.4933 6.32608 85.4949 6.11091C85.4949 4.94513 85.6186 3.78739 85.641 2.62482C85.6491 2.17842 85.6603 1.73202 85.6715 1.28563C85.6748 1.20373 85.6747 1.12344 85.6828 1.04316C85.7069 0.752514 85.7663 0.688285 86.0569 0.652959C86.1388 0.643324 86.2255 0.644927 86.3074 0.654561C86.9048 0.731637 87.5037 0.774992 88.1059 0.794261C88.4704 0.805501 88.8349 0.816742 89.1978 0.819954C89.6923 0.824771 90.1243 1.01264 90.5418 1.23745C90.6124 1.27599 90.6799 1.3338 90.7297 1.39803C90.9496 1.67903 91.1648 1.96165 91.3704 2.25229C91.4314 2.339 91.4731 2.44819 91.4892 2.55095C91.5374 2.8705 91.6112 3.18844 91.5871 3.51441C91.5598 3.87731 91.555 4.2386 91.5727 4.60632H91.5711ZM89.3856 4.13905C89.3937 3.89658 89.3792 3.6525 89.3487 3.41164C89.3166 3.15472 89.1785 2.92831 88.9168 2.86247C88.594 2.78058 88.2552 2.76452 87.9292 2.87532C87.8313 2.90904 87.7654 2.97969 87.7446 3.07925C87.7076 3.25106 87.6643 3.42288 87.653 3.5963C87.6209 4.10854 87.6033 4.62398 87.5808 5.13622C87.5727 5.13622 87.5085 6.16229 87.486 6.67613C87.4828 6.74357 87.4828 6.81262 87.486 6.87846C87.4973 7.06473 87.5968 7.17873 87.7879 7.20443C88.1348 7.2526 88.4704 7.22851 88.7899 7.07115C89.0709 6.93306 89.2203 6.70664 89.2716 6.40797C89.2813 6.35498 89.2829 6.30039 89.2861 6.24579C89.3198 5.54408 89.3616 4.84076 89.3856 4.13905Z" fill="white"/>
<path d="M95.2061 6.30818C95.2206 6.42701 95.2206 6.55868 95.1804 6.66947C95.0375 7.06288 95.0616 7.46914 95.0696 7.87379C95.0712 7.98298 95.0632 8.08414 95.0488 8.19172C95.0038 8.54017 94.9813 8.89183 94.9476 9.24189C94.938 9.33663 94.9347 9.43136 94.9074 9.52129C94.8946 9.56143 94.8336 9.61442 94.7934 9.61602C94.6586 9.61763 94.5189 9.61602 94.3888 9.58552C94.1206 9.51807 93.8525 9.49559 93.5795 9.53574C93.4992 9.54858 93.4157 9.53895 93.3354 9.53253C93.1716 9.51968 93.0881 9.43939 93.0881 9.27079C93.0881 9.06846 93.1058 8.86453 93.1186 8.66382C93.1459 8.23187 93.1732 7.79992 93.2005 7.36797C93.2262 6.94887 93.2535 6.53138 93.2808 6.11228C93.2873 6.11228 93.4077 4.2769 93.4446 3.35841C93.4591 2.99551 93.4831 2.63422 93.5297 2.27292C93.5602 2.03206 93.557 1.78638 93.5683 1.54391C93.5715 1.47647 93.5763 1.40903 93.5875 1.34158C93.6116 1.18743 93.6951 1.09109 93.8557 1.07503C93.9938 1.06218 94.1399 1.05255 94.2732 1.08467C94.5735 1.15693 94.8753 1.2067 95.1852 1.22597C95.227 1.22918 95.2671 1.24042 95.3057 1.25648C95.4036 1.29502 95.4695 1.36246 95.4727 1.46844C95.4759 1.56318 95.4711 1.65792 95.4679 1.75266C95.4502 2.19584 95.4727 2.64064 95.3844 3.08222C95.3346 3.33111 95.3571 3.59285 95.3619 3.84977C95.3683 4.19982 95.3346 4.55148 95.2848 4.89993C95.2174 5.36881 95.1467 5.83448 95.2045 6.30978L95.2061 6.30818Z" fill="white"/>
<path d="M103.424 10.0706C103.461 10.1509 103.395 10.2376 103.307 10.2376C103.28 10.2376 103.252 10.2408 103.225 10.2376C102.777 10.183 102.331 10.1284 101.879 10.1589C101.65 10.1733 101.491 10.0593 101.401 9.84897C101.364 9.76226 101.324 9.67555 101.29 9.58723C101.203 9.35761 101.101 9.13923 100.945 8.94493C100.885 8.87107 100.836 8.78757 100.8 8.70086C100.712 8.48729 100.595 8.28978 100.476 8.09067C100.392 7.95258 100.338 7.79682 100.283 7.64427C100.156 7.29743 99.9685 6.9827 99.7742 6.67119C99.7244 6.5909 99.6618 6.51543 99.5944 6.44799C99.4065 6.26333 99.1046 6.34201 99.0372 6.5909C99.0307 6.61659 99.0227 6.64389 99.0211 6.67119C98.9922 7.27816 98.8091 7.86908 98.8011 8.47926C98.7995 8.64145 98.7915 8.80041 98.8075 8.9642C98.8252 9.15047 98.8043 9.34476 98.7674 9.52782C98.7337 9.69642 98.6261 9.81846 98.4254 9.81525C98.3178 9.81525 98.2038 9.84255 98.101 9.81846C97.7943 9.7446 97.4796 9.73014 97.1665 9.71087C97.1263 9.70927 97.0846 9.70285 97.0444 9.69642C96.977 9.68358 96.9208 9.61935 96.9224 9.55351C96.9256 9.45877 96.9288 9.36403 96.9417 9.2709C97.0187 8.67998 97.0493 8.09067 97.0332 7.49173C97.022 6.97949 97.0942 6.46726 97.1295 5.95341C97.3126 5.32075 97.2532 4.664 97.3367 4.02169C97.3463 3.94301 97.3479 3.85952 97.3351 3.77923C97.311 3.62829 97.3431 3.48698 97.3688 3.33925C97.4346 2.95387 97.4812 2.56528 97.4378 2.17026C97.4154 1.97115 97.4427 1.76562 97.4683 1.5649C97.4892 1.40593 97.5968 1.34651 97.7702 1.35936C98.3708 1.40593 98.9713 1.4541 99.5719 1.50388C99.5719 1.50709 100.661 1.61307 101.205 1.65643C101.504 1.68051 101.783 1.7624 102.042 1.90692C102.236 2.01451 102.432 2.12209 102.62 2.23931C102.899 2.41594 103.088 2.66805 103.206 2.96511C103.294 3.19313 103.374 3.42436 103.442 3.6588C103.471 3.76157 103.472 3.87397 103.464 3.97995C103.442 4.29307 103.382 4.59655 103.238 4.87917C103.175 4.9996 103.113 5.12003 103.061 5.24528C102.92 5.5873 102.666 5.82496 102.348 6.0048C102.205 6.08509 102.056 6.15574 101.908 6.228C101.611 6.37252 101.552 6.51222 101.691 6.81249C101.789 7.02124 101.899 7.22678 102.03 7.41626C102.25 7.73259 102.435 8.05695 102.544 8.42788C102.587 8.57882 102.682 8.72495 102.782 8.8518C103.076 9.22112 103.231 9.65628 103.427 10.0722L103.424 10.0706ZM101.054 3.66201C101.057 3.50143 100.969 3.37779 100.821 3.30553C100.736 3.26378 100.641 3.23327 100.547 3.21722C100.425 3.19634 100.299 3.19313 100.174 3.18189C100.05 3.17065 99.9252 3.15941 99.8015 3.15138C99.7598 3.14817 99.718 3.15138 99.6763 3.1562C99.4129 3.1851 99.2572 3.33604 99.209 3.59296C99.1688 3.81134 99.2138 4.0217 99.2427 4.23526C99.2604 4.36372 99.3519 4.46007 99.4739 4.50342C99.8288 4.63028 100.195 4.6929 100.571 4.61743C100.812 4.56926 100.961 4.41511 101.007 4.18548C101.041 4.01528 101.051 3.83864 101.054 3.66362V3.66201Z" fill="white"/>
<path d="M118.807 5.39771C118.829 5.47479 118.786 5.53099 118.723 5.56631C118.664 5.60004 118.598 5.62252 118.532 5.64339C118.163 5.76061 117.792 5.87783 117.423 5.99505C117.371 6.01111 117.317 6.03199 117.262 6.0368C117.146 6.04804 117.04 6.02396 116.963 5.92601C116.854 5.78631 116.737 5.64821 116.633 5.50369C116.348 5.1151 115.95 5.06372 115.515 5.14401C115.252 5.19218 115.022 5.32545 114.799 5.46194C114.678 5.53581 114.596 5.645 114.529 5.76382C114.434 5.92761 114.343 6.09461 114.248 6.26C114.063 6.58276 113.94 6.92318 113.922 7.28929C113.819 7.81437 113.906 8.31858 114.063 8.81475C114.144 9.06686 114.275 9.28524 114.495 9.44421C114.64 9.54858 114.779 9.65938 114.929 9.75573C115.268 9.97411 115.619 10.0014 115.981 9.81353C116.053 9.77499 116.123 9.73164 116.196 9.69471C116.343 9.62245 116.449 9.63529 116.57 9.75091C116.637 9.81514 116.7 9.889 116.753 9.96929C116.872 10.1523 117.011 10.3177 117.177 10.4639C117.268 10.5441 117.347 10.6405 117.421 10.7384C117.487 10.8268 117.469 10.9633 117.381 11.0339C117.103 11.2539 116.835 11.4819 116.469 11.5574C116.176 11.6184 115.892 11.7196 115.592 11.7517C115.314 11.7822 115.044 11.7517 114.781 11.681C114.505 11.6056 114.235 11.506 113.965 11.408C113.811 11.3518 113.668 11.2748 113.561 11.1415C113.236 10.7384 112.909 10.3386 112.578 9.94039C112.355 9.67062 112.225 9.36071 112.177 9.01868C112.114 8.56425 112.053 8.10822 112.005 7.65058C111.949 7.10142 112.038 6.57473 112.273 6.07213C112.353 5.90032 112.44 5.72689 112.483 5.54544C112.533 5.34151 112.625 5.16648 112.755 5.00591C112.806 4.94168 112.864 4.88066 112.898 4.8068C113.066 4.4439 113.379 4.21909 113.704 4.00874C114.086 3.75985 114.489 3.54789 114.903 3.35038C115.125 3.2444 115.348 3.20586 115.594 3.22834C115.873 3.25403 116.152 3.2733 116.433 3.28133C116.596 3.28615 116.734 3.35359 116.872 3.41461C117.1 3.51898 117.321 3.63781 117.541 3.76145C117.638 3.81605 117.728 3.88509 117.808 3.96056C117.989 4.13238 118.169 4.3058 118.333 4.49046C118.566 4.7522 118.704 5.06372 118.803 5.3929L118.807 5.39771Z" fill="white"/>
<path d="M125.136 4.68991C125.495 4.78625 125.507 4.80713 125.445 5.17806C125.4 5.44622 125.356 5.71277 125.311 5.97932C125.3 6.04677 125.292 6.1126 125.278 6.18004C125.247 6.32617 125.162 6.40003 125.019 6.38398C124.783 6.35668 124.549 6.31814 124.314 6.28121C124.094 6.24588 123.874 6.19771 123.653 6.1688C123.479 6.14632 123.346 6.22661 123.298 6.38398C123.246 6.55258 123.205 6.72439 123.184 6.89781C123.075 7.75689 122.88 8.60312 122.787 9.46541C122.696 10.0403 122.606 10.6151 122.509 11.1884C122.45 11.5497 122.381 11.9078 122.315 12.2674C122.305 12.3204 122.299 12.375 122.28 12.4264C122.161 12.7428 122.121 12.7604 121.796 12.6978C121.743 12.6866 121.689 12.6737 121.639 12.6528C121.432 12.5661 121.218 12.5468 120.997 12.5517C120.862 12.5549 120.724 12.5324 120.591 12.5067C120.457 12.4826 120.379 12.3782 120.383 12.245C120.387 12.1374 120.401 12.0282 120.419 11.9222C120.481 11.5336 120.552 11.1482 120.611 10.7597C120.725 10.0098 120.831 9.25988 120.945 8.50999C120.974 8.32372 121.024 8.14227 121.08 7.96082C121.154 7.71675 121.206 7.45822 121.21 7.20451C121.215 6.94599 121.252 6.69389 121.283 6.43857C121.289 6.38558 121.292 6.33099 121.302 6.278C121.358 5.95363 121.214 5.76897 120.878 5.68387C120.689 5.63409 120.494 5.61321 120.3 5.57949C120.12 5.54898 119.94 5.5265 119.762 5.48957C119.52 5.43819 119.465 5.3579 119.5 5.11222C119.548 4.77662 119.605 4.44262 119.662 4.11023C119.693 3.93842 119.776 3.87739 119.958 3.9063C120.332 3.96732 120.713 3.97374 121.084 4.06366C121.299 4.11665 121.528 4.11504 121.753 4.12147C121.91 4.12468 122.06 4.14235 122.209 4.19052C122.534 4.29329 122.864 4.34788 123.205 4.34788C123.348 4.34788 123.483 4.37036 123.617 4.41532C123.871 4.50203 124.134 4.55181 124.404 4.54539C124.576 4.54057 124.738 4.56305 124.899 4.62568C124.976 4.65619 125.061 4.66903 125.143 4.69151L125.136 4.68991Z" fill="white"/>
<path d="M132.487 10.326C132.467 10.5412 132.41 10.7467 132.316 10.9474C132.224 11.1417 132.178 11.3569 132.101 11.5592C132.068 11.6459 132.015 11.7278 131.962 11.8049C131.818 12.0185 131.661 12.224 131.526 12.4424C131.351 12.7234 131.127 12.961 130.867 13.1601C130.718 13.2741 130.543 13.3609 130.366 13.4315C130.024 13.568 129.677 13.6949 129.324 13.804C129.144 13.8602 128.947 13.8892 128.759 13.8811C128.305 13.8619 127.877 13.7478 127.47 13.5214C126.941 13.2292 126.546 12.8101 126.167 12.3573C125.869 11.9992 125.681 11.6074 125.613 11.153C125.568 10.8446 125.509 10.5396 125.454 10.2312C125.396 9.90689 125.424 9.58413 125.451 9.26137C125.461 9.14094 125.49 9.02051 125.51 8.90008C125.536 8.58856 125.61 8.28668 125.747 8.00247C125.846 7.79532 125.938 7.58336 126.036 7.37622C126.129 7.17872 126.249 6.99887 126.411 6.84632C126.71 6.56532 127.007 6.2811 127.306 5.99848C127.436 5.87484 127.59 5.78813 127.76 5.71748C128.226 5.52479 128.703 5.3867 129.218 5.37385C129.446 5.36743 129.665 5.38348 129.883 5.45574C130.381 5.61953 130.84 5.85878 131.278 6.13337C131.53 6.29234 131.73 6.49787 131.856 6.77085C131.982 7.04383 132.129 7.30878 132.255 7.58176C132.317 7.71664 132.359 7.86276 132.402 8.00568C132.462 8.19997 132.512 8.39908 132.573 8.59338C132.606 8.69936 132.627 8.80213 132.616 8.91293C132.571 9.38502 132.536 9.8555 132.489 10.326H132.487ZM130.667 9.4364C130.768 9.15861 130.691 8.75235 130.516 8.35413C130.461 8.23048 130.411 8.10363 130.36 7.97677C130.243 7.68292 130.021 7.4822 129.75 7.32484C129.382 7.10967 129.003 7.10325 128.632 7.29112C128.171 7.52395 127.84 7.86919 127.688 8.36537C127.596 8.66083 127.479 8.94825 127.389 9.24532C127.339 9.41071 127.294 9.58734 127.296 9.75916C127.298 10.0145 127.335 10.2698 127.372 10.5235C127.389 10.6423 127.431 10.7595 127.478 10.8719C127.547 11.0341 127.628 11.1915 127.706 11.3505C127.924 11.7985 128.349 12.0313 128.849 11.9751C129.172 11.9398 129.461 11.8306 129.69 11.5929C129.775 11.5062 129.865 11.4227 129.95 11.3344C130.074 11.2059 130.172 11.0662 130.235 10.896C130.395 10.4657 130.527 10.0289 130.667 9.4364Z" fill="white"/>
<path d="M110.569 9.63152C110.609 9.66042 110.641 9.70539 110.667 9.75035C110.68 9.77122 110.676 9.80334 110.673 9.83064C110.627 10.208 110.583 10.5837 110.529 10.9595C110.5 11.1554 110.394 11.2373 110.193 11.2437C110.153 11.2437 110.111 11.2421 110.071 11.2373C109.583 11.1811 109.093 11.1281 108.605 11.0719C108.401 11.0494 108.199 11.0205 107.995 10.998C107.723 10.9675 107.449 10.9595 107.189 10.8631C107.126 10.8407 107.056 10.8326 106.988 10.8294C106.702 10.8117 106.412 10.8246 106.132 10.7748C105.85 10.725 105.57 10.664 105.281 10.6672C105.167 10.6672 105.064 10.648 104.963 10.603C104.854 10.5532 104.801 10.4633 104.779 10.3509C104.777 10.3381 104.779 10.3236 104.779 10.3108C104.801 9.86596 104.74 9.41796 104.832 8.97638C104.87 8.79171 104.926 8.60866 104.95 8.42239C105.016 7.92621 105.077 7.42843 105.129 6.93064C105.183 6.40556 105.219 5.87888 105.272 5.35219C105.318 4.8801 105.387 4.41122 105.432 3.93913C105.477 3.48149 105.503 3.02064 105.54 2.563C105.561 2.29002 105.683 2.17923 105.941 2.24506C106.489 2.38476 107.052 2.396 107.608 2.47308C107.802 2.50038 107.996 2.52928 108.192 2.54855C108.486 2.57745 108.78 2.62402 109.072 2.6176C109.596 2.60636 110.108 2.69949 110.622 2.7589C110.815 2.78138 111.004 2.84722 111.19 2.90824C111.303 2.94356 111.373 3.03028 111.388 3.15071C111.431 3.51682 111.41 3.87972 111.343 4.24101C111.335 4.28115 111.322 4.3213 111.303 4.35502C111.259 4.42728 111.202 4.48669 111.107 4.48669C111.009 4.48669 110.913 4.47866 110.815 4.47385C110.633 4.46582 110.452 4.46582 110.272 4.44976C110.092 4.4337 109.911 4.41764 109.736 4.3775C109.419 4.30685 109.106 4.26992 108.782 4.27473C108.504 4.27795 108.226 4.24262 107.947 4.22496C107.821 4.21693 107.696 4.20087 107.571 4.20408C107.414 4.2089 107.308 4.29882 107.282 4.44815C107.235 4.71471 107.202 4.98287 107.259 5.25424C107.287 5.38431 107.357 5.47744 107.487 5.52079C107.592 5.55612 107.698 5.59787 107.807 5.61072C108.014 5.6348 108.223 5.65889 108.43 5.65086C108.836 5.6348 109.235 5.69101 109.634 5.74079C109.84 5.76648 110.041 5.8291 110.24 5.88851C110.379 5.92866 110.432 6.02179 110.428 6.16791C110.428 6.18076 110.428 6.19521 110.424 6.20806C110.384 6.54366 110.344 6.87926 110.299 7.21487C110.277 7.37384 110.179 7.45894 110.02 7.45733C109.923 7.45733 109.827 7.44128 109.731 7.43485C109.578 7.42522 109.427 7.40595 109.275 7.41077C108.759 7.43004 108.257 7.36581 107.756 7.24538C107.609 7.21005 107.454 7.20041 107.304 7.20202C107.117 7.20683 106.98 7.31282 106.956 7.49106C106.892 7.94548 106.803 8.3983 106.86 8.86397C106.876 9.00046 106.932 9.09681 107.067 9.13534C107.251 9.18512 107.436 9.24614 107.624 9.27023C108.074 9.33124 108.978 9.41153 108.979 9.40511C109.469 9.46934 109.959 9.53357 110.447 9.60101C110.487 9.60743 110.535 9.60904 110.566 9.62992L110.569 9.63152Z" fill="white"/>
<path d="M139.741 15.8256C139.769 15.9091 139.693 15.9878 139.605 15.9782C139.578 15.975 139.55 15.9734 139.523 15.9669C139.083 15.8594 138.645 15.7518 138.19 15.7261C137.959 15.7132 137.814 15.5783 137.749 15.36C137.721 15.2684 137.692 15.1785 137.67 15.087C137.61 14.8493 137.535 14.6181 137.402 14.4077C137.352 14.3275 137.312 14.2375 137.286 14.1476C137.223 13.9244 137.13 13.7141 137.036 13.5037C136.968 13.3576 136.933 13.1954 136.896 13.0364C136.811 12.6768 136.661 12.3412 136.504 12.0088C136.464 11.9237 136.411 11.8402 136.352 11.7663C136.188 11.5608 135.876 11.6025 135.78 11.8402C135.77 11.8658 135.759 11.8915 135.756 11.9172C135.655 12.5178 135.401 13.0798 135.322 13.6868C135.301 13.8473 135.274 14.0047 135.271 14.1685C135.266 14.3548 135.223 14.5458 135.163 14.7225C135.109 14.8863 134.987 14.9939 134.788 14.9682C134.68 14.9537 134.563 14.9682 134.463 14.9328C134.165 14.822 133.855 14.7707 133.545 14.7128C133.505 14.7048 133.464 14.6968 133.424 14.6839C133.36 14.6631 133.31 14.594 133.32 14.5266C133.334 14.4334 133.35 14.3387 133.373 14.2472C133.521 13.6707 133.62 13.0862 133.676 12.4921C133.725 11.9831 133.859 11.4821 133.954 10.9763C134.213 10.3709 134.232 9.71093 134.391 9.08308C134.41 9.006 134.421 8.9209 134.418 8.84222C134.412 8.68967 134.462 8.55318 134.503 8.40866C134.614 8.03452 134.707 7.65396 134.711 7.25573C134.711 7.05662 134.764 6.85429 134.813 6.65839C134.853 6.50264 134.967 6.45607 135.139 6.49139C135.733 6.61022 136.326 6.72904 136.918 6.85108C136.918 6.8559 137.991 7.08873 138.529 7.19953C138.824 7.25894 139.093 7.37456 139.333 7.54798C139.515 7.67965 139.696 7.80811 139.87 7.94781C140.128 8.15656 140.287 8.42954 140.368 8.73945C140.429 8.97549 140.482 9.21475 140.52 9.45722C140.538 9.56159 140.525 9.674 140.504 9.77998C140.446 10.0867 140.348 10.3821 140.17 10.6455C140.095 10.7579 140.018 10.8703 139.95 10.9875C139.769 11.3103 139.486 11.5158 139.149 11.6555C138.996 11.7181 138.839 11.7711 138.683 11.8241C138.37 11.9333 138.293 12.0634 138.397 12.3797C138.47 12.5981 138.553 12.8165 138.662 13.0204C138.844 13.3608 138.99 13.706 139.054 14.0866C139.08 14.2424 139.157 14.3981 139.24 14.5362C139.488 14.9377 139.594 15.3889 139.738 15.8256H139.741ZM138.14 9.17782C138.163 9.01885 138.089 8.88557 137.951 8.79565C137.871 8.74426 137.779 8.70252 137.688 8.67522C137.569 8.63828 137.443 8.62223 137.32 8.59493C137.198 8.56924 137.074 8.54355 136.951 8.51946C136.91 8.51143 136.867 8.50982 136.825 8.50822C136.559 8.50501 136.387 8.63668 136.308 8.88557C136.242 9.09592 136.262 9.3127 136.266 9.52626C136.268 9.65633 136.348 9.76231 136.464 9.82012C136.803 9.98712 137.159 10.0947 137.545 10.0658C137.79 10.0465 137.957 9.91165 138.031 9.69005C138.086 9.52466 138.115 9.34963 138.139 9.17782H138.14Z" fill="white"/>
<path d="M147.143 9.18903C147.175 9.22275 147.199 9.30304 147.18 9.33516C146.994 9.66113 146.907 10.0401 146.602 10.305C146.47 10.4174 146.382 10.5812 146.287 10.729C146.062 11.0838 145.845 11.4435 145.626 11.8016C145.584 11.8706 145.536 11.9381 145.499 12.0103C145.261 12.4712 144.975 12.8951 144.619 13.2757C144.458 13.4459 144.365 13.6562 144.315 13.8875C144.233 14.2712 144.134 14.6518 144.052 15.0356C144.023 15.1656 144.018 15.3037 144.004 15.437C144 15.4772 144.004 15.5189 143.996 15.5574C143.906 15.9525 143.819 16.3507 143.721 16.7441C143.681 16.9095 143.583 16.9721 143.419 16.948C143.297 16.9304 143.178 16.8934 143.003 16.8533C142.705 16.7602 142.35 16.651 141.998 16.5386C141.873 16.4984 141.82 16.4149 141.838 16.2897C141.85 16.1965 141.879 16.105 141.899 16.0135C141.974 15.6698 142.049 15.3262 142.127 14.9826C142.241 14.4816 142.342 13.9758 142.473 13.4796C142.575 13.1006 142.568 12.7329 142.451 12.3604C142.332 11.9814 142.266 11.5945 142.279 11.1978C142.282 11.0902 142.273 10.9811 142.255 10.8735C142.188 10.4592 142.119 10.0449 142.045 9.63062C142.011 9.44274 141.998 9.25648 142.001 9.06539C142.006 8.82292 141.976 8.57885 141.961 8.33638C141.956 8.26894 141.947 8.2015 141.958 8.13566C141.963 8.10355 142.005 8.07464 142.037 8.05216C142.058 8.03771 142.091 8.03129 142.117 8.0345C142.438 8.07143 142.759 8.10997 143.08 8.15172C143.135 8.15814 143.193 8.1742 143.243 8.19829C143.622 8.37492 143.681 8.30106 143.785 8.79563C143.875 9.22276 143.959 9.64828 143.938 10.085C143.931 10.2039 143.951 10.3275 143.981 10.4447C144.017 10.5796 144.18 10.6117 144.281 10.5106C144.33 10.4624 144.365 10.4046 144.404 10.35C144.564 10.1316 144.718 9.90841 144.885 9.69485C145.052 9.48128 145.247 9.28538 145.333 9.02043C145.349 8.97065 145.391 8.9289 145.425 8.88555C145.47 8.82774 145.531 8.79884 145.606 8.80526C145.662 8.81008 145.719 8.81811 145.773 8.83095C146.048 8.89518 146.321 8.9562 146.605 8.97226C146.801 8.9835 146.998 9.03809 147.14 9.19064L147.143 9.18903Z" fill="white"/>
</svg>
