<svg width="20" height="20" viewBox="0 0 20 20" fill="none" xmlns="http://www.w3.org/2000/svg">
<rect width="20" height="20" rx="6" fill="black"/>
<path fill-rule="evenodd" clip-rule="evenodd" d="M14.1577 3.00244C14.1095 3.00687 13.6812 3.08277 13.6297 3.0933L7.70175 4.28942L7.69953 4.28997C7.54496 4.32266 7.42363 4.37751 7.33 4.45618C7.21698 4.55091 7.15438 4.68499 7.13055 4.84122C7.12557 4.87446 7.11726 4.94205 7.11726 5.04177C7.11726 5.04177 7.11726 11.0983 7.11726 12.4612C7.11726 12.6346 7.10341 12.803 6.98596 12.9465C6.8685 13.09 6.72335 13.1332 6.55327 13.1675C6.42418 13.1936 6.2951 13.2196 6.16601 13.2457C5.67626 13.3443 5.3577 13.4113 5.06906 13.5232C4.79316 13.6301 4.58651 13.7664 4.42197 13.9393C4.09565 14.2811 3.96324 14.7448 4.00867 15.1792C4.04745 15.5498 4.21421 15.9044 4.50064 16.1664C4.69399 16.3437 4.93554 16.4783 5.22031 16.5354C5.5156 16.5947 5.83028 16.5742 6.29011 16.4811C6.53499 16.4318 6.76435 16.3548 6.98263 16.2257C7.1987 16.0983 7.38374 15.9282 7.52834 15.721C7.67349 15.5132 7.76712 15.2822 7.81864 15.0368C7.87183 14.7836 7.88457 14.5548 7.88457 14.3022V7.86726C7.88457 7.52266 7.98208 7.4318 8.26019 7.36421C8.26019 7.36421 13.1876 6.3703 13.4175 6.32543C13.7383 6.26393 13.8896 6.35535 13.8896 6.69163V11.0844C13.8896 11.2584 13.8879 11.4346 13.7693 11.5786C13.6519 11.7221 13.5067 11.7653 13.3366 11.7997C13.2076 11.8257 13.0785 11.8517 12.9494 11.8778C12.4596 11.9764 12.1411 12.0434 11.8524 12.1553C11.5765 12.2623 11.3699 12.3986 11.2053 12.5714C10.879 12.9132 10.735 13.377 10.7804 13.8113C10.8192 14.1819 10.9976 14.5365 11.284 14.7986C11.4774 14.9758 11.7189 15.1066 12.0037 15.1642C12.299 15.2235 12.6137 15.2024 13.0735 15.1099C13.3184 15.0606 13.5477 14.9869 13.766 14.8578C13.9821 14.7304 14.1671 14.5603 14.3117 14.3531C14.4569 14.1454 14.5505 13.9143 14.602 13.6689C14.6552 13.4157 14.6574 13.1869 14.6574 12.9343V3.52654C14.6585 3.18526 14.4785 2.97474 14.1577 3.00244Z" fill="white"/>
</svg>
