<svg width="20" height="20" viewBox="0 0 20 20" fill="none" xmlns="http://www.w3.org/2000/svg">
<path d="M5.07148 19.9293C3.88207 19.8752 3.23595 19.6772 2.80619 19.5096C2.23675 19.2879 1.83077 19.024 1.40339 18.5972C0.976016 18.1704 0.711505 17.7644 0.49098 17.195C0.323357 16.7652 0.12542 16.1191 0.0713288 14.9297C0.0118881 13.644 0 13.2582 0 10.0009C0 6.74354 0.0130769 6.35837 0.0707344 5.07148C0.124825 3.88207 0.323952 3.23714 0.490385 2.80619C0.712099 2.23675 0.97661 1.83077 1.4028 1.4028C1.82958 0.976016 2.23556 0.71091 2.8056 0.490385C3.23536 0.322763 3.88148 0.124825 5.07088 0.0707344C6.35718 0.0118881 6.74354 0 9.9997 0C13.2571 0 13.6422 0.0130769 14.9291 0.0707344C16.1185 0.124825 16.7635 0.323952 17.1944 0.490385C17.7638 0.71091 18.1698 0.976016 18.5972 1.4028C19.0246 1.82958 19.2879 2.23616 19.5096 2.8056C19.6772 3.23536 19.8752 3.88148 19.9293 5.07088C19.9881 6.35777 20 6.74295 20 10.0003C20 13.2565 19.9881 13.6428 19.9293 14.9297C19.8752 16.1191 19.6761 16.7652 19.5096 17.195C19.2879 17.7644 19.024 18.1704 18.5972 18.5972C18.1704 19.024 17.7638 19.2879 17.1944 19.5096C16.7646 19.6772 16.1185 19.8752 14.9291 19.9293C13.6434 19.9881 13.2571 20 9.9997 20C6.74354 20 6.35718 19.9887 5.07148 19.9293Z" fill="black"/>
<path d="M7.73091 9.92917C7.73091 8.71495 8.71495 7.73038 9.92917 7.73038C11.1434 7.73038 12.128 8.71495 12.128 9.92917C12.128 11.1434 11.1434 12.128 9.92917 12.128C8.71495 12.128 7.73091 11.1434 7.73091 9.92917ZM6.54229 9.92917C6.54229 11.7997 8.05859 13.316 9.92917 13.316C11.7997 13.316 13.316 11.7997 13.316 9.92917C13.316 8.05859 11.7997 6.54228 9.92917 6.54228C8.05859 6.54228 6.54234 8.05848 6.54234 9.92917M12.6587 6.40799C12.6586 6.56454 12.705 6.71758 12.7919 6.84778C12.8788 6.97798 13.0024 7.07947 13.147 7.13944C13.2916 7.1994 13.4507 7.21514 13.6043 7.18466C13.7578 7.15418 13.8989 7.07886 14.0096 6.96821C14.1204 6.85756 14.1958 6.71656 14.2264 6.56303C14.257 6.40951 14.2414 6.25036 14.1816 6.10571C14.1217 5.96106 14.0203 5.8374 13.8902 5.75038C13.7601 5.66335 13.607 5.61687 13.4505 5.61681H13.4502C13.2403 5.61691 13.0391 5.70029 12.8907 5.84863C12.7423 5.99698 12.6589 6.19816 12.6587 6.40799ZM7.26445 15.2981C6.62138 15.2688 6.27186 15.1617 6.03958 15.0712C5.73163 14.9513 5.51191 14.8085 5.2809 14.5778C5.04989 14.3471 4.90689 14.1276 4.78753 13.8197C4.69698 13.5875 4.58987 13.2378 4.56063 12.5948C4.52866 11.8995 4.52227 11.6907 4.52227 9.92927C4.52227 8.16787 4.52918 7.9596 4.56063 7.26376C4.58992 6.6207 4.69783 6.27175 4.78753 6.03889C4.90742 5.73094 5.0502 5.51122 5.2809 5.28021C5.51159 5.0492 5.7311 4.9062 6.03958 4.78684C6.27175 4.6963 6.62138 4.58918 7.26445 4.55995C7.9597 4.52797 8.16855 4.52158 9.92917 4.52158C11.6898 4.52158 11.8988 4.52839 12.5947 4.56005C13.2377 4.58934 13.5867 4.69724 13.8195 4.78695C14.1275 4.90631 14.3472 5.04962 14.5782 5.28032C14.8092 5.51101 14.9517 5.73105 15.0716 6.039C15.1621 6.27117 15.2693 6.6208 15.2985 7.26387C15.3305 7.9597 15.3369 8.16797 15.3369 9.92938C15.3369 11.6908 15.3305 11.899 15.2985 12.5949C15.2692 13.238 15.1616 13.5875 15.0716 13.8198C14.9517 14.1277 14.8089 14.3474 14.5782 14.5779C14.3475 14.8084 14.1275 14.9514 13.8195 15.0713C13.5874 15.1618 13.2377 15.2689 12.5947 15.2982C11.8994 15.3301 11.6906 15.3365 9.92917 15.3365C8.16776 15.3365 7.95949 15.3301 7.26445 15.2982M7.20984 3.37328C6.50767 3.40525 6.02786 3.51659 5.60884 3.67964C5.17515 3.84802 4.80753 4.07391 4.44043 4.44043C4.07333 4.80695 3.84802 5.17462 3.67964 5.60884C3.51659 6.02813 3.40525 6.50767 3.37328 7.20984C3.34077 7.91311 3.33333 8.13795 3.33333 9.92917C3.33333 11.7204 3.34077 11.9452 3.37328 12.6485C3.40525 13.3507 3.51659 13.8302 3.67964 14.2495C3.84802 14.6832 4.07339 15.0515 4.44043 15.4179C4.80748 15.7843 5.17463 16.0098 5.60884 16.1787C6.02865 16.3417 6.50767 16.4531 7.20984 16.4851C7.91348 16.517 8.13795 16.525 9.92917 16.525C11.7204 16.525 11.9452 16.5176 12.6485 16.4851C13.3507 16.4531 13.8302 16.3417 14.2495 16.1787C14.6832 16.0098 15.0508 15.7844 15.4179 15.4179C15.785 15.0514 16.0098 14.6832 16.1787 14.2495C16.3417 13.8302 16.4536 13.3507 16.4851 12.6485C16.517 11.9447 16.5245 11.7204 16.5245 9.92917C16.5245 8.13795 16.517 7.91311 16.4851 7.20984C16.4531 6.50762 16.3417 6.02786 16.1787 5.60884C16.0098 5.17515 15.7844 4.80753 15.4179 4.44043C15.0514 4.07333 14.6832 3.84802 14.25 3.67964C13.8302 3.51659 13.3507 3.40473 12.649 3.37328C11.9456 3.34114 11.7209 3.33333 9.92996 3.33333C8.139 3.33333 7.91374 3.34077 7.2101 3.37328" fill="white"/>
</svg>
