<svg width="20" height="20" viewBox="0 0 20 20" fill="none" xmlns="http://www.w3.org/2000/svg">
<rect width="20" height="20" rx="6" fill="black"/>
<path d="M16.6667 11.2625C16.6687 10.3421 15.9332 9.59692 15.031 9.59692C14.806 9.59692 14.5913 9.64336 14.3934 9.72569C14.26 8.23105 13.0223 7.0573 11.5117 7.0573C11.1408 7.0573 10.7824 7.12696 10.4636 7.25574C10.3365 7.30218 10.3011 7.34862 10.3011 7.44996V12.7213C10.3011 12.8269 10.3823 12.9029 10.4803 12.9155H15.0289C15.9311 12.9155 16.6667 12.1766 16.6667 11.2625Z" fill="white"/>
<path d="M10.1531 7.62517C10.1448 7.56184 10.1115 7.50273 10.0594 7.47318C10.0365 7.45629 10.001 7.44362 9.97187 7.44362C9.92603 7.44362 9.88435 7.46051 9.85518 7.48373C9.81559 7.51962 9.79059 7.5724 9.78642 7.62517V7.64206L9.71766 11.3723L9.75308 12.0584L9.78851 12.7276C9.79476 12.8269 9.87602 12.9092 9.97395 12.9092C10.0719 12.9092 10.1531 12.8269 10.1531 12.7276L10.2344 11.3723L10.1531 7.62517Z" fill="white"/>
<path d="M6.63176 8.52449C6.6901 8.52449 6.7422 8.57093 6.7422 8.63638L6.85263 11.3808L6.7422 12.8121C6.7422 12.8775 6.6901 12.924 6.63176 12.924C6.56717 12.924 6.52133 12.8775 6.51508 12.8121L6.4234 11.3808L6.51508 8.63638C6.52133 8.57093 6.56717 8.52449 6.63176 8.52449Z" fill="white"/>
<path d="M6.19836 9.13881C6.19836 9.0797 6.15252 9.03326 6.10043 9.03326C6.04209 9.03326 6.0025 9.0797 5.99625 9.13881L5.89207 11.3681L5.99625 12.81C6.0025 12.8691 6.04209 12.9155 6.10043 12.9155C6.15252 12.9155 6.19836 12.8691 6.19836 12.81L6.31922 11.3681L6.19836 9.13881Z" fill="white"/>
<path d="M5.77538 11.3681L5.65453 9.99591C5.64828 9.94946 5.60869 9.90724 5.56285 9.90724C5.51493 9.90724 5.47534 9.94946 5.47534 9.99591L5.35865 11.3681L5.47534 12.81C5.47534 12.8627 5.51701 12.9029 5.56285 12.9029C5.60869 12.9029 5.64828 12.8627 5.65453 12.81L5.77538 11.3681Z" fill="white"/>
<path d="M3.53545 10.6166C3.5292 10.587 3.51253 10.5638 3.48336 10.5638C3.45419 10.5638 3.43752 10.587 3.43127 10.6166L3.33333 11.3681L3.43127 12.107C3.43752 12.1365 3.45419 12.1598 3.48336 12.1598C3.51253 12.1598 3.5292 12.1365 3.53545 12.107L3.65213 11.3681L3.53545 10.6166Z" fill="white"/>
<path d="M3.9751 10.1015C4.00427 10.1015 4.02719 10.1247 4.03344 10.1542L4.18347 11.3681L4.03344 12.5587C4.02719 12.5883 4.00427 12.6115 3.9751 12.6115C3.94593 12.6115 3.92301 12.5883 3.92301 12.5524L3.78965 11.3681L3.92301 10.1542C3.92301 10.1247 3.94593 10.1015 3.9751 10.1015Z" fill="white"/>
<path d="M4.56686 9.93046C4.56686 9.89035 4.53769 9.8608 4.50227 9.8608C4.46685 9.8608 4.43767 9.89035 4.43351 9.93046L4.31265 11.3681L4.43351 12.7572C4.43976 12.7931 4.46893 12.8226 4.50227 12.8226C4.53769 12.8226 4.56686 12.7931 4.56686 12.7572L4.71063 11.3681L4.56686 9.93046Z" fill="white"/>
<path d="M5.02943 9.81436C5.06902 9.81436 5.10444 9.84391 5.11069 9.89035L5.24405 11.3681L5.11069 12.7994C5.10444 12.8459 5.06902 12.8754 5.02943 12.8754C4.98984 12.8754 4.95442 12.8459 4.95442 12.7994L4.83356 11.3681L4.95442 9.89035C4.95442 9.84391 4.98984 9.81436 5.02943 9.81436Z" fill="white"/>
<path d="M9.50304 7.79617C9.54888 7.82573 9.57805 7.8785 9.5843 7.93761L9.65307 11.3744L9.58847 12.6115L9.58222 12.753C9.58222 12.8015 9.56555 12.8416 9.53013 12.8712C9.50096 12.9007 9.45928 12.924 9.41344 12.924C9.36135 12.924 9.31551 12.8986 9.28009 12.8585C9.25717 12.829 9.24467 12.7952 9.24467 12.7593V12.753C9.18007 11.3744 9.18007 11.3681 9.18007 11.3681L9.23842 7.9735L9.24467 7.93761C9.24467 7.8785 9.27384 7.82573 9.31968 7.79617C9.34677 7.77928 9.37802 7.76662 9.41136 7.76662C9.4447 7.76662 9.47387 7.77928 9.50304 7.79617Z" fill="white"/>
<path d="M7.30895 8.39994C7.30479 8.33027 7.2527 8.27116 7.18185 8.27116C7.11726 8.27116 7.061 8.33027 7.061 8.39994L6.96932 11.3681L7.061 12.7867C7.06725 12.8564 7.11934 12.9092 7.18185 12.9092C7.25061 12.9092 7.3027 12.8564 7.30895 12.7867L7.41314 11.3681L7.30895 8.39994Z" fill="white"/>
<path d="M8.84878 8.32394C8.93629 8.32394 8.9988 8.3936 9.00505 8.4886L9.08631 11.3744L9.00505 12.7593C9.00505 12.848 8.93629 12.9176 8.84878 12.9176C8.76126 12.9176 8.6925 12.848 8.68625 12.7593L8.61749 11.3744L8.68625 8.4886C8.6925 8.3936 8.76126 8.32394 8.84878 8.32394Z" fill="white"/>
<path d="M7.87154 8.30072C7.86529 8.22472 7.80695 8.15928 7.73193 8.15928C7.66317 8.15928 7.59858 8.22472 7.59858 8.30072L7.51732 11.3681L7.59858 12.7804C7.60483 12.8564 7.66317 12.9155 7.73193 12.9155C7.80695 12.9155 7.86529 12.8564 7.87154 12.7804L7.96322 11.3681L7.87154 8.30072Z" fill="white"/>
<path d="M8.28827 8.23105C8.36954 8.23105 8.43205 8.29438 8.43205 8.37672L8.51956 11.3681L8.43205 12.7699C8.43205 12.8501 8.36745 12.9155 8.28827 12.9155C8.2091 12.9155 8.15075 12.8522 8.1445 12.7699L8.06324 11.3681L8.1445 8.37672C8.1445 8.2965 8.20701 8.23105 8.28827 8.23105Z" fill="white"/>
</svg>
