<svg width="20" height="20" viewBox="0 0 20 20" fill="none" xmlns="http://www.w3.org/2000/svg">
<rect width="20" height="20" rx="6" fill="black"/>
<path d="M10.25 4.16666C6.89034 4.16666 4.16667 6.89006 4.16667 10.25C4.16667 13.6099 6.89034 16.3333 10.25 16.3333C13.6097 16.3333 16.3333 13.6099 16.3333 10.25C16.3333 6.89006 13.6097 4.16666 10.25 4.16666ZM13.2179 12.9362C13.1202 13.1092 12.9405 13.2065 12.7552 13.2065C12.6686 13.2065 12.5792 13.1848 12.4971 13.1392C11.7377 12.7134 10.91 12.4525 10.0352 12.364C9.15869 12.2761 8.29319 12.3651 7.46181 12.6305C7.18437 12.7191 6.88574 12.5658 6.79725 12.2879C6.70784 12.0096 6.86177 11.7119 7.14013 11.6229C8.10977 11.3131 9.12089 11.2078 10.1422 11.3115C11.1616 11.4153 12.1275 11.7195 13.0142 12.2165C13.2695 12.3586 13.3608 12.681 13.2179 12.9362ZM13.9461 11.0884C13.8521 11.2693 13.6677 11.3731 13.4769 11.3731C13.394 11.3731 13.311 11.3541 13.2327 11.3131C12.299 10.8268 11.2906 10.5257 10.2334 10.4184C9.1679 10.3094 8.11254 10.4044 7.09496 10.6979C6.81384 10.7777 6.52074 10.6169 6.44055 10.3359C6.35944 10.0553 6.52165 9.76222 6.80185 9.68121C7.95031 9.35003 9.14117 9.24394 10.3403 9.36561C11.5312 9.48691 12.6686 9.8261 13.7221 10.3751C13.9802 10.5101 14.0816 10.8294 13.9461 11.0884ZM14.2097 9.55115C14.1304 9.55115 14.0502 9.53327 13.9737 9.49566C12.8658 8.94319 11.6741 8.59911 10.4307 8.47293C9.18541 8.34555 7.94663 8.44399 6.74747 8.76419C6.46543 8.83903 6.17601 8.67174 6.10043 8.38924C6.02485 8.1071 6.19261 7.81703 6.47557 7.74173C7.79824 7.38853 9.16606 7.28096 10.5385 7.42051C11.9091 7.55923 13.2235 7.93907 14.4457 8.5486C14.7074 8.67893 14.8134 8.99683 14.6835 9.25805C14.5913 9.44396 14.4042 9.55115 14.2097 9.55115Z" fill="white"/>
</svg>
