<svg width="20" height="20" viewBox="0 0 20 20" fill="none" xmlns="http://www.w3.org/2000/svg">
<rect width="20" height="20" rx="6" fill="black"/>
<path d="M12.2631 4.16666H10.0904V12.5676C10.0904 13.5686 9.25481 14.3908 8.21489 14.3908C7.17498 14.3908 6.33934 13.5686 6.33934 12.5676C6.33934 11.5845 7.15641 10.7802 8.15919 10.7444V8.63527C5.94937 8.671 4.16667 10.4048 4.16667 12.5676C4.16667 14.7483 5.98651 16.5 8.23347 16.5C10.4804 16.5 12.3002 14.7304 12.3002 12.5676V8.25989C13.1173 8.83188 14.1201 9.1715 15.1786 9.18938V7.08019C13.5444 7.02657 12.2631 5.73961 12.2631 4.16666Z" fill="white"/>
</svg>
