<svg width="20" height="20" viewBox="0 0 20 20" fill="none" xmlns="http://www.w3.org/2000/svg">
<rect width="20" height="20" rx="6" fill="black"/>
<mask id="mask0_293_37803" style="mask-type:alpha" maskUnits="userSpaceOnUse" x="4" y="4" width="12" height="12">
<rect x="4" y="4" width="12" height="12" fill="#D9D9D9"/>
</mask>
<g mask="url(#mask0_293_37803)">
<path d="M10 15C9.31667 15 8.67083 14.8687 8.0625 14.6062C7.45417 14.3437 6.92292 13.9854 6.46875 13.5312C6.01458 13.0771 5.65625 12.5458 5.39375 11.9375C5.13125 11.3292 5 10.6833 5 9.99998C5 9.30832 5.13125 8.6604 5.39375 8.05623C5.65625 7.45207 6.01458 6.9229 6.46875 6.46873C6.92292 6.01457 7.45417 5.65623 8.0625 5.39373C8.67083 5.13123 9.31667 4.99998 10 4.99998C10.6917 4.99998 11.3396 5.13123 11.9437 5.39373C12.5479 5.65623 13.0771 6.01457 13.5312 6.46873C13.9854 6.9229 14.3437 7.45207 14.6062 8.05623C14.8687 8.6604 15 9.30832 15 9.99998C15 10.6833 14.8687 11.3292 14.6062 11.9375C14.3437 12.5458 13.9854 13.0771 13.5312 13.5312C13.0771 13.9854 12.5479 14.3437 11.9437 14.6062C11.3396 14.8687 10.6917 15 10 15ZM10 13.975C10.2167 13.675 10.4042 13.3625 10.5625 13.0375C10.7208 12.7125 10.85 12.3667 10.95 12H9.05C9.15 12.3667 9.27917 12.7125 9.4375 13.0375C9.59583 13.3625 9.78333 13.675 10 13.975ZM8.7 13.775C8.55 13.5 8.41875 13.2146 8.30625 12.9187C8.19375 12.6229 8.1 12.3167 8.025 12H6.55C6.79167 12.4167 7.09375 12.7792 7.45625 13.0875C7.81875 13.3958 8.23333 13.625 8.7 13.775ZM11.3 13.775C11.7667 13.625 12.1813 13.3958 12.5437 13.0875C12.9062 12.7792 13.2083 12.4167 13.45 12H11.975C11.9 12.3167 11.8062 12.6229 11.6937 12.9187C11.5812 13.2146 11.45 13.5 11.3 13.775ZM6.125 11H7.825C7.8 10.8333 7.78125 10.6687 7.76875 10.5062C7.75625 10.3437 7.75 10.175 7.75 9.99998C7.75 9.82498 7.75625 9.65623 7.76875 9.49373C7.78125 9.33123 7.8 9.16665 7.825 8.99998H6.125C6.08333 9.16665 6.05208 9.33123 6.03125 9.49373C6.01042 9.65623 6 9.82498 6 9.99998C6 10.175 6.01042 10.3437 6.03125 10.5062C6.05208 10.6687 6.08333 10.8333 6.125 11ZM8.825 11H11.175C11.2 10.8333 11.2188 10.6687 11.2312 10.5062C11.2438 10.3437 11.25 10.175 11.25 9.99998C11.25 9.82498 11.2438 9.65623 11.2312 9.49373C11.2188 9.33123 11.2 9.16665 11.175 8.99998H8.825C8.8 9.16665 8.78125 9.33123 8.76875 9.49373C8.75625 9.65623 8.75 9.82498 8.75 9.99998C8.75 10.175 8.75625 10.3437 8.76875 10.5062C8.78125 10.6687 8.8 10.8333 8.825 11ZM12.175 11H13.875C13.9167 10.8333 13.9479 10.6687 13.9687 10.5062C13.9896 10.3437 14 10.175 14 9.99998C14 9.82498 13.9896 9.65623 13.9687 9.49373C13.9479 9.33123 13.9167 9.16665 13.875 8.99998H12.175C12.2 9.16665 12.2188 9.33123 12.2312 9.49373C12.2438 9.65623 12.25 9.82498 12.25 9.99998C12.25 10.175 12.2438 10.3437 12.2312 10.5062C12.2188 10.6687 12.2 10.8333 12.175 11ZM11.975 7.99998H13.45C13.2083 7.58332 12.9062 7.22082 12.5437 6.91248C12.1813 6.60415 11.7667 6.37498 11.3 6.22498C11.45 6.49998 11.5812 6.7854 11.6937 7.08123C11.8062 7.37707 11.9 7.68332 11.975 7.99998ZM9.05 7.99998H10.95C10.85 7.63332 10.7208 7.28748 10.5625 6.96248C10.4042 6.63748 10.2167 6.32498 10 6.02498C9.78333 6.32498 9.59583 6.63748 9.4375 6.96248C9.27917 7.28748 9.15 7.63332 9.05 7.99998ZM6.55 7.99998H8.025C8.1 7.68332 8.19375 7.37707 8.30625 7.08123C8.41875 6.7854 8.55 6.49998 8.7 6.22498C8.23333 6.37498 7.81875 6.60415 7.45625 6.91248C7.09375 7.22082 6.79167 7.58332 6.55 7.99998Z" fill="white"/>
</g>
</svg>
