<svg width="20" height="20" viewBox="0 0 20 20" fill="none" xmlns="http://www.w3.org/2000/svg">
<rect width="20" height="20" rx="6" fill="black"/>
<path d="M15.8235 7.13726C15.6863 6.62745 15.2843 6.22549 14.7745 6.08824C13.8431 5.83333 10.1176 5.83333 10.1176 5.83333C10.1176 5.83333 6.39216 5.83333 5.46078 6.07843C4.96078 6.21569 4.54902 6.62745 4.41176 7.13726C4.16667 8.06863 4.16667 10 4.16667 10C4.16667 10 4.16667 11.9412 4.41176 12.8627C4.54902 13.3726 4.95098 13.7745 5.46078 13.9118C6.40196 14.1667 10.1176 14.1667 10.1176 14.1667C10.1176 14.1667 13.8431 14.1667 14.7745 13.9216C15.2843 13.7843 15.6863 13.3824 15.8235 12.8726C16.0686 11.9412 16.0686 10.0098 16.0686 10.0098C16.0686 10.0098 16.0784 8.06863 15.8235 7.13726Z" fill="white"/>
<path d="M8.93129 11.7843L12.0293 10L8.93129 8.21568V11.7843Z" fill="black"/>
</svg>
