<svg width="20" height="20" viewBox="0 0 20 20" fill="none" xmlns="http://www.w3.org/2000/svg">
<path d="M5.07148 19.9293C3.88207 19.8752 3.23595 19.6772 2.80619 19.5096C2.23675 19.2879 1.83077 19.024 1.40339 18.5972C0.976016 18.1704 0.711505 17.7644 0.49098 17.195C0.323357 16.7652 0.12542 16.1191 0.0713288 14.9297C0.0118881 13.644 0 13.2582 0 10.0009C0 6.74354 0.0130769 6.35837 0.0707344 5.07148C0.124825 3.88207 0.323952 3.23714 0.490385 2.80619C0.712099 2.23675 0.97661 1.83077 1.4028 1.4028C1.82958 0.976016 2.23556 0.71091 2.8056 0.490385C3.23536 0.322763 3.88148 0.124825 5.07088 0.0707344C6.35718 0.0118881 6.74354 0 9.9997 0C13.2571 0 13.6422 0.0130769 14.9291 0.0707344C16.1185 0.124825 16.7635 0.323952 17.1944 0.490385C17.7638 0.71091 18.1698 0.976016 18.5972 1.4028C19.0246 1.82958 19.2879 2.23616 19.5096 2.8056C19.6772 3.23536 19.8752 3.88148 19.9293 5.07088C19.9881 6.35777 20 6.74295 20 10.0003C20 13.2565 19.9881 13.6428 19.9293 14.9297C19.8752 16.1191 19.6761 16.7652 19.5096 17.195C19.2879 17.7644 19.024 18.1704 18.5972 18.5972C18.1704 19.024 17.7638 19.2879 17.1944 19.5096C16.7646 19.6772 16.1185 19.8752 14.9291 19.9293C13.6434 19.9881 13.2571 20 9.9997 20C6.74354 20 6.35718 19.9887 5.07148 19.9293Z" fill="black"/>
<path d="M7.73095 9.92933C7.73095 8.71512 8.71499 7.73054 9.92921 7.73054C11.1434 7.73054 12.128 8.71512 12.128 9.92933C12.128 11.1435 11.1434 12.1281 9.92921 12.1281C8.71499 12.1281 7.73095 11.1435 7.73095 9.92933ZM6.54233 9.92933C6.54233 11.7999 8.05863 13.3162 9.92921 13.3162C11.7998 13.3162 13.3161 11.7999 13.3161 9.92933C13.3161 8.05875 11.7998 6.54245 9.92921 6.54245C8.05863 6.54245 6.54238 8.05865 6.54238 9.92933M12.6587 6.40816C12.6587 6.5647 12.705 6.71775 12.7919 6.84794C12.8789 6.97814 13.0024 7.07964 13.147 7.1396C13.2916 7.19957 13.4508 7.21531 13.6043 7.18483C13.7579 7.15435 13.8989 7.07902 14.0097 6.96837C14.1204 6.85772 14.1958 6.71672 14.2264 6.5632C14.2571 6.40967 14.2414 6.25052 14.1816 6.10587C14.1217 5.96122 14.0203 5.83756 13.8902 5.75054C13.7601 5.66352 13.6071 5.61704 13.4505 5.61697H13.4502C13.2404 5.61707 13.0392 5.70045 12.8908 5.84879C12.7424 5.99714 12.6589 6.19832 12.6587 6.40816ZM7.26449 15.2982C6.62142 15.2689 6.2719 15.1618 6.03962 15.0713C5.73167 14.9514 5.51195 14.8087 5.28094 14.578C5.04993 14.3473 4.90693 14.1278 4.78757 13.8198C4.69702 13.5876 4.58991 13.238 4.56067 12.5949C4.5287 11.8997 4.52231 11.6908 4.52231 9.92943C4.52231 8.16803 4.52922 7.95976 4.56067 7.26393C4.58996 6.62086 4.69787 6.27191 4.78757 6.03905C4.90746 5.73111 5.05024 5.51139 5.28094 5.28037C5.51163 5.04936 5.73114 4.90636 6.03962 4.78701C6.27179 4.69646 6.62142 4.58934 7.26449 4.56011C7.95974 4.52813 8.16859 4.52175 9.92921 4.52175C11.6898 4.52175 11.8989 4.52856 12.5947 4.56022C13.2378 4.5895 13.5867 4.69741 13.8196 4.78711C14.1275 4.90647 14.3473 5.04978 14.5783 5.28048C14.8093 5.51118 14.9517 5.73121 15.0716 6.03916C15.1622 6.27133 15.2693 6.62097 15.2985 7.26403C15.3305 7.95987 15.3369 8.16814 15.3369 9.92954C15.3369 11.6909 15.3305 11.8992 15.2985 12.595C15.2692 13.2381 15.1616 13.5876 15.0716 13.8199C14.9517 14.1279 14.809 14.3476 14.5783 14.5781C14.3476 14.8086 14.1275 14.9516 13.8196 15.0714C13.5874 15.162 13.2378 15.2691 12.5947 15.2983C11.8995 15.3303 11.6906 15.3367 9.92921 15.3367C8.1678 15.3367 7.95953 15.3303 7.26449 15.2983M7.20988 3.37344C6.50771 3.40542 6.0279 3.51675 5.60888 3.6798C5.17519 3.84818 4.80757 4.07408 4.44047 4.44059C4.07337 4.80711 3.84806 5.17479 3.67968 5.60901C3.51663 6.02829 3.4053 6.50783 3.37332 7.21C3.34081 7.91327 3.33337 8.13811 3.33337 9.92933C3.33337 11.7205 3.34081 11.9454 3.37332 12.6487C3.4053 13.3509 3.51663 13.8304 3.67968 14.2497C3.84806 14.6833 4.07343 15.0517 4.44047 15.4181C4.80752 15.7844 5.17467 16.01 5.60888 16.1789C6.0287 16.3419 6.50771 16.4532 7.20988 16.4852C7.91352 16.5172 8.13799 16.5252 9.92921 16.5252C11.7204 16.5252 11.9453 16.5177 12.6485 16.4852C13.3508 16.4532 13.8302 16.3419 14.2495 16.1789C14.6832 16.01 15.0508 15.7846 15.4179 15.4181C15.785 15.0515 16.0099 14.6833 16.1787 14.2497C16.3418 13.8304 16.4536 13.3508 16.4851 12.6487C16.5171 11.9449 16.5245 11.7205 16.5245 9.92933C16.5245 8.13811 16.5171 7.91327 16.4851 7.21C16.4531 6.50778 16.3418 6.02803 16.1787 5.60901C16.0099 5.17532 15.7845 4.80769 15.4179 4.44059C15.0514 4.0735 14.6832 3.84818 14.2501 3.6798C13.8302 3.51675 13.3507 3.40489 12.6491 3.37344C11.9457 3.34131 11.721 3.3335 9.93 3.3335C8.13905 3.3335 7.91378 3.34094 7.21014 3.37344" fill="white"/>
</svg>
