<svg width="20" height="20" viewBox="0 0 20 20" fill="none" xmlns="http://www.w3.org/2000/svg">
<rect width="20" height="20" rx="6" fill="black"/>
<path d="M15.8235 7.13742C15.6862 6.62761 15.2843 6.22565 14.7745 6.0884C13.8431 5.8335 10.1176 5.8335 10.1176 5.8335C10.1176 5.8335 6.39212 5.8335 5.46074 6.07859C4.96074 6.21585 4.54898 6.62761 4.41172 7.13742C4.16663 8.06879 4.16663 10.0002 4.16663 10.0002C4.16663 10.0002 4.16663 11.9413 4.41172 12.8629C4.54898 13.3727 4.95094 13.7747 5.46074 13.9119C6.40192 14.1668 10.1176 14.1668 10.1176 14.1668C10.1176 14.1668 13.8431 14.1668 14.7745 13.9217C15.2843 13.7845 15.6862 13.3825 15.8235 12.8727C16.0686 11.9413 16.0686 10.01 16.0686 10.01C16.0686 10.01 16.0784 8.06879 15.8235 7.13742Z" fill="white"/>
<path d="M8.93127 11.7844L12.0293 10.0001L8.93127 8.21582V11.7844Z" fill="black"/>
</svg>
