<svg width="32" height="32" viewBox="0 0 32 32" fill="none" xmlns="http://www.w3.org/2000/svg">
<g opacity="1">
<g clip-path="url(#clip0_636_41657)">
<path d="M11.5 4C12.3297 4 13 4.67031 13 5.5V7H19V5.5C19 4.67031 19.6703 4 20.5 4C21.3297 4 22 4.67031 22 5.5V7H24.25C25.4922 7 26.5 8.00781 26.5 9.25V11.5H5.5V9.25C5.5 8.00781 6.50781 7 7.75 7H10V5.5C10 4.67031 10.6703 4 11.5 4ZM5.5 13H26.5V25.75C26.5 26.9922 25.4922 28 24.25 28H7.75C6.50781 28 5.5 26.9922 5.5 25.75V13ZM8.5 16.75V18.25C8.5 18.6625 8.8375 19 9.25 19H10.75C11.1625 19 11.5 18.6625 11.5 18.25V16.75C11.5 16.3375 11.1625 16 10.75 16H9.25C8.8375 16 8.5 16.3375 8.5 16.75ZM14.5 16.75V18.25C14.5 18.6625 14.8375 19 15.25 19H16.75C17.1625 19 17.5 18.6625 17.5 18.25V16.75C17.5 16.3375 17.1625 16 16.75 16H15.25C14.8375 16 14.5 16.3375 14.5 16.75ZM21.25 16C20.8375 16 20.5 16.3375 20.5 16.75V18.25C20.5 18.6625 20.8375 19 21.25 19H22.75C23.1625 19 23.5 18.6625 23.5 18.25V16.75C23.5 16.3375 23.1625 16 22.75 16H21.25ZM8.5 22.75V24.25C8.5 24.6625 8.8375 25 9.25 25H10.75C11.1625 25 11.5 24.6625 11.5 24.25V22.75C11.5 22.3375 11.1625 22 10.75 22H9.25C8.8375 22 8.5 22.3375 8.5 22.75ZM15.25 22C14.8375 22 14.5 22.3375 14.5 22.75V24.25C14.5 24.6625 14.8375 25 15.25 25H16.75C17.1625 25 17.5 24.6625 17.5 24.25V22.75C17.5 22.3375 17.1625 22 16.75 22H15.25ZM20.5 22.75V24.25C20.5 24.6625 20.8375 25 21.25 25H22.75C23.1625 25 23.5 24.6625 23.5 24.25V22.75C23.5 22.3375 23.1625 22 22.75 22H21.25C20.8375 22 20.5 22.3375 20.5 22.75Z" fill="black"/>
</g>
</g>
<defs>
<clipPath id="clip0_636_41657">
<rect width="21" height="24" fill="white" transform="translate(5.5 4)"/>
</clipPath>
</defs>
</svg>
