<svg width="32" height="32" viewBox="0 0 32 32" fill="none" xmlns="http://www.w3.org/2000/svg">
<g opacity="0.8">
<path d="M5.5 5.5C3.84531 5.5 2.5 6.84531 2.5 8.5V23.5C2.5 25.1547 3.84531 26.5 5.5 26.5H26.5C28.1547 26.5 29.5 25.1547 29.5 23.5V8.5C29.5 6.84531 28.1547 5.5 26.5 5.5H5.5ZM9.25 17.5H12.25C14.3219 17.5 16 19.1781 16 21.25C16 21.6625 15.6625 22 15.25 22H6.25C5.8375 22 5.5 21.6625 5.5 21.25C5.5 19.1781 7.17812 17.5 9.25 17.5ZM7.75 13C7.75 12.2044 8.06607 11.4413 8.62868 10.8787C9.19129 10.3161 9.95435 10 10.75 10C11.5456 10 12.3087 10.3161 12.8713 10.8787C13.4339 11.4413 13.75 12.2044 13.75 13C13.75 13.7956 13.4339 14.5587 12.8713 15.1213C12.3087 15.6839 11.5456 16 10.75 16C9.95435 16 9.19129 15.6839 8.62868 15.1213C8.06607 14.5587 7.75 13.7956 7.75 13ZM19.75 11.5H25.75C26.1625 11.5 26.5 11.8375 26.5 12.25C26.5 12.6625 26.1625 13 25.75 13H19.75C19.3375 13 19 12.6625 19 12.25C19 11.8375 19.3375 11.5 19.75 11.5ZM19.75 14.5H25.75C26.1625 14.5 26.5 14.8375 26.5 15.25C26.5 15.6625 26.1625 16 25.75 16H19.75C19.3375 16 19 15.6625 19 15.25C19 14.8375 19.3375 14.5 19.75 14.5ZM19.75 17.5H25.75C26.1625 17.5 26.5 17.8375 26.5 18.25C26.5 18.6625 26.1625 19 25.75 19H19.75C19.3375 19 19 18.6625 19 18.25C19 17.8375 19.3375 17.5 19.75 17.5Z" fill="black"/>
</g>
</svg>
