<svg width="12" height="13" viewBox="0 0 12 13" fill="none" xmlns="http://www.w3.org/2000/svg">
<g opacity="0.6">
<path d="M1.125 2C0.503906 2 0 2.50391 0 3.125C0 3.47891 0.166406 3.81172 0.45 4.025L5.55 7.85C5.81719 8.04922 6.18281 8.04922 6.45 7.85L11.55 4.025C11.8336 3.81172 12 3.47891 12 3.125C12 2.50391 11.4961 2 10.875 2H1.125ZM0 4.625V9.5C0 10.3273 0.672656 11 1.5 11H10.5C11.3273 11 12 10.3273 12 9.5V4.625L6.9 8.45C6.36562 8.85078 5.63438 8.85078 5.1 8.45L0 4.625Z" fill="black"/>
</g>
</svg>
