<svg width="24" height="24" viewBox="0 0 24 24" fill="red" xmlns="http://www.w3.org/2000/svg">
  <path
    d="M12 21.35L10.55 20.05C8.87 18.53 7.48 17.22 6.38 16.13C5.28 15.03 4.4 14.04 3.75 13.16C3.1 12.29 2.65 11.48 2.39 10.75C2.13 10.02 2 9.27 2 8.5C2 6.93 2.53 5.62 3.58 4.57C4.63 3.52 5.93 3 7.5 3C8.37 3 9.19 3.18 9.98 3.55C10.76 3.92 11.43 4.43 12 5.1C12.57 4.43 13.24 3.92 14.02 3.55C14.81 3.18 15.63 3 16.5 3C18.07 3 19.38 3.52 20.43 4.57C21.48 5.62 22 6.93 22 8.5C22 9.27 21.87 10.02 21.61 10.75C21.35 11.48 20.9 12.29 20.25 13.16C19.6 14.04 18.72 15.03 17.62 16.13C16.52 17.22 15.13 18.53 13.45 20.05L12 21.35Z"
    fill="red"
  />
</svg>
