<svg width="16" height="16" viewBox="0 0 16 16" fill="none" xmlns="http://www.w3.org/2000/svg">
<g clip-path="url(#clip0_149_47172)">
<path d="M3.25 0H4.75C5.16563 0 5.5 0.334375 5.5 0.75V2.38125C5.5 2.575 5.45625 2.76562 5.36875 2.94062L4.75 4.17812V5.56563C6.32188 5.83438 7.5 6.93438 7.5 8.25313C7.5 8.69063 7.36875 9.10625 7.1375 9.475C6.88125 9.88125 6.90313 10.475 7.22813 10.8313C7.4125 11.0344 7.56875 11.2594 7.69063 11.4969C7.61875 11.65 7.54375 11.7969 7.47188 11.9312C7.19688 12.4406 7.00313 13.0437 7.00313 13.6969C7.00313 14.0594 7.0625 14.4094 7.17188 14.7375C6.43437 15.5031 5.29063 16 4 16C1.79063 16 0 14.5437 0 12.75C0 12.0312 0.2875 11.3656 0.775 10.8281C1.09687 10.4719 1.12188 9.87813 0.865625 9.47188C0.63125 9.10313 0.5 8.6875 0.5 8.25C0.5 6.93437 1.67813 5.83437 3.25 5.5625V4.175L2.63125 2.94062C2.54375 2.76875 2.5 2.575 2.5 2.38125V0.75C2.5 0.334375 2.83437 0 3.25 0ZM4 10.75C4.16415 10.75 4.3267 10.7177 4.47835 10.6548C4.63001 10.592 4.76781 10.5 4.88388 10.3839C4.99996 10.2678 5.09203 10.13 5.15485 9.97835C5.21767 9.8267 5.25 9.66415 5.25 9.5C5.25 9.33585 5.21767 9.1733 5.15485 9.02165C5.09203 8.86999 4.99996 8.73219 4.88388 8.61612C4.76781 8.50004 4.63001 8.40797 4.47835 8.34515C4.3267 8.28233 4.16415 8.25 4 8.25C3.83585 8.25 3.6733 8.28233 3.52165 8.34515C3.36999 8.40797 3.23219 8.50004 3.11612 8.61612C3.00004 8.73219 2.90797 8.86999 2.84515 9.02165C2.78233 9.1733 2.75 9.33585 2.75 9.5C2.75 9.66415 2.78233 9.8267 2.84515 9.97835C2.90797 10.13 3.00004 10.2678 3.11612 10.3839C3.23219 10.5 3.36999 10.592 3.52165 10.6548C3.6733 10.7177 3.83585 10.75 4 10.75ZM11.25 4.64375L10.5813 3.87812C10.375 3.64062 10.2906 3.31875 10.3562 3.00938L10.7906 0.984375C10.9125 0.409375 11.4188 0 12.0063 0C12.6938 0 13.25 0.55625 13.25 1.24375V1.3875C13.25 1.775 13.05 2.11562 12.75 2.31562V7.4625C13.6219 7.33125 13.9875 6.85625 14.1406 6.48438C14.2437 6.22813 14.475 6 14.75 6C15.025 6 15.25 6.225 15.25 6.5V7.41563C15.25 7.77813 15.1 8.12812 14.9594 8.4625L14.9438 8.49687C14.8406 8.74062 14.75 9.075 14.75 9.5C14.75 10.5469 15.2812 11.7156 15.65 12.4031C15.8656 12.8 16 13.2438 16 13.6938C16 14.9688 14.9688 16 13.6938 16H10.3062C9.03125 16 8 14.9688 8 13.6938C8 13.2406 8.13438 12.8 8.35 12.4031C8.71875 11.7156 9.25 10.5469 9.25 9.5C9.25 9.15 9.1875 8.85938 9.10938 8.63125C9.08125 8.55313 9.05312 8.475 9.025 8.39688C8.89062 8.02813 8.75 7.65312 8.75 7.26562V5.99687C8.75 5.72187 8.975 5.49687 9.25 5.49687C9.525 5.49687 9.75313 5.72187 9.81875 5.99062C9.94063 6.50312 10.2844 7.25625 11.25 7.45V4.64062V4.64375ZM10.5 10C10.5 10.275 10.725 10.5 11 10.5H13C13.275 10.5 13.5 10.275 13.5 10C13.5 9.725 13.275 9.5 13 9.5H11C10.725 9.5 10.5 9.725 10.5 10ZM10.5 12C10.5 12.275 10.725 12.5 11 12.5H13C13.275 12.5 13.5 12.275 13.5 12C13.5 11.725 13.275 11.5 13 11.5H11C10.725 11.5 10.5 11.725 10.5 12Z" fill="black"/>
</g>
<defs>
<clipPath id="clip0_149_47172">
<rect width="16" height="16" fill="white"/>
</clipPath>
</defs>
</svg>
