<svg width="15" height="13" viewBox="0 0 15 13" fill="none" xmlns="http://www.w3.org/2000/svg">
<g opacity="0.6" clip-path="url(#clip0_600_88162)">
<path d="M2.25 3.5C2.25 2.70435 2.56607 1.94129 3.12868 1.37868C3.69129 0.816071 4.45435 0.5 5.25 0.5C6.04565 0.5 6.80871 0.816071 7.37132 1.37868C7.93393 1.94129 8.25 2.70435 8.25 3.5C8.25 4.29565 7.93393 5.05871 7.37132 5.62132C6.80871 6.18393 6.04565 6.5 5.25 6.5C4.45435 6.5 3.69129 6.18393 3.12868 5.62132C2.56607 5.05871 2.25 4.29565 2.25 3.5ZM0 11.8039C0 9.49531 1.87031 7.625 4.17891 7.625H6.32109C8.62969 7.625 10.5 9.49531 10.5 11.8039C10.5 12.1883 10.1883 12.5 9.80391 12.5H0.696094C0.311719 12.5 0 12.1883 0 11.8039ZM14.2805 12.5H11.0508C11.1773 12.2797 11.2523 12.0242 11.2523 11.75V11.5625C11.2523 10.1398 10.6172 8.8625 9.61641 8.00469C9.67266 8.00234 9.72656 8 9.78281 8H11.2219C13.3078 8 15 9.69219 15 11.7805C15 12.1789 14.6766 12.5 14.2805 12.5ZM10.125 6.5C9.39844 6.5 8.74219 6.20469 8.26641 5.72891C8.72813 5.10547 9 4.33437 9 3.5C9 2.87188 8.84531 2.27891 8.57109 1.75859C9.00703 1.43984 9.54375 1.25 10.125 1.25C11.5758 1.25 12.75 2.42422 12.75 3.875C12.75 5.32578 11.5758 6.5 10.125 6.5Z" fill="black"/>
</g>
<defs>
<clipPath id="clip0_600_88162">
<rect width="15" height="12" fill="white" transform="translate(0 0.5)"/>
</clipPath>
</defs>
</svg>
