<svg width="12" height="13" viewBox="0 0 12 13" fill="none" xmlns="http://www.w3.org/2000/svg">
<g opacity="0.6">
<g clip-path="url(#clip0_600_88141)">
<path d="M3.86484 1.0766C3.68437 0.640665 3.20859 0.408634 2.75391 0.532853L0.691406 1.09535C0.283594 1.20785 0 1.57817 0 2.00004C0 7.79848 4.70156 12.5 10.5 12.5C10.9219 12.5 11.2922 12.2164 11.4047 11.8086L11.9672 9.74613C12.0914 9.29145 11.8594 8.81567 11.4234 8.6352L9.17344 7.6977C8.79141 7.53832 8.34844 7.64848 8.08828 7.96957L7.14141 9.12504C5.49141 8.34457 4.15547 7.00863 3.375 5.35863L4.53047 4.4141C4.85156 4.1516 4.96172 3.71098 4.80234 3.32895L3.86484 1.07895V1.0766Z" fill="black"/>
</g>
</g>
<defs>
<clipPath id="clip0_600_88141">
<rect width="12" height="12" fill="white" transform="translate(0 0.5)"/>
</clipPath>
</defs>
</svg>
