<?xml version="1.0" encoding="UTF-8"?>
<svg version="1.1" xmlns="http://www.w3.org/2000/svg" width="512" height="512">
<path d="M0 0 C1.46030083 -0.00418509 2.92059839 -0.00966898 4.38089007 -0.01631981 C8.34847226 -0.03063933 12.31584434 -0.02657252 16.28343737 -0.019153 C20.58010094 -0.01438979 24.87672108 -0.02695887 29.17337036 -0.03717041 C37.5735203 -0.05430266 45.97359525 -0.05521001 54.37375811 -0.04995751 C61.2067775 -0.04590398 68.03977485 -0.04737336 74.8727932 -0.05270576 C76.33566597 -0.0538284 76.33566597 -0.0538284 77.82809174 -0.05497371 C79.80978357 -0.05650531 81.79147539 -0.05804365 83.77316722 -0.05958868 C102.32683874 -0.07329368 120.88046801 -0.06789022 139.43413856 -0.05640347 C156.37629917 -0.04647426 173.31835051 -0.05940994 190.26049427 -0.08333766 C207.6926387 -0.1077703 225.12473233 -0.11732624 242.55689353 -0.11068493 C252.32932093 -0.10720182 262.10166437 -0.10936451 271.87407875 -0.12693596 C280.19339335 -0.14171018 288.51256485 -0.14222559 296.83187679 -0.12486505 C301.06913312 -0.11639524 305.30613439 -0.11410601 309.54337692 -0.1295166 C341.85454232 -0.23842812 369.17706725 3.84228989 393.19059753 27.13768005 C408.71286739 42.85636975 418.02994081 64.72295482 418.02526855 86.76446533 C418.02894524 87.70089786 418.03262193 88.63733038 418.03641003 89.60213965 C418.04741196 92.73614375 418.05128484 95.87011465 418.05509949 99.00413513 C418.06136696 101.25327153 418.06801402 103.5024069 418.07501221 105.75154114 C418.09602795 113.13675723 418.10641493 120.52197346 418.11637878 127.9072113 C418.12042781 130.45448505 418.12454477 133.00175869 418.12872887 135.54903221 C418.14559641 146.15123232 418.16022892 156.75343031 418.16747761 167.35564137 C418.16938721 170.10386977 418.17130758 172.85209817 418.17326355 175.60032654 C418.17374729 176.28330626 418.17423103 176.96628599 418.17472943 177.66996207 C418.18301459 188.71267508 418.20832683 199.75527925 418.24084423 210.79794482 C418.27402797 222.16049783 418.29160474 233.52297632 418.29512185 244.88558501 C418.2974649 251.25493023 418.30632777 257.62410341 418.33158302 263.99340248 C418.35499273 269.99431034 418.3590453 275.99493449 418.34882164 281.99587631 C418.34832923 284.18666596 418.35456145 286.37747019 418.36837769 288.56821632 C418.53110677 315.92352129 411.95885957 338.88816636 392.87809753 359.38768005 C380.04351226 371.88730258 365.10622133 380.38685735 347.46403503 384.02830505 C346.22444031 384.28643982 344.98484558 384.54457458 343.70768738 384.81053162 C342.77392273 385.0009906 341.84015808 385.19144958 340.87809753 385.38768005 C340.8744519 386.53502625 340.87080627 387.68237244 340.86705017 388.86448669 C340.83006008 399.69324602 340.7722433 410.52172202 340.69419479 421.3502655 C340.65473706 426.91694799 340.62254008 432.48347268 340.60710144 438.05027771 C340.59192385 443.42563938 340.55745816 448.8005672 340.50978851 454.17573547 C340.49498619 456.22332482 340.48705718 458.2709761 340.48621368 460.31861877 C340.48383886 463.1936686 340.45671735 466.06752448 340.42399597 468.94236755 C340.42902634 469.78322403 340.4340567 470.62408051 340.4392395 471.49041748 C340.31769351 478.42276211 338.46815569 483.86403364 333.44059753 488.76268005 C328.13051542 492.1300492 323.14627267 493.51005436 316.87809753 492.38768005 C309.27408253 489.90895602 306.2027509 485.19322981 302.16130066 478.58616638 C292.79003227 464.06146707 282.47873737 450.44374662 271.37809753 437.20018005 C270.87352665 436.59660958 270.36895577 435.99303911 269.84909487 435.37117863 C243.24673667 403.75150165 214.9884665 384.72172332 173.18953896 380.83098888 C145.36738249 378.55717589 117.44013596 378.8648491 89.56559753 379.76268005 C88.2868211 379.80367089 87.00804466 379.84466172 85.69051743 379.8868947 C62.55651291 380.6511845 39.4332592 381.66858206 16.34933472 383.38952637 C14.73281075 383.50638702 14.73281075 383.50638702 13.08362973 383.6256085 C8.0769823 383.98788213 3.07515903 384.37254052 -1.92505646 384.81498432 C-26.75862465 386.81666192 -47.41344744 378.20366366 -66.30940247 362.13768005 C-81.33835534 348.0343353 -93.2386263 327.31717592 -94.21732771 306.34262109 C-94.25939864 303.89601226 -94.26959178 301.4511402 -94.26907349 299.00416565 C-94.27275017 298.06702756 -94.27642686 297.12988947 -94.28021497 296.16435325 C-94.29121687 293.02801518 -94.29508976 289.89171028 -94.29890442 286.75535583 C-94.30517185 284.50459692 -94.3118189 282.25383904 -94.31881714 280.00308228 C-94.33983186 272.61305966 -94.35021917 265.22303691 -94.36018372 257.83299255 C-94.36423266 255.28445805 -94.36834962 252.73592366 -94.3725338 250.18738937 C-94.38940059 239.58089805 -94.40403356 228.97440884 -94.41128254 218.36790657 C-94.41319215 215.61863834 -94.41511253 212.86937012 -94.41706848 210.12010193 C-94.41755222 209.43685989 -94.41803596 208.75361786 -94.41853436 208.04967152 C-94.42682162 196.99981648 -94.45213781 185.95007014 -94.48464916 174.90026249 C-94.51782199 163.53206425 -94.53540858 152.16394046 -94.53892678 140.7956866 C-94.54127078 134.42246095 -94.55014629 128.04940715 -94.57538795 121.67622757 C-94.59878062 115.6728605 -94.60285697 109.66977706 -94.59262657 103.66637611 C-94.59213377 101.47355388 -94.59837791 99.28071715 -94.61218262 97.08793831 C-94.76708463 71.00474765 -88.51347155 47.33760792 -69.87190247 28.13768005 C-50.25093202 8.51670961 -27.53171449 -0.13077574 0 0 Z M-45.21174622 55.85643005 C-57.75069905 72.10803373 -58.42484043 89.04921545 -58.38069153 108.72923279 C-58.38340578 110.76899846 -58.38696914 112.80876315 -58.39131165 114.848526 C-58.40038685 120.3588678 -58.39691139 125.86913424 -58.39055347 131.37947726 C-58.38546751 137.16428238 -58.39019219 142.94908133 -58.39332581 148.73388672 C-58.39695819 158.4470281 -58.39218576 168.16013901 -58.38264465 177.87327576 C-58.37176459 189.07839478 -58.37528539 200.28344098 -58.38629746 211.48855823 C-58.39539475 221.13394047 -58.3966436 230.77930087 -58.39142013 240.42468601 C-58.38831344 246.17447766 -58.38785508 251.92423517 -58.3944931 257.67402458 C-58.40030141 263.08235048 -58.39620626 268.49058317 -58.38470459 273.89889908 C-58.38207643 275.87528008 -58.38279126 277.85166903 -58.38722992 279.8280468 C-58.43016065 300.89795939 -56.79226146 317.82143709 -41.80158997 333.87205505 C-28.83048656 346.300958 -13.83599136 349.56904509 3.5176239 349.50552368 C4.44593002 349.50622826 5.37423614 349.50693285 6.33067274 349.50765878 C9.41876569 349.50895964 12.50680673 349.50330977 15.59489441 349.49778748 C17.81804403 349.49754515 20.04119376 349.49782315 22.26434326 349.49858093 C27.04091741 349.49968454 31.81748193 349.49826096 36.59405518 349.49521446 C44.14997857 349.49157451 51.70585211 349.50073532 59.26176453 349.51300049 C61.17684492 349.51603338 61.17684492 349.51603338 63.1306138 349.51912755 C65.74056249 349.52329582 68.35051113 349.52749857 70.96045971 349.53173506 C77.65614898 349.54244588 84.35183863 349.55233617 91.04753113 349.56077576 C92.05466 349.56205263 92.05466 349.56205263 93.0821349 349.5633553 C103.96837112 349.57658283 114.85453413 349.57155069 125.74076957 349.56070419 C136.93619215 349.55006381 148.13146378 349.56269618 159.32685328 349.59478647 C165.60541688 349.61193664 171.88357454 349.61823626 178.16213989 349.59866905 C184.06555987 349.5804355 189.96827997 349.59006289 195.87164116 349.6209259 C198.03514003 349.62728822 200.1986972 349.62344711 202.36215401 349.60853004 C205.32179583 349.58964082 208.27904353 349.60780495 211.23857117 349.63491821 C212.08946178 349.62064999 212.94035239 349.60638177 213.81702757 349.59168118 C224.03101052 349.78007567 230.69370211 356.74715429 237.49333191 363.6782074 C238.19529694 364.38134064 238.89726196 365.08447388 239.62049866 365.80891418 C241.91135946 368.10689423 244.19151658 370.41519255 246.47184753 372.72361755 C248.07011435 374.33002875 249.66912527 375.93569993 251.2688446 377.54066467 C255.45717659 381.7460385 259.63683418 385.95992258 263.81425476 390.1761322 C270.5262362 396.94755412 277.25121825 403.70606125 283.9765625 410.4642067 C286.32647678 412.8281254 288.67256658 415.19578856 291.01811218 417.56404114 C292.44466873 419.00061271 293.87130026 420.43710981 295.29801941 421.8735199 C295.9535379 422.5373468 296.6090564 423.20117371 297.28443909 423.88511658 C298.79677944 425.40499287 300.33458725 426.8994686 301.87809753 428.38768005 C302.20809753 428.38768005 302.53809753 428.38768005 302.87809753 428.38768005 C302.88174316 427.59112 302.88538879 426.79455994 302.8891449 425.97386169 C302.92712113 418.44141763 302.98408196 410.90946291 303.06200027 403.37733459 C303.10139281 399.50560389 303.13362117 395.63409781 303.14909363 391.76219177 C303.16431505 388.02067265 303.1988559 384.2797714 303.24640656 380.53852844 C303.26116425 379.11615898 303.26913531 377.69370126 303.26998138 376.27125549 C303.27951979 368.27092287 303.40394727 362.16582211 307.87809753 355.38768005 C311.9593134 351.50554789 315.17545902 350.32946918 320.71012878 350.02830505 C340.2086397 348.79035648 354.66041703 345.20568414 368.69059753 330.63768005 C379.29556926 318.30322369 382.04313262 304.20399166 382.0118103 288.45169067 C382.01407586 287.5990052 382.01634142 286.74631972 382.01867563 285.86779529 C382.0249616 283.03546086 382.02418976 280.20317495 382.02336121 277.37083435 C382.02635605 275.32988931 382.02975933 273.28894484 382.03353882 271.2480011 C382.04234941 265.72104205 382.04471568 260.19409849 382.0453546 254.66713309 C382.04606673 251.20975634 382.04820411 247.75238349 382.05085182 244.29500771 C382.0600952 232.22115963 382.06418793 220.14732257 382.06340027 208.07347107 C382.0627996 196.83829358 382.07335183 185.60316412 382.08914393 174.36799878 C382.10223995 164.70486243 382.10758331 155.04174175 382.10694486 145.3785966 C382.1066905 139.61481429 382.10950755 133.85107469 382.12012291 128.08730125 C382.12983873 122.66425192 382.12985923 117.24128585 382.12260628 111.81823349 C382.12156479 109.83498195 382.12389724 107.85172512 382.12996674 105.86848259 C382.18255868 87.48415752 381.17460033 71.09526182 368.87809753 56.38768005 C368.25934753 55.52143005 367.64059753 54.65518005 367.00309753 53.76268005 C358.450599 44.20400522 345.54001768 37.96554932 332.77987504 37.20237863 C329.07194688 37.12723409 325.36679008 37.11587214 321.65840149 37.12698364 C320.22304107 37.12395941 318.78768226 37.12006856 317.35232627 37.11539108 C313.42612147 37.10513743 309.50000826 37.10728615 305.57379603 37.11157167 C301.33238546 37.11404368 297.09099666 37.10501884 292.84959412 37.09753418 C284.54723723 37.08479844 276.2449127 37.08299208 267.94254769 37.08533444 C261.19275737 37.08711899 254.44297686 37.08536503 247.69318771 37.08111 C246.25104219 37.08021722 246.25104219 37.08021722 244.77976241 37.0793064 C242.82648326 37.07809462 240.87320411 37.07688049 238.91992496 37.07566402 C220.61066988 37.06479285 202.30143323 37.066949 183.99217711 37.07304887 C167.25185375 37.07821786 150.51158858 37.0669623 133.77127673 37.04795065 C116.57101443 37.02856679 99.37077965 37.0203172 82.17050636 37.0240739 C72.51839207 37.02598508 62.86632732 37.02350641 53.21422195 37.00935936 C44.99742386 36.99743764 36.78070578 36.99604958 28.56390657 37.00814953 C24.37417796 37.01403259 20.18459567 37.01515352 15.99487686 37.00314713 C12.15432247 36.99226949 8.31403622 36.99541384 4.47349428 37.00940881 C2.4370831 37.01329541 0.40065992 37.00252406 -1.63572299 36.99111193 C-18.5958458 37.09059635 -34.06827688 42.692556 -45.21174622 55.85643005 Z " fill="#000000" transform="translate(94.12190246582031,9.612319946289063)"/>
<path d="M0 0 C0.9511309 -0.00384115 1.9022618 -0.00768229 2.88221484 -0.01163983 C3.92412658 -0.01077335 4.96603831 -0.00990687 6.03952312 -0.00901413 C7.14872811 -0.01198525 8.25793309 -0.01495637 9.40075034 -0.01801753 C13.13090934 -0.02671412 16.86103629 -0.02821359 20.59120464 -0.02970505 C23.26020745 -0.0343325 25.92920733 -0.03933641 28.59820843 -0.04475021 C35.85853893 -0.05832792 43.1188639 -0.06435727 50.37920499 -0.06876087 C54.91276526 -0.07152403 59.44632341 -0.0757615 63.97988224 -0.08026505 C76.53274209 -0.09245656 89.08560024 -0.10275638 101.63846588 -0.10614014 C102.44175472 -0.1063597 103.24504357 -0.10657927 104.07267449 -0.10680549 C104.87787973 -0.10702377 105.68308497 -0.10724204 106.51269037 -0.10746694 C108.14433054 -0.1079104 109.77597072 -0.10835697 111.40761089 -0.10880661 C112.62163445 -0.10913875 112.62163445 -0.10913875 113.86018374 -0.10947761 C126.97580833 -0.113426 140.09137737 -0.13088179 153.2069805 -0.15416613 C166.67350093 -0.17788046 180.13999349 -0.19034201 193.60653514 -0.19150805 C201.1671531 -0.19242473 208.72769868 -0.1981751 216.2882967 -0.21632767 C222.72594556 -0.2317297 229.16349964 -0.2368485 235.60116342 -0.22858956 C238.88509758 -0.22468349 242.16880102 -0.22724342 245.45271969 -0.23964691 C249.01477809 -0.2523129 252.57634537 -0.24651822 256.13840008 -0.23606491 C257.17361965 -0.24412132 258.20883921 -0.25217772 259.27542907 -0.26047826 C265.86692876 -0.21518208 270.82784609 0.49197584 276.20521832 4.60408401 C280.31219902 9.31265063 282.12572159 13.84830762 282.27943707 20.13142776 C281.48460819 26.31122224 279.00069938 30.08767646 274.19349957 33.94002151 C270.36137523 36.3253234 266.94248474 37.38095888 262.43861961 37.38869667 C261.00986174 37.39837001 261.00986174 37.39837001 259.55224007 37.40823877 C257.99476492 37.40359296 257.99476492 37.40359296 256.40582561 37.3988533 C255.29647178 37.40338441 254.18711794 37.40791553 253.04414731 37.41258395 C249.31939385 37.42526456 245.59478592 37.42360519 241.87001324 37.42195511 C239.20248144 37.42793807 236.53496112 37.43468631 233.8674345 37.44231033 C227.36896175 37.45891755 220.87052528 37.46441976 214.37203308 37.46553509 C209.08903453 37.46648572 203.80604794 37.47059677 198.52305317 37.47693634 C183.54130542 37.49454819 168.55958631 37.50377533 153.57782813 37.50227539 C152.77029414 37.50219548 151.96276014 37.50211557 151.13075542 37.50203323 C150.3222342 37.50195147 149.51371297 37.50186971 148.6806911 37.50178547 C135.57871496 37.50097264 122.4768538 37.5201096 109.37491091 37.54830997 C95.91851812 37.57704444 82.4621814 37.59084994 69.00575715 37.58912241 C61.45236945 37.58845869 53.89910228 37.59394302 46.34574223 37.61547852 C39.91434094 37.63369779 33.48311482 37.63803164 27.05169889 37.62445967 C23.7716251 37.61793355 20.49195673 37.61997701 17.21190166 37.63516617 C13.65230043 37.65058219 10.09358143 37.64133326 6.53399944 37.62590408 C4.98656253 37.64133477 4.98656253 37.64133477 3.40786427 37.65707719 C-4.46918649 37.58163437 -9.75141896 35.8423853 -15.59556293 30.50642776 C-18.76010735 25.48038663 -20.12643825 20.69153409 -19.44712543 14.73299026 C-17.81426447 8.51963619 -14.06228164 4.57637495 -8.72056293 1.13142776 C-5.76405484 0.20547549 -3.08885305 0.00468994 0 0 Z " fill="#000000" transform="translate(124.72056293487549,136.86857223510742)"/>
<path d="M0 0 C1.68981371 -0.00913666 1.68981371 -0.00913666 3.41376507 -0.01845789 C7.19075078 -0.03511434 10.96740035 -0.03030813 14.74441528 -0.0255127 C17.45150826 -0.03121459 20.15858093 -0.04134431 22.86566162 -0.05117798 C29.45692287 -0.0722213 36.04809613 -0.07677347 42.639387 -0.07499009 C47.99769144 -0.07368191 53.35596845 -0.07748947 58.71426773 -0.08491516 C60.25835931 -0.08701438 61.80245089 -0.08911198 63.34654248 -0.09120798 C64.11510737 -0.09225151 64.88367226 -0.09329504 65.67552699 -0.09437019 C80.20769396 -0.11326813 94.73981043 -0.11222373 109.27198459 -0.10540086 C122.5614563 -0.09982571 135.85073521 -0.12065035 149.14016186 -0.15376133 C162.79095685 -0.18750827 176.44165951 -0.20266542 190.09249699 -0.1980443 C197.75432094 -0.19580062 205.41596669 -0.20102783 213.07775497 -0.22593689 C219.60066119 -0.24696305 226.12329151 -0.25052917 232.64620911 -0.2316373 C235.97303194 -0.22248697 239.29892011 -0.22403008 242.62577057 -0.24199295 C246.23584736 -0.26014017 249.84455476 -0.24746738 253.45458984 -0.22705078 C255.02434926 -0.24582755 255.02434926 -0.24582755 256.62582099 -0.26498365 C263.20277978 -0.18523878 267.843256 0.96988128 272.85427856 5.39440918 C276.27016946 9.55647717 277.76182224 14.03194252 277.85427856 19.39440918 C276.47844511 25.93525675 274.14239982 31.22736389 268.4141674 35.00257111 C263.45829735 36.94020707 258.98533284 36.8155692 253.70855713 36.78881836 C252.01874342 36.79795501 252.01874342 36.79795501 250.29479206 36.80727625 C246.51780635 36.8239327 242.74115678 36.81912649 238.96414185 36.81433105 C236.25704887 36.82003295 233.5499762 36.83016267 230.84289551 36.83999634 C224.25163426 36.86103966 217.660461 36.86559183 211.06917013 36.86380845 C205.71086569 36.86250027 200.35258868 36.86630783 194.9942894 36.87373352 C193.45019782 36.87583274 191.90610624 36.87793034 190.36201465 36.88002634 C189.59344976 36.88106987 188.82488487 36.8821134 188.03303014 36.88318855 C173.50086317 36.90208649 158.9687467 36.90104209 144.43657254 36.89421922 C131.14710083 36.88864407 117.85782192 36.90946871 104.56839527 36.94257969 C90.91760028 36.97632663 77.26689762 36.99148378 63.61606014 36.98686266 C55.95423619 36.98461898 48.29259044 36.98984619 40.63080215 37.01475525 C34.10789594 37.03578141 27.58526562 37.03934753 21.06234802 37.02045566 C17.73552519 37.01130533 14.40963702 37.01284844 11.08278656 37.03081131 C7.47270977 37.04895853 3.86400237 37.03628574 0.25396729 37.01586914 C-0.79253899 37.02838699 -1.83904527 37.04090484 -2.91726387 37.05380201 C-9.49422265 36.97405714 -14.13469887 35.81893708 -19.14572144 31.39440918 C-22.56161234 27.23234119 -24.05326511 22.75687584 -24.14572144 17.39440918 C-22.76988798 10.85356161 -20.43384269 5.56145447 -14.70561028 1.78624725 C-9.74974022 -0.15138871 -5.27677571 -0.02675084 0 0 Z " fill="#000000" transform="translate(129.14572143554688,237.6055908203125)"/>
</svg>
