<svg width="24" height="24" viewBox="0 0 24 24" fill="none" xmlns="http://www.w3.org/2000/svg">
<g clip-path="url(#clip0_325_41559)">
<path d="M9.89059 0.342211C9.60934 0.0468981 9.18746 -0.0656019 8.79371 0.0375231C8.39996 0.140648 8.09527 0.454711 7.99215 0.848461L7.25152 3.77815L4.34527 2.95784C3.95152 2.84534 3.52965 2.95784 3.24371 3.24377C2.95777 3.52971 2.84527 3.95159 2.95777 4.34534L3.77809 7.25159L0.8484 7.9969C0.45465 8.09534 0.145275 8.40471 0.037462 8.79846C-0.0703505 9.19221 0.046837 9.6094 0.34215 9.89065L2.50777 12L0.34215 14.1094C0.046837 14.3906 -0.065663 14.8125 0.037462 15.2063C0.140587 15.6 0.45465 15.9047 0.8484 16.0078L3.77809 16.7485L2.95777 19.6547C2.84527 20.0485 2.95777 20.4703 3.24371 20.7563C3.52965 21.0422 3.95152 21.1547 4.34527 21.0422L7.25152 20.2219L7.99215 23.1516C8.09059 23.5453 8.39996 23.8547 8.79371 23.9625C9.18746 24.0703 9.60465 23.9531 9.89059 23.6625L12 21.4969L14.1093 23.6625C14.3953 23.9531 14.8125 24.0703 15.2062 23.9625C15.6 23.8547 15.9046 23.5453 16.0078 23.1516L16.7484 20.2219L19.6546 21.0422C20.0484 21.1547 20.4703 21.0422 20.7562 20.7563C21.0421 20.4703 21.1546 20.0485 21.0421 19.6547L20.2218 16.7485L23.1515 16.0078C23.5453 15.9094 23.8547 15.6 23.9625 15.2063C24.0703 14.8125 23.9531 14.3906 23.6625 14.1094L21.4968 12L23.6625 9.89065C23.9531 9.60471 24.0703 9.18752 23.9625 8.79377C23.8547 8.40002 23.5453 8.09534 23.1515 7.99221L20.2218 7.25159L21.0421 4.34534C21.1546 3.95159 21.0421 3.52971 20.7562 3.24377C20.4703 2.95784 20.0484 2.84534 19.6546 2.95784L16.7484 3.77815L16.0031 0.848461C15.9046 0.454711 15.5953 0.145336 15.2015 0.0375231C14.8078 -0.0702894 14.3906 0.0468981 14.1093 0.342211L12 2.50784L9.89059 0.342211Z" fill="#D29429"/>
<path d="M16.8545 9.96873C17.2568 9.56306 17.2568 8.9071 16.8545 8.50576C16.4522 8.10441 15.8017 8.10009 15.4037 8.50576L10.6531 13.296L8.6416 11.2677C8.2393 10.862 7.58877 10.862 7.19075 11.2677C6.79273 11.6734 6.78845 12.3293 7.19075 12.7307L9.92982 15.4926C10.3321 15.8983 10.9826 15.8983 11.3807 15.4926L16.8545 9.96873Z" fill="white"/>
</g>
<defs>
<clipPath id="clip0_325_41559">
<rect width="24" height="24" fill="white"/>
</clipPath>
</defs>
</svg>
