<svg width="34" height="26" viewBox="0 0 34 26" fill="none" xmlns="http://www.w3.org/2000/svg">
<g clip-path="url(#clip0_325_43942)">
<path d="M17.0039 3.64233C15.3949 3.64298 13.5181 3.75131 11.4469 4.07524C9.49069 4.38119 7.75434 4.81774 6.26763 5.28213C5.89552 5.39838 5.64246 5.74287 5.64246 6.13253V13.1565C5.64246 13.6485 6.04132 14.0476 6.53354 14.0476H7.03518C7.52718 14.0476 7.92626 14.4465 7.92626 14.9387V17.4957C7.92626 17.9877 8.32513 18.3868 8.81735 18.3868H9.90412C10.1625 18.3868 10.4088 18.4985 10.5775 18.6942C11.02 19.2074 11.6458 19.8112 12.4939 20.3422C14.3272 21.4899 16.1359 21.6321 17.0043 21.6411" fill="#D29429"/>
</g>
<g clip-path="url(#clip1_325_43942)">
<path d="M16.996 3.64233C18.6049 3.64298 20.4817 3.75131 22.5529 4.07524C24.5092 4.38119 26.2455 4.81774 27.7322 5.28213C28.1044 5.39838 28.3574 5.74287 28.3574 6.13253V13.1565C28.3574 13.6485 27.9586 14.0476 27.4663 14.0476H26.9647C26.4727 14.0476 26.0736 14.4465 26.0736 14.9387V17.4957C26.0736 17.9877 25.6747 18.3868 25.1825 18.3868H24.0958C23.8373 18.3868 23.5911 18.4985 23.4224 18.6942C22.9799 19.2074 22.3541 19.8112 21.506 20.3422C19.6727 21.4899 17.8639 21.6321 16.9955 21.6411" fill="#D29429"/>
</g>
<path d="M21.8545 9.96873C22.2568 9.56306 22.2568 8.9071 21.8545 8.50576C21.4522 8.10441 20.8017 8.10009 20.4037 8.50576L15.6531 13.296L13.6416 11.2677C13.2393 10.862 12.5888 10.862 12.1907 11.2677C11.7927 11.6734 11.7884 12.3293 12.1907 12.7307L14.9298 15.4926C15.3321 15.8983 15.9826 15.8983 16.3807 15.4926L21.8545 9.96873Z" fill="white"/>
<defs>
<clipPath id="clip0_325_43942">
<rect width="16.1939" height="26" fill="white" transform="translate(0.820068)"/>
</clipPath>
<clipPath id="clip1_325_43942">
<rect width="16.1939" height="26" fill="white" transform="matrix(-1 0 0 1 33.1798 0)"/>
</clipPath>
</defs>
</svg>
