<svg width="12" height="13" viewBox="0 0 12 13" fill="none" xmlns="http://www.w3.org/2000/svg">
<g opacity="0.6">
<g clip-path="url(#clip0_600_88155)">
<path d="M7.11563 10.2406C6.63281 11.2063 6.17344 11.375 6 11.375C5.92734 11.375 5.80547 11.3445 5.65312 11.2414L5.29453 12.4602C5.52656 12.4883 5.76094 12.5023 6 12.5023C9.31406 12.5023 12 9.81641 12 6.50234C12 3.18828 9.31406 0.5 6 0.5C2.68594 0.5 0 3.18594 0 6.5C0 6.73906 0.0140625 6.97344 0.0421875 7.20547L1.14141 6.88203C1.13203 6.75547 1.12734 6.62891 1.12734 6.5C1.12734 6.11328 1.17188 5.73594 1.25859 5.375H3.05625C3.02578 5.68672 3.00937 6.00781 3.00469 6.33594L4.13906 6.00313C4.14844 5.78984 4.16484 5.58125 4.18594 5.37734H7.81875C7.85625 5.73594 7.87734 6.11328 7.87734 6.50234C7.87734 6.89141 7.85625 7.26875 7.81875 7.62734H6.71719L6.38672 8.75234H7.63359C7.50234 9.32422 7.32422 9.82813 7.11797 10.243L7.11563 10.2406ZM4.88437 2.75938C5.36719 1.79375 5.82656 1.625 6 1.625C6.17344 1.625 6.63281 1.79375 7.11563 2.75938C7.32188 3.17422 7.5 3.67813 7.63125 4.25H4.36875C4.5 3.67813 4.67812 3.17422 4.88437 2.75938ZM9 6.5C9 6.11563 8.98125 5.73828 8.94844 5.375H10.7461C10.8305 5.73594 10.8773 6.11328 10.8773 6.5C10.8773 6.88672 10.8328 7.26406 10.7461 7.625H8.94844C8.98359 7.26172 9 6.88438 9 6.5ZM8.78203 4.25C8.61094 3.40859 8.34844 2.66328 8.01797 2.06094C9.00938 2.51328 9.82266 3.28672 10.3242 4.25H8.77969H8.78203ZM1.67344 4.25C2.175 3.28672 2.98828 2.51328 3.97969 2.06094C3.64922 2.66094 3.38672 3.40859 3.21562 4.25H1.67109H1.67344ZM8.78203 8.75H10.3266C9.825 9.71328 9.01172 10.4867 8.02031 10.9391C8.35078 10.3391 8.61328 9.59141 8.78437 8.75H8.78203ZM0.914062 7.73047C0.588281 7.82656 0.548438 8.27422 0.853125 8.42656L2.19609 9.09922C2.22656 9.11563 2.25703 9.13438 2.28281 9.15781L0.220312 11.2203C-0.0726563 11.5133 -0.0726563 11.9891 0.220312 12.282C0.513281 12.575 0.989063 12.575 1.28203 12.282L3.34453 10.2195C3.36797 10.2453 3.38906 10.2734 3.40312 10.3063L4.07578 11.6492C4.22812 11.9539 4.67578 11.9141 4.77188 11.5883L6.18281 6.78828C6.26719 6.50469 6.00234 6.23984 5.71641 6.32188L0.914062 7.73047Z" fill="black"/>
</g>
</g>
<defs>
<clipPath id="clip0_600_88155">
<rect width="12" height="12" fill="white" transform="translate(0 0.5)"/>
</clipPath>
</defs>
</svg>
