<svg width="16" height="16" viewBox="0 0 16 16" fill="none" xmlns="http://www.w3.org/2000/svg">
<g clip-path="url(#clip0_149_47185)">
<g clip-path="url(#clip1_149_47185)">
<path d="M4.02187 3.2L3 1.5L4 0H7L8 1.5L6.97813 3.2C9.29688 3.84688 11 5.975 11 8.5C11 10.1344 10.2875 11.6 9.15625 12.6094C8.57187 12.2375 8.15312 11.625 8.03438 10.9156C8.63125 10.2875 9 9.4375 9 8.5C9 8.125 8.94063 7.7625 8.83125 7.42188C7.74063 8.01562 7 9.17188 7 10.5C7 12.4344 8.56563 14 10.5 14C12.4344 14 14 12.4344 14 10.5C14 9.05937 13.1312 7.82188 11.8875 7.28438C11.7312 6.46563 11.425 5.7 10.9937 5.02187C13.8 5.27187 16 7.62813 16 10.5C16 13.5375 13.5375 16 10.5 16C8.77188 16 7.22813 15.2031 6.21875 13.9531C5.98438 13.9844 5.74375 14 5.5 14C2.4625 14 0 11.5375 0 8.5C0 5.975 1.70312 3.84688 4.02187 3.2ZM2 8.5C2 10.3344 3.40937 11.8375 5.20312 11.9875C5.07188 11.5156 5 11.0156 5 10.5C5 8.4875 6.07812 6.72813 7.69063 5.77187C7.09063 5.2875 6.32812 5 5.5 5C3.56562 5 2 6.56563 2 8.5Z" fill="black"/>
</g>
</g>
<defs>
<clipPath id="clip0_149_47185">
<rect width="16" height="16" fill="white"/>
</clipPath>
<clipPath id="clip1_149_47185">
<rect width="16" height="16" fill="white"/>
</clipPath>
</defs>
</svg>
