<svg width="60" height="96" viewBox="0 0 60 96" fill="none" xmlns="http://www.w3.org/2000/svg">
<g clip-path="url(#clip0_149_53719)">
<path d="M21 9C21 6.61305 21.9482 4.32387 23.636 2.63604C25.3239 0.948211 27.613 0 30 0C32.3869 0 34.6761 0.948211 36.364 2.63604C38.0518 4.32387 39 6.61305 39 9C39 11.3869 38.0518 13.6761 36.364 15.364C34.6761 17.0518 32.3869 18 30 18C27.613 18 25.3239 17.0518 23.636 15.364C21.9482 13.6761 21 11.3869 21 9ZM28.5 66V90C28.5 93.3188 25.8187 96 22.5 96C19.1812 96 16.5 93.3188 16.5 90V48.1687L11.1375 57.0938C9.43124 59.925 5.73749 60.8437 2.90624 59.1375C0.0749887 57.4312 -0.843761 53.7375 0.862489 50.9062L11.7937 32.7188C15.0562 27.3 20.9062 23.9813 27.225 23.9813H32.7937C39.1125 23.9813 44.9625 27.3 48.225 32.7188L59.1562 50.9062C60.8625 53.7375 59.9437 57.4312 57.1125 59.1375C54.2812 60.8437 50.5875 59.925 48.8812 57.0938L43.5 48.1687V90C43.5 93.3188 40.8187 96 37.5 96C34.1812 96 31.5 93.3188 31.5 90V66H28.5Z" fill="black"/>
</g>
<defs>
<clipPath id="clip0_149_53719">
<rect width="60" height="96" fill="white"/>
</clipPath>
</defs>
</svg>
