<svg width="10" height="17" viewBox="0 0 10 17" fill="none" xmlns="http://www.w3.org/2000/svg">
<path d="M2 5C2 4.20435 2.31607 3.44129 2.87868 2.87868C3.44129 2.31607 4.20435 2 5 2C5.79565 2 6.55871 2.31607 7.12132 2.87868C7.68393 3.44129 8 4.20435 8 5C8 5.79565 7.68393 6.55871 7.12132 7.12132C6.55871 7.68393 5.79565 8 5 8C4.20435 8 3.44129 7.68393 2.87868 7.12132C2.31607 6.55871 2 5.79565 2 5ZM5.75 9.4375C7.87813 9.08125 9.5 7.22813 9.5 5C9.5 2.51562 7.48438 0.5 5 0.5C2.51562 0.5 0.5 2.51562 0.5 5C0.5 7.23125 2.12188 9.08125 4.25 9.4375V15.75V16.5H5.75V15.75V9.4375Z" fill="#D29429"/>
</svg>
