<svg width="191" height="189" viewBox="0 0 191 189" fill="none" xmlns="http://www.w3.org/2000/svg">
<path d="M176 13H0L176 189V13Z" fill="#312922"/>
<path d="M130.916 41.9625C131.254 42.3755 131.254 42.4006 130.866 42.7886C130.578 43.0764 130.302 43.3518 130.027 43.6271C129.952 43.7022 129.889 43.7648 129.814 43.8399C129.652 43.9776 129.501 44.0026 129.339 43.8649C129.088 43.6396 128.851 43.4018 128.613 43.164C128.388 42.9388 128.187 42.7135 127.95 42.5007C127.774 42.3255 127.537 42.313 127.361 42.4632C127.161 42.6133 126.961 42.7886 126.786 42.9638C125.909 43.89 124.971 44.7285 124.12 45.6547C123.519 46.2554 122.918 46.8562 122.317 47.457C121.942 47.8324 121.554 48.1954 121.178 48.5709C121.103 48.6209 121.053 48.696 120.991 48.7336C120.578 48.9964 120.515 48.9839 120.19 48.6334C120.14 48.5834 120.077 48.5208 120.04 48.4582C119.877 48.1704 119.652 47.9701 119.376 47.7949C119.226 47.6697 119.088 47.5321 118.951 47.3944C118.813 47.2567 118.813 47.0565 118.938 46.9063C119.038 46.7811 119.138 46.6559 119.239 46.5558C119.664 46.1553 120.077 45.7673 120.478 45.3668C121.254 44.5658 122.03 43.7898 122.818 43.0013C122.993 42.8011 123.219 42.6259 123.431 42.4632C123.732 42.2379 124.02 41.975 124.245 41.6997C124.483 41.3868 124.745 41.124 124.996 40.8486C125.046 40.7986 125.096 40.7235 125.146 40.6734C125.496 40.348 125.484 40.0101 125.184 39.6346C125.008 39.4093 124.808 39.2341 124.62 39.0213C124.445 38.8461 124.245 38.6709 124.082 38.4831C123.857 38.2078 123.857 38.0826 124.12 37.8198C124.458 37.4568 124.821 37.1189 125.184 36.781C125.359 36.6058 125.509 36.6058 125.684 36.781C126.047 37.169 126.473 37.4944 126.836 37.9074C127.023 38.1452 127.286 38.3329 127.537 38.5332C127.712 38.6584 127.874 38.796 128 38.9713C128.275 39.3718 128.613 39.7097 129.001 39.9725C129.151 40.0977 129.289 40.2353 129.401 40.3981C129.627 40.6984 129.889 40.9863 130.202 41.1991C130.403 41.3242 130.565 41.4869 130.69 41.6872C130.766 41.7873 130.853 41.8749 130.916 41.9625ZM131.012 57.1281C130.75 57.4661 130.424 57.7665 130.124 58.0668C130.024 58.167 129.873 58.167 129.748 58.0668C129.648 57.9917 129.573 57.9166 129.498 57.8165C129.11 57.4285 128.735 57.003 128.284 56.7026C128.209 56.6525 128.159 56.6025 128.109 56.5274C128.021 56.4398 128.009 56.3271 128.059 56.202C128.184 55.9266 128.384 55.7013 128.634 55.5261C129.16 55.1757 129.611 54.7251 130.024 54.262C130.449 53.8115 130.837 53.3484 131.238 52.8728C131.388 52.7226 131.4 52.5349 131.3 52.3346C131.025 51.7589 130.624 51.2833 130.124 50.8828C129.898 50.6825 129.623 50.6825 129.36 50.8452C128.772 51.1831 128.284 51.6462 127.896 52.2094C127.796 52.3596 127.658 52.5223 127.52 52.66C127.158 53.023 126.782 53.3734 126.419 53.7364C126.319 53.8115 126.219 53.9116 126.094 53.9867C125.806 54.1744 125.718 54.1619 125.48 53.9241C125.293 53.7614 125.105 53.5737 124.93 53.3984L124.955 53.3734C124.729 53.1481 124.492 52.9354 124.279 52.6976C124.066 52.4598 124.066 52.2845 124.254 52.0217C124.279 51.9716 124.304 51.9466 124.329 51.9216C124.717 51.4835 125.105 51.0204 125.505 50.5949C125.706 50.3696 125.931 50.1944 126.169 50.0067C126.795 49.506 127.37 48.9303 127.858 48.292C128.084 47.9916 128.321 47.7538 128.609 47.541C129.11 47.1906 129.536 46.74 129.949 46.277C130.211 45.9641 130.499 45.6762 130.825 45.4008C131.163 45.088 131.5 44.75 131.838 44.4121C132.001 44.2744 132.176 44.1493 132.339 44.0116C132.514 43.8364 132.702 43.899 132.877 43.9991C132.977 44.0742 133.065 44.1618 133.14 44.2369C133.428 44.4747 133.716 44.7125 134.004 44.9753C134.091 45.0379 134.191 45.113 134.254 45.2006C134.429 45.4259 134.429 45.551 134.279 45.8014C134.129 46.0517 133.929 46.277 133.678 46.4522C133.353 46.6775 133.077 46.9528 132.802 47.2282C132.489 47.541 132.189 47.8414 131.876 48.1543C131.776 48.2545 131.676 48.3546 131.601 48.4547C131.475 48.6299 131.463 48.8427 131.588 49.0179C131.838 49.3934 132.114 49.7438 132.502 50.0067C132.715 50.1443 132.915 50.3196 133.128 50.4572C133.491 50.695 133.603 50.6825 133.891 50.3947C134.029 50.282 134.141 50.1443 134.279 50.0067C134.567 49.7188 134.855 49.4309 135.193 49.1931C135.531 48.9303 135.818 48.5924 136.131 48.2795C136.231 48.1794 136.307 48.0792 136.419 47.9916C136.582 47.8539 136.732 47.8539 136.895 47.9916C137.045 48.1168 137.183 48.2545 137.333 48.3796C137.471 48.4922 137.608 48.6049 137.746 48.7175C137.921 48.8677 138.109 49.0304 138.259 49.2056C138.497 49.4434 138.497 49.6187 138.284 49.8815C138.221 49.9691 138.159 50.0317 138.071 50.0943C137.746 50.2945 137.496 50.5699 137.233 50.8327C136.832 51.2332 136.394 51.6212 136.031 52.0593C135.606 52.6099 135.105 53.0855 134.617 53.5737C134.454 53.7364 134.266 53.874 134.091 54.0242C133.929 54.1619 133.778 54.2871 133.641 54.4247C133.178 54.9129 132.664 55.3509 132.289 55.9016C132.214 56.0017 132.114 56.0768 132.026 56.1394C131.626 56.4147 131.313 56.7527 131.012 57.1281ZM139.332 64.3716C139.357 64.4467 139.357 64.5218 139.345 64.6094C139.345 64.6344 139.307 64.6719 139.282 64.697C138.894 65.085 138.494 65.4855 138.093 65.8609C137.893 66.0612 137.693 66.0612 137.467 65.886C137.417 65.8609 137.367 65.8109 137.33 65.7733C136.829 65.2727 136.328 64.7721 135.815 64.2589C135.602 64.0712 135.402 63.8459 135.189 63.6331C134.914 63.3578 134.614 63.1075 134.413 62.757C134.351 62.6694 134.276 62.5943 134.213 62.5317C133.9 62.2689 133.562 62.0061 133.287 61.7057C133.012 61.3803 132.761 61.0549 132.436 60.8046C132.311 60.7044 132.211 60.5793 132.148 60.4416C132.06 60.2789 132.086 60.1287 132.173 59.991C132.173 59.966 132.186 59.9535 132.198 59.941C132.636 59.4529 132.987 58.9022 133.487 58.4766C133.7 58.3139 133.938 58.1512 134.126 57.9635C134.664 57.4754 135.202 56.9622 135.715 56.4491C136.253 55.9109 136.779 55.3352 137.317 54.797C137.805 54.3089 138.331 53.8333 138.819 53.3451C139.27 52.8695 139.733 52.3814 140.196 51.8933C140.484 51.6055 140.709 51.5804 140.934 51.8808C141.41 52.5316 142.011 53.0323 142.549 53.6205C142.749 53.8207 142.924 54.021 143.124 54.2213C143.425 54.4966 143.713 54.8095 144.038 55.0598C144.626 55.4979 145.102 56.0486 145.628 56.5742C145.815 56.762 145.953 56.9998 146.116 57.2376C146.203 57.3752 146.203 57.5254 146.116 57.6881C145.84 58.1387 145.477 58.5267 145.089 58.8896C145.039 58.9147 144.989 58.9647 144.927 58.9773C144.827 59.0273 144.701 59.0523 144.589 58.9647C144.476 58.8771 144.389 58.7895 144.276 58.7019C144.076 58.5267 143.888 58.364 143.7 58.2013C143.512 58.0135 143.325 57.8508 143.162 57.6381C142.887 57.2876 142.561 56.9622 142.198 56.6994C141.885 56.4616 141.61 56.1612 141.322 55.8984C141.184 55.7857 141.072 55.6481 140.922 55.5479C140.734 55.4103 140.546 55.4228 140.371 55.573C140.083 55.8358 139.795 56.0986 139.607 56.4616C139.52 56.6243 139.52 56.7995 139.62 56.9747C139.708 57.0874 139.783 57.2376 139.895 57.3502C140.108 57.563 140.321 57.7757 140.546 57.951C141.009 58.2889 141.422 58.7019 141.81 59.1149C142.011 59.3152 142.186 59.5655 142.348 59.8033C142.474 59.9785 142.449 60.1287 142.311 60.2914C142.298 60.3039 142.286 60.3164 142.273 60.329C141.923 60.6794 141.572 61.0298 141.222 61.3803C141.059 61.543 140.859 61.543 140.696 61.4053C140.584 61.3177 140.484 61.2176 140.383 61.1175C140.221 60.9798 140.071 60.8296 139.895 60.7044C139.307 60.2664 138.794 59.7532 138.343 59.1525C138.206 58.9898 138.056 58.8396 137.88 58.7144C137.668 58.5517 137.417 58.5517 137.217 58.7269C136.741 59.1775 136.228 59.6156 135.865 60.2038C135.753 60.3665 135.728 60.5167 135.853 60.6919C136.003 60.9172 136.153 61.1425 136.353 61.3427C136.804 61.8183 137.743 62.707 137.743 62.707C138.243 63.2076 138.744 63.7333 139.232 64.2464C139.27 64.2839 139.332 64.3215 139.332 64.3716ZM104.892 56.7012C104.867 56.7513 104.829 56.7888 104.779 56.8389C104.729 56.914 104.579 56.939 104.516 56.8764C104.053 56.4134 103.603 55.9628 103.14 55.4997C102.977 55.337 103.002 55.1368 103.089 54.949C103.24 54.6737 103.39 54.3983 103.54 54.123C103.665 53.8977 103.778 53.6599 103.865 53.4221C104.003 53.0842 103.953 52.7588 103.678 52.5084C103.352 52.183 103.014 51.8701 102.689 51.5698C102.414 51.3194 102.113 51.0942 101.85 50.8313C101.6 50.581 101.337 50.5184 101.037 50.6436C100.649 50.8313 100.261 51.0191 99.8604 51.1943C99.7102 51.2694 99.5976 51.357 99.4349 51.4196C99.2847 51.4696 99.122 51.4571 98.9968 51.332C98.5838 50.9189 98.1582 50.5184 97.7327 50.0929C97.6826 50.0428 97.6326 49.9677 97.595 49.9052C97.545 49.8301 97.5825 49.6924 97.6576 49.6423C97.7202 49.5797 97.7828 49.5422 97.8453 49.5046C98.734 48.9915 99.6226 48.4783 100.511 47.9652C100.824 47.8025 101.15 47.6523 101.475 47.5272C101.838 47.3895 102.188 47.2143 102.514 46.989C102.852 46.7762 103.19 46.5885 103.54 46.3882C104.078 46.1003 104.591 45.7624 105.13 45.4746C106.068 44.9614 107.019 44.4357 108.008 43.9977C108.071 43.9601 108.146 43.9351 108.233 43.8976C108.459 43.7974 108.672 43.835 108.834 43.9977C109.122 44.2605 109.385 44.5484 109.748 44.9113C109.861 44.999 110.048 45.1617 110.236 45.3494C110.336 45.4495 110.449 45.5371 110.524 45.6373C110.687 45.825 110.724 46.0378 110.599 46.238C110.311 46.7512 110.098 47.3144 109.773 47.815C109.635 48.0028 109.51 48.203 109.422 48.4158C109.147 48.9915 108.847 49.5422 108.534 50.0804C108.484 50.1555 108.459 50.2306 108.421 50.2931C108.171 50.969 107.795 51.5698 107.432 52.183C107.307 52.3833 107.207 52.5835 107.107 52.8088C106.932 53.2844 106.669 53.7225 106.406 54.1605C106.106 54.6612 105.818 55.1493 105.53 55.6374C105.317 56.0003 105.105 56.3383 104.892 56.7012ZM104.554 50.9314C104.779 51.1067 105.054 51.0816 105.23 50.8814C105.305 50.7813 105.355 50.6811 105.417 50.5685C105.543 50.3432 105.643 50.1179 105.793 49.9177C106.106 49.4796 106.256 48.9539 106.481 48.4783C106.519 48.4158 106.531 48.3282 106.544 48.2656C106.569 48.0403 106.381 47.8776 106.168 47.9402C106.081 47.9527 105.993 47.9902 105.893 48.0153C105.155 48.3031 104.516 48.7912 103.803 49.1292C103.778 49.1542 103.753 49.1792 103.728 49.2043C103.49 49.392 103.427 49.6298 103.603 49.8801C103.753 50.1054 103.953 50.3057 104.041 50.4183C104.253 50.6311 104.354 50.7312 104.466 50.8438C104.504 50.8814 104.529 50.9064 104.554 50.9314ZM116.811 58.7576C116.748 58.8703 116.648 58.9454 116.573 59.0205C115.972 59.6212 115.371 60.222 114.771 60.8227C114.608 60.9854 113.369 61.9992 113.219 62.0743C112.655 62.4122 112.055 62.5875 111.404 62.4623C110.916 62.3747 110.44 62.2746 109.964 62.1494C109.777 62.1119 109.576 62.0117 109.439 61.8991C108.675 61.2608 108.025 60.5098 107.511 59.6713C107.349 59.4335 107.274 59.1832 107.261 58.8953C107.274 58.5323 107.261 58.1944 107.249 57.8315C107.236 57.2182 107.461 56.6675 107.799 56.1794C108.037 55.8164 108.325 55.4785 108.613 55.1656C109.264 54.4397 110.002 53.8264 110.653 53.1005C110.79 52.9378 110.953 52.8001 111.116 52.6374C111.116 52.6374 112.543 51.2356 113.256 50.5222C113.519 50.2594 113.769 49.9841 114.057 49.7212C114.27 49.5335 114.408 49.546 114.633 49.7212C115.008 50.0466 115.384 50.372 115.734 50.6975C115.872 50.8351 116.022 50.9853 116.11 51.148C116.235 51.3232 116.185 51.5736 116.01 51.6737C115.634 51.899 115.346 52.2369 115.046 52.5373C114.733 52.8502 114.408 53.1255 114.12 53.4634C113.719 53.939 113.256 54.3771 112.793 54.7901C112.43 55.128 112.08 55.4785 111.742 55.8414C111.291 56.317 110.853 56.8302 110.403 57.3308C110.077 57.6813 109.989 58.1193 110.19 58.5949C110.44 59.2457 110.903 59.5586 111.604 59.5336C112.317 59.4961 112.843 59.1456 113.206 58.5574C113.594 57.9191 114.17 57.4685 114.72 56.9929C115.058 56.705 115.421 56.4422 115.659 56.0292C115.709 55.9541 115.784 55.879 115.847 55.8164C116.16 55.5035 116.46 55.2031 116.773 54.8902C116.861 54.8026 116.936 54.7275 117.048 54.665C117.286 54.5273 117.486 54.3521 117.624 54.0892C117.674 54.0141 117.737 53.9265 117.799 53.864C118.075 53.6136 118.363 53.5761 118.663 53.8014C118.926 53.9891 119.201 54.1894 119.439 54.4272C119.664 54.6524 119.839 54.9028 120.027 55.1656C120.115 55.2782 120.09 55.4785 119.977 55.5911C119.802 55.7664 119.639 55.9291 119.451 56.0667C118.988 56.4297 118.6 56.8427 118.225 57.2682C118.125 57.3684 118.05 57.4685 117.937 57.5561C117.524 57.9191 117.098 58.2695 116.811 58.7576ZM121.144 68.7228C120.981 68.9606 120.756 69.1108 120.48 69.211C119.867 69.4237 119.229 69.5864 118.59 69.6991C118.215 69.7491 117.852 69.7116 117.502 69.5364C117.251 69.4112 117.001 69.3111 116.751 69.1859C116.6 69.1108 116.425 69.0107 116.325 68.8855C115.799 68.2848 115.324 67.659 115.011 66.9206C114.836 66.5451 114.748 66.1571 114.811 65.719C114.836 65.4187 114.786 65.1183 114.798 64.8304C114.811 64.6177 114.848 64.4049 114.898 64.2046C114.936 64.0419 115.124 63.9543 115.274 64.0044C115.925 64.1546 116.563 64.3423 117.226 64.505C117.452 64.5551 117.564 64.6928 117.564 64.918C117.577 65.1558 117.589 65.3936 117.577 65.6314C117.552 66.1321 117.764 66.495 118.14 66.7954C118.177 66.8079 118.19 66.8204 118.202 66.833C118.603 67.1083 119.116 66.9206 119.191 66.4199C119.229 66.107 119.191 65.7941 119.154 65.4812C119.141 65.2685 119.054 65.0557 118.978 64.8555C118.666 63.7165 118.453 62.5526 118.453 61.351C118.453 60.4499 118.828 59.724 119.479 59.1232C119.817 58.7853 120.23 58.5475 120.706 58.4474C121.106 58.3723 121.519 58.2596 121.92 58.1845C122.283 58.122 122.633 58.172 122.958 58.3222C123.146 58.4098 123.334 58.5225 123.509 58.6476C123.872 58.9105 124.21 59.1733 124.473 59.361C124.836 59.749 125.061 60.0995 125.211 60.4749C125.399 60.963 125.537 61.4512 125.712 61.9268C125.812 62.2271 125.812 62.5275 125.775 62.8154C125.737 63.1783 125.649 63.5413 125.562 63.9043C125.524 64.067 125.399 64.1421 125.236 64.1045C125.049 64.067 124.861 64.0294 124.673 63.9418C124.298 63.7666 123.91 63.6289 123.497 63.5663C123.409 63.5538 123.309 63.5288 123.221 63.4912C123.021 63.4412 122.971 63.341 122.996 63.1408C123.009 62.9781 123.059 62.8279 123.059 62.6777C123.084 62.2021 122.958 61.7766 122.658 61.4011C122.533 61.2509 122.383 61.1258 122.195 61.0632C121.995 60.963 121.795 60.9881 121.619 61.0882C121.356 61.2509 121.181 61.4762 121.144 61.7891C121.119 62.1145 121.131 62.4274 121.231 62.7278C121.344 63.0407 121.444 63.3661 121.557 63.679C121.644 63.9919 121.744 64.2922 121.82 64.5926C121.932 64.9806 121.982 65.3561 121.982 65.7566C121.97 66.1196 121.995 66.47 121.995 66.8204C122.007 66.9831 121.982 67.1333 121.932 67.2835C121.757 67.8092 121.457 68.2848 121.144 68.7228ZM133.733 68.8214C134.071 69.2344 134.071 69.2595 133.683 69.6474C133.395 69.9353 133.12 70.2107 132.844 70.486C132.769 70.5611 132.707 70.6237 132.632 70.6988C132.469 70.8364 132.319 70.8615 132.156 70.7238C131.906 70.4985 131.668 70.2607 131.43 70.0229C131.205 69.7976 131.005 69.5723 130.767 69.3596C130.592 69.1844 130.354 69.1718 130.179 69.322C129.978 69.4722 129.778 69.6474 129.603 69.8227C128.727 70.7488 127.788 71.5874 126.937 72.5136C126.336 73.1143 125.735 73.7151 125.135 74.3158C124.759 74.6913 124.371 75.0543 123.996 75.4297C123.921 75.4798 123.871 75.5549 123.808 75.5924C123.395 75.8553 123.332 75.8428 123.007 75.4923C122.957 75.4423 122.894 75.3797 122.857 75.3171C122.694 75.0292 122.469 74.829 122.193 74.6538C122.043 74.5286 121.906 74.3909 121.768 74.2533C121.63 74.1156 121.63 73.9153 121.755 73.7651C121.856 73.64 121.956 73.5148 122.056 73.4147C122.481 73.0142 122.894 72.6262 123.295 72.2257C124.071 71.4247 124.847 70.6487 125.635 69.8602C125.811 69.66 126.036 69.4847 126.249 69.322C126.549 69.0967 126.837 68.8339 127.062 68.5586C127.3 68.2457 127.563 67.9828 127.813 67.7075C127.863 67.6574 127.913 67.5823 127.963 67.5323C128.314 67.2069 128.301 66.8689 128.001 66.4935C127.826 66.2682 127.625 66.093 127.438 65.8802C127.262 65.705 127.062 65.5297 126.899 65.342C126.674 65.0667 126.674 64.9415 126.937 64.6787C127.275 64.3157 127.638 63.9778 128.001 63.6399C128.176 63.4646 128.326 63.4646 128.501 63.6399C128.864 64.0279 129.29 64.3533 129.653 64.7663C129.841 65.0041 130.103 65.1918 130.354 65.3921C130.529 65.5172 130.692 65.6549 130.817 65.8301C131.092 66.2306 131.43 66.5686 131.818 66.8314C131.968 66.9565 132.106 67.0942 132.219 67.2569C132.444 67.5573 132.707 67.8452 133.02 68.0579C133.22 68.1831 133.383 68.3458 133.508 68.5461C133.583 68.6462 133.67 68.7338 133.733 68.8214ZM132.102 77.7041C132.002 77.8543 131.877 78.0045 131.727 78.0796C131.201 78.3799 130.826 78.8555 130.45 79.3061C130.35 79.4313 130.25 79.5314 130.125 79.6315C129.737 79.9694 129.387 80.3449 129.011 80.6954C128.911 80.7955 128.811 80.8956 128.698 80.9582C128.648 80.9832 128.535 80.9957 128.485 80.9457C128.335 80.8205 128.185 80.6954 128.072 80.5327C127.847 80.2072 127.572 79.9319 127.234 79.7191C127.146 79.6566 127.059 79.5689 126.971 79.4813C126.821 79.3061 126.796 79.1309 126.971 78.9557C127.146 78.7304 127.371 78.5301 127.584 78.3174C128.022 77.8793 128.473 77.4287 128.923 76.9782C129.349 76.5526 129.787 76.1146 130.213 75.689C130.213 75.689 132.127 73.7992 133.054 72.8229C133.404 72.4475 133.78 72.072 134.18 71.7215C134.443 71.4837 134.681 71.2209 134.931 70.9706C135.006 70.8955 135.069 70.8329 135.144 70.7578C135.319 70.6076 135.494 70.5826 135.682 70.7203C135.845 70.8329 136.007 70.9456 136.12 71.1083C136.358 71.4712 136.646 71.8092 136.946 72.1095C136.996 72.1596 137.021 72.2097 137.046 72.2597C137.121 72.3849 137.134 72.5226 137.034 72.6477C136.934 72.7478 136.833 72.848 136.746 72.9606C136.308 73.4237 135.907 73.9243 135.382 74.3248C135.094 74.5626 134.868 74.863 134.631 75.1509C134.293 75.5389 133.93 75.9018 133.542 76.2397C133.016 76.6903 132.49 77.1409 132.102 77.7041ZM139.217 86.4208C138.541 87.0465 137.94 87.7224 137.302 88.3607C137.19 88.4733 137.064 88.5735 136.939 88.6736C136.701 88.8363 136.514 88.8238 136.313 88.6235C136.226 88.5359 136.138 88.4483 136.063 88.3732C135.838 88.1479 135.625 87.9101 135.337 87.7725C135.212 87.6974 135.124 87.5847 135.024 87.4846C134.824 87.3094 134.774 87.0591 134.812 86.7962C134.824 86.7086 134.849 86.6335 134.874 86.5584C135.099 85.9827 135.262 85.3945 135.55 84.8563C135.738 84.5183 135.888 84.1429 135.988 83.7674C136.051 83.5296 136.163 83.2918 136.276 83.054C136.426 82.6535 136.601 82.253 136.751 81.8525C136.789 81.7649 136.814 81.6898 136.827 81.6272C136.852 81.477 136.877 81.3519 136.776 81.2267C136.689 81.1391 136.526 81.1516 136.338 81.2642C135.888 81.5146 135.537 81.84 135.25 82.253C135.112 82.4658 134.924 82.6535 134.761 82.8412C134.486 83.1166 134.211 83.3919 133.973 83.7299C133.71 84.0928 133.322 84.3556 132.947 84.606C132.734 84.7687 132.509 84.7436 132.296 84.5809C132.058 84.3932 131.808 84.243 131.595 84.0302C131.332 83.7674 131.119 83.4545 130.894 83.1541C130.857 83.0915 130.882 82.9664 130.919 82.8788C130.957 82.7912 131.032 82.7161 131.094 82.6535C131.457 82.2905 131.883 81.9902 132.146 81.5271C132.171 81.477 132.221 81.452 132.283 81.4144C132.997 80.9013 133.623 80.2755 134.136 79.5371C134.248 79.3994 134.373 79.2742 134.511 79.1616C135.149 78.6985 135.688 78.1103 136.201 77.522C136.589 77.0589 136.989 76.5833 137.49 76.2329C137.69 76.1077 137.853 75.92 138.016 75.7573C138.266 75.532 138.491 75.2817 138.729 75.0439C138.804 74.9688 138.867 74.9062 138.942 74.8311C139.192 74.6309 139.392 74.6058 139.643 74.8061C140.068 75.1565 140.469 75.532 140.807 75.9701C140.982 76.2204 141.019 76.4832 140.944 76.7586C140.832 77.2216 140.719 77.6847 140.594 78.1353C140.506 78.4232 140.406 78.6985 140.268 78.9613C140.093 79.3118 139.943 79.6873 139.88 80.0752C139.805 80.4507 139.605 80.7761 139.467 81.1141C139.38 81.3268 139.28 81.502 139.28 81.7273C139.28 81.8775 139.317 81.9902 139.43 82.0277C139.53 82.0778 139.618 82.0402 139.705 81.9776C139.83 81.8775 139.943 81.7649 140.043 81.6647C140.531 81.1766 141.032 80.676 141.52 80.1879C141.808 79.9 142.083 79.5996 142.446 79.3618C142.659 79.1991 142.834 78.9739 143.022 78.7861C143.097 78.711 143.16 78.6484 143.247 78.5859C143.335 78.5233 143.435 78.5233 143.51 78.5984C143.635 78.6985 143.748 78.8111 143.86 78.9238C144.198 79.2867 144.536 79.6497 144.924 79.9376C145.012 80.0001 145.087 80.1253 145.112 80.2254C145.15 80.313 145.125 80.4132 145.087 80.5008C145.062 80.5759 144.999 80.6385 144.949 80.6885C144.474 81.1641 143.998 81.6397 143.523 82.1153C143.297 82.3156 143.097 82.5158 142.884 82.7286C142.271 83.3419 141.658 83.9551 141.057 84.5809C141.044 84.5684 139.843 85.82 139.217 86.4208ZM83.6996 59.1252C83.6245 59.2253 83.5244 59.3004 83.4493 59.3755C83.3366 59.4631 83.1739 59.4756 83.0613 59.388C82.7234 59.1502 82.3854 58.8874 82.1351 58.6871C81.9599 58.4869 81.8347 58.3617 81.7221 58.224C81.5344 58.0113 81.4843 57.7609 81.647 57.5231C82.1226 56.7722 82.4981 55.9712 83.0988 55.2953C83.199 55.1702 83.2866 55.0575 83.3742 54.9199C83.612 54.5068 83.8247 54.0938 84.05 53.6683C84.0876 53.6307 84.1251 53.5682 84.1251 53.5181C84.1251 53.443 84.1376 53.3554 84.1001 53.2928C84.0375 53.2052 83.9249 53.1927 83.8247 53.2427C83.4117 53.4555 82.9486 53.6182 82.5857 53.9061C82.2603 54.1814 81.9098 54.3817 81.5594 54.607C81.0838 54.8823 80.6207 55.1952 80.1576 55.4831C79.9949 55.5957 79.8197 55.6958 79.657 55.7834C79.4943 55.8711 79.3316 55.8585 79.2189 55.7209C78.7559 55.2578 78.2552 54.8322 77.9048 54.2816C77.7921 54.1188 77.7546 53.9561 77.8297 53.7809C77.8923 53.6182 77.9674 53.443 78.055 53.3053C78.3804 52.8297 78.7058 52.3541 79.0562 51.9036C79.5443 51.2903 79.8698 50.5644 80.2703 49.8885C80.3454 49.7884 80.3704 49.6382 80.4079 49.5005C80.433 49.3754 80.2828 49.2502 80.1326 49.2752C80.0575 49.3003 79.9824 49.3253 79.9198 49.3628C79.682 49.5506 79.4567 49.7258 79.2189 49.9135C79.0187 50.0637 78.8059 50.2264 78.5931 50.3641C77.9924 50.7146 77.4292 51.1526 76.8409 51.5656C76.5906 51.7408 76.3153 51.891 76.0524 52.0537C75.9023 52.1288 75.7646 52.1163 75.6645 52.0162C75.1763 51.5781 74.6507 51.1776 74.2877 50.6395C74.2502 50.6019 74.2001 50.5518 74.1876 50.4893C74.1751 50.4267 74.1751 50.3266 74.2251 50.2765C74.3628 50.1138 74.5255 49.9761 74.7007 49.851C75.0261 49.6257 75.3516 49.4004 75.6895 49.1876C75.8021 49.1 75.9398 49.0124 76.0524 48.8998C76.4279 48.5243 76.8785 48.2239 77.3541 47.9986C77.717 47.8109 78.0425 47.6106 78.3303 47.3228C78.5556 47.0975 78.8309 46.9473 79.1063 46.7971C79.3441 46.6344 79.6194 46.5092 79.8698 46.3591C80.0074 46.2714 80.1451 46.1838 80.2452 46.0837C80.7459 45.6331 81.284 45.2452 81.8723 44.9072C82.5607 44.4942 83.224 44.0311 83.8998 43.5806C84.1502 43.4304 84.2753 43.4304 84.4881 43.6181C84.7634 43.8684 85.0263 44.1312 85.3016 44.4066C85.5019 44.6068 85.6896 44.8446 85.9024 45.0574C85.9524 45.1325 86.04 45.1951 86.0901 45.2702C86.3029 45.533 86.3279 45.8084 86.1652 46.0962C86.1277 46.1588 86.0901 46.1964 86.0651 46.2464C85.6521 46.7846 85.3392 47.3728 84.9387 47.8985C84.6383 48.274 84.3754 48.662 84.1001 49.0374C84.05 49.0875 84.0375 49.1501 84.0125 49.2001C83.9875 49.3003 84 49.4129 84.0751 49.463C84.1376 49.5005 84.2378 49.5506 84.3003 49.513C84.5131 49.4254 84.7259 49.3378 84.9387 49.2252C85.1514 49.0875 85.3642 48.9498 85.5644 48.7746C85.8523 48.5368 86.1652 48.3491 86.5156 48.1738C86.8786 47.9861 87.2666 47.8234 87.5545 47.5105C87.6045 47.4604 87.6796 47.4354 87.7547 47.3854C87.9174 47.2727 88.0926 47.2977 88.2428 47.4229C88.5307 47.6357 88.806 47.861 89.0814 48.0862C89.144 48.1238 89.2065 48.1864 89.2441 48.2489C89.5069 48.5368 89.7572 48.8372 90.0201 49.1501C90.1703 49.3253 90.1703 49.4254 90.0451 49.6257C89.557 50.3641 89.0563 51.09 88.5682 51.8285C88.3555 52.1664 88.1677 52.5043 87.9424 52.8297C87.8548 52.9674 87.7547 53.0926 87.6421 53.2052C87.3167 53.5306 87.0789 53.9186 86.8911 54.3316C86.7785 54.6195 86.6033 54.8698 86.403 55.1201C86.2278 55.3204 86.0651 55.5081 85.9399 55.7334C85.5519 56.3467 85.1139 56.9349 84.7634 57.5857C84.5507 57.9737 84.2878 58.3367 84 58.6996C83.8873 58.8373 83.7997 59 83.6996 59.1252ZM95.5985 61.5872C95.5359 61.6998 95.4358 61.7749 95.3607 61.85C94.7599 62.4507 94.1592 63.0515 93.5584 63.6523C93.3957 63.815 92.1566 64.8287 92.0065 64.9038C91.4432 65.2418 90.8425 65.417 90.1917 65.2918C89.7036 65.2042 89.228 65.1041 88.7524 64.9789C88.5646 64.9414 88.3644 64.8413 88.2267 64.7286C87.4632 64.0903 86.8124 63.3394 86.2993 62.5008C86.1365 62.263 86.0615 62.0127 86.0489 61.7248C86.0615 61.3619 86.0489 61.0239 86.0364 60.661C86.0239 60.0477 86.2492 59.497 86.5871 59.0089C86.8249 58.6459 87.1128 58.308 87.4006 57.9951C88.0515 57.2692 88.7899 56.6559 89.4407 55.93C89.5784 55.7673 89.7411 55.6296 89.9038 55.4669C89.9038 55.4669 91.3306 54.0652 92.044 53.3518C92.3068 53.0889 92.5572 52.8136 92.845 52.5508C93.0578 52.363 93.1955 52.3755 93.4207 52.5508C93.7962 52.8762 94.1717 53.2016 94.5221 53.527C94.6598 53.6647 94.81 53.8149 94.8976 53.9776C95.0228 54.1528 94.9727 54.4031 94.7975 54.5032C94.422 54.7285 94.1341 55.0664 93.8338 55.3668C93.5209 55.6797 93.1955 55.9551 92.9076 56.293C92.5071 56.7686 92.044 57.2066 91.5809 57.6197C91.218 57.9576 90.8675 58.308 90.5296 58.671C90.079 59.1466 89.641 59.6597 89.1904 60.1604C88.865 60.5108 88.7774 60.9489 88.9776 61.4245C89.228 62.0753 89.691 62.3882 90.3919 62.3631C91.1053 62.3256 91.631 61.9751 91.9939 61.3869C92.3819 60.7486 92.9577 60.298 93.5084 59.8224C93.8463 59.5346 94.2092 59.2717 94.447 58.8587C94.4971 58.7836 94.5722 58.7085 94.6348 58.6459C94.9477 58.3331 95.248 58.0327 95.5609 57.7198C95.6486 57.6322 95.7236 57.5571 95.8363 57.4945C96.0741 57.3568 96.2743 57.1816 96.412 56.9188C96.4621 56.8437 96.5247 56.7561 96.5872 56.6935C96.8626 56.4432 97.1504 56.4056 97.4508 56.6309C97.7137 56.8186 97.989 57.0189 98.2268 57.2567C98.4521 57.482 98.6273 57.7323 98.815 57.9951C98.9027 58.1078 98.8776 58.308 98.765 58.4207C98.5898 58.5959 98.4271 58.7586 98.2393 58.8963C97.7762 59.2592 97.3882 59.6722 97.0128 60.0978C96.9126 60.1979 96.8376 60.298 96.7249 60.3856C96.3119 60.7486 95.8864 61.099 95.5985 61.5872ZM99.9316 71.5524C99.7689 71.7902 99.5436 71.9404 99.2683 72.0405C98.655 72.2533 98.0167 72.416 97.3784 72.5286C97.0029 72.5787 96.6399 72.5411 96.2895 72.3659C96.0392 72.2407 95.7889 72.1406 95.5385 72.0155C95.3884 71.9404 95.2131 71.8402 95.113 71.7151C94.5873 71.1143 94.1117 70.4885 93.7989 69.7501C93.6236 69.3746 93.536 68.9866 93.5986 68.5486C93.6236 68.2482 93.5736 67.9478 93.5861 67.66C93.5986 67.4472 93.6361 67.2344 93.6862 67.0342C93.7238 66.8715 93.9115 66.7839 94.0617 66.8339C94.7125 66.9841 95.3508 67.1718 96.0141 67.3345C96.2394 67.3846 96.3521 67.5223 96.3521 67.7476C96.3646 67.9854 96.3771 68.2232 96.3646 68.461C96.3396 68.9616 96.5523 69.3246 96.9278 69.6249C96.9653 69.6375 96.9779 69.65 96.9904 69.6625C97.3909 69.9378 97.904 69.7501 97.9791 69.2495C98.0167 68.9366 97.9791 68.6237 97.9416 68.3108C97.9291 68.098 97.8415 67.8852 97.7664 67.685C97.4535 66.5461 97.2407 65.3821 97.2407 64.1806C97.2407 63.2794 97.6162 62.5535 98.267 61.9528C98.6049 61.6148 99.0179 61.377 99.4935 61.2769C99.894 61.2018 100.307 61.0892 100.708 61.0141C101.071 60.9515 101.421 61.0016 101.746 61.1517C101.934 61.2394 102.122 61.352 102.297 61.4772C102.66 61.74 102.998 62.0028 103.261 62.1906C103.624 62.5785 103.849 62.929 103.999 63.3045C104.187 63.7926 104.325 64.2807 104.5 64.7563C104.6 65.0567 104.6 65.3571 104.562 65.6449C104.525 66.0079 104.437 66.3708 104.35 66.7338C104.312 66.8965 104.187 66.9716 104.024 66.934C103.837 66.8965 103.649 66.8589 103.461 66.7713C103.086 66.5961 102.698 66.4584 102.285 66.3959C102.197 66.3833 102.097 66.3583 102.009 66.3208C101.809 66.2707 101.759 66.1706 101.784 65.9703C101.796 65.8076 101.847 65.6574 101.847 65.5072C101.872 65.0316 101.746 64.6061 101.446 64.2306C101.321 64.0804 101.171 63.9553 100.983 63.8927C100.783 63.7926 100.582 63.8176 100.407 63.9177C100.144 64.0804 99.9691 64.3057 99.9316 64.6186C99.9066 64.944 99.9191 65.2569 100.019 65.5573C100.132 65.8702 100.232 66.1956 100.345 66.5085C100.432 66.8214 100.532 67.1218 100.607 67.4222C100.72 67.8101 100.77 68.1856 100.77 68.5861C100.758 68.9491 100.783 69.2995 100.783 69.65C100.795 69.8127 100.77 69.9629 100.72 70.1131C100.545 70.6387 100.244 71.1143 99.9316 71.5524ZM104.486 74.1291C104.386 74.2792 104.26 74.4294 104.11 74.5045C103.585 74.8049 103.209 75.2805 102.834 75.7311C102.734 75.8562 102.633 75.9564 102.508 76.0565C102.12 76.3944 101.77 76.7699 101.394 77.1203C101.294 77.2205 101.194 77.3206 101.081 77.3832C101.031 77.4082 100.919 77.4207 100.869 77.3706C100.719 77.2455 100.568 77.1203 100.456 76.9576C100.23 76.6322 99.9551 76.3569 99.6171 76.1441C99.5295 76.0815 99.4419 75.9939 99.3543 75.9063C99.2041 75.7311 99.1791 75.5559 99.3543 75.3806C99.5295 75.1554 99.7548 74.9551 99.9676 74.7423C100.406 74.3043 100.856 73.8537 101.307 73.4031C101.732 72.9776 102.17 72.5395 102.596 72.114C102.596 72.114 104.511 70.2241 105.437 69.2479C105.787 68.8724 106.163 68.4969 106.563 68.1465C106.826 67.9087 107.064 67.6459 107.314 67.3956C107.389 67.3205 107.452 67.2579 107.527 67.1828C107.702 67.0326 107.878 67.0076 108.065 67.1452C108.228 67.2579 108.391 67.3705 108.503 67.5332C108.741 67.8962 109.029 68.2341 109.329 68.5345C109.379 68.5846 109.404 68.6346 109.43 68.6847C109.505 68.8098 109.517 68.9475 109.417 69.0727C109.317 69.1728 109.217 69.2729 109.129 69.3856C108.691 69.8487 108.291 70.3493 107.765 70.7498C107.477 70.9876 107.252 71.288 107.014 71.5758C106.676 71.9638 106.313 72.3268 105.925 72.6647C105.399 73.1153 104.874 73.5658 104.486 74.1291ZM116.119 78.703C116.081 78.8156 115.981 78.8407 115.868 78.8281C115.781 78.8156 115.681 78.7906 115.593 78.7531C115.067 78.5778 114.542 78.4026 114.016 78.2274C113.941 78.2024 113.866 78.1773 113.803 78.1398C113.666 78.0522 113.553 77.9395 113.565 77.7518C113.565 77.5015 113.553 77.2386 113.553 76.9883C113.59 76.3 113.177 75.912 112.614 75.6241C112.276 75.4614 111.901 75.4113 111.525 75.3863C111.325 75.3613 111.137 75.4239 110.95 75.4864C110.699 75.6116 110.449 75.7117 110.186 75.8244C109.698 76.0371 109.26 76.325 108.91 76.7255C108.321 77.2386 107.971 77.9145 107.721 78.6154C107.583 78.9783 107.52 79.3413 107.645 79.7168C107.721 79.9671 107.771 80.2174 107.858 80.4552C108.058 81.0059 108.434 81.3313 109.01 81.4314C109.135 81.4565 109.26 81.4565 109.36 81.4815C109.598 81.519 109.711 81.6317 109.748 81.8695C109.761 82.0072 109.773 82.1448 109.761 82.2825C109.748 82.5954 109.761 82.9083 109.823 83.2212C109.848 83.3964 109.848 83.5716 109.848 83.7469C109.861 83.9096 109.711 84.0597 109.56 84.0598C109.047 84.0723 108.534 84.1098 108.033 83.8845C107.645 83.6968 107.245 83.5716 106.869 83.3463C106.506 83.1336 106.219 82.8707 105.981 82.5579C105.731 82.2324 105.518 81.8695 105.292 81.519C105.155 81.3313 105.067 81.1185 105.067 80.8682C105.042 80.1173 105.042 79.3663 105.017 78.6154C104.992 78.1147 105.142 77.6391 105.38 77.2011C105.718 76.6379 106.056 76.0496 106.419 75.4864C106.844 74.8106 107.42 74.2849 108.146 73.9094C108.384 73.7718 108.634 73.6466 108.847 73.4839C109.085 73.2962 109.335 73.171 109.635 73.0959C109.761 73.0709 109.873 73.0584 109.986 72.9958C110.487 72.7204 111.037 72.7455 111.588 72.7705C112.239 72.8206 112.89 72.9207 113.528 73.0333C113.878 73.1084 114.154 73.2586 114.404 73.4839C114.704 73.7593 115.005 74.0096 115.305 74.2599C115.493 74.3976 115.58 74.5853 115.681 74.7855C115.843 75.0984 115.993 75.4239 116.131 75.7367C116.181 75.8869 116.231 76.0371 116.244 76.1998C116.319 76.5503 116.369 76.9007 116.381 77.2637C116.419 77.7518 116.306 78.2399 116.119 78.703ZM126.762 90.6479C126.574 90.8607 126.374 91.0359 126.124 91.1611C125.861 91.2737 125.623 91.4114 125.36 91.499C124.271 91.912 124.146 91.8369 123.182 91.6242C122.907 91.5741 122.644 91.4615 122.419 91.2862C122.006 90.9734 121.58 90.6479 121.155 90.3225C121.005 90.1974 120.905 90.0222 120.779 89.872C120.654 89.7218 120.542 89.5591 120.404 89.4214C120.179 89.1961 119.953 89.1711 119.703 89.3463C119.252 89.6967 118.777 89.9971 118.389 90.4352C118.351 90.4978 118.276 90.5478 118.176 90.6479C117.888 90.9608 117.525 91.2988 117.275 91.7243C117.087 92.0122 116.837 92.2374 116.537 92.4127C116.261 92.5629 116.174 92.5503 115.961 92.3626C115.823 92.25 115.698 92.1248 115.573 91.9996C115.322 91.7744 115.072 91.5491 114.822 91.3238C114.722 91.2487 114.647 91.1736 114.572 91.0735C114.421 90.8732 114.434 90.6855 114.609 90.4852C114.672 90.3976 114.759 90.31 114.847 90.2224C115.623 89.4464 116.399 88.6704 117.187 87.882C117.475 87.5691 117.826 87.2937 118.164 87.0309C118.639 86.6554 119.065 86.2048 119.44 85.7292C119.628 85.4664 119.853 85.2411 120.053 85.0158C120.466 84.6028 120.867 84.2023 121.267 83.8018C121.706 83.3637 122.131 82.9382 122.569 82.5002C122.607 82.4626 122.657 82.4125 122.694 82.375C122.857 82.2624 123.007 82.2373 123.195 82.3249C123.458 82.4626 123.671 82.6754 123.858 82.9132C124.421 83.6766 125.097 84.3525 125.798 84.9783C126.274 85.4038 126.662 85.8919 127 86.4301C127.1 86.6053 127.187 86.768 127.288 86.9433C127.588 87.4439 127.663 87.9696 127.575 88.5328C127.55 88.7581 127.513 88.9708 127.475 89.1836C127.388 89.7468 127.1 90.2099 126.762 90.6479ZM124.146 88.4577C124.209 88.3951 124.284 88.32 124.346 88.2574C124.697 87.882 124.709 87.4189 124.371 87.0309C124.146 86.7806 123.896 86.5553 123.658 86.3425C123.57 86.2549 123.458 86.1923 123.358 86.1423C123.182 86.0421 123.007 86.0421 122.857 86.1673C122.557 86.4426 122.281 86.743 121.981 87.0434C121.868 87.1811 121.856 87.3938 121.981 87.519C122.106 87.6692 122.256 87.8194 122.394 87.957C122.394 87.957 122.607 88.1948 122.719 88.2825C122.87 88.4076 123.032 88.5203 123.22 88.6079C123.558 88.7706 123.858 88.6955 124.146 88.4577ZM132.951 100.842C132.75 101.092 132.525 101.292 132.237 101.455C131.974 101.618 131.737 101.83 131.474 102.018C131.374 102.093 131.236 102.156 131.111 102.206C130.773 102.344 130.422 102.469 130.072 102.619C129.634 102.832 129.171 102.919 128.708 102.957C128.432 102.982 128.145 102.944 127.882 102.882C127.369 102.769 126.843 102.644 126.33 102.481C126.079 102.406 125.817 102.268 125.604 102.106C125.066 101.718 124.653 101.23 124.365 100.616C123.989 99.8404 123.864 99.0144 123.814 98.1633C123.751 97.4999 123.864 96.8616 124.177 96.2734C124.377 95.8729 124.565 95.4599 124.765 95.0594C124.978 94.6213 125.291 94.2584 125.591 93.9079C125.704 93.7702 125.829 93.6451 125.954 93.5199C126.255 93.1695 126.593 92.8816 126.993 92.6563C127.293 92.4811 127.581 92.3184 127.857 92.1432C128.145 91.9805 128.432 91.8678 128.745 91.8303C129.334 91.7427 129.922 91.63 130.51 91.5424C130.76 91.4924 131.011 91.5174 131.261 91.5675C131.962 91.7176 132.638 91.9429 133.251 92.3309C133.514 92.4936 133.739 92.6939 133.952 92.9567C134.39 93.545 134.715 94.1958 135.003 94.8591C135.166 95.2471 135.228 95.6601 135.141 96.0731C135.066 96.4987 135.016 96.9492 134.941 97.3748C134.891 97.575 134.828 97.7878 134.753 97.9881C134.665 98.2759 134.565 98.5513 134.478 98.8391C134.427 98.9893 134.365 99.127 134.265 99.2522C133.814 99.7778 133.401 100.316 132.951 100.842ZM131.536 98.326C131.887 98.0757 132.137 97.525 132.262 96.9242C132.312 96.724 132.35 96.5362 132.4 96.336C132.513 95.8979 132.412 95.4724 132.225 95.0844C131.974 94.5337 131.536 94.2208 130.961 94.1457C130.222 94.0581 129.534 94.1958 128.946 94.6589C128.595 94.9342 128.22 95.1845 127.857 95.4724C127.656 95.6226 127.456 95.7978 127.318 96.0106C127.106 96.2984 126.943 96.6364 126.755 96.9743C126.68 97.1245 126.63 97.2997 126.605 97.4749C126.543 97.7127 126.505 97.9755 126.455 98.2259C126.342 98.9393 126.643 99.565 127.281 99.903C127.706 100.128 128.132 100.228 128.608 100.128C128.77 100.091 128.946 100.066 129.121 100.041C129.371 99.9656 129.609 99.8779 129.822 99.7403C130.372 99.3398 130.885 98.9267 131.536 98.326ZM141.272 107.912C140.847 108.437 140.359 108.926 139.783 109.326C139.495 109.539 139.27 109.814 139.007 110.052C138.356 110.628 137.63 111.028 136.767 111.191C136.128 111.304 135.515 111.266 134.952 110.903C134.664 110.715 134.389 110.54 134.113 110.34C132.874 109.351 133.062 109.664 131.936 108.437C131.885 108.387 131.823 108.325 131.773 108.275C131.422 107.924 131.072 107.574 130.722 107.223C130.671 107.173 130.609 107.111 130.571 107.048C130.459 106.886 130.459 106.71 130.559 106.56C130.596 106.472 130.671 106.397 130.747 106.322C131.197 105.872 131.66 105.409 132.048 104.87C132.211 104.658 132.449 104.495 132.636 104.307C132.887 104.107 133.15 103.919 133.362 103.681C134.514 102.455 135.79 101.329 136.967 100.102C137.43 99.6389 137.868 99.1758 138.331 98.7127C138.419 98.6251 138.506 98.5375 138.581 98.4624C138.894 98.1745 139.019 98.1495 139.357 98.3873C139.458 98.4624 139.545 98.55 139.608 98.6376C140.158 99.2884 140.734 99.9142 141.347 100.502C141.723 100.853 142.086 101.216 142.461 101.566C142.974 102.029 143.237 102.643 143.463 103.268C143.5 103.381 143.513 103.519 143.5 103.631C143.45 104.132 143.413 104.645 143.35 105.158C143.325 105.309 143.262 105.471 143.175 105.584C142.924 105.984 142.687 106.397 142.349 106.735C141.961 107.098 141.598 107.486 141.272 107.912ZM137.242 107.511C137.968 106.785 138.694 106.059 139.407 105.321C139.658 105.071 139.883 104.795 140.083 104.495C140.309 104.195 140.384 103.819 140.158 103.494C139.908 103.093 139.57 102.755 139.107 102.568C138.982 102.518 138.844 102.53 138.719 102.605C138.519 102.755 138.294 102.905 138.118 103.081C137.58 103.594 137.055 104.145 136.529 104.67C136.516 104.658 135.44 105.709 134.914 106.235C134.839 106.31 134.777 106.372 134.702 106.447C134.539 106.66 134.539 106.886 134.714 107.086C135.027 107.474 135.415 107.787 135.903 107.924C136.341 108.037 136.717 107.937 137.067 107.661C137.13 107.624 137.192 107.561 137.242 107.511Z" fill="white"/>
</svg>
