<svg width="176" height="176" viewBox="0 0 176 176" fill="none" xmlns="http://www.w3.org/2000/svg">
<g clip-path="url(#clip0_2006_4902)">
<path d="M176 0H0L176 176V0Z" fill="#312922"/>
<path d="M123.704 36.8192C123.442 37.1571 123.116 37.4575 122.816 37.7579C122.716 37.858 122.565 37.858 122.44 37.7579C122.34 37.6828 122.265 37.6077 122.19 37.5076C121.802 37.1196 121.426 36.6941 120.976 36.3937C120.901 36.3436 120.851 36.2936 120.801 36.2185C120.713 36.1309 120.701 36.0182 120.751 35.8931C120.876 35.6177 121.076 35.3924 121.326 35.2172C121.852 34.8668 122.303 34.4162 122.716 33.9531C123.141 33.5025 123.529 33.0395 123.93 32.5638C124.08 32.4137 124.092 32.2259 123.992 32.0257C123.717 31.4499 123.316 30.9743 122.816 30.5738C122.59 30.3736 122.315 30.3736 122.052 30.5363C121.464 30.8742 120.976 31.3373 120.588 31.9005C120.488 32.0507 120.35 32.2134 120.212 32.3511C119.849 32.714 119.474 33.0645 119.111 33.4274C119.011 33.5025 118.911 33.6027 118.786 33.6778C118.498 33.8655 118.41 33.853 118.172 33.6152C117.985 33.4525 117.797 33.2647 117.622 33.0895L117.647 33.0645C117.421 32.8392 117.184 32.6264 116.971 32.3886C116.758 32.1508 116.758 31.9756 116.946 31.7128C116.971 31.6627 116.996 31.6377 117.021 31.6126C117.409 31.1746 117.797 30.7115 118.197 30.286C118.398 30.0607 118.623 29.8855 118.861 29.6977C119.487 29.1971 120.062 28.6214 120.55 27.9831C120.776 27.6827 121.013 27.4449 121.301 27.2321C121.802 26.8817 122.227 26.4311 122.641 25.968C122.903 25.6551 123.191 25.3673 123.517 25.0919C123.855 24.779 124.192 24.4411 124.53 24.1032C124.693 23.9655 124.868 23.8403 125.031 23.7027C125.206 23.5274 125.394 23.59 125.569 23.6902C125.669 23.7652 125.757 23.8529 125.832 23.928C126.12 24.1658 126.408 24.4036 126.696 24.6664C126.783 24.729 126.883 24.8041 126.946 24.8917C127.121 25.117 127.121 25.2421 126.971 25.4924C126.821 25.7427 126.621 25.968 126.37 26.1432C126.045 26.3685 125.769 26.6439 125.494 26.9192C125.181 27.2321 124.881 27.5325 124.568 27.8454C124.468 27.9455 124.368 28.0456 124.293 28.1458C124.167 28.321 124.155 28.5338 124.28 28.709C124.53 29.0845 124.806 29.4349 125.194 29.6977C125.406 29.8354 125.607 30.0106 125.82 30.1483C126.182 30.3861 126.295 30.3736 126.583 30.0857C126.721 29.9731 126.833 29.8354 126.971 29.6977C127.259 29.4099 127.547 29.122 127.885 28.8842C128.223 28.6214 128.51 28.2834 128.823 27.9706C128.923 27.8704 128.999 27.7703 129.111 27.6827C129.274 27.545 129.424 27.545 129.587 27.6827C129.737 27.8078 129.875 27.9455 130.025 28.0707C130.162 28.1833 130.3 28.296 130.438 28.4086C130.613 28.5588 130.801 28.7215 130.951 28.8967C131.189 29.1345 131.189 29.3097 130.976 29.5726C130.913 29.6602 130.851 29.7228 130.763 29.7853C130.438 29.9856 130.188 30.2609 129.925 30.5238C129.524 30.9243 129.086 31.3123 128.723 31.7503C128.298 32.301 127.797 32.7766 127.309 33.2647C127.146 33.4274 126.958 33.5651 126.783 33.7153C126.621 33.853 126.47 33.9781 126.333 34.1158C125.87 34.6039 125.356 35.042 124.981 35.5927C124.906 35.6928 124.806 35.7679 124.718 35.8305C124.318 36.1058 124.005 36.4437 123.704 36.8192ZM129.934 38.4931C129.834 38.6433 129.709 38.7935 129.559 38.8686C129.033 39.169 128.657 39.6446 128.282 40.0951C128.182 40.2203 128.082 40.3204 127.956 40.4205C127.569 40.7585 127.218 41.1339 126.843 41.4844C126.742 41.5845 126.642 41.6846 126.53 41.7472C126.48 41.7722 126.367 41.7848 126.317 41.7347C126.167 41.6095 126.017 41.4844 125.904 41.3217C125.679 40.9963 125.403 40.7209 125.065 40.5081C124.978 40.4456 124.89 40.358 124.803 40.2703C124.652 40.0951 124.627 39.9199 124.803 39.7447C124.978 39.5194 125.203 39.3191 125.416 39.1064C125.854 38.6683 126.304 38.2178 126.755 37.7672C127.181 37.3417 127.619 36.9036 128.044 36.4781C128.044 36.4781 129.959 34.5882 130.885 33.6119C131.236 33.2365 131.611 32.861 132.012 32.5106C132.274 32.2728 132.512 32.0099 132.763 31.7596C132.838 31.6845 132.9 31.6219 132.975 31.5468C133.151 31.3967 133.326 31.3716 133.514 31.5093C133.676 31.6219 133.839 31.7346 133.952 31.8973C134.189 32.2602 134.477 32.5982 134.778 32.8985C134.828 32.9486 134.853 32.9987 134.878 33.0487C134.953 33.1739 134.965 33.3116 134.865 33.4367C134.765 33.5369 134.665 33.637 134.577 33.7496C134.139 34.2127 133.739 34.7133 133.213 35.1138C132.925 35.3516 132.7 35.652 132.462 35.9399C132.124 36.3279 131.761 36.6908 131.373 37.0288C130.848 37.4793 130.322 37.9299 129.934 38.4931ZM135.422 50.3137C135.397 50.4388 135.234 50.4764 135.134 50.4013C135.109 50.3763 135.071 50.3387 135.046 50.3137C134.596 49.8381 134.157 49.375 133.619 48.987C133.344 48.7868 133.281 48.5239 133.382 48.1985C133.419 48.0608 133.444 47.9357 133.494 47.8105C133.619 47.4601 133.707 47.1222 133.719 46.7592C133.719 46.634 133.744 46.4839 133.795 46.3587C133.882 46.0458 133.945 45.7079 133.995 45.3825C134.032 45.1447 134.12 44.9319 134.208 44.6941C134.395 44.206 134.483 43.6678 134.558 43.1421C134.583 43.017 134.583 42.8668 134.571 42.7291C134.545 42.3536 134.132 42.1659 133.832 42.3912C133.795 42.4037 133.769 42.4287 133.744 42.4538C133.144 43.1046 132.38 43.5927 131.792 44.256C131.642 44.4313 131.479 44.619 131.341 44.8067C131.191 45.032 130.978 45.2198 130.766 45.3825C130.578 45.5452 130.34 45.5827 130.115 45.3825C130.002 45.2949 129.852 45.2198 129.752 45.0946C129.489 44.7316 129.151 44.4187 128.826 44.0933C128.788 44.0558 128.751 44.0182 128.701 43.9682C128.651 43.8931 128.651 43.7679 128.701 43.6928C128.801 43.5927 128.901 43.4926 129.001 43.3925C129.652 42.8167 130.253 42.1909 130.803 41.5151C131.266 40.9519 131.83 40.4387 132.355 39.9131C133.169 39.3749 133.719 38.5989 134.42 37.9731C134.508 37.8855 134.596 37.7979 134.646 37.6978C134.771 37.4975 134.933 37.3849 135.109 37.2347C135.547 36.8717 135.972 36.4963 136.298 36.0207C136.46 35.7829 136.686 35.5826 136.911 35.3823C137.074 35.2196 137.249 35.2447 137.424 35.4199C138.025 36.0207 138.626 36.6214 139.226 37.2222C139.214 37.2347 140.29 38.3361 140.841 38.8617C141.141 39.1621 141.367 39.5126 141.504 39.9005C141.629 40.2009 141.742 40.4888 141.83 40.8017C141.967 41.2397 141.942 41.6903 141.792 42.1409C141.667 42.4663 141.542 42.7917 141.404 43.1296C141.342 43.2673 141.241 43.3925 141.129 43.5051C140.803 43.8305 140.465 44.1184 140.04 44.3186C139.865 44.3937 139.677 44.4563 139.502 44.5564C139.039 44.8193 138.525 44.8568 138.012 44.7692C137.787 44.7191 137.549 44.6565 137.324 44.6065C136.848 44.5064 136.661 44.594 136.535 45.0696C136.448 45.3825 136.373 45.7329 136.348 46.0583C136.298 46.609 136.185 47.1472 135.972 47.6603C135.872 47.8606 135.847 48.1109 135.835 48.3487C135.822 49.0371 135.597 49.6629 135.422 50.3137ZM138.25 41.5026C138.45 41.3524 138.613 41.1646 138.788 40.9644C138.951 40.8017 138.964 40.5889 138.863 40.3636C138.813 40.2385 138.751 40.1258 138.663 40.0132C138.551 39.8755 138.413 39.7629 138.288 39.6377C138.163 39.5126 138.037 39.3874 137.912 39.2622C137.875 39.2247 137.812 39.1871 137.775 39.1496C137.449 38.9493 137.149 38.9744 136.861 39.2122C136.598 39.4249 136.448 39.7003 136.285 39.9631C136.185 40.1133 136.185 40.3136 136.285 40.4638C136.548 40.9268 136.886 41.3399 137.374 41.6027C137.674 41.7529 137.975 41.7279 138.25 41.5026ZM144.002 56.0406C144.027 56.1157 144.027 56.1908 144.015 56.2784C144.015 56.3035 143.977 56.341 143.952 56.366C143.564 56.754 143.164 57.1545 142.763 57.53C142.563 57.7303 142.363 57.7303 142.137 57.555C142.087 57.53 142.037 57.48 142 57.4424C141.499 56.9418 140.998 56.4411 140.485 55.928C140.272 55.7403 140.072 55.515 139.859 55.3022C139.584 55.0269 139.284 54.7765 139.083 54.4261C139.021 54.3385 138.946 54.2634 138.883 54.2008C138.57 53.938 138.232 53.6752 137.957 53.3748C137.682 53.0494 137.431 52.724 137.106 52.4736C136.981 52.3735 136.881 52.2484 136.818 52.1107C136.73 51.948 136.755 51.7978 136.843 51.6601C136.843 51.6351 136.856 51.6226 136.868 51.61C137.306 51.1219 137.657 50.5712 138.157 50.1457C138.37 49.983 138.608 49.8203 138.796 49.6326C139.334 49.1444 139.872 48.6313 140.385 48.1181C140.923 47.58 141.449 47.0042 141.987 46.4661C142.475 45.9779 143.001 45.5023 143.489 45.0142C143.94 44.5386 144.403 44.0505 144.866 43.5624C145.154 43.2745 145.379 43.2495 145.604 43.5499C146.08 44.2007 146.681 44.7013 147.219 45.2896C147.419 45.4898 147.594 45.6901 147.794 45.8903C148.095 46.1657 148.383 46.4786 148.708 46.7289C149.296 47.1669 149.772 47.7176 150.298 48.2433C150.485 48.431 150.623 48.6688 150.786 48.9066C150.873 49.0443 150.873 49.1945 150.786 49.3572C150.51 49.8078 150.147 50.1958 149.759 50.5587C149.709 50.5838 149.659 50.6338 149.597 50.6463C149.497 50.6964 149.371 50.7214 149.259 50.6338C149.146 50.5462 149.059 50.4586 148.946 50.371C148.746 50.1958 148.558 50.0331 148.37 49.8704C148.182 49.6826 147.995 49.5199 147.832 49.3071C147.557 48.9567 147.231 48.6313 146.868 48.3685C146.555 48.1307 146.28 47.8303 145.992 47.5674C145.854 47.4548 145.742 47.3171 145.592 47.217C145.404 47.0793 145.216 47.0918 145.041 47.242C144.753 47.5049 144.465 47.7677 144.277 48.1307C144.19 48.2934 144.19 48.4686 144.29 48.6438C144.378 48.7564 144.453 48.9066 144.565 49.0193C144.778 49.232 144.991 49.4448 145.216 49.62C145.679 49.958 146.092 50.371 146.48 50.784C146.681 50.9843 146.856 51.2346 147.018 51.4724C147.144 51.6476 147.119 51.7978 146.981 51.9605C146.968 51.973 146.956 51.9855 146.943 51.998C146.593 52.3485 146.242 52.6989 145.892 53.0494C145.729 53.2121 145.529 53.2121 145.366 53.0744C145.254 52.9868 145.154 52.8867 145.053 52.7865C144.891 52.6489 144.741 52.4987 144.565 52.3735C143.977 51.9355 143.464 51.4223 143.013 50.8216C142.876 50.6588 142.726 50.5087 142.55 50.3835C142.338 50.2208 142.087 50.2208 141.887 50.396C141.411 50.8466 140.898 51.2846 140.535 51.8729C140.423 52.0356 140.398 52.1858 140.523 52.361C140.673 52.5863 140.823 52.8116 141.023 53.0118C141.474 53.4874 142.413 54.376 142.413 54.376C142.913 54.8767 143.414 55.4023 143.902 55.9155C143.94 55.953 144.002 55.9906 144.002 56.0406ZM96.2533 34.6361C96.1782 34.7363 96.0781 34.8113 96.003 34.8864C95.8903 34.9741 95.7276 34.9866 95.615 34.899C95.277 34.6612 94.9391 34.3983 94.6888 34.1981C94.5136 33.9978 94.3884 33.8727 94.2758 33.735C94.088 33.5222 94.038 33.2719 94.2007 33.0341C94.6763 32.2832 95.0518 31.4821 95.6525 30.8063C95.7526 30.6811 95.8403 30.5685 95.9279 30.4308C96.1657 30.0178 96.3784 29.6048 96.6037 29.1792C96.6413 29.1417 96.6788 29.0791 96.6788 29.0291C96.6788 28.954 96.6913 28.8663 96.6538 28.8038C96.5912 28.7162 96.4786 28.7036 96.3784 28.7537C95.9654 28.9665 95.5023 29.1292 95.1394 29.417C94.814 29.6924 94.4635 29.8926 94.1131 30.1179C93.6375 30.3933 93.1744 30.7062 92.7113 30.994C92.5486 31.1067 92.3734 31.2068 92.2107 31.2944C92.048 31.382 91.8853 31.3695 91.7726 31.2318C91.3095 30.7687 90.8089 30.3432 90.4585 29.7925C90.3458 29.6298 90.3083 29.4671 90.3834 29.2919C90.446 29.1292 90.521 28.954 90.6087 28.8163C90.9341 28.3407 91.2595 27.8651 91.6099 27.4145C92.098 26.8012 92.4234 26.0753 92.824 25.3995C92.899 25.2993 92.9241 25.1492 92.9616 25.0115C92.9867 24.8863 92.8365 24.7612 92.6863 24.7862C92.6112 24.8112 92.5361 24.8363 92.4735 24.8738C92.2357 25.0615 92.0104 25.2368 91.7726 25.4245C91.5724 25.5747 91.3596 25.7374 91.1468 25.8751C90.5461 26.2255 89.9829 26.6636 89.3946 27.0766C89.1443 27.2518 88.869 27.402 88.6061 27.5647C88.4559 27.6398 88.3183 27.6273 88.2181 27.5272C87.73 27.0891 87.2044 26.6886 86.8414 26.1504C86.8039 26.1129 86.7538 26.0628 86.7413 26.0002C86.7288 25.9377 86.7288 25.8375 86.7788 25.7875C86.9165 25.6248 87.0792 25.4871 87.2544 25.3619C87.5798 25.1366 87.9052 24.9114 88.2432 24.6986C88.3558 24.611 88.4935 24.5234 88.6061 24.4107C88.9816 24.0353 89.4322 23.7349 89.9078 23.5096C90.2707 23.3219 90.5961 23.1216 90.884 22.8337C91.1093 22.6085 91.3846 22.4583 91.66 22.3081C91.8978 22.1454 92.1731 22.0202 92.4234 21.87C92.5611 21.7824 92.6988 21.6948 92.7989 21.5947C93.2996 21.1441 93.8377 20.7561 94.426 20.4182C95.1143 20.0052 95.7777 19.5421 96.4535 19.0915C96.7038 18.9413 96.829 18.9413 97.0418 19.1291C97.3171 19.3794 97.58 19.6422 97.8553 19.9176C98.0556 20.1178 98.2433 20.3556 98.4561 20.5684C98.5061 20.6435 98.5937 20.7061 98.6438 20.7811C98.8566 21.044 98.8816 21.3193 98.7189 21.6072C98.6813 21.6698 98.6438 21.7073 98.6188 21.7574C98.2057 22.2956 97.8928 22.8838 97.4923 23.4095C97.192 23.7849 96.9291 24.1729 96.6538 24.5484C96.6037 24.5985 96.5912 24.661 96.5662 24.7111C96.5411 24.8112 96.5537 24.9239 96.6288 24.9739C96.6913 25.0115 96.7915 25.0615 96.854 25.024C97.0668 24.9364 97.2796 24.8488 97.4923 24.7361C97.7051 24.5985 97.9179 24.4608 98.1181 24.2856C98.406 24.0478 98.7189 23.86 99.0693 23.6848C99.4323 23.4971 99.8203 23.3344 100.108 23.0215C100.158 22.9714 100.233 22.9464 100.308 22.8963C100.471 22.7837 100.646 22.8087 100.796 22.9339C101.084 23.1466 101.36 23.3719 101.635 23.5972C101.697 23.6347 101.76 23.6973 101.798 23.7599C102.06 24.0478 102.311 24.3481 102.574 24.661C102.724 24.8363 102.724 24.9364 102.599 25.1366C102.11 25.8751 101.61 26.601 101.122 27.3394C100.909 27.6773 100.721 28.0153 100.496 28.3407C100.408 28.4784 100.308 28.6035 100.196 28.7162C99.8703 29.0416 99.6325 29.4296 99.4448 29.8426C99.3322 30.1304 99.1569 30.3808 98.9567 30.6311C98.7815 30.8313 98.6188 31.0191 98.4936 31.2443C98.1056 31.8576 97.6676 32.4459 97.3171 33.0967C97.1044 33.4847 96.8415 33.8476 96.5537 34.2106C96.441 34.3483 96.3534 34.511 96.2533 34.6361ZM108.152 37.0981C108.089 37.2108 107.989 37.2859 107.914 37.361C107.313 37.9617 106.713 38.5625 106.112 39.1632C105.949 39.3259 104.71 40.3397 104.56 40.4148C103.997 40.7527 103.396 40.928 102.745 40.8028C102.257 40.7152 101.781 40.6151 101.306 40.4899C101.118 40.4524 100.918 40.3522 100.78 40.2396C100.017 39.6013 99.3661 38.8503 98.8529 38.0118C98.6902 37.774 98.6151 37.5237 98.6026 37.2358C98.6151 36.8728 98.6026 36.5349 98.5901 36.172C98.5776 35.5587 98.8029 35.008 99.1408 34.5199C99.3786 34.1569 99.6665 33.819 99.9543 33.5061C100.605 32.7802 101.343 32.1669 101.994 31.441C102.132 31.2783 102.295 31.1406 102.457 30.9779C102.457 30.9779 103.884 29.5761 104.597 28.8627C104.86 28.5999 105.111 28.3246 105.399 28.0617C105.611 27.874 105.749 27.8865 105.974 28.0617C106.35 28.3871 106.725 28.7125 107.076 29.038C107.213 29.1756 107.363 29.3258 107.451 29.4885C107.576 29.6637 107.526 29.9141 107.351 30.0142C106.975 30.2395 106.688 30.5774 106.387 30.8778C106.074 31.1907 105.749 31.466 105.461 31.8039C105.061 32.2795 104.597 32.7176 104.134 33.1306C103.771 33.4685 103.421 33.819 103.083 34.1819C102.633 34.6575 102.194 35.1707 101.744 35.6713C101.418 36.0218 101.331 36.4598 101.531 36.9354C101.781 37.5862 102.245 37.8991 102.945 37.8741C103.659 37.8366 104.184 37.4861 104.547 36.8979C104.935 36.2596 105.511 35.809 106.062 35.3334C106.4 35.0455 106.763 34.7827 107.001 34.3697C107.051 34.2946 107.126 34.2195 107.188 34.1569C107.501 33.844 107.802 33.5436 108.114 33.2307C108.202 33.1431 108.277 33.068 108.39 33.0055C108.628 32.8678 108.828 32.6926 108.966 32.4297C109.016 32.3546 109.078 32.267 109.141 32.2044C109.416 31.9541 109.704 31.9166 110.004 32.1419C110.267 32.3296 110.542 32.5299 110.78 32.7677C111.006 32.9929 111.181 33.2433 111.369 33.5061C111.456 33.6187 111.431 33.819 111.318 33.9316C111.143 34.1068 110.981 34.2696 110.793 34.4072C110.33 34.7702 109.942 35.1832 109.566 35.6087C109.466 35.7089 109.391 35.809 109.278 35.8966C108.865 36.2596 108.44 36.61 108.152 37.0981ZM112.485 47.0633C112.322 47.3011 112.097 47.4513 111.822 47.5514C111.208 47.7642 110.57 47.9269 109.932 48.0396C109.556 48.0896 109.193 48.0521 108.843 47.8769C108.593 47.7517 108.342 47.6516 108.092 47.5264C107.942 47.4513 107.767 47.3512 107.667 47.226C107.141 46.6253 106.665 45.9995 106.352 45.2611C106.177 44.8856 106.09 44.4976 106.152 44.0595C106.177 43.7592 106.127 43.4588 106.14 43.1709C106.152 42.9581 106.19 42.7454 106.24 42.5451C106.277 42.3824 106.465 42.2948 106.615 42.3449C107.266 42.4951 107.904 42.6828 108.568 42.8455C108.793 42.8956 108.906 43.0332 108.906 43.2585C108.918 43.4963 108.931 43.7341 108.918 43.9719C108.893 44.4726 109.106 44.8355 109.481 45.1359C109.519 45.1484 109.531 45.1609 109.544 45.1734C109.944 45.4488 110.458 45.2611 110.533 44.7604C110.57 44.4475 110.533 44.1346 110.495 43.8217C110.483 43.609 110.395 43.3962 110.32 43.1959C110.007 42.057 109.794 40.893 109.794 39.6915C109.794 38.7904 110.17 38.0645 110.82 37.4637C111.158 37.1258 111.571 36.888 112.047 36.7879C112.448 36.7128 112.861 36.6001 113.261 36.525C113.624 36.4625 113.974 36.5125 114.3 36.6627C114.488 36.7503 114.675 36.863 114.851 36.9881C115.214 37.2509 115.551 37.5138 115.814 37.7015C116.177 38.0895 116.403 38.4399 116.553 38.8154C116.74 39.3035 116.878 39.7917 117.053 40.2673C117.153 40.5676 117.153 40.868 117.116 41.1559C117.078 41.5188 116.991 41.8818 116.903 42.2447C116.866 42.4075 116.74 42.4825 116.578 42.445C116.39 42.4075 116.202 42.3699 116.015 42.2823C115.639 42.1071 115.251 41.9694 114.838 41.9068C114.75 41.8943 114.65 41.8693 114.563 41.8317C114.362 41.7817 114.312 41.6815 114.337 41.4813C114.35 41.3186 114.4 41.1684 114.4 41.0182C114.425 40.5426 114.3 40.1171 113.999 39.7416C113.874 39.5914 113.724 39.4662 113.536 39.4037C113.336 39.3035 113.136 39.3286 112.961 39.4287C112.698 39.5914 112.523 39.8167 112.485 40.1296C112.46 40.455 112.473 40.7679 112.573 41.0683C112.685 41.3812 112.785 41.7066 112.898 42.0195C112.986 42.3324 113.086 42.6327 113.161 42.9331C113.274 43.3211 113.324 43.6966 113.324 44.0971C113.311 44.46 113.336 44.8105 113.336 45.1609C113.349 45.3236 113.324 45.4738 113.274 45.624C113.098 46.1497 112.798 46.6253 112.485 47.0633ZM117.039 49.64C116.939 49.7902 116.814 49.9404 116.664 50.0155C116.138 50.3159 115.763 50.7915 115.387 51.242C115.287 51.3672 115.187 51.4673 115.062 51.5674C114.674 51.9054 114.323 52.2808 113.948 52.6313C113.848 52.7314 113.748 52.8315 113.635 52.8941C113.585 52.9192 113.472 52.9317 113.422 52.8816C113.272 52.7564 113.122 52.6313 113.009 52.4686C112.784 52.1432 112.509 51.8678 112.171 51.6551C112.083 51.5925 111.995 51.5049 111.908 51.4173C111.758 51.242 111.733 51.0668 111.908 50.8916C112.083 50.6663 112.308 50.4661 112.521 50.2533C112.959 49.8152 113.41 49.3647 113.86 48.9141C114.286 48.4886 114.724 48.0505 115.149 47.625C115.149 47.625 117.064 45.7351 117.99 44.7589C118.341 44.3834 118.716 44.0079 119.117 43.6575C119.38 43.4197 119.618 43.1568 119.868 42.9065C119.943 42.8314 120.006 42.7688 120.081 42.6938C120.256 42.5436 120.431 42.5185 120.619 42.6562C120.781 42.7688 120.944 42.8815 121.057 43.0442C121.295 43.4072 121.582 43.7451 121.883 44.0455C121.933 44.0955 121.958 44.1456 121.983 44.1956C122.058 44.3208 122.071 44.4585 121.97 44.5836C121.87 44.6838 121.77 44.7839 121.683 44.8965C121.245 45.3596 120.844 45.8602 120.318 46.2608C120.031 46.4986 119.805 46.7989 119.567 47.0868C119.23 47.4748 118.867 47.8377 118.479 48.1757C117.953 48.6262 117.427 49.0768 117.039 49.64ZM128.672 54.214C128.635 54.3266 128.534 54.3516 128.422 54.3391C128.334 54.3266 128.234 54.3016 128.146 54.264C127.621 54.0888 127.095 53.9136 126.569 53.7384C126.494 53.7133 126.419 53.6883 126.357 53.6507C126.219 53.5631 126.106 53.4505 126.119 53.2628C126.119 53.0124 126.106 52.7496 126.106 52.4993C126.144 51.8109 125.731 51.4229 125.168 51.1351C124.83 50.9724 124.454 50.9223 124.079 50.8973C123.879 50.8722 123.691 50.9348 123.503 50.9974C123.253 51.1226 123.002 51.2227 122.74 51.3353C122.252 51.5481 121.813 51.836 121.463 52.2365C120.875 52.7496 120.524 53.4255 120.274 54.1263C120.136 54.4893 120.074 54.8523 120.199 55.2277C120.274 55.478 120.324 55.7284 120.412 55.9662C120.612 56.5169 120.987 56.8423 121.563 56.9424C121.688 56.9674 121.813 56.9674 121.914 56.9925C122.151 57.03 122.264 57.1426 122.302 57.3804C122.314 57.5181 122.327 57.6558 122.314 57.7935C122.302 58.1064 122.314 58.4193 122.377 58.7322C122.402 58.9074 122.402 59.0826 122.402 59.2578C122.414 59.4205 122.264 59.5707 122.114 59.5707C121.601 59.5832 121.088 59.6208 120.587 59.3955C120.199 59.2078 119.798 59.0826 119.423 58.8573C119.06 58.6445 118.772 58.3817 118.534 58.0688C118.284 57.7434 118.071 57.3804 117.846 57.03C117.708 56.8423 117.621 56.6295 117.621 56.3792C117.596 55.6282 117.596 54.8773 117.571 54.1263C117.546 53.6257 117.696 53.1501 117.934 52.7121C118.271 52.1488 118.609 51.5606 118.972 50.9974C119.398 50.3215 119.974 49.7959 120.7 49.4204C120.937 49.2827 121.188 49.1576 121.4 48.9949C121.638 48.8071 121.889 48.682 122.189 48.6069C122.314 48.5818 122.427 48.5693 122.539 48.5068C123.04 48.2314 123.591 48.2564 124.141 48.2815C124.792 48.3315 125.443 48.4317 126.081 48.5443C126.432 48.6194 126.707 48.7696 126.957 48.9949C127.258 49.2702 127.558 49.5205 127.859 49.7708C128.046 49.9085 128.134 50.0963 128.234 50.2965C128.397 50.6094 128.547 50.9348 128.685 51.2477C128.735 51.3979 128.785 51.5481 128.797 51.7108C128.872 52.0612 128.922 52.4117 128.935 52.7746C128.972 53.2628 128.86 53.7509 128.672 54.214ZM128.479 61.0802C128.379 61.2304 128.254 61.3806 128.104 61.4557C127.578 61.7561 127.203 62.2317 126.827 62.6823C126.727 62.8074 126.627 62.9075 126.502 63.0077C126.114 63.3456 125.764 63.7211 125.388 64.0715C125.288 64.1716 125.188 64.2718 125.075 64.3343C125.025 64.3594 124.912 64.3719 124.862 64.3218C124.712 64.1967 124.562 64.0715 124.449 63.9088C124.224 63.5834 123.949 63.308 123.611 63.0953C123.523 63.0327 123.436 62.9451 123.348 62.8575C123.198 62.6823 123.173 62.507 123.348 62.3318C123.523 62.1065 123.749 61.9063 123.961 61.6935C124.399 61.2555 124.85 60.8049 125.3 60.3543C125.726 59.9288 126.164 59.4907 126.59 59.0652C126.59 59.0652 128.505 57.1753 129.431 56.1991C129.781 55.8236 130.157 55.4481 130.557 55.0977C130.82 54.8599 131.058 54.5971 131.308 54.3467C131.383 54.2716 131.446 54.2091 131.521 54.134C131.696 53.9838 131.871 53.9587 132.059 54.0964C132.222 54.2091 132.384 54.3217 132.497 54.4844C132.735 54.8474 133.023 55.1853 133.323 55.4857C133.373 55.5357 133.398 55.5858 133.423 55.6359C133.498 55.761 133.511 55.8987 133.411 56.0239C133.311 56.124 133.21 56.2241 133.123 56.3367C132.685 56.7998 132.284 57.3005 131.759 57.701C131.471 57.9388 131.245 58.2391 131.008 58.527C130.67 58.915 130.307 59.278 129.919 59.6159C129.393 60.0665 128.867 60.517 128.479 61.0802ZM133.829 72.638C133.804 72.688 133.767 72.7256 133.717 72.7756C133.667 72.8507 133.516 72.8758 133.454 72.8132C132.991 72.3501 132.54 71.8995 132.077 71.4365C131.914 71.2738 131.94 71.0735 132.027 70.8858C132.177 70.6104 132.327 70.3351 132.478 70.0597C132.603 69.8344 132.715 69.5966 132.803 69.3588C132.941 69.0209 132.891 68.6955 132.615 68.4452C132.29 68.1198 131.952 67.8069 131.627 67.5065C131.351 67.2562 131.051 67.0309 130.788 66.7681C130.538 66.5178 130.275 66.4552 129.975 66.5803C129.587 66.7681 129.199 66.9558 128.798 67.131C128.648 67.2061 128.535 67.2937 128.373 67.3563C128.222 67.4064 128.06 67.3939 127.934 67.2687C127.521 66.8557 127.096 66.4552 126.67 66.0296C126.62 65.9796 126.57 65.9045 126.533 65.8419C126.483 65.7668 126.52 65.6291 126.595 65.5791C126.658 65.5165 126.72 65.4789 126.783 65.4414C127.672 64.9282 128.56 64.4151 129.449 63.902C129.762 63.7392 130.087 63.5891 130.413 63.4639C130.776 63.3262 131.126 63.151 131.451 62.9257C131.789 62.713 132.127 62.5252 132.478 62.325C133.016 62.0371 133.529 61.6992 134.067 61.4113C135.006 60.8982 135.957 60.3725 136.946 59.9344C137.008 59.8969 137.083 59.8719 137.171 59.8343C137.396 59.7342 137.609 59.7717 137.772 59.9344C138.06 60.1973 138.323 60.4851 138.686 60.8481C138.798 60.9357 138.986 61.0984 139.174 61.2862C139.274 61.3863 139.386 61.4739 139.461 61.574C139.624 61.7618 139.662 61.9745 139.537 62.1748C139.249 62.6879 139.036 63.2511 138.711 63.7518C138.573 63.9395 138.448 64.1398 138.36 64.3525C138.085 64.9282 137.784 65.4789 137.471 66.0171C137.421 66.0922 137.396 66.1673 137.359 66.2299C137.109 66.9057 136.733 67.5065 136.37 68.1198C136.245 68.32 136.145 68.5203 136.045 68.7456C135.869 69.2212 135.607 69.6592 135.344 70.0973C135.043 70.5979 134.756 71.086 134.468 71.5741C134.255 71.9371 134.042 72.275 133.829 72.638ZM133.491 66.8682C133.717 67.0434 133.992 67.0184 134.167 66.8181C134.242 66.718 134.292 66.6179 134.355 66.5052C134.48 66.28 134.58 66.0547 134.731 65.8544C135.043 65.4164 135.194 64.8907 135.419 64.4151C135.456 64.3525 135.469 64.2649 135.481 64.2023C135.507 63.977 135.319 63.8143 135.106 63.8769C135.018 63.8894 134.931 63.927 134.831 63.952C134.092 64.2399 133.454 64.728 132.741 65.0659C132.715 65.091 132.69 65.116 132.665 65.141C132.428 65.3288 132.365 65.5666 132.54 65.8169C132.69 66.0422 132.891 66.2424 132.978 66.355C133.191 66.5678 133.291 66.6679 133.404 66.7806C133.441 66.8181 133.466 66.8432 133.491 66.8682ZM143.429 77.6315C142.753 78.2573 142.152 78.9331 141.514 79.5714C141.401 79.6841 141.276 79.7842 141.151 79.8843C140.913 80.047 140.725 80.0345 140.525 79.8343C140.437 79.7467 140.35 79.659 140.275 79.5839C140.049 79.3587 139.837 79.1209 139.549 78.9832C139.424 78.9081 139.336 78.7955 139.236 78.6953C139.036 78.5201 138.986 78.2698 139.023 78.007C139.036 77.9193 139.061 77.8443 139.086 77.7692C139.311 77.1934 139.474 76.6052 139.762 76.067C139.949 75.7291 140.1 75.3536 140.2 74.9781C140.262 74.7403 140.375 74.5025 140.487 74.2647C140.638 73.8642 140.813 73.4637 140.963 73.0632C141.001 72.9756 141.026 72.9005 141.038 72.8379C141.063 72.6877 141.088 72.5626 140.988 72.4374C140.901 72.3498 140.738 72.3623 140.55 72.475C140.1 72.7253 139.749 73.0507 139.461 73.4637C139.324 73.6765 139.136 73.8642 138.973 74.052C138.698 74.3273 138.422 74.6027 138.185 74.9406C137.922 75.3035 137.534 75.5664 137.158 75.8167C136.946 75.9794 136.72 75.9544 136.507 75.7917C136.27 75.6039 136.019 75.4537 135.807 75.241C135.544 74.9781 135.331 74.6652 135.106 74.3649C135.068 74.3023 135.093 74.1771 135.131 74.0895C135.168 74.0019 135.243 73.9268 135.306 73.8642C135.669 73.5013 136.094 73.2009 136.357 72.7378C136.382 72.6877 136.432 72.6627 136.495 72.6252C137.208 72.112 137.834 71.4862 138.347 70.7478C138.46 70.6101 138.585 70.485 138.723 70.3723C139.361 69.9092 139.899 69.321 140.412 68.7328C140.8 68.2697 141.201 67.7941 141.702 67.4436C141.902 67.3185 142.064 67.1307 142.227 66.968C142.478 66.7427 142.703 66.4924 142.941 66.2546C143.016 66.1795 143.078 66.117 143.153 66.0419C143.404 65.8416 143.604 65.8166 143.854 66.0168C144.28 66.3673 144.68 66.7427 145.018 67.1808C145.193 67.4311 145.231 67.6939 145.156 67.9693C145.043 68.4324 144.931 68.8955 144.805 69.346C144.718 69.6339 144.618 69.9092 144.48 70.1721C144.305 70.5225 144.155 70.898 144.092 71.286C144.017 71.6615 143.817 71.9869 143.679 72.3248C143.591 72.5376 143.491 72.7128 143.491 72.9381C143.491 73.0883 143.529 73.2009 143.641 73.2384C143.742 73.2885 143.829 73.251 143.917 73.1884C144.042 73.0883 144.155 72.9756 144.255 72.8755C144.743 72.3874 145.243 71.8867 145.732 71.3986C146.019 71.1108 146.295 70.8104 146.658 70.5726C146.871 70.4099 147.046 70.1846 147.234 69.9969C147.309 69.9218 147.371 69.8592 147.459 69.7966C147.546 69.734 147.647 69.734 147.722 69.8091C147.847 69.9092 147.959 70.0219 148.072 70.1345C148.41 70.4975 148.748 70.8604 149.136 71.1483C149.224 71.2109 149.299 71.336 149.324 71.4362C149.361 71.5238 149.336 71.6239 149.299 71.7115C149.274 71.7866 149.211 71.8492 149.161 71.8993C148.685 72.3749 148.21 72.8505 147.734 73.3261C147.509 73.5263 147.309 73.7266 147.096 73.9393C146.483 74.5526 145.869 75.1659 145.269 75.7917C145.256 75.7791 144.054 77.0307 143.429 77.6315ZM150.472 85.0507C150.31 85.2885 150.084 85.4387 149.809 85.5388C149.196 85.7516 148.558 85.9143 147.919 86.0269C147.544 86.077 147.181 86.0395 146.83 85.8642C146.58 85.7391 146.33 85.639 146.079 85.5138C145.929 85.4387 145.754 85.3386 145.654 85.2134C145.128 84.6127 144.653 83.9869 144.34 83.2484C144.165 82.873 144.077 82.485 144.139 82.0469C144.165 81.7465 144.114 81.4462 144.127 81.1583C144.139 80.9455 144.177 80.7328 144.227 80.5325C144.265 80.3698 144.452 80.2822 144.603 80.3323C145.253 80.4824 145.892 80.6702 146.555 80.8329C146.78 80.883 146.893 81.0206 146.893 81.2459C146.905 81.4837 146.918 81.7215 146.905 81.9593C146.88 82.4599 147.093 82.8229 147.469 83.1233C147.506 83.1358 147.519 83.1483 147.531 83.1608C147.932 83.4362 148.445 83.2484 148.52 82.7478C148.558 82.4349 148.52 82.122 148.482 81.8091C148.47 81.5964 148.382 81.3836 148.307 81.1833C147.994 80.0444 147.782 78.8804 147.782 77.6789C147.782 76.7778 148.157 76.0519 148.808 75.4511C149.146 75.1132 149.559 74.8754 150.034 74.7752C150.435 74.7002 150.848 74.5875 151.248 74.5124C151.611 74.4498 151.962 74.4999 152.287 74.6501C152.475 74.7377 152.663 74.8503 152.838 74.9755C153.201 75.2383 153.539 75.5012 153.802 75.6889C154.165 76.0769 154.39 76.4273 154.54 76.8028C154.728 77.2909 154.866 77.779 155.041 78.2546C155.141 78.555 155.141 78.8554 155.103 79.1433C155.066 79.5062 154.978 79.8692 154.891 80.2321C154.853 80.3948 154.728 80.4699 154.565 80.4324C154.377 80.3948 154.19 80.3573 154.002 80.2697C153.626 80.0945 153.238 79.9568 152.825 79.8942C152.738 79.8817 152.638 79.8567 152.55 79.8191C152.35 79.769 152.3 79.6689 152.325 79.4687C152.337 79.306 152.387 79.1558 152.387 79.0056C152.412 78.53 152.287 78.1044 151.987 77.729C151.862 77.5788 151.712 77.4536 151.524 77.391C151.324 77.2909 151.123 77.316 150.948 77.4161C150.685 77.5788 150.51 77.8041 150.472 78.117C150.447 78.4424 150.46 78.7553 150.56 79.0556C150.673 79.3685 150.773 79.694 150.885 80.0068C150.973 80.3197 151.073 80.6201 151.148 80.9205C151.261 81.3085 151.311 81.684 151.311 82.0845C151.299 82.4474 151.324 82.7979 151.324 83.1483C151.336 83.311 151.311 83.4612 151.261 83.6114C151.086 84.1371 150.785 84.6127 150.472 85.0507ZM100.174 57.7678C99.824 58.3435 99.3233 58.769 98.7351 59.0569C98.5223 59.1445 98.272 59.1946 98.0467 59.2196C96.8202 59.3448 95.7438 58.9943 94.8302 58.1808C94.5798 57.9555 94.3671 57.6927 94.0917 57.4924C93.4034 56.9543 92.8276 56.3034 92.2144 55.6902C91.8139 55.3147 91.4134 54.9392 91.0254 54.5512C90.4622 54.013 90.5498 53.9755 91.0003 53.5249C91.2256 53.3247 91.4384 53.1119 91.6386 52.9117C91.8013 52.774 91.9766 52.6238 92.1393 52.4861C92.5273 52.1482 92.8902 51.8103 93.1906 51.3847C93.6036 50.8466 94.0917 50.3835 94.6174 49.983C94.9804 49.6951 95.3058 49.3947 95.5686 49.0067C95.7438 48.7564 95.9691 48.5311 96.1944 48.3058C96.7951 47.7051 97.3959 47.1043 97.9841 46.5161C98.2094 46.2908 98.4472 46.078 98.685 45.8653C98.7476 45.8027 98.8227 45.7276 98.9103 45.69C99.2482 45.4522 99.3358 45.4648 99.6362 45.7401C100.024 46.1281 100.399 46.5286 100.813 46.9166C101.025 47.1294 101.276 47.3296 101.513 47.5424C101.588 47.6175 101.664 47.6675 101.726 47.7552C102.089 48.2933 102.565 48.7439 103.04 49.1945C103.916 50.0205 104.267 51.0468 104.242 52.2233C104.242 52.2984 104.254 52.386 104.229 52.4611C103.992 53.1495 103.741 53.8253 103.203 54.3635C102.978 54.5888 102.715 54.7515 102.427 54.8641C102.177 54.9642 101.939 55.0268 101.689 55.1019C101.601 55.1395 101.488 55.152 101.401 55.1895C101.138 55.3272 100.925 55.5149 100.888 55.8529C100.825 56.5663 100.537 57.1795 100.174 57.7678ZM99.4109 49.595C99.0855 49.8703 98.8102 50.1707 98.5223 50.4586C98.3846 50.5962 98.3972 50.784 98.4472 50.9592C98.4848 51.0218 98.5223 51.1094 98.5599 51.172C98.8728 51.56 99.2357 51.8979 99.6738 52.1357C100.062 52.3484 100.462 52.3234 100.75 52.0105C100.838 51.9229 100.913 51.8478 101 51.7602C101.313 51.3972 101.351 51.0343 101.088 50.6213C100.938 50.421 100.587 50.0455 100.575 50.0581C100.45 49.9329 100.324 49.8077 100.199 49.6826C100.174 49.6576 100.149 49.6325 100.112 49.62C99.8615 49.4448 99.6362 49.4198 99.4109 49.595ZM97.3834 56.1783C97.5962 55.9905 97.7839 55.8028 97.9841 55.6026C98.1719 55.4148 98.2219 55.1645 98.1844 54.9017C98.1343 54.6764 98.0467 54.4886 97.8715 54.3385C97.4835 53.9505 97.0955 53.5625 96.7075 53.1745C96.67 53.1369 96.6199 53.0869 96.5824 53.0493C96.3946 52.9117 96.1568 52.8741 95.9941 53.0368C95.5936 53.4123 95.2182 53.8128 94.8302 54.2008C94.7926 54.2383 94.7801 54.2759 94.7676 54.3134C94.68 54.5012 94.6675 54.6889 94.7926 54.8641C94.8677 54.9893 94.9303 55.1019 95.0304 55.202C95.1556 55.3522 95.3058 55.4774 95.4434 55.6151C95.6312 55.8028 95.7939 55.9905 95.9816 56.1532C96.3571 56.4787 96.8327 56.6038 97.3834 56.1783ZM106.205 67.0526C105.892 67.4156 105.554 67.7535 105.229 68.0789C105.028 68.2542 104.841 68.2667 104.628 68.104C104.403 67.9037 104.19 67.716 103.977 67.5032C103.239 66.7898 102.513 66.0639 101.787 65.338C101.537 65.0626 101.299 64.7748 101.061 64.4869C100.798 64.174 100.535 63.8862 100.21 63.6609C99.8597 63.4106 99.5468 63.0977 99.2714 62.7722C99.0962 62.572 99.1087 62.3843 99.2714 62.1715C99.5468 61.8461 99.8221 61.5207 100.122 61.1953C100.348 60.9449 100.573 60.7197 100.873 60.5444C101.036 60.4318 101.161 60.2816 101.299 60.1439C101.674 59.7935 102.037 59.4305 102.4 59.0676C102.65 58.7922 102.901 58.5169 103.151 58.2165C103.639 57.6283 104.152 57.065 104.778 56.6145C105.254 56.2891 105.654 55.8635 105.992 55.4004C106.368 54.8748 106.843 54.4743 107.369 54.1238C107.569 53.9736 107.769 53.9987 107.982 54.1363C108.333 54.3867 108.696 54.6245 108.908 55.0125C109.008 55.1626 109.146 55.2753 109.246 55.4255C109.334 55.5631 109.371 55.7259 109.246 55.876C109.146 56.0012 109.071 56.1514 108.971 56.2515C108.17 57.0776 107.369 57.9036 106.518 58.7547C105.792 59.4806 105.016 60.2315 104.24 60.9825C104.09 61.1327 103.902 61.2453 103.739 61.408C103.489 61.6333 103.239 61.8586 103.013 62.0839C102.701 62.4218 102.688 62.6846 103.013 63.0351C103.464 63.5107 103.915 63.9612 104.378 64.4243C104.966 65.0376 105.579 65.6258 106.167 66.2391C106.48 66.552 106.493 66.7147 106.205 67.0526ZM116.83 71.7203C116.63 71.9707 116.405 72.1709 116.117 72.3336C115.854 72.4963 115.616 72.7091 115.353 72.8968C115.253 72.9719 115.116 73.0345 114.99 73.0846C114.652 73.2222 114.302 73.3474 113.952 73.4976C113.513 73.7104 113.05 73.798 112.587 73.8355C112.312 73.8605 112.024 73.823 111.761 73.7604C111.248 73.6478 110.722 73.5226 110.209 73.3599C109.959 73.2848 109.696 73.1471 109.483 72.9844C108.945 72.5965 108.532 72.1083 108.244 71.4951C107.869 70.7191 107.744 69.893 107.694 69.042C107.631 68.3786 107.744 67.7403 108.057 67.1521C108.257 66.7516 108.445 66.3386 108.645 65.9381C108.858 65.5 109.171 65.137 109.471 64.7866C109.584 64.6489 109.709 64.5238 109.834 64.3986C110.134 64.0482 110.472 63.7603 110.873 63.535C111.173 63.3598 111.461 63.1971 111.736 63.0219C112.024 62.8592 112.312 62.7465 112.625 62.709C113.213 62.6214 113.801 62.5087 114.39 62.4211C114.64 62.3711 114.89 62.3961 115.141 62.4461C115.841 62.5963 116.517 62.8216 117.131 63.2096C117.393 63.3723 117.619 63.5726 117.831 63.8354C118.269 64.4236 118.595 65.0745 118.883 65.7378C119.045 66.1258 119.108 66.5388 119.02 66.9518C118.945 67.3774 118.895 67.8279 118.82 68.2535C118.77 68.4537 118.708 68.6665 118.632 68.8667C118.545 69.1546 118.445 69.43 118.357 69.7178C118.307 69.868 118.244 70.0057 118.144 70.1308C117.694 70.6565 117.281 71.1947 116.83 71.7203ZM115.416 69.2047C115.766 68.9544 116.017 68.4037 116.142 67.8029C116.192 67.6027 116.229 67.4149 116.279 67.2147C116.392 66.7766 116.292 66.3511 116.104 65.9631C115.854 65.4124 115.416 65.0995 114.84 65.0244C114.102 64.9368 113.413 65.0745 112.825 65.5375C112.475 65.8129 112.099 66.0632 111.736 66.3511C111.536 66.5013 111.336 66.6765 111.198 66.8893C110.985 67.1771 110.823 67.515 110.635 67.853C110.56 68.0032 110.51 68.1784 110.485 68.3536C110.422 68.5914 110.385 68.8542 110.334 69.1045C110.222 69.8179 110.522 70.4437 111.161 70.7817C111.586 71.0069 112.012 71.1071 112.487 71.0069C112.65 70.9694 112.825 70.9444 113 70.9193C113.251 70.8442 113.488 70.7566 113.701 70.619C114.252 70.2185 114.765 69.8054 115.416 69.2047ZM123.425 80.7179C123.049 81.0934 122.661 81.4564 122.298 81.8444C121.985 82.1573 121.61 82.3074 121.184 82.3074C120.746 82.32 120.321 82.32 119.883 82.3325C119.657 82.3325 119.445 82.2449 119.257 82.1573C118.856 81.982 118.468 81.7943 118.08 81.6066C117.968 81.544 117.843 81.4689 117.743 81.3688C117.492 81.1184 117.242 80.8681 117.029 80.5803C116.841 80.3174 116.679 80.0546 116.554 79.7542C116.203 78.9282 116.003 78.0771 116.128 77.176C116.178 76.8756 116.191 76.5877 116.216 76.2873C116.241 75.9119 116.353 75.5489 116.529 75.2235C116.917 74.5101 117.33 73.8217 117.83 73.1709C118.093 72.808 118.481 72.5451 118.869 72.3073C119.645 71.8067 120.496 71.4312 121.347 71.0808C121.848 70.8555 122.361 70.7679 122.912 70.843C123.137 70.868 123.375 70.8555 123.612 70.868C123.863 70.893 124.126 70.9056 124.363 70.9932C124.852 71.1559 125.302 71.4062 125.728 71.6815C125.778 71.7066 125.803 71.7316 125.828 71.7566C126.303 72.3824 126.854 72.9581 127.167 73.6966C127.392 74.2222 127.492 74.7479 127.405 75.3111C127.367 75.5739 127.355 75.8618 127.33 76.1372C127.317 76.2748 127.305 76.4125 127.28 76.5377C127.23 76.838 127.092 76.9257 126.779 76.9131C126.278 76.8631 125.815 76.7504 125.352 76.5627C125.189 76.5001 125.064 76.425 124.952 76.3124C124.877 76.2123 124.814 76.1246 124.814 75.9995C124.814 75.7492 124.801 75.5114 124.827 75.2861C124.852 74.5852 124.301 73.9844 123.75 73.7842C123.5 73.6841 123.224 73.634 122.949 73.634C122.461 73.6215 122.01 73.7216 121.56 73.8468C121.222 73.9344 120.972 74.1847 120.721 74.3849C120.371 74.6603 120.083 74.9732 119.758 75.2736C119.532 75.4738 119.382 75.7241 119.269 76.012C119.032 76.6002 118.869 77.2135 118.819 77.8393C118.769 78.415 118.982 78.8781 119.507 79.1785C119.745 79.2911 120.008 79.4038 120.271 79.4914C120.546 79.5915 120.821 79.5415 121.022 79.3162C121.31 79.0283 121.585 78.753 121.835 78.4526C122.035 78.2273 122.035 78.0521 121.86 77.8268C121.723 77.6391 121.56 77.5014 121.41 77.3512C120.784 76.7504 120.959 76.6002 121.285 76.0746C121.51 75.6991 121.848 75.4112 122.248 75.211C122.398 75.1359 122.549 75.1609 122.686 75.2736C122.736 75.3236 122.799 75.3612 122.862 75.4238C123.25 75.8117 124.038 76.5752 124.038 76.5752C124.426 76.9632 124.801 77.3387 125.177 77.7141C125.227 77.7642 125.29 77.8268 125.327 77.8894C125.615 78.2023 125.54 78.5777 125.327 78.7905C125.139 78.9782 124.952 79.166 124.739 79.3037C124.426 79.5164 124.176 79.7667 123.963 80.0796C123.8 80.3174 123.625 80.5177 123.425 80.7179Z" fill="white"/>
</g>
<defs>
<clipPath id="clip0_2006_4902">
<rect width="176" height="176" fill="white"/>
</clipPath>
</defs>
</svg>
