<svg width="191" height="189" viewBox="0 0 191 189" fill="none" xmlns="http://www.w3.org/2000/svg">
<path d="M176 13H0L176 189V13Z" fill="#312922"/>
<path d="M123.703 49.8191C123.441 50.157 123.115 50.4574 122.815 50.7578C122.715 50.8579 122.564 50.8579 122.439 50.7578C122.339 50.6827 122.264 50.6076 122.189 50.5075C121.801 50.1195 121.425 49.694 120.975 49.3936C120.9 49.3435 120.85 49.2935 120.8 49.2184C120.712 49.1308 120.7 49.0181 120.75 48.893C120.875 48.6176 121.075 48.3923 121.325 48.2171C121.851 47.8667 122.302 47.4161 122.715 46.953C123.14 46.5024 123.528 46.0394 123.929 45.5637C124.079 45.4136 124.091 45.2258 123.991 45.0256C123.716 44.4498 123.315 43.9742 122.815 43.5737C122.589 43.3735 122.314 43.3735 122.051 43.5362C121.463 43.8741 120.975 44.3372 120.587 44.9004C120.487 45.0506 120.349 45.2133 120.211 45.351C119.848 45.7139 119.473 46.0644 119.11 46.4273C119.01 46.5024 118.91 46.6026 118.785 46.6777C118.497 46.8654 118.409 46.8529 118.171 46.6151C117.984 46.4524 117.796 46.2646 117.621 46.0894L117.646 46.0644C117.42 45.8391 117.183 45.6263 116.97 45.3885C116.757 45.1507 116.757 44.9755 116.945 44.7127C116.97 44.6626 116.995 44.6376 117.02 44.6125C117.408 44.1745 117.796 43.7114 118.196 43.2859C118.397 43.0606 118.622 42.8854 118.86 42.6976C119.486 42.197 120.061 41.6213 120.549 40.983C120.775 40.6826 121.012 40.4448 121.3 40.232C121.801 39.8816 122.226 39.431 122.64 38.9679C122.902 38.655 123.19 38.3672 123.516 38.0918C123.854 37.7789 124.191 37.441 124.529 37.1031C124.692 36.9654 124.867 36.8402 125.03 36.7026C125.205 36.5273 125.393 36.5899 125.568 36.6901C125.668 36.7651 125.756 36.8528 125.831 36.9279C126.119 37.1657 126.407 37.4035 126.695 37.6663C126.782 37.7289 126.882 37.804 126.945 37.8916C127.12 38.1169 127.12 38.242 126.97 38.4923C126.82 38.7426 126.62 38.9679 126.369 39.1431C126.044 39.3684 125.768 39.6438 125.493 39.9191C125.18 40.232 124.88 40.5324 124.567 40.8453C124.467 40.9454 124.367 41.0455 124.292 41.1457C124.166 41.3209 124.154 41.5337 124.279 41.7089C124.529 42.0844 124.805 42.4348 125.193 42.6976C125.405 42.8353 125.606 43.0105 125.819 43.1482C126.181 43.386 126.294 43.3735 126.582 43.0856C126.72 42.973 126.832 42.8353 126.97 42.6976C127.258 42.4098 127.546 42.1219 127.884 41.8841C128.222 41.6213 128.509 41.2833 128.822 40.9705C128.922 40.8703 128.998 40.7702 129.11 40.6826C129.273 40.5449 129.423 40.5449 129.586 40.6826C129.736 40.8077 129.874 40.9454 130.024 41.0706C130.161 41.1832 130.299 41.2959 130.437 41.4085C130.612 41.5587 130.8 41.7214 130.95 41.8966C131.188 42.1344 131.188 42.3096 130.975 42.5725C130.912 42.6601 130.85 42.7227 130.762 42.7852C130.437 42.9855 130.187 43.2608 129.924 43.5237C129.523 43.9242 129.085 44.3122 128.722 44.7502C128.297 45.3009 127.796 45.7765 127.308 46.2646C127.145 46.4273 126.957 46.565 126.782 46.7152C126.62 46.8529 126.469 46.978 126.332 47.1157C125.869 47.6038 125.355 48.0419 124.98 48.5926C124.905 48.6927 124.805 48.7678 124.717 48.8304C124.317 49.1057 124.004 49.4436 123.703 49.8191ZM129.933 51.493C129.833 51.6432 129.708 51.7934 129.558 51.8685C129.032 52.1689 128.656 52.6445 128.281 53.095C128.181 53.2202 128.081 53.3203 127.955 53.4204C127.568 53.7584 127.217 54.1338 126.842 54.4843C126.741 54.5844 126.641 54.6845 126.529 54.7471C126.479 54.7721 126.366 54.7847 126.316 54.7346C126.166 54.6094 126.016 54.4843 125.903 54.3216C125.678 53.9962 125.402 53.7208 125.064 53.508C124.977 53.4455 124.889 53.3579 124.802 53.2702C124.651 53.095 124.626 52.9198 124.802 52.7446C124.977 52.5193 125.202 52.319 125.415 52.1063C125.853 51.6682 126.303 51.2177 126.754 50.7671C127.18 50.3416 127.618 49.9035 128.043 49.478C128.043 49.478 129.958 47.5881 130.884 46.6118C131.235 46.2364 131.61 45.8609 132.011 45.5105C132.273 45.2727 132.511 45.0098 132.762 44.7595C132.837 44.6844 132.899 44.6218 132.974 44.5467C133.15 44.3966 133.325 44.3715 133.513 44.5092C133.675 44.6218 133.838 44.7345 133.951 44.8972C134.188 45.2601 134.476 45.5981 134.777 45.8984C134.827 45.9485 134.852 45.9986 134.877 46.0486C134.952 46.1738 134.964 46.3115 134.864 46.4366C134.764 46.5368 134.664 46.6369 134.576 46.7495C134.138 47.2126 133.738 47.7132 133.212 48.1137C132.924 48.3515 132.699 48.6519 132.461 48.9398C132.123 49.3278 131.76 49.6907 131.372 50.0287C130.847 50.4792 130.321 50.9298 129.933 51.493ZM135.421 63.3136C135.396 63.4387 135.233 63.4763 135.133 63.4012C135.108 63.3762 135.07 63.3386 135.045 63.3136C134.595 62.838 134.156 62.3749 133.618 61.9869C133.343 61.7867 133.28 61.5238 133.381 61.1984C133.418 61.0607 133.443 60.9356 133.493 60.8104C133.618 60.46 133.706 60.1221 133.718 59.7591C133.718 59.6339 133.743 59.4838 133.794 59.3586C133.881 59.0457 133.944 58.7078 133.994 58.3824C134.031 58.1446 134.119 57.9318 134.207 57.694C134.394 57.2059 134.482 56.6677 134.557 56.142C134.582 56.0169 134.582 55.8667 134.57 55.729C134.544 55.3535 134.131 55.1658 133.831 55.3911C133.794 55.4036 133.768 55.4286 133.743 55.4537C133.143 56.1045 132.379 56.5926 131.791 57.2559C131.641 57.4312 131.478 57.6189 131.34 57.8066C131.19 58.0319 130.977 58.2197 130.765 58.3824C130.577 58.5451 130.339 58.5826 130.114 58.3824C130.001 58.2948 129.851 58.2197 129.751 58.0945C129.488 57.7315 129.15 57.4186 128.825 57.0932C128.787 57.0557 128.75 57.0181 128.7 56.9681C128.65 56.893 128.65 56.7678 128.7 56.6927C128.8 56.5926 128.9 56.4925 129 56.3924C129.651 55.8166 130.252 55.1908 130.802 54.515C131.265 53.9518 131.829 53.4386 132.354 52.913C133.168 52.3748 133.718 51.5988 134.419 50.973C134.507 50.8854 134.595 50.7978 134.645 50.6977C134.77 50.4974 134.932 50.3848 135.108 50.2346C135.546 49.8716 135.971 49.4962 136.297 49.0206C136.459 48.7828 136.685 48.5825 136.91 48.3822C137.073 48.2195 137.248 48.2446 137.423 48.4198C138.024 49.0206 138.625 49.6213 139.225 50.2221C139.213 50.2346 140.289 51.336 140.84 51.8616C141.14 52.162 141.366 52.5125 141.503 52.9004C141.628 53.2008 141.741 53.4887 141.829 53.8016C141.966 54.2396 141.941 54.6902 141.791 55.1408C141.666 55.4662 141.541 55.7916 141.403 56.1295C141.341 56.2672 141.24 56.3924 141.128 56.505C140.802 56.8304 140.464 57.1183 140.039 57.3185C139.864 57.3936 139.676 57.4562 139.501 57.5563C139.038 57.8192 138.524 57.8567 138.011 57.7691C137.786 57.719 137.548 57.6564 137.323 57.6064C136.847 57.5063 136.66 57.5939 136.534 58.0695C136.447 58.3824 136.372 58.7328 136.347 59.0582C136.297 59.6089 136.184 60.1471 135.971 60.6602C135.871 60.8605 135.846 61.1108 135.834 61.3486C135.821 62.037 135.596 62.6628 135.421 63.3136ZM138.249 54.5025C138.449 54.3523 138.612 54.1645 138.787 53.9643C138.95 53.8016 138.963 53.5888 138.862 53.3635C138.812 53.2384 138.75 53.1257 138.662 53.0131C138.55 52.8754 138.412 52.7628 138.287 52.6376C138.162 52.5125 138.036 52.3873 137.911 52.2621C137.874 52.2246 137.811 52.187 137.774 52.1495C137.448 51.9492 137.148 51.9743 136.86 52.2121C136.597 52.4248 136.447 52.7002 136.284 52.963C136.184 53.1132 136.184 53.3135 136.284 53.4637C136.547 53.9267 136.885 54.3398 137.373 54.6026C137.673 54.7528 137.974 54.7278 138.249 54.5025ZM144.001 69.0405C144.026 69.1156 144.026 69.1907 144.014 69.2783C144.014 69.3034 143.976 69.3409 143.951 69.3659C143.563 69.7539 143.163 70.1544 142.762 70.5299C142.562 70.7302 142.362 70.7302 142.136 70.5549C142.086 70.5299 142.036 70.4799 141.999 70.4423C141.498 69.9417 140.997 69.441 140.484 68.9279C140.271 68.7402 140.071 68.5149 139.858 68.3021C139.583 68.0268 139.283 67.7764 139.082 67.426C139.02 67.3384 138.945 67.2633 138.882 67.2007C138.569 66.9379 138.231 66.6751 137.956 66.3747C137.681 66.0493 137.43 65.7239 137.105 65.4735C136.98 65.3734 136.88 65.2483 136.817 65.1106C136.729 64.9479 136.754 64.7977 136.842 64.66C136.842 64.635 136.855 64.6225 136.867 64.6099C137.305 64.1218 137.656 63.5711 138.156 63.1456C138.369 62.9829 138.607 62.8202 138.795 62.6325C139.333 62.1443 139.871 61.6312 140.384 61.118C140.922 60.5799 141.448 60.0041 141.986 59.466C142.474 58.9778 143 58.5022 143.488 58.0141C143.939 57.5385 144.402 57.0504 144.865 56.5623C145.153 56.2744 145.378 56.2494 145.603 56.5498C146.079 57.2006 146.68 57.7012 147.218 58.2895C147.418 58.4897 147.593 58.69 147.793 58.8902C148.094 59.1656 148.382 59.4785 148.707 59.7288C149.295 60.1668 149.771 60.7175 150.297 61.2432C150.484 61.4309 150.622 61.6687 150.785 61.9065C150.872 62.0442 150.872 62.1944 150.785 62.3571C150.509 62.8077 150.146 63.1957 149.758 63.5586C149.708 63.5837 149.658 63.6337 149.596 63.6462C149.496 63.6963 149.37 63.7213 149.258 63.6337C149.145 63.5461 149.058 63.4585 148.945 63.3709C148.745 63.1957 148.557 63.033 148.369 62.8703C148.181 62.6825 147.994 62.5198 147.831 62.307C147.556 61.9566 147.23 61.6312 146.867 61.3684C146.554 61.1306 146.279 60.8302 145.991 60.5673C145.853 60.4547 145.741 60.317 145.591 60.2169C145.403 60.0792 145.215 60.0917 145.04 60.2419C144.752 60.5048 144.464 60.7676 144.276 61.1306C144.189 61.2933 144.189 61.4685 144.289 61.6437C144.377 61.7563 144.452 61.9065 144.564 62.0192C144.777 62.2319 144.99 62.4447 145.215 62.6199C145.678 62.9579 146.091 63.3709 146.479 63.7839C146.68 63.9842 146.855 64.2345 147.017 64.4723C147.143 64.6475 147.118 64.7977 146.98 64.9604C146.967 64.9729 146.955 64.9854 146.942 64.9979C146.592 65.3484 146.241 65.6988 145.891 66.0493C145.728 66.212 145.528 66.212 145.365 66.0743C145.253 65.9867 145.153 65.8866 145.052 65.7864C144.89 65.6488 144.74 65.4986 144.564 65.3734C143.976 64.9354 143.463 64.4222 143.012 63.8215C142.875 63.6587 142.725 63.5086 142.549 63.3834C142.337 63.2207 142.086 63.2207 141.886 63.3959C141.41 63.8465 140.897 64.2845 140.534 64.8728C140.422 65.0355 140.397 65.1857 140.522 65.3609C140.672 65.5862 140.822 65.8115 141.022 66.0117C141.473 66.4873 142.412 67.3759 142.412 67.3759C142.912 67.8766 143.413 68.4022 143.901 68.9154C143.939 68.9529 144.001 68.9905 144.001 69.0405ZM96.2521 47.636C96.177 47.7362 96.0769 47.8112 96.0018 47.8863C95.8891 47.974 95.7264 47.9865 95.6138 47.8989C95.2758 47.6611 94.9379 47.3982 94.6876 47.198C94.5124 46.9977 94.3872 46.8726 94.2746 46.7349C94.0868 46.5221 94.0368 46.2718 94.1995 46.034C94.6751 45.2831 95.0506 44.482 95.6513 43.8062C95.7514 43.681 95.8391 43.5684 95.9267 43.4307C96.1645 43.0177 96.3772 42.6047 96.6025 42.1791C96.6401 42.1416 96.6776 42.079 96.6776 42.029C96.6776 41.9539 96.6901 41.8662 96.6526 41.8037C96.59 41.7161 96.4774 41.7035 96.3772 41.7536C95.9642 41.9664 95.5011 42.1291 95.1382 42.4169C94.8128 42.6923 94.4623 42.8925 94.1119 43.1178C93.6363 43.3932 93.1732 43.7061 92.7101 43.9939C92.5474 44.1066 92.3722 44.2067 92.2095 44.2943C92.0468 44.3819 91.8841 44.3694 91.7714 44.2317C91.3083 43.7686 90.8077 43.3431 90.4573 42.7924C90.3446 42.6297 90.3071 42.467 90.3822 42.2918C90.4448 42.1291 90.5198 41.9539 90.6075 41.8162C90.9329 41.3406 91.2583 40.865 91.6087 40.4144C92.0968 39.8011 92.4222 39.0752 92.8228 38.3994C92.8978 38.2992 92.9229 38.1491 92.9604 38.0114C92.9855 37.8862 92.8353 37.7611 92.6851 37.7861C92.61 37.8111 92.5349 37.8362 92.4723 37.8737C92.2345 38.0614 92.0092 38.2367 91.7714 38.4244C91.5712 38.5746 91.3584 38.7373 91.1456 38.875C90.5449 39.2254 89.9817 39.6635 89.3934 40.0765C89.1431 40.2517 88.8678 40.4019 88.6049 40.5646C88.4547 40.6397 88.3171 40.6272 88.2169 40.5271C87.7288 40.089 87.2032 39.6885 86.8402 39.1503C86.8027 39.1128 86.7526 39.0627 86.7401 39.0001C86.7276 38.9376 86.7276 38.8374 86.7776 38.7874C86.9153 38.6247 87.078 38.487 87.2532 38.3618C87.5786 38.1365 87.904 37.9113 88.242 37.6985C88.3546 37.6109 88.4923 37.5233 88.6049 37.4106C88.9804 37.0352 89.431 36.7348 89.9066 36.5095C90.2695 36.3218 90.5949 36.1215 90.8828 35.8336C91.1081 35.6084 91.3834 35.4582 91.6588 35.308C91.8966 35.1453 92.1719 35.0201 92.4222 34.8699C92.5599 34.7823 92.6976 34.6947 92.7977 34.5946C93.2984 34.144 93.8365 33.756 94.4248 33.4181C95.1131 33.0051 95.7765 32.542 96.4523 32.0914C96.7026 31.9412 96.8278 31.9412 97.0406 32.129C97.3159 32.3793 97.5788 32.6421 97.8541 32.9175C98.0544 33.1177 98.2421 33.3555 98.4549 33.5683C98.5049 33.6434 98.5925 33.706 98.6426 33.781C98.8554 34.0439 98.8804 34.3192 98.7177 34.6071C98.6801 34.6697 98.6426 34.7072 98.6176 34.7573C98.2045 35.2955 97.8916 35.8837 97.4911 36.4094C97.1908 36.7848 96.9279 37.1728 96.6526 37.5483C96.6025 37.5984 96.59 37.6609 96.565 37.711C96.5399 37.8111 96.5525 37.9238 96.6276 37.9738C96.6901 38.0114 96.7903 38.0614 96.8528 38.0239C97.0656 37.9363 97.2784 37.8487 97.4911 37.736C97.7039 37.5984 97.9167 37.4607 98.1169 37.2855C98.4048 37.0477 98.7177 36.8599 99.0681 36.6847C99.4311 36.497 99.8191 36.3343 100.107 36.0214C100.157 35.9713 100.232 35.9463 100.307 35.8962C100.47 35.7836 100.645 35.8086 100.795 35.9338C101.083 36.1465 101.359 36.3718 101.634 36.5971C101.696 36.6346 101.759 36.6972 101.797 36.7598C102.059 37.0477 102.31 37.348 102.573 37.6609C102.723 37.8362 102.723 37.9363 102.598 38.1365C102.109 38.875 101.609 39.6009 101.121 40.3393C100.908 40.6772 100.72 41.0152 100.495 41.3406C100.407 41.4783 100.307 41.6034 100.195 41.7161C99.8691 42.0415 99.6313 42.4295 99.4436 42.8425C99.331 43.1303 99.1557 43.3807 98.9555 43.631C98.7803 43.8312 98.6176 44.019 98.4924 44.2442C98.1044 44.8575 97.6664 45.4458 97.3159 46.0966C97.1032 46.4846 96.8403 46.8475 96.5525 47.2105C96.4398 47.3482 96.3522 47.5109 96.2521 47.636ZM108.151 50.098C108.088 50.2107 107.988 50.2858 107.913 50.3609C107.312 50.9616 106.712 51.5624 106.111 52.1631C105.948 52.3258 104.709 53.3396 104.559 53.4147C103.996 53.7526 103.395 53.9279 102.744 53.8027C102.256 53.7151 101.78 53.615 101.305 53.4898C101.117 53.4523 100.917 53.3521 100.779 53.2395C100.016 52.6012 99.3649 51.8502 98.8517 51.0117C98.689 50.7739 98.6139 50.5236 98.6014 50.2357C98.6139 49.8727 98.6014 49.5348 98.5889 49.1719C98.5764 48.5586 98.8017 48.0079 99.1396 47.5198C99.3774 47.1568 99.6653 46.8189 99.9531 46.506C100.604 45.7801 101.342 45.1668 101.993 44.4409C102.131 44.2782 102.294 44.1405 102.456 43.9778C102.456 43.9778 103.883 42.576 104.596 41.8626C104.859 41.5998 105.11 41.3245 105.398 41.0616C105.61 40.8739 105.748 40.8864 105.973 41.0616C106.349 41.387 106.724 41.7124 107.075 42.0379C107.212 42.1755 107.362 42.3257 107.45 42.4884C107.575 42.6636 107.525 42.914 107.35 43.0141C106.974 43.2394 106.687 43.5773 106.386 43.8777C106.073 44.1906 105.748 44.4659 105.46 44.8038C105.06 45.2794 104.596 45.7175 104.133 46.1305C103.77 46.4684 103.42 46.8189 103.082 47.1818C102.632 47.6574 102.193 48.1706 101.743 48.6712C101.417 49.0217 101.33 49.4597 101.53 49.9353C101.78 50.5861 102.244 50.899 102.944 50.874C103.658 50.8365 104.183 50.486 104.546 49.8978C104.934 49.2595 105.51 48.8089 106.061 48.3333C106.399 48.0454 106.762 47.7826 107 47.3696C107.05 47.2945 107.125 47.2194 107.187 47.1568C107.5 46.8439 107.801 46.5435 108.113 46.2306C108.201 46.143 108.276 46.0679 108.389 46.0054C108.627 45.8677 108.827 45.6925 108.965 45.4296C109.015 45.3545 109.077 45.2669 109.14 45.2043C109.415 44.954 109.703 44.9165 110.003 45.1418C110.266 45.3295 110.541 45.5298 110.779 45.7676C111.005 45.9928 111.18 46.2432 111.368 46.506C111.455 46.6186 111.43 46.8189 111.317 46.9315C111.142 47.1067 110.98 47.2695 110.792 47.4071C110.329 47.7701 109.941 48.1831 109.565 48.6086C109.465 48.7088 109.39 48.8089 109.277 48.8965C108.864 49.2595 108.439 49.6099 108.151 50.098ZM112.484 60.0632C112.321 60.301 112.096 60.4512 111.821 60.5513C111.207 60.7641 110.569 60.9268 109.931 61.0395C109.555 61.0895 109.192 61.052 108.842 60.8768C108.592 60.7516 108.341 60.6515 108.091 60.5263C107.941 60.4512 107.766 60.3511 107.666 60.2259C107.14 59.6252 106.664 58.9994 106.351 58.261C106.176 57.8855 106.089 57.4975 106.151 57.0594C106.176 56.7591 106.126 56.4587 106.139 56.1708C106.151 55.958 106.189 55.7453 106.239 55.545C106.276 55.3823 106.464 55.2947 106.614 55.3448C107.265 55.495 107.903 55.6827 108.567 55.8454C108.792 55.8955 108.905 56.0331 108.905 56.2584C108.917 56.4962 108.93 56.734 108.917 56.9718C108.892 57.4725 109.105 57.8354 109.48 58.1358C109.518 58.1483 109.53 58.1608 109.543 58.1733C109.943 58.4487 110.457 58.261 110.532 57.7603C110.569 57.4474 110.532 57.1345 110.494 56.8216C110.482 56.6089 110.394 56.3961 110.319 56.1958C110.006 55.0569 109.793 53.8929 109.793 52.6914C109.793 51.7903 110.169 51.0644 110.819 50.4636C111.157 50.1257 111.57 49.8879 112.046 49.7878C112.447 49.7127 112.86 49.6 113.26 49.5249C113.623 49.4624 113.973 49.5124 114.299 49.6626C114.487 49.7502 114.674 49.8629 114.85 49.988C115.213 50.2508 115.55 50.5137 115.813 50.7014C116.176 51.0894 116.402 51.4398 116.552 51.8153C116.739 52.3034 116.877 52.7916 117.052 53.2672C117.152 53.5675 117.152 53.8679 117.115 54.1558C117.077 54.5187 116.99 54.8817 116.902 55.2446C116.865 55.4074 116.739 55.4824 116.577 55.4449C116.389 55.4074 116.201 55.3698 116.014 55.2822C115.638 55.107 115.25 54.9693 114.837 54.9067C114.749 54.8942 114.649 54.8692 114.562 54.8316C114.361 54.7816 114.311 54.6814 114.336 54.4812C114.349 54.3185 114.399 54.1683 114.399 54.0181C114.424 53.5425 114.299 53.117 113.998 52.7415C113.873 52.5913 113.723 52.4661 113.535 52.4036C113.335 52.3034 113.135 52.3285 112.96 52.4286C112.697 52.5913 112.522 52.8166 112.484 53.1295C112.459 53.4549 112.472 53.7678 112.572 54.0682C112.684 54.3811 112.784 54.7065 112.897 55.0194C112.985 55.3323 113.085 55.6326 113.16 55.933C113.273 56.321 113.323 56.6965 113.323 57.097C113.31 57.4599 113.335 57.8104 113.335 58.1608C113.348 58.3235 113.323 58.4737 113.273 58.6239C113.097 59.1496 112.797 59.6252 112.484 60.0632ZM117.038 62.6399C116.938 62.7901 116.813 62.9403 116.663 63.0154C116.137 63.3158 115.762 63.7914 115.386 64.2419C115.286 64.3671 115.186 64.4672 115.061 64.5673C114.673 64.9053 114.322 65.2807 113.947 65.6312C113.847 65.7313 113.747 65.8314 113.634 65.894C113.584 65.9191 113.471 65.9316 113.421 65.8815C113.271 65.7563 113.121 65.6312 113.008 65.4685C112.783 65.1431 112.508 64.8677 112.17 64.655C112.082 64.5924 111.994 64.5048 111.907 64.4172C111.757 64.2419 111.732 64.0667 111.907 63.8915C112.082 63.6662 112.307 63.466 112.52 63.2532C112.958 62.8151 113.409 62.3646 113.859 61.914C114.285 61.4885 114.723 61.0504 115.148 60.6249C115.148 60.6249 117.063 58.735 117.989 57.7588C118.34 57.3833 118.715 57.0078 119.116 56.6574C119.379 56.4196 119.617 56.1567 119.867 55.9064C119.942 55.8313 120.005 55.7687 120.08 55.6937C120.255 55.5435 120.43 55.5184 120.618 55.6561C120.78 55.7687 120.943 55.8814 121.056 56.0441C121.294 56.4071 121.581 56.745 121.882 57.0454C121.932 57.0954 121.957 57.1455 121.982 57.1955C122.057 57.3207 122.07 57.4584 121.969 57.5835C121.869 57.6837 121.769 57.7838 121.682 57.8964C121.244 58.3595 120.843 58.8601 120.317 59.2607C120.03 59.4985 119.804 59.7988 119.566 60.0867C119.229 60.4747 118.866 60.8376 118.478 61.1756C117.952 61.6261 117.426 62.0767 117.038 62.6399ZM128.671 67.2139C128.634 67.3265 128.533 67.3515 128.421 67.339C128.333 67.3265 128.233 67.3015 128.145 67.2639C127.62 67.0887 127.094 66.9135 126.568 66.7383C126.493 66.7132 126.418 66.6882 126.356 66.6506C126.218 66.563 126.105 66.4504 126.118 66.2627C126.118 66.0123 126.105 65.7495 126.105 65.4992C126.143 64.8108 125.73 64.4228 125.167 64.135C124.829 63.9723 124.453 63.9222 124.078 63.8972C123.878 63.8721 123.69 63.9347 123.502 63.9973C123.252 64.1225 123.001 64.2226 122.739 64.3352C122.251 64.548 121.812 64.8359 121.462 65.2364C120.874 65.7495 120.523 66.4254 120.273 67.1262C120.135 67.4892 120.073 67.8522 120.198 68.2276C120.273 68.4779 120.323 68.7283 120.411 68.9661C120.611 69.5168 120.986 69.8422 121.562 69.9423C121.687 69.9673 121.812 69.9673 121.913 69.9924C122.15 70.0299 122.263 70.1425 122.301 70.3803C122.313 70.518 122.326 70.6557 122.313 70.7934C122.301 71.1063 122.313 71.4192 122.376 71.7321C122.401 71.9073 122.401 72.0825 122.401 72.2577C122.413 72.4204 122.263 72.5706 122.113 72.5706C121.6 72.5831 121.087 72.6207 120.586 72.3954C120.198 72.2077 119.797 72.0825 119.422 71.8572C119.059 71.6444 118.771 71.3816 118.533 71.0687C118.283 70.7433 118.07 70.3803 117.845 70.0299C117.707 69.8422 117.62 69.6294 117.62 69.3791C117.595 68.6281 117.595 67.8772 117.57 67.1262C117.545 66.6256 117.695 66.15 117.933 65.712C118.27 65.1487 118.608 64.5605 118.971 63.9973C119.397 63.3214 119.973 62.7958 120.699 62.4203C120.936 62.2826 121.187 62.1575 121.399 61.9948C121.637 61.807 121.888 61.6819 122.188 61.6068C122.313 61.5817 122.426 61.5692 122.538 61.5067C123.039 61.2313 123.59 61.2563 124.14 61.2814C124.791 61.3314 125.442 61.4316 126.08 61.5442C126.431 61.6193 126.706 61.7695 126.956 61.9948C127.257 62.2701 127.557 62.5204 127.858 62.7707C128.045 62.9084 128.133 63.0962 128.233 63.2964C128.396 63.6093 128.546 63.9347 128.684 64.2476C128.734 64.3978 128.784 64.548 128.796 64.7107C128.871 65.0611 128.921 65.4116 128.934 65.7745C128.971 66.2627 128.859 66.7508 128.671 67.2139ZM128.478 74.0801C128.378 74.2303 128.253 74.3805 128.103 74.4556C127.577 74.756 127.202 75.2316 126.826 75.6822C126.726 75.8073 126.626 75.9074 126.501 76.0076C126.113 76.3455 125.763 76.721 125.387 77.0714C125.287 77.1715 125.187 77.2717 125.074 77.3342C125.024 77.3593 124.911 77.3718 124.861 77.3217C124.711 77.1966 124.561 77.0714 124.448 76.9087C124.223 76.5833 123.948 76.3079 123.61 76.0952C123.522 76.0326 123.435 75.945 123.347 75.8574C123.197 75.6822 123.172 75.5069 123.347 75.3317C123.522 75.1064 123.748 74.9062 123.96 74.6934C124.398 74.2554 124.849 73.8048 125.299 73.3542C125.725 72.9287 126.163 72.4906 126.589 72.0651C126.589 72.0651 128.504 70.1752 129.43 69.199C129.78 68.8235 130.156 68.448 130.556 68.0976C130.819 67.8598 131.057 67.597 131.307 67.3466C131.382 67.2715 131.445 67.209 131.52 67.1339C131.695 66.9837 131.87 66.9586 132.058 67.0963C132.221 67.209 132.383 67.3216 132.496 67.4843C132.734 67.8473 133.022 68.1852 133.322 68.4856C133.372 68.5356 133.397 68.5857 133.422 68.6358C133.497 68.7609 133.51 68.8986 133.41 69.0238C133.31 69.1239 133.209 69.224 133.122 69.3366C132.684 69.7997 132.283 70.3004 131.758 70.7009C131.47 70.9387 131.244 71.239 131.007 71.5269C130.669 71.9149 130.306 72.2779 129.918 72.6158C129.392 73.0664 128.866 73.5169 128.478 74.0801ZM133.828 85.6379C133.803 85.6879 133.766 85.7255 133.716 85.7755C133.666 85.8506 133.515 85.8757 133.453 85.8131C132.99 85.35 132.539 84.8994 132.076 84.4364C131.913 84.2737 131.939 84.0734 132.026 83.8857C132.176 83.6103 132.326 83.335 132.477 83.0596C132.602 82.8343 132.714 82.5965 132.802 82.3587C132.94 82.0208 132.89 81.6954 132.614 81.4451C132.289 81.1197 131.951 80.8068 131.626 80.5064C131.35 80.2561 131.05 80.0308 130.787 79.768C130.537 79.5177 130.274 79.4551 129.974 79.5802C129.586 79.768 129.198 79.9557 128.797 80.1309C128.647 80.206 128.534 80.2936 128.372 80.3562C128.221 80.4063 128.059 80.3938 127.933 80.2686C127.52 79.8556 127.095 79.4551 126.669 79.0295C126.619 78.9795 126.569 78.9044 126.532 78.8418C126.482 78.7667 126.519 78.629 126.594 78.579C126.657 78.5164 126.719 78.4788 126.782 78.4413C127.671 77.9281 128.559 77.415 129.448 76.9019C129.761 76.7391 130.086 76.589 130.412 76.4638C130.775 76.3261 131.125 76.1509 131.45 75.9256C131.788 75.7129 132.126 75.5251 132.477 75.3249C133.015 75.037 133.528 74.6991 134.066 74.4112C135.005 73.8981 135.956 73.3724 136.945 72.9343C137.007 72.8968 137.082 72.8718 137.17 72.8342C137.395 72.7341 137.608 72.7716 137.771 72.9343C138.059 73.1972 138.322 73.485 138.685 73.848C138.797 73.9356 138.985 74.0983 139.173 74.2861C139.273 74.3862 139.385 74.4738 139.46 74.5739C139.623 74.7617 139.661 74.9744 139.536 75.1747C139.248 75.6878 139.035 76.251 138.71 76.7517C138.572 76.9394 138.447 77.1397 138.359 77.3524C138.084 77.9281 137.783 78.4788 137.47 79.017C137.42 79.0921 137.395 79.1672 137.358 79.2298C137.108 79.9056 136.732 80.5064 136.369 81.1197C136.244 81.3199 136.144 81.5202 136.044 81.7455C135.868 82.2211 135.606 82.6591 135.343 83.0972C135.042 83.5978 134.755 84.0859 134.467 84.574C134.254 84.937 134.041 85.2749 133.828 85.6379ZM133.49 79.8681C133.716 80.0433 133.991 80.0183 134.166 79.818C134.241 79.7179 134.291 79.6178 134.354 79.5051C134.479 79.2799 134.579 79.0546 134.73 78.8543C135.042 78.4163 135.193 77.8906 135.418 77.415C135.455 77.3524 135.468 77.2648 135.48 77.2022C135.506 76.9769 135.318 76.8142 135.105 76.8768C135.017 76.8893 134.93 76.9269 134.83 76.9519C134.091 77.2398 133.453 77.7279 132.74 78.0658C132.714 78.0909 132.689 78.1159 132.664 78.1409C132.427 78.3287 132.364 78.5665 132.539 78.8168C132.689 79.0421 132.89 79.2423 132.977 79.3549C133.19 79.5677 133.29 79.6678 133.403 79.7805C133.44 79.818 133.465 79.8431 133.49 79.8681ZM143.428 90.6314C142.752 91.2572 142.151 91.933 141.513 92.5713C141.4 92.684 141.275 92.7841 141.15 92.8842C140.912 93.0469 140.724 93.0344 140.524 92.8342C140.436 92.7466 140.349 92.6589 140.274 92.5838C140.048 92.3586 139.836 92.1208 139.548 91.9831C139.423 91.908 139.335 91.7954 139.235 91.6952C139.035 91.52 138.985 91.2697 139.022 91.0069C139.035 90.9192 139.06 90.8442 139.085 90.7691C139.31 90.1933 139.473 89.6051 139.761 89.0669C139.948 88.729 140.099 88.3535 140.199 87.978C140.261 87.7402 140.374 87.5024 140.486 87.2646C140.637 86.8641 140.812 86.4636 140.962 86.0631C141 85.9755 141.025 85.9004 141.037 85.8378C141.062 85.6876 141.087 85.5625 140.987 85.4373C140.9 85.3497 140.737 85.3622 140.549 85.4749C140.099 85.7252 139.748 86.0506 139.46 86.4636C139.323 86.6764 139.135 86.8641 138.972 87.0519C138.697 87.3272 138.421 87.6026 138.184 87.9405C137.921 88.3034 137.533 88.5663 137.157 88.8166C136.945 88.9793 136.719 88.9543 136.506 88.7916C136.269 88.6038 136.018 88.4536 135.806 88.2409C135.543 87.978 135.33 87.6651 135.105 87.3648C135.067 87.3022 135.092 87.177 135.13 87.0894C135.167 87.0018 135.242 86.9267 135.305 86.8641C135.668 86.5012 136.093 86.2008 136.356 85.7377C136.381 85.6876 136.431 85.6626 136.494 85.6251C137.207 85.1119 137.833 84.4861 138.346 83.7477C138.459 83.61 138.584 83.4849 138.722 83.3722C139.36 82.9091 139.898 82.3209 140.411 81.7327C140.799 81.2696 141.2 80.794 141.701 80.4435C141.901 80.3184 142.063 80.1306 142.226 79.9679C142.477 79.7426 142.702 79.4923 142.94 79.2545C143.015 79.1794 143.077 79.1169 143.152 79.0418C143.403 78.8415 143.603 78.8165 143.853 79.0167C144.279 79.3672 144.679 79.7426 145.017 80.1807C145.192 80.431 145.23 80.6938 145.155 80.9692C145.042 81.4323 144.93 81.8954 144.804 82.3459C144.717 82.6338 144.617 82.9091 144.479 83.172C144.304 83.5224 144.154 83.8979 144.091 84.2859C144.016 84.6614 143.816 84.9868 143.678 85.3247C143.59 85.5375 143.49 85.7127 143.49 85.938C143.49 86.0882 143.528 86.2008 143.64 86.2383C143.741 86.2884 143.828 86.2509 143.916 86.1883C144.041 86.0882 144.154 85.9755 144.254 85.8754C144.742 85.3873 145.242 84.8866 145.731 84.3985C146.018 84.1107 146.294 83.8103 146.657 83.5725C146.87 83.4098 147.045 83.1845 147.233 82.9968C147.308 82.9217 147.37 82.8591 147.458 82.7965C147.545 82.7339 147.646 82.7339 147.721 82.809C147.846 82.9091 147.958 83.0218 148.071 83.1344C148.409 83.4974 148.747 83.8603 149.135 84.1482C149.223 84.2108 149.298 84.3359 149.323 84.4361C149.36 84.5237 149.335 84.6238 149.298 84.7114C149.273 84.7865 149.21 84.8491 149.16 84.8992C148.684 85.3748 148.209 85.8504 147.733 86.326C147.508 86.5262 147.308 86.7265 147.095 86.9392C146.482 87.5525 145.868 88.1658 145.268 88.7916C145.255 88.779 144.053 90.0306 143.428 90.6314ZM150.471 98.0506C150.309 98.2884 150.083 98.4386 149.808 98.5387C149.195 98.7515 148.557 98.9142 147.918 99.0268C147.543 99.0769 147.18 99.0394 146.829 98.8641C146.579 98.739 146.329 98.6389 146.078 98.5137C145.928 98.4386 145.753 98.3385 145.653 98.2133C145.127 97.6126 144.652 96.9868 144.339 96.2483C144.164 95.8729 144.076 95.4849 144.138 95.0468C144.164 94.7464 144.113 94.4461 144.126 94.1582C144.138 93.9454 144.176 93.7327 144.226 93.5324C144.264 93.3697 144.451 93.2821 144.602 93.3322C145.252 93.4823 145.891 93.6701 146.554 93.8328C146.779 93.8829 146.892 94.0205 146.892 94.2458C146.904 94.4836 146.917 94.7214 146.904 94.9592C146.879 95.4598 147.092 95.8228 147.468 96.1232C147.505 96.1357 147.518 96.1482 147.53 96.1607C147.931 96.4361 148.444 96.2483 148.519 95.7477C148.557 95.4348 148.519 95.1219 148.481 94.809C148.469 94.5963 148.381 94.3835 148.306 94.1832C147.993 93.0443 147.781 91.8803 147.781 90.6788C147.781 89.7777 148.156 89.0518 148.807 88.451C149.145 88.1131 149.558 87.8753 150.033 87.7751C150.434 87.7001 150.847 87.5874 151.247 87.5123C151.61 87.4497 151.961 87.4998 152.286 87.65C152.474 87.7376 152.662 87.8502 152.837 87.9754C153.2 88.2382 153.538 88.5011 153.801 88.6888C154.164 89.0768 154.389 89.4272 154.539 89.8027C154.727 90.2908 154.865 90.7789 155.04 91.2545C155.14 91.5549 155.14 91.8553 155.102 92.1432C155.065 92.5061 154.977 92.8691 154.89 93.232C154.852 93.3947 154.727 93.4698 154.564 93.4323C154.376 93.3947 154.189 93.3572 154.001 93.2696C153.625 93.0944 153.237 92.9567 152.824 92.8941C152.737 92.8816 152.637 92.8566 152.549 92.819C152.349 92.7689 152.299 92.6688 152.324 92.4686C152.336 92.3059 152.386 92.1557 152.386 92.0055C152.411 91.5299 152.286 91.1043 151.986 90.7289C151.861 90.5787 151.711 90.4535 151.523 90.3909C151.323 90.2908 151.122 90.3159 150.947 90.416C150.684 90.5787 150.509 90.804 150.471 91.1169C150.446 91.4423 150.459 91.7552 150.559 92.0555C150.672 92.3684 150.772 92.6939 150.884 93.0067C150.972 93.3196 151.072 93.62 151.147 93.9204C151.26 94.3084 151.31 94.6839 151.31 95.0844C151.298 95.4473 151.323 95.7978 151.323 96.1482C151.335 96.3109 151.31 96.4611 151.26 96.6113C151.085 97.137 150.784 97.6126 150.471 98.0506ZM100.173 70.7677C99.8228 71.3434 99.3221 71.7689 98.7339 72.0568C98.5211 72.1444 98.2708 72.1945 98.0455 72.2195C96.819 72.3447 95.7426 71.9942 94.829 71.1807C94.5786 70.9554 94.3659 70.6926 94.0905 70.4923C93.4022 69.9542 92.8264 69.3033 92.2132 68.6901C91.8127 68.3146 91.4122 67.9391 91.0242 67.5511C90.461 67.0129 90.5486 66.9754 90.9991 66.5248C91.2244 66.3246 91.4372 66.1118 91.6374 65.9116C91.8001 65.7739 91.9754 65.6237 92.1381 65.486C92.5261 65.1481 92.889 64.8102 93.1894 64.3846C93.6024 63.8465 94.0905 63.3834 94.6162 62.9829C94.9792 62.695 95.3046 62.3946 95.5674 62.0066C95.7426 61.7563 95.9679 61.531 96.1932 61.3057C96.7939 60.705 97.3947 60.1042 97.9829 59.516C98.2082 59.2907 98.446 59.0779 98.6838 58.8652C98.7464 58.8026 98.8215 58.7275 98.9091 58.6899C99.247 58.4521 99.3346 58.4647 99.635 58.74C100.023 59.128 100.398 59.5285 100.812 59.9165C101.024 60.1293 101.275 60.3295 101.512 60.5423C101.587 60.6174 101.663 60.6674 101.725 60.7551C102.088 61.2932 102.564 61.7438 103.039 62.1944C103.915 63.0204 104.266 64.0467 104.241 65.2232C104.241 65.2983 104.253 65.3859 104.228 65.461C103.991 66.1494 103.74 66.8252 103.202 67.3634C102.977 67.5887 102.714 67.7514 102.426 67.864C102.176 67.9641 101.938 68.0267 101.688 68.1018C101.6 68.1394 101.487 68.1519 101.4 68.1894C101.137 68.3271 100.924 68.5148 100.887 68.8528C100.824 69.5662 100.536 70.1794 100.173 70.7677ZM99.4097 62.5949C99.0843 62.8702 98.809 63.1706 98.5211 63.4585C98.3834 63.5961 98.396 63.7839 98.446 63.9591C98.4836 64.0217 98.5211 64.1093 98.5587 64.1719C98.8716 64.5599 99.2345 64.8978 99.6726 65.1356C100.061 65.3483 100.461 65.3233 100.749 65.0104C100.837 64.9228 100.912 64.8477 100.999 64.7601C101.312 64.3971 101.35 64.0342 101.087 63.6212C100.937 63.4209 100.586 63.0454 100.574 63.058C100.449 62.9328 100.323 62.8076 100.198 62.6825C100.173 62.6575 100.148 62.6324 100.111 62.6199C99.8603 62.4447 99.635 62.4197 99.4097 62.5949ZM97.3822 69.1782C97.595 68.9904 97.7827 68.8027 97.9829 68.6025C98.1707 68.4147 98.2207 68.1644 98.1832 67.9016C98.1331 67.6763 98.0455 67.4885 97.8703 67.3384C97.4823 66.9504 97.0943 66.5624 96.7063 66.1744C96.6688 66.1368 96.6187 66.0868 96.5812 66.0492C96.3934 65.9116 96.1556 65.874 95.9929 66.0367C95.5924 66.4122 95.217 66.8127 94.829 67.2007C94.7914 67.2382 94.7789 67.2758 94.7664 67.3133C94.6788 67.5011 94.6663 67.6888 94.7914 67.864C94.8665 67.9892 94.9291 68.1018 95.0292 68.2019C95.1544 68.3521 95.3046 68.4773 95.4422 68.615C95.63 68.8027 95.7927 68.9904 95.9804 69.1531C96.3559 69.4786 96.8315 69.6037 97.3822 69.1782ZM106.204 80.0525C105.891 80.4155 105.553 80.7534 105.228 81.0788C105.027 81.2541 104.84 81.2666 104.627 81.1039C104.402 80.9036 104.189 80.7159 103.976 80.5031C103.238 79.7897 102.512 79.0638 101.786 78.3379C101.536 78.0625 101.298 77.7747 101.06 77.4868C100.797 77.1739 100.534 76.8861 100.209 76.6608C99.8585 76.4105 99.5456 76.0976 99.2702 75.7721C99.095 75.5719 99.1075 75.3842 99.2702 75.1714C99.5456 74.846 99.8209 74.5206 100.121 74.1952C100.347 73.9448 100.572 73.7196 100.872 73.5443C101.035 73.4317 101.16 73.2815 101.298 73.1438C101.673 72.7934 102.036 72.4304 102.399 72.0675C102.649 71.7921 102.9 71.5168 103.15 71.2164C103.638 70.6282 104.151 70.0649 104.777 69.6144C105.253 69.289 105.653 68.8634 105.991 68.4003C106.367 67.8747 106.842 67.4742 107.368 67.1237C107.568 66.9735 107.768 66.9986 107.981 67.1362C108.332 67.3866 108.695 67.6244 108.907 68.0124C109.007 68.1625 109.145 68.2752 109.245 68.4254C109.333 68.563 109.37 68.7258 109.245 68.8759C109.145 69.0011 109.07 69.1513 108.97 69.2514C108.169 70.0775 107.368 70.9035 106.517 71.7546C105.791 72.4805 105.015 73.2314 104.239 73.9824C104.089 74.1326 103.901 74.2452 103.738 74.4079C103.488 74.6332 103.238 74.8585 103.012 75.0838C102.7 75.4217 102.687 75.6845 103.012 76.035C103.463 76.5106 103.914 76.9611 104.377 77.4242C104.965 78.0375 105.578 78.6257 106.166 79.239C106.479 79.5519 106.492 79.7146 106.204 80.0525ZM116.829 84.7202C116.629 84.9706 116.404 85.1708 116.116 85.3335C115.853 85.4962 115.615 85.709 115.352 85.8967C115.252 85.9718 115.115 86.0344 114.989 86.0845C114.651 86.2221 114.301 86.3473 113.951 86.4975C113.512 86.7103 113.049 86.7979 112.586 86.8354C112.311 86.8604 112.023 86.8229 111.76 86.7603C111.247 86.6477 110.721 86.5225 110.208 86.3598C109.958 86.2847 109.695 86.147 109.482 85.9843C108.944 85.5964 108.531 85.1082 108.243 84.495C107.868 83.719 107.743 82.8929 107.693 82.0419C107.63 81.3785 107.743 80.7402 108.056 80.152C108.256 79.7515 108.444 79.3385 108.644 78.938C108.857 78.4999 109.17 78.1369 109.47 77.7865C109.583 77.6488 109.708 77.5237 109.833 77.3985C110.133 77.0481 110.471 76.7602 110.872 76.5349C111.172 76.3597 111.46 76.197 111.735 76.0218C112.023 75.8591 112.311 75.7464 112.624 75.7089C113.212 75.6213 113.8 75.5086 114.389 75.421C114.639 75.371 114.889 75.396 115.14 75.446C115.84 75.5962 116.516 75.8215 117.13 76.2095C117.392 76.3722 117.618 76.5725 117.83 76.8353C118.268 77.4235 118.594 78.0744 118.882 78.7377C119.044 79.1257 119.107 79.5387 119.019 79.9517C118.944 80.3773 118.894 80.8278 118.819 81.2534C118.769 81.4536 118.707 81.6664 118.631 81.8666C118.544 82.1545 118.444 82.4299 118.356 82.7177C118.306 82.8679 118.243 83.0056 118.143 83.1307C117.693 83.6564 117.28 84.1946 116.829 84.7202ZM115.415 82.2046C115.765 81.9543 116.016 81.4036 116.141 80.8028C116.191 80.6026 116.228 80.4148 116.278 80.2146C116.391 79.7765 116.291 79.351 116.103 78.963C115.853 78.4123 115.415 78.0994 114.839 78.0243C114.101 77.9367 113.412 78.0744 112.824 78.5374C112.474 78.8128 112.098 79.0631 111.735 79.351C111.535 79.5012 111.335 79.6764 111.197 79.8892C110.984 80.177 110.822 80.5149 110.634 80.8529C110.559 81.0031 110.509 81.1783 110.484 81.3535C110.421 81.5913 110.384 81.8541 110.333 82.1044C110.221 82.8178 110.521 83.4436 111.16 83.7816C111.585 84.0068 112.011 84.107 112.486 84.0068C112.649 83.9693 112.824 83.9443 112.999 83.9192C113.25 83.8441 113.487 83.7565 113.7 83.6189C114.251 83.2184 114.764 82.8053 115.415 82.2046ZM123.424 93.7178C123.048 94.0933 122.66 94.4563 122.297 94.8443C121.984 95.1572 121.609 95.3073 121.183 95.3073C120.745 95.3199 120.32 95.3199 119.882 95.3324C119.656 95.3324 119.444 95.2448 119.256 95.1572C118.855 94.9819 118.467 94.7942 118.079 94.6065C117.967 94.5439 117.842 94.4688 117.742 94.3687C117.491 94.1183 117.241 93.868 117.028 93.5802C116.84 93.3173 116.678 93.0545 116.553 92.7541C116.202 91.9281 116.002 91.077 116.127 90.1759C116.177 89.8755 116.19 89.5876 116.215 89.2872C116.24 88.9118 116.352 88.5488 116.528 88.2234C116.916 87.51 117.329 86.8216 117.829 86.1708C118.092 85.8079 118.48 85.545 118.868 85.3072C119.644 84.8066 120.495 84.4311 121.346 84.0807C121.847 83.8554 122.36 83.7678 122.911 83.8429C123.136 83.8679 123.374 83.8554 123.611 83.8679C123.862 83.8929 124.125 83.9055 124.362 83.9931C124.851 84.1558 125.301 84.4061 125.727 84.6814C125.777 84.7065 125.802 84.7315 125.827 84.7565C126.302 85.3823 126.853 85.958 127.166 86.6965C127.391 87.2221 127.491 87.7478 127.404 88.311C127.366 88.5738 127.354 88.8617 127.329 89.1371C127.316 89.2747 127.304 89.4124 127.279 89.5376C127.229 89.8379 127.091 89.9256 126.778 89.913C126.277 89.863 125.814 89.7503 125.351 89.5626C125.188 89.5 125.063 89.4249 124.951 89.3123C124.876 89.2122 124.813 89.1245 124.813 88.9994C124.813 88.7491 124.8 88.5113 124.826 88.286C124.851 87.5851 124.3 86.9843 123.749 86.7841C123.499 86.684 123.223 86.6339 122.948 86.6339C122.46 86.6214 122.009 86.7215 121.559 86.8467C121.221 86.9343 120.971 87.1846 120.72 87.3848C120.37 87.6602 120.082 87.9731 119.757 88.2735C119.531 88.4737 119.381 88.724 119.268 89.0119C119.031 89.6001 118.868 90.2134 118.818 90.8392C118.768 91.4149 118.981 91.878 119.506 92.1784C119.744 92.291 120.007 92.4037 120.27 92.4913C120.545 92.5914 120.82 92.5414 121.021 92.3161C121.309 92.0282 121.584 91.7529 121.834 91.4525C122.034 91.2272 122.034 91.052 121.859 90.8267C121.722 90.639 121.559 90.5013 121.409 90.3511C120.783 89.7503 120.958 89.6001 121.284 89.0745C121.509 88.699 121.847 88.4111 122.247 88.2109C122.397 88.1358 122.548 88.1608 122.685 88.2735C122.735 88.3235 122.798 88.3611 122.861 88.4237C123.249 88.8116 124.037 89.5751 124.037 89.5751C124.425 89.9631 124.8 90.3386 125.176 90.714C125.226 90.7641 125.289 90.8267 125.326 90.8893C125.614 91.2022 125.539 91.5776 125.326 91.7904C125.138 91.9781 124.951 92.1659 124.738 92.3036C124.425 92.5163 124.175 92.7666 123.962 93.0795C123.799 93.3173 123.624 93.5176 123.424 93.7178Z" fill="white"/>
</svg>
