<svg width="176" height="176" viewBox="0 0 176 176" fill="none" xmlns="http://www.w3.org/2000/svg">
<g clip-path="url(#clip0_2006_4905)">
<path d="M176 0H0L176 176V0Z" fill="#312922"/>
<path d="M130.915 28.9626C131.253 29.3756 131.253 29.4007 130.865 29.7887C130.577 30.0765 130.301 30.3519 130.026 30.6272C129.951 30.7023 129.888 30.7649 129.813 30.84C129.651 30.9777 129.5 31.0027 129.338 30.865C129.087 30.6397 128.85 30.4019 128.612 30.1641C128.387 29.9389 128.186 29.7136 127.949 29.5008C127.773 29.3256 127.536 29.3131 127.36 29.4633C127.16 29.6134 126.96 29.7887 126.785 29.9639C125.908 30.8901 124.97 31.7286 124.119 32.6548C123.518 33.2555 122.917 33.8563 122.316 34.4571C121.941 34.8325 121.553 35.1955 121.177 35.571C121.102 35.621 121.052 35.6961 120.99 35.7337C120.577 35.9965 120.514 35.984 120.189 35.6335C120.139 35.5835 120.076 35.5209 120.039 35.4583C119.876 35.1705 119.651 34.9702 119.375 34.795C119.225 34.6698 119.087 34.5322 118.95 34.3945C118.812 34.2568 118.812 34.0566 118.937 33.9064C119.037 33.7812 119.137 33.656 119.238 33.5559C119.663 33.1554 120.076 32.7674 120.477 32.3669C121.253 31.5659 122.029 30.7899 122.817 30.0014C122.992 29.8012 123.218 29.626 123.43 29.4633C123.731 29.238 124.019 28.9751 124.244 28.6998C124.482 28.3869 124.744 28.1241 124.995 27.8487C125.045 27.7987 125.095 27.7236 125.145 27.6735C125.495 27.3481 125.483 27.0102 125.183 26.6347C125.007 26.4094 124.807 26.2342 124.619 26.0214C124.444 25.8462 124.244 25.671 124.081 25.4832C123.856 25.2079 123.856 25.0827 124.119 24.8199C124.457 24.4569 124.82 24.119 125.183 23.7811C125.358 23.6059 125.508 23.6059 125.683 23.7811C126.046 24.1691 126.472 24.4945 126.835 24.9075C127.022 25.1453 127.285 25.333 127.536 25.5333C127.711 25.6585 127.873 25.7961 127.999 25.9714C128.274 26.3719 128.612 26.7098 129 26.9726C129.15 27.0978 129.288 27.2354 129.4 27.3982C129.626 27.6985 129.888 27.9864 130.201 28.1992C130.402 28.3243 130.564 28.487 130.689 28.6873C130.765 28.7874 130.852 28.875 130.915 28.9626ZM131.011 44.1282C130.749 44.4662 130.423 44.7666 130.123 45.0669C130.023 45.1671 129.872 45.1671 129.747 45.0669C129.647 44.9918 129.572 44.9167 129.497 44.8166C129.109 44.4286 128.734 44.0031 128.283 43.7027C128.208 43.6526 128.158 43.6026 128.108 43.5275C128.02 43.4399 128.008 43.3272 128.058 43.2021C128.183 42.9267 128.383 42.7014 128.633 42.5262C129.159 42.1758 129.61 41.7252 130.023 41.2621C130.448 40.8116 130.836 40.3485 131.237 39.8729C131.387 39.7227 131.399 39.535 131.299 39.3347C131.024 38.759 130.623 38.2834 130.123 37.8829C129.897 37.6826 129.622 37.6826 129.359 37.8453C128.771 38.1832 128.283 38.6463 127.895 39.2095C127.795 39.3597 127.657 39.5224 127.519 39.6601C127.157 40.0231 126.781 40.3735 126.418 40.7365C126.318 40.8116 126.218 40.9117 126.093 40.9868C125.805 41.1745 125.717 41.162 125.479 40.9242C125.292 40.7615 125.104 40.5738 124.929 40.3985L124.954 40.3735C124.728 40.1482 124.491 39.9355 124.278 39.6977C124.065 39.4599 124.065 39.2846 124.253 39.0218C124.278 38.9717 124.303 38.9467 124.328 38.9217C124.716 38.4836 125.104 38.0205 125.504 37.595C125.705 37.3697 125.93 37.1945 126.168 37.0068C126.794 36.5061 127.369 35.9304 127.857 35.2921C128.083 34.9917 128.32 34.7539 128.608 34.5411C129.109 34.1907 129.535 33.7401 129.948 33.2771C130.21 32.9642 130.498 32.6763 130.824 32.4009C131.162 32.0881 131.499 31.7501 131.837 31.4122C132 31.2745 132.175 31.1494 132.338 31.0117C132.513 30.8365 132.701 30.8991 132.876 30.9992C132.976 31.0743 133.064 31.1619 133.139 31.237C133.427 31.4748 133.715 31.7126 134.003 31.9754C134.09 32.038 134.19 32.1131 134.253 32.2007C134.428 32.426 134.428 32.5511 134.278 32.8015C134.128 33.0518 133.928 33.2771 133.677 33.4523C133.352 33.6776 133.076 33.9529 132.801 34.2283C132.488 34.5411 132.188 34.8415 131.875 35.1544C131.775 35.2546 131.675 35.3547 131.6 35.4548C131.474 35.63 131.462 35.8428 131.587 36.018C131.837 36.3935 132.113 36.7439 132.501 37.0068C132.714 37.1444 132.914 37.3197 133.127 37.4573C133.49 37.6951 133.602 37.6826 133.89 37.3948C134.028 37.2821 134.14 37.1444 134.278 37.0068C134.566 36.7189 134.854 36.431 135.192 36.1932C135.53 35.9304 135.817 35.5925 136.13 35.2796C136.23 35.1795 136.306 35.0793 136.418 34.9917C136.581 34.854 136.731 34.854 136.894 34.9917C137.044 35.1169 137.182 35.2546 137.332 35.3797C137.47 35.4923 137.607 35.605 137.745 35.7176C137.92 35.8678 138.108 36.0305 138.258 36.2057C138.496 36.4435 138.496 36.6188 138.283 36.8816C138.22 36.9692 138.158 37.0318 138.07 37.0944C137.745 37.2946 137.495 37.57 137.232 37.8328C136.831 38.2333 136.393 38.6213 136.03 39.0594C135.605 39.61 135.104 40.0856 134.616 40.5738C134.453 40.7365 134.265 40.8741 134.09 41.0243C133.928 41.162 133.777 41.2872 133.64 41.4248C133.177 41.913 132.663 42.351 132.288 42.9017C132.213 43.0018 132.113 43.0769 132.025 43.1395C131.625 43.4148 131.312 43.7528 131.011 44.1282ZM139.331 51.3717C139.356 51.4468 139.356 51.5219 139.344 51.6095C139.344 51.6345 139.306 51.672 139.281 51.6971C138.893 52.0851 138.493 52.4856 138.092 52.861C137.892 53.0613 137.692 53.0613 137.466 52.8861C137.416 52.861 137.366 52.811 137.329 52.7734C136.828 52.2728 136.327 51.7722 135.814 51.259C135.601 51.0713 135.401 50.846 135.188 50.6332C134.913 50.3579 134.613 50.1076 134.412 49.7571C134.35 49.6695 134.275 49.5944 134.212 49.5318C133.899 49.269 133.561 49.0062 133.286 48.7058C133.011 48.3804 132.76 48.055 132.435 47.8047C132.31 47.7045 132.21 47.5794 132.147 47.4417C132.059 47.279 132.085 47.1288 132.172 46.9911C132.172 46.9661 132.185 46.9536 132.197 46.9411C132.635 46.453 132.986 45.9023 133.486 45.4767C133.699 45.314 133.937 45.1513 134.125 44.9636C134.663 44.4755 135.201 43.9623 135.714 43.4492C136.252 42.911 136.778 42.3353 137.316 41.7971C137.804 41.309 138.33 40.8334 138.818 40.3452C139.269 39.8696 139.732 39.3815 140.195 38.8934C140.483 38.6056 140.708 38.5805 140.933 38.8809C141.409 39.5317 142.01 40.0324 142.548 40.6206C142.748 40.8208 142.923 41.0211 143.123 41.2214C143.424 41.4967 143.712 41.8096 144.037 42.0599C144.625 42.498 145.101 43.0487 145.627 43.5743C145.814 43.7621 145.952 43.9999 146.115 44.2377C146.202 44.3753 146.202 44.5255 146.115 44.6882C145.839 45.1388 145.476 45.5268 145.088 45.8897C145.038 45.9148 144.988 45.9648 144.926 45.9774C144.826 46.0274 144.7 46.0524 144.588 45.9648C144.475 45.8772 144.388 45.7896 144.275 45.702C144.075 45.5268 143.887 45.3641 143.699 45.2014C143.511 45.0136 143.324 44.8509 143.161 44.6382C142.886 44.2877 142.56 43.9623 142.197 43.6995C141.884 43.4617 141.609 43.1613 141.321 42.8985C141.183 42.7858 141.071 42.6482 140.921 42.548C140.733 42.4104 140.545 42.4229 140.37 42.5731C140.082 42.8359 139.794 43.0987 139.606 43.4617C139.519 43.6244 139.519 43.7996 139.619 43.9748C139.707 44.0875 139.782 44.2377 139.894 44.3503C140.107 44.5631 140.32 44.7758 140.545 44.9511C141.008 45.289 141.421 45.702 141.809 46.115C142.01 46.3153 142.185 46.5656 142.347 46.8034C142.473 46.9786 142.448 47.1288 142.31 47.2915C142.297 47.304 142.285 47.3165 142.272 47.3291C141.922 47.6795 141.571 48.0299 141.221 48.3804C141.058 48.5431 140.858 48.5431 140.695 48.4054C140.583 48.3178 140.483 48.2177 140.382 48.1176C140.22 47.9799 140.07 47.8297 139.894 47.7045C139.306 47.2665 138.793 46.7533 138.342 46.1526C138.205 45.9899 138.055 45.8397 137.879 45.7145C137.667 45.5518 137.416 45.5518 137.216 45.727C136.74 46.1776 136.227 46.6157 135.864 47.2039C135.752 47.3666 135.727 47.5168 135.852 47.692C136.002 47.9173 136.152 48.1426 136.352 48.3428C136.803 48.8184 137.742 49.7071 137.742 49.7071C138.242 50.2077 138.743 50.7334 139.231 51.2465C139.269 51.284 139.331 51.3216 139.331 51.3717ZM104.891 43.7013C104.866 43.7514 104.828 43.7889 104.778 43.839C104.728 43.9141 104.578 43.9391 104.515 43.8765C104.052 43.4135 103.602 42.9629 103.139 42.4998C102.976 42.3371 103.001 42.1369 103.088 41.9491C103.239 41.6738 103.389 41.3984 103.539 41.1231C103.664 40.8978 103.777 40.66 103.864 40.4222C104.002 40.0843 103.952 39.7589 103.677 39.5085C103.351 39.1831 103.013 38.8702 102.688 38.5699C102.413 38.3195 102.112 38.0943 101.849 37.8314C101.599 37.5811 101.336 37.5185 101.036 37.6437C100.648 37.8314 100.26 38.0192 99.8594 38.1944C99.7092 38.2695 99.5966 38.3571 99.4339 38.4197C99.2837 38.4697 99.121 38.4572 98.9958 38.3321C98.5828 37.919 98.1572 37.5185 97.7317 37.093C97.6816 37.0429 97.6316 36.9678 97.594 36.9053C97.544 36.8302 97.5815 36.6925 97.6566 36.6424C97.7192 36.5798 97.7818 36.5423 97.8443 36.5047C98.733 35.9916 99.6216 35.4784 100.51 34.9653C100.823 34.8026 101.149 34.6524 101.474 34.5273C101.837 34.3896 102.187 34.2144 102.513 33.9891C102.851 33.7763 103.189 33.5886 103.539 33.3883C104.077 33.1004 104.59 32.7625 105.129 32.4747C106.067 31.9615 107.018 31.4358 108.007 30.9978C108.07 30.9602 108.145 30.9352 108.232 30.8977C108.458 30.7975 108.671 30.8351 108.833 30.9978C109.121 31.2606 109.384 31.5485 109.747 31.9114C109.86 31.9991 110.047 32.1618 110.235 32.3495C110.335 32.4496 110.448 32.5372 110.523 32.6374C110.686 32.8251 110.723 33.0379 110.598 33.2381C110.31 33.7513 110.097 34.3145 109.772 34.8151C109.634 35.0029 109.509 35.2031 109.421 35.4159C109.146 35.9916 108.846 36.5423 108.533 37.0805C108.483 37.1556 108.458 37.2307 108.42 37.2932C108.17 37.9691 107.794 38.5699 107.431 39.1831C107.306 39.3834 107.206 39.5836 107.106 39.8089C106.931 40.2845 106.668 40.7226 106.405 41.1606C106.105 41.6613 105.817 42.1494 105.529 42.6375C105.316 43.0004 105.104 43.3384 104.891 43.7013ZM104.553 37.9315C104.778 38.1068 105.053 38.0817 105.229 37.8815C105.304 37.7814 105.354 37.6812 105.416 37.5686C105.542 37.3433 105.642 37.118 105.792 36.9178C106.105 36.4797 106.255 35.954 106.48 35.4784C106.518 35.4159 106.53 35.3283 106.543 35.2657C106.568 35.0404 106.38 34.8777 106.167 34.9403C106.08 34.9528 105.992 34.9903 105.892 35.0154C105.154 35.3032 104.515 35.7913 103.802 36.1293C103.777 36.1543 103.752 36.1793 103.727 36.2044C103.489 36.3921 103.426 36.6299 103.602 36.8802C103.752 37.1055 103.952 37.3058 104.04 37.4184C104.252 37.6312 104.353 37.7313 104.465 37.8439C104.503 37.8815 104.528 37.9065 104.553 37.9315ZM116.81 45.7577C116.747 45.8704 116.647 45.9455 116.572 46.0206C115.971 46.6213 115.37 47.2221 114.77 47.8228C114.607 47.9855 113.368 48.9993 113.218 49.0744C112.654 49.4123 112.054 49.5876 111.403 49.4624C110.915 49.3748 110.439 49.2747 109.963 49.1495C109.776 49.112 109.575 49.0118 109.438 48.8992C108.674 48.2609 108.024 47.5099 107.51 46.6714C107.348 46.4336 107.273 46.1833 107.26 45.8954C107.273 45.5324 107.26 45.1945 107.248 44.8316C107.235 44.2183 107.46 43.6676 107.798 43.1795C108.036 42.8165 108.324 42.4786 108.612 42.1657C109.263 41.4398 110.001 40.8265 110.652 40.1006C110.789 39.9379 110.952 39.8002 111.115 39.6375C111.115 39.6375 112.542 38.2357 113.255 37.5223C113.518 37.2595 113.768 36.9842 114.056 36.7213C114.269 36.5336 114.407 36.5461 114.632 36.7213C115.007 37.0467 115.383 37.3721 115.733 37.6976C115.871 37.8352 116.021 37.9854 116.109 38.1481C116.234 38.3233 116.184 38.5737 116.009 38.6738C115.633 38.8991 115.345 39.237 115.045 39.5374C114.732 39.8503 114.407 40.1256 114.119 40.4635C113.718 40.9391 113.255 41.3772 112.792 41.7902C112.429 42.1281 112.079 42.4786 111.741 42.8415C111.29 43.3171 110.852 43.8303 110.402 44.3309C110.076 44.6814 109.988 45.1194 110.189 45.595C110.439 46.2458 110.902 46.5587 111.603 46.5337C112.316 46.4962 112.842 46.1457 113.205 45.5575C113.593 44.9192 114.169 44.4686 114.719 43.993C115.057 43.7051 115.42 43.4423 115.658 43.0293C115.708 42.9542 115.783 42.8791 115.846 42.8165C116.159 42.5036 116.459 42.2032 116.772 41.8903C116.86 41.8027 116.935 41.7276 117.047 41.6651C117.285 41.5274 117.485 41.3522 117.623 41.0893C117.673 41.0142 117.736 40.9266 117.798 40.8641C118.074 40.6137 118.362 40.5762 118.662 40.8015C118.925 40.9892 119.2 41.1895 119.438 41.4273C119.663 41.6525 119.838 41.9029 120.026 42.1657C120.114 42.2783 120.089 42.4786 119.976 42.5912C119.801 42.7665 119.638 42.9292 119.45 43.0668C118.987 43.4298 118.599 43.8428 118.224 44.2683C118.124 44.3685 118.049 44.4686 117.936 44.5562C117.523 44.9192 117.097 45.2696 116.81 45.7577ZM121.143 55.7229C120.98 55.9607 120.755 56.1109 120.479 56.2111C119.866 56.4238 119.228 56.5865 118.589 56.6992C118.214 56.7492 117.851 56.7117 117.501 56.5365C117.25 56.4113 117 56.3112 116.75 56.186C116.599 56.1109 116.424 56.0108 116.324 55.8856C115.798 55.2849 115.323 54.6591 115.01 53.9207C114.835 53.5452 114.747 53.1572 114.81 52.7191C114.835 52.4188 114.785 52.1184 114.797 51.8305C114.81 51.6178 114.847 51.405 114.897 51.2047C114.935 51.042 115.123 50.9544 115.273 51.0045C115.924 51.1547 116.562 51.3424 117.225 51.5051C117.451 51.5552 117.563 51.6929 117.563 51.9181C117.576 52.1559 117.588 52.3937 117.576 52.6315C117.551 53.1322 117.763 53.4951 118.139 53.7955C118.176 53.808 118.189 53.8205 118.201 53.8331C118.602 54.1084 119.115 53.9207 119.19 53.42C119.228 53.1071 119.19 52.7942 119.153 52.4813C119.14 52.2686 119.053 52.0558 118.977 51.8556C118.665 50.7166 118.452 49.5527 118.452 48.3511C118.452 47.45 118.827 46.7241 119.478 46.1233C119.816 45.7854 120.229 45.5476 120.705 45.4475C121.105 45.3724 121.518 45.2597 121.919 45.1846C122.282 45.1221 122.632 45.1721 122.957 45.3223C123.145 45.4099 123.333 45.5226 123.508 45.6477C123.871 45.9106 124.209 46.1734 124.472 46.3611C124.835 46.7491 125.06 47.0996 125.21 47.475C125.398 47.9631 125.536 48.4513 125.711 48.9269C125.811 49.2272 125.811 49.5276 125.774 49.8155C125.736 50.1784 125.648 50.5414 125.561 50.9044C125.523 51.0671 125.398 51.1422 125.235 51.1046C125.048 51.0671 124.86 51.0295 124.672 50.9419C124.297 50.7667 123.909 50.629 123.496 50.5664C123.408 50.5539 123.308 50.5289 123.22 50.4913C123.02 50.4413 122.97 50.3411 122.995 50.1409C123.008 49.9782 123.058 49.828 123.058 49.6778C123.083 49.2022 122.957 48.7767 122.657 48.4012C122.532 48.251 122.382 48.1259 122.194 48.0633C121.994 47.9631 121.794 47.9882 121.618 48.0883C121.355 48.251 121.18 48.4763 121.143 48.7892C121.118 49.1146 121.13 49.4275 121.23 49.7279C121.343 50.0408 121.443 50.3662 121.556 50.6791C121.643 50.992 121.743 51.2923 121.819 51.5927C121.931 51.9807 121.981 52.3562 121.981 52.7567C121.969 53.1197 121.994 53.4701 121.994 53.8205C122.006 53.9832 121.981 54.1334 121.931 54.2836C121.756 54.8093 121.456 55.2849 121.143 55.7229ZM133.732 55.8215C134.07 56.2345 134.07 56.2596 133.682 56.6475C133.394 56.9354 133.119 57.2108 132.843 57.4861C132.768 57.5612 132.706 57.6238 132.631 57.6989C132.468 57.8365 132.318 57.8616 132.155 57.7239C131.905 57.4986 131.667 57.2608 131.429 57.023C131.204 56.7977 131.004 56.5724 130.766 56.3597C130.591 56.1845 130.353 56.1719 130.178 56.3221C129.977 56.4723 129.777 56.6475 129.602 56.8228C128.726 57.7489 127.787 58.5875 126.936 59.5137C126.335 60.1144 125.734 60.7152 125.134 61.3159C124.758 61.6914 124.37 62.0544 123.995 62.4298C123.92 62.4799 123.87 62.555 123.807 62.5925C123.394 62.8554 123.331 62.8429 123.006 62.4924C122.956 62.4424 122.893 62.3798 122.856 62.3172C122.693 62.0293 122.468 61.8291 122.192 61.6539C122.042 61.5287 121.905 61.391 121.767 61.2534C121.629 61.1157 121.629 60.9154 121.754 60.7652C121.855 60.6401 121.955 60.5149 122.055 60.4148C122.48 60.0143 122.893 59.6263 123.294 59.2258C124.07 58.4248 124.846 57.6488 125.634 56.8603C125.81 56.6601 126.035 56.4848 126.248 56.3221C126.548 56.0968 126.836 55.834 127.061 55.5587C127.299 55.2458 127.562 54.9829 127.812 54.7076C127.862 54.6575 127.912 54.5824 127.962 54.5324C128.313 54.207 128.3 53.869 128 53.4936C127.825 53.2683 127.624 53.0931 127.437 52.8803C127.261 52.7051 127.061 52.5298 126.898 52.3421C126.673 52.0668 126.673 51.9416 126.936 51.6788C127.274 51.3158 127.637 50.9779 128 50.64C128.175 50.4647 128.325 50.4647 128.5 50.64C128.863 51.028 129.289 51.3534 129.652 51.7664C129.84 52.0042 130.102 52.1919 130.353 52.3922C130.528 52.5173 130.691 52.655 130.816 52.8302C131.091 53.2307 131.429 53.5687 131.817 53.8315C131.967 53.9566 132.105 54.0943 132.218 54.257C132.443 54.5574 132.706 54.8453 133.019 55.058C133.219 55.1832 133.382 55.3459 133.507 55.5462C133.582 55.6463 133.669 55.7339 133.732 55.8215ZM132.101 64.7042C132.001 64.8544 131.876 65.0046 131.726 65.0797C131.2 65.38 130.825 65.8556 130.449 66.3062C130.349 66.4314 130.249 66.5315 130.124 66.6316C129.736 66.9695 129.386 67.345 129.01 67.6955C128.91 67.7956 128.81 67.8957 128.697 67.9583C128.647 67.9833 128.534 67.9958 128.484 67.9458C128.334 67.8206 128.184 67.6955 128.071 67.5328C127.846 67.2073 127.571 66.932 127.233 66.7192C127.145 66.6567 127.058 66.569 126.97 66.4814C126.82 66.3062 126.795 66.131 126.97 65.9558C127.145 65.7305 127.37 65.5302 127.583 65.3175C128.021 64.8794 128.472 64.4288 128.922 63.9783C129.348 63.5527 129.786 63.1147 130.212 62.6891C130.212 62.6891 132.126 60.7993 133.053 59.823C133.403 59.4476 133.779 59.0721 134.179 58.7216C134.442 58.4838 134.68 58.221 134.93 57.9707C135.005 57.8956 135.068 57.833 135.143 57.7579C135.318 57.6077 135.493 57.5827 135.681 57.7204C135.844 57.833 136.006 57.9457 136.119 58.1084C136.357 58.4713 136.645 58.8093 136.945 59.1096C136.995 59.1597 137.02 59.2098 137.045 59.2598C137.12 59.385 137.133 59.5227 137.033 59.6478C136.933 59.7479 136.832 59.8481 136.745 59.9607C136.307 60.4238 135.906 60.9244 135.381 61.3249C135.093 61.5627 134.867 61.8631 134.63 62.151C134.292 62.539 133.929 62.9019 133.541 63.2398C133.015 63.6904 132.489 64.141 132.101 64.7042ZM139.216 73.4209C138.54 74.0466 137.939 74.7225 137.301 75.3608C137.189 75.4734 137.063 75.5736 136.938 75.6737C136.7 75.8364 136.513 75.8239 136.312 75.6236C136.225 75.536 136.137 75.4484 136.062 75.3733C135.837 75.148 135.624 74.9102 135.336 74.7726C135.211 74.6975 135.123 74.5848 135.023 74.4847C134.823 74.3095 134.773 74.0592 134.811 73.7963C134.823 73.7087 134.848 73.6336 134.873 73.5585C135.098 72.9828 135.261 72.3946 135.549 71.8564C135.737 71.5184 135.887 71.143 135.987 70.7675C136.05 70.5297 136.162 70.2919 136.275 70.0541C136.425 69.6536 136.6 69.2531 136.75 68.8526C136.788 68.765 136.813 68.6899 136.826 68.6273C136.851 68.4771 136.876 68.352 136.775 68.2268C136.688 68.1392 136.525 68.1517 136.337 68.2643C135.887 68.5147 135.536 68.8401 135.249 69.2531C135.111 69.4659 134.923 69.6536 134.76 69.8413C134.485 70.1167 134.21 70.392 133.972 70.73C133.709 71.0929 133.321 71.3557 132.946 71.6061C132.733 71.7688 132.508 71.7437 132.295 71.581C132.057 71.3933 131.807 71.2431 131.594 71.0303C131.331 70.7675 131.118 70.4546 130.893 70.1542C130.856 70.0916 130.881 69.9665 130.918 69.8789C130.956 69.7913 131.031 69.7162 131.093 69.6536C131.456 69.2906 131.882 68.9903 132.145 68.5272C132.17 68.4771 132.22 68.4521 132.282 68.4145C132.996 67.9014 133.622 67.2756 134.135 66.5372C134.247 66.3995 134.372 66.2743 134.51 66.1617C135.148 65.6986 135.687 65.1104 136.2 64.5221C136.588 64.059 136.988 63.5834 137.489 63.233C137.689 63.1078 137.852 62.9201 138.015 62.7574C138.265 62.5321 138.49 62.2818 138.728 62.044C138.803 61.9689 138.866 61.9063 138.941 61.8312C139.191 61.631 139.391 61.6059 139.642 61.8062C140.067 62.1566 140.468 62.5321 140.806 62.9702C140.981 63.2205 141.018 63.4833 140.943 63.7587C140.831 64.2217 140.718 64.6848 140.593 65.1354C140.505 65.4233 140.405 65.6986 140.267 65.9614C140.092 66.3119 139.942 66.6874 139.879 67.0753C139.804 67.4508 139.604 67.7762 139.466 68.1142C139.379 68.3269 139.279 68.5021 139.279 68.7274C139.279 68.8776 139.316 68.9903 139.429 69.0278C139.529 69.0779 139.617 69.0403 139.704 68.9777C139.829 68.8776 139.942 68.765 140.042 68.6648C140.53 68.1767 141.031 67.6761 141.519 67.188C141.807 66.9001 142.082 66.5997 142.445 66.3619C142.658 66.1992 142.833 65.974 143.021 65.7862C143.096 65.7111 143.159 65.6485 143.246 65.586C143.334 65.5234 143.434 65.5234 143.509 65.5985C143.634 65.6986 143.747 65.8112 143.859 65.9239C144.197 66.2868 144.535 66.6498 144.923 66.9377C145.011 67.0002 145.086 67.1254 145.111 67.2255C145.149 67.3131 145.124 67.4133 145.086 67.5009C145.061 67.576 144.998 67.6386 144.948 67.6886C144.473 68.1642 143.997 68.6398 143.522 69.1154C143.296 69.3157 143.096 69.5159 142.883 69.7287C142.27 70.342 141.657 70.9552 141.056 71.581C141.043 71.5685 139.842 72.8201 139.216 73.4209ZM83.6986 46.1253C83.6235 46.2254 83.5234 46.3005 83.4483 46.3756C83.3356 46.4632 83.1729 46.4757 83.0603 46.3881C82.7224 46.1503 82.3844 45.8875 82.1341 45.6872C81.9589 45.487 81.8337 45.3618 81.7211 45.2241C81.5334 45.0114 81.4833 44.761 81.646 44.5232C82.1216 43.7723 82.4971 42.9713 83.0978 42.2954C83.198 42.1703 83.2856 42.0576 83.3732 41.92C83.611 41.5069 83.8237 41.0939 84.049 40.6684C84.0866 40.6308 84.1241 40.5683 84.1241 40.5182C84.1241 40.4431 84.1366 40.3555 84.0991 40.2929C84.0365 40.2053 83.9239 40.1928 83.8237 40.2428C83.4107 40.4556 82.9476 40.6183 82.5847 40.9062C82.2593 41.1815 81.9088 41.3818 81.5584 41.6071C81.0828 41.8824 80.6197 42.1953 80.1566 42.4832C79.9939 42.5958 79.8187 42.6959 79.656 42.7835C79.4933 42.8712 79.3306 42.8586 79.2179 42.721C78.7549 42.2579 78.2542 41.8323 77.9038 41.2817C77.7911 41.1189 77.7536 40.9562 77.8287 40.781C77.8913 40.6183 77.9664 40.4431 78.054 40.3054C78.3794 39.8298 78.7048 39.3542 79.0552 38.9037C79.5433 38.2904 79.8688 37.5645 80.2693 36.8886C80.3444 36.7885 80.3694 36.6383 80.4069 36.5006C80.432 36.3755 80.2818 36.2503 80.1316 36.2753C80.0565 36.3004 79.9814 36.3254 79.9188 36.3629C79.681 36.5507 79.4557 36.7259 79.2179 36.9136C79.0177 37.0638 78.8049 37.2265 78.5921 37.3642C77.9914 37.7147 77.4282 38.1527 76.8399 38.5657C76.5896 38.7409 76.3143 38.8911 76.0514 39.0538C75.9013 39.1289 75.7636 39.1164 75.6635 39.0163C75.1753 38.5782 74.6497 38.1777 74.2867 37.6396C74.2492 37.602 74.1991 37.5519 74.1866 37.4894C74.1741 37.4268 74.1741 37.3267 74.2241 37.2766C74.3618 37.1139 74.5245 36.9762 74.6997 36.8511C75.0251 36.6258 75.3506 36.4005 75.6885 36.1877C75.8011 36.1001 75.9388 36.0125 76.0514 35.8999C76.4269 35.5244 76.8775 35.224 77.3531 34.9987C77.716 34.811 78.0415 34.6107 78.3293 34.3229C78.5546 34.0976 78.8299 33.9474 79.1053 33.7972C79.3431 33.6345 79.6184 33.5093 79.8688 33.3592C80.0064 33.2715 80.1441 33.1839 80.2442 33.0838C80.7449 32.6332 81.283 32.2453 81.8713 31.9073C82.5597 31.4943 83.223 31.0312 83.8988 30.5807C84.1492 30.4305 84.2743 30.4305 84.4871 30.6182C84.7624 30.8685 85.0253 31.1313 85.3006 31.4067C85.5009 31.6069 85.6886 31.8447 85.9014 32.0575C85.9514 32.1326 86.039 32.1952 86.0891 32.2703C86.3019 32.5331 86.3269 32.8085 86.1642 33.0963C86.1267 33.1589 86.0891 33.1965 86.0641 33.2465C85.6511 33.7847 85.3382 34.3729 84.9377 34.8986C84.6373 35.2741 84.3744 35.6621 84.0991 36.0375C84.049 36.0876 84.0365 36.1502 84.0115 36.2002C83.9865 36.3004 83.999 36.413 84.0741 36.4631C84.1366 36.5006 84.2368 36.5507 84.2993 36.5131C84.5121 36.4255 84.7249 36.3379 84.9377 36.2253C85.1504 36.0876 85.3632 35.9499 85.5634 35.7747C85.8513 35.5369 86.1642 35.3492 86.5146 35.1739C86.8776 34.9862 87.2656 34.8235 87.5535 34.5106C87.6035 34.4605 87.6786 34.4355 87.7537 34.3855C87.9164 34.2728 88.0916 34.2978 88.2418 34.423C88.5297 34.6358 88.805 34.8611 89.0804 35.0863C89.143 35.1239 89.2055 35.1865 89.2431 35.249C89.5059 35.5369 89.7562 35.8373 90.0191 36.1502C90.1693 36.3254 90.1693 36.4255 90.0441 36.6258C89.556 37.3642 89.0553 38.0901 88.5672 38.8286C88.3545 39.1665 88.1667 39.5044 87.9414 39.8298C87.8538 39.9675 87.7537 40.0927 87.6411 40.2053C87.3157 40.5307 87.0779 40.9187 86.8901 41.3317C86.7775 41.6196 86.6023 41.8699 86.402 42.1202C86.2268 42.3205 86.0641 42.5082 85.9389 42.7335C85.5509 43.3468 85.1129 43.935 84.7624 44.5858C84.5497 44.9738 84.2868 45.3368 83.999 45.6997C83.8863 45.8374 83.7987 46.0001 83.6986 46.1253ZM95.5975 48.5873C95.5349 48.6999 95.4348 48.775 95.3597 48.8501C94.7589 49.4508 94.1582 50.0516 93.5574 50.6524C93.3947 50.8151 92.1556 51.8288 92.0055 51.9039C91.4422 52.2419 90.8415 52.4171 90.1907 52.2919C89.7026 52.2043 89.227 52.1042 88.7514 51.979C88.5636 51.9415 88.3634 51.8414 88.2257 51.7287C87.4622 51.0904 86.8114 50.3395 86.2983 49.5009C86.1355 49.2631 86.0605 49.0128 86.0479 48.7249C86.0605 48.362 86.0479 48.024 86.0354 47.6611C86.0229 47.0478 86.2482 46.4971 86.5861 46.009C86.8239 45.646 87.1118 45.3081 87.3996 44.9952C88.0505 44.2693 88.7889 43.656 89.4397 42.9301C89.5774 42.7674 89.7401 42.6297 89.9028 42.467C89.9028 42.467 91.3296 41.0653 92.043 40.3519C92.3058 40.089 92.5562 39.8137 92.844 39.5509C93.0568 39.3631 93.1945 39.3756 93.4197 39.5509C93.7952 39.8763 94.1707 40.2017 94.5211 40.5271C94.6588 40.6648 94.809 40.815 94.8966 40.9777C95.0218 41.1529 94.9717 41.4032 94.7965 41.5033C94.421 41.7286 94.1331 42.0665 93.8328 42.3669C93.5199 42.6798 93.1945 42.9552 92.9066 43.2931C92.5061 43.7687 92.043 44.2067 91.5799 44.6198C91.217 44.9577 90.8665 45.3081 90.5286 45.6711C90.078 46.1467 89.64 46.6598 89.1894 47.1605C88.864 47.5109 88.7764 47.949 88.9766 48.4246C89.227 49.0754 89.69 49.3883 90.3909 49.3632C91.1043 49.3257 91.63 48.9752 91.9929 48.387C92.3809 47.7487 92.9567 47.2981 93.5074 46.8225C93.8453 46.5347 94.2082 46.2718 94.446 45.8588C94.4961 45.7837 94.5712 45.7086 94.6338 45.646C94.9467 45.3332 95.247 45.0328 95.5599 44.7199C95.6476 44.6323 95.7226 44.5572 95.8353 44.4946C96.0731 44.3569 96.2733 44.1817 96.411 43.9189C96.4611 43.8438 96.5237 43.7562 96.5862 43.6936C96.8616 43.4433 97.1494 43.4057 97.4498 43.631C97.7127 43.8187 97.988 44.019 98.2258 44.2568C98.4511 44.4821 98.6263 44.7324 98.814 44.9952C98.9017 45.1079 98.8766 45.3081 98.764 45.4208C98.5888 45.596 98.4261 45.7587 98.2383 45.8964C97.7752 46.2593 97.3872 46.6723 97.0118 47.0979C96.9116 47.198 96.8366 47.2981 96.7239 47.3857C96.3109 47.7487 95.8854 48.0991 95.5975 48.5873ZM99.9306 58.5525C99.7679 58.7903 99.5426 58.9405 99.2673 59.0406C98.654 59.2534 98.0157 59.4161 97.3774 59.5287C97.0019 59.5788 96.6389 59.5412 96.2885 59.366C96.0382 59.2408 95.7879 59.1407 95.5375 59.0156C95.3874 58.9405 95.2121 58.8403 95.112 58.7152C94.5863 58.1144 94.1107 57.4886 93.7979 56.7502C93.6226 56.3747 93.535 55.9867 93.5976 55.5487C93.6226 55.2483 93.5726 54.9479 93.5851 54.6601C93.5976 54.4473 93.6351 54.2345 93.6852 54.0343C93.7228 53.8716 93.9105 53.784 94.0607 53.834C94.7115 53.9842 95.3498 54.1719 96.0131 54.3346C96.2384 54.3847 96.3511 54.5224 96.3511 54.7477C96.3636 54.9855 96.3761 55.2233 96.3636 55.4611C96.3386 55.9617 96.5513 56.3247 96.9268 56.625C96.9643 56.6376 96.9769 56.6501 96.9894 56.6626C97.3899 56.9379 97.903 56.7502 97.9781 56.2496C98.0157 55.9367 97.9781 55.6238 97.9406 55.3109C97.9281 55.0981 97.8405 54.8853 97.7654 54.6851C97.4525 53.5462 97.2397 52.3822 97.2397 51.1807C97.2397 50.2795 97.6152 49.5536 98.266 48.9529C98.6039 48.6149 99.0169 48.3771 99.4925 48.277C99.893 48.2019 100.306 48.0893 100.707 48.0142C101.07 47.9516 101.42 48.0017 101.745 48.1518C101.933 48.2395 102.121 48.3521 102.296 48.4773C102.659 48.7401 102.997 49.0029 103.26 49.1907C103.623 49.5786 103.848 49.9291 103.998 50.3046C104.186 50.7927 104.324 51.2808 104.499 51.7564C104.599 52.0568 104.599 52.3572 104.561 52.645C104.524 53.008 104.436 53.3709 104.349 53.7339C104.311 53.8966 104.186 53.9717 104.023 53.9341C103.836 53.8966 103.648 53.859 103.46 53.7714C103.085 53.5962 102.697 53.4585 102.284 53.396C102.196 53.3834 102.096 53.3584 102.008 53.3209C101.808 53.2708 101.758 53.1707 101.783 52.9704C101.795 52.8077 101.846 52.6575 101.846 52.5073C101.871 52.0317 101.745 51.6062 101.445 51.2307C101.32 51.0805 101.17 50.9554 100.982 50.8928C100.782 50.7927 100.581 50.8177 100.406 50.9178C100.143 51.0805 99.9681 51.3058 99.9306 51.6187C99.9056 51.9441 99.9181 52.257 100.018 52.5574C100.131 52.8703 100.231 53.1957 100.344 53.5086C100.431 53.8215 100.531 54.1219 100.606 54.4223C100.719 54.8102 100.769 55.1857 100.769 55.5862C100.757 55.9492 100.782 56.2996 100.782 56.6501C100.794 56.8128 100.769 56.963 100.719 57.1132C100.544 57.6388 100.243 58.1144 99.9306 58.5525ZM104.485 61.1292C104.385 61.2793 104.259 61.4295 104.109 61.5046C103.584 61.805 103.208 62.2806 102.833 62.7312C102.733 62.8563 102.632 62.9565 102.507 63.0566C102.119 63.3945 101.769 63.77 101.393 64.1204C101.293 64.2206 101.193 64.3207 101.08 64.3833C101.03 64.4083 100.918 64.4208 100.868 64.3707C100.718 64.2456 100.567 64.1204 100.455 63.9577C100.229 63.6323 99.9541 63.357 99.6161 63.1442C99.5285 63.0816 99.4409 62.994 99.3533 62.9064C99.2031 62.7312 99.1781 62.556 99.3533 62.3807C99.5285 62.1555 99.7538 61.9552 99.9666 61.7424C100.405 61.3044 100.855 60.8538 101.306 60.4032C101.731 59.9777 102.169 59.5396 102.595 59.1141C102.595 59.1141 104.51 57.2242 105.436 56.248C105.786 55.8725 106.162 55.497 106.562 55.1466C106.825 54.9088 107.063 54.646 107.313 54.3957C107.388 54.3206 107.451 54.258 107.526 54.1829C107.701 54.0327 107.877 54.0077 108.064 54.1453C108.227 54.258 108.39 54.3706 108.502 54.5333C108.74 54.8963 109.028 55.2342 109.328 55.5346C109.378 55.5847 109.403 55.6347 109.429 55.6848C109.504 55.8099 109.516 55.9476 109.416 56.0728C109.316 56.1729 109.216 56.273 109.128 56.3857C108.69 56.8488 108.29 57.3494 107.764 57.7499C107.476 57.9877 107.251 58.2881 107.013 58.5759C106.675 58.9639 106.312 59.3269 105.924 59.6648C105.398 60.1154 104.873 60.5659 104.485 61.1292ZM116.118 65.7031C116.08 65.8157 115.98 65.8408 115.867 65.8282C115.78 65.8157 115.68 65.7907 115.592 65.7532C115.066 65.5779 114.541 65.4027 114.015 65.2275C113.94 65.2025 113.865 65.1774 113.802 65.1399C113.665 65.0523 113.552 64.9396 113.564 64.7519C113.564 64.5016 113.552 64.2387 113.552 63.9884C113.589 63.3001 113.176 62.9121 112.613 62.6242C112.275 62.4615 111.9 62.4114 111.524 62.3864C111.324 62.3614 111.136 62.424 110.949 62.4865C110.698 62.6117 110.448 62.7118 110.185 62.8245C109.697 63.0372 109.259 63.3251 108.909 63.7256C108.32 64.2387 107.97 64.9146 107.72 65.6155C107.582 65.9784 107.519 66.3414 107.644 66.7169C107.72 66.9672 107.77 67.2175 107.857 67.4553C108.057 68.006 108.433 68.3314 109.009 68.4315C109.134 68.4566 109.259 68.4566 109.359 68.4816C109.597 68.5191 109.71 68.6318 109.747 68.8696C109.76 69.0073 109.772 69.1449 109.76 69.2826C109.747 69.5955 109.76 69.9084 109.822 70.2213C109.847 70.3965 109.847 70.5717 109.847 70.747C109.86 70.9097 109.71 71.0598 109.559 71.0599C109.046 71.0724 108.533 71.1099 108.032 70.8846C107.644 70.6969 107.244 70.5717 106.868 70.3464C106.505 70.1337 106.218 69.8708 105.98 69.558C105.73 69.2325 105.517 68.8696 105.291 68.5191C105.154 68.3314 105.066 68.1186 105.066 67.8683C105.041 67.1174 105.041 66.3664 105.016 65.6155C104.991 65.1148 105.141 64.6392 105.379 64.2012C105.717 63.638 106.055 63.0497 106.418 62.4865C106.843 61.8107 107.419 61.285 108.145 60.9095C108.383 60.7719 108.633 60.6467 108.846 60.484C109.084 60.2963 109.334 60.1711 109.634 60.096C109.76 60.071 109.872 60.0585 109.985 59.9959C110.486 59.7205 111.036 59.7456 111.587 59.7706C112.238 59.8207 112.889 59.9208 113.527 60.0334C113.877 60.1085 114.153 60.2587 114.403 60.484C114.703 60.7594 115.004 61.0097 115.304 61.26C115.492 61.3977 115.579 61.5854 115.68 61.7856C115.842 62.0985 115.992 62.424 116.13 62.7368C116.18 62.887 116.23 63.0372 116.243 63.1999C116.318 63.5504 116.368 63.9008 116.38 64.2638C116.418 64.7519 116.305 65.24 116.118 65.7031ZM126.761 77.648C126.573 77.8608 126.373 78.036 126.123 78.1612C125.86 78.2738 125.622 78.4115 125.359 78.4991C124.27 78.9121 124.145 78.837 123.181 78.6243C122.906 78.5742 122.643 78.4616 122.418 78.2863C122.005 77.9735 121.579 77.648 121.154 77.3226C121.004 77.1975 120.904 77.0223 120.778 76.8721C120.653 76.7219 120.541 76.5592 120.403 76.4215C120.178 76.1962 119.952 76.1712 119.702 76.3464C119.251 76.6968 118.776 76.9972 118.388 77.4353C118.35 77.4979 118.275 77.5479 118.175 77.648C117.887 77.9609 117.524 78.2989 117.274 78.7244C117.086 79.0123 116.836 79.2375 116.536 79.4128C116.26 79.563 116.173 79.5504 115.96 79.3627C115.822 79.2501 115.697 79.1249 115.572 78.9997C115.321 78.7745 115.071 78.5492 114.821 78.3239C114.721 78.2488 114.646 78.1737 114.571 78.0736C114.42 77.8733 114.433 77.6856 114.608 77.4853C114.671 77.3977 114.758 77.3101 114.846 77.2225C115.622 76.4465 116.398 75.6705 117.186 74.8821C117.474 74.5692 117.825 74.2938 118.163 74.031C118.638 73.6555 119.064 73.2049 119.439 72.7293C119.627 72.4665 119.852 72.2412 120.052 72.0159C120.465 71.6029 120.866 71.2024 121.266 70.8019C121.705 70.3638 122.13 69.9383 122.568 69.5003C122.606 69.4627 122.656 69.4126 122.693 69.3751C122.856 69.2625 123.006 69.2374 123.194 69.325C123.457 69.4627 123.67 69.6755 123.857 69.9133C124.42 70.6767 125.096 71.3526 125.797 71.9784C126.273 72.4039 126.661 72.892 126.999 73.4302C127.099 73.6054 127.186 73.7681 127.287 73.9434C127.587 74.444 127.662 74.9697 127.574 75.5329C127.549 75.7582 127.512 75.9709 127.474 76.1837C127.387 76.7469 127.099 77.21 126.761 77.648ZM124.145 75.4578C124.208 75.3952 124.283 75.3201 124.345 75.2575C124.696 74.8821 124.708 74.419 124.37 74.031C124.145 73.7807 123.895 73.5554 123.657 73.3426C123.569 73.255 123.457 73.1924 123.357 73.1424C123.181 73.0422 123.006 73.0422 122.856 73.1674C122.556 73.4427 122.28 73.7431 121.98 74.0435C121.867 74.1812 121.855 74.3939 121.98 74.5191C122.105 74.6693 122.255 74.8195 122.393 74.9571C122.393 74.9571 122.606 75.1949 122.718 75.2826C122.869 75.4077 123.031 75.5204 123.219 75.608C123.557 75.7707 123.857 75.6956 124.145 75.4578ZM132.95 87.8421C132.749 88.0921 132.524 88.2921 132.236 88.4551C131.973 88.6181 131.736 88.8301 131.473 89.0181C131.373 89.0931 131.235 89.1561 131.11 89.2061C130.772 89.3441 130.421 89.4691 130.071 89.6191C129.633 89.8321 129.17 89.9191 128.707 89.9571C128.431 89.9821 128.144 89.9441 127.881 89.8821C127.368 89.7691 126.842 89.6441 126.329 89.4811C126.078 89.4061 125.816 89.2681 125.603 89.1061C125.065 88.7181 124.652 88.2301 124.364 87.6161C123.988 86.8405 123.863 86.0145 123.813 85.1634C123.75 84.5 123.863 83.8617 124.176 83.2735C124.376 82.873 124.564 82.46 124.764 82.0595C124.977 81.6214 125.29 81.2585 125.59 80.908C125.703 80.7703 125.828 80.6452 125.953 80.52C126.254 80.1696 126.592 79.8817 126.992 79.6564C127.292 79.4812 127.58 79.3185 127.856 79.1433C128.144 78.9806 128.431 78.8679 128.744 78.8304C129.333 78.7428 129.921 78.6301 130.509 78.5425C130.759 78.4925 131.01 78.5175 131.26 78.5676C131.961 78.7177 132.637 78.943 133.25 79.331C133.513 79.4937 133.738 79.694 133.951 79.9568C134.389 80.5451 134.714 81.1959 135.002 81.8592C135.165 82.2472 135.227 82.6602 135.14 83.0732C135.065 83.4988 135.015 83.9493 134.94 84.3749C134.89 84.5751 134.827 84.7879 134.752 84.9882C134.664 85.276 134.564 85.5514 134.477 85.8392C134.426 85.9894 134.364 86.1271 134.264 86.2523C133.813 86.7779 133.4 87.3161 132.95 87.8421ZM131.535 85.3261C131.886 85.0758 132.136 84.5251 132.261 83.9243C132.311 83.7241 132.349 83.5363 132.399 83.3361C132.512 82.898 132.411 82.4725 132.224 82.0845C131.973 81.5338 131.535 81.2209 130.96 81.1458C130.221 81.0582 129.533 81.1959 128.945 81.659C128.594 81.9343 128.219 82.1846 127.856 82.4725C127.655 82.6227 127.455 82.7979 127.317 83.0107C127.105 83.2985 126.942 83.6365 126.754 83.9744C126.679 84.1246 126.629 84.2998 126.604 84.475C126.542 84.7128 126.504 84.9756 126.454 85.226C126.341 85.9394 126.642 86.5651 127.28 86.9031C127.705 87.1281 128.131 87.2281 128.607 87.1281C128.769 87.0911 128.945 87.0661 129.12 87.0411C129.37 86.9657 129.608 86.878 129.821 86.7404C130.371 86.3399 130.884 85.9268 131.535 85.3261ZM141.271 94.9121C140.846 95.4371 140.358 95.9261 139.782 96.3261C139.494 96.5391 139.269 96.8141 139.006 97.0521C138.355 97.6281 137.629 98.0281 136.766 98.1911C136.127 98.3041 135.514 98.2661 134.951 97.9031C134.663 97.7151 134.388 97.5401 134.112 97.3401C132.873 96.3511 133.061 96.6641 131.935 95.4371C131.884 95.3871 131.822 95.3251 131.772 95.2751C131.421 94.9241 131.071 94.5741 130.721 94.2231C130.67 94.1731 130.608 94.1111 130.57 94.0481C130.458 93.8861 130.458 93.7101 130.558 93.5601C130.595 93.4721 130.67 93.3971 130.746 93.3221C131.196 92.8721 131.659 92.4091 132.047 91.8701C132.21 91.6581 132.448 91.4951 132.635 91.3071C132.886 91.1071 133.149 90.9191 133.361 90.6811C134.513 89.4551 135.789 88.3291 136.966 87.1021C137.429 86.639 137.867 86.1759 138.33 85.7128C138.418 85.6252 138.505 85.5376 138.58 85.4625C138.893 85.1746 139.018 85.1496 139.356 85.3874C139.457 85.4625 139.544 85.5501 139.607 85.6377C140.157 86.2885 140.733 86.9143 141.346 87.5021C141.722 87.8531 142.085 88.2161 142.46 88.5661C142.973 89.0291 143.236 89.6431 143.462 90.2681C143.499 90.3811 143.512 90.5191 143.499 90.6311C143.449 91.1321 143.412 91.6451 143.349 92.1581C143.324 92.3091 143.261 92.4711 143.174 92.5841C142.923 92.9841 142.686 93.3971 142.348 93.7351C141.96 94.0981 141.597 94.4861 141.271 94.9121ZM137.241 94.5111C137.967 93.7851 138.693 93.0591 139.406 92.3211C139.657 92.0711 139.882 91.7951 140.082 91.4951C140.308 91.1951 140.383 90.8191 140.157 90.4941C139.907 90.0931 139.569 89.7551 139.106 89.5681C138.981 89.5181 138.843 89.5301 138.718 89.6051C138.518 89.7551 138.293 89.9051 138.117 90.0811C137.579 90.5941 137.054 91.1451 136.528 91.6701C136.515 91.6581 135.439 92.7091 134.913 93.2351C134.838 93.3101 134.776 93.3721 134.701 93.4471C134.538 93.6601 134.538 93.8861 134.713 94.0861C135.026 94.4741 135.414 94.7871 135.902 94.9241C136.34 95.0371 136.716 94.9371 137.066 94.6611C137.129 94.6241 137.191 94.5611 137.241 94.5111Z" fill="white"/>
</g>
<defs>
<clipPath id="clip0_2006_4905">
<rect width="176" height="176" fill="white"/>
</clipPath>
</defs>
</svg>
