<svg width="200" height="122" viewBox="0 0 200 122" fill="none" xmlns="http://www.w3.org/2000/svg">
<g opacity="0.5">
<path d="M116.749 39.4236C116.334 39.4236 115.94 39.1587 115.771 38.7201C115.548 38.1389 115.804 37.4734 116.344 37.2336L122.804 34.3614C123.345 34.1194 123.963 34.3971 124.186 34.9783C124.409 35.5596 124.153 36.2251 123.612 36.4649L117.153 39.337C117.021 39.3962 116.883 39.4236 116.749 39.4236Z" fill="#1A1A1A"/>
<path d="M167.048 20.8962C166.986 20.8962 166.923 20.8902 166.859 20.8788C166.284 20.7672 165.902 20.1746 166.006 19.5561L166.953 13.9052C167.057 13.2875 167.61 12.883 168.182 12.987C168.757 13.0985 169.14 13.6912 169.036 14.3096L168.088 19.9606C167.997 20.51 167.551 20.8962 167.048 20.8962Z" fill="#1A1A1A"/>
<path d="M162.655 60.7301C162.412 60.7301 162.168 60.6405 161.968 60.4584C161.524 60.0509 161.47 59.3323 161.85 58.8543L166.328 53.2033C166.708 52.7237 167.375 52.6683 167.82 53.075C168.265 53.4825 168.318 54.2011 167.939 54.6792L163.46 60.3302C163.251 60.5942 162.954 60.7301 162.655 60.7301Z" fill="#1A1A1A"/>
<path d="M128.376 21.7301H119.763C119.178 21.7301 118.705 21.2202 118.705 20.5919C118.705 19.9635 119.178 19.4536 119.763 19.4536H128.376C128.961 19.4536 129.434 19.9635 129.434 20.5919C129.434 21.2202 128.961 21.7301 128.376 21.7301Z" fill="#1A1A1A"/>
<path d="M183.153 65.7321C183.031 65.7321 182.908 65.7101 182.786 65.6615C182.238 65.4437 181.958 64.7896 182.16 64.1993L184.227 58.178C184.43 57.5884 185.04 57.2856 185.587 57.5041C186.135 57.7219 186.415 58.376 186.213 58.9664L184.146 64.9877C183.989 65.4475 183.584 65.7321 183.153 65.7321Z" fill="#1A1A1A"/>
<path d="M119.334 77.3118C118.971 77.3118 118.618 77.1107 118.421 76.751C118.124 76.2092 118.292 75.5111 118.796 75.1924L124.653 71.4871C125.156 71.1676 125.805 71.349 126.102 71.8908C126.398 72.4326 126.23 73.1307 125.726 73.4494L119.87 77.1547C119.701 77.261 119.516 77.3118 119.334 77.3118Z" fill="#1A1A1A"/>
<path d="M175.748 28.215C175.678 28.215 175.609 28.2082 175.539 28.193C174.966 28.0701 174.594 27.4706 174.709 26.8537L176.432 17.5899C176.546 16.9737 177.1 16.567 177.677 16.6968C178.25 16.8197 178.622 17.4192 178.507 18.0361L176.784 27.2998C176.683 27.8401 176.241 28.215 175.748 28.215Z" fill="#1A1A1A"/>
<path d="M117.18 110.661C116.786 110.661 116.408 110.423 116.225 110.016C115.972 109.45 116.193 108.769 116.72 108.497C117.17 108.263 161.769 84.8129 161.769 53.94C161.769 25.7663 150.384 18.8815 150.269 18.8154C149.754 18.518 149.56 17.8282 149.836 17.275C150.111 16.7211 150.752 16.5101 151.269 16.8091C151.784 17.1066 163.885 24.4171 163.885 53.9408C163.885 86.244 119.526 109.571 117.638 110.548C117.49 110.624 117.334 110.661 117.18 110.661Z" fill="#1A1A1A"/>
<path d="M143.104 115.227C129.997 115.227 117.564 110.86 116.846 110.603C116.291 110.404 115.991 109.761 116.175 109.164C116.359 108.57 116.959 108.249 117.513 108.443C117.75 108.527 141.475 116.856 157.382 110.586C171.198 105.092 182.44 87.2435 182.44 70.8012C182.44 58.896 178.134 41.1842 166.273 41.1842C165.688 41.1842 165.214 40.6743 165.214 40.046C165.214 39.4176 165.688 38.9077 166.273 38.9077C179.687 38.9077 184.556 57.9816 184.556 70.8012C184.556 88.1176 172.694 106.924 158.113 112.722C153.447 114.56 148.223 115.227 143.104 115.227Z" fill="#1A1A1A"/>
<path d="M117.178 110.661C116.668 110.661 116.219 110.265 116.134 109.706C116.099 109.472 115.259 103.87 115.259 95.6269C115.259 90.3348 116.111 76.2859 123.993 60.1616C131.687 44.4258 143.427 32.0198 158.889 23.2887C159.408 22.995 160.047 23.2113 160.318 23.7675C160.59 24.3237 160.391 25.0127 159.873 25.3041C118.568 48.6282 117.375 90.885 117.375 95.6269C117.375 103.67 118.214 109.283 118.222 109.338C118.316 109.958 117.925 110.544 117.349 110.646C117.293 110.655 117.235 110.661 117.178 110.661Z" fill="#1A1A1A"/>
<path d="M117.178 110.661C116.966 110.661 116.752 110.593 116.565 110.45C116.089 110.086 115.978 109.375 116.317 108.862C116.518 108.559 136.525 78.1641 142.859 53.6365C143.016 53.0302 143.6 52.6804 144.162 52.8443C144.725 53.0127 145.055 53.6403 144.899 54.2458C138.464 79.1619 118.244 109.876 118.041 110.184C117.835 110.495 117.509 110.661 117.178 110.661Z" fill="#1A1A1A"/>
<path d="M117.18 110.661C116.857 110.661 116.538 110.503 116.331 110.203C115.97 109.683 107.509 97.3244 107.509 83.214C107.509 70.6083 112.399 55.5813 135.697 55.5813C152.328 55.5813 161.301 69.055 161.301 81.732C161.301 82.3603 160.828 82.8702 160.243 82.8702C159.658 82.8702 159.185 82.3603 159.185 81.732C159.185 72.5016 152.808 57.8578 135.697 57.8578C118.397 57.8578 109.625 66.3885 109.625 83.214C109.625 96.5762 117.944 108.72 118.028 108.841C118.378 109.345 118.281 110.058 117.813 110.435C117.622 110.587 117.4 110.661 117.18 110.661Z" fill="#1A1A1A"/>
<path d="M117.178 110.661C117.015 110.661 116.85 110.621 116.695 110.535C116.448 110.398 92.0051 96.577 92.0051 70.616C92.0051 51.9884 105.363 41.6865 114.596 41.6865C122.537 41.6865 128.645 45.3843 128.901 45.5414C129.408 45.8532 129.584 46.5476 129.295 47.0932C129.006 47.6388 128.359 47.8307 127.852 47.5189C127.793 47.4832 121.954 43.963 114.596 43.963C106.227 43.963 94.1217 53.4544 94.1217 70.616C94.1217 95.1724 117.428 108.381 117.664 108.51C118.183 108.799 118.388 109.485 118.12 110.044C117.933 110.435 117.562 110.661 117.178 110.661Z" fill="#1A1A1A"/>
<path d="M117.178 110.661C116.641 110.661 116.182 110.224 116.126 109.638C116.067 109.012 116.49 108.453 117.072 108.389C117.288 108.366 138.794 105.828 149.659 89.95C154.923 82.2881 158.324 69.791 158.324 58.1081C158.324 51.7871 157.342 41.1825 150.769 41.1825C147.754 41.1825 146.659 43.8255 146.659 45.6019C146.659 47.7236 149.072 49.0955 149.908 49.0955C150.492 49.0955 150.966 49.6055 150.966 50.2338C150.966 50.8621 150.492 51.372 149.908 51.372C148.065 51.372 144.543 49.1244 144.543 45.6019C144.543 42.3564 146.725 38.906 150.769 38.906C157.006 38.906 160.44 45.7248 160.44 58.1081C160.44 70.2463 156.877 83.2754 151.362 91.3007C139.934 108.002 118.206 110.554 117.286 110.654C117.25 110.658 117.214 110.661 117.178 110.661Z" fill="#1A1A1A"/>
<path d="M117.437 110.66C117.147 110.66 116.858 110.532 116.649 110.282C116.31 109.873 108.3 100.019 106.05 77.2199C103.762 54.0226 117.939 32.4059 123.362 27.1563C123.797 26.7359 124.466 26.7724 124.856 27.2413C125.247 27.708 125.212 28.4274 124.778 28.8485C119.778 33.6883 105.98 54.9317 108.155 76.9794C110.325 98.9717 118.149 108.669 118.227 108.765C118.615 109.234 118.577 109.953 118.141 110.371C117.94 110.565 117.688 110.66 117.437 110.66Z" fill="#1A1A1A"/>
<path d="M117.178 110.661C116.946 110.661 116.711 110.579 116.516 110.41C116.305 110.228 95.4502 91.8541 95.4502 62.8342C95.4502 41.5074 112.212 15.7483 133.027 15.7483C148.033 15.7483 150.813 25.4211 150.924 25.8323C151.087 26.4364 150.764 27.0677 150.203 27.2422C149.642 27.419 149.058 27.0723 148.893 26.4705C148.789 26.1017 146.336 18.024 133.028 18.024C113.385 18.024 97.5674 42.5379 97.5674 62.8335C97.5674 90.775 117.641 108.459 117.843 108.635C118.299 109.029 118.371 109.745 118.005 110.235C117.795 110.516 117.488 110.661 117.178 110.661Z" fill="#1A1A1A"/>
<path d="M117.179 110.661C116.597 110.661 116.124 110.155 116.121 109.529C116.118 108.9 116.589 108.388 117.173 108.384C117.654 108.381 165.375 107.824 183.191 84.0737C190.469 74.4169 192.161 61.4266 187.835 48.4309C182.416 32.1533 169.136 19.4809 154.002 16.1482C153.429 16.0222 153.06 15.4204 153.177 14.8043C153.294 14.1881 153.85 13.7935 154.426 13.9172C170.269 17.407 184.165 30.6524 189.827 47.6637C194.409 61.4251 192.59 75.2182 184.836 85.5049C166.389 110.097 119.185 110.649 117.184 110.66C117.183 110.661 117.181 110.661 117.179 110.661Z" fill="#1A1A1A"/>
<path d="M89.9627 51.3736C89.3947 51.3736 88.9249 50.8887 88.9058 50.2733C88.8981 50.0783 88.6582 45.3523 83.9905 42.9225C83.4642 42.6486 83.2441 41.9679 83.4988 41.4019C83.7535 40.8365 84.3877 40.6005 84.9119 40.873C90.7599 43.9166 91.0125 49.9425 91.0209 50.1974C91.0407 50.8257 90.5828 51.3516 89.9986 51.3728C89.9867 51.3736 89.9747 51.3736 89.9627 51.3736Z" fill="#1A1A1A"/>
<path d="M182.637 111.587C182.366 111.587 182.095 111.476 181.888 111.254C181.298 110.619 178.96 109.735 177.469 109.735C174.909 109.818 173.148 110.57 173.13 110.577C172.588 110.812 171.972 110.532 171.752 109.95C171.533 109.369 171.791 108.707 172.331 108.469C172.415 108.432 174.437 107.557 177.437 107.459H177.438C179.266 107.459 182.24 108.414 183.385 109.645C183.798 110.089 183.798 110.809 183.385 111.254C183.178 111.476 182.907 111.587 182.637 111.587Z" fill="#1A1A1A"/>
<path d="M191.681 85.6491C191.37 85.6491 191.063 85.5034 190.854 85.2218C190.488 84.7309 190.562 84.0145 191.019 83.6222L197.478 78.0638C197.934 77.67 198.601 77.7512 198.966 78.2406C199.331 78.7316 199.257 79.4479 198.801 79.8402L192.341 85.3986C192.146 85.5679 191.913 85.6491 191.681 85.6491Z" fill="#1A1A1A"/>
<path d="M144.741 7.83444C144.419 7.83444 144.102 7.67737 143.894 7.37915C143.543 6.87604 143.638 6.16199 144.106 5.78485L150.996 0.227205C151.463 -0.149173 152.126 -0.0474903 152.477 0.454853C152.828 0.957955 152.733 1.67201 152.265 2.04915L145.375 7.60755C145.185 7.76008 144.962 7.83444 144.741 7.83444Z" fill="#1A1A1A"/>
<path d="M115.456 13.4847C114.97 13.4847 114.532 13.122 114.424 12.5908L112.701 4.16103C112.576 3.54638 112.937 2.94007 113.508 2.805C114.078 2.66234 114.643 3.05845 114.768 3.67234L116.49 12.1021C116.616 12.7168 116.255 13.3231 115.684 13.4582C115.607 13.4771 115.531 13.4847 115.456 13.4847Z" fill="#1A1A1A"/>
<path d="M90.8253 79.1642C90.7519 79.1642 90.6786 79.1559 90.6045 79.1392L82.5081 77.2869C81.9359 77.1564 81.5712 76.5516 81.6932 75.9369C81.8146 75.3215 82.3768 74.9307 82.9483 75.0613L91.0447 76.9136C91.6169 77.0441 91.9816 77.6489 91.8596 78.2635C91.7538 78.7985 91.3142 79.1642 90.8253 79.1642Z" fill="#1A1A1A"/>
<path d="M194.264 46.7417C194.128 46.7417 193.99 46.7136 193.857 46.6544C193.317 46.4123 193.062 45.7461 193.287 45.1656L195.44 39.6079C195.665 39.0274 196.283 38.7543 196.824 38.9948C197.364 39.2369 197.618 39.9031 197.394 40.4836L195.241 46.0413C195.072 46.4784 194.678 46.7417 194.264 46.7417Z" fill="#1A1A1A"/>
<path d="M141.985 81.7586C141.569 81.7586 141.175 81.4937 141.006 81.0544C140.783 80.4731 141.04 79.8076 141.58 79.5678L149.503 76.0469C150.044 75.8071 150.662 76.0833 150.885 76.6646C151.108 77.2458 150.852 77.9113 150.312 78.1511L142.388 81.6721C142.256 81.7312 142.119 81.7586 141.985 81.7586Z" fill="#1A1A1A"/>
<path d="M112.7 73.051C112.434 73.051 112.168 72.9432 111.962 72.7285C111.543 72.2899 111.534 71.5697 111.942 71.119L118.143 64.2637C118.551 63.8122 119.221 63.8047 119.64 64.2417C120.059 64.6803 120.068 65.4005 119.66 65.8512L113.459 72.7065C113.252 72.9356 112.976 73.051 112.7 73.051Z" fill="#1A1A1A"/>
<path d="M130.1 36.5514C130.031 36.5514 129.961 36.5446 129.892 36.5294C129.318 36.4065 128.947 35.807 129.061 35.1901L130.783 25.9263C130.898 25.3102 131.454 24.9034 132.029 25.0332C132.602 25.1561 132.973 25.7556 132.859 26.3725L131.137 35.6363C131.036 36.1773 130.594 36.5514 130.1 36.5514Z" fill="#1A1A1A"/>
<path d="M171.268 85.6492C170.942 85.6492 170.621 85.4875 170.414 85.1832C170.069 84.6756 170.171 83.9638 170.643 83.592L177.706 78.0336C178.177 77.6633 178.839 77.7725 179.185 78.2802C179.53 78.7879 179.428 79.4996 178.956 79.8715L171.893 85.4299C171.704 85.5778 171.486 85.6492 171.268 85.6492Z" fill="#1A1A1A"/>
<path d="M117.178 110.661C117.031 110.661 116.881 110.627 116.738 110.557C116.318 110.35 106.361 105.362 98.148 94.3475C90.5461 84.1511 83.17 66.711 91.2008 41.5294C99.5223 15.5092 118.69 7.88755 133.303 6.07471C149.018 4.12377 162.549 8.20625 163.118 8.38078C163.679 8.5538 164.004 9.18362 163.844 9.78765C163.683 10.3917 163.097 10.7438 162.536 10.5692C162.4 10.5267 148.789 6.43288 133.485 8.34284C113.142 10.8872 99.5886 22.3015 93.203 42.2685C87.0171 61.6656 89.2197 78.6853 99.7488 92.8549C107.642 103.478 117.521 108.439 117.621 108.488C118.151 108.751 118.385 109.426 118.141 109.997C117.963 110.415 117.579 110.661 117.178 110.661Z" fill="#1A1A1A"/>
<path d="M117.181 110.661C116.809 110.661 116.449 110.451 116.255 110.076C115.971 109.527 116.153 108.833 116.664 108.528C145.9 90.998 161.646 25.6008 161.802 24.9429C161.946 24.3328 162.521 23.967 163.088 24.1196C163.654 24.2744 163.997 24.8943 163.853 25.5029C163.208 28.2309 147.72 92.5141 117.695 110.517C117.531 110.614 117.355 110.661 117.181 110.661Z" fill="#1A1A1A"/>
<path d="M117.179 110.661C116.594 110.661 116.121 110.151 116.121 109.522C116.121 108.894 116.594 108.384 117.179 108.384C139.048 108.384 156.233 97.3706 168.258 75.65C177.282 59.3511 179.844 42.808 179.869 42.6425C179.962 42.0226 180.511 41.5953 181.082 41.7008C181.659 41.801 182.051 42.3845 181.958 43.0052C181.933 43.1745 179.322 60.0872 170.11 76.7556C161.562 92.2227 145.44 110.661 117.179 110.661Z" fill="#1A1A1A"/>
<path d="M130.96 115.293C120.702 115.293 116.564 110.488 116.393 110.283C116.002 109.816 116.038 109.097 116.471 108.676C116.906 108.255 117.576 108.292 117.966 108.761C117.998 108.798 121.725 113.015 130.96 113.015C170.735 113.015 173.827 72.0531 173.827 59.4983C173.827 41.3813 170.462 29.382 170.429 29.2621C170.257 28.6611 170.571 28.0244 171.129 27.84C171.689 27.6534 172.28 27.9933 172.451 28.5928C172.594 29.0913 175.943 41.0118 175.943 59.4983C175.943 72.5873 172.699 115.293 130.96 115.293Z" fill="#1A1A1A"/>
<path d="M117.179 110.661C116.594 110.66 116.121 110.151 116.121 109.523C116.121 109.141 116.42 71.0258 142.292 44.7757C142.717 44.3447 143.387 44.3667 143.788 44.8227C144.189 45.2803 144.17 46.0004 143.744 46.4315C118.553 71.9918 118.238 109.151 118.238 109.524C118.237 110.151 117.764 110.661 117.179 110.661Z" fill="#1A1A1A"/>
<path d="M144.826 118.998C123.836 118.998 116.682 110.635 116.388 110.278C116 109.809 116.039 109.09 116.476 108.672C116.913 108.254 117.581 108.295 117.971 108.767C118.034 108.842 124.905 116.721 144.826 116.721C149.041 116.721 160.557 114.85 167.54 111.274C191.87 98.7122 194.497 71.5295 194.497 60.4248C194.497 45.9965 190.315 35.033 190.273 34.9245C190.048 34.344 190.303 33.677 190.843 33.4356C191.381 33.1959 192.001 33.4683 192.226 34.0488C192.405 34.5109 196.614 45.5465 196.614 60.4256C196.614 71.9605 193.869 100.206 168.453 113.329C161.08 117.104 149.333 118.998 144.826 118.998Z" fill="#1A1A1A"/>
<path d="M117.179 110.661C116.918 110.661 116.656 110.557 116.452 110.349C98.2868 91.8373 98.2064 71.4696 101.337 57.643C104.712 42.7397 112.24 32.3642 112.559 31.9287C112.922 31.4347 113.586 31.3519 114.045 31.7405C114.504 32.1297 114.583 32.8453 114.221 33.3386C114.145 33.4418 106.629 43.8164 103.376 58.2561C99.0452 77.4863 103.934 94.456 117.907 108.696C118.331 109.128 118.349 109.85 117.947 110.305C117.739 110.542 117.459 110.661 117.179 110.661Z" fill="#1A1A1A"/>
<path d="M117.18 110.661C116.78 110.661 116.397 110.416 116.218 109.999C116.007 109.506 111.04 97.7342 110.954 81.7388C110.844 67.1405 114.629 54.4325 122.529 42.8907C134.593 25.2146 150.115 25.0112 150.77 25.0112C151.355 25.0112 151.828 25.5212 151.828 26.1495C151.828 26.7778 151.355 27.2877 150.77 27.2877C150.622 27.2885 135.636 27.5313 124.234 44.2391C116.615 55.3711 112.964 67.6323 113.07 81.7229C113.154 97.2037 118.091 108.93 118.141 109.047C118.385 109.617 118.153 110.293 117.622 110.556C117.478 110.627 117.328 110.661 117.18 110.661Z" fill="#1A1A1A"/>
<path d="M55.0259 55.5579C55.0259 55.2236 55.2091 54.9068 55.5124 54.7706C55.9143 54.5912 56.3745 54.7972 56.5403 55.2321L58.5264 60.4298C58.6938 60.8653 58.5017 61.3625 58.0998 61.5419C57.6979 61.7213 57.2377 61.5153 57.0719 61.0804L55.0858 55.8827C55.0448 55.7765 55.0259 55.6658 55.0259 55.5579Z" fill="#1A1A1A"/>
<path d="M67.8376 96.0312C67.8376 95.9812 67.8418 95.9301 67.8497 95.879C67.9268 95.4164 68.3366 95.1087 68.7643 95.1921L72.6719 95.9545C73.0991 96.038 73.3788 96.483 73.3069 96.9434C73.2297 97.4061 72.8199 97.7138 72.3923 97.6303L68.4846 96.8679C68.1047 96.7941 67.8376 96.4354 67.8376 96.0312Z" fill="#1A1A1A"/>
<path d="M40.2925 92.4957C40.2925 92.3004 40.3544 92.104 40.4803 91.9433C40.7621 91.5857 41.259 91.5425 41.5896 91.848L45.4973 95.4516C45.8289 95.7571 45.8672 96.2941 45.586 96.6523C45.3042 97.0099 44.8073 97.0531 44.4767 96.7477L40.569 93.144C40.3864 92.9754 40.2925 92.7364 40.2925 92.4957Z" fill="#1A1A1A"/>
<path d="M67.261 64.9132L67.261 57.9829C67.261 57.5123 67.6136 57.1313 68.0481 57.1313C68.4826 57.1313 68.8352 57.5123 68.8352 57.9829L68.8352 64.9132C68.8352 65.3838 68.4826 65.7647 68.0481 65.7647C67.6136 65.7647 67.261 65.3838 67.261 64.9132Z" fill="#1A1A1A"/>
<path d="M36.8335 108.99C36.8335 108.891 36.8487 108.792 36.8823 108.694C37.0329 108.253 37.4852 108.028 37.8934 108.19L42.0572 109.854C42.4649 110.017 42.6743 110.508 42.5231 110.948C42.3725 111.389 41.9202 111.614 41.512 111.452L37.3483 109.788C37.0303 109.662 36.8335 109.336 36.8335 108.99Z" fill="#1A1A1A"/>
<path d="M28.826 57.6375C28.826 57.3457 28.965 57.0613 29.2138 56.9029C29.5884 56.6645 30.0712 56.7996 30.2916 57.2049L32.8538 61.9173C33.0747 62.3226 32.9493 62.8443 32.5747 63.0833C32.2 63.3217 31.7173 63.1866 31.4969 62.7813L28.9346 58.0689C28.8611 57.9327 28.826 57.784 28.826 57.6375Z" fill="#1A1A1A"/>
<path d="M62.7767 103.031C62.7767 102.975 62.7814 102.92 62.7919 102.863C62.8769 102.402 63.2915 102.103 63.7181 102.195L70.124 103.582C70.5501 103.674 70.8313 104.119 70.7416 104.584C70.6566 105.044 70.2421 105.344 69.8155 105.251L63.4095 103.865C63.0359 103.784 62.7767 103.428 62.7767 103.031Z" fill="#1A1A1A"/>
<path d="M5.76511 55.9044C5.76511 55.5876 5.92935 55.2834 6.21113 55.1363C6.60258 54.9325 7.07326 55.1108 7.26164 55.5343C7.42326 55.8965 23.639 91.7828 44.9877 91.7829C64.4698 91.7829 69.2307 82.6221 69.2764 82.5295C69.4821 82.1151 69.959 81.959 70.3416 82.181C70.7246 82.403 70.8705 82.9184 70.6638 83.334C70.4581 83.7484 65.4028 93.4859 44.9871 93.4859C22.6494 93.4859 6.51862 57.7925 5.84277 56.2728C5.79029 56.1542 5.76511 56.0287 5.76511 55.9044Z" fill="#1A1A1A"/>
<path d="M2.60728 76.7637C2.60728 66.2177 5.62764 56.2134 5.805 55.6355C5.94247 55.1893 6.38744 54.9474 6.79988 55.0956C7.21127 55.2438 7.43324 55.7263 7.2989 56.1719C7.24066 56.3632 1.48121 75.4529 5.81706 88.2525C9.61611 99.3696 21.9583 108.416 33.3281 108.416C41.5606 108.416 53.8084 104.951 53.8084 95.4065C53.8084 94.9359 54.161 94.555 54.5955 94.555C55.0299 94.555 55.3826 94.9359 55.3826 95.4065C55.3826 106.201 42.1929 110.119 33.3281 110.119C21.3538 110.119 8.34941 100.574 4.33994 88.8412C3.06852 85.0865 2.60728 80.8828 2.60728 76.7637Z" fill="#1A1A1A"/>
<path d="M5.76521 55.9027C5.76521 55.4928 6.03911 55.1317 6.42531 55.0631C6.58746 55.0347 10.461 54.3591 16.1612 54.3591C19.8206 54.3591 29.5355 55.0443 40.6855 61.3871C51.5668 67.5777 60.1456 77.0246 66.1832 89.4661C66.3863 89.8833 66.2367 90.3977 65.8521 90.6156C65.4675 90.8342 64.991 90.6741 64.7895 90.2574C48.6609 57.0216 19.4402 56.0616 16.1612 56.0616C10.599 56.0616 6.71811 56.7366 6.67981 56.7434C6.2511 56.8189 5.84602 56.5044 5.7757 56.0406C5.76888 55.9952 5.76521 55.9487 5.76521 55.9027Z" fill="#1A1A1A"/>
<path d="M5.76529 55.903C5.76529 55.7321 5.81252 55.5601 5.91116 55.4096C6.16303 55.0265 6.65471 54.9373 7.0089 55.2098C7.21879 55.3716 28.2369 71.4701 45.1977 76.5668C45.617 76.6928 45.8589 77.1634 45.7455 77.6153C45.6291 78.0683 45.1951 78.334 44.7764 78.208C27.5468 73.0301 6.30786 56.7607 6.09534 56.5972C5.8802 56.4315 5.76529 56.1692 5.76529 55.903Z" fill="#1A1A1A"/>
<path d="M5.76523 55.9042C5.76523 55.6447 5.87437 55.3881 6.08164 55.2212C6.44109 54.9312 14.9874 48.1223 24.7447 48.1223C33.4615 48.1223 43.8528 52.0575 43.8528 70.8043C43.8528 84.1864 34.5357 91.4068 25.7695 91.4068C25.335 91.4068 24.9824 91.0259 24.9824 90.5553C24.9824 90.0847 25.335 89.7037 25.7695 89.7037C32.1523 89.7037 42.2786 84.5724 42.2786 70.8043C42.2786 56.884 36.3796 49.8254 24.7447 49.8254C15.5048 49.8254 7.10696 56.519 7.02353 56.5865C6.67511 56.8681 6.18187 56.7903 5.9216 56.4134C5.81614 56.2601 5.76523 56.0813 5.76523 55.9042Z" fill="#1A1A1A"/>
<path d="M5.76529 55.9031C5.76529 55.772 5.7931 55.6392 5.8524 55.5143C5.94685 55.3156 15.5043 35.6475 33.4564 35.6475C46.3374 35.6475 53.4612 46.3955 53.4612 53.8248C53.4612 60.2147 50.9042 65.1298 50.7956 65.3358C50.5799 65.744 50.0998 65.8853 49.7225 65.6526C49.3452 65.4198 49.2124 64.8998 49.4281 64.4917C49.4528 64.4446 51.887 59.7458 51.887 53.8248C51.887 47.0915 45.3237 37.3505 33.4564 37.3505C16.4756 37.3505 7.34211 56.1041 7.25238 56.2937C7.05298 56.7115 6.57862 56.8761 6.1919 56.661C5.92114 56.51 5.76529 56.2119 5.76529 55.9031Z" fill="#1A1A1A"/>
<path d="M5.76528 55.9023C5.76528 55.4709 6.06701 55.1013 6.47262 55.0565C6.905 55.0088 7.29172 55.3494 7.3358 55.8172C7.35206 55.9909 9.10729 73.2957 20.0867 82.0381C25.3849 86.2742 34.0267 89.0104 42.1055 89.0104C46.4765 89.0104 53.8096 88.2208 53.8096 82.9316C53.8096 80.5059 51.982 79.6248 50.7536 79.6248C49.2864 79.6248 48.3377 81.5663 48.3377 82.2385C48.3377 82.7091 47.9851 83.09 47.5506 83.09C47.1161 83.09 46.7635 82.7091 46.7635 82.2385C46.7635 80.7562 48.3178 77.9218 50.7536 77.9218C52.9978 77.9218 55.3838 79.6776 55.3838 82.9316C55.3838 87.95 50.6686 90.7135 42.1055 90.7135C33.7119 90.7135 24.7023 87.8461 19.1527 83.4085C7.60341 74.2131 5.83927 56.7294 5.77 55.9897C5.76685 55.9608 5.76528 55.9313 5.76528 55.9023Z" fill="#1A1A1A"/>
<path d="M5.76572 56.1114C5.76572 55.8781 5.85388 55.6453 6.02704 55.4773C6.30987 55.2042 13.124 48.7593 28.8895 46.9489C44.9305 45.1073 59.8785 56.515 63.5086 60.8788C63.7993 61.2285 63.7741 61.7673 63.4499 62.0812C63.1271 62.3957 62.6297 62.3673 62.3385 62.0182C58.9917 57.995 44.3019 46.8921 29.0559 48.6423C13.8481 50.3885 7.14209 56.6842 7.07597 56.7472C6.75169 57.0589 6.25477 57.0282 5.96564 56.6779C5.83131 56.5156 5.76572 56.3129 5.76572 56.1114Z" fill="#1A1A1A"/>
<path d="M5.76523 55.9031C5.76523 55.7157 5.82189 55.5273 5.9389 55.37C6.06484 55.2003 18.7701 38.4194 38.8374 38.4194C53.585 38.4194 71.3975 51.9066 71.3975 68.6556C71.3975 80.7303 64.7087 82.967 64.4243 83.0567C64.0066 83.1879 63.5701 82.9279 63.4494 82.4765C63.3271 82.0247 63.5669 81.5546 63.983 81.4223C64.238 81.3383 69.8238 79.365 69.8238 68.6562C69.8238 52.8506 52.8724 40.1231 38.8379 40.1231C19.5163 40.1231 7.28747 56.2749 7.16625 56.4378C6.89339 56.8046 6.39857 56.8625 6.0596 56.5678C5.86545 56.3992 5.76523 56.1523 5.76523 55.9031Z" fill="#1A1A1A"/>
<path d="M5.76513 55.9035C5.76513 55.4352 6.1146 55.0543 6.54803 55.052C6.98251 55.0497 7.3367 55.429 7.33932 55.899C7.34142 56.2856 7.72657 94.6846 24.1501 109.02C30.8278 114.876 39.8107 116.238 48.7972 112.757C60.0532 108.396 68.8162 97.7109 71.1208 85.5329C71.2079 85.0719 71.624 84.775 72.0501 84.8692C72.4762 84.9635 72.7491 85.4108 72.6635 85.8746C70.2503 98.6226 61.0911 109.804 49.3277 114.36C39.8117 118.047 30.2737 116.583 23.1605 110.344C6.155 95.5003 5.773 57.5175 5.76566 55.9075C5.76514 55.9069 5.76513 55.9052 5.76513 55.9035Z" fill="#1A1A1A"/>
<path d="M46.7623 34.004C46.7623 33.547 47.0976 33.1689 47.5232 33.1536C47.658 33.1473 50.9261 32.9543 52.6062 29.1985C52.7957 28.775 53.2663 28.5979 53.6578 28.8028C54.0487 29.0077 54.2119 29.5181 54.0235 29.9399C51.9188 34.6454 47.752 34.8487 47.5756 34.8555C47.1412 34.8714 46.7775 34.503 46.7628 34.0329C46.7623 34.0233 46.7623 34.0136 46.7623 34.004Z" fill="#1A1A1A"/>
<path d="M5.12448 108.574C5.12448 108.356 5.20109 108.138 5.35483 107.972C5.79403 107.497 6.40534 105.616 6.40534 104.416C6.34762 102.356 5.82761 100.939 5.82289 100.925C5.66075 100.488 5.85438 99.9932 6.25632 99.8161C6.65826 99.6395 7.11635 99.8473 7.28059 100.282C7.3063 100.35 7.91131 101.976 7.979 104.39L7.979 104.391C7.979 105.862 7.3189 108.255 6.46779 109.176C6.16029 109.509 5.66232 109.509 5.35483 109.176C5.20161 109.01 5.12448 108.792 5.12448 108.574Z" fill="#1A1A1A"/>
<path d="M23.0608 115.852C23.0608 115.602 23.1615 115.354 23.3562 115.186C23.6957 114.892 24.191 114.952 24.4623 115.319L28.306 120.517C28.5783 120.884 28.5222 121.42 28.1837 121.714C27.8442 122.008 27.3489 121.948 27.0776 121.581L23.2339 116.383C23.1169 116.226 23.0608 116.038 23.0608 115.852Z" fill="#1A1A1A"/>
<path d="M76.8698 78.0814C76.8698 77.8226 76.9784 77.5671 77.1847 77.3996C77.5326 77.1175 78.0263 77.1936 78.2871 77.5699L82.1302 83.114C82.3905 83.4898 82.3202 84.024 81.9728 84.3061C81.6249 84.5883 81.1312 84.5122 80.8704 84.1358L77.0267 78.5918C76.9212 78.4385 76.8698 78.2591 76.8698 78.0814Z" fill="#1A1A1A"/>
<path d="M72.9627 54.5174C72.9627 54.1263 73.2135 53.7737 73.5809 53.6869L79.4101 52.3006C79.8351 52.1995 80.2544 52.4902 80.3478 52.9494C80.4464 53.4087 80.1725 53.8629 79.748 53.9639L73.9188 55.3496C73.4938 55.4507 73.0745 55.16 72.9811 54.7008C72.968 54.6389 72.9627 54.5776 72.9627 54.5174Z" fill="#1A1A1A"/>
<path d="M27.5451 34.6981C27.5451 34.6391 27.5508 34.5801 27.5624 34.5205L28.8433 28.0057C28.9335 27.5453 29.3517 27.2518 29.7767 27.35C30.2023 27.4476 30.4725 27.9001 30.3823 28.3599L29.1014 34.8747C29.0112 35.3351 28.593 35.6286 28.1679 35.5304C27.798 35.4452 27.5451 35.0915 27.5451 34.6981Z" fill="#1A1A1A"/>
<path d="M49.9652 117.93C49.9652 117.821 49.9846 117.709 50.0255 117.602C50.1929 117.168 50.6537 116.963 51.0551 117.143L54.8982 118.876C55.2996 119.057 55.4885 119.554 55.3222 119.99C55.1548 120.424 54.6941 120.629 54.2927 120.449L50.4495 118.716C50.1473 118.58 49.9652 118.263 49.9652 117.93Z" fill="#1A1A1A"/>
<path d="M25.7511 75.8638C25.7511 75.5294 25.9342 75.2121 26.238 75.0764C26.64 74.897 27.1002 75.1036 27.266 75.5379L29.7007 81.9136C29.8665 82.3485 29.6755 82.8463 29.2736 83.0257C28.8717 83.2051 28.4115 82.9985 28.2457 82.5642L25.8109 76.1885C25.77 76.0818 25.7511 75.9722 25.7511 75.8638Z" fill="#1A1A1A"/>
<path d="M31.7724 52.3001C31.7724 52.0861 31.847 51.8721 31.9955 51.7063C32.2987 51.3691 32.7967 51.3617 33.1084 51.6898L37.8488 56.6798C38.161 57.0079 38.1663 57.5472 37.864 57.8839C37.5607 58.2211 37.0628 58.2285 36.7511 57.9003L32.0107 52.9104C31.8522 52.744 31.7724 52.5221 31.7724 52.3001Z" fill="#1A1A1A"/>
<path d="M57.0118 66.3003C57.0118 66.2452 57.0165 66.189 57.027 66.1328C57.1121 65.6713 57.5266 65.3727 57.9532 65.4646L64.3591 66.8504C64.7852 66.9423 65.0664 67.3902 64.9767 67.8523C64.8917 68.3139 64.4772 68.6125 64.0506 68.5205L57.6446 67.1348C57.2705 67.0536 57.0118 66.6982 57.0118 66.3003Z" fill="#1A1A1A"/>
<path d="M23.0609 99.4268C23.0609 99.1645 23.1726 98.9062 23.3831 98.7393C23.7341 98.4617 24.2263 98.544 24.4834 98.9238L28.3271 104.607C28.5831 104.986 28.5076 105.519 28.1565 105.797C27.8055 106.074 27.3133 105.992 27.0562 105.612L23.2125 99.9292C23.1102 99.7776 23.0609 99.6016 23.0609 99.4268Z" fill="#1A1A1A"/>
<path d="M5.76511 55.9034C5.76511 55.7848 5.7882 55.6644 5.837 55.5492C5.97972 55.2114 9.42931 47.1991 17.0458 40.5906C24.0966 34.4738 36.1564 28.5386 53.5696 35.0006C71.5626 41.6965 76.833 57.1194 78.0866 68.8785C79.4357 81.5232 76.6126 92.4109 76.4919 92.8684C76.3723 93.3203 75.9368 93.582 75.5191 93.4531C75.1014 93.3237 74.8579 92.852 74.9786 92.4007C75.008 92.2911 77.8389 81.3393 76.5182 69.0244C74.7588 52.6557 66.8658 41.7498 53.0585 36.6117C39.6454 31.6342 27.8762 33.4065 18.0779 41.8787C10.7322 48.23 7.30153 56.1793 7.26742 56.2594C7.08586 56.6863 6.61885 56.8742 6.22425 56.6778C5.93513 56.5347 5.76511 56.2259 5.76511 55.9034Z" fill="#1A1A1A"/>
<path d="M5.76524 55.9046C5.76524 55.606 5.91059 55.316 6.16929 55.1598C6.54919 54.9311 7.0288 55.0781 7.24026 55.4891C19.3621 79.0141 64.5844 91.6837 65.0393 91.8092C65.4612 91.925 65.7141 92.3882 65.6086 92.8441C65.5016 93.2999 65.0729 93.5753 64.6521 93.4595C62.7657 92.9406 18.3136 80.4781 5.86494 56.3185C5.79725 56.1868 5.76524 56.0449 5.76524 55.9046Z" fill="#1A1A1A"/>
<path d="M5.76516 55.9035C5.76516 55.4329 6.11778 55.052 6.55226 55.052C6.98673 55.052 7.33935 55.4329 7.33935 55.9035C7.33935 73.5001 14.9553 87.3279 29.9752 97.0041C41.2459 104.265 52.6855 106.327 52.7999 106.347C53.2286 106.422 53.524 106.863 53.4511 107.323C53.3818 107.787 52.9783 108.103 52.5491 108.028C52.4321 108.008 40.7369 105.907 29.2106 98.4943C18.5151 91.6162 5.76516 78.6434 5.76516 55.9035Z" fill="#1A1A1A"/>
<path d="M2.56226 66.9926C2.56226 58.7384 5.88486 55.4089 6.02654 55.2715C6.34925 54.957 6.84669 54.9854 7.13791 55.3345C7.42862 55.6842 7.4029 56.223 7.07914 56.5369C7.05343 56.563 4.13698 59.5621 4.13698 66.9926C4.13698 98.9977 32.4625 101.485 41.1441 101.485C53.6721 101.485 61.9696 98.778 62.0525 98.7513C62.4681 98.6133 62.9084 98.8654 63.0359 99.315C63.1649 99.7652 62.9299 100.241 62.5153 100.379C62.1706 100.494 53.9276 103.188 41.1441 103.188C32.093 103.188 2.56226 100.578 2.56226 66.9926Z" fill="#1A1A1A"/>
<path d="M5.76523 55.9035C5.76575 55.4329 6.11785 55.052 6.55233 55.052C6.81627 55.052 33.173 55.2927 51.325 76.1104C51.623 76.4527 51.6078 76.9914 51.2924 77.3144C50.976 77.6369 50.478 77.6216 50.18 77.2792C32.505 57.0088 6.80944 56.7556 6.55128 56.7556C6.11785 56.7551 5.76523 56.3741 5.76523 55.9035Z" fill="#1A1A1A"/>
<path d="M-0.000107747 78.15C-0.000107063 61.2601 5.78295 55.5038 6.02957 55.2671C6.35438 54.9548 6.8513 54.9861 7.14043 55.338C7.42955 55.6894 7.40069 56.227 7.07484 56.5404C7.02289 56.5915 1.57408 62.1202 1.57408 78.15C1.57408 81.5414 2.86807 90.8072 5.34112 96.4261C14.0275 116.003 32.8244 118.117 40.5033 118.117C50.4805 118.117 58.0618 114.752 58.1369 114.718C58.5383 114.538 58.9995 114.743 59.1664 115.177C59.3322 115.61 59.1438 116.109 58.7424 116.29C58.4228 116.434 50.7917 119.821 40.5028 119.821C32.5264 119.821 12.9943 117.612 3.92015 97.1607C1.30961 91.2284 -0.000107894 81.7758 -0.000107747 78.15Z" fill="#1A1A1A"/>
<path d="M5.76512 55.9036C5.76512 55.6936 5.83701 55.4829 5.98078 55.3183C18.7816 40.7021 32.8659 40.6373 42.427 43.1567C52.7327 45.872 59.9073 51.9298 60.2085 52.1864C60.5501 52.4782 60.6073 53.0129 60.3387 53.3819C60.0695 53.7509 59.5746 53.8145 59.2336 53.5233C59.1622 53.4626 51.9881 47.4144 42.003 44.7974C28.7053 41.3123 16.9707 45.2464 7.12365 56.4895C6.82508 56.8306 6.32606 56.8454 6.01122 56.5218C5.8475 56.3543 5.76512 56.129 5.76512 55.9036Z" fill="#1A1A1A"/>
<path d="M5.76509 55.9041C5.76509 55.5822 5.93458 55.2739 6.22265 55.1303C6.56373 54.96 14.7039 50.9635 25.7647 50.8942C35.8594 50.8056 44.6471 53.8519 52.6282 60.2083C64.8513 69.9152 64.9919 82.4054 64.9919 82.9322C64.9919 83.4029 64.6393 83.7838 64.2048 83.7838C63.7704 83.7838 63.4178 83.4029 63.4178 82.9322C63.4172 82.813 63.2493 70.7548 51.6958 61.5804C43.998 55.4499 35.5194 52.5116 25.7757 52.5973C15.0707 52.6648 6.962 56.6375 6.88119 56.6772C6.48659 56.8737 6.01906 56.6869 5.83751 56.26C5.78818 56.1442 5.76509 56.0233 5.76509 55.9041Z" fill="#1A1A1A"/>
</g>
</svg>
