<svg width="176" height="176" viewBox="0 0 176 176" fill="none" xmlns="http://www.w3.org/2000/svg">
<path d="M176 0H0L176 176V0Z" fill="#312922"/>
<path d="M123.424 80.7182C123.048 81.0937 122.66 81.4566 122.297 81.8446C121.984 82.1575 121.609 82.3077 121.183 82.3077C120.745 82.3202 120.32 82.3202 119.882 82.3327C119.656 82.3327 119.444 82.2451 119.256 82.1575C118.855 81.9823 118.467 81.7946 118.079 81.6068C117.967 81.5443 117.842 81.4692 117.742 81.369C117.491 81.1187 117.241 80.8684 117.028 80.5805C116.84 80.3177 116.678 80.0549 116.553 79.7545C116.202 78.9285 116.002 78.0774 116.127 77.1762C116.177 76.8759 116.19 76.588 116.215 76.2876C116.24 75.9121 116.352 75.5492 116.528 75.2238C116.915 74.5104 117.329 73.822 117.829 73.1712C118.092 72.8082 118.48 72.5454 118.868 72.3076C119.644 71.807 120.495 71.4315 121.346 71.0811C121.847 70.8558 122.36 70.7682 122.911 70.8433C123.136 70.8683 123.374 70.8558 123.611 70.8683C123.862 70.8933 124.125 70.9058 124.362 70.9934C124.851 71.1561 125.301 71.4065 125.727 71.6818C125.777 71.7068 125.802 71.7319 125.827 71.7569C126.302 72.3827 126.853 72.9584 127.166 73.6969C127.391 74.2225 127.491 74.7482 127.404 75.3114C127.366 75.5742 127.354 75.8621 127.329 76.1374C127.316 76.2751 127.304 76.4128 127.279 76.5379C127.229 76.8383 127.091 76.9259 126.778 76.9134C126.277 76.8634 125.814 76.7507 125.351 76.563C125.188 76.5004 125.063 76.4253 124.951 76.3127C124.876 76.2125 124.813 76.1249 124.813 75.9998C124.813 75.7494 124.8 75.5116 124.825 75.2864C124.851 74.5855 124.3 73.9847 123.749 73.7845C123.499 73.6843 123.223 73.6343 122.948 73.6343C122.46 73.6218 122.009 73.7219 121.559 73.847C121.221 73.9347 120.971 74.185 120.72 74.3852C120.37 74.6606 120.082 74.9735 119.757 75.2738C119.531 75.4741 119.381 75.7244 119.268 76.0123C119.031 76.6005 118.868 77.2138 118.818 77.8396C118.768 78.4153 118.981 78.8784 119.506 79.1788C119.744 79.2914 120.007 79.4041 120.27 79.4917C120.545 79.5918 120.82 79.5417 121.021 79.3164C121.309 79.0286 121.584 78.7532 121.834 78.4529C122.034 78.2276 122.034 78.0524 121.859 77.8271C121.722 77.6393 121.559 77.5017 121.409 77.3515C120.783 76.7507 120.958 76.6005 121.283 76.0749C121.509 75.6994 121.847 75.4115 122.247 75.2113C122.397 75.1362 122.548 75.1612 122.685 75.2738C122.735 75.3239 122.798 75.3615 122.86 75.424C123.248 75.812 124.037 76.5755 124.037 76.5755C124.425 76.9635 124.8 77.339 125.176 77.7144C125.226 77.7645 125.289 77.8271 125.326 77.8896C125.614 78.2025 125.539 78.578 125.326 78.7908C125.138 78.9785 124.951 79.1663 124.738 79.3039C124.425 79.5167 124.175 79.767 123.962 80.0799C123.799 80.3177 123.624 80.518 123.424 80.7182Z" fill="white"/>
<path d="M116.829 71.7205C116.629 71.9708 116.404 72.1711 116.116 72.3338C115.853 72.4965 115.615 72.7093 115.352 72.897C115.252 72.9721 115.115 73.0347 114.989 73.0848C114.651 73.2224 114.301 73.3476 113.951 73.4978C113.512 73.7105 113.049 73.7982 112.586 73.8357C112.311 73.8607 112.023 73.8232 111.76 73.7606C111.247 73.648 110.721 73.5228 110.208 73.3601C109.958 73.285 109.695 73.1473 109.482 72.9846C108.944 72.5966 108.531 72.1085 108.243 71.4952C107.868 70.7193 107.743 69.8932 107.693 69.0422C107.63 68.3788 107.743 67.7405 108.056 67.1523C108.256 66.7518 108.444 66.3387 108.644 65.9382C108.857 65.5002 109.17 65.1372 109.47 64.7868C109.583 64.6491 109.708 64.524 109.833 64.3988C110.133 64.0484 110.471 63.7605 110.872 63.5352C111.172 63.36 111.46 63.1973 111.735 63.0221C112.023 62.8594 112.311 62.7467 112.624 62.7092C113.212 62.6216 113.8 62.5089 114.389 62.4213C114.639 62.3712 114.889 62.3963 115.14 62.4463C115.84 62.5965 116.516 62.8218 117.13 63.2098C117.392 63.3725 117.618 63.5728 117.83 63.8356C118.269 64.4238 118.594 65.0746 118.882 65.738C119.044 66.126 119.107 66.539 119.019 66.952C118.944 67.3776 118.894 67.8281 118.819 68.2537C118.769 68.4539 118.707 68.6667 118.631 68.8669C118.544 69.1548 118.444 69.4301 118.356 69.718C118.306 69.8682 118.243 70.0059 118.143 70.131C117.693 70.6567 117.28 71.1949 116.829 71.7205ZM115.415 69.2049C115.765 68.9545 116.016 68.4038 116.141 67.8031C116.191 67.6028 116.228 67.4151 116.278 67.2148C116.391 66.7768 116.291 66.3513 116.103 65.9633C115.853 65.4126 115.415 65.0997 114.839 65.0246C114.101 64.937 113.412 65.0746 112.824 65.5377C112.474 65.8131 112.098 66.0634 111.735 66.3513C111.535 66.5014 111.335 66.6767 111.197 66.8894C110.984 67.1773 110.822 67.5152 110.634 67.8532C110.559 68.0033 110.509 68.1786 110.484 68.3538C110.421 68.5916 110.384 68.8544 110.333 69.1047C110.221 69.8181 110.521 70.4439 111.16 70.7818C111.585 71.0071 112.011 71.1073 112.486 71.0071C112.649 70.9696 112.824 70.9446 112.999 70.9195C113.25 70.8444 113.487 70.7568 113.7 70.6191C114.251 70.2186 114.764 69.8056 115.415 69.2049Z" fill="white"/>
<path d="M106.204 67.0526C105.891 67.4155 105.553 67.7535 105.228 68.0789C105.027 68.2541 104.84 68.2666 104.627 68.1039C104.402 67.9037 104.189 67.7159 103.976 67.5032C103.238 66.7898 102.512 66.0638 101.786 65.3379C101.536 65.0626 101.298 64.7747 101.06 64.4868C100.797 64.174 100.534 63.8861 100.209 63.6608C99.8584 63.4105 99.5455 63.0976 99.2702 62.7722C99.095 62.5719 99.1075 62.3842 99.2702 62.1714C99.5455 61.846 99.8209 61.5206 100.121 61.1952C100.347 60.9449 100.572 60.7196 100.872 60.5444C101.035 60.4317 101.16 60.2815 101.298 60.1439C101.673 59.7934 102.036 59.4305 102.399 59.0675C102.649 58.7922 102.9 58.5168 103.15 58.2164C103.638 57.6282 104.151 57.065 104.777 56.6144C105.253 56.289 105.653 55.8635 105.991 55.4004C106.367 54.8747 106.842 54.4742 107.368 54.1238C107.568 53.9736 107.768 53.9986 107.981 54.1363C108.332 54.3866 108.695 54.6244 108.907 55.0124C109.007 55.1626 109.145 55.2752 109.245 55.4254C109.333 55.5631 109.37 55.7258 109.245 55.876C109.145 56.0011 109.07 56.1513 108.97 56.2515C108.169 57.0775 107.368 57.9035 106.517 58.7546C105.791 59.4805 105.015 60.2315 104.239 60.9824C104.089 61.1326 103.901 61.2453 103.738 61.408C103.488 61.6332 103.238 61.8585 103.012 62.0838C102.7 62.4217 102.687 62.6846 103.012 63.035C103.463 63.5106 103.914 63.9612 104.377 64.4243C104.965 65.0375 105.578 65.6258 106.166 66.2391C106.479 66.552 106.492 66.7147 106.204 67.0526Z" fill="white"/>
<path d="M100.173 57.7683C99.8228 58.344 99.3222 58.7696 98.7339 59.0574C98.5211 59.145 98.2708 59.1951 98.0455 59.2201C96.819 59.3453 95.7426 58.9948 94.829 58.1813C94.5787 57.956 94.3659 57.6932 94.0906 57.4929C93.4022 56.9548 92.8265 56.3039 92.2132 55.6907C91.8127 55.3152 91.4122 54.9397 91.0242 54.5517C90.461 54.0136 90.5486 53.976 90.9992 53.5254C91.2244 53.3252 91.4372 53.1124 91.6375 52.9122C91.8002 52.7745 91.9754 52.6243 92.1381 52.4866C92.5261 52.1487 92.889 51.8108 93.1894 51.3852C93.6024 50.8471 94.0906 50.384 94.6162 49.9835C94.9792 49.6956 95.3046 49.3952 95.5674 49.0072C95.7426 48.7569 95.9679 48.5316 96.1932 48.3064C96.794 47.7056 97.3947 47.1048 97.983 46.5166C98.2082 46.2913 98.446 46.0785 98.6838 45.8658C98.7464 45.8032 98.8215 45.7281 98.9091 45.6906C99.2471 45.4528 99.3347 45.4653 99.635 45.7406C100.023 46.1286 100.399 46.5291 100.812 46.9171C101.024 47.1299 101.275 47.3301 101.512 47.5429C101.588 47.618 101.663 47.668 101.725 47.7557C102.088 48.2938 102.564 48.7444 103.039 49.195C103.915 50.021 104.266 51.0473 104.241 52.2238C104.241 52.2989 104.253 52.3865 104.228 52.4616C103.991 53.15 103.74 53.8258 103.202 54.364C102.977 54.5893 102.714 54.752 102.426 54.8646C102.176 54.9648 101.938 55.0273 101.688 55.1024C101.6 55.14 101.487 55.1525 101.4 55.19C101.137 55.3277 100.924 55.5154 100.887 55.8534C100.824 56.5668 100.536 57.1801 100.173 57.7683ZM99.4098 49.5955C99.0844 49.8708 98.809 50.1712 98.5211 50.4591C98.3835 50.5967 98.396 50.7845 98.446 50.9597C98.4836 51.0223 98.5211 51.1099 98.5587 51.1725C98.8716 51.5605 99.2345 51.8984 99.6726 52.1362C100.061 52.349 100.461 52.3239 100.749 52.011C100.837 51.9234 100.912 51.8483 100.999 51.7607C101.312 51.3978 101.35 51.0348 101.087 50.6218C100.937 50.4215 100.586 50.0461 100.574 50.0586C100.449 49.9334 100.323 49.8082 100.198 49.6831C100.173 49.6581 100.148 49.633 100.111 49.6205C99.8603 49.4453 99.635 49.4203 99.4098 49.5955ZM97.3822 56.1788C97.595 55.9911 97.7827 55.8033 97.983 55.6031C98.1707 55.4153 98.2208 55.165 98.1832 54.9022C98.1332 54.6769 98.0455 54.4892 97.8703 54.339C97.4823 53.951 97.0943 53.563 96.7064 53.175C96.6688 53.1374 96.6187 53.0874 96.5812 53.0498C96.3935 52.9122 96.1557 52.8746 95.993 53.0373C95.5924 53.4128 95.217 53.8133 94.829 54.2013C94.7914 54.2388 94.7789 54.2764 94.7664 54.3139C94.6788 54.5017 94.6663 54.6894 94.7914 54.8646C94.8665 54.9898 94.9291 55.1024 95.0292 55.2026C95.1544 55.3527 95.3046 55.4779 95.4423 55.6156C95.63 55.8033 95.7927 55.9911 95.9804 56.1538C96.3559 56.4792 96.8315 56.6043 97.3822 56.1788Z" fill="white"/>
<path d="M150.471 85.0512C150.309 85.289 150.083 85.4392 149.808 85.5393C149.195 85.7521 148.557 85.9148 147.918 86.0275C147.543 86.0775 147.18 86.04 146.829 85.8648C146.579 85.7396 146.329 85.6395 146.078 85.5143C145.928 85.4392 145.753 85.3391 145.653 85.2139C145.127 84.6132 144.652 83.9874 144.339 83.249C144.164 82.8735 144.076 82.4855 144.138 82.0474C144.164 81.7471 144.113 81.4467 144.126 81.1588C144.138 80.946 144.176 80.7333 144.226 80.533C144.264 80.3703 144.451 80.2827 144.602 80.3328C145.252 80.483 145.891 80.6707 146.554 80.8334C146.779 80.8835 146.892 81.0211 146.892 81.2464C146.904 81.4842 146.917 81.722 146.904 81.9598C146.879 82.4605 147.092 82.8234 147.468 83.1238C147.505 83.1363 147.518 83.1488 147.53 83.1613C147.931 83.4367 148.444 83.249 148.519 82.7483C148.557 82.4354 148.519 82.1225 148.481 81.8096C148.469 81.5969 148.381 81.3841 148.306 81.1838C147.993 80.0449 147.781 78.8809 147.781 77.6794C147.781 76.7783 148.156 76.0524 148.807 75.4516C149.145 75.1137 149.558 74.8759 150.033 74.7758C150.434 74.7007 150.847 74.588 151.247 74.5129C151.61 74.4504 151.961 74.5004 152.286 74.6506C152.474 74.7382 152.662 74.8509 152.837 74.976C153.2 75.2388 153.538 75.5017 153.801 75.6894C154.164 76.0774 154.389 76.4278 154.539 76.8033C154.727 77.2914 154.865 77.7796 155.04 78.2552C155.14 78.5555 155.14 78.8559 155.102 79.1438C155.065 79.5067 154.977 79.8697 154.89 80.2327C154.852 80.3954 154.727 80.4704 154.564 80.4329C154.376 80.3954 154.189 80.3578 154.001 80.2702C153.625 80.095 153.237 79.9573 152.824 79.8947C152.737 79.8822 152.637 79.8572 152.549 79.8196C152.349 79.7696 152.299 79.6694 152.324 79.4692C152.336 79.3065 152.386 79.1563 152.386 79.0061C152.411 78.5305 152.286 78.105 151.986 77.7295C151.861 77.5793 151.711 77.4541 151.523 77.3916C151.323 77.2914 151.122 77.3165 150.947 77.4166C150.684 77.5793 150.509 77.8046 150.471 78.1175C150.446 78.4429 150.459 78.7558 150.559 79.0562C150.672 79.3691 150.772 79.6945 150.885 80.0074C150.972 80.3203 151.072 80.6206 151.147 80.921C151.26 81.309 151.31 81.6845 151.31 82.085C151.298 82.4479 151.323 82.7984 151.323 83.1488C151.335 83.3115 151.31 83.4617 151.26 83.6119C151.085 84.1376 150.784 84.6132 150.471 85.0512Z" fill="white"/>
<path d="M143.428 77.6315C142.752 78.2573 142.151 78.9332 141.513 79.5715C141.4 79.6841 141.275 79.7843 141.15 79.8844C140.912 80.0471 140.724 80.0346 140.524 79.8343C140.436 79.7467 140.349 79.6591 140.274 79.584C140.048 79.3587 139.836 79.1209 139.548 78.9832C139.423 78.9082 139.335 78.7955 139.235 78.6954C139.035 78.5202 138.985 78.2699 139.022 78.007C139.035 77.9194 139.06 77.8443 139.085 77.7692C139.31 77.1935 139.473 76.6052 139.761 76.0671C139.948 75.7291 140.098 75.3537 140.199 74.9782C140.261 74.7404 140.374 74.5026 140.486 74.2648C140.637 73.8643 140.812 73.4638 140.962 73.0633C141 72.9757 141.025 72.9006 141.037 72.838C141.062 72.6878 141.087 72.5627 140.987 72.4375C140.9 72.3499 140.737 72.3624 140.549 72.475C140.098 72.7254 139.748 73.0508 139.46 73.4638C139.323 73.6766 139.135 73.8643 138.972 74.052C138.697 74.3274 138.421 74.6027 138.184 74.9406C137.921 75.3036 137.533 75.5664 137.157 75.8168C136.945 75.9795 136.719 75.9544 136.506 75.7917C136.269 75.604 136.018 75.4538 135.806 75.241C135.543 74.9782 135.33 74.6653 135.105 74.3649C135.067 74.3023 135.092 74.1772 135.13 74.0896C135.167 74.002 135.242 73.9269 135.305 73.8643C135.668 73.5013 136.093 73.201 136.356 72.7379C136.381 72.6878 136.431 72.6628 136.494 72.6252C137.207 72.1121 137.833 71.4863 138.346 70.7479C138.459 70.6102 138.584 70.485 138.722 70.3724C139.36 69.9093 139.898 69.3211 140.411 68.7328C140.799 68.2697 141.2 67.7941 141.701 67.4437C141.901 67.3185 142.063 67.1308 142.226 66.9681C142.476 66.7428 142.702 66.4925 142.94 66.2547C143.015 66.1796 143.077 66.117 143.152 66.0419C143.403 65.8417 143.603 65.8166 143.853 66.0169C144.279 66.3673 144.679 66.7428 145.017 67.1809C145.192 67.4312 145.23 67.694 145.155 67.9694C145.042 68.4324 144.93 68.8955 144.804 69.3461C144.717 69.634 144.617 69.9093 144.479 70.1721C144.304 70.5226 144.154 70.8981 144.091 71.286C144.016 71.6615 143.816 71.9869 143.678 72.3248C143.59 72.5376 143.49 72.7128 143.49 72.9381C143.49 73.0883 143.528 73.201 143.64 73.2385C143.741 73.2886 143.828 73.251 143.916 73.1884C144.041 73.0883 144.154 72.9757 144.254 72.8755C144.742 72.3874 145.242 71.8868 145.731 71.3987C146.018 71.1108 146.294 70.8104 146.657 70.5726C146.87 70.4099 147.045 70.1847 147.232 69.9969C147.308 69.9218 147.37 69.8592 147.458 69.7967C147.545 69.7341 147.646 69.7341 147.721 69.8092C147.846 69.9093 147.958 70.0219 148.071 70.1346C148.409 70.4975 148.747 70.8605 149.135 71.1484C149.223 71.2109 149.298 71.3361 149.323 71.4362C149.36 71.5238 149.335 71.624 149.298 71.7116C149.273 71.7867 149.21 71.8492 149.16 71.8993C148.684 72.3749 148.209 72.8505 147.733 73.3261C147.508 73.5264 147.308 73.7266 147.095 73.9394C146.482 74.5527 145.868 75.1659 145.268 75.7917C145.255 75.7792 144.053 77.0308 143.428 77.6315Z" fill="white"/>
<path d="M133.828 72.6378C133.803 72.6879 133.766 72.7254 133.716 72.7755C133.666 72.8506 133.515 72.8756 133.453 72.813C132.99 72.3499 132.539 71.8994 132.076 71.4363C131.913 71.2736 131.938 71.0733 132.026 70.8856C132.176 70.6102 132.326 70.3349 132.477 70.0595C132.602 69.8342 132.714 69.5964 132.802 69.3586C132.94 69.0207 132.89 68.6953 132.614 68.445C132.289 68.1196 131.951 67.8067 131.626 67.5063C131.35 67.256 131.05 67.0307 130.787 66.7679C130.537 66.5176 130.274 66.455 129.973 66.5801C129.586 66.7679 129.198 66.9556 128.797 67.1308C128.647 67.2059 128.534 67.2935 128.371 67.3561C128.221 67.4062 128.059 67.3937 127.933 67.2685C127.52 66.8555 127.095 66.455 126.669 66.0294C126.619 65.9794 126.569 65.9043 126.532 65.8417C126.482 65.7666 126.519 65.6289 126.594 65.5789C126.657 65.5163 126.719 65.4788 126.782 65.4412C127.671 64.9281 128.559 64.4149 129.448 63.9018C129.761 63.7391 130.086 63.5889 130.412 63.4637C130.775 63.326 131.125 63.1508 131.45 62.9255C131.788 62.7128 132.126 62.525 132.477 62.3248C133.015 62.0369 133.528 61.699 134.066 61.4111C135.005 60.898 135.956 60.3723 136.945 59.9343C137.007 59.8967 137.082 59.8717 137.17 59.8341C137.395 59.734 137.608 59.7716 137.771 59.9343C138.059 60.1971 138.322 60.485 138.684 60.8479C138.797 60.9355 138.985 61.0982 139.173 61.286C139.273 61.3861 139.385 61.4737 139.46 61.5738C139.623 61.7616 139.661 61.9743 139.536 62.1746C139.248 62.6877 139.035 63.2509 138.71 63.7516C138.572 63.9393 138.447 64.1396 138.359 64.3523C138.084 64.9281 137.783 65.4788 137.47 66.0169C137.42 66.092 137.395 66.1671 137.358 66.2297C137.108 66.9056 136.732 67.5063 136.369 68.1196C136.244 68.3198 136.144 68.5201 136.044 68.7454C135.868 69.221 135.606 69.659 135.343 70.0971C135.042 70.5977 134.755 71.0858 134.467 71.5739C134.254 71.9369 134.041 72.2748 133.828 72.6378ZM133.49 66.868C133.716 67.0432 133.991 67.0182 134.166 66.8179C134.241 66.7178 134.291 66.6177 134.354 66.5051C134.479 66.2798 134.579 66.0545 134.73 65.8542C135.042 65.4162 135.193 64.8905 135.418 64.4149C135.455 64.3523 135.468 64.2647 135.48 64.2021C135.505 63.9769 135.318 63.8142 135.105 63.8767C135.017 63.8892 134.93 63.9268 134.83 63.9518C134.091 64.2397 133.453 64.7278 132.739 65.0657C132.714 65.0908 132.689 65.1158 132.664 65.1408C132.427 65.3286 132.364 65.5664 132.539 65.8167C132.689 66.042 132.89 66.2422 132.977 66.3549C133.19 66.5676 133.29 66.6678 133.403 66.7804C133.44 66.8179 133.465 66.843 133.49 66.868Z" fill="white"/>
<path d="M128.478 61.0803C128.378 61.2305 128.253 61.3807 128.103 61.4558C127.577 61.7562 127.202 62.2318 126.826 62.6823C126.726 62.8075 126.626 62.9076 126.501 63.0077C126.113 63.3457 125.763 63.7211 125.387 64.0716C125.287 64.1717 125.187 64.2718 125.074 64.3344C125.024 64.3594 124.911 64.372 124.861 64.3219C124.711 64.1967 124.561 64.0716 124.448 63.9089C124.223 63.5835 123.948 63.3081 123.61 63.0953C123.522 63.0328 123.435 62.9452 123.347 62.8575C123.197 62.6823 123.172 62.5071 123.347 62.3319C123.522 62.1066 123.747 61.9063 123.96 61.6936C124.398 61.2555 124.849 60.805 125.299 60.3544C125.725 59.9289 126.163 59.4908 126.589 59.0653C126.589 59.0653 128.503 57.1754 129.43 56.1991C129.78 55.8237 130.156 55.4482 130.556 55.0978C130.819 54.86 131.057 54.5971 131.307 54.3468C131.382 54.2717 131.445 54.2091 131.52 54.134C131.695 53.9839 131.87 53.9588 132.058 54.0965C132.221 54.2091 132.383 54.3218 132.496 54.4845C132.734 54.8474 133.022 55.1854 133.322 55.4857C133.372 55.5358 133.397 55.5859 133.422 55.6359C133.497 55.7611 133.51 55.8988 133.41 56.0239C133.31 56.124 133.209 56.2242 133.122 56.3368C132.684 56.7999 132.283 57.3005 131.758 57.701C131.47 57.9388 131.244 58.2392 131.007 58.5271C130.669 58.9151 130.306 59.278 129.918 59.616C129.392 60.0665 128.866 60.5171 128.478 61.0803Z" fill="white"/>
<path d="M128.671 54.2143C128.634 54.3269 128.533 54.3519 128.421 54.3394C128.333 54.3269 128.233 54.3019 128.145 54.2643C127.62 54.0891 127.094 53.9139 126.568 53.7387C126.493 53.7136 126.418 53.6886 126.356 53.6511C126.218 53.5634 126.105 53.4508 126.118 53.2631C126.118 53.0127 126.105 52.7499 126.105 52.4996C126.143 51.8112 125.73 51.4232 125.167 51.1354C124.829 50.9727 124.453 50.9226 124.078 50.8976C123.878 50.8725 123.69 50.9351 123.502 50.9977C123.252 51.1229 123.001 51.223 122.739 51.3356C122.251 51.5484 121.812 51.8363 121.462 52.2368C120.874 52.7499 120.523 53.4258 120.273 54.1267C120.135 54.4896 120.073 54.8526 120.198 55.228C120.273 55.4784 120.323 55.7287 120.411 55.9665C120.611 56.5172 120.986 56.8426 121.562 56.9427C121.687 56.9677 121.812 56.9677 121.913 56.9928C122.15 57.0303 122.263 57.143 122.301 57.3808C122.313 57.5184 122.326 57.6561 122.313 57.7938C122.301 58.1067 122.313 58.4196 122.376 58.7325C122.401 58.9077 122.401 59.0829 122.401 59.2581C122.413 59.4208 122.263 59.571 122.113 59.571C121.6 59.5835 121.087 59.6211 120.586 59.3958C120.198 59.2081 119.797 59.0829 119.422 58.8576C119.059 58.6449 118.771 58.382 118.533 58.0691C118.283 57.7437 118.07 57.3808 117.845 57.0303C117.707 56.8426 117.62 56.6298 117.62 56.3795C117.595 55.6285 117.595 54.8776 117.57 54.1267C117.545 53.626 117.695 53.1504 117.933 52.7124C118.27 52.1492 118.608 51.5609 118.971 50.9977C119.397 50.3219 119.973 49.7962 120.699 49.4207C120.936 49.283 121.187 49.1579 121.399 48.9952C121.637 48.8074 121.888 48.6823 122.188 48.6072C122.313 48.5822 122.426 48.5696 122.538 48.5071C123.039 48.2317 123.59 48.2567 124.14 48.2818C124.791 48.3318 125.442 48.432 126.08 48.5446C126.431 48.6197 126.706 48.7699 126.956 48.9952C127.257 49.2705 127.557 49.5208 127.858 49.7712C128.045 49.9088 128.133 50.0966 128.233 50.2968C128.396 50.6097 128.546 50.9351 128.684 51.248C128.734 51.3982 128.784 51.5484 128.796 51.7111C128.871 52.0616 128.921 52.412 128.934 52.775C128.971 53.2631 128.859 53.7512 128.671 54.2143Z" fill="white"/>
<path d="M117.038 49.6399C116.938 49.7901 116.813 49.9403 116.663 50.0153C116.137 50.3157 115.762 50.7913 115.386 51.2419C115.286 51.3671 115.186 51.4672 115.061 51.5673C114.673 51.9052 114.322 52.2807 113.947 52.6311C113.847 52.7313 113.747 52.8314 113.634 52.894C113.584 52.919 113.471 52.9315 113.421 52.8815C113.271 52.7563 113.121 52.6311 113.008 52.4684C112.783 52.143 112.508 51.8677 112.17 51.6549C112.082 51.5923 111.994 51.5047 111.907 51.4171C111.757 51.2419 111.732 51.0667 111.907 50.8915C112.082 50.6662 112.307 50.4659 112.52 50.2531C112.958 49.8151 113.409 49.3645 113.859 48.914C114.285 48.4884 114.723 48.0504 115.148 47.6248C115.148 47.6248 117.063 45.7349 117.989 44.7587C118.34 44.3832 118.715 44.0078 119.116 43.6573C119.379 43.4195 119.617 43.1567 119.867 42.9064C119.942 42.8313 120.005 42.7687 120.08 42.6936C120.255 42.5434 120.43 42.5184 120.618 42.6561C120.78 42.7687 120.943 42.8813 121.056 43.0441C121.294 43.407 121.582 43.7449 121.882 44.0453C121.932 44.0954 121.957 44.1454 121.982 44.1955C122.057 44.3207 122.07 44.4583 121.969 44.5835C121.869 44.6836 121.769 44.7837 121.682 44.8964C121.244 45.3595 120.843 45.8601 120.317 46.2606C120.03 46.4984 119.804 46.7988 119.566 47.0867C119.229 47.4746 118.866 47.8376 118.478 48.1755C117.952 48.6261 117.426 49.0767 117.038 49.6399Z" fill="white"/>
<path d="M112.484 47.0629C112.321 47.3007 112.096 47.4509 111.821 47.5511C111.207 47.7638 110.569 47.9265 109.931 48.0392C109.555 48.0892 109.192 48.0517 108.842 47.8765C108.592 47.7513 108.341 47.6512 108.091 47.526C107.941 47.4509 107.766 47.3508 107.665 47.2257C107.14 46.6249 106.664 45.9991 106.351 45.2607C106.176 44.8852 106.088 44.4972 106.151 44.0592C106.176 43.7588 106.126 43.4584 106.139 43.1705C106.151 42.9578 106.189 42.745 106.239 42.5447C106.276 42.382 106.464 42.2944 106.614 42.3445C107.265 42.4947 107.903 42.6824 108.567 42.8451C108.792 42.8952 108.905 43.0329 108.905 43.2581C108.917 43.4959 108.93 43.7337 108.917 43.9715C108.892 44.4722 109.105 44.8351 109.48 45.1355C109.518 45.148 109.53 45.1605 109.543 45.1731C109.943 45.4484 110.456 45.2607 110.532 44.76C110.569 44.4471 110.532 44.1343 110.494 43.8214C110.482 43.6086 110.394 43.3958 110.319 43.1956C110.006 42.0566 109.793 40.8927 109.793 39.6911C109.793 38.79 110.169 38.0641 110.819 37.4633C111.157 37.1254 111.57 36.8876 112.046 36.7875C112.447 36.7124 112.86 36.5997 113.26 36.5247C113.623 36.4621 113.973 36.5121 114.299 36.6623C114.487 36.7499 114.674 36.8626 114.85 36.9877C115.212 37.2506 115.55 37.5134 115.813 37.7011C116.176 38.0891 116.401 38.4396 116.552 38.815C116.739 39.3032 116.877 39.7913 117.052 40.2669C117.152 40.5673 117.152 40.8676 117.115 41.1555C117.077 41.5185 116.99 41.8814 116.902 42.2444C116.865 42.4071 116.739 42.4822 116.577 42.4446C116.389 42.4071 116.201 42.3695 116.014 42.2819C115.638 42.1067 115.25 41.969 114.837 41.9064C114.749 41.8939 114.649 41.8689 114.562 41.8313C114.361 41.7813 114.311 41.6812 114.336 41.4809C114.349 41.3182 114.399 41.168 114.399 41.0178C114.424 40.5422 114.299 40.1167 113.998 39.7412C113.873 39.591 113.723 39.4659 113.535 39.4033C113.335 39.3032 113.135 39.3282 112.96 39.4283C112.697 39.591 112.522 39.8163 112.484 40.1292C112.459 40.4546 112.472 40.7675 112.572 41.0679C112.684 41.3808 112.784 41.7062 112.897 42.0191C112.985 42.332 113.085 42.6324 113.16 42.9327C113.273 43.3207 113.323 43.6962 113.323 44.0967C113.31 44.4597 113.335 44.8101 113.335 45.1605C113.348 45.3233 113.323 45.4734 113.273 45.6236C113.097 46.1493 112.797 46.6249 112.484 47.0629Z" fill="white"/>
<path d="M108.151 37.0983C108.088 37.2109 107.988 37.286 107.913 37.3611C107.312 37.9619 106.712 38.5626 106.111 39.1634C105.948 39.3261 104.709 40.3399 104.559 40.415C103.996 40.7529 103.395 40.9281 102.744 40.803C102.256 40.7153 101.78 40.6152 101.305 40.4901C101.117 40.4525 100.917 40.3524 100.779 40.2397C100.016 39.6014 99.3649 38.8505 98.8517 38.0119C98.689 37.7741 98.6139 37.5238 98.6014 37.236C98.6139 36.873 98.6014 36.5351 98.5889 36.1721C98.5764 35.5588 98.8017 35.0081 99.1396 34.52C99.3774 34.1571 99.6653 33.8191 99.9531 33.5062C100.604 32.7803 101.342 32.1671 101.993 31.4411C102.131 31.2784 102.294 31.1408 102.456 30.9781C102.456 30.9781 103.883 29.5763 104.596 28.8629C104.859 28.6001 105.11 28.3247 105.397 28.0619C105.61 27.8741 105.748 27.8867 105.973 28.0619C106.349 28.3873 106.724 28.7127 107.075 29.0381C107.212 29.1758 107.362 29.326 107.45 29.4887C107.575 29.6639 107.525 29.9142 107.35 30.0143C106.974 30.2396 106.687 30.5776 106.386 30.8779C106.073 31.1908 105.748 31.4662 105.46 31.8041C105.06 32.2797 104.596 32.7178 104.133 33.1308C103.77 33.4687 103.42 33.8191 103.082 34.1821C102.632 34.6577 102.193 35.1708 101.743 35.6715C101.417 36.0219 101.33 36.46 101.53 36.9356C101.78 37.5864 102.244 37.8993 102.944 37.8743C103.658 37.8367 104.183 37.4863 104.546 36.898C104.934 36.2597 105.51 35.8092 106.061 35.3336C106.399 35.0457 106.762 34.7829 107 34.3698C107.05 34.2947 107.125 34.2196 107.187 34.1571C107.5 33.8442 107.801 33.5438 108.113 33.2309C108.201 33.1433 108.276 33.0682 108.389 33.0056C108.627 32.8679 108.827 32.6927 108.964 32.4299C109.015 32.3548 109.077 32.2672 109.14 32.2046C109.415 31.9543 109.703 31.9167 110.003 32.142C110.266 32.3298 110.541 32.53 110.779 32.7678C111.005 32.9931 111.18 33.2434 111.368 33.5062C111.455 33.6189 111.43 33.8191 111.317 33.9318C111.142 34.107 110.98 34.2697 110.792 34.4074C110.329 34.7703 109.941 35.1834 109.565 35.6089C109.465 35.709 109.39 35.8092 109.277 35.8968C108.864 36.2597 108.439 36.6102 108.151 37.0983Z" fill="white"/>
<path d="M96.2521 34.6362C96.177 34.7363 96.0769 34.8114 96.0018 34.8865C95.8891 34.9741 95.7264 34.9867 95.6138 34.899C95.2758 34.6612 94.9379 34.3984 94.6876 34.1982C94.5124 33.9979 94.3872 33.8728 94.2746 33.7351C94.0868 33.5223 94.0368 33.272 94.1995 33.0342C94.6751 32.2832 95.0506 31.4822 95.6513 30.8064C95.7514 30.6812 95.8391 30.5686 95.9267 30.4309C96.1645 30.0179 96.3772 29.6049 96.6025 29.1793C96.6401 29.1418 96.6776 29.0792 96.6776 29.0291C96.6776 28.954 96.6901 28.8664 96.6526 28.8039C96.59 28.7162 96.4774 28.7037 96.3772 28.7538C95.9642 28.9666 95.5011 29.1293 95.1382 29.4171C94.8128 29.6925 94.4623 29.8927 94.1119 30.118C93.6363 30.3934 93.1732 30.7063 92.7101 30.9941C92.5474 31.1068 92.3722 31.2069 92.2095 31.2945C92.0468 31.3821 91.8841 31.3696 91.7714 31.2319C91.3083 30.7688 90.8077 30.3433 90.4573 29.7926C90.3446 29.6299 90.3071 29.4672 90.3822 29.292C90.4448 29.1293 90.5198 28.954 90.6075 28.8164C90.9329 28.3408 91.2583 27.8652 91.6087 27.4146C92.0968 26.8013 92.4223 26.0754 92.8228 25.3996C92.8978 25.2994 92.9229 25.1492 92.9604 25.0116C92.9855 24.8864 92.8353 24.7613 92.6851 24.7863C92.61 24.8113 92.5349 24.8364 92.4723 24.8739C92.2345 25.0616 92.0092 25.2369 91.7714 25.4246C91.5712 25.5748 91.3584 25.7375 91.1456 25.8752C90.5449 26.2256 89.9817 26.6637 89.3934 27.0767C89.1431 27.2519 88.8678 27.4021 88.6049 27.5648C88.4547 27.6399 88.3171 27.6274 88.2169 27.5272C87.7288 27.0892 87.2032 26.6887 86.8402 26.1505C86.8027 26.113 86.7526 26.0629 86.7401 26.0003C86.7276 25.9377 86.7276 25.8376 86.7776 25.7876C86.9153 25.6248 87.078 25.4872 87.2532 25.362C87.5786 25.1367 87.904 24.9114 88.242 24.6987C88.3546 24.6111 88.4923 24.5235 88.6049 24.4108C88.9804 24.0353 89.431 23.735 89.9066 23.5097C90.2695 23.3219 90.5949 23.1217 90.8828 22.8338C91.1081 22.6085 91.3834 22.4583 91.6588 22.3082C91.8966 22.1455 92.1719 22.0203 92.4222 21.8701C92.5599 21.7825 92.6976 21.6949 92.7977 21.5948C93.2984 21.1442 93.8365 20.7562 94.4248 20.4183C95.1131 20.0053 95.7765 19.5422 96.4523 19.0916C96.7027 18.9414 96.8278 18.9414 97.0406 19.1291C97.3159 19.3795 97.5788 19.6423 97.8541 19.9176C98.0544 20.1179 98.2421 20.3557 98.4549 20.5685C98.5049 20.6436 98.5925 20.7061 98.6426 20.7812C98.8554 21.0441 98.8804 21.3194 98.7177 21.6073C98.6801 21.6699 98.6426 21.7074 98.6176 21.7575C98.2045 22.2956 97.8917 22.8839 97.4911 23.4095C97.1908 23.785 96.9279 24.173 96.6526 24.5485C96.6025 24.5986 96.59 24.6611 96.565 24.7112C96.5399 24.8113 96.5525 24.924 96.6276 24.974C96.6901 25.0116 96.7903 25.0616 96.8528 25.0241C97.0656 24.9365 97.2784 24.8489 97.4911 24.7362C97.7039 24.5986 97.9167 24.4609 98.1169 24.2857C98.4048 24.0479 98.7177 23.8601 99.0681 23.6849C99.4311 23.4972 99.8191 23.3345 100.107 23.0216C100.157 22.9715 100.232 22.9465 100.307 22.8964C100.47 22.7838 100.645 22.8088 100.795 22.9339C101.083 23.1467 101.359 23.372 101.634 23.5973C101.696 23.6348 101.759 23.6974 101.797 23.76C102.059 24.0479 102.31 24.3482 102.573 24.6611C102.723 24.8363 102.723 24.9365 102.598 25.1367C102.109 25.8752 101.609 26.6011 101.121 27.3395C100.908 27.6774 100.72 28.0154 100.495 28.3408C100.407 28.4784 100.307 28.6036 100.195 28.7162C99.8691 29.0417 99.6313 29.4296 99.4436 29.8427C99.331 30.1305 99.1557 30.3808 98.9555 30.6312C98.7803 30.8314 98.6176 31.0191 98.4924 31.2444C98.1044 31.8577 97.6664 32.446 97.3159 33.0968C97.1032 33.4848 96.8403 33.8477 96.5525 34.2107C96.4398 34.3484 96.3522 34.5111 96.2521 34.6362Z" fill="white"/>
<path d="M150.991 49.0385C151.329 49.4515 151.329 49.4766 150.941 49.8646C150.653 50.1524 150.378 50.4278 150.103 50.7031C150.027 50.7782 149.965 50.8408 149.89 50.9159C149.727 51.0536 149.577 51.0786 149.414 50.9409C149.164 50.7156 148.926 50.4778 148.688 50.24C148.463 50.0148 148.263 49.7895 148.025 49.5767C147.85 49.4015 147.612 49.389 147.437 49.5392C147.236 49.6893 147.036 49.8646 146.861 50.0398C145.985 50.966 145.046 51.8045 144.195 52.7307C143.594 53.3314 142.994 53.9322 142.393 54.533C142.017 54.9084 141.629 55.2714 141.254 55.6469C141.179 55.6969 141.129 55.772 141.066 55.8096C140.653 56.0724 140.591 56.0599 140.265 55.7094C140.215 55.6594 140.152 55.5968 140.115 55.5342C139.952 55.2464 139.727 55.0461 139.452 54.8709C139.301 54.7457 139.164 54.608 139.026 54.4704C138.888 54.3327 138.888 54.1324 139.014 53.9823C139.114 53.8571 139.214 53.7319 139.314 53.6318C139.739 53.2313 140.152 52.8433 140.553 52.4428C141.329 51.6418 142.105 50.8658 142.893 50.0773C143.069 49.8771 143.294 49.7019 143.507 49.5392C143.807 49.3139 144.095 49.051 144.32 48.7757C144.558 48.4628 144.821 48.2 145.071 47.9246C145.121 47.8746 145.171 47.7995 145.221 47.7494C145.572 47.424 145.559 47.0861 145.259 46.7106C145.084 46.4853 144.883 46.3101 144.696 46.0973C144.52 45.9221 144.32 45.7469 144.158 45.5591C143.932 45.2838 143.932 45.1586 144.195 44.8958C144.533 44.5328 144.896 44.1949 145.259 43.857C145.434 43.6818 145.584 43.6818 145.76 43.857C146.123 44.245 146.548 44.5704 146.911 44.9834C147.099 45.2212 147.362 45.4089 147.612 45.6092C147.787 45.7344 147.95 45.872 148.075 46.0472C148.35 46.4478 148.688 46.7857 149.076 47.0485C149.226 47.1737 149.364 47.3113 149.477 47.474C149.702 47.7744 149.965 48.0623 150.278 48.2751C150.478 48.4002 150.641 48.5629 150.766 48.7632C150.841 48.8633 150.929 48.9509 150.991 49.0385Z" fill="white"/>
<path d="M138.402 48.9399C138.239 49.1777 138.014 49.3279 137.739 49.428C137.125 49.6408 136.487 49.8035 135.849 49.9161C135.473 49.9662 135.11 49.9286 134.76 49.7534C134.509 49.6283 134.259 49.5281 134.009 49.403C133.859 49.3279 133.683 49.2278 133.583 49.1026C133.058 48.5018 132.582 47.8761 132.269 47.1376C132.094 46.7622 132.006 46.3742 132.069 45.9361C132.094 45.6357 132.044 45.3354 132.056 45.0475C132.069 44.8347 132.106 44.622 132.156 44.4217C132.194 44.259 132.382 44.1714 132.532 44.2214C133.183 44.3716 133.821 44.5594 134.484 44.7221C134.71 44.7721 134.822 44.9098 134.822 45.1351C134.835 45.3729 134.847 45.6107 134.835 45.8485C134.81 46.3491 135.023 46.7121 135.398 47.0125C135.436 47.025 135.448 47.0375 135.461 47.05C135.861 47.3254 136.374 47.1376 136.449 46.637C136.487 46.3241 136.449 46.0112 136.412 45.6983C136.399 45.4855 136.312 45.2728 136.237 45.0725C135.924 43.9336 135.711 42.7696 135.711 41.5681C135.711 40.667 136.086 39.941 136.737 39.3403C137.075 39.0024 137.488 38.7646 137.964 38.6644C138.364 38.5893 138.777 38.4767 139.178 38.4016C139.541 38.339 139.891 38.3891 140.217 38.5393C140.404 38.6269 140.592 38.7395 140.767 38.8647C141.13 39.1275 141.468 39.3903 141.731 39.5781C142.094 39.9661 142.319 40.3165 142.469 40.692C142.657 41.1801 142.795 41.6682 142.97 42.1438C143.07 42.4442 143.07 42.7446 143.033 43.0324C142.995 43.3954 142.908 43.7584 142.82 44.1213C142.782 44.284 142.657 44.3591 142.495 44.3216C142.307 44.284 142.119 44.2465 141.931 44.1589C141.556 43.9836 141.168 43.846 140.755 43.7834C140.667 43.7709 140.567 43.7458 140.479 43.7083C140.279 43.6582 140.229 43.5581 140.254 43.3579C140.267 43.1952 140.317 43.045 140.317 42.8948C140.342 42.4192 140.217 41.9936 139.916 41.6182C139.791 41.468 139.641 41.3428 139.453 41.2802C139.253 41.1801 139.053 41.2051 138.877 41.3053C138.615 41.468 138.439 41.6933 138.402 42.0061C138.377 42.3316 138.389 42.6445 138.489 42.9448C138.602 43.2577 138.702 43.5831 138.815 43.896C138.902 44.2089 139.003 44.5093 139.078 44.8097C139.19 45.1977 139.24 45.5732 139.24 45.9737C139.228 46.3366 139.253 46.6871 139.253 47.0375C139.265 47.2002 139.24 47.3504 139.19 47.5006C139.015 48.0262 138.715 48.5018 138.402 48.9399Z" fill="white"/>
<path d="M134.069 38.9743C134.006 39.0869 133.906 39.162 133.831 39.2371C133.23 39.8378 132.629 40.4386 132.029 41.0394C131.866 41.2021 130.627 42.2158 130.477 42.2909C129.913 42.6289 129.313 42.8041 128.662 42.6789C128.174 42.5913 127.698 42.4912 127.223 42.366C127.035 42.3285 126.835 42.2284 126.697 42.1157C125.933 41.4774 125.283 40.7265 124.769 39.8879C124.607 39.6501 124.532 39.3998 124.519 39.1119C124.532 38.749 124.519 38.411 124.507 38.0481C124.494 37.4348 124.719 36.8841 125.057 36.396C125.295 36.033 125.583 35.6951 125.871 35.3822C126.522 34.6563 127.26 34.043 127.911 33.3171C128.049 33.1544 128.211 33.0167 128.374 32.854C128.374 32.854 129.801 31.4523 130.514 30.7389C130.777 30.476 131.027 30.2007 131.315 29.9379C131.528 29.7501 131.666 29.7626 131.891 29.9379C132.266 30.2633 132.642 30.5887 132.992 30.9141C133.13 31.0518 133.28 31.202 133.368 31.3647C133.493 31.5399 133.443 31.7902 133.268 31.8903C132.892 32.1156 132.604 32.4535 132.304 32.7539C131.991 33.0668 131.666 33.3422 131.378 33.6801C130.977 34.1557 130.514 34.5937 130.051 35.0068C129.688 35.3447 129.338 35.6951 129 36.0581C128.549 36.5337 128.111 37.0468 127.661 37.5475C127.335 37.8979 127.248 38.336 127.448 38.8116C127.698 39.4624 128.161 39.7753 128.862 39.7502C129.576 39.7127 130.101 39.3622 130.464 38.774C130.852 38.1357 131.428 37.6851 131.979 37.2095C132.316 36.9217 132.679 36.6588 132.917 36.2458C132.967 36.1707 133.042 36.0956 133.105 36.033C133.418 35.7202 133.718 35.4198 134.031 35.1069C134.119 35.0193 134.194 34.9442 134.306 34.8816C134.544 34.7439 134.745 34.5687 134.882 34.3059C134.932 34.2308 134.995 34.1432 135.057 34.0806C135.333 33.8303 135.621 33.7927 135.921 34.018C136.184 34.2057 136.459 34.406 136.697 34.6438C136.922 34.8691 137.098 35.1194 137.285 35.3822C137.373 35.4949 137.348 35.6951 137.235 35.8078C137.06 35.983 136.897 36.1457 136.71 36.2834C136.246 36.6463 135.858 37.0593 135.483 37.4849C135.383 37.585 135.308 37.6851 135.195 37.7727C134.782 38.1357 134.357 38.4861 134.069 38.9743Z" fill="white"/>
<path d="M124.307 33.3925C124.106 33.6679 123.856 33.8932 123.568 34.0559C123.13 34.3187 122.705 34.544 122.254 34.7192C121.741 34.9069 121.215 35.0071 120.677 34.8944C120.452 34.8444 120.214 34.8318 119.976 34.7693C119.476 34.6441 119.012 34.4313 118.65 34.0433C118.449 33.8181 118.237 33.6303 118.024 33.4176C117.786 33.2048 117.611 32.9545 117.511 32.6291C117.385 32.2286 117.223 31.8155 117.123 31.39C117.048 31.0896 117.01 30.7767 116.997 30.4638C116.972 30.3136 117.073 30.2135 117.235 30.176C117.686 30.1009 118.124 30.0383 118.574 30.0884C118.837 30.1259 119.088 30.1009 119.35 30.0884C119.501 30.0884 119.613 30.176 119.651 30.3136C119.676 30.4388 119.701 30.564 119.726 30.6641C119.813 30.9019 119.876 31.1647 119.976 31.39C120.214 31.9031 120.552 32.0909 121.115 32.0533C121.541 32.0033 121.916 31.8531 122.229 31.5402C122.855 30.9144 123.493 30.3011 124.131 29.6879C124.369 29.4501 124.82 28.9494 124.82 28.9494C125.345 28.4238 125.871 27.8981 126.397 27.3724C126.722 27.047 127.06 26.7341 127.386 26.4337C127.448 26.3712 127.486 26.3086 127.561 26.2585C127.911 26.0082 128.024 26.0458 128.274 26.2961C128.587 26.609 128.925 26.9219 129.263 27.2348C129.663 27.6102 129.688 27.8856 129.288 28.2861C128.875 28.7241 128.462 29.1372 128.036 29.5377C127.573 29.9757 127.135 30.4138 126.747 30.9269C126.509 31.2398 126.222 31.5026 125.909 31.7655C125.32 32.2536 124.745 32.7542 124.307 33.3925Z" fill="white"/>
</svg>
