<svg width="32" height="32" viewBox="0 0 32 32" fill="none" xmlns="http://www.w3.org/2000/svg">
<circle cx="14.5" cy="16.5" r="7.5" fill="white"/>
<mask id="mask0_315_39504" style="mask-type:alpha" maskUnits="userSpaceOnUse" x="0" y="0" width="32" height="32">
<rect width="32" height="32" fill="#D9D9D9"/>
</mask>
<g mask="url(#mask0_315_39504)">
<path d="M13 21.3846L21.3846 15.9999L13 10.6153V21.3846ZM16.0023 28.6666C14.2503 28.6666 12.6035 28.3341 11.062 27.6693C9.52042 27.0044 8.17953 26.102 7.03931 24.9623C5.89909 23.8225 4.99631 22.4821 4.33098 20.9413C3.66587 19.4004 3.33331 17.754 3.33331 16.0023C3.33331 14.2503 3.66576 12.6035 4.33065 11.0619C4.99554 9.52036 5.89787 8.17947 7.03765 7.03925C8.17742 5.89903 9.51776 4.99625 11.0586 4.33092C12.5995 3.66581 14.2459 3.33325 15.9976 3.33325C17.7496 3.33325 19.3964 3.6657 20.938 4.33058C22.4795 4.99547 23.8204 5.89781 24.9606 7.03759C26.1009 8.17736 27.0036 9.5177 27.669 11.0586C28.3341 12.5995 28.6666 14.2458 28.6666 15.9976C28.6666 17.7496 28.3342 19.3964 27.6693 20.9379C27.0044 22.4795 26.1021 23.8204 24.9623 24.9606C23.8225 26.1008 22.4822 27.0036 20.9413 27.6689C19.4004 28.334 17.7541 28.6666 16.0023 28.6666Z" fill="black"/>
<circle cx="16" cy="16" r="12" stroke="white" stroke-width="2"/>
</g>
</svg>
